%TF.GenerationSoftware,KiCad,Pcbnew,6.0.2-378541a8eb~116~ubuntu20.04.1*%
%TF.CreationDate,2022-02-19T19:42:59-08:00*%
%TF.ProjectId,menorah555_shamash,6d656e6f-7261-4683-9535-355f7368616d,B*%
%TF.SameCoordinates,Original*%
%TF.FileFunction,Legend,Bot*%
%TF.FilePolarity,Positive*%
%FSLAX46Y46*%
G04 Gerber Fmt 4.6, Leading zero omitted, Abs format (unit mm)*
G04 Created by KiCad (PCBNEW 6.0.2-378541a8eb~116~ubuntu20.04.1) date 2022-02-19 19:42:59*
%MOMM*%
%LPD*%
G01*
G04 APERTURE LIST*
G04 Aperture macros list*
%AMRoundRect*
0 Rectangle with rounded corners*
0 $1 Rounding radius*
0 $2 $3 $4 $5 $6 $7 $8 $9 X,Y pos of 4 corners*
0 Add a 4 corners polygon primitive as box body*
4,1,4,$2,$3,$4,$5,$6,$7,$8,$9,$2,$3,0*
0 Add four circle primitives for the rounded corners*
1,1,$1+$1,$2,$3*
1,1,$1+$1,$4,$5*
1,1,$1+$1,$6,$7*
1,1,$1+$1,$8,$9*
0 Add four rect primitives between the rounded corners*
20,1,$1+$1,$2,$3,$4,$5,0*
20,1,$1+$1,$4,$5,$6,$7,0*
20,1,$1+$1,$6,$7,$8,$9,0*
20,1,$1+$1,$8,$9,$2,$3,0*%
G04 Aperture macros list end*
%ADD10C,2.000000*%
%TA.AperFunction,Profile*%
%ADD11C,0.050000*%
%TD*%
%ADD12C,0.150000*%
%ADD13C,0.010000*%
%ADD14C,0.120000*%
%ADD15R,2.000000X2.000000*%
%ADD16O,2.000000X2.000000*%
%ADD17R,3.200000X3.200000*%
%ADD18O,3.200000X3.200000*%
%ADD19RoundRect,0.250000X0.262500X0.450000X-0.262500X0.450000X-0.262500X-0.450000X0.262500X-0.450000X0*%
%ADD20RoundRect,0.250000X-0.262500X-0.450000X0.262500X-0.450000X0.262500X0.450000X-0.262500X0.450000X0*%
%ADD21C,2.000000*%
G04 APERTURE END LIST*
D10*
X121960000Y-143540000D02*
X121970000Y-114850000D01*
X118240000Y-65850000D02*
X110150000Y-65850000D01*
X118220000Y-110610000D02*
X118240000Y-65850000D01*
X110130000Y-110610000D02*
X110150000Y-65850000D01*
X106440000Y-143550000D02*
X106470000Y-114770000D01*
X121970000Y-114850000D02*
X118230000Y-110590000D01*
X106470000Y-114770000D02*
X110110000Y-110650000D01*
D11*
X110100000Y-64800000D02*
X118300000Y-64800000D01*
X119300000Y-110200000D02*
X123000000Y-114400000D01*
X109100000Y-110200000D02*
X105400000Y-114400000D01*
X109100000Y-65800000D02*
X109100000Y-110200000D01*
X110100000Y-64800000D02*
G75*
G03*
X109100000Y-65800000I-1J-999999D01*
G01*
X105400000Y-114400000D02*
X105400000Y-143600000D01*
X123000000Y-114400000D02*
X123000000Y-143600000D01*
X119300000Y-65800000D02*
X119300000Y-110200000D01*
X119300000Y-65800000D02*
G75*
G03*
X118300000Y-64800000I-999999J1D01*
G01*
X122000000Y-144600000D02*
G75*
G03*
X123000000Y-143600000I1J999999D01*
G01*
X106400000Y-144600000D02*
X122000000Y-144600000D01*
X105400000Y-143600000D02*
G75*
G03*
X106400000Y-144600000I999999J-1D01*
G01*
D12*
%TO.C,R30*%
X116955357Y-131602380D02*
X117288690Y-131126190D01*
X117526785Y-131602380D02*
X117526785Y-130602380D01*
X117145833Y-130602380D01*
X117050595Y-130650000D01*
X117002976Y-130697619D01*
X116955357Y-130792857D01*
X116955357Y-130935714D01*
X117002976Y-131030952D01*
X117050595Y-131078571D01*
X117145833Y-131126190D01*
X117526785Y-131126190D01*
X116622023Y-130602380D02*
X116002976Y-130602380D01*
X116336309Y-130983333D01*
X116193452Y-130983333D01*
X116098214Y-131030952D01*
X116050595Y-131078571D01*
X116002976Y-131173809D01*
X116002976Y-131411904D01*
X116050595Y-131507142D01*
X116098214Y-131554761D01*
X116193452Y-131602380D01*
X116479166Y-131602380D01*
X116574404Y-131554761D01*
X116622023Y-131507142D01*
X115383928Y-130602380D02*
X115288690Y-130602380D01*
X115193452Y-130650000D01*
X115145833Y-130697619D01*
X115098214Y-130792857D01*
X115050595Y-130983333D01*
X115050595Y-131221428D01*
X115098214Y-131411904D01*
X115145833Y-131507142D01*
X115193452Y-131554761D01*
X115288690Y-131602380D01*
X115383928Y-131602380D01*
X115479166Y-131554761D01*
X115526785Y-131507142D01*
X115574404Y-131411904D01*
X115622023Y-131221428D01*
X115622023Y-130983333D01*
X115574404Y-130792857D01*
X115526785Y-130697619D01*
X115479166Y-130650000D01*
X115383928Y-130602380D01*
%TO.C,R31*%
X112542857Y-131552380D02*
X112876190Y-131076190D01*
X113114285Y-131552380D02*
X113114285Y-130552380D01*
X112733333Y-130552380D01*
X112638095Y-130600000D01*
X112590476Y-130647619D01*
X112542857Y-130742857D01*
X112542857Y-130885714D01*
X112590476Y-130980952D01*
X112638095Y-131028571D01*
X112733333Y-131076190D01*
X113114285Y-131076190D01*
X112209523Y-130552380D02*
X111590476Y-130552380D01*
X111923809Y-130933333D01*
X111780952Y-130933333D01*
X111685714Y-130980952D01*
X111638095Y-131028571D01*
X111590476Y-131123809D01*
X111590476Y-131361904D01*
X111638095Y-131457142D01*
X111685714Y-131504761D01*
X111780952Y-131552380D01*
X112066666Y-131552380D01*
X112161904Y-131504761D01*
X112209523Y-131457142D01*
X110638095Y-131552380D02*
X111209523Y-131552380D01*
X110923809Y-131552380D02*
X110923809Y-130552380D01*
X111019047Y-130695238D01*
X111114285Y-130790476D01*
X111209523Y-130838095D01*
D13*
%TO.C,LOGO2*%
X111904071Y-125656662D02*
X111901089Y-125708068D01*
X111901089Y-125708068D02*
X111898753Y-125786192D01*
X111898753Y-125786192D02*
X111897251Y-125884857D01*
X111897251Y-125884857D02*
X111896769Y-125988343D01*
X111896769Y-125988343D02*
X111896769Y-126338533D01*
X111896769Y-126338533D02*
X111958599Y-126400363D01*
X111958599Y-126400363D02*
X112001207Y-126438462D01*
X112001207Y-126438462D02*
X112038610Y-126453895D01*
X112038610Y-126453895D02*
X112089730Y-126452918D01*
X112089730Y-126452918D02*
X112110022Y-126450433D01*
X112110022Y-126450433D02*
X112173446Y-126443200D01*
X112173446Y-126443200D02*
X112225905Y-126439055D01*
X112225905Y-126439055D02*
X112238692Y-126438672D01*
X112238692Y-126438672D02*
X112281801Y-126441176D01*
X112281801Y-126441176D02*
X112343456Y-126447462D01*
X112343456Y-126447462D02*
X112367362Y-126450433D01*
X112367362Y-126450433D02*
X112426078Y-126455028D01*
X112426078Y-126455028D02*
X112465536Y-126445046D01*
X112465536Y-126445046D02*
X112504662Y-126414228D01*
X112504662Y-126414228D02*
X112518785Y-126400363D01*
X112518785Y-126400363D02*
X112580615Y-126338533D01*
X112580615Y-126338533D02*
X112580615Y-125683503D01*
X112580615Y-125683503D02*
X112530850Y-125660829D01*
X112530850Y-125660829D02*
X112487998Y-125644034D01*
X112487998Y-125644034D02*
X112462927Y-125638154D01*
X112462927Y-125638154D02*
X112456499Y-125656736D01*
X112456499Y-125656736D02*
X112450491Y-125708655D01*
X112450491Y-125708655D02*
X112445303Y-125788172D01*
X112445303Y-125788172D02*
X112441336Y-125889546D01*
X112441336Y-125889546D02*
X112439423Y-125975192D01*
X112439423Y-125975192D02*
X112434077Y-126312231D01*
X112434077Y-126312231D02*
X112387440Y-126318825D01*
X112387440Y-126318825D02*
X112345024Y-126314214D01*
X112345024Y-126314214D02*
X112324240Y-126299287D01*
X112324240Y-126299287D02*
X112318430Y-126271377D01*
X112318430Y-126271377D02*
X112313470Y-126211925D01*
X112313470Y-126211925D02*
X112309754Y-126128466D01*
X112309754Y-126128466D02*
X112307676Y-126028532D01*
X112307676Y-126028532D02*
X112307376Y-125977104D01*
X112307376Y-125977104D02*
X112307077Y-125681054D01*
X112307077Y-125681054D02*
X112245546Y-125659604D01*
X112245546Y-125659604D02*
X112201996Y-125645020D01*
X112201996Y-125645020D02*
X112178306Y-125638219D01*
X112178306Y-125638219D02*
X112177623Y-125638154D01*
X112177623Y-125638154D02*
X112175246Y-125656642D01*
X112175246Y-125656642D02*
X112172634Y-125707906D01*
X112172634Y-125707906D02*
X112170005Y-125785649D01*
X112170005Y-125785649D02*
X112167579Y-125883574D01*
X112167579Y-125883574D02*
X112165885Y-125975192D01*
X112165885Y-125975192D02*
X112160539Y-126312231D01*
X112160539Y-126312231D02*
X112043308Y-126312231D01*
X112043308Y-126312231D02*
X112037928Y-126004746D01*
X112037928Y-126004746D02*
X112032549Y-125697261D01*
X112032549Y-125697261D02*
X111975399Y-125667707D01*
X111975399Y-125667707D02*
X111933203Y-125647413D01*
X111933203Y-125647413D02*
X111908230Y-125638204D01*
X111908230Y-125638204D02*
X111907509Y-125638154D01*
X111907509Y-125638154D02*
X111904071Y-125656662D01*
X111904071Y-125656662D02*
X111904071Y-125656662D01*
G36*
X112487998Y-125644034D02*
G01*
X112530850Y-125660829D01*
X112580615Y-125683503D01*
X112580615Y-126338533D01*
X112518785Y-126400363D01*
X112504662Y-126414228D01*
X112465536Y-126445046D01*
X112426078Y-126455028D01*
X112367362Y-126450433D01*
X112343456Y-126447462D01*
X112281801Y-126441176D01*
X112238692Y-126438672D01*
X112225905Y-126439055D01*
X112173446Y-126443200D01*
X112110022Y-126450433D01*
X112089730Y-126452918D01*
X112038610Y-126453895D01*
X112001207Y-126438462D01*
X111958599Y-126400363D01*
X111896769Y-126338533D01*
X111896769Y-125988343D01*
X111897251Y-125884857D01*
X111898753Y-125786192D01*
X111901089Y-125708068D01*
X111904071Y-125656662D01*
X111907509Y-125638154D01*
X111908230Y-125638204D01*
X111933203Y-125647413D01*
X111975399Y-125667707D01*
X112032549Y-125697261D01*
X112037928Y-126004746D01*
X112043308Y-126312231D01*
X112160539Y-126312231D01*
X112165885Y-125975192D01*
X112167579Y-125883574D01*
X112170005Y-125785649D01*
X112172634Y-125707906D01*
X112175246Y-125656642D01*
X112177623Y-125638154D01*
X112178306Y-125638219D01*
X112201996Y-125645020D01*
X112245546Y-125659604D01*
X112307077Y-125681054D01*
X112307376Y-125977104D01*
X112307676Y-126028532D01*
X112309754Y-126128466D01*
X112313470Y-126211925D01*
X112318430Y-126271377D01*
X112324240Y-126299287D01*
X112345024Y-126314214D01*
X112387440Y-126318825D01*
X112434077Y-126312231D01*
X112439423Y-125975192D01*
X112441336Y-125889546D01*
X112445303Y-125788172D01*
X112450491Y-125708655D01*
X112456499Y-125656736D01*
X112462927Y-125638154D01*
X112487998Y-125644034D01*
G37*
X112487998Y-125644034D02*
X112530850Y-125660829D01*
X112580615Y-125683503D01*
X112580615Y-126338533D01*
X112518785Y-126400363D01*
X112504662Y-126414228D01*
X112465536Y-126445046D01*
X112426078Y-126455028D01*
X112367362Y-126450433D01*
X112343456Y-126447462D01*
X112281801Y-126441176D01*
X112238692Y-126438672D01*
X112225905Y-126439055D01*
X112173446Y-126443200D01*
X112110022Y-126450433D01*
X112089730Y-126452918D01*
X112038610Y-126453895D01*
X112001207Y-126438462D01*
X111958599Y-126400363D01*
X111896769Y-126338533D01*
X111896769Y-125988343D01*
X111897251Y-125884857D01*
X111898753Y-125786192D01*
X111901089Y-125708068D01*
X111904071Y-125656662D01*
X111907509Y-125638154D01*
X111908230Y-125638204D01*
X111933203Y-125647413D01*
X111975399Y-125667707D01*
X112032549Y-125697261D01*
X112037928Y-126004746D01*
X112043308Y-126312231D01*
X112160539Y-126312231D01*
X112165885Y-125975192D01*
X112167579Y-125883574D01*
X112170005Y-125785649D01*
X112172634Y-125707906D01*
X112175246Y-125656642D01*
X112177623Y-125638154D01*
X112178306Y-125638219D01*
X112201996Y-125645020D01*
X112245546Y-125659604D01*
X112307077Y-125681054D01*
X112307376Y-125977104D01*
X112307676Y-126028532D01*
X112309754Y-126128466D01*
X112313470Y-126211925D01*
X112318430Y-126271377D01*
X112324240Y-126299287D01*
X112345024Y-126314214D01*
X112387440Y-126318825D01*
X112434077Y-126312231D01*
X112439423Y-125975192D01*
X112441336Y-125889546D01*
X112445303Y-125788172D01*
X112450491Y-125708655D01*
X112456499Y-125656736D01*
X112462927Y-125638154D01*
X112487998Y-125644034D01*
X113586638Y-125644670D02*
X113497883Y-125677421D01*
X113497883Y-125677421D02*
X113425978Y-125735350D01*
X113425978Y-125735350D02*
X113397856Y-125776128D01*
X113397856Y-125776128D02*
X113367198Y-125850954D01*
X113367198Y-125850954D02*
X113367835Y-125905058D01*
X113367835Y-125905058D02*
X113400013Y-125941446D01*
X113400013Y-125941446D02*
X113411919Y-125947633D01*
X113411919Y-125947633D02*
X113463325Y-125966925D01*
X113463325Y-125966925D02*
X113489578Y-125961982D01*
X113489578Y-125961982D02*
X113498470Y-125929587D01*
X113498470Y-125929587D02*
X113498923Y-125911692D01*
X113498923Y-125911692D02*
X113515203Y-125845859D01*
X113515203Y-125845859D02*
X113557635Y-125799807D01*
X113557635Y-125799807D02*
X113616612Y-125777564D01*
X113616612Y-125777564D02*
X113682525Y-125783161D01*
X113682525Y-125783161D02*
X113736105Y-125812229D01*
X113736105Y-125812229D02*
X113754202Y-125828810D01*
X113754202Y-125828810D02*
X113767029Y-125848925D01*
X113767029Y-125848925D02*
X113775694Y-125879332D01*
X113775694Y-125879332D02*
X113781304Y-125926788D01*
X113781304Y-125926788D02*
X113784965Y-125998050D01*
X113784965Y-125998050D02*
X113787785Y-126099875D01*
X113787785Y-126099875D02*
X113788516Y-126132115D01*
X113788516Y-126132115D02*
X113791180Y-126242410D01*
X113791180Y-126242410D02*
X113794208Y-126320036D01*
X113794208Y-126320036D02*
X113798750Y-126371396D01*
X113798750Y-126371396D02*
X113805954Y-126402890D01*
X113805954Y-126402890D02*
X113816967Y-126420920D01*
X113816967Y-126420920D02*
X113832940Y-126431888D01*
X113832940Y-126431888D02*
X113843166Y-126436733D01*
X113843166Y-126436733D02*
X113886594Y-126453301D01*
X113886594Y-126453301D02*
X113912158Y-126458769D01*
X113912158Y-126458769D02*
X113920605Y-126440507D01*
X113920605Y-126440507D02*
X113925761Y-126385296D01*
X113925761Y-126385296D02*
X113927654Y-126292499D01*
X113927654Y-126292499D02*
X113926311Y-126161478D01*
X113926311Y-126161478D02*
X113925893Y-126141269D01*
X113925893Y-126141269D02*
X113922942Y-126021733D01*
X113922942Y-126021733D02*
X113919452Y-125934449D01*
X113919452Y-125934449D02*
X113914486Y-125872591D01*
X113914486Y-125872591D02*
X113907107Y-125829336D01*
X113907107Y-125829336D02*
X113896376Y-125797860D01*
X113896376Y-125797860D02*
X113881355Y-125771339D01*
X113881355Y-125771339D02*
X113873498Y-125759975D01*
X113873498Y-125759975D02*
X113828447Y-125709692D01*
X113828447Y-125709692D02*
X113778060Y-125670581D01*
X113778060Y-125670581D02*
X113771892Y-125667167D01*
X113771892Y-125667167D02*
X113681542Y-125640212D01*
X113681542Y-125640212D02*
X113586638Y-125644670D01*
X113586638Y-125644670D02*
X113586638Y-125644670D01*
G36*
X113771892Y-125667167D02*
G01*
X113778060Y-125670581D01*
X113828447Y-125709692D01*
X113873498Y-125759975D01*
X113881355Y-125771339D01*
X113896376Y-125797860D01*
X113907107Y-125829336D01*
X113914486Y-125872591D01*
X113919452Y-125934449D01*
X113922942Y-126021733D01*
X113925893Y-126141269D01*
X113926311Y-126161478D01*
X113927654Y-126292499D01*
X113925761Y-126385296D01*
X113920605Y-126440507D01*
X113912158Y-126458769D01*
X113886594Y-126453301D01*
X113843166Y-126436733D01*
X113832940Y-126431888D01*
X113816967Y-126420920D01*
X113805954Y-126402890D01*
X113798750Y-126371396D01*
X113794208Y-126320036D01*
X113791180Y-126242410D01*
X113788516Y-126132115D01*
X113787785Y-126099875D01*
X113784965Y-125998050D01*
X113781304Y-125926788D01*
X113775694Y-125879332D01*
X113767029Y-125848925D01*
X113754202Y-125828810D01*
X113736105Y-125812229D01*
X113682525Y-125783161D01*
X113616612Y-125777564D01*
X113557635Y-125799807D01*
X113515203Y-125845859D01*
X113498923Y-125911692D01*
X113498470Y-125929587D01*
X113489578Y-125961982D01*
X113463325Y-125966925D01*
X113411919Y-125947633D01*
X113400013Y-125941446D01*
X113367835Y-125905058D01*
X113367198Y-125850954D01*
X113397856Y-125776128D01*
X113425978Y-125735350D01*
X113497883Y-125677421D01*
X113586638Y-125644670D01*
X113681542Y-125640212D01*
X113771892Y-125667167D01*
G37*
X113771892Y-125667167D02*
X113778060Y-125670581D01*
X113828447Y-125709692D01*
X113873498Y-125759975D01*
X113881355Y-125771339D01*
X113896376Y-125797860D01*
X113907107Y-125829336D01*
X113914486Y-125872591D01*
X113919452Y-125934449D01*
X113922942Y-126021733D01*
X113925893Y-126141269D01*
X113926311Y-126161478D01*
X113927654Y-126292499D01*
X113925761Y-126385296D01*
X113920605Y-126440507D01*
X113912158Y-126458769D01*
X113886594Y-126453301D01*
X113843166Y-126436733D01*
X113832940Y-126431888D01*
X113816967Y-126420920D01*
X113805954Y-126402890D01*
X113798750Y-126371396D01*
X113794208Y-126320036D01*
X113791180Y-126242410D01*
X113788516Y-126132115D01*
X113787785Y-126099875D01*
X113784965Y-125998050D01*
X113781304Y-125926788D01*
X113775694Y-125879332D01*
X113767029Y-125848925D01*
X113754202Y-125828810D01*
X113736105Y-125812229D01*
X113682525Y-125783161D01*
X113616612Y-125777564D01*
X113557635Y-125799807D01*
X113515203Y-125845859D01*
X113498923Y-125911692D01*
X113498470Y-125929587D01*
X113489578Y-125961982D01*
X113463325Y-125966925D01*
X113411919Y-125947633D01*
X113400013Y-125941446D01*
X113367835Y-125905058D01*
X113367198Y-125850954D01*
X113397856Y-125776128D01*
X113425978Y-125735350D01*
X113497883Y-125677421D01*
X113586638Y-125644670D01*
X113681542Y-125640212D01*
X113771892Y-125667167D01*
X118283114Y-125607256D02*
X118191536Y-125655409D01*
X118191536Y-125655409D02*
X118123951Y-125732905D01*
X118123951Y-125732905D02*
X118099943Y-125782727D01*
X118099943Y-125782727D02*
X118081262Y-125857533D01*
X118081262Y-125857533D02*
X118071699Y-125952052D01*
X118071699Y-125952052D02*
X118070792Y-126055210D01*
X118070792Y-126055210D02*
X118078079Y-126155935D01*
X118078079Y-126155935D02*
X118093097Y-126243153D01*
X118093097Y-126243153D02*
X118115385Y-126305791D01*
X118115385Y-126305791D02*
X118122235Y-126316579D01*
X118122235Y-126316579D02*
X118203368Y-126397105D01*
X118203368Y-126397105D02*
X118299734Y-126445336D01*
X118299734Y-126445336D02*
X118404299Y-126459450D01*
X118404299Y-126459450D02*
X118510032Y-126437629D01*
X118510032Y-126437629D02*
X118539457Y-126424547D01*
X118539457Y-126424547D02*
X118596759Y-126384231D01*
X118596759Y-126384231D02*
X118647050Y-126330775D01*
X118647050Y-126330775D02*
X118651803Y-126323995D01*
X118651803Y-126323995D02*
X118671122Y-126291321D01*
X118671122Y-126291321D02*
X118683892Y-126256394D01*
X118683892Y-126256394D02*
X118691436Y-126210414D01*
X118691436Y-126210414D02*
X118695076Y-126144584D01*
X118695076Y-126144584D02*
X118696135Y-126050105D01*
X118696135Y-126050105D02*
X118696154Y-126028923D01*
X118696154Y-126028923D02*
X118696106Y-126022182D01*
X118696106Y-126022182D02*
X118500769Y-126022182D01*
X118500769Y-126022182D02*
X118499632Y-126111349D01*
X118499632Y-126111349D02*
X118495159Y-126170520D01*
X118495159Y-126170520D02*
X118485754Y-126208741D01*
X118485754Y-126208741D02*
X118469824Y-126235053D01*
X118469824Y-126235053D02*
X118461692Y-126243846D01*
X118461692Y-126243846D02*
X118414942Y-126277261D01*
X118414942Y-126277261D02*
X118369553Y-126275737D01*
X118369553Y-126275737D02*
X118323660Y-126246752D01*
X118323660Y-126246752D02*
X118296288Y-126215809D01*
X118296288Y-126215809D02*
X118280077Y-126170643D01*
X118280077Y-126170643D02*
X118270974Y-126099420D01*
X118270974Y-126099420D02*
X118270349Y-126091114D01*
X118270349Y-126091114D02*
X118268796Y-125962037D01*
X118268796Y-125962037D02*
X118285035Y-125866172D01*
X118285035Y-125866172D02*
X118318848Y-125804107D01*
X118318848Y-125804107D02*
X118370016Y-125776432D01*
X118370016Y-125776432D02*
X118388280Y-125774923D01*
X118388280Y-125774923D02*
X118436240Y-125782513D01*
X118436240Y-125782513D02*
X118469047Y-125808808D01*
X118469047Y-125808808D02*
X118489105Y-125859095D01*
X118489105Y-125859095D02*
X118498822Y-125938664D01*
X118498822Y-125938664D02*
X118500769Y-126022182D01*
X118500769Y-126022182D02*
X118696106Y-126022182D01*
X118696106Y-126022182D02*
X118695426Y-125928249D01*
X118695426Y-125928249D02*
X118692371Y-125857906D01*
X118692371Y-125857906D02*
X118685678Y-125809163D01*
X118685678Y-125809163D02*
X118674040Y-125773288D01*
X118674040Y-125773288D02*
X118656147Y-125741548D01*
X118656147Y-125741548D02*
X118652192Y-125735648D01*
X118652192Y-125735648D02*
X118585733Y-125656104D01*
X118585733Y-125656104D02*
X118513315Y-125609929D01*
X118513315Y-125609929D02*
X118425151Y-125591599D01*
X118425151Y-125591599D02*
X118395213Y-125590703D01*
X118395213Y-125590703D02*
X118283114Y-125607256D01*
X118283114Y-125607256D02*
X118283114Y-125607256D01*
G36*
X118696135Y-126050105D02*
G01*
X118695076Y-126144584D01*
X118691436Y-126210414D01*
X118683892Y-126256394D01*
X118671122Y-126291321D01*
X118651803Y-126323995D01*
X118647050Y-126330775D01*
X118596759Y-126384231D01*
X118539457Y-126424547D01*
X118510032Y-126437629D01*
X118404299Y-126459450D01*
X118299734Y-126445336D01*
X118203368Y-126397105D01*
X118122235Y-126316579D01*
X118115385Y-126305791D01*
X118093097Y-126243153D01*
X118078079Y-126155935D01*
X118070792Y-126055210D01*
X118071611Y-125962037D01*
X118268796Y-125962037D01*
X118270349Y-126091114D01*
X118270974Y-126099420D01*
X118280077Y-126170643D01*
X118296288Y-126215809D01*
X118323660Y-126246752D01*
X118369553Y-126275737D01*
X118414942Y-126277261D01*
X118461692Y-126243846D01*
X118469824Y-126235053D01*
X118485754Y-126208741D01*
X118495159Y-126170520D01*
X118499632Y-126111349D01*
X118500769Y-126022182D01*
X118498822Y-125938664D01*
X118489105Y-125859095D01*
X118469047Y-125808808D01*
X118436240Y-125782513D01*
X118388280Y-125774923D01*
X118370016Y-125776432D01*
X118318848Y-125804107D01*
X118285035Y-125866172D01*
X118268796Y-125962037D01*
X118071611Y-125962037D01*
X118071699Y-125952052D01*
X118081262Y-125857533D01*
X118099943Y-125782727D01*
X118123951Y-125732905D01*
X118191536Y-125655409D01*
X118283114Y-125607256D01*
X118395213Y-125590703D01*
X118425151Y-125591599D01*
X118513315Y-125609929D01*
X118585733Y-125656104D01*
X118652192Y-125735648D01*
X118656147Y-125741548D01*
X118674040Y-125773288D01*
X118685678Y-125809163D01*
X118692371Y-125857906D01*
X118695426Y-125928249D01*
X118696106Y-126022182D01*
X118696154Y-126028923D01*
X118696135Y-126050105D01*
G37*
X118696135Y-126050105D02*
X118695076Y-126144584D01*
X118691436Y-126210414D01*
X118683892Y-126256394D01*
X118671122Y-126291321D01*
X118651803Y-126323995D01*
X118647050Y-126330775D01*
X118596759Y-126384231D01*
X118539457Y-126424547D01*
X118510032Y-126437629D01*
X118404299Y-126459450D01*
X118299734Y-126445336D01*
X118203368Y-126397105D01*
X118122235Y-126316579D01*
X118115385Y-126305791D01*
X118093097Y-126243153D01*
X118078079Y-126155935D01*
X118070792Y-126055210D01*
X118071611Y-125962037D01*
X118268796Y-125962037D01*
X118270349Y-126091114D01*
X118270974Y-126099420D01*
X118280077Y-126170643D01*
X118296288Y-126215809D01*
X118323660Y-126246752D01*
X118369553Y-126275737D01*
X118414942Y-126277261D01*
X118461692Y-126243846D01*
X118469824Y-126235053D01*
X118485754Y-126208741D01*
X118495159Y-126170520D01*
X118499632Y-126111349D01*
X118500769Y-126022182D01*
X118498822Y-125938664D01*
X118489105Y-125859095D01*
X118469047Y-125808808D01*
X118436240Y-125782513D01*
X118388280Y-125774923D01*
X118370016Y-125776432D01*
X118318848Y-125804107D01*
X118285035Y-125866172D01*
X118268796Y-125962037D01*
X118071611Y-125962037D01*
X118071699Y-125952052D01*
X118081262Y-125857533D01*
X118099943Y-125782727D01*
X118123951Y-125732905D01*
X118191536Y-125655409D01*
X118283114Y-125607256D01*
X118395213Y-125590703D01*
X118425151Y-125591599D01*
X118513315Y-125609929D01*
X118585733Y-125656104D01*
X118652192Y-125735648D01*
X118656147Y-125741548D01*
X118674040Y-125773288D01*
X118685678Y-125809163D01*
X118692371Y-125857906D01*
X118695426Y-125928249D01*
X118696106Y-126022182D01*
X118696154Y-126028923D01*
X118696135Y-126050105D01*
X114246499Y-125646303D02*
X114169940Y-125674733D01*
X114169940Y-125674733D02*
X114169064Y-125675279D01*
X114169064Y-125675279D02*
X114121715Y-125710127D01*
X114121715Y-125710127D02*
X114086759Y-125750852D01*
X114086759Y-125750852D02*
X114062175Y-125803925D01*
X114062175Y-125803925D02*
X114045938Y-125875814D01*
X114045938Y-125875814D02*
X114036025Y-125972992D01*
X114036025Y-125972992D02*
X114030414Y-126101928D01*
X114030414Y-126101928D02*
X114029923Y-126120298D01*
X114029923Y-126120298D02*
X114022859Y-126397287D01*
X114022859Y-126397287D02*
X114082305Y-126428028D01*
X114082305Y-126428028D02*
X114125319Y-126448802D01*
X114125319Y-126448802D02*
X114151290Y-126458646D01*
X114151290Y-126458646D02*
X114152491Y-126458769D01*
X114152491Y-126458769D02*
X114156986Y-126440606D01*
X114156986Y-126440606D02*
X114160556Y-126391612D01*
X114160556Y-126391612D02*
X114162752Y-126320031D01*
X114162752Y-126320031D02*
X114163231Y-126262068D01*
X114163231Y-126262068D02*
X114163242Y-126168170D01*
X114163242Y-126168170D02*
X114167534Y-126109203D01*
X114167534Y-126109203D02*
X114182497Y-126081079D01*
X114182497Y-126081079D02*
X114214518Y-126079706D01*
X114214518Y-126079706D02*
X114269986Y-126100998D01*
X114269986Y-126100998D02*
X114353731Y-126140136D01*
X114353731Y-126140136D02*
X114415311Y-126172643D01*
X114415311Y-126172643D02*
X114446983Y-126200845D01*
X114446983Y-126200845D02*
X114456294Y-126231582D01*
X114456294Y-126231582D02*
X114456308Y-126233104D01*
X114456308Y-126233104D02*
X114440943Y-126286054D01*
X114440943Y-126286054D02*
X114395453Y-126314660D01*
X114395453Y-126314660D02*
X114325834Y-126318803D01*
X114325834Y-126318803D02*
X114275687Y-126318084D01*
X114275687Y-126318084D02*
X114249246Y-126332527D01*
X114249246Y-126332527D02*
X114232757Y-126367218D01*
X114232757Y-126367218D02*
X114223267Y-126411416D01*
X114223267Y-126411416D02*
X114236943Y-126436493D01*
X114236943Y-126436493D02*
X114242093Y-126440082D01*
X114242093Y-126440082D02*
X114290575Y-126454496D01*
X114290575Y-126454496D02*
X114358469Y-126456537D01*
X114358469Y-126456537D02*
X114428388Y-126446983D01*
X114428388Y-126446983D02*
X114477932Y-126429522D01*
X114477932Y-126429522D02*
X114546430Y-126371364D01*
X114546430Y-126371364D02*
X114585366Y-126290408D01*
X114585366Y-126290408D02*
X114593077Y-126227160D01*
X114593077Y-126227160D02*
X114587193Y-126170111D01*
X114587193Y-126170111D02*
X114565899Y-126123542D01*
X114565899Y-126123542D02*
X114523735Y-126082181D01*
X114523735Y-126082181D02*
X114455241Y-126040755D01*
X114455241Y-126040755D02*
X114354956Y-125993993D01*
X114354956Y-125993993D02*
X114348846Y-125991350D01*
X114348846Y-125991350D02*
X114258510Y-125949617D01*
X114258510Y-125949617D02*
X114202765Y-125915391D01*
X114202765Y-125915391D02*
X114178871Y-125884635D01*
X114178871Y-125884635D02*
X114184087Y-125853311D01*
X114184087Y-125853311D02*
X114215672Y-125817383D01*
X114215672Y-125817383D02*
X114225117Y-125809116D01*
X114225117Y-125809116D02*
X114288383Y-125777058D01*
X114288383Y-125777058D02*
X114353936Y-125778407D01*
X114353936Y-125778407D02*
X114411028Y-125809838D01*
X114411028Y-125809838D02*
X114448907Y-125868024D01*
X114448907Y-125868024D02*
X114452426Y-125879446D01*
X114452426Y-125879446D02*
X114486700Y-125934837D01*
X114486700Y-125934837D02*
X114530191Y-125961518D01*
X114530191Y-125961518D02*
X114593077Y-125987960D01*
X114593077Y-125987960D02*
X114593077Y-125919548D01*
X114593077Y-125919548D02*
X114573948Y-125820110D01*
X114573948Y-125820110D02*
X114517169Y-125728902D01*
X114517169Y-125728902D02*
X114487622Y-125698389D01*
X114487622Y-125698389D02*
X114420458Y-125659228D01*
X114420458Y-125659228D02*
X114335044Y-125641500D01*
X114335044Y-125641500D02*
X114246499Y-125646303D01*
X114246499Y-125646303D02*
X114246499Y-125646303D01*
G36*
X114420458Y-125659228D02*
G01*
X114487622Y-125698389D01*
X114517169Y-125728902D01*
X114573948Y-125820110D01*
X114593077Y-125919548D01*
X114593077Y-125987960D01*
X114530191Y-125961518D01*
X114486700Y-125934837D01*
X114452426Y-125879446D01*
X114448907Y-125868024D01*
X114411028Y-125809838D01*
X114353936Y-125778407D01*
X114288383Y-125777058D01*
X114225117Y-125809116D01*
X114215672Y-125817383D01*
X114184087Y-125853311D01*
X114178871Y-125884635D01*
X114202765Y-125915391D01*
X114258510Y-125949617D01*
X114348846Y-125991350D01*
X114354956Y-125993993D01*
X114455241Y-126040755D01*
X114523735Y-126082181D01*
X114565899Y-126123542D01*
X114587193Y-126170111D01*
X114593077Y-126227160D01*
X114585366Y-126290408D01*
X114546430Y-126371364D01*
X114477932Y-126429522D01*
X114428388Y-126446983D01*
X114358469Y-126456537D01*
X114290575Y-126454496D01*
X114242093Y-126440082D01*
X114236943Y-126436493D01*
X114223267Y-126411416D01*
X114232757Y-126367218D01*
X114249246Y-126332527D01*
X114275687Y-126318084D01*
X114325834Y-126318803D01*
X114395453Y-126314660D01*
X114440943Y-126286054D01*
X114456308Y-126233104D01*
X114456294Y-126231582D01*
X114446983Y-126200845D01*
X114415311Y-126172643D01*
X114353731Y-126140136D01*
X114269986Y-126100998D01*
X114214518Y-126079706D01*
X114182497Y-126081079D01*
X114167534Y-126109203D01*
X114163242Y-126168170D01*
X114163231Y-126262068D01*
X114162752Y-126320031D01*
X114160556Y-126391612D01*
X114156986Y-126440606D01*
X114152491Y-126458769D01*
X114151290Y-126458646D01*
X114125319Y-126448802D01*
X114082305Y-126428028D01*
X114022859Y-126397287D01*
X114029923Y-126120298D01*
X114030414Y-126101928D01*
X114036025Y-125972992D01*
X114045938Y-125875814D01*
X114062175Y-125803925D01*
X114086759Y-125750852D01*
X114121715Y-125710127D01*
X114169064Y-125675279D01*
X114169940Y-125674733D01*
X114246499Y-125646303D01*
X114335044Y-125641500D01*
X114420458Y-125659228D01*
G37*
X114420458Y-125659228D02*
X114487622Y-125698389D01*
X114517169Y-125728902D01*
X114573948Y-125820110D01*
X114593077Y-125919548D01*
X114593077Y-125987960D01*
X114530191Y-125961518D01*
X114486700Y-125934837D01*
X114452426Y-125879446D01*
X114448907Y-125868024D01*
X114411028Y-125809838D01*
X114353936Y-125778407D01*
X114288383Y-125777058D01*
X114225117Y-125809116D01*
X114215672Y-125817383D01*
X114184087Y-125853311D01*
X114178871Y-125884635D01*
X114202765Y-125915391D01*
X114258510Y-125949617D01*
X114348846Y-125991350D01*
X114354956Y-125993993D01*
X114455241Y-126040755D01*
X114523735Y-126082181D01*
X114565899Y-126123542D01*
X114587193Y-126170111D01*
X114593077Y-126227160D01*
X114585366Y-126290408D01*
X114546430Y-126371364D01*
X114477932Y-126429522D01*
X114428388Y-126446983D01*
X114358469Y-126456537D01*
X114290575Y-126454496D01*
X114242093Y-126440082D01*
X114236943Y-126436493D01*
X114223267Y-126411416D01*
X114232757Y-126367218D01*
X114249246Y-126332527D01*
X114275687Y-126318084D01*
X114325834Y-126318803D01*
X114395453Y-126314660D01*
X114440943Y-126286054D01*
X114456308Y-126233104D01*
X114456294Y-126231582D01*
X114446983Y-126200845D01*
X114415311Y-126172643D01*
X114353731Y-126140136D01*
X114269986Y-126100998D01*
X114214518Y-126079706D01*
X114182497Y-126081079D01*
X114167534Y-126109203D01*
X114163242Y-126168170D01*
X114163231Y-126262068D01*
X114162752Y-126320031D01*
X114160556Y-126391612D01*
X114156986Y-126440606D01*
X114152491Y-126458769D01*
X114151290Y-126458646D01*
X114125319Y-126448802D01*
X114082305Y-126428028D01*
X114022859Y-126397287D01*
X114029923Y-126120298D01*
X114030414Y-126101928D01*
X114036025Y-125972992D01*
X114045938Y-125875814D01*
X114062175Y-125803925D01*
X114086759Y-125750852D01*
X114121715Y-125710127D01*
X114169064Y-125675279D01*
X114169940Y-125674733D01*
X114246499Y-125646303D01*
X114335044Y-125641500D01*
X114420458Y-125659228D01*
X110729193Y-125656782D02*
X110705839Y-125666988D01*
X110705839Y-125666988D02*
X110650098Y-125711134D01*
X110650098Y-125711134D02*
X110602431Y-125774967D01*
X110602431Y-125774967D02*
X110572952Y-125843087D01*
X110572952Y-125843087D02*
X110568154Y-125876670D01*
X110568154Y-125876670D02*
X110584240Y-125923556D01*
X110584240Y-125923556D02*
X110619525Y-125948365D01*
X110619525Y-125948365D02*
X110657356Y-125963387D01*
X110657356Y-125963387D02*
X110674679Y-125966155D01*
X110674679Y-125966155D02*
X110683114Y-125946066D01*
X110683114Y-125946066D02*
X110699770Y-125902351D01*
X110699770Y-125902351D02*
X110707077Y-125882598D01*
X110707077Y-125882598D02*
X110748052Y-125814271D01*
X110748052Y-125814271D02*
X110807378Y-125780191D01*
X110807378Y-125780191D02*
X110883448Y-125781239D01*
X110883448Y-125781239D02*
X110889082Y-125782581D01*
X110889082Y-125782581D02*
X110929695Y-125801836D01*
X110929695Y-125801836D02*
X110959552Y-125839375D01*
X110959552Y-125839375D02*
X110979945Y-125899809D01*
X110979945Y-125899809D02*
X110992164Y-125987751D01*
X110992164Y-125987751D02*
X110997500Y-126107813D01*
X110997500Y-126107813D02*
X110998000Y-126171698D01*
X110998000Y-126171698D02*
X110998248Y-126272403D01*
X110998248Y-126272403D02*
X110999874Y-126341054D01*
X110999874Y-126341054D02*
X111004199Y-126384673D01*
X111004199Y-126384673D02*
X111012546Y-126410282D01*
X111012546Y-126410282D02*
X111026235Y-126424903D01*
X111026235Y-126424903D02*
X111046589Y-126435558D01*
X111046589Y-126435558D02*
X111047766Y-126436095D01*
X111047766Y-126436095D02*
X111086962Y-126452667D01*
X111086962Y-126452667D02*
X111106381Y-126458769D01*
X111106381Y-126458769D02*
X111109365Y-126440319D01*
X111109365Y-126440319D02*
X111111919Y-126389323D01*
X111111919Y-126389323D02*
X111113860Y-126312308D01*
X111113860Y-126312308D02*
X111115003Y-126215805D01*
X111115003Y-126215805D02*
X111115231Y-126145184D01*
X111115231Y-126145184D02*
X111114068Y-126008525D01*
X111114068Y-126008525D02*
X111109521Y-125904851D01*
X111109521Y-125904851D02*
X111100001Y-125828108D01*
X111100001Y-125828108D02*
X111083919Y-125772246D01*
X111083919Y-125772246D02*
X111059687Y-125731212D01*
X111059687Y-125731212D02*
X111025714Y-125698954D01*
X111025714Y-125698954D02*
X110992167Y-125676440D01*
X110992167Y-125676440D02*
X110911501Y-125646476D01*
X110911501Y-125646476D02*
X110817619Y-125639718D01*
X110817619Y-125639718D02*
X110729193Y-125656782D01*
X110729193Y-125656782D02*
X110729193Y-125656782D01*
G36*
X110911501Y-125646476D02*
G01*
X110992167Y-125676440D01*
X111025714Y-125698954D01*
X111059687Y-125731212D01*
X111083919Y-125772246D01*
X111100001Y-125828108D01*
X111109521Y-125904851D01*
X111114068Y-126008525D01*
X111115231Y-126145184D01*
X111115003Y-126215805D01*
X111113860Y-126312308D01*
X111111919Y-126389323D01*
X111109365Y-126440319D01*
X111106381Y-126458769D01*
X111086962Y-126452667D01*
X111047766Y-126436095D01*
X111046589Y-126435558D01*
X111026235Y-126424903D01*
X111012546Y-126410282D01*
X111004199Y-126384673D01*
X110999874Y-126341054D01*
X110998248Y-126272403D01*
X110998000Y-126171698D01*
X110997500Y-126107813D01*
X110992164Y-125987751D01*
X110979945Y-125899809D01*
X110959552Y-125839375D01*
X110929695Y-125801836D01*
X110889082Y-125782581D01*
X110883448Y-125781239D01*
X110807378Y-125780191D01*
X110748052Y-125814271D01*
X110707077Y-125882598D01*
X110699770Y-125902351D01*
X110683114Y-125946066D01*
X110674679Y-125966155D01*
X110657356Y-125963387D01*
X110619525Y-125948365D01*
X110584240Y-125923556D01*
X110568154Y-125876670D01*
X110572952Y-125843087D01*
X110602431Y-125774967D01*
X110650098Y-125711134D01*
X110705839Y-125666988D01*
X110729193Y-125656782D01*
X110817619Y-125639718D01*
X110911501Y-125646476D01*
G37*
X110911501Y-125646476D02*
X110992167Y-125676440D01*
X111025714Y-125698954D01*
X111059687Y-125731212D01*
X111083919Y-125772246D01*
X111100001Y-125828108D01*
X111109521Y-125904851D01*
X111114068Y-126008525D01*
X111115231Y-126145184D01*
X111115003Y-126215805D01*
X111113860Y-126312308D01*
X111111919Y-126389323D01*
X111109365Y-126440319D01*
X111106381Y-126458769D01*
X111086962Y-126452667D01*
X111047766Y-126436095D01*
X111046589Y-126435558D01*
X111026235Y-126424903D01*
X111012546Y-126410282D01*
X111004199Y-126384673D01*
X110999874Y-126341054D01*
X110998248Y-126272403D01*
X110998000Y-126171698D01*
X110997500Y-126107813D01*
X110992164Y-125987751D01*
X110979945Y-125899809D01*
X110959552Y-125839375D01*
X110929695Y-125801836D01*
X110889082Y-125782581D01*
X110883448Y-125781239D01*
X110807378Y-125780191D01*
X110748052Y-125814271D01*
X110707077Y-125882598D01*
X110699770Y-125902351D01*
X110683114Y-125946066D01*
X110674679Y-125966155D01*
X110657356Y-125963387D01*
X110619525Y-125948365D01*
X110584240Y-125923556D01*
X110568154Y-125876670D01*
X110572952Y-125843087D01*
X110602431Y-125774967D01*
X110650098Y-125711134D01*
X110705839Y-125666988D01*
X110729193Y-125656782D01*
X110817619Y-125639718D01*
X110911501Y-125646476D01*
X117531114Y-125604505D02*
X117456461Y-125641727D01*
X117456461Y-125641727D02*
X117390569Y-125710261D01*
X117390569Y-125710261D02*
X117372423Y-125735648D01*
X117372423Y-125735648D02*
X117352655Y-125768866D01*
X117352655Y-125768866D02*
X117339828Y-125804945D01*
X117339828Y-125804945D02*
X117332490Y-125853098D01*
X117332490Y-125853098D02*
X117329187Y-125922536D01*
X117329187Y-125922536D02*
X117328462Y-126014206D01*
X117328462Y-126014206D02*
X117331737Y-126139830D01*
X117331737Y-126139830D02*
X117343123Y-126234154D01*
X117343123Y-126234154D02*
X117364959Y-126304523D01*
X117364959Y-126304523D02*
X117399581Y-126358286D01*
X117399581Y-126358286D02*
X117449330Y-126402788D01*
X117449330Y-126402788D02*
X117452986Y-126405423D01*
X117452986Y-126405423D02*
X117502015Y-126432377D01*
X117502015Y-126432377D02*
X117561055Y-126445712D01*
X117561055Y-126445712D02*
X117636141Y-126449000D01*
X117636141Y-126449000D02*
X117758205Y-126449000D01*
X117758205Y-126449000D02*
X117758256Y-126567497D01*
X117758256Y-126567497D02*
X117759392Y-126633492D01*
X117759392Y-126633492D02*
X117766314Y-126672202D01*
X117766314Y-126672202D02*
X117784402Y-126695419D01*
X117784402Y-126695419D02*
X117819038Y-126714933D01*
X117819038Y-126714933D02*
X117827355Y-126718920D01*
X117827355Y-126718920D02*
X117866280Y-126737603D01*
X117866280Y-126737603D02*
X117896417Y-126749403D01*
X117896417Y-126749403D02*
X117918826Y-126750422D01*
X117918826Y-126750422D02*
X117934567Y-126736761D01*
X117934567Y-126736761D02*
X117944698Y-126704522D01*
X117944698Y-126704522D02*
X117950277Y-126649804D01*
X117950277Y-126649804D02*
X117952365Y-126568711D01*
X117952365Y-126568711D02*
X117952019Y-126457344D01*
X117952019Y-126457344D02*
X117950300Y-126311802D01*
X117950300Y-126311802D02*
X117949763Y-126268269D01*
X117949763Y-126268269D02*
X117947828Y-126118205D01*
X117947828Y-126118205D02*
X117946096Y-126020042D01*
X117946096Y-126020042D02*
X117758308Y-126020042D01*
X117758308Y-126020042D02*
X117757252Y-126103364D01*
X117757252Y-126103364D02*
X117752562Y-126157880D01*
X117752562Y-126157880D02*
X117741949Y-126193837D01*
X117741949Y-126193837D02*
X117723128Y-126221482D01*
X117723128Y-126221482D02*
X117710350Y-126234965D01*
X117710350Y-126234965D02*
X117658110Y-126274417D01*
X117658110Y-126274417D02*
X117611858Y-126277628D01*
X117611858Y-126277628D02*
X117564133Y-126245049D01*
X117564133Y-126245049D02*
X117562923Y-126243846D01*
X117562923Y-126243846D02*
X117543506Y-126218668D01*
X117543506Y-126218668D02*
X117531693Y-126184447D01*
X117531693Y-126184447D02*
X117525735Y-126131748D01*
X117525735Y-126131748D02*
X117523880Y-126051131D01*
X117523880Y-126051131D02*
X117523846Y-126033271D01*
X117523846Y-126033271D02*
X117528330Y-125922175D01*
X117528330Y-125922175D02*
X117542926Y-125845161D01*
X117542926Y-125845161D02*
X117569350Y-125798147D01*
X117569350Y-125798147D02*
X117609317Y-125777050D01*
X117609317Y-125777050D02*
X117632416Y-125774923D01*
X117632416Y-125774923D02*
X117687238Y-125784900D01*
X117687238Y-125784900D02*
X117724842Y-125817752D01*
X117724842Y-125817752D02*
X117747477Y-125877857D01*
X117747477Y-125877857D02*
X117757394Y-125969598D01*
X117757394Y-125969598D02*
X117758308Y-126020042D01*
X117758308Y-126020042D02*
X117946096Y-126020042D01*
X117946096Y-126020042D02*
X117945778Y-126002060D01*
X117945778Y-126002060D02*
X117943127Y-125914679D01*
X117943127Y-125914679D02*
X117939394Y-125850905D01*
X117939394Y-125850905D02*
X117934093Y-125805582D01*
X117934093Y-125805582D02*
X117926742Y-125773555D01*
X117926742Y-125773555D02*
X117916857Y-125749668D01*
X117916857Y-125749668D02*
X117903954Y-125728764D01*
X117903954Y-125728764D02*
X117898421Y-125720898D01*
X117898421Y-125720898D02*
X117825031Y-125646595D01*
X117825031Y-125646595D02*
X117732240Y-125604467D01*
X117732240Y-125604467D02*
X117624904Y-125592722D01*
X117624904Y-125592722D02*
X117531114Y-125604505D01*
X117531114Y-125604505D02*
X117531114Y-125604505D01*
G36*
X117949763Y-126268269D02*
G01*
X117950300Y-126311802D01*
X117952019Y-126457344D01*
X117952365Y-126568711D01*
X117950277Y-126649804D01*
X117944698Y-126704522D01*
X117934567Y-126736761D01*
X117918826Y-126750422D01*
X117896417Y-126749403D01*
X117866280Y-126737603D01*
X117827355Y-126718920D01*
X117819038Y-126714933D01*
X117784402Y-126695419D01*
X117766314Y-126672202D01*
X117759392Y-126633492D01*
X117758256Y-126567497D01*
X117758205Y-126449000D01*
X117636141Y-126449000D01*
X117561055Y-126445712D01*
X117502015Y-126432377D01*
X117452986Y-126405423D01*
X117449330Y-126402788D01*
X117399581Y-126358286D01*
X117364959Y-126304523D01*
X117343123Y-126234154D01*
X117331737Y-126139830D01*
X117328959Y-126033271D01*
X117523846Y-126033271D01*
X117523880Y-126051131D01*
X117525735Y-126131748D01*
X117531693Y-126184447D01*
X117543506Y-126218668D01*
X117562923Y-126243846D01*
X117564133Y-126245049D01*
X117611858Y-126277628D01*
X117658110Y-126274417D01*
X117710350Y-126234965D01*
X117723128Y-126221482D01*
X117741949Y-126193837D01*
X117752562Y-126157880D01*
X117757252Y-126103364D01*
X117758308Y-126020042D01*
X117757394Y-125969598D01*
X117747477Y-125877857D01*
X117724842Y-125817752D01*
X117687238Y-125784900D01*
X117632416Y-125774923D01*
X117609317Y-125777050D01*
X117569350Y-125798147D01*
X117542926Y-125845161D01*
X117528330Y-125922175D01*
X117523846Y-126033271D01*
X117328959Y-126033271D01*
X117328462Y-126014206D01*
X117329187Y-125922536D01*
X117332490Y-125853098D01*
X117339828Y-125804945D01*
X117352655Y-125768866D01*
X117372423Y-125735648D01*
X117390569Y-125710261D01*
X117456461Y-125641727D01*
X117531114Y-125604505D01*
X117624904Y-125592722D01*
X117732240Y-125604467D01*
X117825031Y-125646595D01*
X117898421Y-125720898D01*
X117903954Y-125728764D01*
X117916857Y-125749668D01*
X117926742Y-125773555D01*
X117934093Y-125805582D01*
X117939394Y-125850905D01*
X117943127Y-125914679D01*
X117945778Y-126002060D01*
X117946096Y-126020042D01*
X117947828Y-126118205D01*
X117949763Y-126268269D01*
G37*
X117949763Y-126268269D02*
X117950300Y-126311802D01*
X117952019Y-126457344D01*
X117952365Y-126568711D01*
X117950277Y-126649804D01*
X117944698Y-126704522D01*
X117934567Y-126736761D01*
X117918826Y-126750422D01*
X117896417Y-126749403D01*
X117866280Y-126737603D01*
X117827355Y-126718920D01*
X117819038Y-126714933D01*
X117784402Y-126695419D01*
X117766314Y-126672202D01*
X117759392Y-126633492D01*
X117758256Y-126567497D01*
X117758205Y-126449000D01*
X117636141Y-126449000D01*
X117561055Y-126445712D01*
X117502015Y-126432377D01*
X117452986Y-126405423D01*
X117449330Y-126402788D01*
X117399581Y-126358286D01*
X117364959Y-126304523D01*
X117343123Y-126234154D01*
X117331737Y-126139830D01*
X117328959Y-126033271D01*
X117523846Y-126033271D01*
X117523880Y-126051131D01*
X117525735Y-126131748D01*
X117531693Y-126184447D01*
X117543506Y-126218668D01*
X117562923Y-126243846D01*
X117564133Y-126245049D01*
X117611858Y-126277628D01*
X117658110Y-126274417D01*
X117710350Y-126234965D01*
X117723128Y-126221482D01*
X117741949Y-126193837D01*
X117752562Y-126157880D01*
X117757252Y-126103364D01*
X117758308Y-126020042D01*
X117757394Y-125969598D01*
X117747477Y-125877857D01*
X117724842Y-125817752D01*
X117687238Y-125784900D01*
X117632416Y-125774923D01*
X117609317Y-125777050D01*
X117569350Y-125798147D01*
X117542926Y-125845161D01*
X117528330Y-125922175D01*
X117523846Y-126033271D01*
X117328959Y-126033271D01*
X117328462Y-126014206D01*
X117329187Y-125922536D01*
X117332490Y-125853098D01*
X117339828Y-125804945D01*
X117352655Y-125768866D01*
X117372423Y-125735648D01*
X117390569Y-125710261D01*
X117456461Y-125641727D01*
X117531114Y-125604505D01*
X117624904Y-125592722D01*
X117732240Y-125604467D01*
X117825031Y-125646595D01*
X117898421Y-125720898D01*
X117903954Y-125728764D01*
X117916857Y-125749668D01*
X117926742Y-125773555D01*
X117934093Y-125805582D01*
X117939394Y-125850905D01*
X117943127Y-125914679D01*
X117945778Y-126002060D01*
X117946096Y-126020042D01*
X117947828Y-126118205D01*
X117949763Y-126268269D01*
X116028336Y-125615089D02*
X115965633Y-125651358D01*
X115965633Y-125651358D02*
X115922039Y-125687358D01*
X115922039Y-125687358D02*
X115890155Y-125725075D01*
X115890155Y-125725075D02*
X115868190Y-125771199D01*
X115868190Y-125771199D02*
X115854351Y-125832421D01*
X115854351Y-125832421D02*
X115846847Y-125915431D01*
X115846847Y-125915431D02*
X115843883Y-126026919D01*
X115843883Y-126026919D02*
X115843539Y-126107062D01*
X115843539Y-126107062D02*
X115843539Y-126402065D01*
X115843539Y-126402065D02*
X116009615Y-126476515D01*
X116009615Y-126476515D02*
X116019385Y-126153402D01*
X116019385Y-126153402D02*
X116023421Y-126032729D01*
X116023421Y-126032729D02*
X116027656Y-125945141D01*
X116027656Y-125945141D02*
X116032903Y-125884650D01*
X116032903Y-125884650D02*
X116039975Y-125845268D01*
X116039975Y-125845268D02*
X116049689Y-125821007D01*
X116049689Y-125821007D02*
X116062856Y-125805880D01*
X116062856Y-125805880D02*
X116067081Y-125802606D01*
X116067081Y-125802606D02*
X116131091Y-125777034D01*
X116131091Y-125777034D02*
X116195792Y-125787153D01*
X116195792Y-125787153D02*
X116234308Y-125814000D01*
X116234308Y-125814000D02*
X116249975Y-125833024D01*
X116249975Y-125833024D02*
X116260820Y-125857988D01*
X116260820Y-125857988D02*
X116267712Y-125895834D01*
X116267712Y-125895834D02*
X116271521Y-125953502D01*
X116271521Y-125953502D02*
X116273117Y-126037935D01*
X116273117Y-126037935D02*
X116273385Y-126125928D01*
X116273385Y-126125928D02*
X116273437Y-126236323D01*
X116273437Y-126236323D02*
X116275328Y-126314463D01*
X116275328Y-126314463D02*
X116281655Y-126367165D01*
X116281655Y-126367165D02*
X116295017Y-126401242D01*
X116295017Y-126401242D02*
X116318015Y-126423511D01*
X116318015Y-126423511D02*
X116353246Y-126440787D01*
X116353246Y-126440787D02*
X116400303Y-126458738D01*
X116400303Y-126458738D02*
X116451697Y-126478278D01*
X116451697Y-126478278D02*
X116445579Y-126131485D01*
X116445579Y-126131485D02*
X116443116Y-126006468D01*
X116443116Y-126006468D02*
X116440233Y-125914082D01*
X116440233Y-125914082D02*
X116436102Y-125847881D01*
X116436102Y-125847881D02*
X116429893Y-125801420D01*
X116429893Y-125801420D02*
X116420774Y-125768256D01*
X116420774Y-125768256D02*
X116407917Y-125741944D01*
X116407917Y-125741944D02*
X116392416Y-125718729D01*
X116392416Y-125718729D02*
X116317629Y-125644569D01*
X116317629Y-125644569D02*
X116226372Y-125601684D01*
X116226372Y-125601684D02*
X116127117Y-125591412D01*
X116127117Y-125591412D02*
X116028336Y-125615089D01*
X116028336Y-125615089D02*
X116028336Y-125615089D01*
G36*
X116226372Y-125601684D02*
G01*
X116317629Y-125644569D01*
X116392416Y-125718729D01*
X116407917Y-125741944D01*
X116420774Y-125768256D01*
X116429893Y-125801420D01*
X116436102Y-125847881D01*
X116440233Y-125914082D01*
X116443116Y-126006468D01*
X116445579Y-126131485D01*
X116451697Y-126478278D01*
X116400303Y-126458738D01*
X116353246Y-126440787D01*
X116318015Y-126423511D01*
X116295017Y-126401242D01*
X116281655Y-126367165D01*
X116275328Y-126314463D01*
X116273437Y-126236323D01*
X116273385Y-126125928D01*
X116273117Y-126037935D01*
X116271521Y-125953502D01*
X116267712Y-125895834D01*
X116260820Y-125857988D01*
X116249975Y-125833024D01*
X116234308Y-125814000D01*
X116195792Y-125787153D01*
X116131091Y-125777034D01*
X116067081Y-125802606D01*
X116062856Y-125805880D01*
X116049689Y-125821007D01*
X116039975Y-125845268D01*
X116032903Y-125884650D01*
X116027656Y-125945141D01*
X116023421Y-126032729D01*
X116019385Y-126153402D01*
X116009615Y-126476515D01*
X115843539Y-126402065D01*
X115843539Y-126107062D01*
X115843883Y-126026919D01*
X115846847Y-125915431D01*
X115854351Y-125832421D01*
X115868190Y-125771199D01*
X115890155Y-125725075D01*
X115922039Y-125687358D01*
X115965633Y-125651358D01*
X116028336Y-125615089D01*
X116127117Y-125591412D01*
X116226372Y-125601684D01*
G37*
X116226372Y-125601684D02*
X116317629Y-125644569D01*
X116392416Y-125718729D01*
X116407917Y-125741944D01*
X116420774Y-125768256D01*
X116429893Y-125801420D01*
X116436102Y-125847881D01*
X116440233Y-125914082D01*
X116443116Y-126006468D01*
X116445579Y-126131485D01*
X116451697Y-126478278D01*
X116400303Y-126458738D01*
X116353246Y-126440787D01*
X116318015Y-126423511D01*
X116295017Y-126401242D01*
X116281655Y-126367165D01*
X116275328Y-126314463D01*
X116273437Y-126236323D01*
X116273385Y-126125928D01*
X116273117Y-126037935D01*
X116271521Y-125953502D01*
X116267712Y-125895834D01*
X116260820Y-125857988D01*
X116249975Y-125833024D01*
X116234308Y-125814000D01*
X116195792Y-125787153D01*
X116131091Y-125777034D01*
X116067081Y-125802606D01*
X116062856Y-125805880D01*
X116049689Y-125821007D01*
X116039975Y-125845268D01*
X116032903Y-125884650D01*
X116027656Y-125945141D01*
X116023421Y-126032729D01*
X116019385Y-126153402D01*
X116009615Y-126476515D01*
X115843539Y-126402065D01*
X115843539Y-126107062D01*
X115843883Y-126026919D01*
X115846847Y-125915431D01*
X115854351Y-125832421D01*
X115868190Y-125771199D01*
X115890155Y-125725075D01*
X115922039Y-125687358D01*
X115965633Y-125651358D01*
X116028336Y-125615089D01*
X116127117Y-125591412D01*
X116226372Y-125601684D01*
X111412667Y-125653528D02*
X111356410Y-125679117D01*
X111356410Y-125679117D02*
X111312253Y-125710124D01*
X111312253Y-125710124D02*
X111279899Y-125744795D01*
X111279899Y-125744795D02*
X111257562Y-125789520D01*
X111257562Y-125789520D02*
X111243454Y-125850692D01*
X111243454Y-125850692D02*
X111235789Y-125934701D01*
X111235789Y-125934701D02*
X111232780Y-126047940D01*
X111232780Y-126047940D02*
X111232462Y-126122509D01*
X111232462Y-126122509D02*
X111232462Y-126413420D01*
X111232462Y-126413420D02*
X111282227Y-126436095D01*
X111282227Y-126436095D02*
X111321424Y-126452667D01*
X111321424Y-126452667D02*
X111340843Y-126458769D01*
X111340843Y-126458769D02*
X111344558Y-126440610D01*
X111344558Y-126440610D02*
X111347505Y-126391648D01*
X111347505Y-126391648D02*
X111349309Y-126320153D01*
X111349309Y-126320153D02*
X111349692Y-126263385D01*
X111349692Y-126263385D02*
X111351339Y-126181371D01*
X111351339Y-126181371D02*
X111355778Y-126116309D01*
X111355778Y-126116309D02*
X111362260Y-126076467D01*
X111362260Y-126076467D02*
X111367410Y-126068000D01*
X111367410Y-126068000D02*
X111402023Y-126076646D01*
X111402023Y-126076646D02*
X111456360Y-126098823D01*
X111456360Y-126098823D02*
X111519278Y-126128886D01*
X111519278Y-126128886D02*
X111579632Y-126161192D01*
X111579632Y-126161192D02*
X111626279Y-126190098D01*
X111626279Y-126190098D02*
X111648074Y-126209961D01*
X111648074Y-126209961D02*
X111648161Y-126210175D01*
X111648161Y-126210175D02*
X111646286Y-126246935D01*
X111646286Y-126246935D02*
X111629475Y-126282026D01*
X111629475Y-126282026D02*
X111599961Y-126310528D01*
X111599961Y-126310528D02*
X111556884Y-126320061D01*
X111556884Y-126320061D02*
X111520068Y-126318950D01*
X111520068Y-126318950D02*
X111467926Y-126318133D01*
X111467926Y-126318133D02*
X111440556Y-126330349D01*
X111440556Y-126330349D02*
X111424118Y-126362624D01*
X111424118Y-126362624D02*
X111422045Y-126368710D01*
X111422045Y-126368710D02*
X111414919Y-126414739D01*
X111414919Y-126414739D02*
X111433976Y-126442687D01*
X111433976Y-126442687D02*
X111483647Y-126456007D01*
X111483647Y-126456007D02*
X111537303Y-126458470D01*
X111537303Y-126458470D02*
X111633858Y-126440210D01*
X111633858Y-126440210D02*
X111683841Y-126414131D01*
X111683841Y-126414131D02*
X111745571Y-126352868D01*
X111745571Y-126352868D02*
X111778310Y-126277670D01*
X111778310Y-126277670D02*
X111781247Y-126198211D01*
X111781247Y-126198211D02*
X111753576Y-126124167D01*
X111753576Y-126124167D02*
X111711953Y-126077769D01*
X111711953Y-126077769D02*
X111670396Y-126051793D01*
X111670396Y-126051793D02*
X111605078Y-126018907D01*
X111605078Y-126018907D02*
X111528962Y-125985557D01*
X111528962Y-125985557D02*
X111516274Y-125980461D01*
X111516274Y-125980461D02*
X111432667Y-125943565D01*
X111432667Y-125943565D02*
X111384470Y-125911046D01*
X111384470Y-125911046D02*
X111368970Y-125878718D01*
X111368970Y-125878718D02*
X111383450Y-125842394D01*
X111383450Y-125842394D02*
X111408308Y-125814000D01*
X111408308Y-125814000D02*
X111467061Y-125779039D01*
X111467061Y-125779039D02*
X111531707Y-125776417D01*
X111531707Y-125776417D02*
X111590992Y-125803358D01*
X111590992Y-125803358D02*
X111633661Y-125857088D01*
X111633661Y-125857088D02*
X111639261Y-125870950D01*
X111639261Y-125870950D02*
X111671867Y-125921936D01*
X111671867Y-125921936D02*
X111719470Y-125959787D01*
X111719470Y-125959787D02*
X111779539Y-125990850D01*
X111779539Y-125990850D02*
X111779539Y-125902768D01*
X111779539Y-125902768D02*
X111776003Y-125848951D01*
X111776003Y-125848951D02*
X111760844Y-125806534D01*
X111760844Y-125806534D02*
X111727232Y-125761279D01*
X111727232Y-125761279D02*
X111694965Y-125726420D01*
X111694965Y-125726420D02*
X111644791Y-125677062D01*
X111644791Y-125677062D02*
X111605807Y-125650547D01*
X111605807Y-125650547D02*
X111563936Y-125639911D01*
X111563936Y-125639911D02*
X111516540Y-125638154D01*
X111516540Y-125638154D02*
X111412667Y-125653528D01*
X111412667Y-125653528D02*
X111412667Y-125653528D01*
G36*
X111563936Y-125639911D02*
G01*
X111605807Y-125650547D01*
X111644791Y-125677062D01*
X111694965Y-125726420D01*
X111727232Y-125761279D01*
X111760844Y-125806534D01*
X111776003Y-125848951D01*
X111779539Y-125902768D01*
X111779539Y-125990850D01*
X111719470Y-125959787D01*
X111671867Y-125921936D01*
X111639261Y-125870950D01*
X111633661Y-125857088D01*
X111590992Y-125803358D01*
X111531707Y-125776417D01*
X111467061Y-125779039D01*
X111408308Y-125814000D01*
X111383450Y-125842394D01*
X111368970Y-125878718D01*
X111384470Y-125911046D01*
X111432667Y-125943565D01*
X111516274Y-125980461D01*
X111528962Y-125985557D01*
X111605078Y-126018907D01*
X111670396Y-126051793D01*
X111711953Y-126077769D01*
X111753576Y-126124167D01*
X111781247Y-126198211D01*
X111778310Y-126277670D01*
X111745571Y-126352868D01*
X111683841Y-126414131D01*
X111633858Y-126440210D01*
X111537303Y-126458470D01*
X111483647Y-126456007D01*
X111433976Y-126442687D01*
X111414919Y-126414739D01*
X111422045Y-126368710D01*
X111424118Y-126362624D01*
X111440556Y-126330349D01*
X111467926Y-126318133D01*
X111520068Y-126318950D01*
X111556884Y-126320061D01*
X111599961Y-126310528D01*
X111629475Y-126282026D01*
X111646286Y-126246935D01*
X111648161Y-126210175D01*
X111648074Y-126209961D01*
X111626279Y-126190098D01*
X111579632Y-126161192D01*
X111519278Y-126128886D01*
X111456360Y-126098823D01*
X111402023Y-126076646D01*
X111367410Y-126068000D01*
X111362260Y-126076467D01*
X111355778Y-126116309D01*
X111351339Y-126181371D01*
X111349692Y-126263385D01*
X111349309Y-126320153D01*
X111347505Y-126391648D01*
X111344558Y-126440610D01*
X111340843Y-126458769D01*
X111321424Y-126452667D01*
X111282227Y-126436095D01*
X111232462Y-126413420D01*
X111232462Y-126122509D01*
X111232780Y-126047940D01*
X111235789Y-125934701D01*
X111243454Y-125850692D01*
X111257562Y-125789520D01*
X111279899Y-125744795D01*
X111312253Y-125710124D01*
X111356410Y-125679117D01*
X111412667Y-125653528D01*
X111516540Y-125638154D01*
X111563936Y-125639911D01*
G37*
X111563936Y-125639911D02*
X111605807Y-125650547D01*
X111644791Y-125677062D01*
X111694965Y-125726420D01*
X111727232Y-125761279D01*
X111760844Y-125806534D01*
X111776003Y-125848951D01*
X111779539Y-125902768D01*
X111779539Y-125990850D01*
X111719470Y-125959787D01*
X111671867Y-125921936D01*
X111639261Y-125870950D01*
X111633661Y-125857088D01*
X111590992Y-125803358D01*
X111531707Y-125776417D01*
X111467061Y-125779039D01*
X111408308Y-125814000D01*
X111383450Y-125842394D01*
X111368970Y-125878718D01*
X111384470Y-125911046D01*
X111432667Y-125943565D01*
X111516274Y-125980461D01*
X111528962Y-125985557D01*
X111605078Y-126018907D01*
X111670396Y-126051793D01*
X111711953Y-126077769D01*
X111753576Y-126124167D01*
X111781247Y-126198211D01*
X111778310Y-126277670D01*
X111745571Y-126352868D01*
X111683841Y-126414131D01*
X111633858Y-126440210D01*
X111537303Y-126458470D01*
X111483647Y-126456007D01*
X111433976Y-126442687D01*
X111414919Y-126414739D01*
X111422045Y-126368710D01*
X111424118Y-126362624D01*
X111440556Y-126330349D01*
X111467926Y-126318133D01*
X111520068Y-126318950D01*
X111556884Y-126320061D01*
X111599961Y-126310528D01*
X111629475Y-126282026D01*
X111646286Y-126246935D01*
X111648161Y-126210175D01*
X111648074Y-126209961D01*
X111626279Y-126190098D01*
X111579632Y-126161192D01*
X111519278Y-126128886D01*
X111456360Y-126098823D01*
X111402023Y-126076646D01*
X111367410Y-126068000D01*
X111362260Y-126076467D01*
X111355778Y-126116309D01*
X111351339Y-126181371D01*
X111349692Y-126263385D01*
X111349309Y-126320153D01*
X111347505Y-126391648D01*
X111344558Y-126440610D01*
X111340843Y-126458769D01*
X111321424Y-126452667D01*
X111282227Y-126436095D01*
X111232462Y-126413420D01*
X111232462Y-126122509D01*
X111232780Y-126047940D01*
X111235789Y-125934701D01*
X111243454Y-125850692D01*
X111257562Y-125789520D01*
X111279899Y-125744795D01*
X111312253Y-125710124D01*
X111356410Y-125679117D01*
X111412667Y-125653528D01*
X111516540Y-125638154D01*
X111563936Y-125639911D01*
X114160122Y-119307776D02*
X114054388Y-119308355D01*
X114054388Y-119308355D02*
X113977868Y-119309922D01*
X113977868Y-119309922D02*
X113925628Y-119312972D01*
X113925628Y-119312972D02*
X113892737Y-119317996D01*
X113892737Y-119317996D02*
X113874263Y-119325489D01*
X113874263Y-119325489D02*
X113865273Y-119335944D01*
X113865273Y-119335944D02*
X113860837Y-119349853D01*
X113860837Y-119349853D02*
X113860406Y-119351654D01*
X113860406Y-119351654D02*
X113853667Y-119384145D01*
X113853667Y-119384145D02*
X113841192Y-119448252D01*
X113841192Y-119448252D02*
X113824281Y-119537151D01*
X113824281Y-119537151D02*
X113804229Y-119644019D01*
X113804229Y-119644019D02*
X113782336Y-119762033D01*
X113782336Y-119762033D02*
X113781571Y-119766178D01*
X113781571Y-119766178D02*
X113759641Y-119881831D01*
X113759641Y-119881831D02*
X113739123Y-119984014D01*
X113739123Y-119984014D02*
X113721341Y-120066598D01*
X113721341Y-120066598D02*
X113707619Y-120123456D01*
X113707619Y-120123456D02*
X113699282Y-120148458D01*
X113699282Y-120148458D02*
X113698884Y-120148901D01*
X113698884Y-120148901D02*
X113674323Y-120161110D01*
X113674323Y-120161110D02*
X113623685Y-120181456D01*
X113623685Y-120181456D02*
X113557905Y-120205545D01*
X113557905Y-120205545D02*
X113557539Y-120205674D01*
X113557539Y-120205674D02*
X113474683Y-120236818D01*
X113474683Y-120236818D02*
X113377000Y-120276491D01*
X113377000Y-120276491D02*
X113284923Y-120316381D01*
X113284923Y-120316381D02*
X113280566Y-120318353D01*
X113280566Y-120318353D02*
X113130593Y-120386420D01*
X113130593Y-120386420D02*
X112798502Y-120159639D01*
X112798502Y-120159639D02*
X112696626Y-120090504D01*
X112696626Y-120090504D02*
X112604343Y-120028697D01*
X112604343Y-120028697D02*
X112526997Y-119977733D01*
X112526997Y-119977733D02*
X112469936Y-119941127D01*
X112469936Y-119941127D02*
X112438505Y-119922394D01*
X112438505Y-119922394D02*
X112435521Y-119921004D01*
X112435521Y-119921004D02*
X112412679Y-119927190D01*
X112412679Y-119927190D02*
X112370018Y-119957035D01*
X112370018Y-119957035D02*
X112305872Y-120011947D01*
X112305872Y-120011947D02*
X112218579Y-120093334D01*
X112218579Y-120093334D02*
X112129465Y-120179922D01*
X112129465Y-120179922D02*
X112043559Y-120265247D01*
X112043559Y-120265247D02*
X111966673Y-120343108D01*
X111966673Y-120343108D02*
X111903436Y-120408697D01*
X111903436Y-120408697D02*
X111858477Y-120457205D01*
X111858477Y-120457205D02*
X111836424Y-120483825D01*
X111836424Y-120483825D02*
X111835604Y-120485195D01*
X111835604Y-120485195D02*
X111833166Y-120503463D01*
X111833166Y-120503463D02*
X111842350Y-120533295D01*
X111842350Y-120533295D02*
X111865426Y-120578721D01*
X111865426Y-120578721D02*
X111904663Y-120643770D01*
X111904663Y-120643770D02*
X111962330Y-120732470D01*
X111962330Y-120732470D02*
X112039205Y-120846657D01*
X112039205Y-120846657D02*
X112107430Y-120947162D01*
X112107430Y-120947162D02*
X112168418Y-121037303D01*
X112168418Y-121037303D02*
X112218644Y-121111849D01*
X112218644Y-121111849D02*
X112254584Y-121165565D01*
X112254584Y-121165565D02*
X112272713Y-121193218D01*
X112272713Y-121193218D02*
X112273854Y-121195095D01*
X112273854Y-121195095D02*
X112271641Y-121221590D01*
X112271641Y-121221590D02*
X112254862Y-121273086D01*
X112254862Y-121273086D02*
X112226858Y-121339851D01*
X112226858Y-121339851D02*
X112216878Y-121361172D01*
X112216878Y-121361172D02*
X112173328Y-121456159D01*
X112173328Y-121456159D02*
X112126866Y-121563937D01*
X112126866Y-121563937D02*
X112089123Y-121657192D01*
X112089123Y-121657192D02*
X112061927Y-121726406D01*
X112061927Y-121726406D02*
X112040325Y-121779006D01*
X112040325Y-121779006D02*
X112027842Y-121806497D01*
X112027842Y-121806497D02*
X112026291Y-121808616D01*
X112026291Y-121808616D02*
X112003332Y-121812124D01*
X112003332Y-121812124D02*
X111949214Y-121821738D01*
X111949214Y-121821738D02*
X111871132Y-121836089D01*
X111871132Y-121836089D02*
X111776281Y-121853807D01*
X111776281Y-121853807D02*
X111671857Y-121873525D01*
X111671857Y-121873525D02*
X111565056Y-121893874D01*
X111565056Y-121893874D02*
X111463074Y-121913486D01*
X111463074Y-121913486D02*
X111373106Y-121930991D01*
X111373106Y-121930991D02*
X111302347Y-121945022D01*
X111302347Y-121945022D02*
X111257994Y-121954209D01*
X111257994Y-121954209D02*
X111247115Y-121956807D01*
X111247115Y-121956807D02*
X111235878Y-121963218D01*
X111235878Y-121963218D02*
X111227395Y-121977697D01*
X111227395Y-121977697D02*
X111221286Y-122005133D01*
X111221286Y-122005133D02*
X111217168Y-122050411D01*
X111217168Y-122050411D02*
X111214659Y-122118420D01*
X111214659Y-122118420D02*
X111213379Y-122214047D01*
X111213379Y-122214047D02*
X111212946Y-122342180D01*
X111212946Y-122342180D02*
X111212923Y-122394701D01*
X111212923Y-122394701D02*
X111212923Y-122821845D01*
X111212923Y-122821845D02*
X111315500Y-122842091D01*
X111315500Y-122842091D02*
X111372569Y-122853070D01*
X111372569Y-122853070D02*
X111457731Y-122869095D01*
X111457731Y-122869095D02*
X111560628Y-122888233D01*
X111560628Y-122888233D02*
X111670904Y-122908551D01*
X111670904Y-122908551D02*
X111701385Y-122914132D01*
X111701385Y-122914132D02*
X111803145Y-122933917D01*
X111803145Y-122933917D02*
X111891795Y-122953373D01*
X111891795Y-122953373D02*
X111959892Y-122970697D01*
X111959892Y-122970697D02*
X111999996Y-122984088D01*
X111999996Y-122984088D02*
X112006677Y-122988079D01*
X112006677Y-122988079D02*
X112023081Y-123016342D01*
X112023081Y-123016342D02*
X112046601Y-123071109D01*
X112046601Y-123071109D02*
X112072684Y-123141588D01*
X112072684Y-123141588D02*
X112077858Y-123156769D01*
X112077858Y-123156769D02*
X112112044Y-123250896D01*
X112112044Y-123250896D02*
X112154477Y-123357101D01*
X112154477Y-123357101D02*
X112196003Y-123452473D01*
X112196003Y-123452473D02*
X112196208Y-123452916D01*
X112196208Y-123452916D02*
X112265360Y-123602525D01*
X112265360Y-123602525D02*
X111810488Y-124271617D01*
X111810488Y-124271617D02*
X112102500Y-124564116D01*
X112102500Y-124564116D02*
X112190820Y-124651170D01*
X112190820Y-124651170D02*
X112271375Y-124727909D01*
X112271375Y-124727909D02*
X112339640Y-124790237D01*
X112339640Y-124790237D02*
X112391092Y-124834056D01*
X112391092Y-124834056D02*
X112421206Y-124855270D01*
X112421206Y-124855270D02*
X112425526Y-124856616D01*
X112425526Y-124856616D02*
X112450889Y-124846016D01*
X112450889Y-124846016D02*
X112502642Y-124816547D01*
X112502642Y-124816547D02*
X112575132Y-124771705D01*
X112575132Y-124771705D02*
X112662706Y-124714984D01*
X112662706Y-124714984D02*
X112757388Y-124651462D01*
X112757388Y-124651462D02*
X112853484Y-124586668D01*
X112853484Y-124586668D02*
X112939163Y-124530287D01*
X112939163Y-124530287D02*
X113008984Y-124485788D01*
X113008984Y-124485788D02*
X113057506Y-124456639D01*
X113057506Y-124456639D02*
X113079218Y-124446308D01*
X113079218Y-124446308D02*
X113105707Y-124455050D01*
X113105707Y-124455050D02*
X113155938Y-124478087D01*
X113155938Y-124478087D02*
X113219549Y-124510631D01*
X113219549Y-124510631D02*
X113226292Y-124514249D01*
X113226292Y-124514249D02*
X113311954Y-124557210D01*
X113311954Y-124557210D02*
X113370694Y-124578279D01*
X113370694Y-124578279D02*
X113407228Y-124578503D01*
X113407228Y-124578503D02*
X113426269Y-124558928D01*
X113426269Y-124558928D02*
X113426380Y-124558654D01*
X113426380Y-124558654D02*
X113435898Y-124535472D01*
X113435898Y-124535472D02*
X113458597Y-124480441D01*
X113458597Y-124480441D02*
X113492718Y-124397822D01*
X113492718Y-124397822D02*
X113536500Y-124291872D01*
X113536500Y-124291872D02*
X113588184Y-124166852D01*
X113588184Y-124166852D02*
X113646008Y-124027020D01*
X113646008Y-124027020D02*
X113702009Y-123891637D01*
X113702009Y-123891637D02*
X113763553Y-123742234D01*
X113763553Y-123742234D02*
X113820061Y-123603832D01*
X113820061Y-123603832D02*
X113869839Y-123480673D01*
X113869839Y-123480673D02*
X113911194Y-123377002D01*
X113911194Y-123377002D02*
X113942432Y-123297059D01*
X113942432Y-123297059D02*
X113961859Y-123245088D01*
X113961859Y-123245088D02*
X113967846Y-123225692D01*
X113967846Y-123225692D02*
X113952832Y-123203443D01*
X113952832Y-123203443D02*
X113913561Y-123167982D01*
X113913561Y-123167982D02*
X113861193Y-123128887D01*
X113861193Y-123128887D02*
X113712059Y-123005245D01*
X113712059Y-123005245D02*
X113595489Y-122863522D01*
X113595489Y-122863522D02*
X113512882Y-122706704D01*
X113512882Y-122706704D02*
X113465634Y-122537775D01*
X113465634Y-122537775D02*
X113455143Y-122359722D01*
X113455143Y-122359722D02*
X113462769Y-122277539D01*
X113462769Y-122277539D02*
X113504318Y-122107031D01*
X113504318Y-122107031D02*
X113575877Y-121956459D01*
X113575877Y-121956459D02*
X113673005Y-121827309D01*
X113673005Y-121827309D02*
X113791266Y-121721064D01*
X113791266Y-121721064D02*
X113926220Y-121639210D01*
X113926220Y-121639210D02*
X114073429Y-121583232D01*
X114073429Y-121583232D02*
X114228456Y-121554615D01*
X114228456Y-121554615D02*
X114386861Y-121554844D01*
X114386861Y-121554844D02*
X114544206Y-121585405D01*
X114544206Y-121585405D02*
X114696054Y-121647782D01*
X114696054Y-121647782D02*
X114837965Y-121743460D01*
X114837965Y-121743460D02*
X114897197Y-121797572D01*
X114897197Y-121797572D02*
X115010797Y-121936520D01*
X115010797Y-121936520D02*
X115089894Y-122088361D01*
X115089894Y-122088361D02*
X115135014Y-122248667D01*
X115135014Y-122248667D02*
X115146684Y-122413012D01*
X115146684Y-122413012D02*
X115125431Y-122576971D01*
X115125431Y-122576971D02*
X115071780Y-122736118D01*
X115071780Y-122736118D02*
X114986260Y-122886025D01*
X114986260Y-122886025D02*
X114869395Y-123022267D01*
X114869395Y-123022267D02*
X114738807Y-123128887D01*
X114738807Y-123128887D02*
X114684412Y-123169642D01*
X114684412Y-123169642D02*
X114645986Y-123204718D01*
X114645986Y-123204718D02*
X114632154Y-123225726D01*
X114632154Y-123225726D02*
X114639397Y-123248635D01*
X114639397Y-123248635D02*
X114659995Y-123303365D01*
X114659995Y-123303365D02*
X114692254Y-123385672D01*
X114692254Y-123385672D02*
X114734479Y-123491315D01*
X114734479Y-123491315D02*
X114784977Y-123616050D01*
X114784977Y-123616050D02*
X114842052Y-123755636D01*
X114842052Y-123755636D02*
X114898146Y-123891670D01*
X114898146Y-123891670D02*
X114960033Y-124041201D01*
X114960033Y-124041201D02*
X115017356Y-124179767D01*
X115017356Y-124179767D02*
X115068356Y-124303107D01*
X115068356Y-124303107D02*
X115111273Y-124406964D01*
X115111273Y-124406964D02*
X115144347Y-124487080D01*
X115144347Y-124487080D02*
X115165819Y-124539195D01*
X115165819Y-124539195D02*
X115173775Y-124558654D01*
X115173775Y-124558654D02*
X115192571Y-124578423D01*
X115192571Y-124578423D02*
X115228926Y-124578365D01*
X115228926Y-124578365D02*
X115287521Y-124557441D01*
X115287521Y-124557441D02*
X115373032Y-124514613D01*
X115373032Y-124514613D02*
X115373708Y-124514249D01*
X115373708Y-124514249D02*
X115438093Y-124481012D01*
X115438093Y-124481012D02*
X115490139Y-124456802D01*
X115490139Y-124456802D02*
X115519488Y-124446404D01*
X115519488Y-124446404D02*
X115520783Y-124446308D01*
X115520783Y-124446308D02*
X115542876Y-124456855D01*
X115542876Y-124456855D02*
X115591652Y-124486184D01*
X115591652Y-124486184D02*
X115661669Y-124530827D01*
X115661669Y-124530827D02*
X115747486Y-124587314D01*
X115747486Y-124587314D02*
X115842612Y-124651462D01*
X115842612Y-124651462D02*
X115939460Y-124716411D01*
X115939460Y-124716411D02*
X116026747Y-124772896D01*
X116026747Y-124772896D02*
X116098819Y-124817421D01*
X116098819Y-124817421D02*
X116150023Y-124846490D01*
X116150023Y-124846490D02*
X116174474Y-124856616D01*
X116174474Y-124856616D02*
X116196990Y-124843307D01*
X116196990Y-124843307D02*
X116242258Y-124806112D01*
X116242258Y-124806112D02*
X116305756Y-124749128D01*
X116305756Y-124749128D02*
X116382961Y-124676449D01*
X116382961Y-124676449D02*
X116469349Y-124592171D01*
X116469349Y-124592171D02*
X116497601Y-124564016D01*
X116497601Y-124564016D02*
X116789713Y-124271416D01*
X116789713Y-124271416D02*
X116567369Y-123945104D01*
X116567369Y-123945104D02*
X116499798Y-123844897D01*
X116499798Y-123844897D02*
X116440493Y-123754963D01*
X116440493Y-123754963D02*
X116392783Y-123680510D01*
X116392783Y-123680510D02*
X116359993Y-123626751D01*
X116359993Y-123626751D02*
X116345452Y-123598894D01*
X116345452Y-123598894D02*
X116345026Y-123596912D01*
X116345026Y-123596912D02*
X116352692Y-123570655D01*
X116352692Y-123570655D02*
X116373311Y-123517837D01*
X116373311Y-123517837D02*
X116403315Y-123447310D01*
X116403315Y-123447310D02*
X116424375Y-123400093D01*
X116424375Y-123400093D02*
X116463752Y-123309694D01*
X116463752Y-123309694D02*
X116500835Y-123218366D01*
X116500835Y-123218366D02*
X116529585Y-123141200D01*
X116529585Y-123141200D02*
X116537395Y-123117692D01*
X116537395Y-123117692D02*
X116559583Y-123054916D01*
X116559583Y-123054916D02*
X116581273Y-123006411D01*
X116581273Y-123006411D02*
X116593187Y-122988079D01*
X116593187Y-122988079D02*
X116619477Y-122976859D01*
X116619477Y-122976859D02*
X116676858Y-122960954D01*
X116676858Y-122960954D02*
X116757882Y-122942167D01*
X116757882Y-122942167D02*
X116855105Y-122922299D01*
X116855105Y-122922299D02*
X116898615Y-122914132D01*
X116898615Y-122914132D02*
X117009104Y-122893829D01*
X117009104Y-122893829D02*
X117115084Y-122874170D01*
X117115084Y-122874170D02*
X117206199Y-122857088D01*
X117206199Y-122857088D02*
X117272092Y-122844518D01*
X117272092Y-122844518D02*
X117284500Y-122842091D01*
X117284500Y-122842091D02*
X117387077Y-122821845D01*
X117387077Y-122821845D02*
X117387077Y-122394701D01*
X117387077Y-122394701D02*
X117386847Y-122254246D01*
X117386847Y-122254246D02*
X117385901Y-122147979D01*
X117385901Y-122147979D02*
X117383859Y-122071013D01*
X117383859Y-122071013D02*
X117380338Y-122018460D01*
X117380338Y-122018460D02*
X117374957Y-121985433D01*
X117374957Y-121985433D02*
X117367334Y-121967045D01*
X117367334Y-121967045D02*
X117357088Y-121958408D01*
X117357088Y-121958408D02*
X117352885Y-121956807D01*
X117352885Y-121956807D02*
X117327530Y-121951127D01*
X117327530Y-121951127D02*
X117271516Y-121939795D01*
X117271516Y-121939795D02*
X117192036Y-121924179D01*
X117192036Y-121924179D02*
X117096288Y-121905647D01*
X117096288Y-121905647D02*
X116991467Y-121885569D01*
X116991467Y-121885569D02*
X116884768Y-121865312D01*
X116884768Y-121865312D02*
X116783387Y-121846246D01*
X116783387Y-121846246D02*
X116694521Y-121829739D01*
X116694521Y-121829739D02*
X116625363Y-121817159D01*
X116625363Y-121817159D02*
X116583111Y-121809875D01*
X116583111Y-121809875D02*
X116573710Y-121808616D01*
X116573710Y-121808616D02*
X116565193Y-121791763D01*
X116565193Y-121791763D02*
X116546340Y-121746870D01*
X116546340Y-121746870D02*
X116520676Y-121682430D01*
X116520676Y-121682430D02*
X116510877Y-121657192D01*
X116510877Y-121657192D02*
X116471352Y-121559686D01*
X116471352Y-121559686D02*
X116424808Y-121451959D01*
X116424808Y-121451959D02*
X116383123Y-121361172D01*
X116383123Y-121361172D02*
X116352450Y-121291753D01*
X116352450Y-121291753D02*
X116332044Y-121234710D01*
X116332044Y-121234710D02*
X116325232Y-121199777D01*
X116325232Y-121199777D02*
X116326318Y-121195095D01*
X116326318Y-121195095D02*
X116340715Y-121172991D01*
X116340715Y-121172991D02*
X116373588Y-121123831D01*
X116373588Y-121123831D02*
X116421410Y-121052848D01*
X116421410Y-121052848D02*
X116480652Y-120965278D01*
X116480652Y-120965278D02*
X116547785Y-120866357D01*
X116547785Y-120866357D02*
X116561059Y-120846830D01*
X116561059Y-120846830D02*
X116638954Y-120731140D01*
X116638954Y-120731140D02*
X116696213Y-120643044D01*
X116696213Y-120643044D02*
X116735119Y-120578486D01*
X116735119Y-120578486D02*
X116757956Y-120533411D01*
X116757956Y-120533411D02*
X116767006Y-120503763D01*
X116767006Y-120503763D02*
X116764552Y-120485485D01*
X116764552Y-120485485D02*
X116764489Y-120485369D01*
X116764489Y-120485369D02*
X116745173Y-120461361D01*
X116745173Y-120461361D02*
X116702449Y-120414947D01*
X116702449Y-120414947D02*
X116640949Y-120350937D01*
X116640949Y-120350937D02*
X116565302Y-120274145D01*
X116565302Y-120274145D02*
X116480139Y-120189382D01*
X116480139Y-120189382D02*
X116470535Y-120179922D01*
X116470535Y-120179922D02*
X116363210Y-120075989D01*
X116363210Y-120075989D02*
X116280385Y-119999675D01*
X116280385Y-119999675D02*
X116220395Y-119949571D01*
X116220395Y-119949571D02*
X116181577Y-119924270D01*
X116181577Y-119924270D02*
X116164480Y-119921004D01*
X116164480Y-119921004D02*
X116139527Y-119935250D01*
X116139527Y-119935250D02*
X116087745Y-119968156D01*
X116087745Y-119968156D02*
X116014480Y-120016208D01*
X116014480Y-120016208D02*
X115925080Y-120075890D01*
X115925080Y-120075890D02*
X115824889Y-120143688D01*
X115824889Y-120143688D02*
X115801499Y-120159639D01*
X115801499Y-120159639D02*
X115469407Y-120386420D01*
X115469407Y-120386420D02*
X115319435Y-120318353D01*
X115319435Y-120318353D02*
X115228230Y-120278685D01*
X115228230Y-120278685D02*
X115130331Y-120238791D01*
X115130331Y-120238791D02*
X115046169Y-120206983D01*
X115046169Y-120206983D02*
X115042462Y-120205674D01*
X115042462Y-120205674D02*
X114976631Y-120181576D01*
X114976631Y-120181576D02*
X114925884Y-120161200D01*
X114925884Y-120161200D02*
X114901158Y-120148936D01*
X114901158Y-120148936D02*
X114901116Y-120148901D01*
X114901116Y-120148901D02*
X114893271Y-120126734D01*
X114893271Y-120126734D02*
X114879934Y-120072217D01*
X114879934Y-120072217D02*
X114862430Y-119991480D01*
X114862430Y-119991480D02*
X114842083Y-119890650D01*
X114842083Y-119890650D02*
X114820218Y-119775856D01*
X114820218Y-119775856D02*
X114818429Y-119766178D01*
X114818429Y-119766178D02*
X114796496Y-119647904D01*
X114796496Y-119647904D02*
X114776360Y-119540542D01*
X114776360Y-119540542D02*
X114759320Y-119450917D01*
X114759320Y-119450917D02*
X114746672Y-119385851D01*
X114746672Y-119385851D02*
X114739716Y-119352168D01*
X114739716Y-119352168D02*
X114739594Y-119351654D01*
X114739594Y-119351654D02*
X114735361Y-119337325D01*
X114735361Y-119337325D02*
X114727129Y-119326507D01*
X114727129Y-119326507D02*
X114709967Y-119318706D01*
X114709967Y-119318706D02*
X114678942Y-119313429D01*
X114678942Y-119313429D02*
X114629122Y-119310182D01*
X114629122Y-119310182D02*
X114555576Y-119308472D01*
X114555576Y-119308472D02*
X114453371Y-119307807D01*
X114453371Y-119307807D02*
X114317575Y-119307693D01*
X114317575Y-119307693D02*
X114300000Y-119307692D01*
X114300000Y-119307692D02*
X114160122Y-119307776D01*
X114160122Y-119307776D02*
X114160122Y-119307776D01*
G36*
X114317575Y-119307693D02*
G01*
X114453371Y-119307807D01*
X114555576Y-119308472D01*
X114629122Y-119310182D01*
X114678942Y-119313429D01*
X114709967Y-119318706D01*
X114727129Y-119326507D01*
X114735361Y-119337325D01*
X114739594Y-119351654D01*
X114739716Y-119352168D01*
X114746672Y-119385851D01*
X114759320Y-119450917D01*
X114776360Y-119540542D01*
X114796496Y-119647904D01*
X114818429Y-119766178D01*
X114820218Y-119775856D01*
X114842083Y-119890650D01*
X114862430Y-119991480D01*
X114879934Y-120072217D01*
X114893271Y-120126734D01*
X114901116Y-120148901D01*
X114901158Y-120148936D01*
X114925884Y-120161200D01*
X114976631Y-120181576D01*
X115042462Y-120205674D01*
X115046169Y-120206983D01*
X115130331Y-120238791D01*
X115228230Y-120278685D01*
X115319435Y-120318353D01*
X115469407Y-120386420D01*
X115801499Y-120159639D01*
X115824889Y-120143688D01*
X115925080Y-120075890D01*
X116014480Y-120016208D01*
X116087745Y-119968156D01*
X116139527Y-119935250D01*
X116164480Y-119921004D01*
X116181577Y-119924270D01*
X116220395Y-119949571D01*
X116280385Y-119999675D01*
X116363210Y-120075989D01*
X116470535Y-120179922D01*
X116480139Y-120189382D01*
X116565302Y-120274145D01*
X116640949Y-120350937D01*
X116702449Y-120414947D01*
X116745173Y-120461361D01*
X116764489Y-120485369D01*
X116764552Y-120485485D01*
X116767006Y-120503763D01*
X116757956Y-120533411D01*
X116735119Y-120578486D01*
X116696213Y-120643044D01*
X116638954Y-120731140D01*
X116561059Y-120846830D01*
X116547785Y-120866357D01*
X116480652Y-120965278D01*
X116421410Y-121052848D01*
X116373588Y-121123831D01*
X116340715Y-121172991D01*
X116326318Y-121195095D01*
X116325232Y-121199777D01*
X116332044Y-121234710D01*
X116352450Y-121291753D01*
X116383123Y-121361172D01*
X116424808Y-121451959D01*
X116471352Y-121559686D01*
X116510877Y-121657192D01*
X116520676Y-121682430D01*
X116546340Y-121746870D01*
X116565193Y-121791763D01*
X116573710Y-121808616D01*
X116583111Y-121809875D01*
X116625363Y-121817159D01*
X116694521Y-121829739D01*
X116783387Y-121846246D01*
X116884768Y-121865312D01*
X116991467Y-121885569D01*
X117096288Y-121905647D01*
X117192036Y-121924179D01*
X117271516Y-121939795D01*
X117327530Y-121951127D01*
X117352885Y-121956807D01*
X117357088Y-121958408D01*
X117367334Y-121967045D01*
X117374957Y-121985433D01*
X117380338Y-122018460D01*
X117383859Y-122071013D01*
X117385901Y-122147979D01*
X117386847Y-122254246D01*
X117387077Y-122394701D01*
X117387077Y-122821845D01*
X117284500Y-122842091D01*
X117272092Y-122844518D01*
X117206199Y-122857088D01*
X117115084Y-122874170D01*
X117009104Y-122893829D01*
X116898615Y-122914132D01*
X116855105Y-122922299D01*
X116757882Y-122942167D01*
X116676858Y-122960954D01*
X116619477Y-122976859D01*
X116593187Y-122988079D01*
X116581273Y-123006411D01*
X116559583Y-123054916D01*
X116537395Y-123117692D01*
X116529585Y-123141200D01*
X116500835Y-123218366D01*
X116463752Y-123309694D01*
X116424375Y-123400093D01*
X116403315Y-123447310D01*
X116373311Y-123517837D01*
X116352692Y-123570655D01*
X116345026Y-123596912D01*
X116345452Y-123598894D01*
X116359993Y-123626751D01*
X116392783Y-123680510D01*
X116440493Y-123754963D01*
X116499798Y-123844897D01*
X116567369Y-123945104D01*
X116789713Y-124271416D01*
X116497601Y-124564016D01*
X116469349Y-124592171D01*
X116382961Y-124676449D01*
X116305756Y-124749128D01*
X116242258Y-124806112D01*
X116196990Y-124843307D01*
X116174474Y-124856616D01*
X116150023Y-124846490D01*
X116098819Y-124817421D01*
X116026747Y-124772896D01*
X115939460Y-124716411D01*
X115842612Y-124651462D01*
X115747486Y-124587314D01*
X115661669Y-124530827D01*
X115591652Y-124486184D01*
X115542876Y-124456855D01*
X115520783Y-124446308D01*
X115519488Y-124446404D01*
X115490139Y-124456802D01*
X115438093Y-124481012D01*
X115373708Y-124514249D01*
X115373032Y-124514613D01*
X115287521Y-124557441D01*
X115228926Y-124578365D01*
X115192571Y-124578423D01*
X115173775Y-124558654D01*
X115165819Y-124539195D01*
X115144347Y-124487080D01*
X115111273Y-124406964D01*
X115068356Y-124303107D01*
X115017356Y-124179767D01*
X114960033Y-124041201D01*
X114898146Y-123891670D01*
X114842052Y-123755636D01*
X114784977Y-123616050D01*
X114734479Y-123491315D01*
X114692254Y-123385672D01*
X114659995Y-123303365D01*
X114639397Y-123248635D01*
X114632154Y-123225726D01*
X114645986Y-123204718D01*
X114684412Y-123169642D01*
X114738807Y-123128887D01*
X114869395Y-123022267D01*
X114986260Y-122886025D01*
X115071780Y-122736118D01*
X115125431Y-122576971D01*
X115146684Y-122413012D01*
X115135014Y-122248667D01*
X115089894Y-122088361D01*
X115010797Y-121936520D01*
X114897197Y-121797572D01*
X114837965Y-121743460D01*
X114696054Y-121647782D01*
X114544206Y-121585405D01*
X114386861Y-121554844D01*
X114228456Y-121554615D01*
X114073429Y-121583232D01*
X113926220Y-121639210D01*
X113791266Y-121721064D01*
X113673005Y-121827309D01*
X113575877Y-121956459D01*
X113504318Y-122107031D01*
X113462769Y-122277539D01*
X113455143Y-122359722D01*
X113465634Y-122537775D01*
X113512882Y-122706704D01*
X113595489Y-122863522D01*
X113712059Y-123005245D01*
X113861193Y-123128887D01*
X113913561Y-123167982D01*
X113952832Y-123203443D01*
X113967846Y-123225692D01*
X113961859Y-123245088D01*
X113942432Y-123297059D01*
X113911194Y-123377002D01*
X113869839Y-123480673D01*
X113820061Y-123603832D01*
X113763553Y-123742234D01*
X113702009Y-123891637D01*
X113646008Y-124027020D01*
X113588184Y-124166852D01*
X113536500Y-124291872D01*
X113492718Y-124397822D01*
X113458597Y-124480441D01*
X113435898Y-124535472D01*
X113426380Y-124558654D01*
X113426269Y-124558928D01*
X113407228Y-124578503D01*
X113370694Y-124578279D01*
X113311954Y-124557210D01*
X113226292Y-124514249D01*
X113219549Y-124510631D01*
X113155938Y-124478087D01*
X113105707Y-124455050D01*
X113079218Y-124446308D01*
X113057506Y-124456639D01*
X113008984Y-124485788D01*
X112939163Y-124530287D01*
X112853484Y-124586668D01*
X112757388Y-124651462D01*
X112662706Y-124714984D01*
X112575132Y-124771705D01*
X112502642Y-124816547D01*
X112450889Y-124846016D01*
X112425526Y-124856616D01*
X112421206Y-124855270D01*
X112391092Y-124834056D01*
X112339640Y-124790237D01*
X112271375Y-124727909D01*
X112190820Y-124651170D01*
X112102500Y-124564116D01*
X111810488Y-124271617D01*
X112265360Y-123602525D01*
X112196208Y-123452916D01*
X112196003Y-123452473D01*
X112154477Y-123357101D01*
X112112044Y-123250896D01*
X112077858Y-123156769D01*
X112072684Y-123141588D01*
X112046601Y-123071109D01*
X112023081Y-123016342D01*
X112006677Y-122988079D01*
X111999996Y-122984088D01*
X111959892Y-122970697D01*
X111891795Y-122953373D01*
X111803145Y-122933917D01*
X111701385Y-122914132D01*
X111670904Y-122908551D01*
X111560628Y-122888233D01*
X111457731Y-122869095D01*
X111372569Y-122853070D01*
X111315500Y-122842091D01*
X111212923Y-122821845D01*
X111212923Y-122394701D01*
X111212946Y-122342180D01*
X111213379Y-122214047D01*
X111214659Y-122118420D01*
X111217168Y-122050411D01*
X111221286Y-122005133D01*
X111227395Y-121977697D01*
X111235878Y-121963218D01*
X111247115Y-121956807D01*
X111257994Y-121954209D01*
X111302347Y-121945022D01*
X111373106Y-121930991D01*
X111463074Y-121913486D01*
X111565056Y-121893874D01*
X111671857Y-121873525D01*
X111776281Y-121853807D01*
X111871132Y-121836089D01*
X111949214Y-121821738D01*
X112003332Y-121812124D01*
X112026291Y-121808616D01*
X112027842Y-121806497D01*
X112040325Y-121779006D01*
X112061927Y-121726406D01*
X112089123Y-121657192D01*
X112126866Y-121563937D01*
X112173328Y-121456159D01*
X112216878Y-121361172D01*
X112226858Y-121339851D01*
X112254862Y-121273086D01*
X112271641Y-121221590D01*
X112273854Y-121195095D01*
X112272713Y-121193218D01*
X112254584Y-121165565D01*
X112218644Y-121111849D01*
X112168418Y-121037303D01*
X112107430Y-120947162D01*
X112039205Y-120846657D01*
X111962330Y-120732470D01*
X111904663Y-120643770D01*
X111865426Y-120578721D01*
X111842350Y-120533295D01*
X111833166Y-120503463D01*
X111835604Y-120485195D01*
X111836424Y-120483825D01*
X111858477Y-120457205D01*
X111903436Y-120408697D01*
X111966673Y-120343108D01*
X112043559Y-120265247D01*
X112129465Y-120179922D01*
X112218579Y-120093334D01*
X112305872Y-120011947D01*
X112370018Y-119957035D01*
X112412679Y-119927190D01*
X112435521Y-119921004D01*
X112438505Y-119922394D01*
X112469936Y-119941127D01*
X112526997Y-119977733D01*
X112604343Y-120028697D01*
X112696626Y-120090504D01*
X112798502Y-120159639D01*
X113130593Y-120386420D01*
X113280566Y-120318353D01*
X113284923Y-120316381D01*
X113377000Y-120276491D01*
X113474683Y-120236818D01*
X113557539Y-120205674D01*
X113557905Y-120205545D01*
X113623685Y-120181456D01*
X113674323Y-120161110D01*
X113698884Y-120148901D01*
X113699282Y-120148458D01*
X113707619Y-120123456D01*
X113721341Y-120066598D01*
X113739123Y-119984014D01*
X113759641Y-119881831D01*
X113781571Y-119766178D01*
X113782336Y-119762033D01*
X113804229Y-119644019D01*
X113824281Y-119537151D01*
X113841192Y-119448252D01*
X113853667Y-119384145D01*
X113860406Y-119351654D01*
X113860837Y-119349853D01*
X113865273Y-119335944D01*
X113874263Y-119325489D01*
X113892737Y-119317996D01*
X113925628Y-119312972D01*
X113977868Y-119309922D01*
X114054388Y-119308355D01*
X114160122Y-119307776D01*
X114300000Y-119307692D01*
X114317575Y-119307693D01*
G37*
X114317575Y-119307693D02*
X114453371Y-119307807D01*
X114555576Y-119308472D01*
X114629122Y-119310182D01*
X114678942Y-119313429D01*
X114709967Y-119318706D01*
X114727129Y-119326507D01*
X114735361Y-119337325D01*
X114739594Y-119351654D01*
X114739716Y-119352168D01*
X114746672Y-119385851D01*
X114759320Y-119450917D01*
X114776360Y-119540542D01*
X114796496Y-119647904D01*
X114818429Y-119766178D01*
X114820218Y-119775856D01*
X114842083Y-119890650D01*
X114862430Y-119991480D01*
X114879934Y-120072217D01*
X114893271Y-120126734D01*
X114901116Y-120148901D01*
X114901158Y-120148936D01*
X114925884Y-120161200D01*
X114976631Y-120181576D01*
X115042462Y-120205674D01*
X115046169Y-120206983D01*
X115130331Y-120238791D01*
X115228230Y-120278685D01*
X115319435Y-120318353D01*
X115469407Y-120386420D01*
X115801499Y-120159639D01*
X115824889Y-120143688D01*
X115925080Y-120075890D01*
X116014480Y-120016208D01*
X116087745Y-119968156D01*
X116139527Y-119935250D01*
X116164480Y-119921004D01*
X116181577Y-119924270D01*
X116220395Y-119949571D01*
X116280385Y-119999675D01*
X116363210Y-120075989D01*
X116470535Y-120179922D01*
X116480139Y-120189382D01*
X116565302Y-120274145D01*
X116640949Y-120350937D01*
X116702449Y-120414947D01*
X116745173Y-120461361D01*
X116764489Y-120485369D01*
X116764552Y-120485485D01*
X116767006Y-120503763D01*
X116757956Y-120533411D01*
X116735119Y-120578486D01*
X116696213Y-120643044D01*
X116638954Y-120731140D01*
X116561059Y-120846830D01*
X116547785Y-120866357D01*
X116480652Y-120965278D01*
X116421410Y-121052848D01*
X116373588Y-121123831D01*
X116340715Y-121172991D01*
X116326318Y-121195095D01*
X116325232Y-121199777D01*
X116332044Y-121234710D01*
X116352450Y-121291753D01*
X116383123Y-121361172D01*
X116424808Y-121451959D01*
X116471352Y-121559686D01*
X116510877Y-121657192D01*
X116520676Y-121682430D01*
X116546340Y-121746870D01*
X116565193Y-121791763D01*
X116573710Y-121808616D01*
X116583111Y-121809875D01*
X116625363Y-121817159D01*
X116694521Y-121829739D01*
X116783387Y-121846246D01*
X116884768Y-121865312D01*
X116991467Y-121885569D01*
X117096288Y-121905647D01*
X117192036Y-121924179D01*
X117271516Y-121939795D01*
X117327530Y-121951127D01*
X117352885Y-121956807D01*
X117357088Y-121958408D01*
X117367334Y-121967045D01*
X117374957Y-121985433D01*
X117380338Y-122018460D01*
X117383859Y-122071013D01*
X117385901Y-122147979D01*
X117386847Y-122254246D01*
X117387077Y-122394701D01*
X117387077Y-122821845D01*
X117284500Y-122842091D01*
X117272092Y-122844518D01*
X117206199Y-122857088D01*
X117115084Y-122874170D01*
X117009104Y-122893829D01*
X116898615Y-122914132D01*
X116855105Y-122922299D01*
X116757882Y-122942167D01*
X116676858Y-122960954D01*
X116619477Y-122976859D01*
X116593187Y-122988079D01*
X116581273Y-123006411D01*
X116559583Y-123054916D01*
X116537395Y-123117692D01*
X116529585Y-123141200D01*
X116500835Y-123218366D01*
X116463752Y-123309694D01*
X116424375Y-123400093D01*
X116403315Y-123447310D01*
X116373311Y-123517837D01*
X116352692Y-123570655D01*
X116345026Y-123596912D01*
X116345452Y-123598894D01*
X116359993Y-123626751D01*
X116392783Y-123680510D01*
X116440493Y-123754963D01*
X116499798Y-123844897D01*
X116567369Y-123945104D01*
X116789713Y-124271416D01*
X116497601Y-124564016D01*
X116469349Y-124592171D01*
X116382961Y-124676449D01*
X116305756Y-124749128D01*
X116242258Y-124806112D01*
X116196990Y-124843307D01*
X116174474Y-124856616D01*
X116150023Y-124846490D01*
X116098819Y-124817421D01*
X116026747Y-124772896D01*
X115939460Y-124716411D01*
X115842612Y-124651462D01*
X115747486Y-124587314D01*
X115661669Y-124530827D01*
X115591652Y-124486184D01*
X115542876Y-124456855D01*
X115520783Y-124446308D01*
X115519488Y-124446404D01*
X115490139Y-124456802D01*
X115438093Y-124481012D01*
X115373708Y-124514249D01*
X115373032Y-124514613D01*
X115287521Y-124557441D01*
X115228926Y-124578365D01*
X115192571Y-124578423D01*
X115173775Y-124558654D01*
X115165819Y-124539195D01*
X115144347Y-124487080D01*
X115111273Y-124406964D01*
X115068356Y-124303107D01*
X115017356Y-124179767D01*
X114960033Y-124041201D01*
X114898146Y-123891670D01*
X114842052Y-123755636D01*
X114784977Y-123616050D01*
X114734479Y-123491315D01*
X114692254Y-123385672D01*
X114659995Y-123303365D01*
X114639397Y-123248635D01*
X114632154Y-123225726D01*
X114645986Y-123204718D01*
X114684412Y-123169642D01*
X114738807Y-123128887D01*
X114869395Y-123022267D01*
X114986260Y-122886025D01*
X115071780Y-122736118D01*
X115125431Y-122576971D01*
X115146684Y-122413012D01*
X115135014Y-122248667D01*
X115089894Y-122088361D01*
X115010797Y-121936520D01*
X114897197Y-121797572D01*
X114837965Y-121743460D01*
X114696054Y-121647782D01*
X114544206Y-121585405D01*
X114386861Y-121554844D01*
X114228456Y-121554615D01*
X114073429Y-121583232D01*
X113926220Y-121639210D01*
X113791266Y-121721064D01*
X113673005Y-121827309D01*
X113575877Y-121956459D01*
X113504318Y-122107031D01*
X113462769Y-122277539D01*
X113455143Y-122359722D01*
X113465634Y-122537775D01*
X113512882Y-122706704D01*
X113595489Y-122863522D01*
X113712059Y-123005245D01*
X113861193Y-123128887D01*
X113913561Y-123167982D01*
X113952832Y-123203443D01*
X113967846Y-123225692D01*
X113961859Y-123245088D01*
X113942432Y-123297059D01*
X113911194Y-123377002D01*
X113869839Y-123480673D01*
X113820061Y-123603832D01*
X113763553Y-123742234D01*
X113702009Y-123891637D01*
X113646008Y-124027020D01*
X113588184Y-124166852D01*
X113536500Y-124291872D01*
X113492718Y-124397822D01*
X113458597Y-124480441D01*
X113435898Y-124535472D01*
X113426380Y-124558654D01*
X113426269Y-124558928D01*
X113407228Y-124578503D01*
X113370694Y-124578279D01*
X113311954Y-124557210D01*
X113226292Y-124514249D01*
X113219549Y-124510631D01*
X113155938Y-124478087D01*
X113105707Y-124455050D01*
X113079218Y-124446308D01*
X113057506Y-124456639D01*
X113008984Y-124485788D01*
X112939163Y-124530287D01*
X112853484Y-124586668D01*
X112757388Y-124651462D01*
X112662706Y-124714984D01*
X112575132Y-124771705D01*
X112502642Y-124816547D01*
X112450889Y-124846016D01*
X112425526Y-124856616D01*
X112421206Y-124855270D01*
X112391092Y-124834056D01*
X112339640Y-124790237D01*
X112271375Y-124727909D01*
X112190820Y-124651170D01*
X112102500Y-124564116D01*
X111810488Y-124271617D01*
X112265360Y-123602525D01*
X112196208Y-123452916D01*
X112196003Y-123452473D01*
X112154477Y-123357101D01*
X112112044Y-123250896D01*
X112077858Y-123156769D01*
X112072684Y-123141588D01*
X112046601Y-123071109D01*
X112023081Y-123016342D01*
X112006677Y-122988079D01*
X111999996Y-122984088D01*
X111959892Y-122970697D01*
X111891795Y-122953373D01*
X111803145Y-122933917D01*
X111701385Y-122914132D01*
X111670904Y-122908551D01*
X111560628Y-122888233D01*
X111457731Y-122869095D01*
X111372569Y-122853070D01*
X111315500Y-122842091D01*
X111212923Y-122821845D01*
X111212923Y-122394701D01*
X111212946Y-122342180D01*
X111213379Y-122214047D01*
X111214659Y-122118420D01*
X111217168Y-122050411D01*
X111221286Y-122005133D01*
X111227395Y-121977697D01*
X111235878Y-121963218D01*
X111247115Y-121956807D01*
X111257994Y-121954209D01*
X111302347Y-121945022D01*
X111373106Y-121930991D01*
X111463074Y-121913486D01*
X111565056Y-121893874D01*
X111671857Y-121873525D01*
X111776281Y-121853807D01*
X111871132Y-121836089D01*
X111949214Y-121821738D01*
X112003332Y-121812124D01*
X112026291Y-121808616D01*
X112027842Y-121806497D01*
X112040325Y-121779006D01*
X112061927Y-121726406D01*
X112089123Y-121657192D01*
X112126866Y-121563937D01*
X112173328Y-121456159D01*
X112216878Y-121361172D01*
X112226858Y-121339851D01*
X112254862Y-121273086D01*
X112271641Y-121221590D01*
X112273854Y-121195095D01*
X112272713Y-121193218D01*
X112254584Y-121165565D01*
X112218644Y-121111849D01*
X112168418Y-121037303D01*
X112107430Y-120947162D01*
X112039205Y-120846657D01*
X111962330Y-120732470D01*
X111904663Y-120643770D01*
X111865426Y-120578721D01*
X111842350Y-120533295D01*
X111833166Y-120503463D01*
X111835604Y-120485195D01*
X111836424Y-120483825D01*
X111858477Y-120457205D01*
X111903436Y-120408697D01*
X111966673Y-120343108D01*
X112043559Y-120265247D01*
X112129465Y-120179922D01*
X112218579Y-120093334D01*
X112305872Y-120011947D01*
X112370018Y-119957035D01*
X112412679Y-119927190D01*
X112435521Y-119921004D01*
X112438505Y-119922394D01*
X112469936Y-119941127D01*
X112526997Y-119977733D01*
X112604343Y-120028697D01*
X112696626Y-120090504D01*
X112798502Y-120159639D01*
X113130593Y-120386420D01*
X113280566Y-120318353D01*
X113284923Y-120316381D01*
X113377000Y-120276491D01*
X113474683Y-120236818D01*
X113557539Y-120205674D01*
X113557905Y-120205545D01*
X113623685Y-120181456D01*
X113674323Y-120161110D01*
X113698884Y-120148901D01*
X113699282Y-120148458D01*
X113707619Y-120123456D01*
X113721341Y-120066598D01*
X113739123Y-119984014D01*
X113759641Y-119881831D01*
X113781571Y-119766178D01*
X113782336Y-119762033D01*
X113804229Y-119644019D01*
X113824281Y-119537151D01*
X113841192Y-119448252D01*
X113853667Y-119384145D01*
X113860406Y-119351654D01*
X113860837Y-119349853D01*
X113865273Y-119335944D01*
X113874263Y-119325489D01*
X113892737Y-119317996D01*
X113925628Y-119312972D01*
X113977868Y-119309922D01*
X114054388Y-119308355D01*
X114160122Y-119307776D01*
X114300000Y-119307692D01*
X114317575Y-119307693D01*
X115140154Y-125512120D02*
X115134428Y-125591980D01*
X115134428Y-125591980D02*
X115127851Y-125639039D01*
X115127851Y-125639039D02*
X115118738Y-125659566D01*
X115118738Y-125659566D02*
X115105402Y-125659829D01*
X115105402Y-125659829D02*
X115101077Y-125657378D01*
X115101077Y-125657378D02*
X115043556Y-125639636D01*
X115043556Y-125639636D02*
X114968732Y-125640672D01*
X114968732Y-125640672D02*
X114892661Y-125658910D01*
X114892661Y-125658910D02*
X114845082Y-125682505D01*
X114845082Y-125682505D02*
X114796298Y-125720198D01*
X114796298Y-125720198D02*
X114760636Y-125762855D01*
X114760636Y-125762855D02*
X114736155Y-125817057D01*
X114736155Y-125817057D02*
X114720913Y-125889384D01*
X114720913Y-125889384D02*
X114712970Y-125986419D01*
X114712970Y-125986419D02*
X114710384Y-126114742D01*
X114710384Y-126114742D02*
X114710338Y-126139358D01*
X114710338Y-126139358D02*
X114710308Y-126415870D01*
X114710308Y-126415870D02*
X114771839Y-126437320D01*
X114771839Y-126437320D02*
X114815541Y-126451912D01*
X114815541Y-126451912D02*
X114839518Y-126458706D01*
X114839518Y-126458706D02*
X114840223Y-126458769D01*
X114840223Y-126458769D02*
X114842585Y-126440345D01*
X114842585Y-126440345D02*
X114844594Y-126389526D01*
X114844594Y-126389526D02*
X114846099Y-126312993D01*
X114846099Y-126312993D02*
X114846947Y-126217430D01*
X114846947Y-126217430D02*
X114847077Y-126159329D01*
X114847077Y-126159329D02*
X114847349Y-126044771D01*
X114847349Y-126044771D02*
X114848748Y-125962667D01*
X114848748Y-125962667D02*
X114852151Y-125906393D01*
X114852151Y-125906393D02*
X114858433Y-125869326D01*
X114858433Y-125869326D02*
X114868471Y-125844844D01*
X114868471Y-125844844D02*
X114883139Y-125826325D01*
X114883139Y-125826325D02*
X114892298Y-125817406D01*
X114892298Y-125817406D02*
X114955211Y-125781466D01*
X114955211Y-125781466D02*
X115023864Y-125778775D01*
X115023864Y-125778775D02*
X115086152Y-125809170D01*
X115086152Y-125809170D02*
X115097671Y-125820144D01*
X115097671Y-125820144D02*
X115114567Y-125840779D01*
X115114567Y-125840779D02*
X115126286Y-125865256D01*
X115126286Y-125865256D02*
X115133767Y-125900647D01*
X115133767Y-125900647D02*
X115137946Y-125954026D01*
X115137946Y-125954026D02*
X115139763Y-126032466D01*
X115139763Y-126032466D02*
X115140154Y-126140617D01*
X115140154Y-126140617D02*
X115140154Y-126415870D01*
X115140154Y-126415870D02*
X115201685Y-126437320D01*
X115201685Y-126437320D02*
X115245387Y-126451912D01*
X115245387Y-126451912D02*
X115269364Y-126458706D01*
X115269364Y-126458706D02*
X115270070Y-126458769D01*
X115270070Y-126458769D02*
X115271874Y-126440069D01*
X115271874Y-126440069D02*
X115273500Y-126387322D01*
X115273500Y-126387322D02*
X115274883Y-126305557D01*
X115274883Y-126305557D02*
X115275958Y-126199805D01*
X115275958Y-126199805D02*
X115276660Y-126075094D01*
X115276660Y-126075094D02*
X115276923Y-125936455D01*
X115276923Y-125936455D02*
X115276923Y-125401806D01*
X115276923Y-125401806D02*
X115149923Y-125348236D01*
X115149923Y-125348236D02*
X115140154Y-125512120D01*
X115140154Y-125512120D02*
X115140154Y-125512120D01*
G36*
X115276923Y-125401806D02*
G01*
X115276923Y-125936455D01*
X115276660Y-126075094D01*
X115275958Y-126199805D01*
X115274883Y-126305557D01*
X115273500Y-126387322D01*
X115271874Y-126440069D01*
X115270070Y-126458769D01*
X115269364Y-126458706D01*
X115245387Y-126451912D01*
X115201685Y-126437320D01*
X115140154Y-126415870D01*
X115140154Y-126140617D01*
X115139763Y-126032466D01*
X115137946Y-125954026D01*
X115133767Y-125900647D01*
X115126286Y-125865256D01*
X115114567Y-125840779D01*
X115097671Y-125820144D01*
X115086152Y-125809170D01*
X115023864Y-125778775D01*
X114955211Y-125781466D01*
X114892298Y-125817406D01*
X114883139Y-125826325D01*
X114868471Y-125844844D01*
X114858433Y-125869326D01*
X114852151Y-125906393D01*
X114848748Y-125962667D01*
X114847349Y-126044771D01*
X114847077Y-126159329D01*
X114846947Y-126217430D01*
X114846099Y-126312993D01*
X114844594Y-126389526D01*
X114842585Y-126440345D01*
X114840223Y-126458769D01*
X114839518Y-126458706D01*
X114815541Y-126451912D01*
X114771839Y-126437320D01*
X114710308Y-126415870D01*
X114710338Y-126139358D01*
X114710384Y-126114742D01*
X114712970Y-125986419D01*
X114720913Y-125889384D01*
X114736155Y-125817057D01*
X114760636Y-125762855D01*
X114796298Y-125720198D01*
X114845082Y-125682505D01*
X114892661Y-125658910D01*
X114968732Y-125640672D01*
X115043556Y-125639636D01*
X115101077Y-125657378D01*
X115105402Y-125659829D01*
X115118738Y-125659566D01*
X115127851Y-125639039D01*
X115134428Y-125591980D01*
X115140154Y-125512120D01*
X115149923Y-125348236D01*
X115276923Y-125401806D01*
G37*
X115276923Y-125401806D02*
X115276923Y-125936455D01*
X115276660Y-126075094D01*
X115275958Y-126199805D01*
X115274883Y-126305557D01*
X115273500Y-126387322D01*
X115271874Y-126440069D01*
X115270070Y-126458769D01*
X115269364Y-126458706D01*
X115245387Y-126451912D01*
X115201685Y-126437320D01*
X115140154Y-126415870D01*
X115140154Y-126140617D01*
X115139763Y-126032466D01*
X115137946Y-125954026D01*
X115133767Y-125900647D01*
X115126286Y-125865256D01*
X115114567Y-125840779D01*
X115097671Y-125820144D01*
X115086152Y-125809170D01*
X115023864Y-125778775D01*
X114955211Y-125781466D01*
X114892298Y-125817406D01*
X114883139Y-125826325D01*
X114868471Y-125844844D01*
X114858433Y-125869326D01*
X114852151Y-125906393D01*
X114848748Y-125962667D01*
X114847349Y-126044771D01*
X114847077Y-126159329D01*
X114846947Y-126217430D01*
X114846099Y-126312993D01*
X114844594Y-126389526D01*
X114842585Y-126440345D01*
X114840223Y-126458769D01*
X114839518Y-126458706D01*
X114815541Y-126451912D01*
X114771839Y-126437320D01*
X114710308Y-126415870D01*
X114710338Y-126139358D01*
X114710384Y-126114742D01*
X114712970Y-125986419D01*
X114720913Y-125889384D01*
X114736155Y-125817057D01*
X114760636Y-125762855D01*
X114796298Y-125720198D01*
X114845082Y-125682505D01*
X114892661Y-125658910D01*
X114968732Y-125640672D01*
X115043556Y-125639636D01*
X115101077Y-125657378D01*
X115105402Y-125659829D01*
X115118738Y-125659566D01*
X115127851Y-125639039D01*
X115134428Y-125591980D01*
X115140154Y-125512120D01*
X115149923Y-125348236D01*
X115276923Y-125401806D01*
X116765746Y-125619745D02*
X116688714Y-125671567D01*
X116688714Y-125671567D02*
X116629184Y-125746412D01*
X116629184Y-125746412D02*
X116593622Y-125841654D01*
X116593622Y-125841654D02*
X116586429Y-125911756D01*
X116586429Y-125911756D02*
X116587246Y-125941009D01*
X116587246Y-125941009D02*
X116594086Y-125963407D01*
X116594086Y-125963407D02*
X116612888Y-125983474D01*
X116612888Y-125983474D02*
X116649592Y-126005733D01*
X116649592Y-126005733D02*
X116710138Y-126034709D01*
X116710138Y-126034709D02*
X116800466Y-126074927D01*
X116800466Y-126074927D02*
X116800923Y-126075129D01*
X116800923Y-126075129D02*
X116884067Y-126113210D01*
X116884067Y-126113210D02*
X116952247Y-126147025D01*
X116952247Y-126147025D02*
X116998495Y-126172933D01*
X116998495Y-126172933D02*
X117015842Y-126187295D01*
X117015842Y-126187295D02*
X117015846Y-126187411D01*
X117015846Y-126187411D02*
X117000557Y-126218685D01*
X117000557Y-126218685D02*
X116964804Y-126253157D01*
X116964804Y-126253157D02*
X116923758Y-126277990D01*
X116923758Y-126277990D02*
X116902963Y-126282923D01*
X116902963Y-126282923D02*
X116846230Y-126265862D01*
X116846230Y-126265862D02*
X116797373Y-126223133D01*
X116797373Y-126223133D02*
X116773535Y-126176155D01*
X116773535Y-126176155D02*
X116750603Y-126141522D01*
X116750603Y-126141522D02*
X116705682Y-126102081D01*
X116705682Y-126102081D02*
X116652877Y-126068009D01*
X116652877Y-126068009D02*
X116606290Y-126049480D01*
X116606290Y-126049480D02*
X116596548Y-126048462D01*
X116596548Y-126048462D02*
X116585582Y-126065215D01*
X116585582Y-126065215D02*
X116584921Y-126108039D01*
X116584921Y-126108039D02*
X116592980Y-126165781D01*
X116592980Y-126165781D02*
X116608173Y-126227289D01*
X116608173Y-126227289D02*
X116628914Y-126281409D01*
X116628914Y-126281409D02*
X116629962Y-126283510D01*
X116629962Y-126283510D02*
X116692379Y-126370660D01*
X116692379Y-126370660D02*
X116773274Y-126429939D01*
X116773274Y-126429939D02*
X116865144Y-126459034D01*
X116865144Y-126459034D02*
X116960487Y-126455634D01*
X116960487Y-126455634D02*
X117051802Y-126417428D01*
X117051802Y-126417428D02*
X117055862Y-126414741D01*
X117055862Y-126414741D02*
X117127694Y-126349642D01*
X117127694Y-126349642D02*
X117174927Y-126264705D01*
X117174927Y-126264705D02*
X117201066Y-126153021D01*
X117201066Y-126153021D02*
X117204574Y-126121643D01*
X117204574Y-126121643D02*
X117210787Y-125973536D01*
X117210787Y-125973536D02*
X117203339Y-125904468D01*
X117203339Y-125904468D02*
X117015846Y-125904468D01*
X117015846Y-125904468D02*
X117013410Y-125947552D01*
X117013410Y-125947552D02*
X117000086Y-125960126D01*
X117000086Y-125960126D02*
X116966868Y-125950719D01*
X116966868Y-125950719D02*
X116914506Y-125928483D01*
X116914506Y-125928483D02*
X116855976Y-125900610D01*
X116855976Y-125900610D02*
X116854521Y-125899872D01*
X116854521Y-125899872D02*
X116804911Y-125873777D01*
X116804911Y-125873777D02*
X116785000Y-125856363D01*
X116785000Y-125856363D02*
X116789910Y-125838107D01*
X116789910Y-125838107D02*
X116810584Y-125814120D01*
X116810584Y-125814120D02*
X116863181Y-125779406D01*
X116863181Y-125779406D02*
X116919823Y-125776856D01*
X116919823Y-125776856D02*
X116970631Y-125802119D01*
X116970631Y-125802119D02*
X117005724Y-125850847D01*
X117005724Y-125850847D02*
X117015846Y-125904468D01*
X117015846Y-125904468D02*
X117203339Y-125904468D01*
X117203339Y-125904468D02*
X117198008Y-125855036D01*
X117198008Y-125855036D02*
X117165222Y-125761055D01*
X117165222Y-125761055D02*
X117119579Y-125695215D01*
X117119579Y-125695215D02*
X117037198Y-125628681D01*
X117037198Y-125628681D02*
X116946454Y-125595676D01*
X116946454Y-125595676D02*
X116853815Y-125593573D01*
X116853815Y-125593573D02*
X116765746Y-125619745D01*
X116765746Y-125619745D02*
X116765746Y-125619745D01*
G36*
X117204574Y-126121643D02*
G01*
X117201066Y-126153021D01*
X117174927Y-126264705D01*
X117127694Y-126349642D01*
X117055862Y-126414741D01*
X117051802Y-126417428D01*
X116960487Y-126455634D01*
X116865144Y-126459034D01*
X116773274Y-126429939D01*
X116692379Y-126370660D01*
X116629962Y-126283510D01*
X116628914Y-126281409D01*
X116608173Y-126227289D01*
X116592980Y-126165781D01*
X116584921Y-126108039D01*
X116585582Y-126065215D01*
X116596548Y-126048462D01*
X116606290Y-126049480D01*
X116652877Y-126068009D01*
X116705682Y-126102081D01*
X116750603Y-126141522D01*
X116773535Y-126176155D01*
X116797373Y-126223133D01*
X116846230Y-126265862D01*
X116902963Y-126282923D01*
X116923758Y-126277990D01*
X116964804Y-126253157D01*
X117000557Y-126218685D01*
X117015846Y-126187411D01*
X117015842Y-126187295D01*
X116998495Y-126172933D01*
X116952247Y-126147025D01*
X116884067Y-126113210D01*
X116800923Y-126075129D01*
X116800466Y-126074927D01*
X116710138Y-126034709D01*
X116649592Y-126005733D01*
X116612888Y-125983474D01*
X116594086Y-125963407D01*
X116587246Y-125941009D01*
X116586429Y-125911756D01*
X116592113Y-125856363D01*
X116785000Y-125856363D01*
X116804911Y-125873777D01*
X116854521Y-125899872D01*
X116855976Y-125900610D01*
X116914506Y-125928483D01*
X116966868Y-125950719D01*
X117000086Y-125960126D01*
X117013410Y-125947552D01*
X117015846Y-125904468D01*
X117005724Y-125850847D01*
X116970631Y-125802119D01*
X116919823Y-125776856D01*
X116863181Y-125779406D01*
X116810584Y-125814120D01*
X116789910Y-125838107D01*
X116785000Y-125856363D01*
X116592113Y-125856363D01*
X116593622Y-125841654D01*
X116629184Y-125746412D01*
X116688714Y-125671567D01*
X116765746Y-125619745D01*
X116853815Y-125593573D01*
X116946454Y-125595676D01*
X117037198Y-125628681D01*
X117119579Y-125695215D01*
X117165222Y-125761055D01*
X117198008Y-125855036D01*
X117203339Y-125904468D01*
X117210787Y-125973536D01*
X117204574Y-126121643D01*
G37*
X117204574Y-126121643D02*
X117201066Y-126153021D01*
X117174927Y-126264705D01*
X117127694Y-126349642D01*
X117055862Y-126414741D01*
X117051802Y-126417428D01*
X116960487Y-126455634D01*
X116865144Y-126459034D01*
X116773274Y-126429939D01*
X116692379Y-126370660D01*
X116629962Y-126283510D01*
X116628914Y-126281409D01*
X116608173Y-126227289D01*
X116592980Y-126165781D01*
X116584921Y-126108039D01*
X116585582Y-126065215D01*
X116596548Y-126048462D01*
X116606290Y-126049480D01*
X116652877Y-126068009D01*
X116705682Y-126102081D01*
X116750603Y-126141522D01*
X116773535Y-126176155D01*
X116797373Y-126223133D01*
X116846230Y-126265862D01*
X116902963Y-126282923D01*
X116923758Y-126277990D01*
X116964804Y-126253157D01*
X117000557Y-126218685D01*
X117015846Y-126187411D01*
X117015842Y-126187295D01*
X116998495Y-126172933D01*
X116952247Y-126147025D01*
X116884067Y-126113210D01*
X116800923Y-126075129D01*
X116800466Y-126074927D01*
X116710138Y-126034709D01*
X116649592Y-126005733D01*
X116612888Y-125983474D01*
X116594086Y-125963407D01*
X116587246Y-125941009D01*
X116586429Y-125911756D01*
X116592113Y-125856363D01*
X116785000Y-125856363D01*
X116804911Y-125873777D01*
X116854521Y-125899872D01*
X116855976Y-125900610D01*
X116914506Y-125928483D01*
X116966868Y-125950719D01*
X117000086Y-125960126D01*
X117013410Y-125947552D01*
X117015846Y-125904468D01*
X117005724Y-125850847D01*
X116970631Y-125802119D01*
X116919823Y-125776856D01*
X116863181Y-125779406D01*
X116810584Y-125814120D01*
X116789910Y-125838107D01*
X116785000Y-125856363D01*
X116592113Y-125856363D01*
X116593622Y-125841654D01*
X116629184Y-125746412D01*
X116688714Y-125671567D01*
X116765746Y-125619745D01*
X116853815Y-125593573D01*
X116946454Y-125595676D01*
X117037198Y-125628681D01*
X117119579Y-125695215D01*
X117165222Y-125761055D01*
X117198008Y-125855036D01*
X117203339Y-125904468D01*
X117210787Y-125973536D01*
X117204574Y-126121643D01*
X112697919Y-125800289D02*
X112698167Y-125946320D01*
X112698167Y-125946320D02*
X112699128Y-126058655D01*
X112699128Y-126058655D02*
X112701206Y-126142678D01*
X112701206Y-126142678D02*
X112704807Y-126203769D01*
X112704807Y-126203769D02*
X112710335Y-126247309D01*
X112710335Y-126247309D02*
X112718196Y-126278679D01*
X112718196Y-126278679D02*
X112728793Y-126303262D01*
X112728793Y-126303262D02*
X112736818Y-126317294D01*
X112736818Y-126317294D02*
X112803272Y-126393388D01*
X112803272Y-126393388D02*
X112887530Y-126441084D01*
X112887530Y-126441084D02*
X112980751Y-126458199D01*
X112980751Y-126458199D02*
X113074100Y-126442546D01*
X113074100Y-126442546D02*
X113129688Y-126414418D01*
X113129688Y-126414418D02*
X113188043Y-126365760D01*
X113188043Y-126365760D02*
X113227814Y-126306333D01*
X113227814Y-126306333D02*
X113251810Y-126228507D01*
X113251810Y-126228507D02*
X113262839Y-126124652D01*
X113262839Y-126124652D02*
X113264401Y-126048462D01*
X113264401Y-126048462D02*
X113264191Y-126042986D01*
X113264191Y-126042986D02*
X113127692Y-126042986D01*
X113127692Y-126042986D02*
X113126859Y-126130355D01*
X113126859Y-126130355D02*
X113123039Y-126188192D01*
X113123039Y-126188192D02*
X113114254Y-126226029D01*
X113114254Y-126226029D02*
X113098526Y-126253398D01*
X113098526Y-126253398D02*
X113079734Y-126274042D01*
X113079734Y-126274042D02*
X113016625Y-126313890D01*
X113016625Y-126313890D02*
X112948863Y-126317295D01*
X112948863Y-126317295D02*
X112884821Y-126284025D01*
X112884821Y-126284025D02*
X112879836Y-126279517D01*
X112879836Y-126279517D02*
X112858561Y-126256067D01*
X112858561Y-126256067D02*
X112845221Y-126228166D01*
X112845221Y-126228166D02*
X112837999Y-126186641D01*
X112837999Y-126186641D02*
X112835077Y-126122316D01*
X112835077Y-126122316D02*
X112834615Y-126051200D01*
X112834615Y-126051200D02*
X112835617Y-125961858D01*
X112835617Y-125961858D02*
X112839762Y-125902258D01*
X112839762Y-125902258D02*
X112848764Y-125863089D01*
X112848764Y-125863089D02*
X112864333Y-125835040D01*
X112864333Y-125835040D02*
X112877098Y-125820144D01*
X112877098Y-125820144D02*
X112936400Y-125782575D01*
X112936400Y-125782575D02*
X113004699Y-125778057D01*
X113004699Y-125778057D02*
X113069890Y-125806753D01*
X113069890Y-125806753D02*
X113082472Y-125817406D01*
X113082472Y-125817406D02*
X113103889Y-125841063D01*
X113103889Y-125841063D02*
X113117256Y-125869251D01*
X113117256Y-125869251D02*
X113124434Y-125911245D01*
X113124434Y-125911245D02*
X113127281Y-125976319D01*
X113127281Y-125976319D02*
X113127692Y-126042986D01*
X113127692Y-126042986D02*
X113264191Y-126042986D01*
X113264191Y-126042986D02*
X113259678Y-125925765D01*
X113259678Y-125925765D02*
X113243638Y-125833577D01*
X113243638Y-125833577D02*
X113213472Y-125764269D01*
X113213472Y-125764269D02*
X113166371Y-125710211D01*
X113166371Y-125710211D02*
X113129688Y-125682505D01*
X113129688Y-125682505D02*
X113063010Y-125652572D01*
X113063010Y-125652572D02*
X112985728Y-125638678D01*
X112985728Y-125638678D02*
X112913890Y-125642397D01*
X112913890Y-125642397D02*
X112873692Y-125657400D01*
X112873692Y-125657400D02*
X112857918Y-125661670D01*
X112857918Y-125661670D02*
X112847450Y-125645750D01*
X112847450Y-125645750D02*
X112840144Y-125603089D01*
X112840144Y-125603089D02*
X112834615Y-125538106D01*
X112834615Y-125538106D02*
X112828563Y-125465732D01*
X112828563Y-125465732D02*
X112820156Y-125422187D01*
X112820156Y-125422187D02*
X112804859Y-125397287D01*
X112804859Y-125397287D02*
X112778136Y-125380845D01*
X112778136Y-125380845D02*
X112761346Y-125373564D01*
X112761346Y-125373564D02*
X112697846Y-125346963D01*
X112697846Y-125346963D02*
X112697919Y-125800289D01*
X112697919Y-125800289D02*
X112697919Y-125800289D01*
G36*
X113262839Y-126124652D02*
G01*
X113251810Y-126228507D01*
X113227814Y-126306333D01*
X113188043Y-126365760D01*
X113129688Y-126414418D01*
X113074100Y-126442546D01*
X112980751Y-126458199D01*
X112887530Y-126441084D01*
X112803272Y-126393388D01*
X112736818Y-126317294D01*
X112728793Y-126303262D01*
X112718196Y-126278679D01*
X112710335Y-126247309D01*
X112704807Y-126203769D01*
X112701206Y-126142678D01*
X112699128Y-126058655D01*
X112699064Y-126051200D01*
X112834615Y-126051200D01*
X112835077Y-126122316D01*
X112837999Y-126186641D01*
X112845221Y-126228166D01*
X112858561Y-126256067D01*
X112879836Y-126279517D01*
X112884821Y-126284025D01*
X112948863Y-126317295D01*
X113016625Y-126313890D01*
X113079734Y-126274042D01*
X113098526Y-126253398D01*
X113114254Y-126226029D01*
X113123039Y-126188192D01*
X113126859Y-126130355D01*
X113127692Y-126042986D01*
X113127281Y-125976319D01*
X113124434Y-125911245D01*
X113117256Y-125869251D01*
X113103889Y-125841063D01*
X113082472Y-125817406D01*
X113069890Y-125806753D01*
X113004699Y-125778057D01*
X112936400Y-125782575D01*
X112877098Y-125820144D01*
X112864333Y-125835040D01*
X112848764Y-125863089D01*
X112839762Y-125902258D01*
X112835617Y-125961858D01*
X112834615Y-126051200D01*
X112699064Y-126051200D01*
X112698167Y-125946320D01*
X112697919Y-125800289D01*
X112697846Y-125346963D01*
X112761346Y-125373564D01*
X112778136Y-125380845D01*
X112804859Y-125397287D01*
X112820156Y-125422187D01*
X112828563Y-125465732D01*
X112834615Y-125538106D01*
X112840144Y-125603089D01*
X112847450Y-125645750D01*
X112857918Y-125661670D01*
X112873692Y-125657400D01*
X112913890Y-125642397D01*
X112985728Y-125638678D01*
X113063010Y-125652572D01*
X113129688Y-125682505D01*
X113166371Y-125710211D01*
X113213472Y-125764269D01*
X113243638Y-125833577D01*
X113259678Y-125925765D01*
X113264191Y-126042986D01*
X113264401Y-126048462D01*
X113262839Y-126124652D01*
G37*
X113262839Y-126124652D02*
X113251810Y-126228507D01*
X113227814Y-126306333D01*
X113188043Y-126365760D01*
X113129688Y-126414418D01*
X113074100Y-126442546D01*
X112980751Y-126458199D01*
X112887530Y-126441084D01*
X112803272Y-126393388D01*
X112736818Y-126317294D01*
X112728793Y-126303262D01*
X112718196Y-126278679D01*
X112710335Y-126247309D01*
X112704807Y-126203769D01*
X112701206Y-126142678D01*
X112699128Y-126058655D01*
X112699064Y-126051200D01*
X112834615Y-126051200D01*
X112835077Y-126122316D01*
X112837999Y-126186641D01*
X112845221Y-126228166D01*
X112858561Y-126256067D01*
X112879836Y-126279517D01*
X112884821Y-126284025D01*
X112948863Y-126317295D01*
X113016625Y-126313890D01*
X113079734Y-126274042D01*
X113098526Y-126253398D01*
X113114254Y-126226029D01*
X113123039Y-126188192D01*
X113126859Y-126130355D01*
X113127692Y-126042986D01*
X113127281Y-125976319D01*
X113124434Y-125911245D01*
X113117256Y-125869251D01*
X113103889Y-125841063D01*
X113082472Y-125817406D01*
X113069890Y-125806753D01*
X113004699Y-125778057D01*
X112936400Y-125782575D01*
X112877098Y-125820144D01*
X112864333Y-125835040D01*
X112848764Y-125863089D01*
X112839762Y-125902258D01*
X112835617Y-125961858D01*
X112834615Y-126051200D01*
X112699064Y-126051200D01*
X112698167Y-125946320D01*
X112697919Y-125800289D01*
X112697846Y-125346963D01*
X112761346Y-125373564D01*
X112778136Y-125380845D01*
X112804859Y-125397287D01*
X112820156Y-125422187D01*
X112828563Y-125465732D01*
X112834615Y-125538106D01*
X112840144Y-125603089D01*
X112847450Y-125645750D01*
X112857918Y-125661670D01*
X112873692Y-125657400D01*
X112913890Y-125642397D01*
X112985728Y-125638678D01*
X113063010Y-125652572D01*
X113129688Y-125682505D01*
X113166371Y-125710211D01*
X113213472Y-125764269D01*
X113243638Y-125833577D01*
X113259678Y-125925765D01*
X113264191Y-126042986D01*
X113264401Y-126048462D01*
X113262839Y-126124652D01*
X110054776Y-125667838D02*
X109977472Y-125718361D01*
X109977472Y-125718361D02*
X109940186Y-125763590D01*
X109940186Y-125763590D02*
X109910647Y-125845663D01*
X109910647Y-125845663D02*
X109908301Y-125910607D01*
X109908301Y-125910607D02*
X109913615Y-125997445D01*
X109913615Y-125997445D02*
X110113885Y-126085103D01*
X110113885Y-126085103D02*
X110211261Y-126129887D01*
X110211261Y-126129887D02*
X110274887Y-126165913D01*
X110274887Y-126165913D02*
X110307971Y-126197117D01*
X110307971Y-126197117D02*
X110313720Y-126227436D01*
X110313720Y-126227436D02*
X110295342Y-126260805D01*
X110295342Y-126260805D02*
X110275077Y-126282923D01*
X110275077Y-126282923D02*
X110216111Y-126318393D01*
X110216111Y-126318393D02*
X110151976Y-126320879D01*
X110151976Y-126320879D02*
X110093074Y-126293235D01*
X110093074Y-126293235D02*
X110049803Y-126238320D01*
X110049803Y-126238320D02*
X110042064Y-126218928D01*
X110042064Y-126218928D02*
X110004994Y-126158364D01*
X110004994Y-126158364D02*
X109962346Y-126132552D01*
X109962346Y-126132552D02*
X109903846Y-126110471D01*
X109903846Y-126110471D02*
X109903846Y-126194184D01*
X109903846Y-126194184D02*
X109909018Y-126251150D01*
X109909018Y-126251150D02*
X109929277Y-126299189D01*
X109929277Y-126299189D02*
X109971738Y-126354346D01*
X109971738Y-126354346D02*
X109978049Y-126361514D01*
X109978049Y-126361514D02*
X110025280Y-126410585D01*
X110025280Y-126410585D02*
X110065879Y-126436920D01*
X110065879Y-126436920D02*
X110116672Y-126449035D01*
X110116672Y-126449035D02*
X110158780Y-126453003D01*
X110158780Y-126453003D02*
X110234098Y-126453991D01*
X110234098Y-126453991D02*
X110287714Y-126441466D01*
X110287714Y-126441466D02*
X110321162Y-126422869D01*
X110321162Y-126422869D02*
X110373732Y-126381975D01*
X110373732Y-126381975D02*
X110410121Y-126337748D01*
X110410121Y-126337748D02*
X110433150Y-126282126D01*
X110433150Y-126282126D02*
X110445641Y-126207047D01*
X110445641Y-126207047D02*
X110450413Y-126104449D01*
X110450413Y-126104449D02*
X110450794Y-126052376D01*
X110450794Y-126052376D02*
X110449499Y-125989948D01*
X110449499Y-125989948D02*
X110331529Y-125989948D01*
X110331529Y-125989948D02*
X110330161Y-126023438D01*
X110330161Y-126023438D02*
X110326751Y-126028923D01*
X110326751Y-126028923D02*
X110304247Y-126021472D01*
X110304247Y-126021472D02*
X110255818Y-126001753D01*
X110255818Y-126001753D02*
X110191092Y-125973718D01*
X110191092Y-125973718D02*
X110177557Y-125967692D01*
X110177557Y-125967692D02*
X110095756Y-125926096D01*
X110095756Y-125926096D02*
X110050688Y-125889538D01*
X110050688Y-125889538D02*
X110040783Y-125855296D01*
X110040783Y-125855296D02*
X110064474Y-125820648D01*
X110064474Y-125820648D02*
X110084040Y-125805339D01*
X110084040Y-125805339D02*
X110154640Y-125774721D01*
X110154640Y-125774721D02*
X110220720Y-125779780D01*
X110220720Y-125779780D02*
X110276041Y-125817151D01*
X110276041Y-125817151D02*
X110314364Y-125883473D01*
X110314364Y-125883473D02*
X110326651Y-125936116D01*
X110326651Y-125936116D02*
X110331529Y-125989948D01*
X110331529Y-125989948D02*
X110449499Y-125989948D01*
X110449499Y-125989948D02*
X110448270Y-125930720D01*
X110448270Y-125930720D02*
X110438968Y-125840710D01*
X110438968Y-125840710D02*
X110420540Y-125775167D01*
X110420540Y-125775167D02*
X110390640Y-125726912D01*
X110390640Y-125726912D02*
X110346920Y-125688767D01*
X110346920Y-125688767D02*
X110327859Y-125676440D01*
X110327859Y-125676440D02*
X110241274Y-125644336D01*
X110241274Y-125644336D02*
X110146478Y-125642316D01*
X110146478Y-125642316D02*
X110054776Y-125667838D01*
X110054776Y-125667838D02*
X110054776Y-125667838D01*
G36*
X110450413Y-126104449D02*
G01*
X110445641Y-126207047D01*
X110433150Y-126282126D01*
X110410121Y-126337748D01*
X110373732Y-126381975D01*
X110321162Y-126422869D01*
X110287714Y-126441466D01*
X110234098Y-126453991D01*
X110158780Y-126453003D01*
X110116672Y-126449035D01*
X110065879Y-126436920D01*
X110025280Y-126410585D01*
X109978049Y-126361514D01*
X109971738Y-126354346D01*
X109929277Y-126299189D01*
X109909018Y-126251150D01*
X109903846Y-126194184D01*
X109903846Y-126110471D01*
X109962346Y-126132552D01*
X110004994Y-126158364D01*
X110042064Y-126218928D01*
X110049803Y-126238320D01*
X110093074Y-126293235D01*
X110151976Y-126320879D01*
X110216111Y-126318393D01*
X110275077Y-126282923D01*
X110295342Y-126260805D01*
X110313720Y-126227436D01*
X110307971Y-126197117D01*
X110274887Y-126165913D01*
X110211261Y-126129887D01*
X110113885Y-126085103D01*
X109913615Y-125997445D01*
X109908301Y-125910607D01*
X109910299Y-125855296D01*
X110040783Y-125855296D01*
X110050688Y-125889538D01*
X110095756Y-125926096D01*
X110177557Y-125967692D01*
X110191092Y-125973718D01*
X110255818Y-126001753D01*
X110304247Y-126021472D01*
X110326751Y-126028923D01*
X110330161Y-126023438D01*
X110331529Y-125989948D01*
X110326651Y-125936116D01*
X110314364Y-125883473D01*
X110276041Y-125817151D01*
X110220720Y-125779780D01*
X110154640Y-125774721D01*
X110084040Y-125805339D01*
X110064474Y-125820648D01*
X110040783Y-125855296D01*
X109910299Y-125855296D01*
X109910647Y-125845663D01*
X109940186Y-125763590D01*
X109977472Y-125718361D01*
X110054776Y-125667838D01*
X110146478Y-125642316D01*
X110241274Y-125644336D01*
X110327859Y-125676440D01*
X110346920Y-125688767D01*
X110390640Y-125726912D01*
X110420540Y-125775167D01*
X110438968Y-125840710D01*
X110448270Y-125930720D01*
X110449499Y-125989948D01*
X110450794Y-126052376D01*
X110450413Y-126104449D01*
G37*
X110450413Y-126104449D02*
X110445641Y-126207047D01*
X110433150Y-126282126D01*
X110410121Y-126337748D01*
X110373732Y-126381975D01*
X110321162Y-126422869D01*
X110287714Y-126441466D01*
X110234098Y-126453991D01*
X110158780Y-126453003D01*
X110116672Y-126449035D01*
X110065879Y-126436920D01*
X110025280Y-126410585D01*
X109978049Y-126361514D01*
X109971738Y-126354346D01*
X109929277Y-126299189D01*
X109909018Y-126251150D01*
X109903846Y-126194184D01*
X109903846Y-126110471D01*
X109962346Y-126132552D01*
X110004994Y-126158364D01*
X110042064Y-126218928D01*
X110049803Y-126238320D01*
X110093074Y-126293235D01*
X110151976Y-126320879D01*
X110216111Y-126318393D01*
X110275077Y-126282923D01*
X110295342Y-126260805D01*
X110313720Y-126227436D01*
X110307971Y-126197117D01*
X110274887Y-126165913D01*
X110211261Y-126129887D01*
X110113885Y-126085103D01*
X109913615Y-125997445D01*
X109908301Y-125910607D01*
X109910299Y-125855296D01*
X110040783Y-125855296D01*
X110050688Y-125889538D01*
X110095756Y-125926096D01*
X110177557Y-125967692D01*
X110191092Y-125973718D01*
X110255818Y-126001753D01*
X110304247Y-126021472D01*
X110326751Y-126028923D01*
X110330161Y-126023438D01*
X110331529Y-125989948D01*
X110326651Y-125936116D01*
X110314364Y-125883473D01*
X110276041Y-125817151D01*
X110220720Y-125779780D01*
X110154640Y-125774721D01*
X110084040Y-125805339D01*
X110064474Y-125820648D01*
X110040783Y-125855296D01*
X109910299Y-125855296D01*
X109910647Y-125845663D01*
X109940186Y-125763590D01*
X109977472Y-125718361D01*
X110054776Y-125667838D01*
X110146478Y-125642316D01*
X110241274Y-125644336D01*
X110327859Y-125676440D01*
X110346920Y-125688767D01*
X110390640Y-125726912D01*
X110420540Y-125775167D01*
X110438968Y-125840710D01*
X110448270Y-125930720D01*
X110449499Y-125989948D01*
X110450794Y-126052376D01*
X110450413Y-126104449D01*
D14*
%TO.C,R30*%
X116539564Y-133535000D02*
X116085436Y-133535000D01*
X116539564Y-132065000D02*
X116085436Y-132065000D01*
%TO.C,R31*%
X111772936Y-132065000D02*
X112227064Y-132065000D01*
X111772936Y-133535000D02*
X112227064Y-133535000D01*
%TD*%
%LPC*%
D15*
%TO.C,C19*%
X108200000Y-133300000D03*
D16*
X120200000Y-133300000D03*
%TD*%
D17*
%TO.C,J3*%
X112200000Y-136600000D03*
D18*
X116200000Y-136600000D03*
%TD*%
D19*
%TO.C,R30*%
X117225000Y-132800000D03*
X115400000Y-132800000D03*
%TD*%
D20*
%TO.C,R31*%
X111087500Y-132800000D03*
X112912500Y-132800000D03*
%TD*%
D21*
%TO.C,FID3*%
X113640000Y-68660000D03*
%TD*%
%TO.C,FID4*%
X108730000Y-142990000D03*
%TD*%
M02*
