%TF.GenerationSoftware,KiCad,Pcbnew,6.0.2-378541a8eb~116~ubuntu20.04.1*%
%TF.CreationDate,2022-02-19T19:42:58-08:00*%
%TF.ProjectId,menorah555_shamash,6d656e6f-7261-4683-9535-355f7368616d,B*%
%TF.SameCoordinates,Original*%
%TF.FileFunction,Copper,L2,Bot*%
%TF.FilePolarity,Positive*%
%FSLAX46Y46*%
G04 Gerber Fmt 4.6, Leading zero omitted, Abs format (unit mm)*
G04 Created by KiCad (PCBNEW 6.0.2-378541a8eb~116~ubuntu20.04.1) date 2022-02-19 19:42:58*
%MOMM*%
%LPD*%
G01*
G04 APERTURE LIST*
G04 Aperture macros list*
%AMRoundRect*
0 Rectangle with rounded corners*
0 $1 Rounding radius*
0 $2 $3 $4 $5 $6 $7 $8 $9 X,Y pos of 4 corners*
0 Add a 4 corners polygon primitive as box body*
4,1,4,$2,$3,$4,$5,$6,$7,$8,$9,$2,$3,0*
0 Add four circle primitives for the rounded corners*
1,1,$1+$1,$2,$3*
1,1,$1+$1,$4,$5*
1,1,$1+$1,$6,$7*
1,1,$1+$1,$8,$9*
0 Add four rect primitives between the rounded corners*
20,1,$1+$1,$2,$3,$4,$5,0*
20,1,$1+$1,$4,$5,$6,$7,0*
20,1,$1+$1,$6,$7,$8,$9,0*
20,1,$1+$1,$8,$9,$2,$3,0*%
G04 Aperture macros list end*
%TA.AperFunction,Profile*%
%ADD10C,0.050000*%
%TD*%
%ADD11C,0.150000*%
%TA.AperFunction,NonConductor*%
%ADD12C,0.150000*%
%TD*%
%TA.AperFunction,ComponentPad*%
%ADD13R,2.000000X2.000000*%
%TD*%
%TA.AperFunction,ComponentPad*%
%ADD14O,2.000000X2.000000*%
%TD*%
%TA.AperFunction,ComponentPad*%
%ADD15R,3.200000X3.200000*%
%TD*%
%TA.AperFunction,ComponentPad*%
%ADD16O,3.200000X3.200000*%
%TD*%
%TA.AperFunction,SMDPad,CuDef*%
%ADD17RoundRect,0.250000X0.262500X0.450000X-0.262500X0.450000X-0.262500X-0.450000X0.262500X-0.450000X0*%
%TD*%
%TA.AperFunction,SMDPad,CuDef*%
%ADD18RoundRect,0.250000X-0.262500X-0.450000X0.262500X-0.450000X0.262500X0.450000X-0.262500X0.450000X0*%
%TD*%
%TA.AperFunction,SMDPad,CuDef*%
%ADD19C,1.000000*%
%TD*%
%TA.AperFunction,ViaPad*%
%ADD20C,1.000000*%
%TD*%
%TA.AperFunction,Conductor*%
%ADD21C,0.600000*%
%TD*%
G04 APERTURE END LIST*
D10*
X110100000Y-64800000D02*
X118300000Y-64800000D01*
X119300000Y-110200000D02*
X123000000Y-114400000D01*
X109100000Y-110200000D02*
X105400000Y-114400000D01*
X109100000Y-65800000D02*
X109100000Y-110200000D01*
X110100000Y-64800000D02*
G75*
G03*
X109100000Y-65800000I-1J-999999D01*
G01*
X105400000Y-114400000D02*
X105400000Y-143600000D01*
X123000000Y-114400000D02*
X123000000Y-143600000D01*
X119300000Y-65800000D02*
X119300000Y-110200000D01*
X119300000Y-65800000D02*
G75*
G03*
X118300000Y-64800000I-999999J1D01*
G01*
X122000000Y-144600000D02*
G75*
G03*
X123000000Y-143600000I1J999999D01*
G01*
X106400000Y-144600000D02*
X122000000Y-144600000D01*
X105400000Y-143600000D02*
G75*
G03*
X106400000Y-144600000I999999J-1D01*
G01*
D11*
D12*
X118666666Y-143452380D02*
X118666666Y-142452380D01*
X118285714Y-142452380D01*
X118190476Y-142500000D01*
X118142857Y-142547619D01*
X118095238Y-142642857D01*
X118095238Y-142785714D01*
X118142857Y-142880952D01*
X118190476Y-142928571D01*
X118285714Y-142976190D01*
X118666666Y-142976190D01*
X117095238Y-143357142D02*
X117142857Y-143404761D01*
X117285714Y-143452380D01*
X117380952Y-143452380D01*
X117523809Y-143404761D01*
X117619047Y-143309523D01*
X117666666Y-143214285D01*
X117714285Y-143023809D01*
X117714285Y-142880952D01*
X117666666Y-142690476D01*
X117619047Y-142595238D01*
X117523809Y-142500000D01*
X117380952Y-142452380D01*
X117285714Y-142452380D01*
X117142857Y-142500000D01*
X117095238Y-142547619D01*
X116333333Y-142928571D02*
X116190476Y-142976190D01*
X116142857Y-143023809D01*
X116095238Y-143119047D01*
X116095238Y-143261904D01*
X116142857Y-143357142D01*
X116190476Y-143404761D01*
X116285714Y-143452380D01*
X116666666Y-143452380D01*
X116666666Y-142452380D01*
X116333333Y-142452380D01*
X116238095Y-142500000D01*
X116190476Y-142547619D01*
X116142857Y-142642857D01*
X116142857Y-142738095D01*
X116190476Y-142833333D01*
X116238095Y-142880952D01*
X116333333Y-142928571D01*
X116666666Y-142928571D01*
X115714285Y-142547619D02*
X115666666Y-142500000D01*
X115571428Y-142452380D01*
X115333333Y-142452380D01*
X115238095Y-142500000D01*
X115190476Y-142547619D01*
X115142857Y-142642857D01*
X115142857Y-142738095D01*
X115190476Y-142880952D01*
X115761904Y-143452380D01*
X115142857Y-143452380D01*
X114523809Y-142452380D02*
X114428571Y-142452380D01*
X114333333Y-142500000D01*
X114285714Y-142547619D01*
X114238095Y-142642857D01*
X114190476Y-142833333D01*
X114190476Y-143071428D01*
X114238095Y-143261904D01*
X114285714Y-143357142D01*
X114333333Y-143404761D01*
X114428571Y-143452380D01*
X114523809Y-143452380D01*
X114619047Y-143404761D01*
X114666666Y-143357142D01*
X114714285Y-143261904D01*
X114761904Y-143071428D01*
X114761904Y-142833333D01*
X114714285Y-142642857D01*
X114666666Y-142547619D01*
X114619047Y-142500000D01*
X114523809Y-142452380D01*
X113571428Y-142452380D02*
X113476190Y-142452380D01*
X113380952Y-142500000D01*
X113333333Y-142547619D01*
X113285714Y-142642857D01*
X113238095Y-142833333D01*
X113238095Y-143071428D01*
X113285714Y-143261904D01*
X113333333Y-143357142D01*
X113380952Y-143404761D01*
X113476190Y-143452380D01*
X113571428Y-143452380D01*
X113666666Y-143404761D01*
X113714285Y-143357142D01*
X113761904Y-143261904D01*
X113809523Y-143071428D01*
X113809523Y-142833333D01*
X113761904Y-142642857D01*
X113714285Y-142547619D01*
X113666666Y-142500000D01*
X113571428Y-142452380D01*
X112904761Y-142452380D02*
X112285714Y-142452380D01*
X112619047Y-142833333D01*
X112476190Y-142833333D01*
X112380952Y-142880952D01*
X112333333Y-142928571D01*
X112285714Y-143023809D01*
X112285714Y-143261904D01*
X112333333Y-143357142D01*
X112380952Y-143404761D01*
X112476190Y-143452380D01*
X112761904Y-143452380D01*
X112857142Y-143404761D01*
X112904761Y-143357142D01*
X111523809Y-142928571D02*
X111380952Y-142976190D01*
X111333333Y-143023809D01*
X111285714Y-143119047D01*
X111285714Y-143261904D01*
X111333333Y-143357142D01*
X111380952Y-143404761D01*
X111476190Y-143452380D01*
X111857142Y-143452380D01*
X111857142Y-142452380D01*
X111523809Y-142452380D01*
X111428571Y-142500000D01*
X111380952Y-142547619D01*
X111333333Y-142642857D01*
X111333333Y-142738095D01*
X111380952Y-142833333D01*
X111428571Y-142880952D01*
X111523809Y-142928571D01*
X111857142Y-142928571D01*
D13*
%TO.P,C19,1*%
%TO.N,Net-(C19-Pad1)*%
X108200000Y-133300000D03*
D14*
%TO.P,C19,2*%
%TO.N,GND*%
X120200000Y-133300000D03*
%TD*%
D15*
%TO.P,J3,1,In*%
%TO.N,Net-(C19-Pad1)*%
X112200000Y-136600000D03*
D16*
%TO.P,J3,2,Ext*%
%TO.N,GND*%
X116200000Y-136600000D03*
%TD*%
D17*
%TO.P,R30,1*%
%TO.N,GND*%
X117225000Y-132800000D03*
%TO.P,R30,2*%
%TO.N,Net-(C19-Pad1)*%
X115400000Y-132800000D03*
%TD*%
D18*
%TO.P,R31,1*%
%TO.N,Net-(C19-Pad1)*%
X111087500Y-132800000D03*
%TO.P,R31,2*%
%TO.N,Net-(LED1-Pad2)*%
X112912500Y-132800000D03*
%TD*%
D19*
%TO.P,FID3,*%
%TO.N,*%
X113640000Y-68660000D03*
%TD*%
%TO.P,FID4,*%
%TO.N,*%
X108730000Y-142990000D03*
%TD*%
D20*
%TO.N,GND*%
X117900000Y-69200000D03*
X110300000Y-69200000D03*
X117230000Y-129110000D03*
%TO.N,Net-(LED1-Pad2)*%
X112430000Y-129020000D03*
%TD*%
D21*
%TO.N,GND*%
X116200000Y-136600000D02*
X116200000Y-134800000D01*
X117225000Y-133775000D02*
X117225000Y-132800000D01*
X116200000Y-134800000D02*
X117225000Y-133775000D01*
X118700000Y-133300000D02*
X118200000Y-132800000D01*
X118200000Y-132800000D02*
X117225000Y-132800000D01*
X120200000Y-133300000D02*
X118700000Y-133300000D01*
X117230000Y-129110000D02*
X117230000Y-132795000D01*
X117230000Y-132795000D02*
X117225000Y-132800000D01*
%TO.N,Net-(C19-Pad1)*%
X111087500Y-135487500D02*
X112200000Y-136600000D01*
X111087500Y-132800000D02*
X111087500Y-135487500D01*
X115400000Y-133400000D02*
X112200000Y-136600000D01*
X115400000Y-132800000D02*
X115400000Y-133400000D01*
X111087500Y-132800000D02*
X108700000Y-132800000D01*
X108700000Y-132800000D02*
X108200000Y-133300000D01*
%TO.N,Net-(LED1-Pad2)*%
X112912500Y-129502500D02*
X112430000Y-129020000D01*
X112912500Y-132800000D02*
X112912500Y-129502500D01*
%TD*%
%TA.AperFunction,Conductor*%
%TO.N,GND*%
G36*
X118287153Y-65056421D02*
G01*
X118300000Y-65058976D01*
X118312172Y-65056555D01*
X118319754Y-65056555D01*
X118332104Y-65057162D01*
X118433188Y-65067118D01*
X118457408Y-65071935D01*
X118573617Y-65107187D01*
X118596418Y-65116631D01*
X118703517Y-65173876D01*
X118724047Y-65187594D01*
X118817909Y-65264626D01*
X118835374Y-65282091D01*
X118912406Y-65375953D01*
X118926124Y-65396483D01*
X118983369Y-65503582D01*
X118992813Y-65526383D01*
X119028065Y-65642592D01*
X119032882Y-65666812D01*
X119042838Y-65767896D01*
X119043445Y-65780246D01*
X119043445Y-65787828D01*
X119041024Y-65800000D01*
X119043445Y-65812170D01*
X119043579Y-65812844D01*
X119046000Y-65837425D01*
X119046000Y-110150404D01*
X119044849Y-110159220D01*
X119045509Y-110159262D01*
X119044725Y-110171652D01*
X119041541Y-110183642D01*
X119043188Y-110195938D01*
X119045004Y-110209495D01*
X119045512Y-110213874D01*
X119046000Y-110218828D01*
X119046000Y-110225017D01*
X119048537Y-110237771D01*
X119049842Y-110245622D01*
X119054955Y-110283795D01*
X119059119Y-110290969D01*
X119060737Y-110299106D01*
X119067630Y-110309422D01*
X119067631Y-110309424D01*
X119082133Y-110331127D01*
X119086345Y-110337883D01*
X119092872Y-110349130D01*
X119096970Y-110353782D01*
X119099875Y-110357817D01*
X119102380Y-110361430D01*
X119116876Y-110383124D01*
X119127191Y-110390016D01*
X119135970Y-110398795D01*
X119135502Y-110399263D01*
X119142194Y-110405117D01*
X122646578Y-114383066D01*
X122714545Y-114460218D01*
X122744566Y-114524555D01*
X122746000Y-114543508D01*
X122746000Y-143562575D01*
X122743579Y-143587153D01*
X122741024Y-143600000D01*
X122743445Y-143612172D01*
X122743445Y-143619754D01*
X122742838Y-143632104D01*
X122732882Y-143733188D01*
X122728065Y-143757408D01*
X122692813Y-143873617D01*
X122683369Y-143896418D01*
X122626124Y-144003517D01*
X122612406Y-144024047D01*
X122535374Y-144117909D01*
X122517909Y-144135374D01*
X122424047Y-144212406D01*
X122403517Y-144226124D01*
X122296418Y-144283369D01*
X122273617Y-144292813D01*
X122157408Y-144328065D01*
X122133188Y-144332882D01*
X122032104Y-144342838D01*
X122019754Y-144343445D01*
X122012172Y-144343445D01*
X122000000Y-144341024D01*
X121987153Y-144343579D01*
X121962575Y-144346000D01*
X119349212Y-144346000D01*
X119281091Y-144325998D01*
X119234598Y-144272342D01*
X119224494Y-144202068D01*
X119226091Y-144193218D01*
X119230815Y-144171500D01*
X119233762Y-144171500D01*
X119233762Y-141828500D01*
X110766238Y-141828500D01*
X110766238Y-144171500D01*
X110771558Y-144171500D01*
X110775375Y-144184501D01*
X110775375Y-144255498D01*
X110736992Y-144315224D01*
X110672411Y-144344717D01*
X110654479Y-144346000D01*
X106437425Y-144346000D01*
X106412847Y-144343579D01*
X106400000Y-144341024D01*
X106387828Y-144343445D01*
X106380246Y-144343445D01*
X106367896Y-144342838D01*
X106266812Y-144332882D01*
X106242592Y-144328065D01*
X106126383Y-144292813D01*
X106103582Y-144283369D01*
X105996483Y-144226124D01*
X105975953Y-144212406D01*
X105882091Y-144135374D01*
X105864626Y-144117909D01*
X105787594Y-144024047D01*
X105773876Y-144003517D01*
X105716631Y-143896418D01*
X105707187Y-143873617D01*
X105671935Y-143757408D01*
X105667118Y-143733188D01*
X105657162Y-143632104D01*
X105656555Y-143619754D01*
X105656555Y-143612172D01*
X105658976Y-143600000D01*
X105656421Y-143587153D01*
X105654000Y-143562575D01*
X105654000Y-142975963D01*
X107724757Y-142975963D01*
X107741175Y-143171483D01*
X107795258Y-143360091D01*
X107798076Y-143365574D01*
X107882123Y-143529113D01*
X107882126Y-143529117D01*
X107884944Y-143534601D01*
X108006818Y-143688369D01*
X108011511Y-143692363D01*
X108011512Y-143692364D01*
X108073992Y-143745538D01*
X108156238Y-143815535D01*
X108161616Y-143818541D01*
X108161618Y-143818542D01*
X108197932Y-143838837D01*
X108327513Y-143911257D01*
X108514118Y-143971889D01*
X108708946Y-143995121D01*
X108715081Y-143994649D01*
X108715083Y-143994649D01*
X108898434Y-143980541D01*
X108898438Y-143980540D01*
X108904576Y-143980068D01*
X109093556Y-143927303D01*
X109268689Y-143838837D01*
X109298515Y-143815535D01*
X109418453Y-143721829D01*
X109423303Y-143718040D01*
X109453084Y-143683539D01*
X109547485Y-143574173D01*
X109547485Y-143574172D01*
X109551509Y-143569511D01*
X109648425Y-143398909D01*
X109710358Y-143212732D01*
X109734949Y-143018071D01*
X109735341Y-142990000D01*
X109716194Y-142794728D01*
X109714413Y-142788829D01*
X109714412Y-142788824D01*
X109661265Y-142612793D01*
X109659484Y-142606894D01*
X109567370Y-142433653D01*
X109443361Y-142281602D01*
X109292180Y-142156535D01*
X109119585Y-142063213D01*
X109025869Y-142034203D01*
X108938039Y-142007015D01*
X108938036Y-142007014D01*
X108932152Y-142005193D01*
X108926027Y-142004549D01*
X108926026Y-142004549D01*
X108743147Y-141985327D01*
X108743146Y-141985327D01*
X108737019Y-141984683D01*
X108614383Y-141995844D01*
X108547759Y-142001907D01*
X108547758Y-142001907D01*
X108541618Y-142002466D01*
X108535704Y-142004207D01*
X108535702Y-142004207D01*
X108406734Y-142042165D01*
X108353393Y-142057864D01*
X108347928Y-142060721D01*
X108184972Y-142145912D01*
X108184968Y-142145915D01*
X108179512Y-142148767D01*
X108174712Y-142152627D01*
X108174711Y-142152627D01*
X108140326Y-142180273D01*
X108026600Y-142271711D01*
X107900480Y-142422016D01*
X107897516Y-142427408D01*
X107897513Y-142427412D01*
X107818813Y-142570567D01*
X107805956Y-142593954D01*
X107746628Y-142780978D01*
X107724757Y-142975963D01*
X105654000Y-142975963D01*
X105654000Y-132274933D01*
X106945500Y-132274933D01*
X106945501Y-134325066D01*
X106960266Y-134399301D01*
X107016516Y-134483484D01*
X107100699Y-134539734D01*
X107174933Y-134554500D01*
X108199834Y-134554500D01*
X109225066Y-134554499D01*
X109260818Y-134547388D01*
X109287126Y-134542156D01*
X109287128Y-134542155D01*
X109299301Y-134539734D01*
X109309621Y-134532839D01*
X109309622Y-134532838D01*
X109373168Y-134490377D01*
X109383484Y-134483484D01*
X109439734Y-134399301D01*
X109454500Y-134325067D01*
X109454500Y-133480500D01*
X109474502Y-133412379D01*
X109528158Y-133365886D01*
X109580500Y-133354500D01*
X110238019Y-133354500D01*
X110306140Y-133374502D01*
X110352633Y-133428158D01*
X110356001Y-133436271D01*
X110377929Y-133494764D01*
X110383309Y-133501943D01*
X110383311Y-133501946D01*
X110426413Y-133559456D01*
X110464596Y-133610404D01*
X110471776Y-133615785D01*
X110482565Y-133623871D01*
X110525080Y-133680730D01*
X110533000Y-133724697D01*
X110533000Y-134671335D01*
X110512998Y-134739456D01*
X110477005Y-134776098D01*
X110416516Y-134816516D01*
X110360266Y-134900699D01*
X110345500Y-134974933D01*
X110345501Y-138225066D01*
X110360266Y-138299301D01*
X110367161Y-138309620D01*
X110367162Y-138309622D01*
X110390748Y-138344920D01*
X110416516Y-138383484D01*
X110500699Y-138439734D01*
X110574933Y-138454500D01*
X112199737Y-138454500D01*
X113825066Y-138454499D01*
X113860818Y-138447388D01*
X113887126Y-138442156D01*
X113887128Y-138442155D01*
X113899301Y-138439734D01*
X113909621Y-138432839D01*
X113909622Y-138432838D01*
X113973168Y-138390377D01*
X113983484Y-138383484D01*
X114039734Y-138299301D01*
X114054500Y-138225067D01*
X114054500Y-137556714D01*
X114074502Y-137488593D01*
X114128158Y-137442100D01*
X114198432Y-137431996D01*
X114263012Y-137461490D01*
X114293065Y-137500100D01*
X114379389Y-137671736D01*
X114383745Y-137679102D01*
X114541687Y-137908907D01*
X114546995Y-137915605D01*
X114734670Y-138121858D01*
X114740841Y-138127775D01*
X114954761Y-138306641D01*
X114961693Y-138311676D01*
X115197895Y-138459846D01*
X115205446Y-138463895D01*
X115459581Y-138578640D01*
X115467612Y-138581627D01*
X115734967Y-138660822D01*
X115743318Y-138662689D01*
X115928090Y-138690962D01*
X115941877Y-138689107D01*
X115946000Y-138675298D01*
X115946000Y-138674560D01*
X116454000Y-138674560D01*
X116458105Y-138688542D01*
X116471271Y-138690585D01*
X116591658Y-138676016D01*
X116600075Y-138674411D01*
X116869786Y-138603654D01*
X116877902Y-138600923D01*
X117135521Y-138494213D01*
X117143183Y-138490410D01*
X117383943Y-138349721D01*
X117391008Y-138344920D01*
X117610451Y-138172854D01*
X117616807Y-138167131D01*
X117810861Y-137966882D01*
X117816381Y-137960351D01*
X117981464Y-137735617D01*
X117986048Y-137728393D01*
X118119099Y-137483346D01*
X118122667Y-137475553D01*
X118221227Y-137214721D01*
X118223704Y-137206515D01*
X118285953Y-136934720D01*
X118287294Y-136926257D01*
X118292132Y-136872044D01*
X118289161Y-136857125D01*
X118277354Y-136854000D01*
X116472115Y-136854000D01*
X116456876Y-136858475D01*
X116455671Y-136859865D01*
X116454000Y-136867548D01*
X116454000Y-138674560D01*
X115946000Y-138674560D01*
X115946000Y-136327885D01*
X116454000Y-136327885D01*
X116458475Y-136343124D01*
X116459865Y-136344329D01*
X116467548Y-136346000D01*
X118277495Y-136346000D01*
X118292486Y-136341598D01*
X118294541Y-136330315D01*
X118293669Y-136317519D01*
X118292508Y-136309047D01*
X118235962Y-136035998D01*
X118233658Y-136027744D01*
X118140579Y-135764897D01*
X118137183Y-135757049D01*
X118009286Y-135509254D01*
X118004858Y-135501942D01*
X117844515Y-135273798D01*
X117839133Y-135267152D01*
X117649318Y-135062886D01*
X117643078Y-135057027D01*
X117427296Y-134880411D01*
X117420324Y-134875456D01*
X117182560Y-134729754D01*
X117174990Y-134725796D01*
X116919657Y-134613714D01*
X116911597Y-134610812D01*
X116643432Y-134534424D01*
X116635054Y-134532642D01*
X116471935Y-134509427D01*
X116457949Y-134511458D01*
X116454000Y-134524943D01*
X116454000Y-136327885D01*
X115946000Y-136327885D01*
X115946000Y-134525332D01*
X115941956Y-134511561D01*
X115928417Y-134509532D01*
X115786621Y-134528200D01*
X115778223Y-134529893D01*
X115509274Y-134603469D01*
X115501179Y-134606288D01*
X115244694Y-134715688D01*
X115237072Y-134719572D01*
X115183650Y-134751544D01*
X115114927Y-134769364D01*
X115047478Y-134747200D01*
X115002720Y-134692089D01*
X114994862Y-134621529D01*
X115029849Y-134554333D01*
X115781426Y-133802756D01*
X115785234Y-133799103D01*
X115824946Y-133762586D01*
X115824947Y-133762584D01*
X115831266Y-133756774D01*
X115835790Y-133749478D01*
X115841268Y-133742856D01*
X115843076Y-133744352D01*
X115886735Y-133705263D01*
X115896694Y-133701033D01*
X115907264Y-133697071D01*
X115914443Y-133691691D01*
X115914446Y-133691689D01*
X116015724Y-133615785D01*
X116022904Y-133610404D01*
X116061089Y-133559454D01*
X116117946Y-133516941D01*
X116188764Y-133511915D01*
X116251058Y-133545975D01*
X116270787Y-133574115D01*
X116271406Y-133573732D01*
X116360563Y-133717807D01*
X116369599Y-133729208D01*
X116484329Y-133843739D01*
X116495740Y-133852751D01*
X116633743Y-133937816D01*
X116646924Y-133943963D01*
X116801210Y-133995138D01*
X116814586Y-133998005D01*
X116908938Y-134007672D01*
X116915354Y-134008000D01*
X116952885Y-134008000D01*
X116968124Y-134003525D01*
X116969329Y-134002135D01*
X116971000Y-133994452D01*
X116971000Y-133989884D01*
X117479000Y-133989884D01*
X117483475Y-134005123D01*
X117484865Y-134006328D01*
X117492548Y-134007999D01*
X117534595Y-134007999D01*
X117541114Y-134007662D01*
X117636706Y-133997743D01*
X117650100Y-133994851D01*
X117804284Y-133943412D01*
X117817462Y-133937239D01*
X117955307Y-133851937D01*
X117966708Y-133842901D01*
X118081239Y-133728171D01*
X118090251Y-133716760D01*
X118175316Y-133578757D01*
X118180598Y-133567431D01*
X118713353Y-133567431D01*
X118760218Y-133762634D01*
X118763264Y-133772008D01*
X118850313Y-133982163D01*
X118854795Y-133990958D01*
X118973643Y-134184899D01*
X118979443Y-134192883D01*
X119127178Y-134365858D01*
X119134142Y-134372822D01*
X119307117Y-134520557D01*
X119315101Y-134526357D01*
X119509042Y-134645205D01*
X119517837Y-134649687D01*
X119727992Y-134736736D01*
X119737366Y-134739782D01*
X119928385Y-134785642D01*
X119942469Y-134784937D01*
X119946000Y-134776056D01*
X119946000Y-134771756D01*
X120454000Y-134771756D01*
X120457973Y-134785287D01*
X120467431Y-134786647D01*
X120662634Y-134739782D01*
X120672008Y-134736736D01*
X120882163Y-134649687D01*
X120890958Y-134645205D01*
X121084899Y-134526357D01*
X121092883Y-134520557D01*
X121265858Y-134372822D01*
X121272822Y-134365858D01*
X121420557Y-134192883D01*
X121426357Y-134184899D01*
X121545205Y-133990958D01*
X121549687Y-133982163D01*
X121636736Y-133772008D01*
X121639782Y-133762634D01*
X121685642Y-133571615D01*
X121684937Y-133557531D01*
X121676056Y-133554000D01*
X120472115Y-133554000D01*
X120456876Y-133558475D01*
X120455671Y-133559865D01*
X120454000Y-133567548D01*
X120454000Y-134771756D01*
X119946000Y-134771756D01*
X119946000Y-133572115D01*
X119941525Y-133556876D01*
X119940135Y-133555671D01*
X119932452Y-133554000D01*
X118728244Y-133554000D01*
X118714713Y-133557973D01*
X118713353Y-133567431D01*
X118180598Y-133567431D01*
X118181463Y-133565576D01*
X118232638Y-133411290D01*
X118235505Y-133397914D01*
X118245172Y-133303562D01*
X118245500Y-133297146D01*
X118245500Y-133072115D01*
X118241025Y-133056876D01*
X118239635Y-133055671D01*
X118231952Y-133054000D01*
X117497115Y-133054000D01*
X117481876Y-133058475D01*
X117480671Y-133059865D01*
X117479000Y-133067548D01*
X117479000Y-133989884D01*
X116971000Y-133989884D01*
X116971000Y-133028385D01*
X118714358Y-133028385D01*
X118715063Y-133042469D01*
X118723944Y-133046000D01*
X119927885Y-133046000D01*
X119943124Y-133041525D01*
X119944329Y-133040135D01*
X119946000Y-133032452D01*
X119946000Y-133027885D01*
X120454000Y-133027885D01*
X120458475Y-133043124D01*
X120459865Y-133044329D01*
X120467548Y-133046000D01*
X121671756Y-133046000D01*
X121685287Y-133042027D01*
X121686647Y-133032569D01*
X121639782Y-132837366D01*
X121636736Y-132827992D01*
X121549687Y-132617837D01*
X121545205Y-132609042D01*
X121426357Y-132415101D01*
X121420557Y-132407117D01*
X121272822Y-132234142D01*
X121265858Y-132227178D01*
X121092883Y-132079443D01*
X121084899Y-132073643D01*
X120890958Y-131954795D01*
X120882163Y-131950313D01*
X120672008Y-131863264D01*
X120662634Y-131860218D01*
X120471615Y-131814358D01*
X120457531Y-131815063D01*
X120454000Y-131823944D01*
X120454000Y-133027885D01*
X119946000Y-133027885D01*
X119946000Y-131828244D01*
X119942027Y-131814713D01*
X119932569Y-131813353D01*
X119737366Y-131860218D01*
X119727992Y-131863264D01*
X119517837Y-131950313D01*
X119509042Y-131954795D01*
X119315101Y-132073643D01*
X119307117Y-132079443D01*
X119134142Y-132227178D01*
X119127178Y-132234142D01*
X118979443Y-132407117D01*
X118973643Y-132415101D01*
X118854795Y-132609042D01*
X118850313Y-132617837D01*
X118763264Y-132827992D01*
X118760218Y-132837366D01*
X118714358Y-133028385D01*
X116971000Y-133028385D01*
X116971000Y-132527885D01*
X117479000Y-132527885D01*
X117483475Y-132543124D01*
X117484865Y-132544329D01*
X117492548Y-132546000D01*
X118227384Y-132546000D01*
X118242623Y-132541525D01*
X118243828Y-132540135D01*
X118245499Y-132532452D01*
X118245499Y-132302905D01*
X118245162Y-132296386D01*
X118235243Y-132200794D01*
X118232351Y-132187400D01*
X118180912Y-132033216D01*
X118174739Y-132020038D01*
X118089437Y-131882193D01*
X118080401Y-131870792D01*
X117965671Y-131756261D01*
X117954260Y-131747249D01*
X117816257Y-131662184D01*
X117803076Y-131656037D01*
X117648790Y-131604862D01*
X117635414Y-131601995D01*
X117541062Y-131592328D01*
X117534645Y-131592000D01*
X117497115Y-131592000D01*
X117481876Y-131596475D01*
X117480671Y-131597865D01*
X117479000Y-131605548D01*
X117479000Y-132527885D01*
X116971000Y-132527885D01*
X116971000Y-131610116D01*
X116966525Y-131594877D01*
X116965135Y-131593672D01*
X116957452Y-131592001D01*
X116915405Y-131592001D01*
X116908886Y-131592338D01*
X116813294Y-131602257D01*
X116799900Y-131605149D01*
X116645716Y-131656588D01*
X116632538Y-131662761D01*
X116494693Y-131748063D01*
X116483292Y-131757099D01*
X116368761Y-131871829D01*
X116359749Y-131883240D01*
X116270842Y-132027475D01*
X116268964Y-132026317D01*
X116229168Y-132071505D01*
X116160889Y-132090959D01*
X116092931Y-132070410D01*
X116061078Y-132040532D01*
X116022904Y-131989596D01*
X115929068Y-131919270D01*
X115914446Y-131908311D01*
X115914443Y-131908309D01*
X115907264Y-131902929D01*
X115817546Y-131869296D01*
X115779343Y-131854974D01*
X115779341Y-131854974D01*
X115771948Y-131852202D01*
X115764098Y-131851349D01*
X115764097Y-131851349D01*
X115713653Y-131845869D01*
X115713652Y-131845869D01*
X115710256Y-131845500D01*
X115089744Y-131845500D01*
X115086348Y-131845869D01*
X115086347Y-131845869D01*
X115035903Y-131851349D01*
X115035902Y-131851349D01*
X115028052Y-131852202D01*
X115020659Y-131854974D01*
X115020657Y-131854974D01*
X114982454Y-131869296D01*
X114892736Y-131902929D01*
X114885557Y-131908309D01*
X114885554Y-131908311D01*
X114870932Y-131919270D01*
X114777096Y-131989596D01*
X114771715Y-131996776D01*
X114695811Y-132098054D01*
X114695809Y-132098057D01*
X114690429Y-132105236D01*
X114668501Y-132163729D01*
X114644716Y-132227178D01*
X114639702Y-132240552D01*
X114633000Y-132302244D01*
X114633000Y-133297756D01*
X114634815Y-133314467D01*
X114622290Y-133384347D01*
X114598648Y-133417171D01*
X113307224Y-134708595D01*
X113244912Y-134742621D01*
X113218129Y-134745500D01*
X112793401Y-134745500D01*
X111768000Y-134745501D01*
X111699879Y-134725499D01*
X111653386Y-134671843D01*
X111642000Y-134619501D01*
X111642000Y-133724697D01*
X111662002Y-133656576D01*
X111692435Y-133623871D01*
X111703224Y-133615785D01*
X111710404Y-133610404D01*
X111748587Y-133559456D01*
X111791689Y-133501946D01*
X111791691Y-133501943D01*
X111797071Y-133494764D01*
X111847798Y-133359448D01*
X111854500Y-133297756D01*
X111854500Y-132302244D01*
X111847798Y-132240552D01*
X111842785Y-132227178D01*
X111818999Y-132163729D01*
X111797071Y-132105236D01*
X111791691Y-132098057D01*
X111791689Y-132098054D01*
X111715785Y-131996776D01*
X111710404Y-131989596D01*
X111616568Y-131919270D01*
X111601946Y-131908311D01*
X111601943Y-131908309D01*
X111594764Y-131902929D01*
X111505046Y-131869296D01*
X111466843Y-131854974D01*
X111466841Y-131854974D01*
X111459448Y-131852202D01*
X111451598Y-131851349D01*
X111451597Y-131851349D01*
X111401153Y-131845869D01*
X111401152Y-131845869D01*
X111397756Y-131845500D01*
X110777244Y-131845500D01*
X110773848Y-131845869D01*
X110773847Y-131845869D01*
X110723403Y-131851349D01*
X110723402Y-131851349D01*
X110715552Y-131852202D01*
X110708159Y-131854974D01*
X110708157Y-131854974D01*
X110669954Y-131869296D01*
X110580236Y-131902929D01*
X110573057Y-131908309D01*
X110573054Y-131908311D01*
X110558432Y-131919270D01*
X110464596Y-131989596D01*
X110459215Y-131996776D01*
X110383311Y-132098054D01*
X110383309Y-132098057D01*
X110377929Y-132105236D01*
X110369833Y-132126832D01*
X110356001Y-132163729D01*
X110313360Y-132220494D01*
X110246798Y-132245194D01*
X110238019Y-132245500D01*
X109537017Y-132245500D01*
X109468896Y-132225498D01*
X109432252Y-132189502D01*
X109430848Y-132187400D01*
X109383484Y-132116516D01*
X109299301Y-132060266D01*
X109225067Y-132045500D01*
X108200166Y-132045500D01*
X107174934Y-132045501D01*
X107139182Y-132052612D01*
X107112874Y-132057844D01*
X107112872Y-132057845D01*
X107100699Y-132060266D01*
X107090379Y-132067161D01*
X107090378Y-132067162D01*
X107080679Y-132073643D01*
X107016516Y-132116516D01*
X106960266Y-132200699D01*
X106945500Y-132274933D01*
X105654000Y-132274933D01*
X105654000Y-129009399D01*
X111670800Y-129009399D01*
X111687318Y-129177862D01*
X111740748Y-129338479D01*
X111828435Y-129483267D01*
X111946021Y-129605031D01*
X112087660Y-129697717D01*
X112246315Y-129756720D01*
X112253299Y-129757652D01*
X112260130Y-129759355D01*
X112259506Y-129761857D01*
X112313524Y-129785854D01*
X112352523Y-129845181D01*
X112358000Y-129881926D01*
X112358000Y-131875303D01*
X112337998Y-131943424D01*
X112307565Y-131976129D01*
X112289596Y-131989596D01*
X112284215Y-131996776D01*
X112208311Y-132098054D01*
X112208309Y-132098057D01*
X112202929Y-132105236D01*
X112181001Y-132163729D01*
X112157216Y-132227178D01*
X112152202Y-132240552D01*
X112145500Y-132302244D01*
X112145500Y-133297756D01*
X112152202Y-133359448D01*
X112202929Y-133494764D01*
X112208309Y-133501943D01*
X112208311Y-133501946D01*
X112251413Y-133559456D01*
X112289596Y-133610404D01*
X112296776Y-133615785D01*
X112398054Y-133691689D01*
X112398057Y-133691691D01*
X112405236Y-133697071D01*
X112488196Y-133728171D01*
X112533157Y-133745026D01*
X112533159Y-133745026D01*
X112540552Y-133747798D01*
X112548402Y-133748651D01*
X112548403Y-133748651D01*
X112598847Y-133754131D01*
X112602244Y-133754500D01*
X113222756Y-133754500D01*
X113226153Y-133754131D01*
X113276597Y-133748651D01*
X113276598Y-133748651D01*
X113284448Y-133747798D01*
X113291841Y-133745026D01*
X113291843Y-133745026D01*
X113336804Y-133728171D01*
X113419764Y-133697071D01*
X113426943Y-133691691D01*
X113426946Y-133691689D01*
X113528224Y-133615785D01*
X113535404Y-133610404D01*
X113573587Y-133559456D01*
X113616689Y-133501946D01*
X113616691Y-133501943D01*
X113622071Y-133494764D01*
X113672798Y-133359448D01*
X113679500Y-133297756D01*
X113679500Y-132302244D01*
X113672798Y-132240552D01*
X113667785Y-132227178D01*
X113643999Y-132163729D01*
X113622071Y-132105236D01*
X113616691Y-132098057D01*
X113616689Y-132098054D01*
X113540785Y-131996776D01*
X113535404Y-131989596D01*
X113517435Y-131976129D01*
X113474920Y-131919270D01*
X113467000Y-131875303D01*
X113467000Y-129517575D01*
X113467110Y-129512299D01*
X113468114Y-129488333D01*
X113469728Y-129449826D01*
X113459712Y-129407122D01*
X113457549Y-129395449D01*
X113452761Y-129360495D01*
X113451595Y-129351982D01*
X113445547Y-129338006D01*
X113438513Y-129316737D01*
X113436998Y-129310278D01*
X113435037Y-129301917D01*
X113413897Y-129263463D01*
X113408682Y-129252817D01*
X113394670Y-129220437D01*
X113394668Y-129220433D01*
X113391258Y-129212554D01*
X113381679Y-129200725D01*
X113369188Y-129182137D01*
X113361848Y-129168785D01*
X113354790Y-129160609D01*
X113330047Y-129135866D01*
X113321221Y-129126065D01*
X113301056Y-129101162D01*
X113301053Y-129101159D01*
X113295650Y-129094487D01*
X113280136Y-129083462D01*
X113264036Y-129069855D01*
X113217329Y-129023148D01*
X113183303Y-128960836D01*
X113181209Y-128948098D01*
X113171191Y-128858787D01*
X113170406Y-128851784D01*
X113164506Y-128834840D01*
X113152516Y-128800412D01*
X113114738Y-128691929D01*
X113025038Y-128548379D01*
X112905764Y-128428269D01*
X112762844Y-128337569D01*
X112735442Y-128327812D01*
X112610016Y-128283149D01*
X112610011Y-128283148D01*
X112603381Y-128280787D01*
X112596395Y-128279954D01*
X112596391Y-128279953D01*
X112477287Y-128265751D01*
X112435301Y-128260745D01*
X112428298Y-128261481D01*
X112428297Y-128261481D01*
X112273965Y-128277701D01*
X112273961Y-128277702D01*
X112266957Y-128278438D01*
X112260286Y-128280709D01*
X112113387Y-128330717D01*
X112113384Y-128330718D01*
X112106717Y-128332988D01*
X112100719Y-128336678D01*
X112100717Y-128336679D01*
X111968543Y-128417993D01*
X111968541Y-128417995D01*
X111962544Y-128421684D01*
X111841605Y-128540117D01*
X111749909Y-128682400D01*
X111747498Y-128689025D01*
X111694425Y-128834840D01*
X111694424Y-128834845D01*
X111692015Y-128841463D01*
X111670800Y-129009399D01*
X105654000Y-129009399D01*
X105654000Y-114543507D01*
X105674002Y-114475386D01*
X105685455Y-114460217D01*
X105753422Y-114383066D01*
X109257806Y-110405117D01*
X109264498Y-110399263D01*
X109264030Y-110398795D01*
X109272809Y-110390016D01*
X109283124Y-110383124D01*
X109297620Y-110361430D01*
X109300125Y-110357817D01*
X109303030Y-110353782D01*
X109307128Y-110349130D01*
X109313655Y-110337883D01*
X109317867Y-110331127D01*
X109332369Y-110309424D01*
X109332370Y-110309422D01*
X109339263Y-110299106D01*
X109340881Y-110290969D01*
X109345045Y-110283795D01*
X109350158Y-110245622D01*
X109351463Y-110237771D01*
X109354000Y-110225017D01*
X109354000Y-110218828D01*
X109354488Y-110213874D01*
X109354996Y-110209495D01*
X109356812Y-110195938D01*
X109358459Y-110183642D01*
X109355275Y-110171652D01*
X109354491Y-110159262D01*
X109355151Y-110159220D01*
X109354000Y-110150404D01*
X109354000Y-68645963D01*
X112634757Y-68645963D01*
X112651175Y-68841483D01*
X112705258Y-69030091D01*
X112708076Y-69035574D01*
X112792123Y-69199113D01*
X112792126Y-69199117D01*
X112794944Y-69204601D01*
X112916818Y-69358369D01*
X113066238Y-69485535D01*
X113071616Y-69488541D01*
X113071618Y-69488542D01*
X113107932Y-69508837D01*
X113237513Y-69581257D01*
X113424118Y-69641889D01*
X113618946Y-69665121D01*
X113625081Y-69664649D01*
X113625083Y-69664649D01*
X113808434Y-69650541D01*
X113808438Y-69650540D01*
X113814576Y-69650068D01*
X114003556Y-69597303D01*
X114178689Y-69508837D01*
X114208515Y-69485535D01*
X114328453Y-69391829D01*
X114333303Y-69388040D01*
X114363084Y-69353539D01*
X114457485Y-69244173D01*
X114457485Y-69244172D01*
X114461509Y-69239511D01*
X114558425Y-69068909D01*
X114620358Y-68882732D01*
X114644949Y-68688071D01*
X114645341Y-68660000D01*
X114626194Y-68464728D01*
X114624413Y-68458829D01*
X114624412Y-68458824D01*
X114571265Y-68282793D01*
X114569484Y-68276894D01*
X114477370Y-68103653D01*
X114353361Y-67951602D01*
X114202180Y-67826535D01*
X114029585Y-67733213D01*
X113935868Y-67704203D01*
X113848039Y-67677015D01*
X113848036Y-67677014D01*
X113842152Y-67675193D01*
X113836027Y-67674549D01*
X113836026Y-67674549D01*
X113653147Y-67655327D01*
X113653146Y-67655327D01*
X113647019Y-67654683D01*
X113524383Y-67665844D01*
X113457759Y-67671907D01*
X113457758Y-67671907D01*
X113451618Y-67672466D01*
X113445704Y-67674207D01*
X113445702Y-67674207D01*
X113316734Y-67712165D01*
X113263393Y-67727864D01*
X113257928Y-67730721D01*
X113094972Y-67815912D01*
X113094968Y-67815915D01*
X113089512Y-67818767D01*
X113084712Y-67822627D01*
X113084711Y-67822627D01*
X113050326Y-67850273D01*
X112936600Y-67941711D01*
X112810480Y-68092016D01*
X112807516Y-68097408D01*
X112807513Y-68097412D01*
X112728813Y-68240567D01*
X112715956Y-68263954D01*
X112656628Y-68450978D01*
X112634757Y-68645963D01*
X109354000Y-68645963D01*
X109354000Y-65837425D01*
X109356421Y-65812844D01*
X109356555Y-65812170D01*
X109358976Y-65800000D01*
X109356555Y-65787828D01*
X109356555Y-65780246D01*
X109357162Y-65767896D01*
X109367118Y-65666812D01*
X109371935Y-65642592D01*
X109407187Y-65526383D01*
X109416631Y-65503582D01*
X109473876Y-65396483D01*
X109487594Y-65375953D01*
X109564626Y-65282091D01*
X109582091Y-65264626D01*
X109675953Y-65187594D01*
X109696483Y-65173876D01*
X109803582Y-65116631D01*
X109826383Y-65107187D01*
X109942592Y-65071935D01*
X109966812Y-65067118D01*
X110067896Y-65057162D01*
X110080246Y-65056555D01*
X110087828Y-65056555D01*
X110100000Y-65058976D01*
X110112847Y-65056421D01*
X110137425Y-65054000D01*
X118262575Y-65054000D01*
X118287153Y-65056421D01*
G37*
%TD.AperFunction*%
%TD*%
M02*
