%TF.GenerationSoftware,KiCad,Pcbnew,6.0.2-378541a8eb~116~ubuntu20.04.1*%
%TF.CreationDate,2022-02-19T19:42:58-08:00*%
%TF.ProjectId,menorah555_shamash,6d656e6f-7261-4683-9535-355f7368616d,B*%
%TF.SameCoordinates,Original*%
%TF.FileFunction,Copper,L1,Top*%
%TF.FilePolarity,Positive*%
%FSLAX46Y46*%
G04 Gerber Fmt 4.6, Leading zero omitted, Abs format (unit mm)*
G04 Created by KiCad (PCBNEW 6.0.2-378541a8eb~116~ubuntu20.04.1) date 2022-02-19 19:42:58*
%MOMM*%
%LPD*%
G01*
G04 APERTURE LIST*
G04 Aperture macros list*
%AMRoundRect*
0 Rectangle with rounded corners*
0 $1 Rounding radius*
0 $2 $3 $4 $5 $6 $7 $8 $9 X,Y pos of 4 corners*
0 Add a 4 corners polygon primitive as box body*
4,1,4,$2,$3,$4,$5,$6,$7,$8,$9,$2,$3,0*
0 Add four circle primitives for the rounded corners*
1,1,$1+$1,$2,$3*
1,1,$1+$1,$4,$5*
1,1,$1+$1,$6,$7*
1,1,$1+$1,$8,$9*
0 Add four rect primitives between the rounded corners*
20,1,$1+$1,$2,$3,$4,$5,0*
20,1,$1+$1,$4,$5,$6,$7,0*
20,1,$1+$1,$6,$7,$8,$9,0*
20,1,$1+$1,$8,$9,$2,$3,0*%
G04 Aperture macros list end*
%TA.AperFunction,Profile*%
%ADD10C,0.050000*%
%TD*%
%TA.AperFunction,SMDPad,CuDef*%
%ADD11RoundRect,0.450000X0.450000X1.050000X-0.450000X1.050000X-0.450000X-1.050000X0.450000X-1.050000X0*%
%TD*%
%TA.AperFunction,ComponentPad*%
%ADD12R,2.000000X2.000000*%
%TD*%
%TA.AperFunction,ComponentPad*%
%ADD13O,2.000000X2.000000*%
%TD*%
%TA.AperFunction,ComponentPad*%
%ADD14R,3.200000X3.200000*%
%TD*%
%TA.AperFunction,ComponentPad*%
%ADD15O,3.200000X3.200000*%
%TD*%
%TA.AperFunction,ViaPad*%
%ADD16C,1.000000*%
%TD*%
%TA.AperFunction,Conductor*%
%ADD17C,0.600000*%
%TD*%
G04 APERTURE END LIST*
D10*
X110100000Y-64800000D02*
X118300000Y-64800000D01*
X119300000Y-110200000D02*
X123000000Y-114400000D01*
X109100000Y-110200000D02*
X105400000Y-114400000D01*
X109100000Y-65800000D02*
X109100000Y-110200000D01*
X110100000Y-64800000D02*
G75*
G03*
X109100000Y-65800000I-1J-999999D01*
G01*
X105400000Y-114400000D02*
X105400000Y-143600000D01*
X123000000Y-114400000D02*
X123000000Y-143600000D01*
X119300000Y-65800000D02*
X119300000Y-110200000D01*
X119300000Y-65800000D02*
G75*
G03*
X118300000Y-64800000I-999999J1D01*
G01*
X122000000Y-144600000D02*
G75*
G03*
X123000000Y-143600000I1J999999D01*
G01*
X106400000Y-144600000D02*
X122000000Y-144600000D01*
X105400000Y-143600000D02*
G75*
G03*
X106400000Y-144600000I999999J-1D01*
G01*
D11*
%TO.P,LED1,1,K*%
%TO.N,GND*%
X114970000Y-67800000D03*
%TO.P,LED1,2,A*%
%TO.N,Net-(LED1-Pad2)*%
X112430000Y-67800000D03*
%TD*%
D12*
%TO.P,C19,1*%
%TO.N,Net-(C19-Pad1)*%
X108200000Y-133300000D03*
D13*
%TO.P,C19,2*%
%TO.N,GND*%
X120200000Y-133300000D03*
%TD*%
D14*
%TO.P,J3,1,In*%
%TO.N,Net-(C19-Pad1)*%
X112200000Y-136600000D03*
D15*
%TO.P,J3,2,Ext*%
%TO.N,GND*%
X116200000Y-136600000D03*
%TD*%
D16*
%TO.N,GND*%
X117900000Y-69200000D03*
X110300000Y-69200000D03*
X117230000Y-129110000D03*
%TO.N,Net-(LED1-Pad2)*%
X112430000Y-129020000D03*
%TD*%
D17*
%TO.N,GND*%
X117160000Y-129110000D02*
X117230000Y-129110000D01*
X114380000Y-126330000D02*
X117160000Y-129110000D01*
X114970000Y-67800000D02*
X114380000Y-68390000D01*
X114380000Y-68390000D02*
X114380000Y-126330000D01*
%TO.N,Net-(LED1-Pad2)*%
X112430000Y-67800000D02*
X113030000Y-68400000D01*
X113030000Y-68400000D02*
X113030000Y-128420000D01*
X113030000Y-128420000D02*
X112430000Y-129020000D01*
%TD*%
%TA.AperFunction,Conductor*%
%TO.N,GND*%
G36*
X118287153Y-65056421D02*
G01*
X118300000Y-65058976D01*
X118312172Y-65056555D01*
X118319754Y-65056555D01*
X118332104Y-65057162D01*
X118433188Y-65067118D01*
X118457408Y-65071935D01*
X118573617Y-65107187D01*
X118596418Y-65116631D01*
X118703517Y-65173876D01*
X118724047Y-65187594D01*
X118817909Y-65264626D01*
X118835374Y-65282091D01*
X118912406Y-65375953D01*
X118926124Y-65396483D01*
X118983369Y-65503582D01*
X118992813Y-65526383D01*
X119028065Y-65642592D01*
X119032882Y-65666812D01*
X119042838Y-65767896D01*
X119043445Y-65780246D01*
X119043445Y-65787828D01*
X119041024Y-65800000D01*
X119043445Y-65812170D01*
X119043579Y-65812844D01*
X119046000Y-65837425D01*
X119046000Y-110150404D01*
X119044849Y-110159220D01*
X119045509Y-110159262D01*
X119044725Y-110171652D01*
X119041541Y-110183642D01*
X119043188Y-110195938D01*
X119045004Y-110209495D01*
X119045512Y-110213874D01*
X119046000Y-110218828D01*
X119046000Y-110225017D01*
X119048537Y-110237771D01*
X119049842Y-110245622D01*
X119054955Y-110283795D01*
X119059119Y-110290969D01*
X119060737Y-110299106D01*
X119067630Y-110309422D01*
X119067631Y-110309424D01*
X119082133Y-110331127D01*
X119086345Y-110337883D01*
X119092872Y-110349130D01*
X119096970Y-110353782D01*
X119099875Y-110357817D01*
X119102380Y-110361430D01*
X119116876Y-110383124D01*
X119127191Y-110390016D01*
X119135970Y-110398795D01*
X119135502Y-110399263D01*
X119142194Y-110405117D01*
X122646578Y-114383066D01*
X122714545Y-114460218D01*
X122744566Y-114524555D01*
X122746000Y-114543508D01*
X122746000Y-143562575D01*
X122743579Y-143587153D01*
X122741024Y-143600000D01*
X122743445Y-143612172D01*
X122743445Y-143619754D01*
X122742838Y-143632104D01*
X122732882Y-143733188D01*
X122728065Y-143757408D01*
X122692813Y-143873617D01*
X122683369Y-143896418D01*
X122626124Y-144003517D01*
X122612406Y-144024047D01*
X122535374Y-144117909D01*
X122517909Y-144135374D01*
X122424047Y-144212406D01*
X122403517Y-144226124D01*
X122296418Y-144283369D01*
X122273617Y-144292813D01*
X122157408Y-144328065D01*
X122133188Y-144332882D01*
X122032104Y-144342838D01*
X122019754Y-144343445D01*
X122012172Y-144343445D01*
X122000000Y-144341024D01*
X121987153Y-144343579D01*
X121962575Y-144346000D01*
X106437425Y-144346000D01*
X106412847Y-144343579D01*
X106400000Y-144341024D01*
X106387828Y-144343445D01*
X106380246Y-144343445D01*
X106367896Y-144342838D01*
X106266812Y-144332882D01*
X106242592Y-144328065D01*
X106126383Y-144292813D01*
X106103582Y-144283369D01*
X105996483Y-144226124D01*
X105975953Y-144212406D01*
X105882091Y-144135374D01*
X105864626Y-144117909D01*
X105787594Y-144024047D01*
X105773876Y-144003517D01*
X105716631Y-143896418D01*
X105707187Y-143873617D01*
X105671935Y-143757408D01*
X105667118Y-143733188D01*
X105657162Y-143632104D01*
X105656555Y-143619754D01*
X105656555Y-143612172D01*
X105658976Y-143600000D01*
X105656421Y-143587153D01*
X105654000Y-143562575D01*
X105654000Y-134974933D01*
X110345500Y-134974933D01*
X110345501Y-138225066D01*
X110360266Y-138299301D01*
X110367161Y-138309620D01*
X110367162Y-138309622D01*
X110390748Y-138344920D01*
X110416516Y-138383484D01*
X110500699Y-138439734D01*
X110574933Y-138454500D01*
X112199737Y-138454500D01*
X113825066Y-138454499D01*
X113860818Y-138447388D01*
X113887126Y-138442156D01*
X113887128Y-138442155D01*
X113899301Y-138439734D01*
X113909621Y-138432839D01*
X113909622Y-138432838D01*
X113973168Y-138390377D01*
X113983484Y-138383484D01*
X114039734Y-138299301D01*
X114054500Y-138225067D01*
X114054500Y-137556714D01*
X114074502Y-137488593D01*
X114128158Y-137442100D01*
X114198432Y-137431996D01*
X114263012Y-137461490D01*
X114293065Y-137500100D01*
X114379389Y-137671736D01*
X114383745Y-137679102D01*
X114541687Y-137908907D01*
X114546995Y-137915605D01*
X114734670Y-138121858D01*
X114740841Y-138127775D01*
X114954761Y-138306641D01*
X114961693Y-138311676D01*
X115197895Y-138459846D01*
X115205446Y-138463895D01*
X115459581Y-138578640D01*
X115467612Y-138581627D01*
X115734967Y-138660822D01*
X115743318Y-138662689D01*
X115928090Y-138690962D01*
X115941877Y-138689107D01*
X115946000Y-138675298D01*
X115946000Y-138674560D01*
X116454000Y-138674560D01*
X116458105Y-138688542D01*
X116471271Y-138690585D01*
X116591658Y-138676016D01*
X116600075Y-138674411D01*
X116869786Y-138603654D01*
X116877902Y-138600923D01*
X117135521Y-138494213D01*
X117143183Y-138490410D01*
X117383943Y-138349721D01*
X117391008Y-138344920D01*
X117610451Y-138172854D01*
X117616807Y-138167131D01*
X117810861Y-137966882D01*
X117816381Y-137960351D01*
X117981464Y-137735617D01*
X117986048Y-137728393D01*
X118119099Y-137483346D01*
X118122667Y-137475553D01*
X118221227Y-137214721D01*
X118223704Y-137206515D01*
X118285953Y-136934720D01*
X118287294Y-136926257D01*
X118292132Y-136872044D01*
X118289161Y-136857125D01*
X118277354Y-136854000D01*
X116472115Y-136854000D01*
X116456876Y-136858475D01*
X116455671Y-136859865D01*
X116454000Y-136867548D01*
X116454000Y-138674560D01*
X115946000Y-138674560D01*
X115946000Y-136327885D01*
X116454000Y-136327885D01*
X116458475Y-136343124D01*
X116459865Y-136344329D01*
X116467548Y-136346000D01*
X118277495Y-136346000D01*
X118292486Y-136341598D01*
X118294541Y-136330315D01*
X118293669Y-136317519D01*
X118292508Y-136309047D01*
X118235962Y-136035998D01*
X118233658Y-136027744D01*
X118140579Y-135764897D01*
X118137183Y-135757049D01*
X118009286Y-135509254D01*
X118004858Y-135501942D01*
X117844515Y-135273798D01*
X117839133Y-135267152D01*
X117649318Y-135062886D01*
X117643078Y-135057027D01*
X117427296Y-134880411D01*
X117420324Y-134875456D01*
X117182560Y-134729754D01*
X117174990Y-134725796D01*
X116919657Y-134613714D01*
X116911597Y-134610812D01*
X116643432Y-134534424D01*
X116635054Y-134532642D01*
X116471935Y-134509427D01*
X116457949Y-134511458D01*
X116454000Y-134524943D01*
X116454000Y-136327885D01*
X115946000Y-136327885D01*
X115946000Y-134525332D01*
X115941956Y-134511561D01*
X115928417Y-134509532D01*
X115786621Y-134528200D01*
X115778223Y-134529893D01*
X115509274Y-134603469D01*
X115501179Y-134606288D01*
X115244694Y-134715688D01*
X115237071Y-134719572D01*
X114997806Y-134862768D01*
X114990777Y-134867653D01*
X114773153Y-135042004D01*
X114766864Y-135047787D01*
X114574913Y-135250061D01*
X114569460Y-135256654D01*
X114406747Y-135483092D01*
X114402230Y-135490377D01*
X114291853Y-135698843D01*
X114242301Y-135749686D01*
X114173126Y-135765668D01*
X114106293Y-135741714D01*
X114063019Y-135685430D01*
X114054499Y-135639884D01*
X114054499Y-134974934D01*
X114039734Y-134900699D01*
X113983484Y-134816516D01*
X113899301Y-134760266D01*
X113825067Y-134745500D01*
X112200263Y-134745500D01*
X110574934Y-134745501D01*
X110539182Y-134752612D01*
X110512874Y-134757844D01*
X110512872Y-134757845D01*
X110500699Y-134760266D01*
X110490379Y-134767161D01*
X110490378Y-134767162D01*
X110429985Y-134807516D01*
X110416516Y-134816516D01*
X110360266Y-134900699D01*
X110345500Y-134974933D01*
X105654000Y-134974933D01*
X105654000Y-132274933D01*
X106945500Y-132274933D01*
X106945501Y-134325066D01*
X106960266Y-134399301D01*
X107016516Y-134483484D01*
X107100699Y-134539734D01*
X107174933Y-134554500D01*
X108199834Y-134554500D01*
X109225066Y-134554499D01*
X109260818Y-134547388D01*
X109287126Y-134542156D01*
X109287128Y-134542155D01*
X109299301Y-134539734D01*
X109309621Y-134532839D01*
X109309622Y-134532838D01*
X109373168Y-134490377D01*
X109383484Y-134483484D01*
X109439734Y-134399301D01*
X109454500Y-134325067D01*
X109454500Y-133567431D01*
X118713353Y-133567431D01*
X118760218Y-133762634D01*
X118763264Y-133772008D01*
X118850313Y-133982163D01*
X118854795Y-133990958D01*
X118973643Y-134184899D01*
X118979443Y-134192883D01*
X119127178Y-134365858D01*
X119134142Y-134372822D01*
X119307117Y-134520557D01*
X119315101Y-134526357D01*
X119509042Y-134645205D01*
X119517837Y-134649687D01*
X119727992Y-134736736D01*
X119737366Y-134739782D01*
X119928385Y-134785642D01*
X119942469Y-134784937D01*
X119946000Y-134776056D01*
X119946000Y-134771756D01*
X120454000Y-134771756D01*
X120457973Y-134785287D01*
X120467431Y-134786647D01*
X120662634Y-134739782D01*
X120672008Y-134736736D01*
X120882163Y-134649687D01*
X120890958Y-134645205D01*
X121084899Y-134526357D01*
X121092883Y-134520557D01*
X121265858Y-134372822D01*
X121272822Y-134365858D01*
X121420557Y-134192883D01*
X121426357Y-134184899D01*
X121545205Y-133990958D01*
X121549687Y-133982163D01*
X121636736Y-133772008D01*
X121639782Y-133762634D01*
X121685642Y-133571615D01*
X121684937Y-133557531D01*
X121676056Y-133554000D01*
X120472115Y-133554000D01*
X120456876Y-133558475D01*
X120455671Y-133559865D01*
X120454000Y-133567548D01*
X120454000Y-134771756D01*
X119946000Y-134771756D01*
X119946000Y-133572115D01*
X119941525Y-133556876D01*
X119940135Y-133555671D01*
X119932452Y-133554000D01*
X118728244Y-133554000D01*
X118714713Y-133557973D01*
X118713353Y-133567431D01*
X109454500Y-133567431D01*
X109454500Y-133028385D01*
X118714358Y-133028385D01*
X118715063Y-133042469D01*
X118723944Y-133046000D01*
X119927885Y-133046000D01*
X119943124Y-133041525D01*
X119944329Y-133040135D01*
X119946000Y-133032452D01*
X119946000Y-133027885D01*
X120454000Y-133027885D01*
X120458475Y-133043124D01*
X120459865Y-133044329D01*
X120467548Y-133046000D01*
X121671756Y-133046000D01*
X121685287Y-133042027D01*
X121686647Y-133032569D01*
X121639782Y-132837366D01*
X121636736Y-132827992D01*
X121549687Y-132617837D01*
X121545205Y-132609042D01*
X121426357Y-132415101D01*
X121420557Y-132407117D01*
X121272822Y-132234142D01*
X121265858Y-132227178D01*
X121092883Y-132079443D01*
X121084899Y-132073643D01*
X120890958Y-131954795D01*
X120882163Y-131950313D01*
X120672008Y-131863264D01*
X120662634Y-131860218D01*
X120471615Y-131814358D01*
X120457531Y-131815063D01*
X120454000Y-131823944D01*
X120454000Y-133027885D01*
X119946000Y-133027885D01*
X119946000Y-131828244D01*
X119942027Y-131814713D01*
X119932569Y-131813353D01*
X119737366Y-131860218D01*
X119727992Y-131863264D01*
X119517837Y-131950313D01*
X119509042Y-131954795D01*
X119315101Y-132073643D01*
X119307117Y-132079443D01*
X119134142Y-132227178D01*
X119127178Y-132234142D01*
X118979443Y-132407117D01*
X118973643Y-132415101D01*
X118854795Y-132609042D01*
X118850313Y-132617837D01*
X118763264Y-132827992D01*
X118760218Y-132837366D01*
X118714358Y-133028385D01*
X109454500Y-133028385D01*
X109454499Y-132274934D01*
X109439734Y-132200699D01*
X109383484Y-132116516D01*
X109299301Y-132060266D01*
X109225067Y-132045500D01*
X108200166Y-132045500D01*
X107174934Y-132045501D01*
X107139182Y-132052612D01*
X107112874Y-132057844D01*
X107112872Y-132057845D01*
X107100699Y-132060266D01*
X107090379Y-132067161D01*
X107090378Y-132067162D01*
X107080679Y-132073643D01*
X107016516Y-132116516D01*
X106960266Y-132200699D01*
X106945500Y-132274933D01*
X105654000Y-132274933D01*
X105654000Y-114543507D01*
X105674002Y-114475386D01*
X105685455Y-114460217D01*
X105753422Y-114383066D01*
X109257806Y-110405117D01*
X109264498Y-110399263D01*
X109264030Y-110398795D01*
X109272809Y-110390016D01*
X109283124Y-110383124D01*
X109297620Y-110361430D01*
X109300125Y-110357817D01*
X109303030Y-110353782D01*
X109307128Y-110349130D01*
X109313655Y-110337883D01*
X109317867Y-110331127D01*
X109332369Y-110309424D01*
X109332370Y-110309422D01*
X109339263Y-110299106D01*
X109340881Y-110290969D01*
X109345045Y-110283795D01*
X109350158Y-110245622D01*
X109351463Y-110237771D01*
X109354000Y-110225017D01*
X109354000Y-110218828D01*
X109354488Y-110213874D01*
X109354996Y-110209495D01*
X109356812Y-110195938D01*
X109358459Y-110183642D01*
X109355275Y-110171652D01*
X109354491Y-110159262D01*
X109355151Y-110159220D01*
X109354000Y-110150404D01*
X109354000Y-68906306D01*
X111275500Y-68906306D01*
X111282210Y-68979328D01*
X111284211Y-68985712D01*
X111284211Y-68985714D01*
X111296926Y-69026286D01*
X111333201Y-69142041D01*
X111421533Y-69287894D01*
X111542106Y-69408467D01*
X111687959Y-69496799D01*
X111695206Y-69499070D01*
X111695208Y-69499071D01*
X111844286Y-69545789D01*
X111844288Y-69545789D01*
X111850672Y-69547790D01*
X111923694Y-69554500D01*
X112349500Y-69554500D01*
X112417621Y-69574502D01*
X112464114Y-69628158D01*
X112475500Y-69680500D01*
X112475500Y-128138129D01*
X112455498Y-128206250D01*
X112438595Y-128227224D01*
X112433075Y-128232744D01*
X112370763Y-128266770D01*
X112357155Y-128268958D01*
X112266957Y-128278438D01*
X112260286Y-128280709D01*
X112113387Y-128330717D01*
X112113384Y-128330718D01*
X112106717Y-128332988D01*
X112100719Y-128336678D01*
X112100717Y-128336679D01*
X111968543Y-128417993D01*
X111968541Y-128417995D01*
X111962544Y-128421684D01*
X111957511Y-128426613D01*
X111854807Y-128527189D01*
X111841605Y-128540117D01*
X111837794Y-128546031D01*
X111837792Y-128546033D01*
X111827823Y-128561502D01*
X111749909Y-128682400D01*
X111747498Y-128689025D01*
X111694425Y-128834840D01*
X111694424Y-128834845D01*
X111692015Y-128841463D01*
X111670800Y-129009399D01*
X111687318Y-129177862D01*
X111740748Y-129338479D01*
X111828435Y-129483267D01*
X111833326Y-129488332D01*
X111833327Y-129488333D01*
X111857062Y-129512911D01*
X111946021Y-129605031D01*
X112087660Y-129697717D01*
X112246315Y-129756720D01*
X112253296Y-129757651D01*
X112253298Y-129757652D01*
X112407118Y-129778176D01*
X112407122Y-129778176D01*
X112414099Y-129779107D01*
X112421110Y-129778469D01*
X112421114Y-129778469D01*
X112575652Y-129764405D01*
X112582673Y-129763766D01*
X112743659Y-129711458D01*
X112889056Y-129624784D01*
X113011638Y-129508052D01*
X113015539Y-129502181D01*
X113101410Y-129372935D01*
X113101411Y-129372933D01*
X113105311Y-129367063D01*
X113165420Y-129208824D01*
X113182456Y-129087605D01*
X113211744Y-129022931D01*
X113218135Y-129016046D01*
X113411413Y-128822768D01*
X113415221Y-128819115D01*
X113454948Y-128782584D01*
X113454949Y-128782583D01*
X113461266Y-128776774D01*
X113484381Y-128739494D01*
X113491104Y-128729712D01*
X113512433Y-128701613D01*
X113512434Y-128701612D01*
X113517630Y-128694766D01*
X113523237Y-128680604D01*
X113533303Y-128660591D01*
X113536795Y-128654959D01*
X113536795Y-128654958D01*
X113541323Y-128647656D01*
X113553564Y-128605524D01*
X113557408Y-128594299D01*
X113570393Y-128561502D01*
X113570395Y-128561495D01*
X113573556Y-128553510D01*
X113575148Y-128538367D01*
X113579459Y-128516394D01*
X113581867Y-128508104D01*
X113583709Y-128501765D01*
X113584500Y-128490993D01*
X113584500Y-128455995D01*
X113585190Y-128442824D01*
X113588539Y-128410963D01*
X113589437Y-128402419D01*
X113586263Y-128383654D01*
X113584500Y-128362652D01*
X113584500Y-69572583D01*
X113604502Y-69504462D01*
X113658158Y-69457969D01*
X113728432Y-69447865D01*
X113793012Y-69477359D01*
X113808143Y-69492948D01*
X113835065Y-69525958D01*
X113844038Y-69534931D01*
X113984976Y-69649877D01*
X113995574Y-69656865D01*
X114156738Y-69741119D01*
X114168533Y-69745837D01*
X114343714Y-69796069D01*
X114355451Y-69798255D01*
X114461845Y-69807751D01*
X114467440Y-69808000D01*
X114697885Y-69808000D01*
X114713124Y-69803525D01*
X114714329Y-69802135D01*
X114716000Y-69794452D01*
X114716000Y-69789885D01*
X115224000Y-69789885D01*
X115228475Y-69805124D01*
X115229865Y-69806329D01*
X115237548Y-69808000D01*
X115472560Y-69808000D01*
X115478155Y-69807751D01*
X115584549Y-69798255D01*
X115596286Y-69796069D01*
X115771467Y-69745837D01*
X115783262Y-69741119D01*
X115944426Y-69656865D01*
X115955024Y-69649877D01*
X116095962Y-69534931D01*
X116104931Y-69525962D01*
X116219877Y-69385024D01*
X116226865Y-69374426D01*
X116311119Y-69213262D01*
X116315837Y-69201467D01*
X116366069Y-69026286D01*
X116368255Y-69014549D01*
X116377751Y-68908155D01*
X116378000Y-68902560D01*
X116378000Y-68072115D01*
X116373525Y-68056876D01*
X116372135Y-68055671D01*
X116364452Y-68054000D01*
X115242115Y-68054000D01*
X115226876Y-68058475D01*
X115225671Y-68059865D01*
X115224000Y-68067548D01*
X115224000Y-69789885D01*
X114716000Y-69789885D01*
X114716000Y-67527885D01*
X115224000Y-67527885D01*
X115228475Y-67543124D01*
X115229865Y-67544329D01*
X115237548Y-67546000D01*
X116359885Y-67546000D01*
X116375124Y-67541525D01*
X116376329Y-67540135D01*
X116378000Y-67532452D01*
X116378000Y-66697440D01*
X116377751Y-66691845D01*
X116368255Y-66585451D01*
X116366069Y-66573714D01*
X116315837Y-66398533D01*
X116311119Y-66386738D01*
X116226865Y-66225574D01*
X116219877Y-66214976D01*
X116104931Y-66074038D01*
X116095962Y-66065069D01*
X115955024Y-65950123D01*
X115944426Y-65943135D01*
X115783262Y-65858881D01*
X115771467Y-65854163D01*
X115596286Y-65803931D01*
X115584549Y-65801745D01*
X115478155Y-65792249D01*
X115472560Y-65792000D01*
X115242115Y-65792000D01*
X115226876Y-65796475D01*
X115225671Y-65797865D01*
X115224000Y-65805548D01*
X115224000Y-67527885D01*
X114716000Y-67527885D01*
X114716000Y-65810115D01*
X114711525Y-65794876D01*
X114710135Y-65793671D01*
X114702452Y-65792000D01*
X114467440Y-65792000D01*
X114461845Y-65792249D01*
X114355451Y-65801745D01*
X114343714Y-65803931D01*
X114168533Y-65854163D01*
X114156738Y-65858881D01*
X113995574Y-65943135D01*
X113984976Y-65950123D01*
X113844038Y-66065069D01*
X113835069Y-66074038D01*
X113720123Y-66214976D01*
X113713133Y-66225577D01*
X113665202Y-66317260D01*
X113615916Y-66368361D01*
X113546826Y-66384705D01*
X113479868Y-66361101D01*
X113445766Y-66324157D01*
X113442403Y-66318605D01*
X113442401Y-66318602D01*
X113438467Y-66312106D01*
X113317894Y-66191533D01*
X113172041Y-66103201D01*
X113164794Y-66100930D01*
X113164792Y-66100929D01*
X113015714Y-66054211D01*
X113015712Y-66054211D01*
X113009328Y-66052210D01*
X112936306Y-66045500D01*
X111923694Y-66045500D01*
X111850672Y-66052210D01*
X111844288Y-66054211D01*
X111844286Y-66054211D01*
X111695208Y-66100929D01*
X111695206Y-66100930D01*
X111687959Y-66103201D01*
X111542106Y-66191533D01*
X111421533Y-66312106D01*
X111333201Y-66457959D01*
X111330930Y-66465206D01*
X111330929Y-66465208D01*
X111284211Y-66614286D01*
X111282210Y-66620672D01*
X111275500Y-66693694D01*
X111275500Y-68906306D01*
X109354000Y-68906306D01*
X109354000Y-65837425D01*
X109356421Y-65812844D01*
X109356555Y-65812170D01*
X109358976Y-65800000D01*
X109356555Y-65787828D01*
X109356555Y-65780246D01*
X109357162Y-65767896D01*
X109367118Y-65666812D01*
X109371935Y-65642592D01*
X109407187Y-65526383D01*
X109416631Y-65503582D01*
X109473876Y-65396483D01*
X109487594Y-65375953D01*
X109564626Y-65282091D01*
X109582091Y-65264626D01*
X109675953Y-65187594D01*
X109696483Y-65173876D01*
X109803582Y-65116631D01*
X109826383Y-65107187D01*
X109942592Y-65071935D01*
X109966812Y-65067118D01*
X110067896Y-65057162D01*
X110080246Y-65056555D01*
X110087828Y-65056555D01*
X110100000Y-65058976D01*
X110112847Y-65056421D01*
X110137425Y-65054000D01*
X118262575Y-65054000D01*
X118287153Y-65056421D01*
G37*
%TD.AperFunction*%
%TD*%
M02*
