%TF.GenerationSoftware,KiCad,Pcbnew,6.0.2-378541a8eb~116~ubuntu20.04.1*%
%TF.CreationDate,2022-02-19T20:17:05-08:00*%
%TF.ProjectId,menorah555_main,6d656e6f-7261-4683-9535-355f6d61696e,B*%
%TF.SameCoordinates,Original*%
%TF.FileFunction,Paste,Bot*%
%TF.FilePolarity,Positive*%
%FSLAX46Y46*%
G04 Gerber Fmt 4.6, Leading zero omitted, Abs format (unit mm)*
G04 Created by KiCad (PCBNEW 6.0.2-378541a8eb~116~ubuntu20.04.1) date 2022-02-19 20:17:05*
%MOMM*%
%LPD*%
G01*
G04 APERTURE LIST*
%TA.AperFunction,Profile*%
%ADD10C,0.050000*%
%TD*%
G04 APERTURE END LIST*
D10*
X136400000Y-80000000D02*
G75*
G03*
X135400000Y-81000000I-1J-999999D01*
G01*
X175600000Y-69400000D02*
X175600000Y-133660000D01*
X85600000Y-122000000D02*
X85600000Y-183260000D01*
X85600000Y-122000000D02*
G75*
G03*
X84600000Y-121000000I-999999J1D01*
G01*
X76400000Y-121000000D02*
X84600000Y-121000000D01*
X76400000Y-121000000D02*
G75*
G03*
X75400000Y-122000000I-1J-999999D01*
G01*
X75400000Y-195370000D02*
X75400000Y-122000000D01*
X136400000Y-80000000D02*
X144600000Y-80000000D01*
X166400000Y-68400000D02*
G75*
G03*
X165400000Y-69400000I-1J-999999D01*
G01*
X165400000Y-137370000D02*
X165400000Y-69400000D01*
X115600000Y-98000000D02*
G75*
G03*
X114600000Y-97000000I-999999J1D01*
G01*
X166400000Y-68400000D02*
X174600000Y-68400000D01*
X115600000Y-98000000D02*
X115600000Y-160230000D01*
X145600000Y-81000000D02*
X145600000Y-144230000D01*
X175600000Y-69400000D02*
G75*
G03*
X174600000Y-68400000I-999999J1D01*
G01*
X105400000Y-168610000D02*
X105400000Y-98000000D01*
X135400000Y-150010000D02*
X135400000Y-81000000D01*
X106400000Y-97000000D02*
X114600000Y-97000000D01*
X145600000Y-81000000D02*
G75*
G03*
X144600000Y-80000000I-999999J1D01*
G01*
X106400000Y-97000000D02*
G75*
G03*
X105400000Y-98000000I-1J-999999D01*
G01*
X256400000Y-60800000D02*
G75*
G03*
X255400000Y-61800000I-1J-999999D01*
G01*
X295600000Y-67400000D02*
G75*
G03*
X294600000Y-66400000I-999999J1D01*
G01*
X256400000Y-60800000D02*
X264600000Y-60800000D01*
X285400000Y-131970000D02*
X285400000Y-67400000D01*
X255400000Y-126990000D02*
X255400000Y-61800000D01*
X325600000Y-78200000D02*
G75*
G03*
X324600000Y-77200000I-999999J1D01*
G01*
X295600000Y-67400000D02*
X295600000Y-135260000D01*
X265600000Y-61800000D02*
X265600000Y-128500000D01*
X316400000Y-77200000D02*
X324600000Y-77200000D01*
X265600000Y-61800000D02*
G75*
G03*
X264600000Y-60800000I-999999J1D01*
G01*
X315400000Y-141470000D02*
X315400000Y-78200000D01*
X316400000Y-77200000D02*
G75*
G03*
X315400000Y-78200000I-1J-999999D01*
G01*
X286400000Y-66400000D02*
X294600000Y-66400000D01*
X225400000Y-126220000D02*
X225400000Y-59800000D01*
X226400000Y-58800000D02*
G75*
G03*
X225400000Y-59800000I-1J-999999D01*
G01*
X226400000Y-58800000D02*
X234600000Y-58800000D01*
X235600000Y-59800000D02*
G75*
G03*
X234600000Y-58800000I-999999J1D01*
G01*
X235600000Y-59800000D02*
X235600000Y-126030000D01*
X325600000Y-78200000D02*
X325600000Y-146760000D01*
X286400000Y-66400000D02*
G75*
G03*
X285400000Y-67400000I-1J-999999D01*
G01*
X57820001Y-217140001D02*
G75*
G03*
X64760000Y-223900000I3975144J-2861404D01*
G01*
X64760000Y-223900000D02*
X64850309Y-223837228D01*
X327511852Y-223813089D02*
X327603497Y-223876946D01*
X333030000Y-211510000D02*
G75*
G03*
X335030000Y-217906000I95667512J26404099D01*
G01*
X331600000Y-210800000D02*
X332087372Y-210808006D01*
X333030001Y-211510000D02*
G75*
G03*
X332087372Y-210808006I-942667J-281929D01*
G01*
X189763573Y-132674026D02*
G75*
G03*
X191700000Y-134200000I1847626J352968D01*
G01*
X209300000Y-134200000D02*
G75*
G03*
X211300000Y-132200000I1J1999999D01*
G01*
X211300000Y-132200000D02*
X211291664Y-129122633D01*
X74841689Y-196355905D02*
G75*
G03*
X57820000Y-217140000I159055385J-147624881D01*
G01*
X104929919Y-169458048D02*
G75*
G03*
X105400000Y-168610000I-529915J848046D01*
G01*
X145600000Y-144230000D02*
G75*
G03*
X147022618Y-145136308I1000000J0D01*
G01*
X175600001Y-133660000D02*
G75*
G03*
X176925568Y-134605519I999999J-1D01*
G01*
X235600000Y-126030000D02*
G75*
G03*
X236634899Y-127029391I999999J-1D01*
G01*
X265600001Y-128500000D02*
G75*
G03*
X266392088Y-129478148I999999J-1D01*
G01*
X295600000Y-135260000D02*
G75*
G03*
X296341181Y-136225926I1000000J0D01*
G01*
X325599999Y-146760000D02*
G75*
G03*
X326209269Y-147680505I1000000J0D01*
G01*
X134929919Y-150858048D02*
G75*
G03*
X135400000Y-150010000I-529915J848046D01*
G01*
X164658819Y-138335925D02*
G75*
G03*
X165400000Y-137370000I-258821J965927D01*
G01*
X224573648Y-127204809D02*
G75*
G03*
X225400000Y-126220000I-173649J984809D01*
G01*
X254312844Y-127986195D02*
G75*
G03*
X255400000Y-126990000I87155J996196D01*
G01*
X284141181Y-132935926D02*
G75*
G03*
X285400000Y-131970000I258818J965927D01*
G01*
X313977382Y-142376308D02*
G75*
G03*
X315400000Y-141470000I422618J906308D01*
G01*
X87600000Y-183700000D02*
X87294658Y-183979340D01*
X75069131Y-196113145D02*
X74841689Y-196355905D01*
X104841866Y-169519312D02*
X104929919Y-169458048D01*
X134801847Y-150922131D02*
G75*
G03*
X117400000Y-160900000I99088026J-192977653D01*
G01*
X134929919Y-150858048D02*
X134801847Y-150922131D01*
X117400000Y-160900000D02*
X117229320Y-161007146D01*
X164398003Y-138414929D02*
G75*
G03*
X147100000Y-145100000I69471878J-205484773D01*
G01*
X164658819Y-138335926D02*
X164398003Y-138414929D01*
X147100000Y-145100000D02*
X147022618Y-145136308D01*
X188487912Y-131807078D02*
G75*
G03*
X177300000Y-134500000I43093575J-203621836D01*
G01*
X177300000Y-134500000D02*
X176925568Y-134605519D01*
X224310641Y-127212249D02*
G75*
G03*
X212200000Y-128100000I9201387J-208574882D01*
G01*
X224310641Y-127212249D02*
X224573648Y-127204808D01*
X253945960Y-127939407D02*
G75*
G03*
X236940000Y-127030000I-20075998J-215961356D01*
G01*
X236634899Y-127029391D02*
X236940000Y-127030000D01*
X253945960Y-127939407D02*
X254312844Y-127986195D01*
X283817199Y-132845881D02*
G75*
G03*
X266730000Y-129520000I-49947117J-211053672D01*
G01*
X266392088Y-129478148D02*
X266730000Y-129520000D01*
X283817199Y-132845881D02*
X284141181Y-132935926D01*
X313693401Y-142252243D02*
G75*
G03*
X296540000Y-136280000I-79823297J-201647453D01*
G01*
X296341181Y-136225926D02*
X296540000Y-136280000D01*
X313693401Y-142252243D02*
X313977382Y-142376308D01*
X334280000Y-151700000D02*
G75*
G03*
X326209269Y-147680505I-54259472J-98835073D01*
G01*
X330600000Y-208000000D02*
X330600000Y-209800000D01*
X334710000Y-152940000D02*
G75*
G03*
X334280000Y-151700000I-978203J355341D01*
G01*
X85600000Y-183260000D02*
G75*
G03*
X87294658Y-183979340I1000000J0D01*
G01*
X75069131Y-196113145D02*
G75*
G03*
X75400000Y-195370000I-669140J743149D01*
G01*
X330600000Y-209800000D02*
G75*
G03*
X331600000Y-210800000I999999J-1D01*
G01*
X334710000Y-152940000D02*
G75*
G03*
X330600000Y-200200000I94502379J-32027182D01*
G01*
X212200000Y-128100000D02*
G75*
G03*
X211291664Y-129122633I65243J-972674D01*
G01*
X327511852Y-223813089D02*
G75*
G03*
X64850309Y-223837228I-131313662J-186189469D01*
G01*
X327603497Y-223876946D02*
G75*
G03*
X335030000Y-217906000I2996503J3876946D01*
G01*
X115600000Y-160230000D02*
G75*
G03*
X117229320Y-161007146I1000000J0D01*
G01*
X104841866Y-169519312D02*
G75*
G03*
X87600000Y-183700000I128968223J-174380802D01*
G01*
X191700000Y-134200000D02*
X209300000Y-134200000D01*
X189763573Y-132674026D02*
G75*
G03*
X188487912Y-131807078I-995660J-93051D01*
G01*
X330600000Y-208000000D02*
X330600000Y-200200000D01*
M02*
