%TF.GenerationSoftware,KiCad,Pcbnew,6.0.2-378541a8eb~116~ubuntu20.04.1*%
%TF.CreationDate,2022-03-06T19:09:13-08:00*%
%TF.ProjectId,menorah555_main,6d656e6f-7261-4683-9535-355f6d61696e,B*%
%TF.SameCoordinates,Original*%
%TF.FileFunction,Legend,Bot*%
%TF.FilePolarity,Positive*%
%FSLAX46Y46*%
G04 Gerber Fmt 4.6, Leading zero omitted, Abs format (unit mm)*
G04 Created by KiCad (PCBNEW 6.0.2-378541a8eb~116~ubuntu20.04.1) date 2022-03-06 19:09:13*
%MOMM*%
%LPD*%
G01*
G04 APERTURE LIST*
G04 Aperture macros list*
%AMRoundRect*
0 Rectangle with rounded corners*
0 $1 Rounding radius*
0 $2 $3 $4 $5 $6 $7 $8 $9 X,Y pos of 4 corners*
0 Add a 4 corners polygon primitive as box body*
4,1,4,$2,$3,$4,$5,$6,$7,$8,$9,$2,$3,0*
0 Add four circle primitives for the rounded corners*
1,1,$1+$1,$2,$3*
1,1,$1+$1,$4,$5*
1,1,$1+$1,$6,$7*
1,1,$1+$1,$8,$9*
0 Add four rect primitives between the rounded corners*
20,1,$1+$1,$2,$3,$4,$5,0*
20,1,$1+$1,$4,$5,$6,$7,0*
20,1,$1+$1,$6,$7,$8,$9,0*
20,1,$1+$1,$8,$9,$2,$3,0*%
G04 Aperture macros list end*
%ADD10C,2.000000*%
%TA.AperFunction,Profile*%
%ADD11C,0.050000*%
%TD*%
%ADD12R,1.600000X1.600000*%
%ADD13C,1.600000*%
%ADD14RoundRect,0.700000X-1.800000X0.700000X-1.800000X-0.700000X1.800000X-0.700000X1.800000X0.700000X0*%
%ADD15RoundRect,0.700000X-0.700000X1.800000X-0.700000X-1.800000X0.700000X-1.800000X0.700000X1.800000X0*%
%ADD16R,1.500000X2.500000*%
%ADD17O,1.500000X2.500000*%
%ADD18O,4.000000X2.800000*%
%ADD19C,3.200000*%
%ADD20O,0.650000X1.300000*%
%ADD21O,1.550000X0.775000*%
G04 APERTURE END LIST*
D10*
X226460000Y-59860000D02*
X234610000Y-59860000D01*
X256460000Y-61810000D02*
X256470000Y-127200000D01*
X58663009Y-217841295D02*
G75*
G03*
X64440000Y-222810000I3173748J-2152696D01*
G01*
X144550000Y-81050000D02*
X144560000Y-144060000D01*
X106460000Y-98060000D02*
X114535000Y-98010000D01*
X84488199Y-183205595D02*
G75*
G03*
X88160000Y-184710000I2121635J-54810D01*
G01*
X283870000Y-133970000D02*
G75*
G03*
X266550000Y-130590000I-57055229J-246299754D01*
G01*
X328280000Y-223070000D02*
G75*
G03*
X334140000Y-218490000I2331365J3055939D01*
G01*
X188732001Y-132852000D02*
G75*
G03*
X191690000Y-135280000I2870633J481409D01*
G01*
X328410000Y-223069999D02*
G75*
G03*
X64760000Y-222520000I-132215993J-187152978D01*
G01*
X166460000Y-69410000D02*
X174610000Y-69410000D01*
X333740000Y-152610000D02*
G75*
G03*
X325980000Y-148770000I-51683862J-94683639D01*
G01*
X84610000Y-122010000D02*
X84460000Y-183110000D01*
X174610000Y-69410000D02*
X174510000Y-133660000D01*
X224330000Y-128290000D02*
G75*
G03*
X226460000Y-126080000I87379J2047232D01*
G01*
X286360000Y-67410000D02*
X286460000Y-132220000D01*
X191720000Y-135290000D02*
X209270000Y-135290000D01*
X226460000Y-59860000D02*
X226490000Y-126160000D01*
X76460000Y-122010000D02*
X84610000Y-122010000D01*
X329589999Y-210020000D02*
G75*
G03*
X331880000Y-211880000I2043093J175716D01*
G01*
X135110000Y-152010000D02*
G75*
G03*
X117410000Y-162160000I102909975J-199966779D01*
G01*
X316460000Y-78260000D02*
X324610000Y-78260000D01*
X114560000Y-159860000D02*
X114535000Y-98010000D01*
X188732000Y-132852000D02*
G75*
G03*
X177510000Y-135610000I35958588J-170521101D01*
G01*
X283910000Y-133990000D02*
G75*
G03*
X286450000Y-132180000I502505J1982037D01*
G01*
X333740000Y-152610000D02*
G75*
G03*
X329570000Y-200280000I93868602J-32228676D01*
G01*
X166460000Y-69410000D02*
X166460000Y-137310000D01*
X324560000Y-147010000D02*
G75*
G03*
X325820000Y-148700000I1992844J171085D01*
G01*
X329540000Y-200480000D02*
X329570000Y-209800000D01*
X316460000Y-78260000D02*
X316490000Y-141660000D01*
X332030000Y-211890000D02*
G75*
G03*
X334080000Y-218290000I65304344J17389477D01*
G01*
X254120000Y-129070000D02*
G75*
G03*
X256450000Y-127250000I292342J2027194D01*
G01*
X76460000Y-122010000D02*
X76560000Y-195160000D01*
X105415987Y-170503664D02*
G75*
G03*
X106510000Y-168660000I-1011727J1846770D01*
G01*
X174510000Y-133560000D02*
G75*
G03*
X177360000Y-135660000I2141261J-77931D01*
G01*
X234550000Y-126210000D02*
G75*
G03*
X236670000Y-128110000I2061092J167008D01*
G01*
X294549240Y-135306848D02*
G75*
G03*
X296150000Y-137270000I2095905J74799D01*
G01*
X313610000Y-143400000D02*
G75*
G03*
X316490000Y-141580000I807534J1910825D01*
G01*
X105260000Y-170610000D02*
G75*
G03*
X88160000Y-184710000I101967512J-141081877D01*
G01*
X264560000Y-128570000D02*
G75*
G03*
X266370000Y-130570000I2079997J63372D01*
G01*
X324610000Y-78260000D02*
X324570000Y-146850000D01*
X313490000Y-143360000D02*
G75*
G03*
X296120000Y-137270000I-84498738J-213192213D01*
G01*
X212350000Y-129180000D02*
X212360000Y-132380000D01*
X165060000Y-139310000D02*
G75*
G03*
X147610000Y-146060000I67057595J-199287043D01*
G01*
X144560001Y-144060000D02*
G75*
G03*
X147467801Y-146128969I2068132J-171221D01*
G01*
X136460000Y-81060000D02*
X144550000Y-81050000D01*
X234610000Y-59860000D02*
X234530000Y-126050000D01*
X264610000Y-61860000D02*
X264550000Y-128600000D01*
X254210000Y-129070000D02*
G75*
G03*
X236780000Y-128110000I-20411402J-211882796D01*
G01*
X224170000Y-128310000D02*
G75*
G03*
X212380000Y-129190000I4826734J-144086864D01*
G01*
X114560000Y-160160000D02*
G75*
G03*
X117510000Y-162110000I2100939J-28067D01*
G01*
X209220000Y-135299999D02*
G75*
G03*
X212360000Y-132410000I89253J3053839D01*
G01*
X75951383Y-196901383D02*
G75*
G03*
X76610000Y-195260000I-1590134J1590882D01*
G01*
X136460000Y-81060000D02*
X136460000Y-149910000D01*
X75760000Y-197110000D02*
G75*
G03*
X58660000Y-217810000I145246898J-137399611D01*
G01*
X286460000Y-67410000D02*
X294610000Y-67410000D01*
X135210000Y-151910000D02*
G75*
G03*
X136460000Y-150010000I-810291J1894270D01*
G01*
X294610000Y-67410000D02*
X294550000Y-135250000D01*
X256460000Y-61860000D02*
X264610000Y-61860000D01*
X165060000Y-139310001D02*
G75*
G03*
X166448948Y-137421808I-581400J1882625D01*
G01*
X106460000Y-98060000D02*
X106510000Y-168560000D01*
D11*
X136400000Y-80000000D02*
G75*
G03*
X135400000Y-81000000I-1J-999999D01*
G01*
X175600000Y-69400000D02*
X175600000Y-133660000D01*
X85600000Y-122000000D02*
X85600000Y-183260000D01*
X85600000Y-122000000D02*
G75*
G03*
X84600000Y-121000000I-999999J1D01*
G01*
X76400000Y-121000000D02*
X84600000Y-121000000D01*
X76400000Y-121000000D02*
G75*
G03*
X75400000Y-122000000I-1J-999999D01*
G01*
X75400000Y-195370000D02*
X75400000Y-122000000D01*
X136400000Y-80000000D02*
X144600000Y-80000000D01*
X166400000Y-68400000D02*
G75*
G03*
X165400000Y-69400000I-1J-999999D01*
G01*
X165400000Y-137370000D02*
X165400000Y-69400000D01*
X115600000Y-98000000D02*
G75*
G03*
X114600000Y-97000000I-999999J1D01*
G01*
X166400000Y-68400000D02*
X174600000Y-68400000D01*
X115600000Y-98000000D02*
X115600000Y-160230000D01*
X145600000Y-81000000D02*
X145600000Y-144230000D01*
X175600000Y-69400000D02*
G75*
G03*
X174600000Y-68400000I-999999J1D01*
G01*
X105400000Y-168610000D02*
X105400000Y-98000000D01*
X135400000Y-150010000D02*
X135400000Y-81000000D01*
X106400000Y-97000000D02*
X114600000Y-97000000D01*
X145600000Y-81000000D02*
G75*
G03*
X144600000Y-80000000I-999999J1D01*
G01*
X106400000Y-97000000D02*
G75*
G03*
X105400000Y-98000000I-1J-999999D01*
G01*
X256400000Y-60800000D02*
G75*
G03*
X255400000Y-61800000I-1J-999999D01*
G01*
X295600000Y-67400000D02*
G75*
G03*
X294600000Y-66400000I-999999J1D01*
G01*
X256400000Y-60800000D02*
X264600000Y-60800000D01*
X285400000Y-131970000D02*
X285400000Y-67400000D01*
X255400000Y-126990000D02*
X255400000Y-61800000D01*
X325600000Y-78200000D02*
G75*
G03*
X324600000Y-77200000I-999999J1D01*
G01*
X295600000Y-67400000D02*
X295600000Y-135260000D01*
X265600000Y-61800000D02*
X265600000Y-128500000D01*
X316400000Y-77200000D02*
X324600000Y-77200000D01*
X265600000Y-61800000D02*
G75*
G03*
X264600000Y-60800000I-999999J1D01*
G01*
X315400000Y-141470000D02*
X315400000Y-78200000D01*
X316400000Y-77200000D02*
G75*
G03*
X315400000Y-78200000I-1J-999999D01*
G01*
X286400000Y-66400000D02*
X294600000Y-66400000D01*
X225400000Y-126220000D02*
X225400000Y-59800000D01*
X226400000Y-58800000D02*
G75*
G03*
X225400000Y-59800000I-1J-999999D01*
G01*
X226400000Y-58800000D02*
X234600000Y-58800000D01*
X235600000Y-59800000D02*
G75*
G03*
X234600000Y-58800000I-999999J1D01*
G01*
X235600000Y-59800000D02*
X235600000Y-126030000D01*
X325600000Y-78200000D02*
X325600000Y-146760000D01*
X286400000Y-66400000D02*
G75*
G03*
X285400000Y-67400000I-1J-999999D01*
G01*
X57820001Y-217140001D02*
G75*
G03*
X64760000Y-223900000I3975144J-2861404D01*
G01*
X64760000Y-223900000D02*
X64850309Y-223837228D01*
X327511852Y-223813089D02*
X327603497Y-223876946D01*
X333030000Y-211510000D02*
G75*
G03*
X335030000Y-217906000I95667512J26404099D01*
G01*
X331600000Y-210800000D02*
X332087372Y-210808006D01*
X333030001Y-211510000D02*
G75*
G03*
X332087372Y-210808006I-942667J-281929D01*
G01*
X189763573Y-132674026D02*
G75*
G03*
X191700000Y-134200000I1847626J352968D01*
G01*
X209300000Y-134200000D02*
G75*
G03*
X211300000Y-132200000I1J1999999D01*
G01*
X211300000Y-132200000D02*
X211291664Y-129122633D01*
X74841689Y-196355905D02*
G75*
G03*
X57820000Y-217140000I159055385J-147624881D01*
G01*
X104929919Y-169458048D02*
G75*
G03*
X105400000Y-168610000I-529915J848046D01*
G01*
X145600000Y-144230000D02*
G75*
G03*
X147022618Y-145136308I1000000J0D01*
G01*
X175600001Y-133660000D02*
G75*
G03*
X176925568Y-134605519I999999J-1D01*
G01*
X235600000Y-126030000D02*
G75*
G03*
X236634899Y-127029391I999999J-1D01*
G01*
X265600001Y-128500000D02*
G75*
G03*
X266392088Y-129478148I999999J-1D01*
G01*
X295600000Y-135260000D02*
G75*
G03*
X296341181Y-136225926I1000000J0D01*
G01*
X325599999Y-146760000D02*
G75*
G03*
X326209269Y-147680505I1000000J0D01*
G01*
X134929919Y-150858048D02*
G75*
G03*
X135400000Y-150010000I-529915J848046D01*
G01*
X164658819Y-138335925D02*
G75*
G03*
X165400000Y-137370000I-258821J965927D01*
G01*
X224573648Y-127204809D02*
G75*
G03*
X225400000Y-126220000I-173649J984809D01*
G01*
X254312844Y-127986195D02*
G75*
G03*
X255400000Y-126990000I87155J996196D01*
G01*
X284141181Y-132935926D02*
G75*
G03*
X285400000Y-131970000I258818J965927D01*
G01*
X313977382Y-142376308D02*
G75*
G03*
X315400000Y-141470000I422618J906308D01*
G01*
X87600000Y-183700000D02*
X87294658Y-183979340D01*
X75069131Y-196113145D02*
X74841689Y-196355905D01*
X104841866Y-169519312D02*
X104929919Y-169458048D01*
X134801847Y-150922131D02*
G75*
G03*
X117400000Y-160900000I99088026J-192977653D01*
G01*
X134929919Y-150858048D02*
X134801847Y-150922131D01*
X117400000Y-160900000D02*
X117229320Y-161007146D01*
X164398003Y-138414929D02*
G75*
G03*
X147100000Y-145100000I69471878J-205484773D01*
G01*
X164658819Y-138335926D02*
X164398003Y-138414929D01*
X147100000Y-145100000D02*
X147022618Y-145136308D01*
X188487912Y-131807078D02*
G75*
G03*
X177300000Y-134500000I43093575J-203621836D01*
G01*
X177300000Y-134500000D02*
X176925568Y-134605519D01*
X224310641Y-127212249D02*
G75*
G03*
X212200000Y-128100000I9201387J-208574882D01*
G01*
X224310641Y-127212249D02*
X224573648Y-127204808D01*
X253945960Y-127939407D02*
G75*
G03*
X236940000Y-127030000I-20075998J-215961356D01*
G01*
X236634899Y-127029391D02*
X236940000Y-127030000D01*
X253945960Y-127939407D02*
X254312844Y-127986195D01*
X283817199Y-132845881D02*
G75*
G03*
X266730000Y-129520000I-49947117J-211053672D01*
G01*
X266392088Y-129478148D02*
X266730000Y-129520000D01*
X283817199Y-132845881D02*
X284141181Y-132935926D01*
X313693401Y-142252243D02*
G75*
G03*
X296540000Y-136280000I-79823297J-201647453D01*
G01*
X296341181Y-136225926D02*
X296540000Y-136280000D01*
X313693401Y-142252243D02*
X313977382Y-142376308D01*
X334280000Y-151700000D02*
G75*
G03*
X326209269Y-147680505I-54259472J-98835073D01*
G01*
X330600000Y-208000000D02*
X330600000Y-209800000D01*
X334710000Y-152940000D02*
G75*
G03*
X334280000Y-151700000I-978203J355341D01*
G01*
X85600000Y-183260000D02*
G75*
G03*
X87294658Y-183979340I1000000J0D01*
G01*
X75069131Y-196113145D02*
G75*
G03*
X75400000Y-195370000I-669140J743149D01*
G01*
X330600000Y-209800000D02*
G75*
G03*
X331600000Y-210800000I999999J-1D01*
G01*
X334710000Y-152940000D02*
G75*
G03*
X330600000Y-200200000I94502379J-32027182D01*
G01*
X212200000Y-128100000D02*
G75*
G03*
X211291664Y-129122633I65243J-972674D01*
G01*
X327511852Y-223813089D02*
G75*
G03*
X64850309Y-223837228I-131313662J-186189469D01*
G01*
X327603497Y-223876946D02*
G75*
G03*
X335030000Y-217906000I2996503J3876946D01*
G01*
X115600000Y-160230000D02*
G75*
G03*
X117229320Y-161007146I1000000J0D01*
G01*
X104841866Y-169519312D02*
G75*
G03*
X87600000Y-183700000I128968223J-174380802D01*
G01*
X191700000Y-134200000D02*
X209300000Y-134200000D01*
X189763573Y-132674026D02*
G75*
G03*
X188487912Y-131807078I-995660J-93051D01*
G01*
X330600000Y-208000000D02*
X330600000Y-200200000D01*
%LPC*%
D12*
%TO.C,C18*%
X288720000Y-153570000D03*
D13*
X288720000Y-155570000D03*
%TD*%
D14*
%TO.C,J2*%
X200500000Y-150500000D03*
X200500000Y-144500000D03*
D15*
X195900000Y-147500000D03*
%TD*%
D16*
%TO.C,SW9*%
X324650000Y-173200000D03*
D17*
X324650000Y-177200000D03*
X324650000Y-181200000D03*
X322150000Y-173200000D03*
X322150000Y-177200000D03*
X322150000Y-181200000D03*
D18*
X323400000Y-185450000D03*
X323400000Y-168950000D03*
%TD*%
D12*
%TO.C,C9*%
X82250000Y-163800000D03*
D13*
X78750000Y-163800000D03*
%TD*%
D12*
%TO.C,C12*%
X172250000Y-111200000D03*
D13*
X168750000Y-111200000D03*
%TD*%
D12*
%TO.C,C10*%
X112250000Y-139800000D03*
D13*
X108750000Y-139800000D03*
%TD*%
D12*
%TO.C,C11*%
X142250000Y-122800000D03*
D13*
X138750000Y-122800000D03*
%TD*%
D12*
%TO.C,C15*%
X292250000Y-109200000D03*
D13*
X288750000Y-109200000D03*
%TD*%
D12*
%TO.C,C14*%
X262250000Y-103600000D03*
D13*
X258750000Y-103600000D03*
%TD*%
D12*
%TO.C,C16*%
X322250000Y-120000000D03*
D13*
X318750000Y-120000000D03*
%TD*%
D12*
%TO.C,C13*%
X232250000Y-101600000D03*
D13*
X228750000Y-101600000D03*
%TD*%
D19*
%TO.C,H1*%
X61800000Y-220000000D03*
%TD*%
%TO.C,H2*%
X196200000Y-177200000D03*
%TD*%
%TO.C,H3*%
X330600000Y-220000000D03*
%TD*%
D20*
%TO.C,J1*%
X326150000Y-207700000D03*
X326150000Y-202700000D03*
D21*
X328850000Y-208700000D03*
X328850000Y-201700000D03*
%TD*%
M02*
