%TF.GenerationSoftware,KiCad,Pcbnew,6.0.2-378541a8eb~116~ubuntu20.04.1*%
%TF.CreationDate,2022-02-19T20:17:05-08:00*%
%TF.ProjectId,menorah555_main,6d656e6f-7261-4683-9535-355f6d61696e,B*%
%TF.SameCoordinates,Original*%
%TF.FileFunction,Copper,L2,Bot*%
%TF.FilePolarity,Positive*%
%FSLAX46Y46*%
G04 Gerber Fmt 4.6, Leading zero omitted, Abs format (unit mm)*
G04 Created by KiCad (PCBNEW 6.0.2-378541a8eb~116~ubuntu20.04.1) date 2022-02-19 20:17:05*
%MOMM*%
%LPD*%
G01*
G04 APERTURE LIST*
G04 Aperture macros list*
%AMRoundRect*
0 Rectangle with rounded corners*
0 $1 Rounding radius*
0 $2 $3 $4 $5 $6 $7 $8 $9 X,Y pos of 4 corners*
0 Add a 4 corners polygon primitive as box body*
4,1,4,$2,$3,$4,$5,$6,$7,$8,$9,$2,$3,0*
0 Add four circle primitives for the rounded corners*
1,1,$1+$1,$2,$3*
1,1,$1+$1,$4,$5*
1,1,$1+$1,$6,$7*
1,1,$1+$1,$8,$9*
0 Add four rect primitives between the rounded corners*
20,1,$1+$1,$2,$3,$4,$5,0*
20,1,$1+$1,$4,$5,$6,$7,0*
20,1,$1+$1,$6,$7,$8,$9,0*
20,1,$1+$1,$8,$9,$2,$3,0*%
G04 Aperture macros list end*
%TA.AperFunction,Profile*%
%ADD10C,0.050000*%
%TD*%
%ADD11C,0.300000*%
%TA.AperFunction,NonConductor*%
%ADD12C,0.300000*%
%TD*%
%TA.AperFunction,ComponentPad*%
%ADD13R,1.600000X1.600000*%
%TD*%
%TA.AperFunction,ComponentPad*%
%ADD14C,1.600000*%
%TD*%
%TA.AperFunction,ComponentPad*%
%ADD15R,1.500000X2.500000*%
%TD*%
%TA.AperFunction,ComponentPad*%
%ADD16O,1.500000X2.500000*%
%TD*%
%TA.AperFunction,ComponentPad*%
%ADD17O,4.000000X2.800000*%
%TD*%
%TA.AperFunction,ComponentPad*%
%ADD18RoundRect,0.700000X-1.800000X0.700000X-1.800000X-0.700000X1.800000X-0.700000X1.800000X0.700000X0*%
%TD*%
%TA.AperFunction,ComponentPad*%
%ADD19RoundRect,0.700000X-0.700000X1.800000X-0.700000X-1.800000X0.700000X-1.800000X0.700000X1.800000X0*%
%TD*%
%TA.AperFunction,ComponentPad*%
%ADD20O,0.650000X1.300000*%
%TD*%
%TA.AperFunction,ComponentPad*%
%ADD21O,1.550000X0.775000*%
%TD*%
%TA.AperFunction,ViaPad*%
%ADD22C,1.000000*%
%TD*%
%TA.AperFunction,Conductor*%
%ADD23C,0.600000*%
%TD*%
G04 APERTURE END LIST*
D10*
X136400000Y-80000000D02*
G75*
G03*
X135400000Y-81000000I-1J-999999D01*
G01*
X175600000Y-69400000D02*
X175600000Y-133660000D01*
X85600000Y-122000000D02*
X85600000Y-183260000D01*
X85600000Y-122000000D02*
G75*
G03*
X84600000Y-121000000I-999999J1D01*
G01*
X76400000Y-121000000D02*
X84600000Y-121000000D01*
X76400000Y-121000000D02*
G75*
G03*
X75400000Y-122000000I-1J-999999D01*
G01*
X75400000Y-195370000D02*
X75400000Y-122000000D01*
X136400000Y-80000000D02*
X144600000Y-80000000D01*
X166400000Y-68400000D02*
G75*
G03*
X165400000Y-69400000I-1J-999999D01*
G01*
X165400000Y-137370000D02*
X165400000Y-69400000D01*
X115600000Y-98000000D02*
G75*
G03*
X114600000Y-97000000I-999999J1D01*
G01*
X166400000Y-68400000D02*
X174600000Y-68400000D01*
X115600000Y-98000000D02*
X115600000Y-160230000D01*
X145600000Y-81000000D02*
X145600000Y-144230000D01*
X175600000Y-69400000D02*
G75*
G03*
X174600000Y-68400000I-999999J1D01*
G01*
X105400000Y-168610000D02*
X105400000Y-98000000D01*
X135400000Y-150010000D02*
X135400000Y-81000000D01*
X106400000Y-97000000D02*
X114600000Y-97000000D01*
X145600000Y-81000000D02*
G75*
G03*
X144600000Y-80000000I-999999J1D01*
G01*
X106400000Y-97000000D02*
G75*
G03*
X105400000Y-98000000I-1J-999999D01*
G01*
X256400000Y-60800000D02*
G75*
G03*
X255400000Y-61800000I-1J-999999D01*
G01*
X295600000Y-67400000D02*
G75*
G03*
X294600000Y-66400000I-999999J1D01*
G01*
X256400000Y-60800000D02*
X264600000Y-60800000D01*
X285400000Y-131970000D02*
X285400000Y-67400000D01*
X255400000Y-126990000D02*
X255400000Y-61800000D01*
X325600000Y-78200000D02*
G75*
G03*
X324600000Y-77200000I-999999J1D01*
G01*
X295600000Y-67400000D02*
X295600000Y-135260000D01*
X265600000Y-61800000D02*
X265600000Y-128500000D01*
X316400000Y-77200000D02*
X324600000Y-77200000D01*
X265600000Y-61800000D02*
G75*
G03*
X264600000Y-60800000I-999999J1D01*
G01*
X315400000Y-141470000D02*
X315400000Y-78200000D01*
X316400000Y-77200000D02*
G75*
G03*
X315400000Y-78200000I-1J-999999D01*
G01*
X286400000Y-66400000D02*
X294600000Y-66400000D01*
X225400000Y-126220000D02*
X225400000Y-59800000D01*
X226400000Y-58800000D02*
G75*
G03*
X225400000Y-59800000I-1J-999999D01*
G01*
X226400000Y-58800000D02*
X234600000Y-58800000D01*
X235600000Y-59800000D02*
G75*
G03*
X234600000Y-58800000I-999999J1D01*
G01*
X235600000Y-59800000D02*
X235600000Y-126030000D01*
X325600000Y-78200000D02*
X325600000Y-146760000D01*
X286400000Y-66400000D02*
G75*
G03*
X285400000Y-67400000I-1J-999999D01*
G01*
X57820001Y-217140001D02*
G75*
G03*
X64760000Y-223900000I3975144J-2861404D01*
G01*
X64760000Y-223900000D02*
X64850309Y-223837228D01*
X327511852Y-223813089D02*
X327603497Y-223876946D01*
X333030000Y-211510000D02*
G75*
G03*
X335030000Y-217906000I95667512J26404099D01*
G01*
X331600000Y-210800000D02*
X332087372Y-210808006D01*
X333030001Y-211510000D02*
G75*
G03*
X332087372Y-210808006I-942667J-281929D01*
G01*
X189763573Y-132674026D02*
G75*
G03*
X191700000Y-134200000I1847626J352968D01*
G01*
X209300000Y-134200000D02*
G75*
G03*
X211300000Y-132200000I1J1999999D01*
G01*
X211300000Y-132200000D02*
X211291664Y-129122633D01*
X74841689Y-196355905D02*
G75*
G03*
X57820000Y-217140000I159055385J-147624881D01*
G01*
X104929919Y-169458048D02*
G75*
G03*
X105400000Y-168610000I-529915J848046D01*
G01*
X145600000Y-144230000D02*
G75*
G03*
X147022618Y-145136308I1000000J0D01*
G01*
X175600001Y-133660000D02*
G75*
G03*
X176925568Y-134605519I999999J-1D01*
G01*
X235600000Y-126030000D02*
G75*
G03*
X236634899Y-127029391I999999J-1D01*
G01*
X265600001Y-128500000D02*
G75*
G03*
X266392088Y-129478148I999999J-1D01*
G01*
X295600000Y-135260000D02*
G75*
G03*
X296341181Y-136225926I1000000J0D01*
G01*
X325599999Y-146760000D02*
G75*
G03*
X326209269Y-147680505I1000000J0D01*
G01*
X134929919Y-150858048D02*
G75*
G03*
X135400000Y-150010000I-529915J848046D01*
G01*
X164658819Y-138335925D02*
G75*
G03*
X165400000Y-137370000I-258821J965927D01*
G01*
X224573648Y-127204809D02*
G75*
G03*
X225400000Y-126220000I-173649J984809D01*
G01*
X254312844Y-127986195D02*
G75*
G03*
X255400000Y-126990000I87155J996196D01*
G01*
X284141181Y-132935926D02*
G75*
G03*
X285400000Y-131970000I258818J965927D01*
G01*
X313977382Y-142376308D02*
G75*
G03*
X315400000Y-141470000I422618J906308D01*
G01*
X87600000Y-183700000D02*
X87294658Y-183979340D01*
X75069131Y-196113145D02*
X74841689Y-196355905D01*
X104841866Y-169519312D02*
X104929919Y-169458048D01*
X134801847Y-150922131D02*
G75*
G03*
X117400000Y-160900000I99088026J-192977653D01*
G01*
X134929919Y-150858048D02*
X134801847Y-150922131D01*
X117400000Y-160900000D02*
X117229320Y-161007146D01*
X164398003Y-138414929D02*
G75*
G03*
X147100000Y-145100000I69471878J-205484773D01*
G01*
X164658819Y-138335926D02*
X164398003Y-138414929D01*
X147100000Y-145100000D02*
X147022618Y-145136308D01*
X188487912Y-131807078D02*
G75*
G03*
X177300000Y-134500000I43093575J-203621836D01*
G01*
X177300000Y-134500000D02*
X176925568Y-134605519D01*
X224310641Y-127212249D02*
G75*
G03*
X212200000Y-128100000I9201387J-208574882D01*
G01*
X224310641Y-127212249D02*
X224573648Y-127204808D01*
X253945960Y-127939407D02*
G75*
G03*
X236940000Y-127030000I-20075998J-215961356D01*
G01*
X236634899Y-127029391D02*
X236940000Y-127030000D01*
X253945960Y-127939407D02*
X254312844Y-127986195D01*
X283817199Y-132845881D02*
G75*
G03*
X266730000Y-129520000I-49947117J-211053672D01*
G01*
X266392088Y-129478148D02*
X266730000Y-129520000D01*
X283817199Y-132845881D02*
X284141181Y-132935926D01*
X313693401Y-142252243D02*
G75*
G03*
X296540000Y-136280000I-79823297J-201647453D01*
G01*
X296341181Y-136225926D02*
X296540000Y-136280000D01*
X313693401Y-142252243D02*
X313977382Y-142376308D01*
X334280000Y-151700000D02*
G75*
G03*
X326209269Y-147680505I-54259472J-98835073D01*
G01*
X330600000Y-208000000D02*
X330600000Y-209800000D01*
X334710000Y-152940000D02*
G75*
G03*
X334280000Y-151700000I-978203J355341D01*
G01*
X85600000Y-183260000D02*
G75*
G03*
X87294658Y-183979340I1000000J0D01*
G01*
X75069131Y-196113145D02*
G75*
G03*
X75400000Y-195370000I-669140J743149D01*
G01*
X330600000Y-209800000D02*
G75*
G03*
X331600000Y-210800000I999999J-1D01*
G01*
X334710000Y-152940000D02*
G75*
G03*
X330600000Y-200200000I94502379J-32027182D01*
G01*
X212200000Y-128100000D02*
G75*
G03*
X211291664Y-129122633I65243J-972674D01*
G01*
X327511852Y-223813089D02*
G75*
G03*
X64850309Y-223837228I-131313662J-186189469D01*
G01*
X327603497Y-223876946D02*
G75*
G03*
X335030000Y-217906000I2996503J3876946D01*
G01*
X115600000Y-160230000D02*
G75*
G03*
X117229320Y-161007146I1000000J0D01*
G01*
X104841866Y-169519312D02*
G75*
G03*
X87600000Y-183700000I128968223J-174380802D01*
G01*
X191700000Y-134200000D02*
X209300000Y-134200000D01*
X189763573Y-132674026D02*
G75*
G03*
X188487912Y-131807078I-995660J-93051D01*
G01*
X330600000Y-208000000D02*
X330600000Y-200200000D01*
D11*
D12*
X331290000Y-214018571D02*
X331290000Y-212518571D01*
X330718571Y-212518571D01*
X330575714Y-212590000D01*
X330504285Y-212661428D01*
X330432857Y-212804285D01*
X330432857Y-213018571D01*
X330504285Y-213161428D01*
X330575714Y-213232857D01*
X330718571Y-213304285D01*
X331290000Y-213304285D01*
X328932857Y-213875714D02*
X329004285Y-213947142D01*
X329218571Y-214018571D01*
X329361428Y-214018571D01*
X329575714Y-213947142D01*
X329718571Y-213804285D01*
X329790000Y-213661428D01*
X329861428Y-213375714D01*
X329861428Y-213161428D01*
X329790000Y-212875714D01*
X329718571Y-212732857D01*
X329575714Y-212590000D01*
X329361428Y-212518571D01*
X329218571Y-212518571D01*
X329004285Y-212590000D01*
X328932857Y-212661428D01*
X327790000Y-213232857D02*
X327575714Y-213304285D01*
X327504285Y-213375714D01*
X327432857Y-213518571D01*
X327432857Y-213732857D01*
X327504285Y-213875714D01*
X327575714Y-213947142D01*
X327718571Y-214018571D01*
X328290000Y-214018571D01*
X328290000Y-212518571D01*
X327790000Y-212518571D01*
X327647142Y-212590000D01*
X327575714Y-212661428D01*
X327504285Y-212804285D01*
X327504285Y-212947142D01*
X327575714Y-213090000D01*
X327647142Y-213161428D01*
X327790000Y-213232857D01*
X328290000Y-213232857D01*
X326861428Y-212661428D02*
X326790000Y-212590000D01*
X326647142Y-212518571D01*
X326290000Y-212518571D01*
X326147142Y-212590000D01*
X326075714Y-212661428D01*
X326004285Y-212804285D01*
X326004285Y-212947142D01*
X326075714Y-213161428D01*
X326932857Y-214018571D01*
X326004285Y-214018571D01*
X325075714Y-212518571D02*
X324932857Y-212518571D01*
X324790000Y-212590000D01*
X324718571Y-212661428D01*
X324647142Y-212804285D01*
X324575714Y-213090000D01*
X324575714Y-213447142D01*
X324647142Y-213732857D01*
X324718571Y-213875714D01*
X324790000Y-213947142D01*
X324932857Y-214018571D01*
X325075714Y-214018571D01*
X325218571Y-213947142D01*
X325290000Y-213875714D01*
X325361428Y-213732857D01*
X325432857Y-213447142D01*
X325432857Y-213090000D01*
X325361428Y-212804285D01*
X325290000Y-212661428D01*
X325218571Y-212590000D01*
X325075714Y-212518571D01*
X323647142Y-212518571D02*
X323504285Y-212518571D01*
X323361428Y-212590000D01*
X323290000Y-212661428D01*
X323218571Y-212804285D01*
X323147142Y-213090000D01*
X323147142Y-213447142D01*
X323218571Y-213732857D01*
X323290000Y-213875714D01*
X323361428Y-213947142D01*
X323504285Y-214018571D01*
X323647142Y-214018571D01*
X323790000Y-213947142D01*
X323861428Y-213875714D01*
X323932857Y-213732857D01*
X324004285Y-213447142D01*
X324004285Y-213090000D01*
X323932857Y-212804285D01*
X323861428Y-212661428D01*
X323790000Y-212590000D01*
X323647142Y-212518571D01*
X322575714Y-212661428D02*
X322504285Y-212590000D01*
X322361428Y-212518571D01*
X322004285Y-212518571D01*
X321861428Y-212590000D01*
X321790000Y-212661428D01*
X321718571Y-212804285D01*
X321718571Y-212947142D01*
X321790000Y-213161428D01*
X322647142Y-214018571D01*
X321718571Y-214018571D01*
X320575714Y-213232857D02*
X320361428Y-213304285D01*
X320290000Y-213375714D01*
X320218571Y-213518571D01*
X320218571Y-213732857D01*
X320290000Y-213875714D01*
X320361428Y-213947142D01*
X320504285Y-214018571D01*
X321075714Y-214018571D01*
X321075714Y-212518571D01*
X320575714Y-212518571D01*
X320432857Y-212590000D01*
X320361428Y-212661428D01*
X320290000Y-212804285D01*
X320290000Y-212947142D01*
X320361428Y-213090000D01*
X320432857Y-213161428D01*
X320575714Y-213232857D01*
X321075714Y-213232857D01*
D13*
%TO.P,C9,1*%
%TO.N,+5V*%
X82250000Y-163800000D03*
D14*
%TO.P,C9,2*%
%TO.N,GND*%
X78750000Y-163800000D03*
%TD*%
D13*
%TO.P,C12,1*%
%TO.N,+5V*%
X172250000Y-111200000D03*
D14*
%TO.P,C12,2*%
%TO.N,GND*%
X168750000Y-111200000D03*
%TD*%
D13*
%TO.P,C10,1*%
%TO.N,+5V*%
X112250000Y-139800000D03*
D14*
%TO.P,C10,2*%
%TO.N,GND*%
X108750000Y-139800000D03*
%TD*%
D13*
%TO.P,C11,1*%
%TO.N,+5V*%
X142250000Y-122800000D03*
D14*
%TO.P,C11,2*%
%TO.N,GND*%
X138750000Y-122800000D03*
%TD*%
D13*
%TO.P,C15,1*%
%TO.N,+5V*%
X292250000Y-109200000D03*
D14*
%TO.P,C15,2*%
%TO.N,GND*%
X288750000Y-109200000D03*
%TD*%
D13*
%TO.P,C14,1*%
%TO.N,+5V*%
X262250000Y-103600000D03*
D14*
%TO.P,C14,2*%
%TO.N,GND*%
X258750000Y-103600000D03*
%TD*%
D13*
%TO.P,C16,1*%
%TO.N,+5V*%
X322250000Y-120000000D03*
D14*
%TO.P,C16,2*%
%TO.N,GND*%
X318750000Y-120000000D03*
%TD*%
D13*
%TO.P,C13,1*%
%TO.N,+5V*%
X232250000Y-101600000D03*
D14*
%TO.P,C13,2*%
%TO.N,GND*%
X228750000Y-101600000D03*
%TD*%
D15*
%TO.P,SW9,1,A*%
%TO.N,/V5_IN*%
X324650000Y-173200000D03*
D16*
%TO.P,SW9,2,B*%
%TO.N,+5V*%
X324650000Y-177200000D03*
%TO.P,SW9,3,C*%
%TO.N,GND*%
X324650000Y-181200000D03*
%TO.P,SW9,4,A*%
%TO.N,/V5_IN*%
X322150000Y-173200000D03*
%TO.P,SW9,5,B*%
%TO.N,+5V*%
X322150000Y-177200000D03*
%TO.P,SW9,6,C*%
%TO.N,GND*%
X322150000Y-181200000D03*
D17*
%TO.P,SW9,M,M*%
X323400000Y-168950000D03*
X323400000Y-185450000D03*
%TD*%
D13*
%TO.P,C18,1*%
%TO.N,Net-(C18-Pad1)*%
X288720000Y-153570000D03*
D14*
%TO.P,C18,2*%
%TO.N,GND*%
X288720000Y-155570000D03*
%TD*%
D18*
%TO.P,J2,1*%
%TO.N,Net-(D10-Pad2)*%
X200500000Y-150500000D03*
%TO.P,J2,2*%
%TO.N,GND*%
X200500000Y-144500000D03*
D19*
%TO.P,J2,3*%
%TO.N,unconnected-(J2-Pad3)*%
X195900000Y-147500000D03*
%TD*%
D20*
%TO.P,J1,S1,Shield*%
%TO.N,GND*%
X326150000Y-207700000D03*
%TO.P,J1,S2,Shield*%
X326150000Y-202700000D03*
D21*
%TO.P,J1,S3,Shield*%
X328850000Y-208700000D03*
%TO.P,J1,S6,Shield*%
X328850000Y-201700000D03*
%TD*%
D22*
%TO.N,GND*%
X170000000Y-83000000D03*
X174400000Y-115400000D03*
X84400000Y-168000000D03*
X84200000Y-135400000D03*
X106600000Y-98200000D03*
X144400000Y-127000000D03*
X144200000Y-94400000D03*
X110100000Y-111800000D03*
X136600000Y-81300000D03*
X140100000Y-94900000D03*
X141224000Y-106426000D03*
X81000000Y-148000000D03*
X174200000Y-82800000D03*
X76800000Y-168000000D03*
X114400000Y-144000000D03*
X166800000Y-115400000D03*
X114200000Y-111400000D03*
X76600000Y-122200000D03*
X111490000Y-123530000D03*
X136800000Y-127000000D03*
X170942000Y-94742000D03*
X80100000Y-135700000D03*
X106800000Y-144000000D03*
X166700000Y-69600000D03*
X316600000Y-78400000D03*
X256800000Y-107800000D03*
X230200000Y-73700000D03*
X321056000Y-103378000D03*
X286800000Y-113400000D03*
X261112000Y-86868000D03*
X226600000Y-59900000D03*
X264200000Y-75200000D03*
X316800000Y-124200000D03*
X264400000Y-107800000D03*
X226800000Y-105800000D03*
X324200000Y-91600000D03*
X231000000Y-84836000D03*
X291000000Y-92456000D03*
X290300000Y-81300000D03*
X286600000Y-67600000D03*
X260100000Y-75500000D03*
X294200000Y-80800000D03*
X294400000Y-113400000D03*
X256700000Y-62000000D03*
X234200000Y-73200000D03*
X234400000Y-105800000D03*
X324400000Y-124200000D03*
X320300000Y-92400000D03*
X228100000Y-133200000D03*
X323900000Y-144200000D03*
X216900000Y-133300000D03*
X258700000Y-133100000D03*
X303700000Y-147300000D03*
X62500000Y-215500000D03*
X230600000Y-140200000D03*
X264200000Y-133100000D03*
X291200000Y-143400000D03*
X174100000Y-139200000D03*
X318600000Y-173300000D03*
X259700000Y-140200000D03*
X331500000Y-216000000D03*
X216200000Y-137400000D03*
X114000000Y-163900000D03*
X324200000Y-203850000D03*
X205300000Y-138500000D03*
X144200000Y-145400000D03*
X316900000Y-143200000D03*
X170300000Y-144100000D03*
X320400000Y-147400000D03*
X234500000Y-133200000D03*
X141400000Y-152900000D03*
X119000000Y-167700000D03*
X168600000Y-139100000D03*
X293700000Y-133900000D03*
X288500000Y-133200000D03*
X108400000Y-164700000D03*
X138700000Y-148400000D03*
X290700000Y-150700000D03*
%TO.N,+5V*%
X289225000Y-147640000D03*
X285415000Y-147640000D03*
X295900000Y-144400000D03*
X299141416Y-141458584D03*
%TO.N,/RST_N*%
X169600000Y-102200000D03*
X109600000Y-130800000D03*
X139600000Y-113800000D03*
X79600000Y-154800000D03*
X229600000Y-92600000D03*
X289600000Y-100200000D03*
X259600000Y-94600000D03*
X319600000Y-111000000D03*
X80400000Y-183100000D03*
X170400000Y-141812495D03*
X230400000Y-136000000D03*
X317800000Y-146500000D03*
X110442463Y-168442463D03*
X260400000Y-135900000D03*
X140000000Y-151700000D03*
X290400000Y-136000000D03*
X291600000Y-139200000D03*
%TD*%
D23*
%TO.N,+5V*%
X285415000Y-147640000D02*
X289225000Y-147640000D01*
X296200000Y-144400000D02*
X299141416Y-141458584D01*
X295900000Y-144400000D02*
X296200000Y-144400000D01*
%TO.N,/RST_N*%
X79600000Y-154800000D02*
X80400000Y-155600000D01*
X109600000Y-130800000D02*
X110400000Y-131600000D01*
X139600000Y-113800000D02*
X140400000Y-114600000D01*
X289600000Y-100200000D02*
X290400000Y-101000000D01*
X290400000Y-101000000D02*
X290400000Y-133400002D01*
X140400000Y-114600000D02*
X140400000Y-144900000D01*
X260400000Y-95400000D02*
X259600000Y-94600000D01*
X320400000Y-111800000D02*
X320400000Y-143900000D01*
X140400000Y-151300000D02*
X140400000Y-145300000D01*
X140000000Y-151700000D02*
X140400000Y-151300000D01*
X230400000Y-93400000D02*
X229600000Y-92600000D01*
X170400000Y-103000000D02*
X169600000Y-102200000D01*
X110400000Y-160800000D02*
X110400000Y-168400000D01*
X170400000Y-141800000D02*
X170400000Y-103000000D01*
X319600000Y-111000000D02*
X320400000Y-111800000D01*
X230400000Y-132500000D02*
X230400000Y-136000000D01*
X230400000Y-132500000D02*
X230400000Y-130300000D01*
X320400000Y-143900000D02*
X317800000Y-146500000D01*
X290400000Y-138000000D02*
X291600000Y-139200000D01*
X260400000Y-135800000D02*
X260400000Y-95400000D01*
X290400000Y-133400002D02*
X290400000Y-136000000D01*
X110400000Y-168400000D02*
X110442463Y-168442463D01*
X80400000Y-155600000D02*
X80400000Y-183100000D01*
X140400000Y-145300000D02*
X140400000Y-144900000D01*
X110400000Y-131600000D02*
X110400000Y-160800000D01*
X290400000Y-136000000D02*
X290400000Y-138000000D01*
X230400000Y-130300000D02*
X230400000Y-93400000D01*
%TD*%
%TA.AperFunction,Conductor*%
%TO.N,GND*%
G36*
X234587153Y-59056421D02*
G01*
X234600000Y-59058976D01*
X234612172Y-59056555D01*
X234619754Y-59056555D01*
X234632104Y-59057162D01*
X234733188Y-59067118D01*
X234757408Y-59071935D01*
X234873617Y-59107187D01*
X234896418Y-59116631D01*
X235003517Y-59173876D01*
X235024047Y-59187594D01*
X235117909Y-59264626D01*
X235135374Y-59282091D01*
X235212406Y-59375953D01*
X235226124Y-59396483D01*
X235283369Y-59503582D01*
X235292813Y-59526383D01*
X235328065Y-59642592D01*
X235332882Y-59666812D01*
X235342838Y-59767896D01*
X235343445Y-59780246D01*
X235343445Y-59787828D01*
X235341024Y-59800000D01*
X235343445Y-59812170D01*
X235343579Y-59812844D01*
X235346000Y-59837425D01*
X235346000Y-125992575D01*
X235343579Y-126017153D01*
X235341024Y-126030000D01*
X235342529Y-126037564D01*
X235351103Y-126144141D01*
X235357207Y-126220000D01*
X235358103Y-126231143D01*
X235406238Y-126427112D01*
X235408213Y-126431764D01*
X235408214Y-126431768D01*
X235465459Y-126566628D01*
X235485085Y-126612863D01*
X235592615Y-126783620D01*
X235726064Y-126934987D01*
X235881996Y-127063072D01*
X236056401Y-127164578D01*
X236129057Y-127192468D01*
X236240067Y-127235081D01*
X236240071Y-127235082D01*
X236244791Y-127236894D01*
X236249741Y-127237928D01*
X236249744Y-127237929D01*
X236437369Y-127277126D01*
X236437373Y-127277126D01*
X236442320Y-127278160D01*
X236612422Y-127285884D01*
X236625823Y-127286493D01*
X236636328Y-127286970D01*
X236643937Y-127288209D01*
X236656016Y-127285365D01*
X236665370Y-127285038D01*
X236678907Y-127283479D01*
X236812251Y-127283745D01*
X236899731Y-127283920D01*
X236922338Y-127286331D01*
X236924201Y-127286357D01*
X236936334Y-127288950D01*
X236948534Y-127286702D01*
X236948924Y-127286708D01*
X236973491Y-127284708D01*
X237989495Y-127304792D01*
X239365804Y-127331999D01*
X239367217Y-127332034D01*
X241795394Y-127407295D01*
X241796807Y-127407347D01*
X244223901Y-127509844D01*
X244225313Y-127509912D01*
X246163859Y-127613576D01*
X246651021Y-127639628D01*
X246652415Y-127639710D01*
X249076625Y-127796641D01*
X249078011Y-127796738D01*
X251500313Y-127980860D01*
X251501683Y-127980971D01*
X251849253Y-128011316D01*
X253885497Y-128189091D01*
X253909701Y-128193697D01*
X253910094Y-128193734D01*
X253921989Y-128197271D01*
X253934330Y-128195987D01*
X253942642Y-128196760D01*
X253957460Y-128196931D01*
X254251105Y-128234379D01*
X254270418Y-128238399D01*
X254290273Y-128244186D01*
X254296211Y-128243536D01*
X254307664Y-128243586D01*
X254349184Y-128243767D01*
X254498725Y-128244419D01*
X254704410Y-128210921D01*
X254901745Y-128143935D01*
X255085318Y-128045297D01*
X255250093Y-127917714D01*
X255391552Y-127764685D01*
X255410185Y-127736266D01*
X255502944Y-127594784D01*
X255505813Y-127590408D01*
X255586064Y-127408025D01*
X255587639Y-127404446D01*
X255589744Y-127399662D01*
X255641041Y-127197679D01*
X255657812Y-126995854D01*
X255658976Y-126990000D01*
X255656421Y-126977153D01*
X255654000Y-126952575D01*
X255654000Y-104686062D01*
X258028493Y-104686062D01*
X258037789Y-104698077D01*
X258088994Y-104733931D01*
X258098489Y-104739414D01*
X258295947Y-104831490D01*
X258306239Y-104835236D01*
X258516688Y-104891625D01*
X258527481Y-104893528D01*
X258744525Y-104912517D01*
X258755475Y-104912517D01*
X258972519Y-104893528D01*
X258983312Y-104891625D01*
X259193761Y-104835236D01*
X259204053Y-104831490D01*
X259401511Y-104739414D01*
X259411006Y-104733931D01*
X259463048Y-104697491D01*
X259471424Y-104687012D01*
X259464356Y-104673566D01*
X258762812Y-103972022D01*
X258748868Y-103964408D01*
X258747035Y-103964539D01*
X258740420Y-103968790D01*
X258034923Y-104674287D01*
X258028493Y-104686062D01*
X255654000Y-104686062D01*
X255654000Y-103605475D01*
X257437483Y-103605475D01*
X257456472Y-103822519D01*
X257458375Y-103833312D01*
X257514764Y-104043761D01*
X257518510Y-104054053D01*
X257610586Y-104251511D01*
X257616069Y-104261006D01*
X257652509Y-104313048D01*
X257662988Y-104321424D01*
X257676434Y-104314356D01*
X258377978Y-103612812D01*
X258385592Y-103598868D01*
X258385461Y-103597035D01*
X258381210Y-103590420D01*
X257675713Y-102884923D01*
X257663938Y-102878493D01*
X257651923Y-102887789D01*
X257616069Y-102938994D01*
X257610586Y-102948489D01*
X257518510Y-103145947D01*
X257514764Y-103156239D01*
X257458375Y-103366688D01*
X257456472Y-103377481D01*
X257437483Y-103594525D01*
X257437483Y-103605475D01*
X255654000Y-103605475D01*
X255654000Y-102512988D01*
X258028576Y-102512988D01*
X258035644Y-102526434D01*
X258737188Y-103227978D01*
X258751132Y-103235592D01*
X258752965Y-103235461D01*
X258759580Y-103231210D01*
X259465077Y-102525713D01*
X259471507Y-102513938D01*
X259462211Y-102501923D01*
X259411006Y-102466069D01*
X259401511Y-102460586D01*
X259204053Y-102368510D01*
X259193761Y-102364764D01*
X258983312Y-102308375D01*
X258972519Y-102306472D01*
X258755475Y-102287483D01*
X258744525Y-102287483D01*
X258527481Y-102306472D01*
X258516688Y-102308375D01*
X258306239Y-102364764D01*
X258295947Y-102368510D01*
X258098489Y-102460586D01*
X258088994Y-102466069D01*
X258036952Y-102502509D01*
X258028576Y-102512988D01*
X255654000Y-102512988D01*
X255654000Y-94589399D01*
X258840800Y-94589399D01*
X258857318Y-94757862D01*
X258910748Y-94918479D01*
X258914397Y-94924504D01*
X258974391Y-95023565D01*
X258998435Y-95063267D01*
X259003326Y-95068332D01*
X259003327Y-95068333D01*
X259037171Y-95103379D01*
X259116021Y-95185031D01*
X259257660Y-95277717D01*
X259416315Y-95336720D01*
X259423296Y-95337651D01*
X259423298Y-95337652D01*
X259466122Y-95343366D01*
X259531241Y-95352055D01*
X259596117Y-95380889D01*
X259603671Y-95387852D01*
X259808595Y-95592776D01*
X259842621Y-95655088D01*
X259845500Y-95681871D01*
X259845500Y-102811520D01*
X259825498Y-102879641D01*
X259808595Y-102900615D01*
X259122022Y-103587188D01*
X259114408Y-103601132D01*
X259114539Y-103602965D01*
X259118790Y-103609580D01*
X259808595Y-104299385D01*
X259842621Y-104361697D01*
X259845500Y-104388480D01*
X259845500Y-135334933D01*
X259825498Y-135403054D01*
X259817143Y-135414568D01*
X259816634Y-135415192D01*
X259811605Y-135420117D01*
X259719909Y-135562400D01*
X259717498Y-135569025D01*
X259664425Y-135714840D01*
X259664424Y-135714845D01*
X259662015Y-135721463D01*
X259640800Y-135889399D01*
X259657318Y-136057862D01*
X259710748Y-136218479D01*
X259714397Y-136224504D01*
X259792178Y-136352935D01*
X259798435Y-136363267D01*
X259803326Y-136368332D01*
X259803327Y-136368333D01*
X259827062Y-136392911D01*
X259916021Y-136485031D01*
X260057660Y-136577717D01*
X260216315Y-136636720D01*
X260223296Y-136637651D01*
X260223298Y-136637652D01*
X260377118Y-136658176D01*
X260377122Y-136658176D01*
X260384099Y-136659107D01*
X260391110Y-136658469D01*
X260391114Y-136658469D01*
X260545652Y-136644405D01*
X260552673Y-136643766D01*
X260713659Y-136591458D01*
X260832989Y-136520323D01*
X260853004Y-136508392D01*
X260853006Y-136508391D01*
X260859056Y-136504784D01*
X260981638Y-136388052D01*
X260985539Y-136382181D01*
X261071410Y-136252935D01*
X261071411Y-136252933D01*
X261075311Y-136247063D01*
X261135420Y-136088824D01*
X261149393Y-135989399D01*
X261158427Y-135925123D01*
X261158427Y-135925118D01*
X261158978Y-135921200D01*
X261159274Y-135900000D01*
X261140406Y-135731784D01*
X261084738Y-135571929D01*
X260995038Y-135428379D01*
X260990074Y-135423381D01*
X260985698Y-135417859D01*
X260986992Y-135416834D01*
X260957286Y-135361971D01*
X260954500Y-135335623D01*
X260954500Y-104492773D01*
X260974502Y-104424652D01*
X261028158Y-104378159D01*
X261098432Y-104368055D01*
X261163012Y-104397549D01*
X261201396Y-104457275D01*
X261204079Y-104468193D01*
X261210266Y-104499301D01*
X261266516Y-104583484D01*
X261350699Y-104639734D01*
X261424933Y-104654500D01*
X262249866Y-104654500D01*
X263075066Y-104654499D01*
X263110818Y-104647388D01*
X263137126Y-104642156D01*
X263137128Y-104642155D01*
X263149301Y-104639734D01*
X263159621Y-104632839D01*
X263159622Y-104632838D01*
X263223168Y-104590377D01*
X263233484Y-104583484D01*
X263289734Y-104499301D01*
X263304500Y-104425067D01*
X263304499Y-102774934D01*
X263296344Y-102733931D01*
X263292156Y-102712874D01*
X263292155Y-102712872D01*
X263289734Y-102700699D01*
X263282243Y-102689487D01*
X263240377Y-102626832D01*
X263233484Y-102616516D01*
X263149301Y-102560266D01*
X263075067Y-102545500D01*
X262250134Y-102545500D01*
X261424934Y-102545501D01*
X261389182Y-102552612D01*
X261362874Y-102557844D01*
X261362872Y-102557845D01*
X261350699Y-102560266D01*
X261340379Y-102567161D01*
X261340378Y-102567162D01*
X261315951Y-102583484D01*
X261266516Y-102616516D01*
X261210266Y-102700699D01*
X261206837Y-102717937D01*
X261204079Y-102731803D01*
X261171171Y-102794713D01*
X261109476Y-102829845D01*
X261038582Y-102826045D01*
X260980996Y-102784519D01*
X260955001Y-102718452D01*
X260954500Y-102707222D01*
X260954500Y-95415065D01*
X260954611Y-95409789D01*
X260956869Y-95355910D01*
X260957229Y-95347326D01*
X260955268Y-95338964D01*
X260955267Y-95338958D01*
X260947211Y-95304613D01*
X260945050Y-95292960D01*
X260939095Y-95249482D01*
X260935682Y-95241595D01*
X260935681Y-95241592D01*
X260933047Y-95235505D01*
X260926013Y-95214239D01*
X260924498Y-95207780D01*
X260922537Y-95199417D01*
X260901397Y-95160963D01*
X260896182Y-95150317D01*
X260882170Y-95117937D01*
X260882168Y-95117933D01*
X260878758Y-95110054D01*
X260869179Y-95098225D01*
X260856688Y-95079637D01*
X260849348Y-95066285D01*
X260842290Y-95058109D01*
X260817547Y-95033366D01*
X260808721Y-95023565D01*
X260788556Y-94998662D01*
X260788553Y-94998659D01*
X260783150Y-94991987D01*
X260767636Y-94980962D01*
X260751536Y-94967355D01*
X260387329Y-94603148D01*
X260353303Y-94540836D01*
X260351209Y-94528098D01*
X260341191Y-94438787D01*
X260340406Y-94431784D01*
X260334506Y-94414840D01*
X260322516Y-94380412D01*
X260284738Y-94271929D01*
X260195038Y-94128379D01*
X260075764Y-94008269D01*
X259932844Y-93917569D01*
X259905442Y-93907812D01*
X259780016Y-93863149D01*
X259780011Y-93863148D01*
X259773381Y-93860787D01*
X259766395Y-93859954D01*
X259766391Y-93859953D01*
X259647287Y-93845751D01*
X259605301Y-93840745D01*
X259598298Y-93841481D01*
X259598297Y-93841481D01*
X259443965Y-93857701D01*
X259443961Y-93857702D01*
X259436957Y-93858438D01*
X259430286Y-93860709D01*
X259283387Y-93910717D01*
X259283384Y-93910718D01*
X259276717Y-93912988D01*
X259270719Y-93916678D01*
X259270717Y-93916679D01*
X259138543Y-93997993D01*
X259138541Y-93997995D01*
X259132544Y-94001684D01*
X259011605Y-94120117D01*
X258919909Y-94262400D01*
X258917498Y-94269025D01*
X258864425Y-94414840D01*
X258864424Y-94414845D01*
X258862015Y-94421463D01*
X258840800Y-94589399D01*
X255654000Y-94589399D01*
X255654000Y-61837425D01*
X255656421Y-61812844D01*
X255656555Y-61812170D01*
X255658976Y-61800000D01*
X255656555Y-61787828D01*
X255656555Y-61780246D01*
X255657162Y-61767896D01*
X255667118Y-61666812D01*
X255671935Y-61642592D01*
X255707187Y-61526383D01*
X255716631Y-61503582D01*
X255773876Y-61396483D01*
X255787594Y-61375953D01*
X255864626Y-61282091D01*
X255882091Y-61264626D01*
X255975953Y-61187594D01*
X255996483Y-61173876D01*
X256103582Y-61116631D01*
X256126383Y-61107187D01*
X256242592Y-61071935D01*
X256266812Y-61067118D01*
X256367896Y-61057162D01*
X256380246Y-61056555D01*
X256387828Y-61056555D01*
X256400000Y-61058976D01*
X256412847Y-61056421D01*
X256437425Y-61054000D01*
X264562575Y-61054000D01*
X264587153Y-61056421D01*
X264600000Y-61058976D01*
X264612172Y-61056555D01*
X264619754Y-61056555D01*
X264632104Y-61057162D01*
X264733188Y-61067118D01*
X264757408Y-61071935D01*
X264873617Y-61107187D01*
X264896418Y-61116631D01*
X265003517Y-61173876D01*
X265024047Y-61187594D01*
X265117909Y-61264626D01*
X265135374Y-61282091D01*
X265212406Y-61375953D01*
X265226124Y-61396483D01*
X265283369Y-61503582D01*
X265292813Y-61526383D01*
X265328065Y-61642592D01*
X265332882Y-61666812D01*
X265342838Y-61767896D01*
X265343445Y-61780246D01*
X265343445Y-61787828D01*
X265341024Y-61800000D01*
X265343445Y-61812170D01*
X265343579Y-61812844D01*
X265346000Y-61837425D01*
X265346000Y-128462575D01*
X265343579Y-128487153D01*
X265341024Y-128500000D01*
X265343384Y-128511865D01*
X265343445Y-128512670D01*
X265343445Y-128515698D01*
X265343959Y-128519454D01*
X265356843Y-128689489D01*
X265399591Y-128874652D01*
X265401347Y-128879073D01*
X265401348Y-128879075D01*
X265458742Y-129023541D01*
X265469753Y-129051258D01*
X265472156Y-129055364D01*
X265472158Y-129055369D01*
X265530210Y-129154581D01*
X265565725Y-129215276D01*
X265685316Y-129362960D01*
X265688834Y-129366164D01*
X265688835Y-129366166D01*
X265822275Y-129487729D01*
X265822280Y-129487733D01*
X265825796Y-129490936D01*
X265983956Y-129596283D01*
X265988265Y-129598292D01*
X265988268Y-129598294D01*
X266151862Y-129674579D01*
X266151866Y-129674581D01*
X266156184Y-129676594D01*
X266319829Y-129724551D01*
X266323399Y-129725836D01*
X266326362Y-129726466D01*
X266327131Y-129726691D01*
X266338244Y-129731465D01*
X266367812Y-129731852D01*
X266381651Y-129732796D01*
X266656140Y-129766793D01*
X266672642Y-129770759D01*
X266679097Y-129771748D01*
X266690763Y-129775986D01*
X266703159Y-129775437D01*
X266703584Y-129775502D01*
X266728142Y-129776897D01*
X268162345Y-130005156D01*
X269144471Y-130161466D01*
X269145897Y-130161701D01*
X270043845Y-130315192D01*
X271593630Y-130580105D01*
X271594969Y-130580342D01*
X272814060Y-130803148D01*
X274037661Y-131026778D01*
X274039081Y-131027046D01*
X276476448Y-131501459D01*
X276477865Y-131501743D01*
X276896377Y-131588196D01*
X278909776Y-132004109D01*
X278911059Y-132004382D01*
X280613441Y-132376456D01*
X281336906Y-132534577D01*
X281338316Y-132534893D01*
X283722565Y-133084720D01*
X283745864Y-133092641D01*
X283746273Y-133092738D01*
X283757558Y-133097896D01*
X283769959Y-133098343D01*
X283779748Y-133100660D01*
X283792410Y-133102620D01*
X284038816Y-133171104D01*
X284060801Y-133179494D01*
X284063026Y-133180591D01*
X284074153Y-133186078D01*
X284080131Y-133186470D01*
X284106188Y-133191171D01*
X284275228Y-133221669D01*
X284275234Y-133221670D01*
X284280391Y-133222600D01*
X284489766Y-133225092D01*
X284580775Y-133210899D01*
X284691470Y-133193637D01*
X284691475Y-133193636D01*
X284696655Y-133192828D01*
X284843483Y-133143959D01*
X284890345Y-133128362D01*
X284890347Y-133128361D01*
X284895329Y-133126703D01*
X284899966Y-133124242D01*
X284899971Y-133124240D01*
X285075650Y-133031008D01*
X285075652Y-133031007D01*
X285080287Y-133028547D01*
X285246407Y-132901079D01*
X285389089Y-132747828D01*
X285504381Y-132573038D01*
X285589092Y-132381549D01*
X285640876Y-132178664D01*
X285642234Y-132162406D01*
X285648311Y-132089616D01*
X285657808Y-131975874D01*
X285658976Y-131970000D01*
X285656421Y-131957153D01*
X285654000Y-131932575D01*
X285654000Y-110286062D01*
X288028493Y-110286062D01*
X288037789Y-110298077D01*
X288088994Y-110333931D01*
X288098489Y-110339414D01*
X288295947Y-110431490D01*
X288306239Y-110435236D01*
X288516688Y-110491625D01*
X288527481Y-110493528D01*
X288744525Y-110512517D01*
X288755475Y-110512517D01*
X288972519Y-110493528D01*
X288983312Y-110491625D01*
X289193761Y-110435236D01*
X289204053Y-110431490D01*
X289401511Y-110339414D01*
X289411006Y-110333931D01*
X289463048Y-110297491D01*
X289471424Y-110287012D01*
X289464356Y-110273566D01*
X288762812Y-109572022D01*
X288748868Y-109564408D01*
X288747035Y-109564539D01*
X288740420Y-109568790D01*
X288034923Y-110274287D01*
X288028493Y-110286062D01*
X285654000Y-110286062D01*
X285654000Y-109205475D01*
X287437483Y-109205475D01*
X287456472Y-109422519D01*
X287458375Y-109433312D01*
X287514764Y-109643761D01*
X287518510Y-109654053D01*
X287610586Y-109851511D01*
X287616069Y-109861006D01*
X287652509Y-109913048D01*
X287662988Y-109921424D01*
X287676434Y-109914356D01*
X288377978Y-109212812D01*
X288385592Y-109198868D01*
X288385461Y-109197035D01*
X288381210Y-109190420D01*
X287675713Y-108484923D01*
X287663938Y-108478493D01*
X287651923Y-108487789D01*
X287616069Y-108538994D01*
X287610586Y-108548489D01*
X287518510Y-108745947D01*
X287514764Y-108756239D01*
X287458375Y-108966688D01*
X287456472Y-108977481D01*
X287437483Y-109194525D01*
X287437483Y-109205475D01*
X285654000Y-109205475D01*
X285654000Y-108112988D01*
X288028576Y-108112988D01*
X288035644Y-108126434D01*
X288737188Y-108827978D01*
X288751132Y-108835592D01*
X288752965Y-108835461D01*
X288759580Y-108831210D01*
X289465077Y-108125713D01*
X289471507Y-108113938D01*
X289462211Y-108101923D01*
X289411006Y-108066069D01*
X289401511Y-108060586D01*
X289204053Y-107968510D01*
X289193761Y-107964764D01*
X288983312Y-107908375D01*
X288972519Y-107906472D01*
X288755475Y-107887483D01*
X288744525Y-107887483D01*
X288527481Y-107906472D01*
X288516688Y-107908375D01*
X288306239Y-107964764D01*
X288295947Y-107968510D01*
X288098489Y-108060586D01*
X288088994Y-108066069D01*
X288036952Y-108102509D01*
X288028576Y-108112988D01*
X285654000Y-108112988D01*
X285654000Y-100189399D01*
X288840800Y-100189399D01*
X288857318Y-100357862D01*
X288910748Y-100518479D01*
X288914397Y-100524504D01*
X288974391Y-100623565D01*
X288998435Y-100663267D01*
X289003326Y-100668332D01*
X289003327Y-100668333D01*
X289034583Y-100700699D01*
X289116021Y-100785031D01*
X289257660Y-100877717D01*
X289416315Y-100936720D01*
X289423296Y-100937651D01*
X289423298Y-100937652D01*
X289466122Y-100943366D01*
X289531241Y-100952055D01*
X289596117Y-100980889D01*
X289603671Y-100987852D01*
X289808595Y-101192776D01*
X289842621Y-101255088D01*
X289845500Y-101281871D01*
X289845500Y-108411520D01*
X289825498Y-108479641D01*
X289808595Y-108500615D01*
X289122022Y-109187188D01*
X289114408Y-109201132D01*
X289114539Y-109202965D01*
X289118790Y-109209580D01*
X289808595Y-109899385D01*
X289842621Y-109961697D01*
X289845500Y-109988480D01*
X289845500Y-135434933D01*
X289825498Y-135503054D01*
X289817143Y-135514568D01*
X289816634Y-135515192D01*
X289811605Y-135520117D01*
X289719909Y-135662400D01*
X289717498Y-135669025D01*
X289664425Y-135814840D01*
X289664424Y-135814845D01*
X289662015Y-135821463D01*
X289640800Y-135989399D01*
X289657318Y-136157862D01*
X289710748Y-136318479D01*
X289798435Y-136463267D01*
X289803326Y-136468332D01*
X289803327Y-136468333D01*
X289810138Y-136475386D01*
X289843069Y-136538283D01*
X289845500Y-136562912D01*
X289845500Y-137984925D01*
X289845390Y-137990201D01*
X289842772Y-138052674D01*
X289844734Y-138061039D01*
X289852788Y-138095378D01*
X289854951Y-138107051D01*
X289860905Y-138150518D01*
X289864317Y-138158402D01*
X289866953Y-138164494D01*
X289873987Y-138185763D01*
X289877463Y-138200583D01*
X289898603Y-138239037D01*
X289903818Y-138249683D01*
X289917830Y-138282063D01*
X289917832Y-138282067D01*
X289921242Y-138289946D01*
X289926646Y-138296619D01*
X289926647Y-138296621D01*
X289930821Y-138301775D01*
X289943312Y-138320363D01*
X289950652Y-138333715D01*
X289957710Y-138341891D01*
X289982453Y-138366634D01*
X289991279Y-138376435D01*
X290011444Y-138401338D01*
X290011447Y-138401341D01*
X290016850Y-138408013D01*
X290023852Y-138412989D01*
X290023853Y-138412990D01*
X290032354Y-138419031D01*
X290048461Y-138432642D01*
X290812767Y-139196949D01*
X290846792Y-139259261D01*
X290849070Y-139273748D01*
X290857318Y-139357862D01*
X290859542Y-139364547D01*
X290859542Y-139364548D01*
X290880642Y-139427978D01*
X290910748Y-139518479D01*
X290998435Y-139663267D01*
X291003326Y-139668332D01*
X291003327Y-139668333D01*
X291027062Y-139692911D01*
X291116021Y-139785031D01*
X291257660Y-139877717D01*
X291416315Y-139936720D01*
X291423296Y-139937651D01*
X291423298Y-139937652D01*
X291577118Y-139958176D01*
X291577122Y-139958176D01*
X291584099Y-139959107D01*
X291591110Y-139958469D01*
X291591114Y-139958469D01*
X291745652Y-139944405D01*
X291752673Y-139943766D01*
X291913659Y-139891458D01*
X292059056Y-139804784D01*
X292181638Y-139688052D01*
X292185539Y-139682181D01*
X292271410Y-139552935D01*
X292271411Y-139552933D01*
X292275311Y-139547063D01*
X292335420Y-139388824D01*
X292358978Y-139221200D01*
X292359274Y-139200000D01*
X292352078Y-139135842D01*
X292341191Y-139038780D01*
X292341190Y-139038777D01*
X292340406Y-139031784D01*
X292284738Y-138871929D01*
X292195038Y-138728379D01*
X292075764Y-138608269D01*
X291932844Y-138517569D01*
X291901680Y-138506472D01*
X291780016Y-138463149D01*
X291780011Y-138463148D01*
X291773381Y-138460787D01*
X291766393Y-138459954D01*
X291766390Y-138459953D01*
X291670907Y-138448568D01*
X291605633Y-138420641D01*
X291596730Y-138412549D01*
X290991405Y-137807224D01*
X290957379Y-137744912D01*
X290954500Y-137718129D01*
X290954500Y-136565032D01*
X290974502Y-136496911D01*
X290979586Y-136490006D01*
X290981638Y-136488052D01*
X290986301Y-136481034D01*
X291071410Y-136352935D01*
X291071411Y-136352933D01*
X291075311Y-136347063D01*
X291135420Y-136188824D01*
X291146161Y-136112395D01*
X291158427Y-136025123D01*
X291158427Y-136025118D01*
X291158978Y-136021200D01*
X291159274Y-136000000D01*
X291148502Y-135903962D01*
X291141191Y-135838780D01*
X291141190Y-135838777D01*
X291140406Y-135831784D01*
X291084738Y-135671929D01*
X290995038Y-135528379D01*
X290990074Y-135523381D01*
X290985698Y-135517859D01*
X290986992Y-135516834D01*
X290957286Y-135461971D01*
X290954500Y-135435623D01*
X290954500Y-110092773D01*
X290974502Y-110024652D01*
X291028158Y-109978159D01*
X291098432Y-109968055D01*
X291163012Y-109997549D01*
X291201396Y-110057275D01*
X291204079Y-110068193D01*
X291210266Y-110099301D01*
X291217161Y-110109620D01*
X291217162Y-110109622D01*
X291241136Y-110145501D01*
X291266516Y-110183484D01*
X291350699Y-110239734D01*
X291424933Y-110254500D01*
X292249866Y-110254500D01*
X293075066Y-110254499D01*
X293110818Y-110247388D01*
X293137126Y-110242156D01*
X293137128Y-110242155D01*
X293149301Y-110239734D01*
X293159621Y-110232839D01*
X293159622Y-110232838D01*
X293223168Y-110190377D01*
X293233484Y-110183484D01*
X293289734Y-110099301D01*
X293304500Y-110025067D01*
X293304499Y-108374934D01*
X293297388Y-108339182D01*
X293292156Y-108312874D01*
X293292155Y-108312872D01*
X293289734Y-108300699D01*
X293233484Y-108216516D01*
X293149301Y-108160266D01*
X293075067Y-108145500D01*
X292250134Y-108145500D01*
X291424934Y-108145501D01*
X291389182Y-108152612D01*
X291362874Y-108157844D01*
X291362872Y-108157845D01*
X291350699Y-108160266D01*
X291340379Y-108167161D01*
X291340378Y-108167162D01*
X291279985Y-108207516D01*
X291266516Y-108216516D01*
X291210266Y-108300699D01*
X291206735Y-108318452D01*
X291204079Y-108331803D01*
X291171171Y-108394713D01*
X291109476Y-108429845D01*
X291038582Y-108426045D01*
X290980996Y-108384519D01*
X290955001Y-108318452D01*
X290954500Y-108307222D01*
X290954500Y-101015065D01*
X290954611Y-101009789D01*
X290956869Y-100955910D01*
X290957229Y-100947326D01*
X290955268Y-100938964D01*
X290955267Y-100938958D01*
X290947211Y-100904613D01*
X290945050Y-100892960D01*
X290939095Y-100849482D01*
X290935682Y-100841595D01*
X290935681Y-100841592D01*
X290933047Y-100835505D01*
X290926013Y-100814239D01*
X290922537Y-100799417D01*
X290901397Y-100760963D01*
X290896182Y-100750317D01*
X290882170Y-100717937D01*
X290882168Y-100717933D01*
X290878758Y-100710054D01*
X290871183Y-100700699D01*
X290869179Y-100698225D01*
X290856688Y-100679637D01*
X290849348Y-100666285D01*
X290842290Y-100658109D01*
X290817547Y-100633366D01*
X290808721Y-100623565D01*
X290788556Y-100598662D01*
X290788553Y-100598659D01*
X290783150Y-100591987D01*
X290767636Y-100580962D01*
X290751536Y-100567355D01*
X290387329Y-100203148D01*
X290353303Y-100140836D01*
X290351209Y-100128098D01*
X290341191Y-100038787D01*
X290340406Y-100031784D01*
X290334506Y-100014840D01*
X290322516Y-99980412D01*
X290284738Y-99871929D01*
X290195038Y-99728379D01*
X290075764Y-99608269D01*
X289932844Y-99517569D01*
X289905442Y-99507812D01*
X289780016Y-99463149D01*
X289780011Y-99463148D01*
X289773381Y-99460787D01*
X289766395Y-99459954D01*
X289766391Y-99459953D01*
X289647287Y-99445751D01*
X289605301Y-99440745D01*
X289598298Y-99441481D01*
X289598297Y-99441481D01*
X289443965Y-99457701D01*
X289443961Y-99457702D01*
X289436957Y-99458438D01*
X289430286Y-99460709D01*
X289283387Y-99510717D01*
X289283384Y-99510718D01*
X289276717Y-99512988D01*
X289270719Y-99516678D01*
X289270717Y-99516679D01*
X289138543Y-99597993D01*
X289138541Y-99597995D01*
X289132544Y-99601684D01*
X289011605Y-99720117D01*
X288919909Y-99862400D01*
X288917498Y-99869025D01*
X288864425Y-100014840D01*
X288864424Y-100014845D01*
X288862015Y-100021463D01*
X288840800Y-100189399D01*
X285654000Y-100189399D01*
X285654000Y-67437425D01*
X285656421Y-67412844D01*
X285656555Y-67412170D01*
X285658976Y-67400000D01*
X285656555Y-67387828D01*
X285656555Y-67380246D01*
X285657162Y-67367896D01*
X285667118Y-67266812D01*
X285671935Y-67242592D01*
X285707187Y-67126383D01*
X285716631Y-67103582D01*
X285773876Y-66996483D01*
X285787594Y-66975953D01*
X285864626Y-66882091D01*
X285882091Y-66864626D01*
X285975953Y-66787594D01*
X285996483Y-66773876D01*
X286103582Y-66716631D01*
X286126383Y-66707187D01*
X286242592Y-66671935D01*
X286266812Y-66667118D01*
X286367896Y-66657162D01*
X286380246Y-66656555D01*
X286387828Y-66656555D01*
X286400000Y-66658976D01*
X286412847Y-66656421D01*
X286437425Y-66654000D01*
X294562575Y-66654000D01*
X294587153Y-66656421D01*
X294600000Y-66658976D01*
X294612172Y-66656555D01*
X294619754Y-66656555D01*
X294632104Y-66657162D01*
X294733188Y-66667118D01*
X294757408Y-66671935D01*
X294873617Y-66707187D01*
X294896418Y-66716631D01*
X295003517Y-66773876D01*
X295024047Y-66787594D01*
X295117909Y-66864626D01*
X295135374Y-66882091D01*
X295212406Y-66975953D01*
X295226124Y-66996483D01*
X295283369Y-67103582D01*
X295292813Y-67126383D01*
X295328065Y-67242592D01*
X295332882Y-67266812D01*
X295342838Y-67367896D01*
X295343445Y-67380246D01*
X295343445Y-67387828D01*
X295341024Y-67400000D01*
X295343445Y-67412170D01*
X295343579Y-67412844D01*
X295346000Y-67437425D01*
X295346000Y-135222575D01*
X295343579Y-135247153D01*
X295341024Y-135260000D01*
X295342178Y-135265799D01*
X295343110Y-135277167D01*
X295356103Y-135435623D01*
X295358509Y-135464971D01*
X295359763Y-135469976D01*
X295359763Y-135469978D01*
X295406584Y-135656896D01*
X295408480Y-135664467D01*
X295410532Y-135669202D01*
X295410534Y-135669206D01*
X295453107Y-135767409D01*
X295490280Y-135853158D01*
X295601725Y-136026003D01*
X295739837Y-136178387D01*
X295900927Y-136306237D01*
X296080692Y-136406138D01*
X296268848Y-136473462D01*
X296274153Y-136476078D01*
X296286537Y-136476890D01*
X296286560Y-136476896D01*
X296311326Y-136481033D01*
X296432117Y-136513885D01*
X296448349Y-136520323D01*
X296454211Y-136522092D01*
X296465163Y-136527927D01*
X296477518Y-136529127D01*
X296477966Y-136529262D01*
X296502030Y-136534090D01*
X298943226Y-137286932D01*
X298944645Y-137287379D01*
X301122241Y-137987576D01*
X301411220Y-138080496D01*
X301412650Y-138080965D01*
X301540204Y-138123670D01*
X303869564Y-138903547D01*
X303870991Y-138904034D01*
X304573112Y-139148489D01*
X306317951Y-139755984D01*
X306319240Y-139756441D01*
X307084833Y-140033312D01*
X308755898Y-140637640D01*
X308757313Y-140638162D01*
X309965791Y-141091625D01*
X311183100Y-141548402D01*
X311184446Y-141548916D01*
X313382559Y-142403872D01*
X313565354Y-142474970D01*
X313587220Y-142486135D01*
X313587653Y-142486306D01*
X313598081Y-142493039D01*
X313610290Y-142495268D01*
X313618329Y-142498450D01*
X313632167Y-142502673D01*
X313697553Y-142531238D01*
X313837096Y-142592202D01*
X313853269Y-142601510D01*
X313857926Y-142603682D01*
X313867934Y-142611020D01*
X313873774Y-142612449D01*
X313939323Y-142636577D01*
X314060556Y-142681203D01*
X314060561Y-142681204D01*
X314065499Y-142683022D01*
X314188500Y-142706097D01*
X314266931Y-142720810D01*
X314266932Y-142720810D01*
X314272113Y-142721782D01*
X314277386Y-142721878D01*
X314277387Y-142721878D01*
X314361479Y-142723407D01*
X314482297Y-142725604D01*
X314487508Y-142724821D01*
X314487513Y-142724821D01*
X314576014Y-142711528D01*
X314690184Y-142694380D01*
X314889971Y-142628983D01*
X315076083Y-142531238D01*
X315243325Y-142403872D01*
X315387029Y-142250441D01*
X315503184Y-142075227D01*
X315506851Y-142066976D01*
X315586404Y-141887944D01*
X315586404Y-141887943D01*
X315588547Y-141883121D01*
X315640738Y-141679484D01*
X315657804Y-141475891D01*
X315658976Y-141470000D01*
X315656421Y-141457153D01*
X315654000Y-141432575D01*
X315654000Y-121086062D01*
X318028493Y-121086062D01*
X318037789Y-121098077D01*
X318088994Y-121133931D01*
X318098489Y-121139414D01*
X318295947Y-121231490D01*
X318306239Y-121235236D01*
X318516688Y-121291625D01*
X318527481Y-121293528D01*
X318744525Y-121312517D01*
X318755475Y-121312517D01*
X318972519Y-121293528D01*
X318983312Y-121291625D01*
X319193761Y-121235236D01*
X319204053Y-121231490D01*
X319401511Y-121139414D01*
X319411006Y-121133931D01*
X319463048Y-121097491D01*
X319471424Y-121087012D01*
X319464356Y-121073566D01*
X318762812Y-120372022D01*
X318748868Y-120364408D01*
X318747035Y-120364539D01*
X318740420Y-120368790D01*
X318034923Y-121074287D01*
X318028493Y-121086062D01*
X315654000Y-121086062D01*
X315654000Y-120005475D01*
X317437483Y-120005475D01*
X317456472Y-120222519D01*
X317458375Y-120233312D01*
X317514764Y-120443761D01*
X317518510Y-120454053D01*
X317610586Y-120651511D01*
X317616069Y-120661006D01*
X317652509Y-120713048D01*
X317662988Y-120721424D01*
X317676434Y-120714356D01*
X318377978Y-120012812D01*
X318385592Y-119998868D01*
X318385461Y-119997035D01*
X318381210Y-119990420D01*
X317675713Y-119284923D01*
X317663938Y-119278493D01*
X317651923Y-119287789D01*
X317616069Y-119338994D01*
X317610586Y-119348489D01*
X317518510Y-119545947D01*
X317514764Y-119556239D01*
X317458375Y-119766688D01*
X317456472Y-119777481D01*
X317437483Y-119994525D01*
X317437483Y-120005475D01*
X315654000Y-120005475D01*
X315654000Y-118912988D01*
X318028576Y-118912988D01*
X318035644Y-118926434D01*
X318737188Y-119627978D01*
X318751132Y-119635592D01*
X318752965Y-119635461D01*
X318759580Y-119631210D01*
X319465077Y-118925713D01*
X319471507Y-118913938D01*
X319462211Y-118901923D01*
X319411006Y-118866069D01*
X319401511Y-118860586D01*
X319204053Y-118768510D01*
X319193761Y-118764764D01*
X318983312Y-118708375D01*
X318972519Y-118706472D01*
X318755475Y-118687483D01*
X318744525Y-118687483D01*
X318527481Y-118706472D01*
X318516688Y-118708375D01*
X318306239Y-118764764D01*
X318295947Y-118768510D01*
X318098489Y-118860586D01*
X318088994Y-118866069D01*
X318036952Y-118902509D01*
X318028576Y-118912988D01*
X315654000Y-118912988D01*
X315654000Y-78237425D01*
X315656421Y-78212844D01*
X315656555Y-78212170D01*
X315658976Y-78200000D01*
X315656555Y-78187828D01*
X315656555Y-78180246D01*
X315657162Y-78167896D01*
X315667118Y-78066812D01*
X315671935Y-78042592D01*
X315707187Y-77926383D01*
X315716631Y-77903582D01*
X315773876Y-77796483D01*
X315787594Y-77775953D01*
X315864626Y-77682091D01*
X315882091Y-77664626D01*
X315975953Y-77587594D01*
X315996483Y-77573876D01*
X316103582Y-77516631D01*
X316126383Y-77507187D01*
X316242592Y-77471935D01*
X316266812Y-77467118D01*
X316367896Y-77457162D01*
X316380246Y-77456555D01*
X316387828Y-77456555D01*
X316400000Y-77458976D01*
X316412847Y-77456421D01*
X316437425Y-77454000D01*
X324562575Y-77454000D01*
X324587153Y-77456421D01*
X324600000Y-77458976D01*
X324612172Y-77456555D01*
X324619754Y-77456555D01*
X324632104Y-77457162D01*
X324733188Y-77467118D01*
X324757408Y-77471935D01*
X324873617Y-77507187D01*
X324896418Y-77516631D01*
X325003517Y-77573876D01*
X325024047Y-77587594D01*
X325117909Y-77664626D01*
X325135374Y-77682091D01*
X325212406Y-77775953D01*
X325226124Y-77796483D01*
X325283369Y-77903582D01*
X325292813Y-77926383D01*
X325328065Y-78042592D01*
X325332882Y-78066812D01*
X325342838Y-78167896D01*
X325343445Y-78180246D01*
X325343445Y-78187828D01*
X325341024Y-78200000D01*
X325343445Y-78212170D01*
X325343579Y-78212844D01*
X325346000Y-78237425D01*
X325346000Y-146722575D01*
X325343579Y-146747153D01*
X325341024Y-146760000D01*
X325343445Y-146772170D01*
X325343445Y-146775396D01*
X325344159Y-146780662D01*
X325353127Y-146903149D01*
X325356054Y-146943135D01*
X325395994Y-147122365D01*
X325461612Y-147293866D01*
X325551511Y-147453980D01*
X325663771Y-147599293D01*
X325795999Y-147726706D01*
X325799741Y-147729381D01*
X325799743Y-147729383D01*
X325941627Y-147830822D01*
X325941633Y-147830825D01*
X325945375Y-147833501D01*
X325949471Y-147835605D01*
X325949476Y-147835608D01*
X326083993Y-147904702D01*
X326091272Y-147909129D01*
X326094224Y-147910382D01*
X326103177Y-147916753D01*
X326105829Y-147917362D01*
X326108079Y-147918894D01*
X326118838Y-147921132D01*
X326122140Y-147922615D01*
X326142424Y-147929281D01*
X327740127Y-148662172D01*
X327741835Y-148662972D01*
X329195067Y-149357943D01*
X329363674Y-149438575D01*
X329365472Y-149439454D01*
X330974578Y-150240842D01*
X330976272Y-150241702D01*
X332275396Y-150914858D01*
X332572387Y-151068748D01*
X332574169Y-151069689D01*
X334116296Y-151900318D01*
X334123670Y-151905611D01*
X334123968Y-151905130D01*
X334134517Y-151911667D01*
X334143587Y-151920136D01*
X334150068Y-151922564D01*
X334155371Y-151927016D01*
X334163070Y-151929446D01*
X334171976Y-151935585D01*
X334258102Y-152001362D01*
X334276049Y-152018071D01*
X334361115Y-152114350D01*
X334375486Y-152134219D01*
X334440292Y-152245151D01*
X334450542Y-152267427D01*
X334492634Y-152388807D01*
X334498376Y-152412645D01*
X334514479Y-152527845D01*
X334516162Y-152539888D01*
X334517177Y-152564387D01*
X334511791Y-152660378D01*
X334509979Y-152692663D01*
X334506229Y-152716896D01*
X334479311Y-152821888D01*
X334475688Y-152833613D01*
X334475279Y-152834739D01*
X334473459Y-152838647D01*
X334472237Y-152842253D01*
X334466587Y-152851578D01*
X334466154Y-152854401D01*
X334464727Y-152856876D01*
X334464476Y-152858793D01*
X334461519Y-152867800D01*
X334461519Y-152867801D01*
X333880220Y-154638787D01*
X333866034Y-154682006D01*
X333865852Y-154682598D01*
X333865836Y-154682649D01*
X333371787Y-156291424D01*
X333302150Y-156518185D01*
X332773624Y-158364852D01*
X332773483Y-158365384D01*
X332773475Y-158365412D01*
X332284990Y-160204983D01*
X332280650Y-160221326D01*
X331823411Y-162086922D01*
X331823269Y-162087552D01*
X331823263Y-162087579D01*
X331637713Y-162912872D01*
X331402074Y-163960953D01*
X331016795Y-165842729D01*
X330667716Y-167731555D01*
X330354966Y-169626734D01*
X330078660Y-171527569D01*
X329838900Y-173433358D01*
X329635774Y-175343400D01*
X329469357Y-177256989D01*
X329469320Y-177257537D01*
X329348716Y-179040315D01*
X329339711Y-179173421D01*
X329246883Y-181091988D01*
X329190908Y-183011984D01*
X329190902Y-183012541D01*
X329190902Y-183012564D01*
X329184338Y-183672627D01*
X329171806Y-184932701D01*
X329171811Y-184933244D01*
X329171811Y-184933270D01*
X329179113Y-185722115D01*
X329189584Y-186853431D01*
X329189600Y-186853978D01*
X329189600Y-186854001D01*
X329241986Y-188694406D01*
X329244236Y-188773465D01*
X329335741Y-190692096D01*
X329335784Y-190692738D01*
X329374224Y-191266829D01*
X329464066Y-192608617D01*
X329464114Y-192609172D01*
X329464117Y-192609213D01*
X329501713Y-193045000D01*
X329629164Y-194522320D01*
X329720289Y-195384841D01*
X329804088Y-196178023D01*
X329830973Y-196432501D01*
X329902741Y-197006156D01*
X330047623Y-198164232D01*
X330069419Y-198338456D01*
X330069498Y-198339005D01*
X330069503Y-198339039D01*
X330344143Y-200237603D01*
X330340856Y-200238078D01*
X330346000Y-200255561D01*
X330346000Y-201409152D01*
X330325998Y-201477273D01*
X330272342Y-201523766D01*
X330202068Y-201533870D01*
X330137488Y-201504376D01*
X330099104Y-201444650D01*
X330096753Y-201435348D01*
X330095234Y-201428204D01*
X330091180Y-201415725D01*
X330019983Y-201255814D01*
X330013417Y-201244442D01*
X329910531Y-201102832D01*
X329901749Y-201093078D01*
X329771669Y-200975953D01*
X329761041Y-200968231D01*
X329609462Y-200880718D01*
X329597454Y-200875372D01*
X329430990Y-200821284D01*
X329418147Y-200818554D01*
X329287703Y-200804844D01*
X329281144Y-200804500D01*
X329122115Y-200804500D01*
X329106876Y-200808975D01*
X329105671Y-200810365D01*
X329104000Y-200818048D01*
X329104000Y-202577385D01*
X329108475Y-202592624D01*
X329109865Y-202593829D01*
X329117548Y-202595500D01*
X329281144Y-202595500D01*
X329287703Y-202595156D01*
X329418147Y-202581446D01*
X329430990Y-202578716D01*
X329597454Y-202524628D01*
X329609462Y-202519282D01*
X329761041Y-202431769D01*
X329771669Y-202424047D01*
X329901749Y-202306922D01*
X329910531Y-202297168D01*
X330013417Y-202155559D01*
X330019983Y-202144187D01*
X330091180Y-201984275D01*
X330095234Y-201971796D01*
X330096753Y-201964652D01*
X330130481Y-201902178D01*
X330192630Y-201867857D01*
X330263469Y-201872584D01*
X330320507Y-201914859D01*
X330345635Y-201981260D01*
X330346000Y-201990848D01*
X330346000Y-208409152D01*
X330325998Y-208477273D01*
X330272342Y-208523766D01*
X330202068Y-208533870D01*
X330137488Y-208504376D01*
X330099104Y-208444650D01*
X330096753Y-208435348D01*
X330095234Y-208428204D01*
X330091180Y-208415725D01*
X330019983Y-208255814D01*
X330013417Y-208244442D01*
X329910531Y-208102832D01*
X329901749Y-208093078D01*
X329771669Y-207975953D01*
X329761041Y-207968231D01*
X329609462Y-207880718D01*
X329597454Y-207875372D01*
X329430990Y-207821284D01*
X329418147Y-207818554D01*
X329287703Y-207804844D01*
X329281144Y-207804500D01*
X329122115Y-207804500D01*
X329106876Y-207808975D01*
X329105671Y-207810365D01*
X329104000Y-207818048D01*
X329104000Y-209577385D01*
X329108475Y-209592624D01*
X329109865Y-209593829D01*
X329117548Y-209595500D01*
X329281144Y-209595500D01*
X329287703Y-209595156D01*
X329418147Y-209581446D01*
X329430990Y-209578716D01*
X329597454Y-209524628D01*
X329609462Y-209519282D01*
X329761041Y-209431769D01*
X329771669Y-209424047D01*
X329901749Y-209306922D01*
X329910531Y-209297168D01*
X330013417Y-209155559D01*
X330019983Y-209144187D01*
X330091180Y-208984275D01*
X330095234Y-208971796D01*
X330096753Y-208964652D01*
X330130481Y-208902178D01*
X330192630Y-208867857D01*
X330263469Y-208872584D01*
X330320507Y-208914859D01*
X330345635Y-208981260D01*
X330346000Y-208990848D01*
X330346000Y-209762575D01*
X330343579Y-209787153D01*
X330341024Y-209800000D01*
X330342841Y-209809134D01*
X330357608Y-209996775D01*
X330403687Y-210188706D01*
X330405580Y-210193277D01*
X330405581Y-210193279D01*
X330461178Y-210327502D01*
X330479222Y-210371065D01*
X330582355Y-210539362D01*
X330710546Y-210689454D01*
X330860638Y-210817645D01*
X331028935Y-210920778D01*
X331033505Y-210922671D01*
X331033509Y-210922673D01*
X331043403Y-210926771D01*
X331211294Y-210996313D01*
X331403225Y-211042392D01*
X331533253Y-211052625D01*
X331583190Y-211056555D01*
X331583191Y-211056555D01*
X331590866Y-211057159D01*
X331600000Y-211058976D01*
X331612170Y-211056555D01*
X331615093Y-211056555D01*
X331636404Y-211054632D01*
X332048927Y-211061409D01*
X332071434Y-211063813D01*
X332087362Y-211066982D01*
X332099532Y-211064562D01*
X332104498Y-211064562D01*
X332117913Y-211065279D01*
X332228500Y-211077126D01*
X332254723Y-211082808D01*
X332345545Y-211112912D01*
X332376658Y-211123226D01*
X332401083Y-211134332D01*
X332511688Y-211199649D01*
X332533208Y-211215675D01*
X332627479Y-211302934D01*
X332645117Y-211323153D01*
X332718774Y-211428396D01*
X332731726Y-211451882D01*
X332774771Y-211554468D01*
X332779301Y-211567116D01*
X332779560Y-211567982D01*
X332780358Y-211578901D01*
X332781619Y-211581410D01*
X332781883Y-211584206D01*
X332785073Y-211590231D01*
X332786163Y-211594054D01*
X332786163Y-211594056D01*
X333178796Y-212971203D01*
X333242356Y-213194139D01*
X333730189Y-214801750D01*
X334245094Y-216400895D01*
X334245252Y-216401358D01*
X334245263Y-216401392D01*
X334452106Y-217008457D01*
X334784506Y-217984021D01*
X334785577Y-217991591D01*
X334791710Y-218001983D01*
X334792175Y-218003534D01*
X334792933Y-218004965D01*
X334795863Y-218016673D01*
X334803253Y-218026641D01*
X334807867Y-218036404D01*
X334814171Y-218047479D01*
X334885690Y-218218037D01*
X334925673Y-218313387D01*
X334958059Y-218390622D01*
X334961929Y-218401142D01*
X335067672Y-218733488D01*
X335083868Y-218784393D01*
X335086788Y-218795214D01*
X335088630Y-218803486D01*
X335174178Y-219187800D01*
X335176125Y-219198842D01*
X335228270Y-219597641D01*
X335229227Y-219608811D01*
X335245263Y-219999626D01*
X335245715Y-220010651D01*
X335245676Y-220021864D01*
X335226375Y-220423594D01*
X335225339Y-220434757D01*
X335172841Y-220815511D01*
X335170406Y-220833170D01*
X335168384Y-220844189D01*
X335136552Y-220982610D01*
X335078247Y-221236153D01*
X335075251Y-221246957D01*
X335026868Y-221395421D01*
X334959367Y-221602548D01*
X334950631Y-221629353D01*
X334946688Y-221639842D01*
X334788561Y-222009660D01*
X334783709Y-222019742D01*
X334605486Y-222351424D01*
X334593340Y-222374029D01*
X334587603Y-222383654D01*
X334399616Y-222669287D01*
X334366488Y-222719623D01*
X334359913Y-222728705D01*
X334109821Y-223043671D01*
X334102469Y-223052128D01*
X333825351Y-223343635D01*
X333817298Y-223351385D01*
X333515351Y-223617113D01*
X333506629Y-223624126D01*
X333182282Y-223861942D01*
X333172954Y-223868162D01*
X332828749Y-224076205D01*
X332818906Y-224081572D01*
X332457578Y-224258190D01*
X332447305Y-224262657D01*
X332071686Y-224406463D01*
X332061067Y-224409996D01*
X331723831Y-224505739D01*
X331674158Y-224519841D01*
X331663247Y-224522420D01*
X331268120Y-224597433D01*
X331257023Y-224599032D01*
X330987561Y-224625688D01*
X330856783Y-224638625D01*
X330845595Y-224639231D01*
X330632295Y-224641276D01*
X330443430Y-224643087D01*
X330432226Y-224642696D01*
X330031299Y-224610787D01*
X330020173Y-224609401D01*
X329959195Y-224599032D01*
X329623671Y-224541978D01*
X329612720Y-224539610D01*
X329223785Y-224437208D01*
X329213095Y-224433878D01*
X328858020Y-224305689D01*
X328834797Y-224297305D01*
X328824432Y-224293033D01*
X328694372Y-224232522D01*
X328459772Y-224123373D01*
X328449839Y-224118202D01*
X328101698Y-223916793D01*
X328092269Y-223910762D01*
X327788018Y-223696530D01*
X327778568Y-223688006D01*
X327770021Y-223681400D01*
X327761870Y-223672040D01*
X327750757Y-223666511D01*
X327741672Y-223661991D01*
X327725769Y-223652565D01*
X327688656Y-223626705D01*
X327670027Y-223610705D01*
X327669669Y-223610453D01*
X327661112Y-223601453D01*
X327660569Y-223601212D01*
X327616297Y-223570419D01*
X325213727Y-221899366D01*
X325213700Y-221899348D01*
X325213406Y-221899143D01*
X323137176Y-220494975D01*
X322744076Y-220229119D01*
X322744068Y-220229113D01*
X322743721Y-220228879D01*
X322459744Y-220042186D01*
X328741018Y-220042186D01*
X328766579Y-220310100D01*
X328767664Y-220314534D01*
X328767665Y-220314540D01*
X328795721Y-220429195D01*
X328830547Y-220571518D01*
X328931583Y-220820963D01*
X329067569Y-221053210D01*
X329070422Y-221056777D01*
X329203808Y-221223568D01*
X329235658Y-221263395D01*
X329432327Y-221447113D01*
X329653457Y-221600516D01*
X329894416Y-221720391D01*
X329898750Y-221721812D01*
X329898753Y-221721813D01*
X330145823Y-221802807D01*
X330145829Y-221802808D01*
X330150156Y-221804227D01*
X330154647Y-221805007D01*
X330154648Y-221805007D01*
X330411538Y-221849611D01*
X330411546Y-221849612D01*
X330415319Y-221850267D01*
X330419156Y-221850458D01*
X330498777Y-221854422D01*
X330498785Y-221854422D01*
X330500348Y-221854500D01*
X330668374Y-221854500D01*
X330670642Y-221854335D01*
X330670654Y-221854335D01*
X330801457Y-221844844D01*
X330868425Y-221839985D01*
X330872880Y-221839001D01*
X330872883Y-221839001D01*
X331126770Y-221782947D01*
X331126772Y-221782946D01*
X331131226Y-221781963D01*
X331382900Y-221686613D01*
X331485988Y-221629353D01*
X331614179Y-221558149D01*
X331614180Y-221558148D01*
X331618172Y-221555931D01*
X331764842Y-221443996D01*
X331828491Y-221395421D01*
X331828495Y-221395417D01*
X331832116Y-221392654D01*
X332020249Y-221200203D01*
X332127242Y-221053210D01*
X332175942Y-220986304D01*
X332175947Y-220986297D01*
X332178630Y-220982610D01*
X332303941Y-220744433D01*
X332393557Y-220490662D01*
X332423198Y-220340275D01*
X332444720Y-220231083D01*
X332444721Y-220231077D01*
X332445601Y-220226611D01*
X332454782Y-220042186D01*
X332458755Y-219962383D01*
X332458755Y-219962377D01*
X332458982Y-219957814D01*
X332433421Y-219689900D01*
X332405601Y-219576205D01*
X332370539Y-219432920D01*
X332369453Y-219428482D01*
X332268417Y-219179037D01*
X332132431Y-218946790D01*
X331964342Y-218736605D01*
X331767673Y-218552887D01*
X331546543Y-218399484D01*
X331305584Y-218279609D01*
X331301250Y-218278188D01*
X331301247Y-218278187D01*
X331054177Y-218197193D01*
X331054171Y-218197192D01*
X331049844Y-218195773D01*
X331045352Y-218194993D01*
X330788462Y-218150389D01*
X330788454Y-218150388D01*
X330784681Y-218149733D01*
X330774718Y-218149237D01*
X330701223Y-218145578D01*
X330701215Y-218145578D01*
X330699652Y-218145500D01*
X330531626Y-218145500D01*
X330529358Y-218145665D01*
X330529346Y-218145665D01*
X330398543Y-218155156D01*
X330331575Y-218160015D01*
X330327120Y-218160999D01*
X330327117Y-218160999D01*
X330073230Y-218217053D01*
X330073228Y-218217054D01*
X330068774Y-218218037D01*
X329817100Y-218313387D01*
X329813114Y-218315601D01*
X329813112Y-218315602D01*
X329657415Y-218402084D01*
X329581828Y-218444069D01*
X329578196Y-218446841D01*
X329371509Y-218604579D01*
X329371505Y-218604583D01*
X329367884Y-218607346D01*
X329364699Y-218610604D01*
X329364698Y-218610605D01*
X329348094Y-218627590D01*
X329179751Y-218799797D01*
X329177066Y-218803486D01*
X329024058Y-219013696D01*
X329024053Y-219013703D01*
X329021370Y-219017390D01*
X328896059Y-219255567D01*
X328806443Y-219509338D01*
X328805560Y-219513820D01*
X328770855Y-219689900D01*
X328754399Y-219773389D01*
X328754172Y-219777942D01*
X328754172Y-219777945D01*
X328742030Y-220021864D01*
X328741018Y-220042186D01*
X322459744Y-220042186D01*
X320252416Y-218591039D01*
X320252106Y-218590841D01*
X320252066Y-218590815D01*
X319115110Y-217864459D01*
X317739916Y-216985901D01*
X317281417Y-216701354D01*
X315206936Y-215413919D01*
X315206881Y-215413886D01*
X315206650Y-215413742D01*
X315206417Y-215413601D01*
X315206349Y-215413560D01*
X314564080Y-215026500D01*
X319528857Y-215026500D01*
X332051143Y-215026500D01*
X332051143Y-211653500D01*
X319528857Y-211653500D01*
X319528857Y-215026500D01*
X314564080Y-215026500D01*
X313420244Y-214337174D01*
X312653051Y-213874829D01*
X312652769Y-213874664D01*
X312652737Y-213874645D01*
X310079851Y-212369597D01*
X310079835Y-212369588D01*
X310079555Y-212369424D01*
X309793456Y-212207048D01*
X307486885Y-210897946D01*
X307486818Y-210897909D01*
X307486602Y-210897786D01*
X307385504Y-210842142D01*
X304874957Y-209460343D01*
X304874931Y-209460329D01*
X304874635Y-209460166D01*
X304874314Y-209459995D01*
X304874272Y-209459972D01*
X303952970Y-208968469D01*
X327604058Y-208968469D01*
X327604764Y-208971788D01*
X327608823Y-208984281D01*
X327680017Y-209144186D01*
X327686583Y-209155558D01*
X327789469Y-209297168D01*
X327798251Y-209306922D01*
X327928331Y-209424047D01*
X327938959Y-209431769D01*
X328090538Y-209519282D01*
X328102546Y-209524628D01*
X328269010Y-209578716D01*
X328281853Y-209581446D01*
X328412297Y-209595156D01*
X328418856Y-209595500D01*
X328577885Y-209595500D01*
X328593124Y-209591025D01*
X328594329Y-209589635D01*
X328596000Y-209581952D01*
X328596000Y-208972115D01*
X328591525Y-208956876D01*
X328590135Y-208955671D01*
X328582452Y-208954000D01*
X327619098Y-208954000D01*
X327605567Y-208957973D01*
X327604058Y-208968469D01*
X303952970Y-208968469D01*
X302262826Y-208066798D01*
X325317000Y-208066798D01*
X325317369Y-208073612D01*
X325330898Y-208198141D01*
X325333813Y-208211400D01*
X325387186Y-208369999D01*
X325392875Y-208382311D01*
X325479062Y-208525749D01*
X325487270Y-208536563D01*
X325602244Y-208658144D01*
X325612575Y-208666936D01*
X325750981Y-208760997D01*
X325762961Y-208767366D01*
X325879179Y-208813850D01*
X325893219Y-208815186D01*
X325896000Y-208810365D01*
X325896000Y-208800956D01*
X326404000Y-208800956D01*
X326407973Y-208814487D01*
X326416298Y-208815684D01*
X326451881Y-208805882D01*
X326464490Y-208800890D01*
X326612513Y-208722846D01*
X326623771Y-208715253D01*
X326751579Y-208607245D01*
X326760937Y-208597419D01*
X326862574Y-208464484D01*
X326869605Y-208452875D01*
X326881074Y-208428279D01*
X327604750Y-208428279D01*
X327605823Y-208442342D01*
X327615776Y-208446000D01*
X328577885Y-208446000D01*
X328593124Y-208441525D01*
X328594329Y-208440135D01*
X328596000Y-208432452D01*
X328596000Y-207822615D01*
X328591525Y-207807376D01*
X328590135Y-207806171D01*
X328582452Y-207804500D01*
X328418856Y-207804500D01*
X328412297Y-207804844D01*
X328281853Y-207818554D01*
X328269010Y-207821284D01*
X328102546Y-207875372D01*
X328090538Y-207880718D01*
X327938959Y-207968231D01*
X327928331Y-207975953D01*
X327798251Y-208093078D01*
X327789469Y-208102832D01*
X327686583Y-208244441D01*
X327680017Y-208255813D01*
X327608823Y-208415719D01*
X327604764Y-208428212D01*
X327604750Y-208428279D01*
X326881074Y-208428279D01*
X326940329Y-208301207D01*
X326944696Y-208288379D01*
X326981564Y-208123438D01*
X326982931Y-208113589D01*
X326983000Y-208111104D01*
X326983000Y-207972115D01*
X326978525Y-207956876D01*
X326977135Y-207955671D01*
X326969452Y-207954000D01*
X326422115Y-207954000D01*
X326406876Y-207958475D01*
X326405671Y-207959865D01*
X326404000Y-207967548D01*
X326404000Y-208800956D01*
X325896000Y-208800956D01*
X325896000Y-207972115D01*
X325891525Y-207956876D01*
X325890135Y-207955671D01*
X325882452Y-207954000D01*
X325335115Y-207954000D01*
X325319876Y-207958475D01*
X325318671Y-207959865D01*
X325317000Y-207967548D01*
X325317000Y-208066798D01*
X302262826Y-208066798D01*
X302244546Y-208057046D01*
X302244496Y-208057020D01*
X302244101Y-208056809D01*
X302243729Y-208056617D01*
X302243680Y-208056591D01*
X301053562Y-207441525D01*
X301027169Y-207427885D01*
X325317000Y-207427885D01*
X325321475Y-207443124D01*
X325322865Y-207444329D01*
X325330548Y-207446000D01*
X325877885Y-207446000D01*
X325893124Y-207441525D01*
X325894329Y-207440135D01*
X325896000Y-207432452D01*
X325896000Y-207427885D01*
X326404000Y-207427885D01*
X326408475Y-207443124D01*
X326409865Y-207444329D01*
X326417548Y-207446000D01*
X326964885Y-207446000D01*
X326980124Y-207441525D01*
X326981329Y-207440135D01*
X326983000Y-207432452D01*
X326983000Y-207333202D01*
X326982631Y-207326388D01*
X326969102Y-207201859D01*
X326966187Y-207188600D01*
X326912814Y-207030001D01*
X326907125Y-207017689D01*
X326820938Y-206874251D01*
X326812730Y-206863437D01*
X326697756Y-206741856D01*
X326687425Y-206733064D01*
X326549019Y-206639003D01*
X326537039Y-206632634D01*
X326420821Y-206586150D01*
X326406781Y-206584814D01*
X326404000Y-206589635D01*
X326404000Y-207427885D01*
X325896000Y-207427885D01*
X325896000Y-206599044D01*
X325892027Y-206585513D01*
X325883702Y-206584316D01*
X325848119Y-206594118D01*
X325835510Y-206599110D01*
X325687487Y-206677154D01*
X325676229Y-206684747D01*
X325548421Y-206792755D01*
X325539063Y-206802581D01*
X325437426Y-206935516D01*
X325430395Y-206947125D01*
X325359671Y-207098793D01*
X325355304Y-207111621D01*
X325318436Y-207276562D01*
X325317069Y-207286411D01*
X325317000Y-207288896D01*
X325317000Y-207427885D01*
X301027169Y-207427885D01*
X299595448Y-206687955D01*
X299595163Y-206687812D01*
X299595125Y-206687793D01*
X296929527Y-205354037D01*
X296929129Y-205353838D01*
X296928771Y-205353665D01*
X296928729Y-205353644D01*
X294245928Y-204054845D01*
X294245600Y-204054686D01*
X292540664Y-203256628D01*
X292135120Y-203066798D01*
X325317000Y-203066798D01*
X325317369Y-203073612D01*
X325330898Y-203198141D01*
X325333813Y-203211400D01*
X325387186Y-203369999D01*
X325392875Y-203382311D01*
X325479062Y-203525749D01*
X325487270Y-203536563D01*
X325602244Y-203658144D01*
X325612575Y-203666936D01*
X325750981Y-203760997D01*
X325762961Y-203767366D01*
X325879179Y-203813850D01*
X325893219Y-203815186D01*
X325896000Y-203810365D01*
X325896000Y-203800956D01*
X326404000Y-203800956D01*
X326407973Y-203814487D01*
X326416298Y-203815684D01*
X326451881Y-203805882D01*
X326464490Y-203800890D01*
X326612513Y-203722846D01*
X326623771Y-203715253D01*
X326751579Y-203607245D01*
X326760937Y-203597419D01*
X326862574Y-203464484D01*
X326869605Y-203452875D01*
X326940329Y-203301207D01*
X326944696Y-203288379D01*
X326981564Y-203123438D01*
X326982931Y-203113589D01*
X326983000Y-203111104D01*
X326983000Y-202972115D01*
X326978525Y-202956876D01*
X326977135Y-202955671D01*
X326969452Y-202954000D01*
X326422115Y-202954000D01*
X326406876Y-202958475D01*
X326405671Y-202959865D01*
X326404000Y-202967548D01*
X326404000Y-203800956D01*
X325896000Y-203800956D01*
X325896000Y-202972115D01*
X325891525Y-202956876D01*
X325890135Y-202955671D01*
X325882452Y-202954000D01*
X325335115Y-202954000D01*
X325319876Y-202958475D01*
X325318671Y-202959865D01*
X325317000Y-202967548D01*
X325317000Y-203066798D01*
X292135120Y-203066798D01*
X291545712Y-202790904D01*
X291545660Y-202790880D01*
X291545320Y-202790721D01*
X290743025Y-202427885D01*
X325317000Y-202427885D01*
X325321475Y-202443124D01*
X325322865Y-202444329D01*
X325330548Y-202446000D01*
X325877885Y-202446000D01*
X325893124Y-202441525D01*
X325894329Y-202440135D01*
X325896000Y-202432452D01*
X325896000Y-202427885D01*
X326404000Y-202427885D01*
X326408475Y-202443124D01*
X326409865Y-202444329D01*
X326417548Y-202446000D01*
X326964885Y-202446000D01*
X326980124Y-202441525D01*
X326981329Y-202440135D01*
X326983000Y-202432452D01*
X326983000Y-202333202D01*
X326982631Y-202326388D01*
X326969102Y-202201859D01*
X326966187Y-202188600D01*
X326912814Y-202030001D01*
X326907125Y-202017689D01*
X326877550Y-201968469D01*
X327604058Y-201968469D01*
X327604764Y-201971788D01*
X327608823Y-201984281D01*
X327680017Y-202144186D01*
X327686583Y-202155558D01*
X327789469Y-202297168D01*
X327798251Y-202306922D01*
X327928331Y-202424047D01*
X327938959Y-202431769D01*
X328090538Y-202519282D01*
X328102546Y-202524628D01*
X328269010Y-202578716D01*
X328281853Y-202581446D01*
X328412297Y-202595156D01*
X328418856Y-202595500D01*
X328577885Y-202595500D01*
X328593124Y-202591025D01*
X328594329Y-202589635D01*
X328596000Y-202581952D01*
X328596000Y-201972115D01*
X328591525Y-201956876D01*
X328590135Y-201955671D01*
X328582452Y-201954000D01*
X327619098Y-201954000D01*
X327605567Y-201957973D01*
X327604058Y-201968469D01*
X326877550Y-201968469D01*
X326820938Y-201874251D01*
X326812730Y-201863437D01*
X326697756Y-201741856D01*
X326687425Y-201733064D01*
X326549019Y-201639003D01*
X326537039Y-201632634D01*
X326420821Y-201586150D01*
X326406781Y-201584814D01*
X326404000Y-201589635D01*
X326404000Y-202427885D01*
X325896000Y-202427885D01*
X325896000Y-201599044D01*
X325892027Y-201585513D01*
X325883702Y-201584316D01*
X325848119Y-201594118D01*
X325835510Y-201599110D01*
X325687487Y-201677154D01*
X325676229Y-201684747D01*
X325548421Y-201792755D01*
X325539063Y-201802581D01*
X325437426Y-201935516D01*
X325430395Y-201947125D01*
X325359671Y-202098793D01*
X325355304Y-202111621D01*
X325318436Y-202276562D01*
X325317069Y-202286411D01*
X325317000Y-202288896D01*
X325317000Y-202427885D01*
X290743025Y-202427885D01*
X288828749Y-201562158D01*
X288634324Y-201477273D01*
X288522106Y-201428279D01*
X327604750Y-201428279D01*
X327605823Y-201442342D01*
X327615776Y-201446000D01*
X328577885Y-201446000D01*
X328593124Y-201441525D01*
X328594329Y-201440135D01*
X328596000Y-201432452D01*
X328596000Y-200822615D01*
X328591525Y-200807376D01*
X328590135Y-200806171D01*
X328582452Y-200804500D01*
X328418856Y-200804500D01*
X328412297Y-200804844D01*
X328281853Y-200818554D01*
X328269010Y-200821284D01*
X328102546Y-200875372D01*
X328090538Y-200880718D01*
X327938959Y-200968231D01*
X327928331Y-200975953D01*
X327798251Y-201093078D01*
X327789469Y-201102832D01*
X327686583Y-201244441D01*
X327680017Y-201255813D01*
X327608823Y-201415719D01*
X327604764Y-201428212D01*
X327604750Y-201428279D01*
X288522106Y-201428279D01*
X286096726Y-200369371D01*
X286096691Y-200369356D01*
X286096352Y-200369208D01*
X285483163Y-200110982D01*
X283349053Y-199212267D01*
X283348994Y-199212243D01*
X283348596Y-199212075D01*
X280585949Y-198090956D01*
X277808885Y-197006043D01*
X277808631Y-197005948D01*
X277808580Y-197005928D01*
X275236638Y-196039705D01*
X275017877Y-195957521D01*
X272213403Y-194945570D01*
X272212980Y-194945423D01*
X272212936Y-194945408D01*
X269396331Y-193970496D01*
X269396332Y-193970496D01*
X269395941Y-193970361D01*
X266565973Y-193032062D01*
X266565649Y-193031959D01*
X266565602Y-193031944D01*
X263724275Y-192130927D01*
X263723982Y-192130834D01*
X263723687Y-192130745D01*
X263723659Y-192130736D01*
X261921738Y-191585142D01*
X260870455Y-191266829D01*
X260316316Y-191106921D01*
X258006336Y-190440329D01*
X258006311Y-190440322D01*
X258005878Y-190440197D01*
X255130741Y-189651077D01*
X255130327Y-189650969D01*
X255130289Y-189650959D01*
X252245888Y-188899697D01*
X252245535Y-188899605D01*
X252245225Y-188899529D01*
X252245207Y-188899524D01*
X251373688Y-188684655D01*
X249350753Y-188185909D01*
X248596503Y-188010377D01*
X246447265Y-187510198D01*
X246447232Y-187510191D01*
X246446890Y-187510111D01*
X243534442Y-186872327D01*
X240613907Y-186272665D01*
X237734197Y-185720512D01*
X320909056Y-185720512D01*
X320913253Y-185764494D01*
X320914773Y-185773486D01*
X320978416Y-186033571D01*
X320981214Y-186042235D01*
X321081736Y-186290414D01*
X321085758Y-186298588D01*
X321221055Y-186529656D01*
X321226211Y-186537157D01*
X321393446Y-186746276D01*
X321399635Y-186752959D01*
X321595305Y-186935743D01*
X321602394Y-186941463D01*
X321822403Y-187094089D01*
X321830236Y-187098721D01*
X322069973Y-187217988D01*
X322078398Y-187221444D01*
X322332845Y-187304857D01*
X322341670Y-187307057D01*
X322606210Y-187352989D01*
X322613828Y-187353836D01*
X322695902Y-187357922D01*
X322699043Y-187358000D01*
X323127885Y-187358000D01*
X323143124Y-187353525D01*
X323144329Y-187352135D01*
X323146000Y-187344452D01*
X323146000Y-187339885D01*
X323654000Y-187339885D01*
X323658475Y-187355124D01*
X323659865Y-187356329D01*
X323667548Y-187358000D01*
X324068053Y-187358000D01*
X324072624Y-187357835D01*
X324271617Y-187343396D01*
X324280626Y-187342082D01*
X324542092Y-187284356D01*
X324550822Y-187281753D01*
X324801215Y-187186888D01*
X324809476Y-187183053D01*
X325043552Y-187053035D01*
X325051177Y-187048045D01*
X325264029Y-186885602D01*
X325270856Y-186879562D01*
X325458026Y-186688096D01*
X325463907Y-186681137D01*
X325621482Y-186464652D01*
X325626302Y-186456906D01*
X325750969Y-186219953D01*
X325754618Y-186211601D01*
X325843778Y-185959124D01*
X325846181Y-185950340D01*
X325891231Y-185721775D01*
X325890052Y-185708862D01*
X325874951Y-185704000D01*
X323672115Y-185704000D01*
X323656876Y-185708475D01*
X323655671Y-185709865D01*
X323654000Y-185717548D01*
X323654000Y-187339885D01*
X323146000Y-187339885D01*
X323146000Y-185722115D01*
X323141525Y-185706876D01*
X323140135Y-185705671D01*
X323132452Y-185704000D01*
X320925596Y-185704000D01*
X320911119Y-185708251D01*
X320909056Y-185720512D01*
X237734197Y-185720512D01*
X237685782Y-185711229D01*
X234750570Y-185188113D01*
X234690557Y-185178225D01*
X320908769Y-185178225D01*
X320909948Y-185191138D01*
X320925049Y-185196000D01*
X323127885Y-185196000D01*
X323143124Y-185191525D01*
X323144329Y-185190135D01*
X323146000Y-185182452D01*
X323146000Y-185177885D01*
X323654000Y-185177885D01*
X323658475Y-185193124D01*
X323659865Y-185194329D01*
X323667548Y-185196000D01*
X325874404Y-185196000D01*
X325888881Y-185191749D01*
X325890944Y-185179488D01*
X325886747Y-185135506D01*
X325885227Y-185126514D01*
X325821584Y-184866429D01*
X325818786Y-184857765D01*
X325718264Y-184609586D01*
X325714242Y-184601412D01*
X325578945Y-184370344D01*
X325573789Y-184362843D01*
X325406554Y-184153724D01*
X325400365Y-184147041D01*
X325204695Y-183964257D01*
X325197606Y-183958537D01*
X324977597Y-183805911D01*
X324969764Y-183801279D01*
X324730027Y-183682012D01*
X324721602Y-183678556D01*
X324467155Y-183595143D01*
X324458330Y-183592943D01*
X324193790Y-183547011D01*
X324186172Y-183546164D01*
X324104098Y-183542078D01*
X324100957Y-183542000D01*
X323672115Y-183542000D01*
X323656876Y-183546475D01*
X323655671Y-183547865D01*
X323654000Y-183555548D01*
X323654000Y-185177885D01*
X323146000Y-185177885D01*
X323146000Y-183560115D01*
X323141525Y-183544876D01*
X323140135Y-183543671D01*
X323132452Y-183542000D01*
X322731947Y-183542000D01*
X322727376Y-183542165D01*
X322528383Y-183556604D01*
X322519374Y-183557918D01*
X322257908Y-183615644D01*
X322249178Y-183618247D01*
X321998785Y-183713112D01*
X321990524Y-183716947D01*
X321756448Y-183846965D01*
X321748823Y-183851955D01*
X321535971Y-184014398D01*
X321529144Y-184020438D01*
X321341974Y-184211904D01*
X321336093Y-184218863D01*
X321178518Y-184435348D01*
X321173698Y-184443094D01*
X321049031Y-184680047D01*
X321045382Y-184688399D01*
X320956222Y-184940876D01*
X320953819Y-184949660D01*
X320908769Y-185178225D01*
X234690557Y-185178225D01*
X231808770Y-184703407D01*
X231808418Y-184703354D01*
X231808363Y-184703345D01*
X228861325Y-184257261D01*
X228861280Y-184257255D01*
X228860887Y-184257195D01*
X228860491Y-184257140D01*
X228860461Y-184257136D01*
X225907887Y-183849616D01*
X225907881Y-183849615D01*
X225907423Y-183849552D01*
X224707776Y-183699926D01*
X222949287Y-183480598D01*
X222949231Y-183480591D01*
X222948883Y-183480548D01*
X222948492Y-183480504D01*
X222948463Y-183480501D01*
X221116400Y-183276278D01*
X219985773Y-183150245D01*
X218680592Y-183022003D01*
X217018997Y-182858741D01*
X217018969Y-182858738D01*
X217018598Y-182858702D01*
X214047866Y-182605966D01*
X214047413Y-182605933D01*
X214047395Y-182605932D01*
X213069837Y-182535623D01*
X211074085Y-182392082D01*
X210450696Y-182355429D01*
X208098142Y-182217109D01*
X208098085Y-182217106D01*
X208097761Y-182217087D01*
X207609437Y-182194776D01*
X205119804Y-182081027D01*
X205119772Y-182081026D01*
X205119405Y-182081009D01*
X202139525Y-181983872D01*
X199332831Y-181929092D01*
X199159091Y-181925701D01*
X199159089Y-181925701D01*
X199158629Y-181925692D01*
X196177228Y-181906481D01*
X193195830Y-181926240D01*
X193195426Y-181926248D01*
X193195423Y-181926248D01*
X193077680Y-181928568D01*
X190214946Y-181984967D01*
X190214562Y-181984980D01*
X190214507Y-181984981D01*
X188166926Y-182052105D01*
X187235083Y-182082652D01*
X184419027Y-182211834D01*
X184257122Y-182219261D01*
X184257118Y-182219261D01*
X184256752Y-182219278D01*
X184256346Y-182219302D01*
X184256326Y-182219303D01*
X181280962Y-182394791D01*
X181280896Y-182394795D01*
X181280461Y-182394821D01*
X178962404Y-182561971D01*
X178307079Y-182609225D01*
X178307073Y-182609225D01*
X178306719Y-182609251D01*
X175336034Y-182862532D01*
X175335722Y-182862563D01*
X175335708Y-182862564D01*
X174001338Y-182993922D01*
X172368913Y-183154621D01*
X169405863Y-183485468D01*
X169405499Y-183485513D01*
X169405486Y-183485515D01*
X166471896Y-183851955D01*
X166447391Y-183855016D01*
X166446950Y-183855077D01*
X166446942Y-183855078D01*
X163494412Y-184263145D01*
X163494370Y-184263151D01*
X163494002Y-184263202D01*
X160546200Y-184709956D01*
X160177539Y-184770768D01*
X157604979Y-185195121D01*
X157604932Y-185195129D01*
X157604490Y-185195202D01*
X157603989Y-185195291D01*
X157603968Y-185195295D01*
X154669899Y-185718764D01*
X154669851Y-185718773D01*
X154669374Y-185718858D01*
X154668869Y-185718955D01*
X154668847Y-185718959D01*
X151784358Y-186272579D01*
X151741353Y-186280833D01*
X151740869Y-186280933D01*
X151740821Y-186280942D01*
X148821345Y-186880945D01*
X148820927Y-186881031D01*
X148820528Y-186881118D01*
X148820516Y-186881121D01*
X148571304Y-186935743D01*
X145908596Y-187519351D01*
X145908274Y-187519426D01*
X145908234Y-187519435D01*
X144653679Y-187811643D01*
X143004858Y-188195682D01*
X143004449Y-188195783D01*
X143004411Y-188195792D01*
X140110604Y-188909812D01*
X140110207Y-188909910D01*
X140109845Y-188910004D01*
X140109803Y-188910015D01*
X137225649Y-189661779D01*
X137225607Y-189661790D01*
X137225140Y-189661912D01*
X134350148Y-190451561D01*
X132602448Y-190956244D01*
X131486023Y-191278633D01*
X131485976Y-191278647D01*
X131485723Y-191278720D01*
X128632354Y-192143249D01*
X128632015Y-192143357D01*
X128631991Y-192143364D01*
X125790846Y-193044899D01*
X125790797Y-193044915D01*
X125790529Y-193045000D01*
X122960734Y-193983818D01*
X120143451Y-194959545D01*
X117339163Y-195972012D01*
X114548348Y-197021047D01*
X113323217Y-197499927D01*
X111771899Y-198106307D01*
X111771843Y-198106329D01*
X111771483Y-198106470D01*
X111771166Y-198106599D01*
X111771110Y-198106621D01*
X110781146Y-198508574D01*
X109009043Y-199228097D01*
X109008601Y-199228283D01*
X109008558Y-199228301D01*
X106261859Y-200385583D01*
X106261821Y-200385599D01*
X106261499Y-200385735D01*
X103529321Y-201579187D01*
X102532979Y-202030001D01*
X100851715Y-202790721D01*
X100812976Y-202808249D01*
X98112928Y-204072710D01*
X98112667Y-204072837D01*
X98112609Y-204072864D01*
X97067415Y-204579102D01*
X95429638Y-205372356D01*
X92763565Y-206706963D01*
X92763233Y-206707135D01*
X92763191Y-206707156D01*
X90115593Y-208076081D01*
X90115164Y-208076303D01*
X87484887Y-209480144D01*
X87484607Y-209480298D01*
X87484539Y-209480335D01*
X84910338Y-210897786D01*
X84873185Y-210918244D01*
X82280502Y-212390359D01*
X79707283Y-213896236D01*
X79706971Y-213896424D01*
X79706956Y-213896433D01*
X77190254Y-215413742D01*
X77153967Y-215435619D01*
X74620990Y-217008244D01*
X74620700Y-217008429D01*
X74620656Y-217008457D01*
X73458029Y-217751515D01*
X72108785Y-218613843D01*
X72108476Y-218614046D01*
X72108464Y-218614054D01*
X71841327Y-218789746D01*
X69617780Y-220252141D01*
X67148403Y-221922859D01*
X67148126Y-221923052D01*
X67148095Y-221923073D01*
X66486142Y-222383660D01*
X64701549Y-223625380D01*
X64701010Y-223625619D01*
X64692444Y-223634631D01*
X64691844Y-223635054D01*
X64673504Y-223650790D01*
X64639037Y-223674747D01*
X64622368Y-223684528D01*
X64614385Y-223688422D01*
X64614383Y-223688423D01*
X64603234Y-223693862D01*
X64595015Y-223703152D01*
X64586439Y-223709674D01*
X64576892Y-223718152D01*
X64271559Y-223929621D01*
X64262079Y-223935581D01*
X63913011Y-224133977D01*
X63903039Y-224139072D01*
X63537733Y-224305692D01*
X63527357Y-224309879D01*
X63148690Y-224443412D01*
X63137980Y-224446661D01*
X62845531Y-224521373D01*
X62748967Y-224546042D01*
X62738006Y-224548329D01*
X62341696Y-224612781D01*
X62330589Y-224614084D01*
X61984202Y-224639177D01*
X61930116Y-224643095D01*
X61918922Y-224643407D01*
X61667162Y-224639231D01*
X61517467Y-224636748D01*
X61506293Y-224636065D01*
X61107004Y-224593787D01*
X61095942Y-224592116D01*
X60701989Y-224514555D01*
X60691124Y-224511910D01*
X60305603Y-224399675D01*
X60295002Y-224396070D01*
X59920984Y-224250055D01*
X59910744Y-224245523D01*
X59551168Y-224066878D01*
X59541371Y-224061455D01*
X59199071Y-223851588D01*
X59189794Y-223845316D01*
X58943006Y-223661991D01*
X58867488Y-223605892D01*
X58858807Y-223598825D01*
X58559009Y-223331711D01*
X58551000Y-223323909D01*
X58276115Y-223031246D01*
X58268819Y-223022751D01*
X58021008Y-222706843D01*
X58014495Y-222697735D01*
X57886184Y-222500292D01*
X57795706Y-222361066D01*
X57790033Y-222351424D01*
X57601997Y-221996654D01*
X57597198Y-221986537D01*
X57570390Y-221922859D01*
X57441405Y-221616476D01*
X57437536Y-221606011D01*
X57315204Y-221223548D01*
X57312275Y-221212761D01*
X57275599Y-221049265D01*
X57224386Y-220820963D01*
X57222426Y-220809953D01*
X57169674Y-220411919D01*
X57168698Y-220400764D01*
X57153318Y-220042186D01*
X59941018Y-220042186D01*
X59966579Y-220310100D01*
X59967664Y-220314534D01*
X59967665Y-220314540D01*
X59995721Y-220429195D01*
X60030547Y-220571518D01*
X60131583Y-220820963D01*
X60267569Y-221053210D01*
X60270422Y-221056777D01*
X60403808Y-221223568D01*
X60435658Y-221263395D01*
X60632327Y-221447113D01*
X60853457Y-221600516D01*
X61094416Y-221720391D01*
X61098750Y-221721812D01*
X61098753Y-221721813D01*
X61345823Y-221802807D01*
X61345829Y-221802808D01*
X61350156Y-221804227D01*
X61354647Y-221805007D01*
X61354648Y-221805007D01*
X61611538Y-221849611D01*
X61611546Y-221849612D01*
X61615319Y-221850267D01*
X61619156Y-221850458D01*
X61698777Y-221854422D01*
X61698785Y-221854422D01*
X61700348Y-221854500D01*
X61868374Y-221854500D01*
X61870642Y-221854335D01*
X61870654Y-221854335D01*
X62001457Y-221844844D01*
X62068425Y-221839985D01*
X62072880Y-221839001D01*
X62072883Y-221839001D01*
X62326770Y-221782947D01*
X62326772Y-221782946D01*
X62331226Y-221781963D01*
X62582900Y-221686613D01*
X62685988Y-221629353D01*
X62814179Y-221558149D01*
X62814180Y-221558148D01*
X62818172Y-221555931D01*
X62964842Y-221443996D01*
X63028491Y-221395421D01*
X63028495Y-221395417D01*
X63032116Y-221392654D01*
X63220249Y-221200203D01*
X63327242Y-221053210D01*
X63375942Y-220986304D01*
X63375947Y-220986297D01*
X63378630Y-220982610D01*
X63503941Y-220744433D01*
X63593557Y-220490662D01*
X63623198Y-220340275D01*
X63644720Y-220231083D01*
X63644721Y-220231077D01*
X63645601Y-220226611D01*
X63654782Y-220042186D01*
X63658755Y-219962383D01*
X63658755Y-219962377D01*
X63658982Y-219957814D01*
X63633421Y-219689900D01*
X63605601Y-219576205D01*
X63570539Y-219432920D01*
X63569453Y-219428482D01*
X63468417Y-219179037D01*
X63332431Y-218946790D01*
X63164342Y-218736605D01*
X62967673Y-218552887D01*
X62746543Y-218399484D01*
X62505584Y-218279609D01*
X62501250Y-218278188D01*
X62501247Y-218278187D01*
X62254177Y-218197193D01*
X62254171Y-218197192D01*
X62249844Y-218195773D01*
X62245352Y-218194993D01*
X61988462Y-218150389D01*
X61988454Y-218150388D01*
X61984681Y-218149733D01*
X61974718Y-218149237D01*
X61901223Y-218145578D01*
X61901215Y-218145578D01*
X61899652Y-218145500D01*
X61731626Y-218145500D01*
X61729358Y-218145665D01*
X61729346Y-218145665D01*
X61598543Y-218155156D01*
X61531575Y-218160015D01*
X61527120Y-218160999D01*
X61527117Y-218160999D01*
X61273230Y-218217053D01*
X61273228Y-218217054D01*
X61268774Y-218218037D01*
X61017100Y-218313387D01*
X61013114Y-218315601D01*
X61013112Y-218315602D01*
X60857415Y-218402084D01*
X60781828Y-218444069D01*
X60778196Y-218446841D01*
X60571509Y-218604579D01*
X60571505Y-218604583D01*
X60567884Y-218607346D01*
X60564699Y-218610604D01*
X60564698Y-218610605D01*
X60548094Y-218627590D01*
X60379751Y-218799797D01*
X60377066Y-218803486D01*
X60224058Y-219013696D01*
X60224053Y-219013703D01*
X60221370Y-219017390D01*
X60096059Y-219255567D01*
X60006443Y-219509338D01*
X60005560Y-219513820D01*
X59970855Y-219689900D01*
X59954399Y-219773389D01*
X59954172Y-219777942D01*
X59954172Y-219777945D01*
X59942030Y-220021864D01*
X59941018Y-220042186D01*
X57153318Y-220042186D01*
X57151493Y-219999626D01*
X57151511Y-219988428D01*
X57169990Y-219587357D01*
X57171001Y-219576205D01*
X57224348Y-219183267D01*
X57225020Y-219178321D01*
X57227018Y-219167306D01*
X57311729Y-218795217D01*
X57316144Y-218775823D01*
X57319111Y-218765029D01*
X57442646Y-218382995D01*
X57446561Y-218372504D01*
X57603530Y-218002938D01*
X57608362Y-217992836D01*
X57797512Y-217638687D01*
X57803221Y-217629053D01*
X57925507Y-217442184D01*
X58006563Y-217318319D01*
X58015620Y-217307567D01*
X58021376Y-217299531D01*
X58030131Y-217291372D01*
X58030151Y-217291329D01*
X58030185Y-217291297D01*
X58035105Y-217280500D01*
X58047984Y-217258471D01*
X59608511Y-215120238D01*
X59609439Y-215118983D01*
X61218086Y-212971203D01*
X61219029Y-212969959D01*
X62854256Y-210842142D01*
X62855215Y-210840911D01*
X64516575Y-208733641D01*
X64517549Y-208732421D01*
X65894262Y-207030001D01*
X66204930Y-206645835D01*
X66205903Y-206644646D01*
X66215866Y-206632634D01*
X67919020Y-204579102D01*
X67920024Y-204577907D01*
X68364890Y-204054845D01*
X69658612Y-202533722D01*
X69659460Y-202532736D01*
X71423310Y-200510161D01*
X71424334Y-200509002D01*
X73146509Y-198582910D01*
X73213010Y-198508536D01*
X73214023Y-198507416D01*
X73368370Y-198339039D01*
X75002817Y-196556015D01*
X75021106Y-196539727D01*
X75021451Y-196539356D01*
X75031506Y-196532081D01*
X75038011Y-196521513D01*
X75038158Y-196521355D01*
X75053248Y-196501601D01*
X75222853Y-196320573D01*
X75230491Y-196313084D01*
X75231754Y-196311947D01*
X75242421Y-196305601D01*
X75249846Y-196295657D01*
X75251712Y-196293977D01*
X75257022Y-196287731D01*
X75359908Y-196181190D01*
X75359910Y-196181187D01*
X75362966Y-196178023D01*
X75466049Y-196036141D01*
X75468115Y-196032255D01*
X75468119Y-196032249D01*
X75546312Y-195885189D01*
X75546315Y-195885183D01*
X75548383Y-195881293D01*
X75565824Y-195833376D01*
X75606861Y-195720626D01*
X75606862Y-195720622D01*
X75608365Y-195716493D01*
X75644828Y-195544950D01*
X75655467Y-195392808D01*
X75656555Y-195384679D01*
X75656555Y-195382172D01*
X75658976Y-195370001D01*
X75656421Y-195357154D01*
X75654000Y-195332576D01*
X75654000Y-164886062D01*
X78028493Y-164886062D01*
X78037789Y-164898077D01*
X78088994Y-164933931D01*
X78098489Y-164939414D01*
X78295947Y-165031490D01*
X78306239Y-165035236D01*
X78516688Y-165091625D01*
X78527481Y-165093528D01*
X78744525Y-165112517D01*
X78755475Y-165112517D01*
X78972519Y-165093528D01*
X78983312Y-165091625D01*
X79193761Y-165035236D01*
X79204053Y-165031490D01*
X79401511Y-164939414D01*
X79411006Y-164933931D01*
X79463048Y-164897491D01*
X79471424Y-164887012D01*
X79464356Y-164873566D01*
X78762812Y-164172022D01*
X78748868Y-164164408D01*
X78747035Y-164164539D01*
X78740420Y-164168790D01*
X78034923Y-164874287D01*
X78028493Y-164886062D01*
X75654000Y-164886062D01*
X75654000Y-163805475D01*
X77437483Y-163805475D01*
X77456472Y-164022519D01*
X77458375Y-164033312D01*
X77514764Y-164243761D01*
X77518510Y-164254053D01*
X77610586Y-164451511D01*
X77616069Y-164461006D01*
X77652509Y-164513048D01*
X77662988Y-164521424D01*
X77676434Y-164514356D01*
X78377978Y-163812812D01*
X78385592Y-163798868D01*
X78385461Y-163797035D01*
X78381210Y-163790420D01*
X77675713Y-163084923D01*
X77663938Y-163078493D01*
X77651923Y-163087789D01*
X77616069Y-163138994D01*
X77610586Y-163148489D01*
X77518510Y-163345947D01*
X77514764Y-163356239D01*
X77458375Y-163566688D01*
X77456472Y-163577481D01*
X77437483Y-163794525D01*
X77437483Y-163805475D01*
X75654000Y-163805475D01*
X75654000Y-162712988D01*
X78028576Y-162712988D01*
X78035644Y-162726434D01*
X78737188Y-163427978D01*
X78751132Y-163435592D01*
X78752965Y-163435461D01*
X78759580Y-163431210D01*
X79465077Y-162725713D01*
X79471507Y-162713938D01*
X79462211Y-162701923D01*
X79411006Y-162666069D01*
X79401511Y-162660586D01*
X79204053Y-162568510D01*
X79193761Y-162564764D01*
X78983312Y-162508375D01*
X78972519Y-162506472D01*
X78755475Y-162487483D01*
X78744525Y-162487483D01*
X78527481Y-162506472D01*
X78516688Y-162508375D01*
X78306239Y-162564764D01*
X78295947Y-162568510D01*
X78098489Y-162660586D01*
X78088994Y-162666069D01*
X78036952Y-162702509D01*
X78028576Y-162712988D01*
X75654000Y-162712988D01*
X75654000Y-154789399D01*
X78840800Y-154789399D01*
X78857318Y-154957862D01*
X78910748Y-155118479D01*
X78914397Y-155124504D01*
X78974391Y-155223565D01*
X78998435Y-155263267D01*
X79003326Y-155268332D01*
X79003327Y-155268333D01*
X79037171Y-155303379D01*
X79116021Y-155385031D01*
X79257660Y-155477717D01*
X79416315Y-155536720D01*
X79423296Y-155537651D01*
X79423298Y-155537652D01*
X79466122Y-155543366D01*
X79531241Y-155552055D01*
X79596117Y-155580889D01*
X79603671Y-155587852D01*
X79808595Y-155792776D01*
X79842621Y-155855088D01*
X79845500Y-155881871D01*
X79845500Y-163011520D01*
X79825498Y-163079641D01*
X79808595Y-163100615D01*
X79122022Y-163787188D01*
X79114408Y-163801132D01*
X79114539Y-163802965D01*
X79118790Y-163809580D01*
X79808595Y-164499385D01*
X79842621Y-164561697D01*
X79845500Y-164588480D01*
X79845500Y-182534933D01*
X79825498Y-182603054D01*
X79817143Y-182614568D01*
X79816634Y-182615192D01*
X79811605Y-182620117D01*
X79719909Y-182762400D01*
X79716441Y-182771929D01*
X79664425Y-182914840D01*
X79664424Y-182914845D01*
X79662015Y-182921463D01*
X79640800Y-183089399D01*
X79657318Y-183257862D01*
X79710748Y-183418479D01*
X79714397Y-183424504D01*
X79794400Y-183556604D01*
X79798435Y-183563267D01*
X79803326Y-183568332D01*
X79803327Y-183568333D01*
X79870466Y-183637857D01*
X79916021Y-183685031D01*
X80057660Y-183777717D01*
X80216315Y-183836720D01*
X80223296Y-183837651D01*
X80223298Y-183837652D01*
X80377118Y-183858176D01*
X80377122Y-183858176D01*
X80384099Y-183859107D01*
X80391110Y-183858469D01*
X80391114Y-183858469D01*
X80545652Y-183844405D01*
X80552673Y-183843766D01*
X80713659Y-183791458D01*
X80803199Y-183738082D01*
X80853004Y-183708392D01*
X80853006Y-183708391D01*
X80859056Y-183704784D01*
X80981638Y-183588052D01*
X80985539Y-183582181D01*
X81071410Y-183452935D01*
X81071411Y-183452933D01*
X81075311Y-183447063D01*
X81135420Y-183288824D01*
X81158978Y-183121200D01*
X81159274Y-183100000D01*
X81149402Y-183011984D01*
X81141191Y-182938780D01*
X81141190Y-182938777D01*
X81140406Y-182931784D01*
X81084738Y-182771929D01*
X80995038Y-182628379D01*
X80990074Y-182623381D01*
X80985698Y-182617859D01*
X80986992Y-182616834D01*
X80957286Y-182561971D01*
X80954500Y-182535623D01*
X80954500Y-164692773D01*
X80974502Y-164624652D01*
X81028158Y-164578159D01*
X81098432Y-164568055D01*
X81163012Y-164597549D01*
X81201396Y-164657275D01*
X81204079Y-164668193D01*
X81210266Y-164699301D01*
X81266516Y-164783484D01*
X81350699Y-164839734D01*
X81424933Y-164854500D01*
X82249866Y-164854500D01*
X83075066Y-164854499D01*
X83110818Y-164847388D01*
X83137126Y-164842156D01*
X83137128Y-164842155D01*
X83149301Y-164839734D01*
X83159621Y-164832839D01*
X83159622Y-164832838D01*
X83223168Y-164790377D01*
X83233484Y-164783484D01*
X83289734Y-164699301D01*
X83304500Y-164625067D01*
X83304499Y-162974934D01*
X83297388Y-162939182D01*
X83292156Y-162912874D01*
X83292155Y-162912872D01*
X83289734Y-162900699D01*
X83233484Y-162816516D01*
X83149301Y-162760266D01*
X83075067Y-162745500D01*
X82250134Y-162745500D01*
X81424934Y-162745501D01*
X81389182Y-162752612D01*
X81362874Y-162757844D01*
X81362872Y-162757845D01*
X81350699Y-162760266D01*
X81340379Y-162767161D01*
X81340378Y-162767162D01*
X81279985Y-162807516D01*
X81266516Y-162816516D01*
X81210266Y-162900699D01*
X81206735Y-162918452D01*
X81204079Y-162931803D01*
X81171171Y-162994713D01*
X81109476Y-163029845D01*
X81038582Y-163026045D01*
X80980996Y-162984519D01*
X80955001Y-162918452D01*
X80954500Y-162907222D01*
X80954500Y-155615065D01*
X80954611Y-155609789D01*
X80956869Y-155555910D01*
X80957229Y-155547326D01*
X80955268Y-155538964D01*
X80955267Y-155538958D01*
X80947211Y-155504613D01*
X80945050Y-155492960D01*
X80939095Y-155449482D01*
X80935682Y-155441595D01*
X80935681Y-155441592D01*
X80933047Y-155435505D01*
X80926013Y-155414239D01*
X80924498Y-155407780D01*
X80922537Y-155399417D01*
X80901397Y-155360963D01*
X80896182Y-155350317D01*
X80882170Y-155317937D01*
X80882168Y-155317933D01*
X80878758Y-155310054D01*
X80869179Y-155298225D01*
X80856688Y-155279637D01*
X80849348Y-155266285D01*
X80842290Y-155258109D01*
X80817547Y-155233366D01*
X80808721Y-155223565D01*
X80788556Y-155198662D01*
X80788553Y-155198659D01*
X80783150Y-155191987D01*
X80767636Y-155180962D01*
X80751536Y-155167355D01*
X80387329Y-154803148D01*
X80353303Y-154740836D01*
X80351209Y-154728098D01*
X80344794Y-154670909D01*
X80340406Y-154631784D01*
X80337870Y-154624500D01*
X80313139Y-154553484D01*
X80284738Y-154471929D01*
X80195038Y-154328379D01*
X80075764Y-154208269D01*
X79932844Y-154117569D01*
X79905442Y-154107812D01*
X79780016Y-154063149D01*
X79780011Y-154063148D01*
X79773381Y-154060787D01*
X79766395Y-154059954D01*
X79766391Y-154059953D01*
X79647287Y-154045751D01*
X79605301Y-154040745D01*
X79598298Y-154041481D01*
X79598297Y-154041481D01*
X79443965Y-154057701D01*
X79443961Y-154057702D01*
X79436957Y-154058438D01*
X79430286Y-154060709D01*
X79283387Y-154110717D01*
X79283384Y-154110718D01*
X79276717Y-154112988D01*
X79270719Y-154116678D01*
X79270717Y-154116679D01*
X79138543Y-154197993D01*
X79138541Y-154197995D01*
X79132544Y-154201684D01*
X79011605Y-154320117D01*
X78919909Y-154462400D01*
X78913641Y-154479622D01*
X78864425Y-154614840D01*
X78864424Y-154614845D01*
X78862015Y-154621463D01*
X78840800Y-154789399D01*
X75654000Y-154789399D01*
X75654000Y-122037425D01*
X75656421Y-122012844D01*
X75656555Y-122012170D01*
X75658976Y-122000000D01*
X75656555Y-121987828D01*
X75656555Y-121980246D01*
X75657162Y-121967896D01*
X75667118Y-121866812D01*
X75671935Y-121842592D01*
X75707187Y-121726383D01*
X75716631Y-121703582D01*
X75773876Y-121596483D01*
X75787594Y-121575953D01*
X75793703Y-121568510D01*
X75801270Y-121559289D01*
X75864626Y-121482091D01*
X75882091Y-121464626D01*
X75975953Y-121387594D01*
X75996483Y-121373876D01*
X76103582Y-121316631D01*
X76126383Y-121307187D01*
X76242592Y-121271935D01*
X76266812Y-121267118D01*
X76367896Y-121257162D01*
X76380246Y-121256555D01*
X76387828Y-121256555D01*
X76400000Y-121258976D01*
X76412847Y-121256421D01*
X76437425Y-121254000D01*
X84562575Y-121254000D01*
X84587153Y-121256421D01*
X84600000Y-121258976D01*
X84612172Y-121256555D01*
X84619754Y-121256555D01*
X84632104Y-121257162D01*
X84733188Y-121267118D01*
X84757408Y-121271935D01*
X84873617Y-121307187D01*
X84896418Y-121316631D01*
X85003517Y-121373876D01*
X85024047Y-121387594D01*
X85117909Y-121464626D01*
X85135374Y-121482091D01*
X85198730Y-121559289D01*
X85206298Y-121568510D01*
X85212406Y-121575953D01*
X85226124Y-121596483D01*
X85283369Y-121703582D01*
X85292813Y-121726383D01*
X85328065Y-121842592D01*
X85332882Y-121866812D01*
X85342838Y-121967896D01*
X85343445Y-121980246D01*
X85343445Y-121987828D01*
X85341024Y-122000000D01*
X85343445Y-122012170D01*
X85343579Y-122012844D01*
X85346000Y-122037425D01*
X85346000Y-183222575D01*
X85343579Y-183247153D01*
X85341024Y-183260000D01*
X85342197Y-183265895D01*
X85343154Y-183277329D01*
X85343154Y-183277330D01*
X85344668Y-183295410D01*
X85359220Y-183469226D01*
X85360526Y-183474327D01*
X85360526Y-183474329D01*
X85396697Y-183615644D01*
X85411282Y-183672627D01*
X85413416Y-183677436D01*
X85413418Y-183677442D01*
X85430948Y-183716947D01*
X85496440Y-183864539D01*
X85499346Y-183868930D01*
X85499348Y-183868933D01*
X85518544Y-183897934D01*
X85612324Y-184039620D01*
X85755706Y-184192995D01*
X85922595Y-184320393D01*
X85927251Y-184322846D01*
X85927252Y-184322847D01*
X86103690Y-184415816D01*
X86103693Y-184415817D01*
X86108344Y-184418268D01*
X86307782Y-184483895D01*
X86312986Y-184484686D01*
X86312990Y-184484687D01*
X86510144Y-184514655D01*
X86510145Y-184514655D01*
X86515355Y-184515447D01*
X86520622Y-184515362D01*
X86520627Y-184515362D01*
X86625891Y-184513655D01*
X86725286Y-184512044D01*
X86730466Y-184511084D01*
X86926549Y-184474743D01*
X86926551Y-184474743D01*
X86931728Y-184473783D01*
X87036919Y-184435348D01*
X87123986Y-184403535D01*
X87123987Y-184403535D01*
X87128934Y-184401727D01*
X87267546Y-184322847D01*
X87306842Y-184300485D01*
X87306844Y-184300484D01*
X87311414Y-184297883D01*
X87469499Y-184168886D01*
X87474558Y-184165632D01*
X87481632Y-184155435D01*
X87485895Y-184151319D01*
X87497543Y-184137989D01*
X87743670Y-183912819D01*
X87763564Y-183897940D01*
X87774581Y-183891285D01*
X87781940Y-183881291D01*
X87782253Y-183881005D01*
X87798765Y-183862765D01*
X89611043Y-182227655D01*
X89612119Y-182226696D01*
X90148042Y-181754175D01*
X320892000Y-181754175D01*
X320892249Y-181759770D01*
X320906378Y-181918078D01*
X320908360Y-181929092D01*
X320964651Y-182134860D01*
X320968549Y-182145341D01*
X321060397Y-182337903D01*
X321066082Y-182347516D01*
X321190575Y-182520767D01*
X321197883Y-182529233D01*
X321351082Y-182677692D01*
X321359779Y-182684735D01*
X321536844Y-182803719D01*
X321546642Y-182809105D01*
X321741990Y-182894857D01*
X321752582Y-182898422D01*
X321878384Y-182928624D01*
X321892470Y-182927919D01*
X321896000Y-182919040D01*
X321896000Y-182918411D01*
X322404000Y-182918411D01*
X322408105Y-182932393D01*
X322417728Y-182933886D01*
X322417973Y-182933834D01*
X322621883Y-182871102D01*
X322632229Y-182866881D01*
X322821814Y-182769029D01*
X322831245Y-182763043D01*
X323000501Y-182633168D01*
X323008724Y-182625607D01*
X323152312Y-182467806D01*
X323159067Y-182458906D01*
X323272434Y-182278185D01*
X323277508Y-182268226D01*
X323284625Y-182250521D01*
X323328591Y-182194776D01*
X323395716Y-182171650D01*
X323464687Y-182188486D01*
X323515259Y-182243271D01*
X323560397Y-182337903D01*
X323566082Y-182347516D01*
X323690575Y-182520767D01*
X323697883Y-182529233D01*
X323851082Y-182677692D01*
X323859779Y-182684735D01*
X324036844Y-182803719D01*
X324046642Y-182809105D01*
X324241990Y-182894857D01*
X324252582Y-182898422D01*
X324378384Y-182928624D01*
X324392470Y-182927919D01*
X324396000Y-182919040D01*
X324396000Y-182918411D01*
X324904000Y-182918411D01*
X324908105Y-182932393D01*
X324917728Y-182933886D01*
X324917973Y-182933834D01*
X325121883Y-182871102D01*
X325132229Y-182866881D01*
X325321814Y-182769029D01*
X325331245Y-182763043D01*
X325500501Y-182633168D01*
X325508724Y-182625607D01*
X325652312Y-182467806D01*
X325659067Y-182458906D01*
X325772434Y-182278185D01*
X325777511Y-182268219D01*
X325857080Y-182070286D01*
X325860315Y-182059571D01*
X325903777Y-181849699D01*
X325904980Y-181840562D01*
X325907895Y-181790010D01*
X325908000Y-181786363D01*
X325908000Y-181472115D01*
X325903525Y-181456876D01*
X325902135Y-181455671D01*
X325894452Y-181454000D01*
X324922115Y-181454000D01*
X324906876Y-181458475D01*
X324905671Y-181459865D01*
X324904000Y-181467548D01*
X324904000Y-182918411D01*
X324396000Y-182918411D01*
X324396000Y-181472115D01*
X324391525Y-181456876D01*
X324390135Y-181455671D01*
X324382452Y-181454000D01*
X322422115Y-181454000D01*
X322406876Y-181458475D01*
X322405671Y-181459865D01*
X322404000Y-181467548D01*
X322404000Y-182918411D01*
X321896000Y-182918411D01*
X321896000Y-181472115D01*
X321891525Y-181456876D01*
X321890135Y-181455671D01*
X321882452Y-181454000D01*
X320910115Y-181454000D01*
X320894876Y-181458475D01*
X320893671Y-181459865D01*
X320892000Y-181467548D01*
X320892000Y-181754175D01*
X90148042Y-181754175D01*
X91085203Y-180927885D01*
X320892000Y-180927885D01*
X320896475Y-180943124D01*
X320897865Y-180944329D01*
X320905548Y-180946000D01*
X321877885Y-180946000D01*
X321893124Y-180941525D01*
X321894329Y-180940135D01*
X321896000Y-180932452D01*
X321896000Y-180927885D01*
X322404000Y-180927885D01*
X322408475Y-180943124D01*
X322409865Y-180944329D01*
X322417548Y-180946000D01*
X324377885Y-180946000D01*
X324393124Y-180941525D01*
X324394329Y-180940135D01*
X324396000Y-180932452D01*
X324396000Y-180927885D01*
X324904000Y-180927885D01*
X324908475Y-180943124D01*
X324909865Y-180944329D01*
X324917548Y-180946000D01*
X325889885Y-180946000D01*
X325905124Y-180941525D01*
X325906329Y-180940135D01*
X325908000Y-180932452D01*
X325908000Y-180645825D01*
X325907751Y-180640230D01*
X325893622Y-180481922D01*
X325891640Y-180470908D01*
X325835349Y-180265140D01*
X325831451Y-180254659D01*
X325739603Y-180062097D01*
X325733918Y-180052484D01*
X325609425Y-179879233D01*
X325602117Y-179870767D01*
X325448918Y-179722308D01*
X325440221Y-179715265D01*
X325263156Y-179596281D01*
X325253358Y-179590895D01*
X325058010Y-179505143D01*
X325047418Y-179501578D01*
X324921616Y-179471376D01*
X324907530Y-179472081D01*
X324904000Y-179480960D01*
X324904000Y-180927885D01*
X324396000Y-180927885D01*
X324396000Y-179481589D01*
X324391895Y-179467607D01*
X324382272Y-179466114D01*
X324382027Y-179466166D01*
X324178117Y-179528898D01*
X324167771Y-179533119D01*
X323978186Y-179630971D01*
X323968755Y-179636957D01*
X323799499Y-179766832D01*
X323791276Y-179774393D01*
X323647688Y-179932194D01*
X323640933Y-179941094D01*
X323527566Y-180121815D01*
X323522492Y-180131774D01*
X323515375Y-180149479D01*
X323471409Y-180205224D01*
X323404284Y-180228350D01*
X323335313Y-180211514D01*
X323284741Y-180156729D01*
X323239603Y-180062097D01*
X323233918Y-180052484D01*
X323109425Y-179879233D01*
X323102117Y-179870767D01*
X322948918Y-179722308D01*
X322940221Y-179715265D01*
X322763156Y-179596281D01*
X322753358Y-179590895D01*
X322558010Y-179505143D01*
X322547418Y-179501578D01*
X322421616Y-179471376D01*
X322407530Y-179472081D01*
X322404000Y-179480960D01*
X322404000Y-180927885D01*
X321896000Y-180927885D01*
X321896000Y-179481589D01*
X321891895Y-179467607D01*
X321882272Y-179466114D01*
X321882027Y-179466166D01*
X321678117Y-179528898D01*
X321667771Y-179533119D01*
X321478186Y-179630971D01*
X321468755Y-179636957D01*
X321299499Y-179766832D01*
X321291276Y-179774393D01*
X321147688Y-179932194D01*
X321140933Y-179941094D01*
X321027566Y-180121815D01*
X321022489Y-180131781D01*
X320942920Y-180329714D01*
X320939685Y-180340429D01*
X320896223Y-180550301D01*
X320895020Y-180559438D01*
X320892105Y-180609990D01*
X320892000Y-180613637D01*
X320892000Y-180927885D01*
X91085203Y-180927885D01*
X91470125Y-180588501D01*
X91471211Y-180587553D01*
X93348076Y-178970518D01*
X93349174Y-178969584D01*
X95244228Y-177374288D01*
X95245336Y-177373366D01*
X95404834Y-177242186D01*
X194341018Y-177242186D01*
X194366579Y-177510100D01*
X194367664Y-177514534D01*
X194367665Y-177514540D01*
X194425526Y-177750997D01*
X194430547Y-177771518D01*
X194531583Y-178020963D01*
X194667569Y-178253210D01*
X194835658Y-178463395D01*
X195032327Y-178647113D01*
X195253457Y-178800516D01*
X195494416Y-178920391D01*
X195498750Y-178921812D01*
X195498753Y-178921813D01*
X195745823Y-179002807D01*
X195745829Y-179002808D01*
X195750156Y-179004227D01*
X195754647Y-179005007D01*
X195754648Y-179005007D01*
X196011538Y-179049611D01*
X196011546Y-179049612D01*
X196015319Y-179050267D01*
X196019156Y-179050458D01*
X196098777Y-179054422D01*
X196098785Y-179054422D01*
X196100348Y-179054500D01*
X196268374Y-179054500D01*
X196270642Y-179054335D01*
X196270654Y-179054335D01*
X196401457Y-179044844D01*
X196468425Y-179039985D01*
X196472880Y-179039001D01*
X196472883Y-179039001D01*
X196726770Y-178982947D01*
X196726772Y-178982946D01*
X196731226Y-178981963D01*
X196982900Y-178886613D01*
X197218172Y-178755931D01*
X197296461Y-178696183D01*
X197428491Y-178595421D01*
X197428495Y-178595417D01*
X197432116Y-178592654D01*
X197620249Y-178400203D01*
X197653504Y-178354515D01*
X197775942Y-178186304D01*
X197775947Y-178186297D01*
X197778630Y-178182610D01*
X197903941Y-177944433D01*
X197972250Y-177750997D01*
X321145500Y-177750997D01*
X321160942Y-177903024D01*
X321221967Y-178097755D01*
X321320902Y-178276238D01*
X321453705Y-178431182D01*
X321614951Y-178556257D01*
X321620673Y-178559072D01*
X321620672Y-178559072D01*
X321792332Y-178643540D01*
X321792337Y-178643542D01*
X321798054Y-178646355D01*
X321804227Y-178647963D01*
X321804230Y-178647964D01*
X321910919Y-178675754D01*
X321995533Y-178697794D01*
X322097428Y-178703134D01*
X322192942Y-178708141D01*
X322192946Y-178708141D01*
X322199323Y-178708475D01*
X322401097Y-178677959D01*
X322592615Y-178607494D01*
X322766051Y-178499959D01*
X322914323Y-178359746D01*
X322986423Y-178256777D01*
X323027708Y-178197815D01*
X323027709Y-178197814D01*
X323031372Y-178192582D01*
X323112418Y-178005297D01*
X323154149Y-177805540D01*
X323154500Y-177798842D01*
X323154500Y-177750997D01*
X323645500Y-177750997D01*
X323660942Y-177903024D01*
X323721967Y-178097755D01*
X323820902Y-178276238D01*
X323953705Y-178431182D01*
X324114951Y-178556257D01*
X324120673Y-178559072D01*
X324120672Y-178559072D01*
X324292332Y-178643540D01*
X324292337Y-178643542D01*
X324298054Y-178646355D01*
X324304227Y-178647963D01*
X324304230Y-178647964D01*
X324410919Y-178675754D01*
X324495533Y-178697794D01*
X324597428Y-178703134D01*
X324692942Y-178708141D01*
X324692946Y-178708141D01*
X324699323Y-178708475D01*
X324901097Y-178677959D01*
X325092615Y-178607494D01*
X325266051Y-178499959D01*
X325414323Y-178359746D01*
X325486423Y-178256777D01*
X325527708Y-178197815D01*
X325527709Y-178197814D01*
X325531372Y-178192582D01*
X325612418Y-178005297D01*
X325654149Y-177805540D01*
X325654500Y-177798842D01*
X325654500Y-176649003D01*
X325639058Y-176496976D01*
X325578033Y-176302245D01*
X325479098Y-176123762D01*
X325346295Y-175968818D01*
X325185049Y-175843743D01*
X325111081Y-175807346D01*
X325007668Y-175756460D01*
X325007663Y-175756458D01*
X325001946Y-175753645D01*
X324995773Y-175752037D01*
X324995770Y-175752036D01*
X324876949Y-175721086D01*
X324804467Y-175702206D01*
X324702572Y-175696866D01*
X324607058Y-175691859D01*
X324607054Y-175691859D01*
X324600677Y-175691525D01*
X324398903Y-175722041D01*
X324207385Y-175792506D01*
X324033949Y-175900041D01*
X323885677Y-176040254D01*
X323882015Y-176045484D01*
X323882014Y-176045485D01*
X323811080Y-176146790D01*
X323768628Y-176207418D01*
X323687582Y-176394703D01*
X323645851Y-176594460D01*
X323645500Y-176601158D01*
X323645500Y-177750997D01*
X323154500Y-177750997D01*
X323154500Y-176649003D01*
X323139058Y-176496976D01*
X323078033Y-176302245D01*
X322979098Y-176123762D01*
X322846295Y-175968818D01*
X322685049Y-175843743D01*
X322611081Y-175807346D01*
X322507668Y-175756460D01*
X322507663Y-175756458D01*
X322501946Y-175753645D01*
X322495773Y-175752037D01*
X322495770Y-175752036D01*
X322376949Y-175721086D01*
X322304467Y-175702206D01*
X322202572Y-175696866D01*
X322107058Y-175691859D01*
X322107054Y-175691859D01*
X322100677Y-175691525D01*
X321898903Y-175722041D01*
X321707385Y-175792506D01*
X321533949Y-175900041D01*
X321385677Y-176040254D01*
X321382015Y-176045484D01*
X321382014Y-176045485D01*
X321311080Y-176146790D01*
X321268628Y-176207418D01*
X321187582Y-176394703D01*
X321145851Y-176594460D01*
X321145500Y-176601158D01*
X321145500Y-177750997D01*
X197972250Y-177750997D01*
X197993557Y-177690662D01*
X198018688Y-177563156D01*
X198044720Y-177431083D01*
X198044721Y-177431077D01*
X198045601Y-177426611D01*
X198048252Y-177373366D01*
X198058755Y-177162383D01*
X198058755Y-177162377D01*
X198058982Y-177157814D01*
X198033421Y-176889900D01*
X197975257Y-176652199D01*
X197970539Y-176632920D01*
X197969453Y-176628482D01*
X197868417Y-176379037D01*
X197732431Y-176146790D01*
X197564342Y-175936605D01*
X197367673Y-175752887D01*
X197146543Y-175599484D01*
X196905584Y-175479609D01*
X196901250Y-175478188D01*
X196901247Y-175478187D01*
X196654177Y-175397193D01*
X196654171Y-175397192D01*
X196649844Y-175395773D01*
X196645352Y-175394993D01*
X196388462Y-175350389D01*
X196388454Y-175350388D01*
X196384681Y-175349733D01*
X196374718Y-175349237D01*
X196301223Y-175345578D01*
X196301215Y-175345578D01*
X196299652Y-175345500D01*
X196131626Y-175345500D01*
X196129358Y-175345665D01*
X196129346Y-175345665D01*
X195998543Y-175355156D01*
X195931575Y-175360015D01*
X195927120Y-175360999D01*
X195927117Y-175360999D01*
X195673230Y-175417053D01*
X195673228Y-175417054D01*
X195668774Y-175418037D01*
X195417100Y-175513387D01*
X195181828Y-175644069D01*
X195178196Y-175646841D01*
X194971509Y-175804579D01*
X194971505Y-175804583D01*
X194967884Y-175807346D01*
X194779751Y-175999797D01*
X194777066Y-176003486D01*
X194624058Y-176213696D01*
X194624053Y-176213703D01*
X194621370Y-176217390D01*
X194496059Y-176455567D01*
X194406443Y-176709338D01*
X194405560Y-176713820D01*
X194370855Y-176889900D01*
X194354399Y-176973389D01*
X194354172Y-176977942D01*
X194354172Y-176977945D01*
X194344991Y-177162383D01*
X194341018Y-177242186D01*
X95404834Y-177242186D01*
X97158560Y-175799821D01*
X97159679Y-175798911D01*
X98957414Y-174354515D01*
X99090849Y-174247305D01*
X99091974Y-174246413D01*
X99168035Y-174186721D01*
X99723241Y-173750997D01*
X321145500Y-173750997D01*
X321160942Y-173903024D01*
X321221967Y-174097755D01*
X321320902Y-174276238D01*
X321453705Y-174431182D01*
X321614951Y-174556257D01*
X321620673Y-174559072D01*
X321620672Y-174559072D01*
X321792332Y-174643540D01*
X321792337Y-174643542D01*
X321798054Y-174646355D01*
X321804227Y-174647963D01*
X321804230Y-174647964D01*
X321910919Y-174675754D01*
X321995533Y-174697794D01*
X322097428Y-174703135D01*
X322192942Y-174708141D01*
X322192946Y-174708141D01*
X322199323Y-174708475D01*
X322401097Y-174677959D01*
X322592615Y-174607494D01*
X322766051Y-174499959D01*
X322914323Y-174359746D01*
X323031372Y-174192582D01*
X323112418Y-174005297D01*
X323154149Y-173805540D01*
X323154500Y-173798842D01*
X323154500Y-172649003D01*
X323139058Y-172496976D01*
X323078033Y-172302245D01*
X322979098Y-172123762D01*
X322846295Y-171968818D01*
X322789719Y-171924933D01*
X323645500Y-171924933D01*
X323645501Y-174475066D01*
X323660266Y-174549301D01*
X323716516Y-174633484D01*
X323800699Y-174689734D01*
X323874933Y-174704500D01*
X324649874Y-174704500D01*
X325425066Y-174704499D01*
X325466877Y-174696183D01*
X325487126Y-174692156D01*
X325487128Y-174692155D01*
X325499301Y-174689734D01*
X325509621Y-174682839D01*
X325509622Y-174682838D01*
X325573168Y-174640377D01*
X325583484Y-174633484D01*
X325639734Y-174549301D01*
X325654500Y-174475067D01*
X325654499Y-171924934D01*
X325639734Y-171850699D01*
X325583484Y-171766516D01*
X325499301Y-171710266D01*
X325425067Y-171695500D01*
X324650126Y-171695500D01*
X323874934Y-171695501D01*
X323842902Y-171701872D01*
X323812874Y-171707844D01*
X323812872Y-171707845D01*
X323800699Y-171710266D01*
X323790379Y-171717161D01*
X323790378Y-171717162D01*
X323738187Y-171752036D01*
X323716516Y-171766516D01*
X323660266Y-171850699D01*
X323645500Y-171924933D01*
X322789719Y-171924933D01*
X322685049Y-171843743D01*
X322576439Y-171790300D01*
X322507668Y-171756460D01*
X322507663Y-171756458D01*
X322501946Y-171753645D01*
X322495773Y-171752037D01*
X322495770Y-171752036D01*
X322361884Y-171717162D01*
X322304467Y-171702206D01*
X322199548Y-171696707D01*
X322107058Y-171691859D01*
X322107054Y-171691859D01*
X322100677Y-171691525D01*
X321898903Y-171722041D01*
X321707385Y-171792506D01*
X321533949Y-171900041D01*
X321385677Y-172040254D01*
X321268628Y-172207418D01*
X321187582Y-172394703D01*
X321145851Y-172594460D01*
X321145500Y-172601158D01*
X321145500Y-173750997D01*
X99723241Y-173750997D01*
X101040658Y-172717092D01*
X101041797Y-172716208D01*
X102299732Y-171752036D01*
X103007979Y-171209185D01*
X103009111Y-171208328D01*
X104963207Y-169745754D01*
X104984301Y-169733067D01*
X104984634Y-169732821D01*
X104995859Y-169727530D01*
X105004204Y-169718347D01*
X105009471Y-169714452D01*
X105022219Y-169703260D01*
X105036477Y-169693341D01*
X105045115Y-169688788D01*
X105045026Y-169688646D01*
X105055551Y-169682069D01*
X105067155Y-169677672D01*
X105076193Y-169669170D01*
X105079002Y-169667414D01*
X105082988Y-169664105D01*
X105213004Y-169569147D01*
X105216260Y-169565956D01*
X105216264Y-169565952D01*
X105339481Y-169445169D01*
X105339484Y-169445166D01*
X105342740Y-169441974D01*
X105452795Y-169297432D01*
X105495432Y-169220512D01*
X320909056Y-169220512D01*
X320913253Y-169264494D01*
X320914773Y-169273486D01*
X320978416Y-169533571D01*
X320981214Y-169542235D01*
X321081736Y-169790414D01*
X321085758Y-169798588D01*
X321221055Y-170029656D01*
X321226211Y-170037157D01*
X321393446Y-170246276D01*
X321399635Y-170252959D01*
X321595305Y-170435743D01*
X321602394Y-170441463D01*
X321822403Y-170594089D01*
X321830236Y-170598721D01*
X322069973Y-170717988D01*
X322078398Y-170721444D01*
X322332845Y-170804857D01*
X322341670Y-170807057D01*
X322606210Y-170852989D01*
X322613828Y-170853836D01*
X322695902Y-170857922D01*
X322699043Y-170858000D01*
X323127885Y-170858000D01*
X323143124Y-170853525D01*
X323144329Y-170852135D01*
X323146000Y-170844452D01*
X323146000Y-170839885D01*
X323654000Y-170839885D01*
X323658475Y-170855124D01*
X323659865Y-170856329D01*
X323667548Y-170858000D01*
X324068053Y-170858000D01*
X324072624Y-170857835D01*
X324271617Y-170843396D01*
X324280626Y-170842082D01*
X324542092Y-170784356D01*
X324550822Y-170781753D01*
X324801215Y-170686888D01*
X324809476Y-170683053D01*
X325043552Y-170553035D01*
X325051177Y-170548045D01*
X325264029Y-170385602D01*
X325270856Y-170379562D01*
X325458026Y-170188096D01*
X325463907Y-170181137D01*
X325621482Y-169964652D01*
X325626302Y-169956906D01*
X325750969Y-169719953D01*
X325754618Y-169711601D01*
X325843778Y-169459124D01*
X325846181Y-169450340D01*
X325891231Y-169221775D01*
X325890052Y-169208862D01*
X325874951Y-169204000D01*
X323672115Y-169204000D01*
X323656876Y-169208475D01*
X323655671Y-169209865D01*
X323654000Y-169217548D01*
X323654000Y-170839885D01*
X323146000Y-170839885D01*
X323146000Y-169222115D01*
X323141525Y-169206876D01*
X323140135Y-169205671D01*
X323132452Y-169204000D01*
X320925596Y-169204000D01*
X320911119Y-169208251D01*
X320909056Y-169220512D01*
X105495432Y-169220512D01*
X105540871Y-169138538D01*
X105605130Y-168968610D01*
X105644230Y-168791196D01*
X105644559Y-168786658D01*
X105655860Y-168630630D01*
X105656555Y-168625486D01*
X105656555Y-168622169D01*
X105658976Y-168609999D01*
X105656421Y-168597154D01*
X105654000Y-168572573D01*
X105654000Y-140886062D01*
X108028493Y-140886062D01*
X108037789Y-140898077D01*
X108088994Y-140933931D01*
X108098489Y-140939414D01*
X108295947Y-141031490D01*
X108306239Y-141035236D01*
X108516688Y-141091625D01*
X108527481Y-141093528D01*
X108744525Y-141112517D01*
X108755475Y-141112517D01*
X108972519Y-141093528D01*
X108983312Y-141091625D01*
X109193761Y-141035236D01*
X109204053Y-141031490D01*
X109401511Y-140939414D01*
X109411006Y-140933931D01*
X109463048Y-140897491D01*
X109471424Y-140887012D01*
X109464356Y-140873566D01*
X108762812Y-140172022D01*
X108748868Y-140164408D01*
X108747035Y-140164539D01*
X108740420Y-140168790D01*
X108034923Y-140874287D01*
X108028493Y-140886062D01*
X105654000Y-140886062D01*
X105654000Y-139805475D01*
X107437483Y-139805475D01*
X107456472Y-140022519D01*
X107458375Y-140033312D01*
X107514764Y-140243761D01*
X107518510Y-140254053D01*
X107610586Y-140451511D01*
X107616069Y-140461006D01*
X107652509Y-140513048D01*
X107662988Y-140521424D01*
X107676434Y-140514356D01*
X108377978Y-139812812D01*
X108385592Y-139798868D01*
X108385461Y-139797035D01*
X108381210Y-139790420D01*
X107675713Y-139084923D01*
X107663938Y-139078493D01*
X107651923Y-139087789D01*
X107616069Y-139138994D01*
X107610586Y-139148489D01*
X107518510Y-139345947D01*
X107514764Y-139356239D01*
X107458375Y-139566688D01*
X107456472Y-139577481D01*
X107437483Y-139794525D01*
X107437483Y-139805475D01*
X105654000Y-139805475D01*
X105654000Y-138712988D01*
X108028576Y-138712988D01*
X108035644Y-138726434D01*
X108737188Y-139427978D01*
X108751132Y-139435592D01*
X108752965Y-139435461D01*
X108759580Y-139431210D01*
X109465077Y-138725713D01*
X109471507Y-138713938D01*
X109462211Y-138701923D01*
X109411006Y-138666069D01*
X109401511Y-138660586D01*
X109204053Y-138568510D01*
X109193761Y-138564764D01*
X108983312Y-138508375D01*
X108972519Y-138506472D01*
X108755475Y-138487483D01*
X108744525Y-138487483D01*
X108527481Y-138506472D01*
X108516688Y-138508375D01*
X108306239Y-138564764D01*
X108295947Y-138568510D01*
X108098489Y-138660586D01*
X108088994Y-138666069D01*
X108036952Y-138702509D01*
X108028576Y-138712988D01*
X105654000Y-138712988D01*
X105654000Y-130789399D01*
X108840800Y-130789399D01*
X108857318Y-130957862D01*
X108910748Y-131118479D01*
X108914397Y-131124504D01*
X108974391Y-131223565D01*
X108998435Y-131263267D01*
X109003326Y-131268332D01*
X109003327Y-131268333D01*
X109037171Y-131303379D01*
X109116021Y-131385031D01*
X109257660Y-131477717D01*
X109416315Y-131536720D01*
X109423296Y-131537651D01*
X109423298Y-131537652D01*
X109466122Y-131543366D01*
X109531241Y-131552055D01*
X109596117Y-131580889D01*
X109603671Y-131587852D01*
X109808595Y-131792776D01*
X109842621Y-131855088D01*
X109845500Y-131881871D01*
X109845500Y-139011520D01*
X109825498Y-139079641D01*
X109808595Y-139100615D01*
X109122022Y-139787188D01*
X109114408Y-139801132D01*
X109114539Y-139802965D01*
X109118790Y-139809580D01*
X109808595Y-140499385D01*
X109842621Y-140561697D01*
X109845500Y-140588480D01*
X109845500Y-167938791D01*
X109825411Y-168007046D01*
X109762372Y-168104863D01*
X109759961Y-168111488D01*
X109706888Y-168257303D01*
X109706887Y-168257308D01*
X109704478Y-168263926D01*
X109683263Y-168431862D01*
X109699781Y-168600325D01*
X109753211Y-168760942D01*
X109840898Y-168905730D01*
X109845789Y-168910795D01*
X109845790Y-168910796D01*
X109869525Y-168935374D01*
X109958484Y-169027494D01*
X110100123Y-169120180D01*
X110258778Y-169179183D01*
X110265759Y-169180114D01*
X110265761Y-169180115D01*
X110419581Y-169200639D01*
X110419585Y-169200639D01*
X110426562Y-169201570D01*
X110433573Y-169200932D01*
X110433577Y-169200932D01*
X110588115Y-169186868D01*
X110595136Y-169186229D01*
X110729636Y-169142527D01*
X110749422Y-169136098D01*
X110756122Y-169133921D01*
X110901519Y-169047247D01*
X111024101Y-168930515D01*
X111028002Y-168924644D01*
X111113873Y-168795398D01*
X111113874Y-168795396D01*
X111117774Y-168789526D01*
X111160053Y-168678225D01*
X320908769Y-168678225D01*
X320909948Y-168691138D01*
X320925049Y-168696000D01*
X323127885Y-168696000D01*
X323143124Y-168691525D01*
X323144329Y-168690135D01*
X323146000Y-168682452D01*
X323146000Y-168677885D01*
X323654000Y-168677885D01*
X323658475Y-168693124D01*
X323659865Y-168694329D01*
X323667548Y-168696000D01*
X325874404Y-168696000D01*
X325888881Y-168691749D01*
X325890944Y-168679488D01*
X325886747Y-168635506D01*
X325885227Y-168626514D01*
X325821584Y-168366429D01*
X325818786Y-168357765D01*
X325718264Y-168109586D01*
X325714242Y-168101412D01*
X325578945Y-167870344D01*
X325573789Y-167862843D01*
X325406554Y-167653724D01*
X325400365Y-167647041D01*
X325204695Y-167464257D01*
X325197606Y-167458537D01*
X324977597Y-167305911D01*
X324969764Y-167301279D01*
X324730027Y-167182012D01*
X324721602Y-167178556D01*
X324467155Y-167095143D01*
X324458330Y-167092943D01*
X324193790Y-167047011D01*
X324186172Y-167046164D01*
X324104098Y-167042078D01*
X324100957Y-167042000D01*
X323672115Y-167042000D01*
X323656876Y-167046475D01*
X323655671Y-167047865D01*
X323654000Y-167055548D01*
X323654000Y-168677885D01*
X323146000Y-168677885D01*
X323146000Y-167060115D01*
X323141525Y-167044876D01*
X323140135Y-167043671D01*
X323132452Y-167042000D01*
X322731947Y-167042000D01*
X322727376Y-167042165D01*
X322528383Y-167056604D01*
X322519374Y-167057918D01*
X322257908Y-167115644D01*
X322249178Y-167118247D01*
X321998785Y-167213112D01*
X321990524Y-167216947D01*
X321756448Y-167346965D01*
X321748823Y-167351955D01*
X321535971Y-167514398D01*
X321529144Y-167520438D01*
X321341974Y-167711904D01*
X321336093Y-167718863D01*
X321178518Y-167935348D01*
X321173698Y-167943094D01*
X321049031Y-168180047D01*
X321045382Y-168188399D01*
X320956222Y-168440876D01*
X320953819Y-168449660D01*
X320908769Y-168678225D01*
X111160053Y-168678225D01*
X111177883Y-168631287D01*
X111201441Y-168463663D01*
X111201737Y-168442463D01*
X111182869Y-168274247D01*
X111127201Y-168114392D01*
X111037501Y-167970842D01*
X110991094Y-167924109D01*
X110957287Y-167861679D01*
X110954500Y-167835326D01*
X110954500Y-140692773D01*
X110974502Y-140624652D01*
X111028158Y-140578159D01*
X111098432Y-140568055D01*
X111163012Y-140597549D01*
X111201396Y-140657275D01*
X111204079Y-140668193D01*
X111210266Y-140699301D01*
X111217161Y-140709620D01*
X111217162Y-140709622D01*
X111257039Y-140769301D01*
X111266516Y-140783484D01*
X111350699Y-140839734D01*
X111424933Y-140854500D01*
X112249866Y-140854500D01*
X113075066Y-140854499D01*
X113110818Y-140847388D01*
X113137126Y-140842156D01*
X113137128Y-140842155D01*
X113149301Y-140839734D01*
X113159621Y-140832839D01*
X113159622Y-140832838D01*
X113223168Y-140790377D01*
X113233484Y-140783484D01*
X113274745Y-140721733D01*
X113282839Y-140709620D01*
X113289734Y-140699301D01*
X113304500Y-140625067D01*
X113304499Y-138974934D01*
X113297388Y-138939182D01*
X113292156Y-138912874D01*
X113292155Y-138912872D01*
X113289734Y-138900699D01*
X113270511Y-138871929D01*
X113240377Y-138826832D01*
X113233484Y-138816516D01*
X113149301Y-138760266D01*
X113075067Y-138745500D01*
X112250134Y-138745500D01*
X111424934Y-138745501D01*
X111389182Y-138752612D01*
X111362874Y-138757844D01*
X111362872Y-138757845D01*
X111350699Y-138760266D01*
X111340379Y-138767161D01*
X111340378Y-138767162D01*
X111279985Y-138807516D01*
X111266516Y-138816516D01*
X111210266Y-138900699D01*
X111206735Y-138918452D01*
X111204079Y-138931803D01*
X111171171Y-138994713D01*
X111109476Y-139029845D01*
X111038582Y-139026045D01*
X110980996Y-138984519D01*
X110955001Y-138918452D01*
X110954500Y-138907222D01*
X110954500Y-131615065D01*
X110954611Y-131609789D01*
X110955822Y-131580889D01*
X110957229Y-131547326D01*
X110955268Y-131538964D01*
X110955267Y-131538958D01*
X110947211Y-131504613D01*
X110945050Y-131492960D01*
X110939095Y-131449482D01*
X110935682Y-131441595D01*
X110935681Y-131441592D01*
X110933047Y-131435505D01*
X110926013Y-131414239D01*
X110924498Y-131407780D01*
X110922537Y-131399417D01*
X110901397Y-131360963D01*
X110896182Y-131350317D01*
X110882170Y-131317937D01*
X110882168Y-131317933D01*
X110878758Y-131310054D01*
X110869179Y-131298225D01*
X110856688Y-131279637D01*
X110849348Y-131266285D01*
X110842290Y-131258109D01*
X110817547Y-131233366D01*
X110808721Y-131223565D01*
X110788556Y-131198662D01*
X110788553Y-131198659D01*
X110783150Y-131191987D01*
X110767636Y-131180962D01*
X110751536Y-131167355D01*
X110387329Y-130803148D01*
X110353303Y-130740836D01*
X110351209Y-130728098D01*
X110341191Y-130638787D01*
X110340406Y-130631784D01*
X110334506Y-130614840D01*
X110302944Y-130524210D01*
X110284738Y-130471929D01*
X110195038Y-130328379D01*
X110075764Y-130208269D01*
X109932844Y-130117569D01*
X109905442Y-130107812D01*
X109780016Y-130063149D01*
X109780011Y-130063148D01*
X109773381Y-130060787D01*
X109766395Y-130059954D01*
X109766391Y-130059953D01*
X109647287Y-130045751D01*
X109605301Y-130040745D01*
X109598298Y-130041481D01*
X109598297Y-130041481D01*
X109443965Y-130057701D01*
X109443961Y-130057702D01*
X109436957Y-130058438D01*
X109430286Y-130060709D01*
X109283387Y-130110717D01*
X109283384Y-130110718D01*
X109276717Y-130112988D01*
X109270719Y-130116678D01*
X109270717Y-130116679D01*
X109138543Y-130197993D01*
X109138541Y-130197995D01*
X109132544Y-130201684D01*
X109011605Y-130320117D01*
X108919909Y-130462400D01*
X108917498Y-130469025D01*
X108864425Y-130614840D01*
X108864424Y-130614845D01*
X108862015Y-130621463D01*
X108840800Y-130789399D01*
X105654000Y-130789399D01*
X105654000Y-98037425D01*
X105656421Y-98012844D01*
X105656555Y-98012170D01*
X105658976Y-98000000D01*
X105656555Y-97987828D01*
X105656555Y-97980246D01*
X105657162Y-97967896D01*
X105667118Y-97866812D01*
X105671935Y-97842592D01*
X105707187Y-97726383D01*
X105716631Y-97703582D01*
X105773876Y-97596483D01*
X105787594Y-97575953D01*
X105864626Y-97482091D01*
X105882091Y-97464626D01*
X105975953Y-97387594D01*
X105996483Y-97373876D01*
X106103582Y-97316631D01*
X106126383Y-97307187D01*
X106242592Y-97271935D01*
X106266812Y-97267118D01*
X106367896Y-97257162D01*
X106380246Y-97256555D01*
X106387828Y-97256555D01*
X106400000Y-97258976D01*
X106412847Y-97256421D01*
X106437425Y-97254000D01*
X114562575Y-97254000D01*
X114587153Y-97256421D01*
X114600000Y-97258976D01*
X114612172Y-97256555D01*
X114619754Y-97256555D01*
X114632104Y-97257162D01*
X114733188Y-97267118D01*
X114757408Y-97271935D01*
X114873617Y-97307187D01*
X114896418Y-97316631D01*
X115003517Y-97373876D01*
X115024047Y-97387594D01*
X115117909Y-97464626D01*
X115135374Y-97482091D01*
X115212406Y-97575953D01*
X115226124Y-97596483D01*
X115283369Y-97703582D01*
X115292813Y-97726383D01*
X115328065Y-97842592D01*
X115332882Y-97866812D01*
X115342838Y-97967896D01*
X115343445Y-97980246D01*
X115343445Y-97987828D01*
X115341024Y-98000000D01*
X115343445Y-98012170D01*
X115343579Y-98012844D01*
X115346000Y-98037425D01*
X115346000Y-160192575D01*
X115343579Y-160217153D01*
X115341024Y-160230000D01*
X115342532Y-160237581D01*
X115358155Y-160431453D01*
X115406437Y-160627707D01*
X115408419Y-160632369D01*
X115408420Y-160632371D01*
X115436584Y-160698607D01*
X115485522Y-160813697D01*
X115488222Y-160817976D01*
X115488224Y-160817980D01*
X115535603Y-160893070D01*
X115593369Y-160984623D01*
X115727194Y-161136075D01*
X115731113Y-161139285D01*
X115879621Y-161260931D01*
X115879626Y-161260934D01*
X115883543Y-161264143D01*
X116058383Y-161365524D01*
X116063125Y-161367334D01*
X116063129Y-161367336D01*
X116163641Y-161405703D01*
X116247200Y-161437599D01*
X116252165Y-161438625D01*
X116252164Y-161438625D01*
X116440162Y-161477484D01*
X116440165Y-161477484D01*
X116445122Y-161478509D01*
X116450187Y-161478727D01*
X116641975Y-161486981D01*
X116647041Y-161487199D01*
X116652067Y-161486604D01*
X116652071Y-161486604D01*
X116842711Y-161464040D01*
X116842712Y-161464040D01*
X116847746Y-161463444D01*
X117042057Y-161407858D01*
X117067882Y-161395718D01*
X117220370Y-161324032D01*
X117220372Y-161324031D01*
X117224960Y-161321874D01*
X117313988Y-161260931D01*
X117376789Y-161217942D01*
X117376790Y-161217941D01*
X117385457Y-161212008D01*
X117392299Y-161208408D01*
X117398140Y-161201386D01*
X117401783Y-161198782D01*
X117504368Y-161134383D01*
X117525732Y-161123650D01*
X117527500Y-161122963D01*
X117539068Y-161118469D01*
X117548037Y-161109890D01*
X117548393Y-161109663D01*
X117567797Y-161094538D01*
X117742692Y-160984623D01*
X119657049Y-159781520D01*
X119658141Y-159780842D01*
X121793575Y-158472998D01*
X121794803Y-158472256D01*
X123945081Y-157189271D01*
X123946337Y-157188532D01*
X124780291Y-156703931D01*
X124862669Y-156656062D01*
X287998493Y-156656062D01*
X288007789Y-156668077D01*
X288058994Y-156703931D01*
X288068489Y-156709414D01*
X288265947Y-156801490D01*
X288276239Y-156805236D01*
X288486688Y-156861625D01*
X288497481Y-156863528D01*
X288714525Y-156882517D01*
X288725475Y-156882517D01*
X288942519Y-156863528D01*
X288953312Y-156861625D01*
X289163761Y-156805236D01*
X289174053Y-156801490D01*
X289371511Y-156709414D01*
X289381006Y-156703931D01*
X289433048Y-156667491D01*
X289441424Y-156657012D01*
X289434356Y-156643566D01*
X288732812Y-155942022D01*
X288718868Y-155934408D01*
X288717035Y-155934539D01*
X288710420Y-155938790D01*
X288004923Y-156644287D01*
X287998493Y-156656062D01*
X124862669Y-156656062D01*
X126111279Y-155930510D01*
X126112443Y-155929842D01*
X126738840Y-155575475D01*
X287407483Y-155575475D01*
X287426472Y-155792519D01*
X287428375Y-155803312D01*
X287484764Y-156013761D01*
X287488510Y-156024053D01*
X287580586Y-156221511D01*
X287586069Y-156231006D01*
X287622509Y-156283048D01*
X287632988Y-156291424D01*
X287646434Y-156284356D01*
X288630905Y-155299885D01*
X288693217Y-155265859D01*
X288764032Y-155270924D01*
X288809095Y-155299885D01*
X289794287Y-156285077D01*
X289806062Y-156291507D01*
X289818077Y-156282211D01*
X289853931Y-156231006D01*
X289859414Y-156221511D01*
X289951490Y-156024053D01*
X289955236Y-156013761D01*
X290011625Y-155803312D01*
X290013528Y-155792519D01*
X290032517Y-155575475D01*
X290032517Y-155564525D01*
X290013528Y-155347481D01*
X290011625Y-155336688D01*
X289955236Y-155126239D01*
X289951490Y-155115947D01*
X289859414Y-154918489D01*
X289853931Y-154908993D01*
X289728972Y-154730533D01*
X289721916Y-154722125D01*
X289715763Y-154715972D01*
X289681737Y-154653660D01*
X289686802Y-154582845D01*
X289705014Y-154554507D01*
X289703484Y-154553484D01*
X289752839Y-154479620D01*
X289759734Y-154469301D01*
X289774500Y-154395067D01*
X289774499Y-152744934D01*
X289759734Y-152670699D01*
X289703484Y-152586516D01*
X289619301Y-152530266D01*
X289545067Y-152515500D01*
X288720134Y-152515500D01*
X287894934Y-152515501D01*
X287859182Y-152522612D01*
X287832874Y-152527844D01*
X287832872Y-152527845D01*
X287820699Y-152530266D01*
X287810379Y-152537161D01*
X287810378Y-152537162D01*
X287788040Y-152552088D01*
X287736516Y-152586516D01*
X287680266Y-152670699D01*
X287665500Y-152744933D01*
X287665501Y-154395066D01*
X287680266Y-154469301D01*
X287687161Y-154479620D01*
X287687162Y-154479622D01*
X287736516Y-154553484D01*
X287733802Y-154555298D01*
X287758263Y-154600094D01*
X287753198Y-154670909D01*
X287724237Y-154715972D01*
X287718084Y-154722125D01*
X287711028Y-154730533D01*
X287586069Y-154908993D01*
X287580586Y-154918489D01*
X287488510Y-155115947D01*
X287484764Y-155126239D01*
X287428375Y-155336688D01*
X287426472Y-155347481D01*
X287407483Y-155564525D01*
X287407483Y-155575475D01*
X126738840Y-155575475D01*
X128291917Y-154696864D01*
X128293058Y-154696227D01*
X129337234Y-154121348D01*
X130486592Y-153488560D01*
X130487872Y-153487865D01*
X132530926Y-152393635D01*
X132695103Y-152305704D01*
X132696378Y-152305030D01*
X134884980Y-151165214D01*
X134907817Y-151156117D01*
X134908203Y-151155919D01*
X134920140Y-151152512D01*
X134929863Y-151144798D01*
X134931165Y-151144129D01*
X134950762Y-151131642D01*
X135026277Y-151093857D01*
X135038005Y-151088717D01*
X135067155Y-151077672D01*
X135076195Y-151069167D01*
X135079004Y-151067412D01*
X135082988Y-151064105D01*
X135213004Y-150969147D01*
X135216260Y-150965956D01*
X135216264Y-150965952D01*
X135339481Y-150845169D01*
X135339484Y-150845166D01*
X135342740Y-150841974D01*
X135452795Y-150697432D01*
X135540871Y-150538538D01*
X135605130Y-150368610D01*
X135644230Y-150191196D01*
X135650765Y-150100971D01*
X135655860Y-150030630D01*
X135656555Y-150025486D01*
X135656555Y-150022169D01*
X135658976Y-150009999D01*
X135656421Y-149997154D01*
X135654000Y-149972573D01*
X135654000Y-123886062D01*
X138028493Y-123886062D01*
X138037789Y-123898077D01*
X138088994Y-123933931D01*
X138098489Y-123939414D01*
X138295947Y-124031490D01*
X138306239Y-124035236D01*
X138516688Y-124091625D01*
X138527481Y-124093528D01*
X138744525Y-124112517D01*
X138755475Y-124112517D01*
X138972519Y-124093528D01*
X138983312Y-124091625D01*
X139193761Y-124035236D01*
X139204053Y-124031490D01*
X139401511Y-123939414D01*
X139411006Y-123933931D01*
X139463048Y-123897491D01*
X139471424Y-123887012D01*
X139464356Y-123873566D01*
X138762812Y-123172022D01*
X138748868Y-123164408D01*
X138747035Y-123164539D01*
X138740420Y-123168790D01*
X138034923Y-123874287D01*
X138028493Y-123886062D01*
X135654000Y-123886062D01*
X135654000Y-122805475D01*
X137437483Y-122805475D01*
X137456472Y-123022519D01*
X137458375Y-123033312D01*
X137514764Y-123243761D01*
X137518510Y-123254053D01*
X137610586Y-123451511D01*
X137616069Y-123461006D01*
X137652509Y-123513048D01*
X137662988Y-123521424D01*
X137676434Y-123514356D01*
X138377978Y-122812812D01*
X138385592Y-122798868D01*
X138385461Y-122797035D01*
X138381210Y-122790420D01*
X137675713Y-122084923D01*
X137663938Y-122078493D01*
X137651923Y-122087789D01*
X137616069Y-122138994D01*
X137610586Y-122148489D01*
X137518510Y-122345947D01*
X137514764Y-122356239D01*
X137458375Y-122566688D01*
X137456472Y-122577481D01*
X137437483Y-122794525D01*
X137437483Y-122805475D01*
X135654000Y-122805475D01*
X135654000Y-121712988D01*
X138028576Y-121712988D01*
X138035644Y-121726434D01*
X138737188Y-122427978D01*
X138751132Y-122435592D01*
X138752965Y-122435461D01*
X138759580Y-122431210D01*
X139465077Y-121725713D01*
X139471507Y-121713938D01*
X139462211Y-121701923D01*
X139411006Y-121666069D01*
X139401511Y-121660586D01*
X139204053Y-121568510D01*
X139193761Y-121564764D01*
X138983312Y-121508375D01*
X138972519Y-121506472D01*
X138755475Y-121487483D01*
X138744525Y-121487483D01*
X138527481Y-121506472D01*
X138516688Y-121508375D01*
X138306239Y-121564764D01*
X138295947Y-121568510D01*
X138098489Y-121660586D01*
X138088994Y-121666069D01*
X138036952Y-121702509D01*
X138028576Y-121712988D01*
X135654000Y-121712988D01*
X135654000Y-113789399D01*
X138840800Y-113789399D01*
X138857318Y-113957862D01*
X138910748Y-114118479D01*
X138914397Y-114124504D01*
X138974391Y-114223565D01*
X138998435Y-114263267D01*
X139003326Y-114268332D01*
X139003327Y-114268333D01*
X139037171Y-114303379D01*
X139116021Y-114385031D01*
X139257660Y-114477717D01*
X139416315Y-114536720D01*
X139423296Y-114537651D01*
X139423298Y-114537652D01*
X139466122Y-114543366D01*
X139531241Y-114552055D01*
X139596117Y-114580889D01*
X139603671Y-114587852D01*
X139808595Y-114792776D01*
X139842621Y-114855088D01*
X139845500Y-114881871D01*
X139845500Y-122011520D01*
X139825498Y-122079641D01*
X139808595Y-122100615D01*
X139122022Y-122787188D01*
X139114408Y-122801132D01*
X139114539Y-122802965D01*
X139118790Y-122809580D01*
X139808595Y-123499385D01*
X139842621Y-123561697D01*
X139845500Y-123588480D01*
X139845500Y-150865322D01*
X139825498Y-150933443D01*
X139771842Y-150979936D01*
X139760106Y-150984600D01*
X139676717Y-151012988D01*
X139670719Y-151016678D01*
X139670717Y-151016679D01*
X139538543Y-151097993D01*
X139538541Y-151097995D01*
X139532544Y-151101684D01*
X139411605Y-151220117D01*
X139407794Y-151226031D01*
X139407792Y-151226033D01*
X139383540Y-151263665D01*
X139319909Y-151362400D01*
X139307537Y-151396391D01*
X139264425Y-151514840D01*
X139264424Y-151514845D01*
X139262015Y-151521463D01*
X139240800Y-151689399D01*
X139257318Y-151857862D01*
X139310748Y-152018479D01*
X139314397Y-152024504D01*
X139392975Y-152154251D01*
X139398435Y-152163267D01*
X139403326Y-152168332D01*
X139403327Y-152168333D01*
X139427062Y-152192911D01*
X139516021Y-152285031D01*
X139657660Y-152377717D01*
X139816315Y-152436720D01*
X139823296Y-152437651D01*
X139823298Y-152437652D01*
X139977118Y-152458176D01*
X139977122Y-152458176D01*
X139984099Y-152459107D01*
X139991110Y-152458469D01*
X139991114Y-152458469D01*
X140145652Y-152444405D01*
X140152673Y-152443766D01*
X140313659Y-152391458D01*
X140459056Y-152304784D01*
X140581638Y-152188052D01*
X140585539Y-152182181D01*
X140671410Y-152052935D01*
X140671411Y-152052933D01*
X140675311Y-152047063D01*
X140735420Y-151888824D01*
X140752369Y-151768226D01*
X140781657Y-151703552D01*
X140791856Y-151693015D01*
X140824938Y-151662594D01*
X140824942Y-151662590D01*
X140831266Y-151656774D01*
X140854380Y-151619495D01*
X140861094Y-151609725D01*
X140882438Y-151581607D01*
X140882440Y-151581604D01*
X140887630Y-151574766D01*
X140893237Y-151560604D01*
X140903303Y-151540591D01*
X140906796Y-151534957D01*
X140911323Y-151527656D01*
X140913719Y-151519410D01*
X140913721Y-151519405D01*
X140923564Y-151485526D01*
X140927407Y-151474299D01*
X140940395Y-151441494D01*
X140943556Y-151433511D01*
X140945147Y-151418371D01*
X140949460Y-151396391D01*
X140951866Y-151388110D01*
X140951867Y-151388105D01*
X140953709Y-151381765D01*
X140954500Y-151370993D01*
X140954500Y-151335989D01*
X140955190Y-151322819D01*
X140958538Y-151290962D01*
X140959436Y-151282420D01*
X140956264Y-151263665D01*
X140954500Y-151242653D01*
X140954500Y-149355150D01*
X194245500Y-149355150D01*
X194245749Y-149357937D01*
X194245749Y-149357943D01*
X194255208Y-149463927D01*
X194255741Y-149469899D01*
X194309190Y-149656298D01*
X194312150Y-149661960D01*
X194396070Y-149822484D01*
X194396073Y-149822488D01*
X194399029Y-149828143D01*
X194521586Y-149978414D01*
X194671857Y-150100971D01*
X194677512Y-150103927D01*
X194677516Y-150103930D01*
X194835760Y-150186658D01*
X194843702Y-150190810D01*
X195030101Y-150244259D01*
X195036073Y-150244792D01*
X195142057Y-150254251D01*
X195142063Y-150254251D01*
X195144850Y-150254500D01*
X196655150Y-150254500D01*
X196657937Y-150254251D01*
X196657943Y-150254251D01*
X196763927Y-150244792D01*
X196769899Y-150244259D01*
X196956298Y-150190810D01*
X196964240Y-150186658D01*
X197122484Y-150103930D01*
X197122488Y-150103927D01*
X197128143Y-150100971D01*
X197278414Y-149978414D01*
X197400971Y-149828143D01*
X197403927Y-149822488D01*
X197403930Y-149822484D01*
X197487850Y-149661960D01*
X197490810Y-149656298D01*
X197508050Y-149596176D01*
X197523740Y-149571417D01*
X197737527Y-149571417D01*
X197755165Y-149630107D01*
X197754669Y-149642107D01*
X197745749Y-149742055D01*
X197745500Y-149744850D01*
X197745500Y-151255150D01*
X197755741Y-151369899D01*
X197809190Y-151556298D01*
X197812150Y-151561960D01*
X197896070Y-151722484D01*
X197896073Y-151722488D01*
X197899029Y-151728143D01*
X198021586Y-151878414D01*
X198171857Y-152000971D01*
X198177512Y-152003927D01*
X198177516Y-152003930D01*
X198260022Y-152047063D01*
X198343702Y-152090810D01*
X198530101Y-152144259D01*
X198536073Y-152144792D01*
X198642057Y-152154251D01*
X198642063Y-152154251D01*
X198644850Y-152154500D01*
X202355150Y-152154500D01*
X202357937Y-152154251D01*
X202357943Y-152154251D01*
X202463927Y-152144792D01*
X202469899Y-152144259D01*
X202656298Y-152090810D01*
X202739978Y-152047063D01*
X202822484Y-152003930D01*
X202822488Y-152003927D01*
X202828143Y-152000971D01*
X202978414Y-151878414D01*
X203100971Y-151728143D01*
X203103927Y-151722488D01*
X203103930Y-151722484D01*
X203187850Y-151561960D01*
X203190810Y-151556298D01*
X203244259Y-151369899D01*
X203254500Y-151255150D01*
X203254500Y-149744850D01*
X203245331Y-149642107D01*
X203244792Y-149636073D01*
X203244259Y-149630101D01*
X203190810Y-149443702D01*
X203143051Y-149352348D01*
X203103930Y-149277516D01*
X203103927Y-149277512D01*
X203100971Y-149271857D01*
X202978414Y-149121586D01*
X202828143Y-148999029D01*
X202822488Y-148996073D01*
X202822484Y-148996070D01*
X202661960Y-148912150D01*
X202656298Y-148909190D01*
X202469899Y-148855741D01*
X202463927Y-148855208D01*
X202357943Y-148845749D01*
X202357937Y-148845749D01*
X202355150Y-148845500D01*
X198644850Y-148845500D01*
X198642063Y-148845749D01*
X198642057Y-148845749D01*
X198536073Y-148855208D01*
X198530101Y-148855741D01*
X198343702Y-148909190D01*
X198338040Y-148912150D01*
X198177516Y-148996070D01*
X198177512Y-148996073D01*
X198171857Y-148999029D01*
X198021586Y-149121586D01*
X197899029Y-149271857D01*
X197896073Y-149277512D01*
X197896070Y-149277516D01*
X197856949Y-149352348D01*
X197809190Y-149443702D01*
X197807429Y-149449842D01*
X197807429Y-149449843D01*
X197791951Y-149503823D01*
X197753948Y-149563791D01*
X197737527Y-149571417D01*
X197523740Y-149571417D01*
X197546052Y-149536209D01*
X197562473Y-149528583D01*
X197544835Y-149469893D01*
X197545331Y-149457893D01*
X197554251Y-149357945D01*
X197554251Y-149357935D01*
X197554500Y-149355150D01*
X197554500Y-147629399D01*
X284655800Y-147629399D01*
X284672318Y-147797862D01*
X284725748Y-147958479D01*
X284813435Y-148103267D01*
X284818326Y-148108332D01*
X284818327Y-148108333D01*
X284842062Y-148132911D01*
X284931021Y-148225031D01*
X285072660Y-148317717D01*
X285231315Y-148376720D01*
X285238296Y-148377651D01*
X285238298Y-148377652D01*
X285392118Y-148398176D01*
X285392122Y-148398176D01*
X285399099Y-148399107D01*
X285406110Y-148398469D01*
X285406114Y-148398469D01*
X285560652Y-148384405D01*
X285567673Y-148383766D01*
X285728659Y-148331458D01*
X285874056Y-148244784D01*
X285879162Y-148239922D01*
X285890364Y-148229255D01*
X285953488Y-148196762D01*
X285977256Y-148194500D01*
X288659985Y-148194500D01*
X288728106Y-148214502D01*
X288737447Y-148221330D01*
X288741021Y-148225031D01*
X288882660Y-148317717D01*
X289041315Y-148376720D01*
X289048296Y-148377651D01*
X289048298Y-148377652D01*
X289202118Y-148398176D01*
X289202122Y-148398176D01*
X289209099Y-148399107D01*
X289216110Y-148398469D01*
X289216114Y-148398469D01*
X289370652Y-148384405D01*
X289377673Y-148383766D01*
X289538659Y-148331458D01*
X289684056Y-148244784D01*
X289806638Y-148128052D01*
X289810539Y-148122181D01*
X289896410Y-147992935D01*
X289896411Y-147992933D01*
X289900311Y-147987063D01*
X289960420Y-147828824D01*
X289983978Y-147661200D01*
X289984274Y-147640000D01*
X289965406Y-147471784D01*
X289909738Y-147311929D01*
X289820038Y-147168379D01*
X289700764Y-147048269D01*
X289693212Y-147043476D01*
X289574805Y-146968333D01*
X289557844Y-146957569D01*
X289529957Y-146947639D01*
X289405016Y-146903149D01*
X289405011Y-146903148D01*
X289398381Y-146900787D01*
X289391395Y-146899954D01*
X289391391Y-146899953D01*
X289272287Y-146885751D01*
X289230301Y-146880745D01*
X289223298Y-146881481D01*
X289223297Y-146881481D01*
X289068965Y-146897701D01*
X289068961Y-146897702D01*
X289061957Y-146898438D01*
X289055286Y-146900709D01*
X288908387Y-146950717D01*
X288908384Y-146950718D01*
X288901717Y-146952988D01*
X288895719Y-146956678D01*
X288895717Y-146956679D01*
X288763543Y-147037993D01*
X288763541Y-147037995D01*
X288757544Y-147041684D01*
X288752511Y-147046613D01*
X288749538Y-147049524D01*
X288747173Y-147050783D01*
X288746961Y-147050949D01*
X288746932Y-147050912D01*
X288686873Y-147082894D01*
X288661381Y-147085500D01*
X285980185Y-147085500D01*
X285912064Y-147065498D01*
X285901671Y-147057122D01*
X285901220Y-147057683D01*
X285895726Y-147053266D01*
X285890764Y-147048269D01*
X285883212Y-147043476D01*
X285764805Y-146968333D01*
X285747844Y-146957569D01*
X285719957Y-146947639D01*
X285595016Y-146903149D01*
X285595011Y-146903148D01*
X285588381Y-146900787D01*
X285581395Y-146899954D01*
X285581391Y-146899953D01*
X285462287Y-146885751D01*
X285420301Y-146880745D01*
X285413298Y-146881481D01*
X285413297Y-146881481D01*
X285258965Y-146897701D01*
X285258961Y-146897702D01*
X285251957Y-146898438D01*
X285245286Y-146900709D01*
X285098387Y-146950717D01*
X285098384Y-146950718D01*
X285091717Y-146952988D01*
X285085719Y-146956678D01*
X285085717Y-146956679D01*
X284953543Y-147037993D01*
X284953541Y-147037995D01*
X284947544Y-147041684D01*
X284826605Y-147160117D01*
X284822794Y-147166031D01*
X284822792Y-147166033D01*
X284808731Y-147187851D01*
X284734909Y-147302400D01*
X284732498Y-147309025D01*
X284679425Y-147454840D01*
X284679424Y-147454845D01*
X284677015Y-147461463D01*
X284655800Y-147629399D01*
X197554500Y-147629399D01*
X197554500Y-146489399D01*
X317040800Y-146489399D01*
X317057318Y-146657862D01*
X317110748Y-146818479D01*
X317114397Y-146824504D01*
X317192210Y-146952988D01*
X317198435Y-146963267D01*
X317203326Y-146968332D01*
X317203327Y-146968333D01*
X317227062Y-146992911D01*
X317316021Y-147085031D01*
X317457660Y-147177717D01*
X317616315Y-147236720D01*
X317623296Y-147237651D01*
X317623298Y-147237652D01*
X317777118Y-147258176D01*
X317777122Y-147258176D01*
X317784099Y-147259107D01*
X317791110Y-147258469D01*
X317791114Y-147258469D01*
X317945652Y-147244405D01*
X317952673Y-147243766D01*
X318113659Y-147191458D01*
X318259056Y-147104784D01*
X318381638Y-146988052D01*
X318385539Y-146982181D01*
X318471410Y-146852935D01*
X318471411Y-146852933D01*
X318475311Y-146847063D01*
X318535420Y-146688824D01*
X318552456Y-146567605D01*
X318581744Y-146502931D01*
X318588135Y-146496046D01*
X319682972Y-145401210D01*
X320781426Y-144302756D01*
X320785234Y-144299103D01*
X320831266Y-144256774D01*
X320854380Y-144219495D01*
X320861094Y-144209725D01*
X320882438Y-144181607D01*
X320882440Y-144181604D01*
X320887630Y-144174766D01*
X320893237Y-144160604D01*
X320903303Y-144140591D01*
X320906795Y-144134959D01*
X320906795Y-144134958D01*
X320911323Y-144127656D01*
X320923564Y-144085524D01*
X320927408Y-144074299D01*
X320940393Y-144041502D01*
X320940395Y-144041495D01*
X320943556Y-144033510D01*
X320945148Y-144018367D01*
X320949459Y-143996394D01*
X320951867Y-143988104D01*
X320953709Y-143981765D01*
X320954500Y-143970993D01*
X320954500Y-143935995D01*
X320955190Y-143922824D01*
X320958539Y-143890963D01*
X320959437Y-143882419D01*
X320956263Y-143863654D01*
X320954500Y-143842652D01*
X320954500Y-120892773D01*
X320974502Y-120824652D01*
X321028158Y-120778159D01*
X321098432Y-120768055D01*
X321163012Y-120797549D01*
X321201396Y-120857275D01*
X321204079Y-120868193D01*
X321210266Y-120899301D01*
X321266516Y-120983484D01*
X321350699Y-121039734D01*
X321424933Y-121054500D01*
X322249866Y-121054500D01*
X323075066Y-121054499D01*
X323110818Y-121047388D01*
X323137126Y-121042156D01*
X323137128Y-121042155D01*
X323149301Y-121039734D01*
X323159621Y-121032839D01*
X323159622Y-121032838D01*
X323223168Y-120990377D01*
X323233484Y-120983484D01*
X323289734Y-120899301D01*
X323304500Y-120825067D01*
X323304499Y-119174934D01*
X323297388Y-119139182D01*
X323292156Y-119112874D01*
X323292155Y-119112872D01*
X323289734Y-119100699D01*
X323233484Y-119016516D01*
X323149301Y-118960266D01*
X323075067Y-118945500D01*
X322250134Y-118945500D01*
X321424934Y-118945501D01*
X321389182Y-118952612D01*
X321362874Y-118957844D01*
X321362872Y-118957845D01*
X321350699Y-118960266D01*
X321340379Y-118967161D01*
X321340378Y-118967162D01*
X321279985Y-119007516D01*
X321266516Y-119016516D01*
X321210266Y-119100699D01*
X321206735Y-119118452D01*
X321204079Y-119131803D01*
X321171171Y-119194713D01*
X321109476Y-119229845D01*
X321038582Y-119226045D01*
X320980996Y-119184519D01*
X320955001Y-119118452D01*
X320954500Y-119107222D01*
X320954500Y-111815065D01*
X320954611Y-111809789D01*
X320956869Y-111755910D01*
X320957229Y-111747326D01*
X320955268Y-111738964D01*
X320955267Y-111738958D01*
X320947211Y-111704613D01*
X320945050Y-111692960D01*
X320939095Y-111649482D01*
X320935682Y-111641595D01*
X320935681Y-111641592D01*
X320933047Y-111635505D01*
X320926013Y-111614239D01*
X320924498Y-111607780D01*
X320922537Y-111599417D01*
X320901397Y-111560963D01*
X320896182Y-111550317D01*
X320882170Y-111517937D01*
X320882168Y-111517933D01*
X320878758Y-111510054D01*
X320869179Y-111498225D01*
X320856688Y-111479637D01*
X320849348Y-111466285D01*
X320842290Y-111458109D01*
X320817547Y-111433366D01*
X320808721Y-111423565D01*
X320788556Y-111398662D01*
X320788553Y-111398659D01*
X320783150Y-111391987D01*
X320767636Y-111380962D01*
X320751536Y-111367355D01*
X320387329Y-111003148D01*
X320353303Y-110940836D01*
X320351209Y-110928098D01*
X320341191Y-110838787D01*
X320340406Y-110831784D01*
X320334506Y-110814840D01*
X320310514Y-110745947D01*
X320284738Y-110671929D01*
X320195038Y-110528379D01*
X320179287Y-110512517D01*
X320080726Y-110413266D01*
X320075764Y-110408269D01*
X320054404Y-110394713D01*
X319955273Y-110331803D01*
X319932844Y-110317569D01*
X319903786Y-110307222D01*
X319780016Y-110263149D01*
X319780011Y-110263148D01*
X319773381Y-110260787D01*
X319766395Y-110259954D01*
X319766391Y-110259953D01*
X319647287Y-110245751D01*
X319605301Y-110240745D01*
X319598298Y-110241481D01*
X319598297Y-110241481D01*
X319443965Y-110257701D01*
X319443961Y-110257702D01*
X319436957Y-110258438D01*
X319430286Y-110260709D01*
X319283387Y-110310717D01*
X319283384Y-110310718D01*
X319276717Y-110312988D01*
X319270719Y-110316678D01*
X319270717Y-110316679D01*
X319138543Y-110397993D01*
X319138541Y-110397995D01*
X319132544Y-110401684D01*
X319011605Y-110520117D01*
X318919909Y-110662400D01*
X318917498Y-110669025D01*
X318864425Y-110814840D01*
X318864424Y-110814845D01*
X318862015Y-110821463D01*
X318840800Y-110989399D01*
X318857318Y-111157862D01*
X318910748Y-111318479D01*
X318914397Y-111324504D01*
X318980294Y-111433312D01*
X318998435Y-111463267D01*
X319003326Y-111468332D01*
X319003327Y-111468333D01*
X319037171Y-111503379D01*
X319116021Y-111585031D01*
X319257660Y-111677717D01*
X319416315Y-111736720D01*
X319423296Y-111737651D01*
X319423298Y-111737652D01*
X319466122Y-111743366D01*
X319531241Y-111752055D01*
X319596117Y-111780889D01*
X319603671Y-111787852D01*
X319808595Y-111992776D01*
X319842621Y-112055088D01*
X319845500Y-112081871D01*
X319845500Y-119211520D01*
X319825498Y-119279641D01*
X319808595Y-119300615D01*
X319122022Y-119987188D01*
X319114408Y-120001132D01*
X319114539Y-120002965D01*
X319118790Y-120009580D01*
X319808595Y-120699385D01*
X319842621Y-120761697D01*
X319845500Y-120788480D01*
X319845500Y-143618129D01*
X319825498Y-143686250D01*
X319808595Y-143707224D01*
X317803075Y-145712744D01*
X317740763Y-145746770D01*
X317727155Y-145748958D01*
X317636957Y-145758438D01*
X317630286Y-145760709D01*
X317483387Y-145810717D01*
X317483384Y-145810718D01*
X317476717Y-145812988D01*
X317470719Y-145816678D01*
X317470717Y-145816679D01*
X317338543Y-145897993D01*
X317338541Y-145897995D01*
X317332544Y-145901684D01*
X317211605Y-146020117D01*
X317119909Y-146162400D01*
X317117498Y-146169025D01*
X317064425Y-146314840D01*
X317064424Y-146314845D01*
X317062015Y-146321463D01*
X317040800Y-146489399D01*
X197554500Y-146489399D01*
X197554500Y-146067175D01*
X197574502Y-145999054D01*
X197628158Y-145952561D01*
X197698432Y-145942457D01*
X197763012Y-145971951D01*
X197769595Y-145978080D01*
X197918026Y-146126511D01*
X197926605Y-146133684D01*
X198094461Y-146250347D01*
X198104166Y-146255882D01*
X198290036Y-146340981D01*
X198300564Y-146344709D01*
X198498790Y-146395605D01*
X198509346Y-146397376D01*
X198637412Y-146407793D01*
X198642518Y-146408000D01*
X200227885Y-146408000D01*
X200243124Y-146403525D01*
X200244329Y-146402135D01*
X200246000Y-146394452D01*
X200246000Y-146389884D01*
X200754000Y-146389884D01*
X200758475Y-146405123D01*
X200759865Y-146406328D01*
X200767548Y-146407999D01*
X202357479Y-146407999D01*
X202362589Y-146407791D01*
X202490655Y-146397376D01*
X202501208Y-146395606D01*
X202699436Y-146344709D01*
X202709964Y-146340981D01*
X202895834Y-146255882D01*
X202905539Y-146250347D01*
X203073395Y-146133684D01*
X203081974Y-146126511D01*
X203226511Y-145981974D01*
X203233684Y-145973395D01*
X203350347Y-145805539D01*
X203355882Y-145795834D01*
X203440981Y-145609964D01*
X203444709Y-145599436D01*
X203495605Y-145401210D01*
X203497376Y-145390654D01*
X203507793Y-145262588D01*
X203508000Y-145257482D01*
X203508000Y-144772115D01*
X203503525Y-144756876D01*
X203502135Y-144755671D01*
X203494452Y-144754000D01*
X200772115Y-144754000D01*
X200756876Y-144758475D01*
X200755671Y-144759865D01*
X200754000Y-144767548D01*
X200754000Y-146389884D01*
X200246000Y-146389884D01*
X200246000Y-144772115D01*
X200241525Y-144756876D01*
X200240135Y-144755671D01*
X200232452Y-144754000D01*
X197510116Y-144754000D01*
X197494877Y-144758475D01*
X197493672Y-144759865D01*
X197492001Y-144767548D01*
X197492001Y-144931895D01*
X197471999Y-145000016D01*
X197418343Y-145046509D01*
X197348069Y-145056613D01*
X197283489Y-145027119D01*
X197281152Y-145024943D01*
X197278414Y-145021586D01*
X197128143Y-144899029D01*
X197122488Y-144896073D01*
X197122484Y-144896070D01*
X196961960Y-144812150D01*
X196956298Y-144809190D01*
X196769899Y-144755741D01*
X196763927Y-144755208D01*
X196657943Y-144745749D01*
X196657937Y-144745749D01*
X196655150Y-144745500D01*
X195144850Y-144745500D01*
X195142063Y-144745749D01*
X195142057Y-144745749D01*
X195036073Y-144755208D01*
X195030101Y-144755741D01*
X194843702Y-144809190D01*
X194838040Y-144812150D01*
X194677516Y-144896070D01*
X194677512Y-144896073D01*
X194671857Y-144899029D01*
X194521586Y-145021586D01*
X194517553Y-145026531D01*
X194409428Y-145159107D01*
X194399029Y-145171857D01*
X194396073Y-145177512D01*
X194396070Y-145177516D01*
X194338287Y-145288045D01*
X194309190Y-145343702D01*
X194307429Y-145349842D01*
X194307429Y-145349843D01*
X194301357Y-145371020D01*
X194255741Y-145530101D01*
X194245500Y-145644850D01*
X194245500Y-149355150D01*
X140954500Y-149355150D01*
X140954500Y-123692773D01*
X140974502Y-123624652D01*
X141028158Y-123578159D01*
X141098432Y-123568055D01*
X141163012Y-123597549D01*
X141201396Y-123657275D01*
X141204079Y-123668193D01*
X141210266Y-123699301D01*
X141266516Y-123783484D01*
X141350699Y-123839734D01*
X141424933Y-123854500D01*
X142249866Y-123854500D01*
X143075066Y-123854499D01*
X143110818Y-123847388D01*
X143137126Y-123842156D01*
X143137128Y-123842155D01*
X143149301Y-123839734D01*
X143159621Y-123832839D01*
X143159622Y-123832838D01*
X143223168Y-123790377D01*
X143233484Y-123783484D01*
X143289734Y-123699301D01*
X143304500Y-123625067D01*
X143304499Y-121974934D01*
X143297388Y-121939182D01*
X143292156Y-121912874D01*
X143292155Y-121912872D01*
X143289734Y-121900699D01*
X143233484Y-121816516D01*
X143149301Y-121760266D01*
X143075067Y-121745500D01*
X142250134Y-121745500D01*
X141424934Y-121745501D01*
X141389182Y-121752612D01*
X141362874Y-121757844D01*
X141362872Y-121757845D01*
X141350699Y-121760266D01*
X141340379Y-121767161D01*
X141340378Y-121767162D01*
X141286407Y-121803225D01*
X141266516Y-121816516D01*
X141210266Y-121900699D01*
X141206735Y-121918452D01*
X141204079Y-121931803D01*
X141171171Y-121994713D01*
X141109476Y-122029845D01*
X141038582Y-122026045D01*
X140980996Y-121984519D01*
X140955001Y-121918452D01*
X140954500Y-121907222D01*
X140954500Y-114615065D01*
X140954611Y-114609789D01*
X140956869Y-114555910D01*
X140957229Y-114547326D01*
X140955268Y-114538964D01*
X140955267Y-114538958D01*
X140947211Y-114504613D01*
X140945050Y-114492960D01*
X140939095Y-114449482D01*
X140935682Y-114441595D01*
X140935681Y-114441592D01*
X140933047Y-114435505D01*
X140926013Y-114414239D01*
X140924498Y-114407780D01*
X140922537Y-114399417D01*
X140901397Y-114360963D01*
X140896182Y-114350317D01*
X140882170Y-114317937D01*
X140882168Y-114317933D01*
X140878758Y-114310054D01*
X140869179Y-114298225D01*
X140856688Y-114279637D01*
X140849348Y-114266285D01*
X140842290Y-114258109D01*
X140817547Y-114233366D01*
X140808721Y-114223565D01*
X140788556Y-114198662D01*
X140788553Y-114198659D01*
X140783150Y-114191987D01*
X140767636Y-114180962D01*
X140751536Y-114167355D01*
X140387329Y-113803148D01*
X140353303Y-113740836D01*
X140351209Y-113728098D01*
X140341191Y-113638787D01*
X140340406Y-113631784D01*
X140334506Y-113614840D01*
X140322516Y-113580412D01*
X140284738Y-113471929D01*
X140195038Y-113328379D01*
X140075764Y-113208269D01*
X139932844Y-113117569D01*
X139905442Y-113107812D01*
X139780016Y-113063149D01*
X139780011Y-113063148D01*
X139773381Y-113060787D01*
X139766395Y-113059954D01*
X139766391Y-113059953D01*
X139647287Y-113045751D01*
X139605301Y-113040745D01*
X139598298Y-113041481D01*
X139598297Y-113041481D01*
X139443965Y-113057701D01*
X139443961Y-113057702D01*
X139436957Y-113058438D01*
X139430286Y-113060709D01*
X139283387Y-113110717D01*
X139283384Y-113110718D01*
X139276717Y-113112988D01*
X139270719Y-113116678D01*
X139270717Y-113116679D01*
X139138543Y-113197993D01*
X139138541Y-113197995D01*
X139132544Y-113201684D01*
X139011605Y-113320117D01*
X138919909Y-113462400D01*
X138917498Y-113469025D01*
X138864425Y-113614840D01*
X138864424Y-113614845D01*
X138862015Y-113621463D01*
X138840800Y-113789399D01*
X135654000Y-113789399D01*
X135654000Y-81037425D01*
X135656421Y-81012844D01*
X135656555Y-81012170D01*
X135658976Y-81000000D01*
X135656555Y-80987828D01*
X135656555Y-80980246D01*
X135657162Y-80967896D01*
X135667118Y-80866812D01*
X135671935Y-80842592D01*
X135707187Y-80726383D01*
X135716631Y-80703582D01*
X135773876Y-80596483D01*
X135787594Y-80575953D01*
X135864626Y-80482091D01*
X135882091Y-80464626D01*
X135975953Y-80387594D01*
X135996483Y-80373876D01*
X136103582Y-80316631D01*
X136126383Y-80307187D01*
X136242592Y-80271935D01*
X136266812Y-80267118D01*
X136367896Y-80257162D01*
X136380246Y-80256555D01*
X136387828Y-80256555D01*
X136400000Y-80258976D01*
X136412847Y-80256421D01*
X136437425Y-80254000D01*
X144562575Y-80254000D01*
X144587153Y-80256421D01*
X144600000Y-80258976D01*
X144612172Y-80256555D01*
X144619754Y-80256555D01*
X144632104Y-80257162D01*
X144733188Y-80267118D01*
X144757408Y-80271935D01*
X144873617Y-80307187D01*
X144896418Y-80316631D01*
X145003517Y-80373876D01*
X145024047Y-80387594D01*
X145117909Y-80464626D01*
X145135374Y-80482091D01*
X145212406Y-80575953D01*
X145226124Y-80596483D01*
X145283369Y-80703582D01*
X145292813Y-80726383D01*
X145328065Y-80842592D01*
X145332882Y-80866812D01*
X145342838Y-80967896D01*
X145343445Y-80980246D01*
X145343445Y-80987828D01*
X145341024Y-81000000D01*
X145343445Y-81012170D01*
X145343579Y-81012844D01*
X145346000Y-81037425D01*
X145346000Y-144192575D01*
X145343579Y-144217153D01*
X145341024Y-144230000D01*
X145342196Y-144235891D01*
X145343155Y-144247334D01*
X145343155Y-144247335D01*
X145347643Y-144300875D01*
X145359262Y-144439484D01*
X145411453Y-144643121D01*
X145413596Y-144647943D01*
X145413596Y-144647944D01*
X145486562Y-144812150D01*
X145496816Y-144835227D01*
X145612971Y-145010441D01*
X145756675Y-145163872D01*
X145923917Y-145291238D01*
X146110029Y-145388983D01*
X146309816Y-145454380D01*
X146423986Y-145471528D01*
X146512487Y-145484821D01*
X146512492Y-145484821D01*
X146517703Y-145485604D01*
X146638521Y-145483407D01*
X146722613Y-145481878D01*
X146722614Y-145481878D01*
X146727887Y-145481782D01*
X146733068Y-145480810D01*
X146733069Y-145480810D01*
X146811500Y-145466097D01*
X146934501Y-145443022D01*
X146939439Y-145441204D01*
X146939444Y-145441203D01*
X147048091Y-145401210D01*
X147126226Y-145372449D01*
X147132066Y-145371020D01*
X147142998Y-145363004D01*
X147163977Y-145350552D01*
X147169284Y-145348062D01*
X147185992Y-145342396D01*
X147191475Y-145340003D01*
X147203597Y-145337353D01*
X147213784Y-145330265D01*
X147214235Y-145330068D01*
X147235668Y-145318173D01*
X149399556Y-144389399D01*
X295140800Y-144389399D01*
X295157318Y-144557862D01*
X295210748Y-144718479D01*
X295214397Y-144724504D01*
X295286647Y-144843802D01*
X295298435Y-144863267D01*
X295303326Y-144868332D01*
X295303327Y-144868333D01*
X295327058Y-144892907D01*
X295416021Y-144985031D01*
X295557660Y-145077717D01*
X295716315Y-145136720D01*
X295723296Y-145137651D01*
X295723298Y-145137652D01*
X295877118Y-145158176D01*
X295877122Y-145158176D01*
X295884099Y-145159107D01*
X295891110Y-145158469D01*
X295891114Y-145158469D01*
X296045652Y-145144405D01*
X296052673Y-145143766D01*
X296213659Y-145091458D01*
X296322575Y-145026531D01*
X296353004Y-145008392D01*
X296353006Y-145008391D01*
X296359056Y-145004784D01*
X296481638Y-144888052D01*
X296482264Y-144887110D01*
X296494584Y-144875003D01*
X296501773Y-144869181D01*
X296520363Y-144856688D01*
X296533715Y-144849348D01*
X296539245Y-144844574D01*
X296540140Y-144843802D01*
X296540147Y-144843796D01*
X296541891Y-144842290D01*
X296566634Y-144817547D01*
X296576435Y-144808721D01*
X296601338Y-144788556D01*
X296601341Y-144788553D01*
X296608013Y-144783150D01*
X296619038Y-144767636D01*
X296632645Y-144751536D01*
X299138341Y-142245841D01*
X299200653Y-142211815D01*
X299216015Y-142209455D01*
X299294089Y-142202350D01*
X299300791Y-142200172D01*
X299300793Y-142200172D01*
X299448375Y-142152219D01*
X299455075Y-142150042D01*
X299544615Y-142096666D01*
X299594420Y-142066976D01*
X299594422Y-142066975D01*
X299600472Y-142063368D01*
X299723054Y-141946636D01*
X299762049Y-141887944D01*
X299812826Y-141811519D01*
X299812827Y-141811517D01*
X299816727Y-141805647D01*
X299876836Y-141647408D01*
X299887577Y-141570979D01*
X299899843Y-141483707D01*
X299899843Y-141483702D01*
X299900394Y-141479784D01*
X299900690Y-141458584D01*
X299885938Y-141327063D01*
X299882607Y-141297364D01*
X299882606Y-141297361D01*
X299881822Y-141290368D01*
X299826154Y-141130513D01*
X299736454Y-140986963D01*
X299617180Y-140866853D01*
X299597714Y-140854499D01*
X299496673Y-140790377D01*
X299474260Y-140776153D01*
X299446858Y-140766396D01*
X299321432Y-140721733D01*
X299321427Y-140721732D01*
X299314797Y-140719371D01*
X299307811Y-140718538D01*
X299307807Y-140718537D01*
X299188703Y-140704335D01*
X299146717Y-140699329D01*
X299139714Y-140700065D01*
X299139713Y-140700065D01*
X298985381Y-140716285D01*
X298985377Y-140716286D01*
X298978373Y-140717022D01*
X298971702Y-140719293D01*
X298824803Y-140769301D01*
X298824800Y-140769302D01*
X298818133Y-140771572D01*
X298812135Y-140775262D01*
X298812133Y-140775263D01*
X298679959Y-140856577D01*
X298679957Y-140856579D01*
X298673960Y-140860268D01*
X298553021Y-140978701D01*
X298461325Y-141120984D01*
X298458914Y-141127609D01*
X298405841Y-141273424D01*
X298405840Y-141273429D01*
X298403431Y-141280047D01*
X298396382Y-141335844D01*
X298389702Y-141388725D01*
X298361320Y-141453801D01*
X298353791Y-141462028D01*
X296188456Y-143627363D01*
X296126144Y-143661389D01*
X296073878Y-143660964D01*
X296073381Y-143660787D01*
X296066391Y-143659954D01*
X296066389Y-143659953D01*
X295967304Y-143648138D01*
X295905301Y-143640745D01*
X295898298Y-143641481D01*
X295898297Y-143641481D01*
X295743965Y-143657701D01*
X295743961Y-143657702D01*
X295736957Y-143658438D01*
X295730286Y-143660709D01*
X295583387Y-143710717D01*
X295583384Y-143710718D01*
X295576717Y-143712988D01*
X295570719Y-143716678D01*
X295570717Y-143716679D01*
X295438543Y-143797993D01*
X295438541Y-143797995D01*
X295432544Y-143801684D01*
X295311605Y-143920117D01*
X295307794Y-143926031D01*
X295307792Y-143926033D01*
X295301372Y-143935995D01*
X295219909Y-144062400D01*
X295199344Y-144118901D01*
X295164425Y-144214840D01*
X295164424Y-144214845D01*
X295162015Y-144221463D01*
X295140800Y-144389399D01*
X149399556Y-144389399D01*
X149633222Y-144289106D01*
X149634640Y-144288507D01*
X149780780Y-144227885D01*
X197492000Y-144227885D01*
X197496475Y-144243124D01*
X197497865Y-144244329D01*
X197505548Y-144246000D01*
X200227885Y-144246000D01*
X200243124Y-144241525D01*
X200244329Y-144240135D01*
X200246000Y-144232452D01*
X200246000Y-144227885D01*
X200754000Y-144227885D01*
X200758475Y-144243124D01*
X200759865Y-144244329D01*
X200767548Y-144246000D01*
X203489884Y-144246000D01*
X203505123Y-144241525D01*
X203506328Y-144240135D01*
X203507999Y-144232452D01*
X203507999Y-143742521D01*
X203507791Y-143737411D01*
X203497376Y-143609345D01*
X203495606Y-143598792D01*
X203444709Y-143400564D01*
X203440981Y-143390036D01*
X203355882Y-143204166D01*
X203350347Y-143194461D01*
X203233684Y-143026605D01*
X203226511Y-143018026D01*
X203081974Y-142873489D01*
X203073395Y-142866316D01*
X202905539Y-142749653D01*
X202895834Y-142744118D01*
X202709964Y-142659019D01*
X202699436Y-142655291D01*
X202501210Y-142604395D01*
X202490654Y-142602624D01*
X202362588Y-142592207D01*
X202357482Y-142592000D01*
X200772115Y-142592000D01*
X200756876Y-142596475D01*
X200755671Y-142597865D01*
X200754000Y-142605548D01*
X200754000Y-144227885D01*
X200246000Y-144227885D01*
X200246000Y-142610116D01*
X200241525Y-142594877D01*
X200240135Y-142593672D01*
X200232452Y-142592001D01*
X198642521Y-142592001D01*
X198637411Y-142592209D01*
X198509345Y-142602624D01*
X198498792Y-142604394D01*
X198300564Y-142655291D01*
X198290036Y-142659019D01*
X198104166Y-142744118D01*
X198094461Y-142749653D01*
X197926605Y-142866316D01*
X197918026Y-142873489D01*
X197773489Y-143018026D01*
X197766316Y-143026605D01*
X197649653Y-143194461D01*
X197644118Y-143204166D01*
X197559019Y-143390036D01*
X197555291Y-143400564D01*
X197504395Y-143598790D01*
X197502624Y-143609346D01*
X197492207Y-143737412D01*
X197492000Y-143742518D01*
X197492000Y-144227885D01*
X149780780Y-144227885D01*
X152078222Y-143274855D01*
X152079648Y-143274274D01*
X153389318Y-142749653D01*
X154535367Y-142290575D01*
X154536677Y-142290059D01*
X156723360Y-141444983D01*
X157004351Y-141336390D01*
X157005791Y-141335844D01*
X159484794Y-140412445D01*
X159486239Y-140411917D01*
X161573718Y-139663267D01*
X161976335Y-139518873D01*
X161977772Y-139518368D01*
X164444316Y-138667635D01*
X164468161Y-138662029D01*
X164468637Y-138661868D01*
X164480947Y-138660263D01*
X164491705Y-138654069D01*
X164498856Y-138651652D01*
X164513323Y-138645395D01*
X164690688Y-138591670D01*
X164706037Y-138588880D01*
X164713463Y-138586890D01*
X164725847Y-138586078D01*
X164731157Y-138583459D01*
X164919308Y-138516137D01*
X165099073Y-138416236D01*
X165117845Y-138401338D01*
X165190676Y-138343534D01*
X165260162Y-138288386D01*
X165398274Y-138136003D01*
X165509719Y-137963157D01*
X165591520Y-137774467D01*
X165641491Y-137574971D01*
X165657822Y-137375800D01*
X165658976Y-137370001D01*
X165656421Y-137357154D01*
X165654000Y-137332576D01*
X165654000Y-112286062D01*
X168028493Y-112286062D01*
X168037789Y-112298077D01*
X168088994Y-112333931D01*
X168098489Y-112339414D01*
X168295947Y-112431490D01*
X168306239Y-112435236D01*
X168516688Y-112491625D01*
X168527481Y-112493528D01*
X168744525Y-112512517D01*
X168755475Y-112512517D01*
X168972519Y-112493528D01*
X168983312Y-112491625D01*
X169193761Y-112435236D01*
X169204053Y-112431490D01*
X169401511Y-112339414D01*
X169411006Y-112333931D01*
X169463048Y-112297491D01*
X169471424Y-112287012D01*
X169464356Y-112273566D01*
X168762812Y-111572022D01*
X168748868Y-111564408D01*
X168747035Y-111564539D01*
X168740420Y-111568790D01*
X168034923Y-112274287D01*
X168028493Y-112286062D01*
X165654000Y-112286062D01*
X165654000Y-111205475D01*
X167437483Y-111205475D01*
X167456472Y-111422519D01*
X167458375Y-111433312D01*
X167514764Y-111643761D01*
X167518510Y-111654053D01*
X167610586Y-111851511D01*
X167616069Y-111861006D01*
X167652509Y-111913048D01*
X167662988Y-111921424D01*
X167676434Y-111914356D01*
X168377978Y-111212812D01*
X168385592Y-111198868D01*
X168385461Y-111197035D01*
X168381210Y-111190420D01*
X167675713Y-110484923D01*
X167663938Y-110478493D01*
X167651923Y-110487789D01*
X167616069Y-110538994D01*
X167610586Y-110548489D01*
X167518510Y-110745947D01*
X167514764Y-110756239D01*
X167458375Y-110966688D01*
X167456472Y-110977481D01*
X167437483Y-111194525D01*
X167437483Y-111205475D01*
X165654000Y-111205475D01*
X165654000Y-110112988D01*
X168028576Y-110112988D01*
X168035644Y-110126434D01*
X168737188Y-110827978D01*
X168751132Y-110835592D01*
X168752965Y-110835461D01*
X168759580Y-110831210D01*
X169465077Y-110125713D01*
X169471507Y-110113938D01*
X169462211Y-110101923D01*
X169411006Y-110066069D01*
X169401511Y-110060586D01*
X169204053Y-109968510D01*
X169193761Y-109964764D01*
X168983312Y-109908375D01*
X168972519Y-109906472D01*
X168755475Y-109887483D01*
X168744525Y-109887483D01*
X168527481Y-109906472D01*
X168516688Y-109908375D01*
X168306239Y-109964764D01*
X168295947Y-109968510D01*
X168098489Y-110060586D01*
X168088994Y-110066069D01*
X168036952Y-110102509D01*
X168028576Y-110112988D01*
X165654000Y-110112988D01*
X165654000Y-102189399D01*
X168840800Y-102189399D01*
X168857318Y-102357862D01*
X168910748Y-102518479D01*
X168914397Y-102524504D01*
X168992395Y-102653293D01*
X168998435Y-102663267D01*
X169003326Y-102668332D01*
X169003327Y-102668333D01*
X169034583Y-102700699D01*
X169116021Y-102785031D01*
X169257660Y-102877717D01*
X169416315Y-102936720D01*
X169423296Y-102937651D01*
X169423298Y-102937652D01*
X169466122Y-102943366D01*
X169531241Y-102952055D01*
X169596117Y-102980889D01*
X169603671Y-102987852D01*
X169808595Y-103192776D01*
X169842621Y-103255088D01*
X169845500Y-103281871D01*
X169845500Y-110411520D01*
X169825498Y-110479641D01*
X169808595Y-110500615D01*
X169122022Y-111187188D01*
X169114408Y-111201132D01*
X169114539Y-111202965D01*
X169118790Y-111209580D01*
X169808595Y-111899385D01*
X169842621Y-111961697D01*
X169845500Y-111988480D01*
X169845500Y-141247428D01*
X169825498Y-141315549D01*
X169817143Y-141327063D01*
X169816634Y-141327687D01*
X169811605Y-141332612D01*
X169719909Y-141474895D01*
X169715214Y-141487794D01*
X169664425Y-141627335D01*
X169664424Y-141627340D01*
X169662015Y-141633958D01*
X169640800Y-141801894D01*
X169657318Y-141970357D01*
X169710748Y-142130974D01*
X169724068Y-142152968D01*
X169785432Y-142254291D01*
X169798435Y-142275762D01*
X169803326Y-142280827D01*
X169803327Y-142280828D01*
X169827062Y-142305406D01*
X169916021Y-142397526D01*
X170057660Y-142490212D01*
X170216315Y-142549215D01*
X170223296Y-142550146D01*
X170223298Y-142550147D01*
X170377118Y-142570671D01*
X170377122Y-142570671D01*
X170384099Y-142571602D01*
X170391110Y-142570964D01*
X170391114Y-142570964D01*
X170545652Y-142556900D01*
X170552673Y-142556261D01*
X170713659Y-142503953D01*
X170859056Y-142417279D01*
X170981638Y-142300547D01*
X170988622Y-142290036D01*
X171071410Y-142165430D01*
X171071411Y-142165428D01*
X171075311Y-142159558D01*
X171135420Y-142001319D01*
X171158978Y-141833695D01*
X171159274Y-141812495D01*
X171140406Y-141644279D01*
X171084738Y-141484424D01*
X170995038Y-141340874D01*
X170990074Y-141335876D01*
X170985698Y-141330354D01*
X170986992Y-141329329D01*
X170957286Y-141274466D01*
X170954500Y-141248118D01*
X170954500Y-112092773D01*
X170974502Y-112024652D01*
X171028158Y-111978159D01*
X171098432Y-111968055D01*
X171163012Y-111997549D01*
X171201396Y-112057275D01*
X171204079Y-112068193D01*
X171210266Y-112099301D01*
X171266516Y-112183484D01*
X171350699Y-112239734D01*
X171424933Y-112254500D01*
X172249866Y-112254500D01*
X173075066Y-112254499D01*
X173110818Y-112247388D01*
X173137126Y-112242156D01*
X173137128Y-112242155D01*
X173149301Y-112239734D01*
X173159621Y-112232839D01*
X173159622Y-112232838D01*
X173223168Y-112190377D01*
X173233484Y-112183484D01*
X173289734Y-112099301D01*
X173304500Y-112025067D01*
X173304499Y-110374934D01*
X173296344Y-110333931D01*
X173292156Y-110312874D01*
X173292155Y-110312872D01*
X173289734Y-110300699D01*
X173258865Y-110254500D01*
X173240377Y-110226832D01*
X173233484Y-110216516D01*
X173149301Y-110160266D01*
X173075067Y-110145500D01*
X172250134Y-110145500D01*
X171424934Y-110145501D01*
X171389182Y-110152612D01*
X171362874Y-110157844D01*
X171362872Y-110157845D01*
X171350699Y-110160266D01*
X171340379Y-110167161D01*
X171340378Y-110167162D01*
X171331390Y-110173168D01*
X171266516Y-110216516D01*
X171210266Y-110300699D01*
X171206735Y-110318452D01*
X171204079Y-110331803D01*
X171171171Y-110394713D01*
X171109476Y-110429845D01*
X171038582Y-110426045D01*
X170980996Y-110384519D01*
X170955001Y-110318452D01*
X170954500Y-110307222D01*
X170954500Y-103015065D01*
X170954611Y-103009789D01*
X170956869Y-102955910D01*
X170957229Y-102947326D01*
X170955268Y-102938964D01*
X170955267Y-102938958D01*
X170947211Y-102904613D01*
X170945050Y-102892960D01*
X170939095Y-102849482D01*
X170935682Y-102841595D01*
X170935681Y-102841592D01*
X170933047Y-102835505D01*
X170926013Y-102814239D01*
X170922537Y-102799417D01*
X170901397Y-102760963D01*
X170896182Y-102750317D01*
X170882170Y-102717937D01*
X170882168Y-102717933D01*
X170878758Y-102710054D01*
X170871183Y-102700699D01*
X170869179Y-102698225D01*
X170856688Y-102679637D01*
X170849348Y-102666285D01*
X170842290Y-102658109D01*
X170817547Y-102633366D01*
X170808721Y-102623565D01*
X170788556Y-102598662D01*
X170788553Y-102598659D01*
X170783150Y-102591987D01*
X170767636Y-102580962D01*
X170751536Y-102567355D01*
X170387329Y-102203148D01*
X170353303Y-102140836D01*
X170351209Y-102128098D01*
X170349116Y-102109440D01*
X170340406Y-102031784D01*
X170334506Y-102014840D01*
X170318469Y-101968790D01*
X170284738Y-101871929D01*
X170195038Y-101728379D01*
X170075764Y-101608269D01*
X170067407Y-101602965D01*
X170021245Y-101573670D01*
X169932844Y-101517569D01*
X169905442Y-101507812D01*
X169780016Y-101463149D01*
X169780011Y-101463148D01*
X169773381Y-101460787D01*
X169766395Y-101459954D01*
X169766391Y-101459953D01*
X169647287Y-101445751D01*
X169605301Y-101440745D01*
X169598298Y-101441481D01*
X169598297Y-101441481D01*
X169443965Y-101457701D01*
X169443961Y-101457702D01*
X169436957Y-101458438D01*
X169430286Y-101460709D01*
X169283387Y-101510717D01*
X169283384Y-101510718D01*
X169276717Y-101512988D01*
X169270719Y-101516678D01*
X169270717Y-101516679D01*
X169138543Y-101597993D01*
X169138541Y-101597995D01*
X169132544Y-101601684D01*
X169011605Y-101720117D01*
X168919909Y-101862400D01*
X168917498Y-101869025D01*
X168864425Y-102014840D01*
X168864424Y-102014845D01*
X168862015Y-102021463D01*
X168840800Y-102189399D01*
X165654000Y-102189399D01*
X165654000Y-69437425D01*
X165656421Y-69412844D01*
X165656555Y-69412170D01*
X165658976Y-69400000D01*
X165656555Y-69387828D01*
X165656555Y-69380246D01*
X165657162Y-69367896D01*
X165667118Y-69266812D01*
X165671935Y-69242592D01*
X165707187Y-69126383D01*
X165716631Y-69103582D01*
X165773876Y-68996483D01*
X165787594Y-68975953D01*
X165864626Y-68882091D01*
X165882091Y-68864626D01*
X165975953Y-68787594D01*
X165996483Y-68773876D01*
X166103582Y-68716631D01*
X166126383Y-68707187D01*
X166242592Y-68671935D01*
X166266812Y-68667118D01*
X166367896Y-68657162D01*
X166380246Y-68656555D01*
X166387828Y-68656555D01*
X166400000Y-68658976D01*
X166412847Y-68656421D01*
X166437425Y-68654000D01*
X174562575Y-68654000D01*
X174587153Y-68656421D01*
X174600000Y-68658976D01*
X174612172Y-68656555D01*
X174619754Y-68656555D01*
X174632104Y-68657162D01*
X174733188Y-68667118D01*
X174757408Y-68671935D01*
X174873617Y-68707187D01*
X174896418Y-68716631D01*
X175003517Y-68773876D01*
X175024047Y-68787594D01*
X175117909Y-68864626D01*
X175135374Y-68882091D01*
X175212406Y-68975953D01*
X175226124Y-68996483D01*
X175283369Y-69103582D01*
X175292813Y-69126383D01*
X175328065Y-69242592D01*
X175332882Y-69266812D01*
X175342838Y-69367896D01*
X175343445Y-69380246D01*
X175343445Y-69387828D01*
X175341024Y-69400000D01*
X175343445Y-69412170D01*
X175343579Y-69412844D01*
X175346000Y-69437425D01*
X175346000Y-133622575D01*
X175343579Y-133647153D01*
X175341024Y-133660000D01*
X175342854Y-133669199D01*
X175346356Y-133713290D01*
X175355714Y-133831093D01*
X175357897Y-133858582D01*
X175404823Y-134052184D01*
X175406748Y-134056784D01*
X175406750Y-134056790D01*
X175449003Y-134157756D01*
X175481725Y-134235949D01*
X175484355Y-134240193D01*
X175484356Y-134240194D01*
X175578761Y-134392503D01*
X175586674Y-134405270D01*
X175717038Y-134555899D01*
X175869547Y-134684058D01*
X175873837Y-134686632D01*
X176036092Y-134783964D01*
X176040375Y-134786533D01*
X176225240Y-134860755D01*
X176355777Y-134890392D01*
X176414636Y-134903756D01*
X176414639Y-134903756D01*
X176419504Y-134904861D01*
X176424486Y-134905184D01*
X176424487Y-134905184D01*
X176438294Y-134906079D01*
X176618294Y-134917745D01*
X176623267Y-134917277D01*
X176623272Y-134917277D01*
X176773450Y-134903146D01*
X176816626Y-134899084D01*
X177000592Y-134851650D01*
X177009882Y-134850386D01*
X177020605Y-134844133D01*
X177032335Y-134840094D01*
X177032476Y-134840504D01*
X177041033Y-134836873D01*
X177127634Y-134812468D01*
X177330875Y-134755192D01*
X177353665Y-134751255D01*
X177355164Y-134750850D01*
X177367542Y-134750013D01*
X177378657Y-134744503D01*
X177379014Y-134744407D01*
X177402113Y-134735733D01*
X179588206Y-134158105D01*
X179589555Y-134157756D01*
X181817338Y-133595395D01*
X181818691Y-133595062D01*
X183241208Y-133252663D01*
X184052423Y-133057404D01*
X184053707Y-133057102D01*
X186293442Y-132544136D01*
X186294703Y-132543855D01*
X188504247Y-132063457D01*
X188528767Y-132060670D01*
X188529129Y-132060593D01*
X188541533Y-132060442D01*
X188550599Y-132056557D01*
X188560426Y-132055695D01*
X188571430Y-132049964D01*
X188578815Y-132047810D01*
X188590802Y-132044941D01*
X188640425Y-132035607D01*
X188690131Y-132026257D01*
X188714656Y-132024091D01*
X188769056Y-132024623D01*
X188835684Y-132025274D01*
X188860158Y-132027919D01*
X188978640Y-132052613D01*
X189002136Y-132059967D01*
X189113555Y-132107231D01*
X189135173Y-132119014D01*
X189230424Y-132183748D01*
X189235275Y-132187045D01*
X189254181Y-132202800D01*
X189339151Y-132289006D01*
X189354635Y-132308142D01*
X189421211Y-132409215D01*
X189432680Y-132430999D01*
X189441146Y-132451786D01*
X189478332Y-132543092D01*
X189485345Y-132566687D01*
X189487421Y-132577419D01*
X189504537Y-132665927D01*
X189506282Y-132678122D01*
X189506998Y-132685783D01*
X189505721Y-132698124D01*
X189508906Y-132708817D01*
X189508953Y-132709905D01*
X189509023Y-132710397D01*
X189509282Y-132711459D01*
X189509197Y-132722622D01*
X189510328Y-132725412D01*
X189513277Y-132736784D01*
X189513277Y-132736785D01*
X189516141Y-132747828D01*
X189579321Y-132991464D01*
X189584469Y-133004216D01*
X189673604Y-133225029D01*
X189683311Y-133249077D01*
X189819802Y-133491046D01*
X189822253Y-133494313D01*
X189822257Y-133494320D01*
X189946525Y-133660000D01*
X189986495Y-133713290D01*
X189989351Y-133716215D01*
X190170746Y-133901993D01*
X190180578Y-133912063D01*
X190183800Y-133914602D01*
X190364234Y-134056790D01*
X190398779Y-134084013D01*
X190402290Y-134086106D01*
X190402295Y-134086109D01*
X190633911Y-134224152D01*
X190633915Y-134224154D01*
X190637420Y-134226243D01*
X190720090Y-134261932D01*
X190831006Y-134309815D01*
X190892478Y-134336353D01*
X191159653Y-134412488D01*
X191434440Y-134453364D01*
X191438536Y-134453437D01*
X191438540Y-134453437D01*
X191695884Y-134458002D01*
X191709247Y-134458239D01*
X191712226Y-134458687D01*
X191724273Y-134455693D01*
X191736673Y-134455108D01*
X191736677Y-134455203D01*
X191746508Y-134454000D01*
X209262575Y-134454000D01*
X209287153Y-134456421D01*
X209300000Y-134458976D01*
X209306184Y-134457746D01*
X209315808Y-134457164D01*
X209568389Y-134441886D01*
X209568394Y-134441885D01*
X209572186Y-134441656D01*
X209840403Y-134392503D01*
X209915725Y-134369032D01*
X210097104Y-134312512D01*
X210100740Y-134311379D01*
X210104210Y-134309817D01*
X210104216Y-134309815D01*
X210278571Y-134231344D01*
X210349401Y-134199466D01*
X210510644Y-134101992D01*
X210579504Y-134060365D01*
X210579507Y-134060363D01*
X210582759Y-134058397D01*
X210700609Y-133966067D01*
X210794408Y-133892580D01*
X210794411Y-133892578D01*
X210797411Y-133890227D01*
X210990227Y-133697411D01*
X211029600Y-133647156D01*
X211070413Y-133595062D01*
X211158397Y-133482759D01*
X211299466Y-133249401D01*
X211338314Y-133163085D01*
X211409815Y-133004216D01*
X211409817Y-133004210D01*
X211411379Y-133000740D01*
X211492503Y-132740403D01*
X211541656Y-132472186D01*
X211544148Y-132430999D01*
X211552736Y-132289002D01*
X211557746Y-132206184D01*
X211558976Y-132200000D01*
X211556320Y-132186647D01*
X211553899Y-132162406D01*
X211548917Y-130323380D01*
X211545739Y-129150074D01*
X211547063Y-129131521D01*
X211548507Y-129121639D01*
X211548507Y-129121635D01*
X211550300Y-129109361D01*
X211547259Y-129097334D01*
X211546854Y-129089435D01*
X211546821Y-129077192D01*
X211551190Y-128982131D01*
X211554678Y-128957928D01*
X211582128Y-128845907D01*
X211590225Y-128822833D01*
X211608766Y-128782902D01*
X211638797Y-128718222D01*
X211651199Y-128697147D01*
X211719061Y-128603894D01*
X211735301Y-128585611D01*
X211819901Y-128507220D01*
X211839366Y-128492418D01*
X211937517Y-128431843D01*
X211959474Y-128421080D01*
X212067479Y-128380605D01*
X212091089Y-128374289D01*
X212184990Y-128358733D01*
X212197149Y-128357322D01*
X212202265Y-128356979D01*
X212206937Y-128357043D01*
X212217332Y-128358395D01*
X212221814Y-128357187D01*
X212226436Y-128357623D01*
X212237914Y-128354090D01*
X212262842Y-128349102D01*
X214639940Y-128119139D01*
X214641320Y-128119014D01*
X215908190Y-128011316D01*
X217057177Y-127913640D01*
X217058638Y-127913524D01*
X218378631Y-127816764D01*
X219476815Y-127736263D01*
X219478188Y-127736171D01*
X221531874Y-127609631D01*
X221898094Y-127587066D01*
X221899558Y-127586984D01*
X224284795Y-127467852D01*
X224309355Y-127469109D01*
X224309785Y-127469090D01*
X224322055Y-127470973D01*
X224334110Y-127468018D01*
X224336870Y-127467896D01*
X224358263Y-127465004D01*
X224550004Y-127459579D01*
X224571317Y-127458976D01*
X224577627Y-127458956D01*
X224618619Y-127459850D01*
X224628699Y-127455930D01*
X224632587Y-127454929D01*
X224634076Y-127454666D01*
X224635955Y-127454061D01*
X224807157Y-127409962D01*
X224852515Y-127390396D01*
X224981649Y-127334694D01*
X224981656Y-127334691D01*
X224986138Y-127332757D01*
X225074403Y-127277126D01*
X225146905Y-127231430D01*
X225146907Y-127231429D01*
X225151041Y-127228823D01*
X225222578Y-127166393D01*
X225294217Y-127103873D01*
X225294218Y-127103872D01*
X225297902Y-127100657D01*
X225423196Y-126951337D01*
X225523913Y-126784450D01*
X225527385Y-126775953D01*
X225595784Y-126608531D01*
X225597633Y-126604006D01*
X225598758Y-126599259D01*
X225598760Y-126599253D01*
X225641458Y-126419092D01*
X225642585Y-126414337D01*
X225656284Y-126238085D01*
X225656555Y-126236120D01*
X225656555Y-126234600D01*
X225656865Y-126230612D01*
X225658976Y-126220000D01*
X225656421Y-126207153D01*
X225654000Y-126182575D01*
X225654000Y-102686062D01*
X228028493Y-102686062D01*
X228037789Y-102698077D01*
X228088994Y-102733931D01*
X228098489Y-102739414D01*
X228295947Y-102831490D01*
X228306239Y-102835236D01*
X228516688Y-102891625D01*
X228527481Y-102893528D01*
X228744525Y-102912517D01*
X228755475Y-102912517D01*
X228972519Y-102893528D01*
X228983312Y-102891625D01*
X229193761Y-102835236D01*
X229204053Y-102831490D01*
X229401511Y-102739414D01*
X229411006Y-102733931D01*
X229463048Y-102697491D01*
X229471424Y-102687012D01*
X229464356Y-102673566D01*
X228762812Y-101972022D01*
X228748868Y-101964408D01*
X228747035Y-101964539D01*
X228740420Y-101968790D01*
X228034923Y-102674287D01*
X228028493Y-102686062D01*
X225654000Y-102686062D01*
X225654000Y-101605475D01*
X227437483Y-101605475D01*
X227456472Y-101822519D01*
X227458375Y-101833312D01*
X227514764Y-102043761D01*
X227518510Y-102054053D01*
X227610586Y-102251511D01*
X227616069Y-102261006D01*
X227652509Y-102313048D01*
X227662988Y-102321424D01*
X227676434Y-102314356D01*
X228377978Y-101612812D01*
X228385592Y-101598868D01*
X228385461Y-101597035D01*
X228381210Y-101590420D01*
X227675713Y-100884923D01*
X227663938Y-100878493D01*
X227651923Y-100887789D01*
X227616069Y-100938994D01*
X227610586Y-100948489D01*
X227518510Y-101145947D01*
X227514764Y-101156239D01*
X227458375Y-101366688D01*
X227456472Y-101377481D01*
X227437483Y-101594525D01*
X227437483Y-101605475D01*
X225654000Y-101605475D01*
X225654000Y-100512988D01*
X228028576Y-100512988D01*
X228035644Y-100526434D01*
X228737188Y-101227978D01*
X228751132Y-101235592D01*
X228752965Y-101235461D01*
X228759580Y-101231210D01*
X229465077Y-100525713D01*
X229471507Y-100513938D01*
X229462211Y-100501923D01*
X229411006Y-100466069D01*
X229401511Y-100460586D01*
X229204053Y-100368510D01*
X229193761Y-100364764D01*
X228983312Y-100308375D01*
X228972519Y-100306472D01*
X228755475Y-100287483D01*
X228744525Y-100287483D01*
X228527481Y-100306472D01*
X228516688Y-100308375D01*
X228306239Y-100364764D01*
X228295947Y-100368510D01*
X228098489Y-100460586D01*
X228088994Y-100466069D01*
X228036952Y-100502509D01*
X228028576Y-100512988D01*
X225654000Y-100512988D01*
X225654000Y-92589399D01*
X228840800Y-92589399D01*
X228857318Y-92757862D01*
X228910748Y-92918479D01*
X228914397Y-92924504D01*
X228974391Y-93023565D01*
X228998435Y-93063267D01*
X229003326Y-93068332D01*
X229003327Y-93068333D01*
X229037171Y-93103379D01*
X229116021Y-93185031D01*
X229257660Y-93277717D01*
X229416315Y-93336720D01*
X229423296Y-93337651D01*
X229423298Y-93337652D01*
X229466122Y-93343366D01*
X229531241Y-93352055D01*
X229596117Y-93380889D01*
X229603671Y-93387852D01*
X229808595Y-93592776D01*
X229842621Y-93655088D01*
X229845500Y-93681871D01*
X229845500Y-100811520D01*
X229825498Y-100879641D01*
X229808595Y-100900615D01*
X229122022Y-101587188D01*
X229114408Y-101601132D01*
X229114539Y-101602965D01*
X229118790Y-101609580D01*
X229808595Y-102299385D01*
X229842621Y-102361697D01*
X229845500Y-102388480D01*
X229845500Y-135434933D01*
X229825498Y-135503054D01*
X229817143Y-135514568D01*
X229816634Y-135515192D01*
X229811605Y-135520117D01*
X229719909Y-135662400D01*
X229717498Y-135669025D01*
X229664425Y-135814840D01*
X229664424Y-135814845D01*
X229662015Y-135821463D01*
X229640800Y-135989399D01*
X229657318Y-136157862D01*
X229710748Y-136318479D01*
X229798435Y-136463267D01*
X229803326Y-136468332D01*
X229803327Y-136468333D01*
X229833836Y-136499926D01*
X229916021Y-136585031D01*
X230057660Y-136677717D01*
X230216315Y-136736720D01*
X230223296Y-136737651D01*
X230223298Y-136737652D01*
X230377118Y-136758176D01*
X230377122Y-136758176D01*
X230384099Y-136759107D01*
X230391110Y-136758469D01*
X230391114Y-136758469D01*
X230545652Y-136744405D01*
X230552673Y-136743766D01*
X230713659Y-136691458D01*
X230859056Y-136604784D01*
X230981638Y-136488052D01*
X230986301Y-136481034D01*
X231071410Y-136352935D01*
X231071411Y-136352933D01*
X231075311Y-136347063D01*
X231135420Y-136188824D01*
X231146161Y-136112395D01*
X231158427Y-136025123D01*
X231158427Y-136025118D01*
X231158978Y-136021200D01*
X231159274Y-136000000D01*
X231148502Y-135903962D01*
X231141191Y-135838780D01*
X231141190Y-135838777D01*
X231140406Y-135831784D01*
X231084738Y-135671929D01*
X230995038Y-135528379D01*
X230990074Y-135523381D01*
X230985698Y-135517859D01*
X230986992Y-135516834D01*
X230957286Y-135461971D01*
X230954500Y-135435623D01*
X230954500Y-102492773D01*
X230974502Y-102424652D01*
X231028158Y-102378159D01*
X231098432Y-102368055D01*
X231163012Y-102397549D01*
X231201396Y-102457275D01*
X231204079Y-102468193D01*
X231210266Y-102499301D01*
X231217161Y-102509620D01*
X231217162Y-102509622D01*
X231241136Y-102545501D01*
X231266516Y-102583484D01*
X231350699Y-102639734D01*
X231424933Y-102654500D01*
X232249866Y-102654500D01*
X233075066Y-102654499D01*
X233110818Y-102647388D01*
X233137126Y-102642156D01*
X233137128Y-102642155D01*
X233149301Y-102639734D01*
X233159621Y-102632839D01*
X233159622Y-102632838D01*
X233223168Y-102590377D01*
X233233484Y-102583484D01*
X233289734Y-102499301D01*
X233304500Y-102425067D01*
X233304499Y-100774934D01*
X233297388Y-100739182D01*
X233292156Y-100712874D01*
X233292155Y-100712872D01*
X233289734Y-100700699D01*
X233282243Y-100689487D01*
X233240377Y-100626832D01*
X233233484Y-100616516D01*
X233149301Y-100560266D01*
X233075067Y-100545500D01*
X232250134Y-100545500D01*
X231424934Y-100545501D01*
X231389182Y-100552612D01*
X231362874Y-100557844D01*
X231362872Y-100557845D01*
X231350699Y-100560266D01*
X231340379Y-100567161D01*
X231340378Y-100567162D01*
X231310670Y-100587013D01*
X231266516Y-100616516D01*
X231210266Y-100700699D01*
X231206837Y-100717937D01*
X231204079Y-100731803D01*
X231171171Y-100794713D01*
X231109476Y-100829845D01*
X231038582Y-100826045D01*
X230980996Y-100784519D01*
X230955001Y-100718452D01*
X230954500Y-100707222D01*
X230954500Y-93415065D01*
X230954611Y-93409789D01*
X230956869Y-93355910D01*
X230957229Y-93347326D01*
X230955268Y-93338964D01*
X230955267Y-93338958D01*
X230947211Y-93304613D01*
X230945050Y-93292960D01*
X230939095Y-93249482D01*
X230935682Y-93241595D01*
X230935681Y-93241592D01*
X230933047Y-93235505D01*
X230926013Y-93214239D01*
X230924498Y-93207780D01*
X230922537Y-93199417D01*
X230901397Y-93160963D01*
X230896182Y-93150317D01*
X230882170Y-93117937D01*
X230882168Y-93117933D01*
X230878758Y-93110054D01*
X230869179Y-93098225D01*
X230856688Y-93079637D01*
X230849348Y-93066285D01*
X230842290Y-93058109D01*
X230817547Y-93033366D01*
X230808721Y-93023565D01*
X230788556Y-92998662D01*
X230788553Y-92998659D01*
X230783150Y-92991987D01*
X230767636Y-92980962D01*
X230751536Y-92967355D01*
X230387329Y-92603148D01*
X230353303Y-92540836D01*
X230351209Y-92528098D01*
X230341191Y-92438787D01*
X230340406Y-92431784D01*
X230334506Y-92414840D01*
X230322516Y-92380412D01*
X230284738Y-92271929D01*
X230195038Y-92128379D01*
X230075764Y-92008269D01*
X229932844Y-91917569D01*
X229905442Y-91907812D01*
X229780016Y-91863149D01*
X229780011Y-91863148D01*
X229773381Y-91860787D01*
X229766395Y-91859954D01*
X229766391Y-91859953D01*
X229647287Y-91845751D01*
X229605301Y-91840745D01*
X229598298Y-91841481D01*
X229598297Y-91841481D01*
X229443965Y-91857701D01*
X229443961Y-91857702D01*
X229436957Y-91858438D01*
X229430286Y-91860709D01*
X229283387Y-91910717D01*
X229283384Y-91910718D01*
X229276717Y-91912988D01*
X229270719Y-91916678D01*
X229270717Y-91916679D01*
X229138543Y-91997993D01*
X229138541Y-91997995D01*
X229132544Y-92001684D01*
X229011605Y-92120117D01*
X228919909Y-92262400D01*
X228917498Y-92269025D01*
X228864425Y-92414840D01*
X228864424Y-92414845D01*
X228862015Y-92421463D01*
X228840800Y-92589399D01*
X225654000Y-92589399D01*
X225654000Y-59837425D01*
X225656421Y-59812844D01*
X225656555Y-59812170D01*
X225658976Y-59800000D01*
X225656555Y-59787828D01*
X225656555Y-59780246D01*
X225657162Y-59767896D01*
X225667118Y-59666812D01*
X225671935Y-59642592D01*
X225707187Y-59526383D01*
X225716631Y-59503582D01*
X225773876Y-59396483D01*
X225787594Y-59375953D01*
X225864626Y-59282091D01*
X225882091Y-59264626D01*
X225975953Y-59187594D01*
X225996483Y-59173876D01*
X226103582Y-59116631D01*
X226126383Y-59107187D01*
X226242592Y-59071935D01*
X226266812Y-59067118D01*
X226367896Y-59057162D01*
X226380246Y-59056555D01*
X226387828Y-59056555D01*
X226400000Y-59058976D01*
X226412847Y-59056421D01*
X226437425Y-59054000D01*
X234562575Y-59054000D01*
X234587153Y-59056421D01*
G37*
%TD.AperFunction*%
%TD*%
M02*
