%TF.GenerationSoftware,KiCad,Pcbnew,5.1.10-88a1d61d58~90~ubuntu20.04.1*%
%TF.CreationDate,2021-11-19T20:23:52-08:00*%
%TF.ProjectId,menorah555a,6d656e6f-7261-4683-9535-35612e6b6963,A*%
%TF.SameCoordinates,Original*%
%TF.FileFunction,Legend,Bot*%
%TF.FilePolarity,Positive*%
%FSLAX46Y46*%
G04 Gerber Fmt 4.6, Leading zero omitted, Abs format (unit mm)*
G04 Created by KiCad (PCBNEW 5.1.10-88a1d61d58~90~ubuntu20.04.1) date 2021-11-19 20:23:52*
%MOMM*%
%LPD*%
G01*
G04 APERTURE LIST*
%TA.AperFunction,Profile*%
%ADD10C,0.050000*%
%TD*%
%ADD11C,0.120000*%
%ADD12C,0.150000*%
G04 APERTURE END LIST*
D10*
X197600000Y-133200000D02*
X203400000Y-133200000D01*
X197600000Y-134200000D02*
X203400000Y-134200000D01*
X192700000Y-134200000D02*
X194200000Y-134200000D01*
X206800000Y-134200000D02*
X208300000Y-134200000D01*
X192700000Y-133200000D02*
X194200000Y-133200000D01*
X197600000Y-134200000D02*
G75*
G02*
X197600000Y-133200000I0J500000D01*
G01*
X203400000Y-133200000D02*
G75*
G02*
X203400000Y-134200000I0J-500000D01*
G01*
X206800000Y-134200000D02*
G75*
G02*
X206800000Y-133200000I0J500000D01*
G01*
X194200000Y-133200000D02*
G75*
G02*
X194200000Y-134200000I0J-500000D01*
G01*
X330600000Y-208000000D02*
X330600000Y-209800000D01*
X330600000Y-203250000D02*
X330600000Y-207149000D01*
X329030000Y-203249000D02*
G75*
G02*
X329030000Y-202399000I0J425000D01*
G01*
X329030000Y-203249000D02*
X330600000Y-203249000D01*
X329030000Y-202399000D02*
X330600000Y-202399000D01*
X329030000Y-207999000D02*
G75*
G02*
X329030000Y-207149000I0J425000D01*
G01*
X329030000Y-207149000D02*
X330600000Y-207149000D01*
X329030000Y-207999000D02*
X330600000Y-207999000D01*
X334473216Y-151784307D02*
X334841394Y-151986459D01*
X326209269Y-147680505D02*
X326340000Y-147740000D01*
X334473217Y-151784307D02*
G75*
G03*
X326340000Y-147740000I-100603217J-192115693D01*
G01*
X313693401Y-142252243D02*
X313977382Y-142376308D01*
X296341181Y-136225926D02*
X296540000Y-136280000D01*
X313693401Y-142252243D02*
G75*
G03*
X296540000Y-136280000I-79823401J-201647757D01*
G01*
X283817199Y-132845881D02*
X284141181Y-132935926D01*
X266392088Y-129478148D02*
X266730000Y-129520000D01*
X283817199Y-132845881D02*
G75*
G03*
X266730000Y-129520000I-49947199J-211054119D01*
G01*
X253945960Y-127939407D02*
X254312844Y-127986195D01*
X236634899Y-127029391D02*
X236940000Y-127030000D01*
X253945960Y-127939408D02*
G75*
G03*
X236940000Y-127030000I-20075960J-215960592D01*
G01*
X224310641Y-127212249D02*
X224573648Y-127204808D01*
X211100000Y-128200000D02*
X210713176Y-128247596D01*
X224310641Y-127212249D02*
G75*
G03*
X211100000Y-128200000I9559359J-216687751D01*
G01*
X210713176Y-128247596D02*
G75*
G03*
X210300000Y-128740000I86824J-492404D01*
G01*
X189818328Y-131513618D02*
X190070590Y-131457037D01*
X190070590Y-131457037D02*
G75*
G02*
X190700000Y-131940000I129410J-482963D01*
G01*
X177300000Y-134500000D02*
X176925568Y-134605519D01*
X189818328Y-131513619D02*
G75*
G03*
X177300000Y-134500000I44051672J-212386381D01*
G01*
X147100000Y-145100000D02*
X147022618Y-145136308D01*
X164658819Y-138335926D02*
X164398003Y-138414929D01*
X164398003Y-138414928D02*
G75*
G03*
X147100000Y-145100000I69471997J-205485072D01*
G01*
X117400000Y-160900000D02*
X117229320Y-161007146D01*
X134929919Y-150858048D02*
X134801847Y-150922131D01*
X134801848Y-150922131D02*
G75*
G03*
X117400000Y-160900000I99088152J-192977869D01*
G01*
X104841866Y-169519312D02*
X104929919Y-169458048D01*
X75069131Y-196113145D02*
X74841689Y-196355905D01*
X87600000Y-183700000D02*
X87294658Y-183979340D01*
X313977382Y-142376308D02*
G75*
G03*
X315400000Y-141470000I422618J906308D01*
G01*
X284141181Y-132935926D02*
G75*
G03*
X285400000Y-131970000I258819J965926D01*
G01*
X254312844Y-127986195D02*
G75*
G03*
X255400000Y-126990000I87156J996195D01*
G01*
X224573648Y-127204808D02*
G75*
G03*
X225400000Y-126220000I-173648J984808D01*
G01*
X164658819Y-138335926D02*
G75*
G03*
X165400000Y-137370000I-258819J965926D01*
G01*
X134929919Y-150858048D02*
G75*
G03*
X135400000Y-150010000I-529919J848048D01*
G01*
X326209269Y-147680505D02*
G75*
G02*
X325600000Y-146760000I390731J920505D01*
G01*
X296341181Y-136225926D02*
G75*
G02*
X295600000Y-135260000I258819J965926D01*
G01*
X266392088Y-129478148D02*
G75*
G02*
X265600000Y-128500000I207912J978148D01*
G01*
X236634899Y-127029391D02*
G75*
G02*
X235600000Y-126030000I-34899J999391D01*
G01*
X176925568Y-134605519D02*
G75*
G02*
X175600000Y-133660000I-325568J945519D01*
G01*
X147022618Y-145136308D02*
G75*
G02*
X145600000Y-144230000I-422618J906308D01*
G01*
X117229320Y-161007146D02*
G75*
G02*
X115600000Y-160230000I-629320J777146D01*
G01*
X104929919Y-169458048D02*
G75*
G03*
X105400000Y-168610000I-529919J848048D01*
G01*
X87294658Y-183979340D02*
G75*
G02*
X85600000Y-183260000I-694658J719340D01*
G01*
X75069131Y-196113145D02*
G75*
G03*
X75400000Y-195370000I-669131J743145D01*
G01*
X74841689Y-196355905D02*
G75*
G03*
X57824000Y-217136000I158968311J-147544095D01*
G01*
X210300000Y-132200000D02*
X210300000Y-128740000D01*
X190700000Y-132200000D02*
X190700000Y-131940000D01*
X210300000Y-132200000D02*
G75*
G02*
X208300000Y-134200000I-2000000J0D01*
G01*
X192700000Y-134200000D02*
G75*
G02*
X190700000Y-132200000I0J2000000D01*
G01*
X209300000Y-132200000D02*
G75*
G02*
X208300000Y-133200000I-1000000J0D01*
G01*
X192700000Y-133200000D02*
G75*
G02*
X191700000Y-132200000I0J1000000D01*
G01*
X330600000Y-209800000D02*
G75*
G03*
X331600000Y-210800000I1000000J0D01*
G01*
X332889778Y-211022354D02*
X332963500Y-211270827D01*
X332889778Y-211022354D02*
G75*
G03*
X332600000Y-210800000I-289778J-77646D01*
G01*
X331600000Y-210800000D02*
X332600000Y-210800000D01*
X332963500Y-211270827D02*
G75*
G03*
X335030000Y-217906000I96036500J26270827D01*
G01*
X334963541Y-152291394D02*
X334868155Y-152553185D01*
X330600000Y-202399000D02*
X330600000Y-200200000D01*
X334963541Y-152291394D02*
G75*
G03*
X334841394Y-151986459I-213541J91394D01*
G01*
X327511852Y-223813089D02*
X327603497Y-223876946D01*
X64764915Y-223901327D02*
X64850309Y-223837228D01*
X64764915Y-223901326D02*
G75*
G02*
X57824000Y-217136000I-2964915J3901326D01*
G01*
X327603497Y-223876946D02*
G75*
G03*
X335030000Y-217906000I2996503J3876946D01*
G01*
X334868155Y-152553185D02*
G75*
G03*
X330600000Y-200200000I94131845J-32446815D01*
G01*
X104841866Y-169519312D02*
G75*
G03*
X87600000Y-183700000I128968134J-174380688D01*
G01*
X327511852Y-223813090D02*
G75*
G03*
X64850000Y-223840000I-131311852J-186186910D01*
G01*
X285400000Y-67400000D02*
G75*
G02*
X286400000Y-66400000I1000000J0D01*
G01*
X325600000Y-78200000D02*
X325600000Y-146760000D01*
X235600000Y-59800000D02*
X235600000Y-126030000D01*
X234600000Y-58800000D02*
G75*
G02*
X235600000Y-59800000I0J-1000000D01*
G01*
X226400000Y-58800000D02*
X234600000Y-58800000D01*
X225400000Y-59800000D02*
G75*
G02*
X226400000Y-58800000I1000000J0D01*
G01*
X225400000Y-126220000D02*
X225400000Y-59800000D01*
X286400000Y-66400000D02*
X294600000Y-66400000D01*
X315400000Y-78200000D02*
G75*
G02*
X316400000Y-77200000I1000000J0D01*
G01*
X315400000Y-141470000D02*
X315400000Y-78200000D01*
X264600000Y-60800000D02*
G75*
G02*
X265600000Y-61800000I0J-1000000D01*
G01*
X316400000Y-77200000D02*
X324600000Y-77200000D01*
X265600000Y-61800000D02*
X265600000Y-128500000D01*
X295600000Y-67400000D02*
X295600000Y-135260000D01*
X324600000Y-77200000D02*
G75*
G02*
X325600000Y-78200000I0J-1000000D01*
G01*
X255400000Y-126990000D02*
X255400000Y-61800000D01*
X285400000Y-131970000D02*
X285400000Y-67400000D01*
X256400000Y-60800000D02*
X264600000Y-60800000D01*
X294600000Y-66400000D02*
G75*
G02*
X295600000Y-67400000I0J-1000000D01*
G01*
X255400000Y-61800000D02*
G75*
G02*
X256400000Y-60800000I1000000J0D01*
G01*
X165400000Y-69400000D02*
G75*
G02*
X166400000Y-68400000I1000000J0D01*
G01*
X166400000Y-68400000D02*
X174600000Y-68400000D01*
X175600000Y-69400000D02*
X175600000Y-133660000D01*
X165400000Y-137370000D02*
X165400000Y-69400000D01*
X174600000Y-68400000D02*
G75*
G02*
X175600000Y-69400000I0J-1000000D01*
G01*
X145600000Y-81000000D02*
X145600000Y-144230000D01*
X144600000Y-80000000D02*
G75*
G02*
X145600000Y-81000000I0J-1000000D01*
G01*
X136400000Y-80000000D02*
X144600000Y-80000000D01*
X135400000Y-81000000D02*
G75*
G02*
X136400000Y-80000000I1000000J0D01*
G01*
X135400000Y-150010000D02*
X135400000Y-81000000D01*
X115600000Y-98000000D02*
X115600000Y-160230000D01*
X114600000Y-97000000D02*
G75*
G02*
X115600000Y-98000000I0J-1000000D01*
G01*
X106400000Y-97000000D02*
X114600000Y-97000000D01*
X105400000Y-98000000D02*
G75*
G02*
X106400000Y-97000000I1000000J0D01*
G01*
X105400000Y-168610000D02*
X105400000Y-98000000D01*
X205600000Y-98800000D02*
X209300000Y-103000000D01*
X205600000Y-54400000D02*
X205600000Y-98800000D01*
X195400000Y-98800000D02*
X191700000Y-103000000D01*
X195400000Y-54400000D02*
X195400000Y-98800000D01*
X204600000Y-53400000D02*
G75*
G02*
X205600000Y-54400000I0J-1000000D01*
G01*
X196400000Y-53400000D02*
X204600000Y-53400000D01*
X195400000Y-54400000D02*
G75*
G02*
X196400000Y-53400000I1000000J0D01*
G01*
X209300000Y-103000000D02*
X209300000Y-132200000D01*
X206800000Y-133200000D02*
X208300000Y-133200000D01*
X191700000Y-103000000D02*
X191700000Y-132200000D01*
X84600000Y-121000000D02*
G75*
G02*
X85600000Y-122000000I0J-1000000D01*
G01*
X75400000Y-122000000D02*
G75*
G02*
X76400000Y-121000000I1000000J0D01*
G01*
X75400000Y-195370000D02*
X75400000Y-122000000D01*
X85600000Y-122000000D02*
X85600000Y-183260000D01*
X76400000Y-121000000D02*
X84600000Y-121000000D01*
D11*
%TO.C,R30*%
X202839564Y-122135000D02*
X202385436Y-122135000D01*
X202839564Y-120665000D02*
X202385436Y-120665000D01*
%TO.C,R31*%
X198072936Y-120665000D02*
X198527064Y-120665000D01*
X198072936Y-122135000D02*
X198527064Y-122135000D01*
%TD*%
%TO.C,R30*%
D12*
X203255357Y-120202380D02*
X203588690Y-119726190D01*
X203826785Y-120202380D02*
X203826785Y-119202380D01*
X203445833Y-119202380D01*
X203350595Y-119250000D01*
X203302976Y-119297619D01*
X203255357Y-119392857D01*
X203255357Y-119535714D01*
X203302976Y-119630952D01*
X203350595Y-119678571D01*
X203445833Y-119726190D01*
X203826785Y-119726190D01*
X202922023Y-119202380D02*
X202302976Y-119202380D01*
X202636309Y-119583333D01*
X202493452Y-119583333D01*
X202398214Y-119630952D01*
X202350595Y-119678571D01*
X202302976Y-119773809D01*
X202302976Y-120011904D01*
X202350595Y-120107142D01*
X202398214Y-120154761D01*
X202493452Y-120202380D01*
X202779166Y-120202380D01*
X202874404Y-120154761D01*
X202922023Y-120107142D01*
X201683928Y-119202380D02*
X201588690Y-119202380D01*
X201493452Y-119250000D01*
X201445833Y-119297619D01*
X201398214Y-119392857D01*
X201350595Y-119583333D01*
X201350595Y-119821428D01*
X201398214Y-120011904D01*
X201445833Y-120107142D01*
X201493452Y-120154761D01*
X201588690Y-120202380D01*
X201683928Y-120202380D01*
X201779166Y-120154761D01*
X201826785Y-120107142D01*
X201874404Y-120011904D01*
X201922023Y-119821428D01*
X201922023Y-119583333D01*
X201874404Y-119392857D01*
X201826785Y-119297619D01*
X201779166Y-119250000D01*
X201683928Y-119202380D01*
%TO.C,R31*%
X198842857Y-120152380D02*
X199176190Y-119676190D01*
X199414285Y-120152380D02*
X199414285Y-119152380D01*
X199033333Y-119152380D01*
X198938095Y-119200000D01*
X198890476Y-119247619D01*
X198842857Y-119342857D01*
X198842857Y-119485714D01*
X198890476Y-119580952D01*
X198938095Y-119628571D01*
X199033333Y-119676190D01*
X199414285Y-119676190D01*
X198509523Y-119152380D02*
X197890476Y-119152380D01*
X198223809Y-119533333D01*
X198080952Y-119533333D01*
X197985714Y-119580952D01*
X197938095Y-119628571D01*
X197890476Y-119723809D01*
X197890476Y-119961904D01*
X197938095Y-120057142D01*
X197985714Y-120104761D01*
X198080952Y-120152380D01*
X198366666Y-120152380D01*
X198461904Y-120104761D01*
X198509523Y-120057142D01*
X196938095Y-120152380D02*
X197509523Y-120152380D01*
X197223809Y-120152380D02*
X197223809Y-119152380D01*
X197319047Y-119295238D01*
X197414285Y-119390476D01*
X197509523Y-119438095D01*
%TD*%
M02*
