%TF.GenerationSoftware,KiCad,Pcbnew,6.0.2-378541a8eb~116~ubuntu20.04.1*%
%TF.CreationDate,2022-02-19T20:17:07-08:00*%
%TF.ProjectId,menorah555_main,6d656e6f-7261-4683-9535-355f6d61696e,B*%
%TF.SameCoordinates,Original*%
%TF.FileFunction,OtherDrawing,Comment*%
%FSLAX46Y46*%
G04 Gerber Fmt 4.6, Leading zero omitted, Abs format (unit mm)*
G04 Created by KiCad (PCBNEW 6.0.2-378541a8eb~116~ubuntu20.04.1) date 2022-02-19 20:17:07*
%MOMM*%
%LPD*%
G01*
G04 APERTURE LIST*
%ADD10C,0.200000*%
%TA.AperFunction,Profile*%
%ADD11C,0.050000*%
%TD*%
%ADD12C,0.150000*%
%ADD13C,0.300000*%
G04 APERTURE END LIST*
D10*
X58300000Y-58800000D02*
X225400000Y-58800000D01*
D11*
X136400000Y-80000000D02*
G75*
G03*
X135400000Y-81000000I-1J-999999D01*
G01*
X175600000Y-69400000D02*
X175600000Y-133660000D01*
X85600000Y-122000000D02*
X85600000Y-183260000D01*
X85600000Y-122000000D02*
G75*
G03*
X84600000Y-121000000I-999999J1D01*
G01*
X76400000Y-121000000D02*
X84600000Y-121000000D01*
X76400000Y-121000000D02*
G75*
G03*
X75400000Y-122000000I-1J-999999D01*
G01*
X75400000Y-195370000D02*
X75400000Y-122000000D01*
X136400000Y-80000000D02*
X144600000Y-80000000D01*
X166400000Y-68400000D02*
G75*
G03*
X165400000Y-69400000I-1J-999999D01*
G01*
X165400000Y-137370000D02*
X165400000Y-69400000D01*
X115600000Y-98000000D02*
G75*
G03*
X114600000Y-97000000I-999999J1D01*
G01*
X166400000Y-68400000D02*
X174600000Y-68400000D01*
X115600000Y-98000000D02*
X115600000Y-160230000D01*
X145600000Y-81000000D02*
X145600000Y-144230000D01*
X175600000Y-69400000D02*
G75*
G03*
X174600000Y-68400000I-999999J1D01*
G01*
X105400000Y-168610000D02*
X105400000Y-98000000D01*
X135400000Y-150010000D02*
X135400000Y-81000000D01*
X106400000Y-97000000D02*
X114600000Y-97000000D01*
X145600000Y-81000000D02*
G75*
G03*
X144600000Y-80000000I-999999J1D01*
G01*
X106400000Y-97000000D02*
G75*
G03*
X105400000Y-98000000I-1J-999999D01*
G01*
X256400000Y-60800000D02*
G75*
G03*
X255400000Y-61800000I-1J-999999D01*
G01*
X295600000Y-67400000D02*
G75*
G03*
X294600000Y-66400000I-999999J1D01*
G01*
X256400000Y-60800000D02*
X264600000Y-60800000D01*
X285400000Y-131970000D02*
X285400000Y-67400000D01*
X255400000Y-126990000D02*
X255400000Y-61800000D01*
X325600000Y-78200000D02*
G75*
G03*
X324600000Y-77200000I-999999J1D01*
G01*
X295600000Y-67400000D02*
X295600000Y-135260000D01*
X265600000Y-61800000D02*
X265600000Y-128500000D01*
X316400000Y-77200000D02*
X324600000Y-77200000D01*
X265600000Y-61800000D02*
G75*
G03*
X264600000Y-60800000I-999999J1D01*
G01*
X315400000Y-141470000D02*
X315400000Y-78200000D01*
X316400000Y-77200000D02*
G75*
G03*
X315400000Y-78200000I-1J-999999D01*
G01*
X286400000Y-66400000D02*
X294600000Y-66400000D01*
X225400000Y-126220000D02*
X225400000Y-59800000D01*
X226400000Y-58800000D02*
G75*
G03*
X225400000Y-59800000I-1J-999999D01*
G01*
X226400000Y-58800000D02*
X234600000Y-58800000D01*
X235600000Y-59800000D02*
G75*
G03*
X234600000Y-58800000I-999999J1D01*
G01*
X235600000Y-59800000D02*
X235600000Y-126030000D01*
X325600000Y-78200000D02*
X325600000Y-146760000D01*
X286400000Y-66400000D02*
G75*
G03*
X285400000Y-67400000I-1J-999999D01*
G01*
X57820001Y-217140001D02*
G75*
G03*
X64760000Y-223900000I3975144J-2861404D01*
G01*
X64760000Y-223900000D02*
X64850309Y-223837228D01*
X327511852Y-223813089D02*
X327603497Y-223876946D01*
X333030000Y-211510000D02*
G75*
G03*
X335030000Y-217906000I95667512J26404099D01*
G01*
X331600000Y-210800000D02*
X332087372Y-210808006D01*
X333030001Y-211510000D02*
G75*
G03*
X332087372Y-210808006I-942667J-281929D01*
G01*
X189763573Y-132674026D02*
G75*
G03*
X191700000Y-134200000I1847626J352968D01*
G01*
X209300000Y-134200000D02*
G75*
G03*
X211300000Y-132200000I1J1999999D01*
G01*
X211300000Y-132200000D02*
X211291664Y-129122633D01*
X74841689Y-196355905D02*
G75*
G03*
X57820000Y-217140000I159055385J-147624881D01*
G01*
X104929919Y-169458048D02*
G75*
G03*
X105400000Y-168610000I-529915J848046D01*
G01*
X145600000Y-144230000D02*
G75*
G03*
X147022618Y-145136308I1000000J0D01*
G01*
X175600001Y-133660000D02*
G75*
G03*
X176925568Y-134605519I999999J-1D01*
G01*
X235600000Y-126030000D02*
G75*
G03*
X236634899Y-127029391I999999J-1D01*
G01*
X265600001Y-128500000D02*
G75*
G03*
X266392088Y-129478148I999999J-1D01*
G01*
X295600000Y-135260000D02*
G75*
G03*
X296341181Y-136225926I1000000J0D01*
G01*
X325599999Y-146760000D02*
G75*
G03*
X326209269Y-147680505I1000000J0D01*
G01*
X134929919Y-150858048D02*
G75*
G03*
X135400000Y-150010000I-529915J848046D01*
G01*
X164658819Y-138335925D02*
G75*
G03*
X165400000Y-137370000I-258821J965927D01*
G01*
X224573648Y-127204809D02*
G75*
G03*
X225400000Y-126220000I-173649J984809D01*
G01*
X254312844Y-127986195D02*
G75*
G03*
X255400000Y-126990000I87155J996196D01*
G01*
X284141181Y-132935926D02*
G75*
G03*
X285400000Y-131970000I258818J965927D01*
G01*
X313977382Y-142376308D02*
G75*
G03*
X315400000Y-141470000I422618J906308D01*
G01*
X87600000Y-183700000D02*
X87294658Y-183979340D01*
X75069131Y-196113145D02*
X74841689Y-196355905D01*
X104841866Y-169519312D02*
X104929919Y-169458048D01*
X134801847Y-150922131D02*
G75*
G03*
X117400000Y-160900000I99088026J-192977653D01*
G01*
X134929919Y-150858048D02*
X134801847Y-150922131D01*
X117400000Y-160900000D02*
X117229320Y-161007146D01*
X164398003Y-138414929D02*
G75*
G03*
X147100000Y-145100000I69471878J-205484773D01*
G01*
X164658819Y-138335926D02*
X164398003Y-138414929D01*
X147100000Y-145100000D02*
X147022618Y-145136308D01*
X188487912Y-131807078D02*
G75*
G03*
X177300000Y-134500000I43093575J-203621836D01*
G01*
X177300000Y-134500000D02*
X176925568Y-134605519D01*
X224310641Y-127212249D02*
G75*
G03*
X212200000Y-128100000I9201387J-208574882D01*
G01*
X224310641Y-127212249D02*
X224573648Y-127204808D01*
X253945960Y-127939407D02*
G75*
G03*
X236940000Y-127030000I-20075998J-215961356D01*
G01*
X236634899Y-127029391D02*
X236940000Y-127030000D01*
X253945960Y-127939407D02*
X254312844Y-127986195D01*
X283817199Y-132845881D02*
G75*
G03*
X266730000Y-129520000I-49947117J-211053672D01*
G01*
X266392088Y-129478148D02*
X266730000Y-129520000D01*
X283817199Y-132845881D02*
X284141181Y-132935926D01*
X313693401Y-142252243D02*
G75*
G03*
X296540000Y-136280000I-79823297J-201647453D01*
G01*
X296341181Y-136225926D02*
X296540000Y-136280000D01*
X313693401Y-142252243D02*
X313977382Y-142376308D01*
X334280000Y-151700000D02*
G75*
G03*
X326209269Y-147680505I-54259472J-98835073D01*
G01*
X330600000Y-208000000D02*
X330600000Y-209800000D01*
X334710000Y-152940000D02*
G75*
G03*
X334280000Y-151700000I-978203J355341D01*
G01*
X85600000Y-183260000D02*
G75*
G03*
X87294658Y-183979340I1000000J0D01*
G01*
X75069131Y-196113145D02*
G75*
G03*
X75400000Y-195370000I-669140J743149D01*
G01*
X330600000Y-209800000D02*
G75*
G03*
X331600000Y-210800000I999999J-1D01*
G01*
X334710000Y-152940000D02*
G75*
G03*
X330600000Y-200200000I94502379J-32027182D01*
G01*
X212200000Y-128100000D02*
G75*
G03*
X211291664Y-129122633I65243J-972674D01*
G01*
X327511852Y-223813089D02*
G75*
G03*
X64850309Y-223837228I-131313662J-186189469D01*
G01*
X327603497Y-223876946D02*
G75*
G03*
X335030000Y-217906000I2996503J3876946D01*
G01*
X115600000Y-160230000D02*
G75*
G03*
X117229320Y-161007146I1000000J0D01*
G01*
X104841866Y-169519312D02*
G75*
G03*
X87600000Y-183700000I128968223J-174380802D01*
G01*
X191700000Y-134200000D02*
X209300000Y-134200000D01*
X189763573Y-132674026D02*
G75*
G03*
X188487912Y-131807078I-995660J-93051D01*
G01*
X330600000Y-208000000D02*
X330600000Y-200200000D01*
D12*
X345425595Y-103527380D02*
X345425595Y-102527380D01*
X345997023Y-103527380D01*
X345997023Y-102527380D01*
X346663690Y-102527380D02*
X346854166Y-102527380D01*
X346949404Y-102575000D01*
X347044642Y-102670238D01*
X347092261Y-102860714D01*
X347092261Y-103194047D01*
X347044642Y-103384523D01*
X346949404Y-103479761D01*
X346854166Y-103527380D01*
X346663690Y-103527380D01*
X346568452Y-103479761D01*
X346473214Y-103384523D01*
X346425595Y-103194047D01*
X346425595Y-102860714D01*
X346473214Y-102670238D01*
X346568452Y-102575000D01*
X346663690Y-102527380D01*
X347377976Y-102527380D02*
X347949404Y-102527380D01*
X347663690Y-103527380D02*
X347663690Y-102527380D01*
X348282738Y-103003571D02*
X348616071Y-103003571D01*
X348758928Y-103527380D02*
X348282738Y-103527380D01*
X348282738Y-102527380D01*
X348758928Y-102527380D01*
X349139880Y-103479761D02*
X349282738Y-103527380D01*
X349520833Y-103527380D01*
X349616071Y-103479761D01*
X349663690Y-103432142D01*
X349711309Y-103336904D01*
X349711309Y-103241666D01*
X349663690Y-103146428D01*
X349616071Y-103098809D01*
X349520833Y-103051190D01*
X349330357Y-103003571D01*
X349235119Y-102955952D01*
X349187500Y-102908333D01*
X349139880Y-102813095D01*
X349139880Y-102717857D01*
X349187500Y-102622619D01*
X349235119Y-102575000D01*
X349330357Y-102527380D01*
X349568452Y-102527380D01*
X349711309Y-102575000D01*
X351187500Y-103908333D02*
X351139880Y-103860714D01*
X351044642Y-103717857D01*
X350997023Y-103622619D01*
X350949404Y-103479761D01*
X350901785Y-103241666D01*
X350901785Y-103051190D01*
X350949404Y-102813095D01*
X350997023Y-102670238D01*
X351044642Y-102575000D01*
X351139880Y-102432142D01*
X351187500Y-102384523D01*
X351568452Y-102527380D02*
X351568452Y-103336904D01*
X351616071Y-103432142D01*
X351663690Y-103479761D01*
X351758928Y-103527380D01*
X351949404Y-103527380D01*
X352044642Y-103479761D01*
X352092261Y-103432142D01*
X352139880Y-103336904D01*
X352139880Y-102527380D01*
X352616071Y-103527380D02*
X352616071Y-102527380D01*
X353187500Y-103527380D01*
X353187500Y-102527380D01*
X354139880Y-103527380D02*
X353663690Y-103527380D01*
X353663690Y-102527380D01*
X354473214Y-103003571D02*
X354806547Y-103003571D01*
X354949404Y-103527380D02*
X354473214Y-103527380D01*
X354473214Y-102527380D01*
X354949404Y-102527380D01*
X355330357Y-103479761D02*
X355473214Y-103527380D01*
X355711309Y-103527380D01*
X355806547Y-103479761D01*
X355854166Y-103432142D01*
X355901785Y-103336904D01*
X355901785Y-103241666D01*
X355854166Y-103146428D01*
X355806547Y-103098809D01*
X355711309Y-103051190D01*
X355520833Y-103003571D01*
X355425595Y-102955952D01*
X355377976Y-102908333D01*
X355330357Y-102813095D01*
X355330357Y-102717857D01*
X355377976Y-102622619D01*
X355425595Y-102575000D01*
X355520833Y-102527380D01*
X355758928Y-102527380D01*
X355901785Y-102575000D01*
X356282738Y-103479761D02*
X356425595Y-103527380D01*
X356663690Y-103527380D01*
X356758928Y-103479761D01*
X356806547Y-103432142D01*
X356854166Y-103336904D01*
X356854166Y-103241666D01*
X356806547Y-103146428D01*
X356758928Y-103098809D01*
X356663690Y-103051190D01*
X356473214Y-103003571D01*
X356377976Y-102955952D01*
X356330357Y-102908333D01*
X356282738Y-102813095D01*
X356282738Y-102717857D01*
X356330357Y-102622619D01*
X356377976Y-102575000D01*
X356473214Y-102527380D01*
X356711309Y-102527380D01*
X356854166Y-102575000D01*
X358235119Y-102527380D02*
X358425595Y-102527380D01*
X358520833Y-102575000D01*
X358616071Y-102670238D01*
X358663690Y-102860714D01*
X358663690Y-103194047D01*
X358616071Y-103384523D01*
X358520833Y-103479761D01*
X358425595Y-103527380D01*
X358235119Y-103527380D01*
X358139880Y-103479761D01*
X358044642Y-103384523D01*
X357997023Y-103194047D01*
X357997023Y-102860714D01*
X358044642Y-102670238D01*
X358139880Y-102575000D01*
X358235119Y-102527380D01*
X358949404Y-102527380D02*
X359520833Y-102527380D01*
X359235119Y-103527380D02*
X359235119Y-102527380D01*
X359854166Y-103527380D02*
X359854166Y-102527380D01*
X359854166Y-103003571D02*
X360425595Y-103003571D01*
X360425595Y-103527380D02*
X360425595Y-102527380D01*
X360901785Y-103003571D02*
X361235119Y-103003571D01*
X361377976Y-103527380D02*
X360901785Y-103527380D01*
X360901785Y-102527380D01*
X361377976Y-102527380D01*
X362377976Y-103527380D02*
X362044642Y-103051190D01*
X361806547Y-103527380D02*
X361806547Y-102527380D01*
X362187500Y-102527380D01*
X362282738Y-102575000D01*
X362330357Y-102622619D01*
X362377976Y-102717857D01*
X362377976Y-102860714D01*
X362330357Y-102955952D01*
X362282738Y-103003571D01*
X362187500Y-103051190D01*
X361806547Y-103051190D01*
X362711309Y-102527380D02*
X362949404Y-103527380D01*
X363139880Y-102813095D01*
X363330357Y-103527380D01*
X363568452Y-102527380D01*
X363949404Y-103527380D02*
X363949404Y-102527380D01*
X364377976Y-103479761D02*
X364520833Y-103527380D01*
X364758928Y-103527380D01*
X364854166Y-103479761D01*
X364901785Y-103432142D01*
X364949404Y-103336904D01*
X364949404Y-103241666D01*
X364901785Y-103146428D01*
X364854166Y-103098809D01*
X364758928Y-103051190D01*
X364568452Y-103003571D01*
X364473214Y-102955952D01*
X364425595Y-102908333D01*
X364377976Y-102813095D01*
X364377976Y-102717857D01*
X364425595Y-102622619D01*
X364473214Y-102575000D01*
X364568452Y-102527380D01*
X364806547Y-102527380D01*
X364949404Y-102575000D01*
X365377976Y-103003571D02*
X365711309Y-103003571D01*
X365854166Y-103527380D02*
X365377976Y-103527380D01*
X365377976Y-102527380D01*
X365854166Y-102527380D01*
X366997023Y-103479761D02*
X367139880Y-103527380D01*
X367377976Y-103527380D01*
X367473214Y-103479761D01*
X367520833Y-103432142D01*
X367568452Y-103336904D01*
X367568452Y-103241666D01*
X367520833Y-103146428D01*
X367473214Y-103098809D01*
X367377976Y-103051190D01*
X367187500Y-103003571D01*
X367092261Y-102955952D01*
X367044642Y-102908333D01*
X366997023Y-102813095D01*
X366997023Y-102717857D01*
X367044642Y-102622619D01*
X367092261Y-102575000D01*
X367187500Y-102527380D01*
X367425595Y-102527380D01*
X367568452Y-102575000D01*
X367997023Y-103527380D02*
X367997023Y-102527380D01*
X368377976Y-102527380D01*
X368473214Y-102575000D01*
X368520833Y-102622619D01*
X368568452Y-102717857D01*
X368568452Y-102860714D01*
X368520833Y-102955952D01*
X368473214Y-103003571D01*
X368377976Y-103051190D01*
X367997023Y-103051190D01*
X368997023Y-103003571D02*
X369330357Y-103003571D01*
X369473214Y-103527380D02*
X368997023Y-103527380D01*
X368997023Y-102527380D01*
X369473214Y-102527380D01*
X370473214Y-103432142D02*
X370425595Y-103479761D01*
X370282738Y-103527380D01*
X370187500Y-103527380D01*
X370044642Y-103479761D01*
X369949404Y-103384523D01*
X369901785Y-103289285D01*
X369854166Y-103098809D01*
X369854166Y-102955952D01*
X369901785Y-102765476D01*
X369949404Y-102670238D01*
X370044642Y-102575000D01*
X370187500Y-102527380D01*
X370282738Y-102527380D01*
X370425595Y-102575000D01*
X370473214Y-102622619D01*
X370901785Y-103527380D02*
X370901785Y-102527380D01*
X371711309Y-103003571D02*
X371377976Y-103003571D01*
X371377976Y-103527380D02*
X371377976Y-102527380D01*
X371854166Y-102527380D01*
X372235119Y-103527380D02*
X372235119Y-102527380D01*
X372711309Y-103003571D02*
X373044642Y-103003571D01*
X373187500Y-103527380D02*
X372711309Y-103527380D01*
X372711309Y-102527380D01*
X373187500Y-102527380D01*
X373616071Y-103527380D02*
X373616071Y-102527380D01*
X373854166Y-102527380D01*
X373997023Y-102575000D01*
X374092261Y-102670238D01*
X374139880Y-102765476D01*
X374187500Y-102955952D01*
X374187500Y-103098809D01*
X374139880Y-103289285D01*
X374092261Y-103384523D01*
X373997023Y-103479761D01*
X373854166Y-103527380D01*
X373616071Y-103527380D01*
X374520833Y-103908333D02*
X374568452Y-103860714D01*
X374663690Y-103717857D01*
X374711309Y-103622619D01*
X374758928Y-103479761D01*
X374806547Y-103241666D01*
X374806547Y-103051190D01*
X374758928Y-102813095D01*
X374711309Y-102670238D01*
X374663690Y-102575000D01*
X374568452Y-102432142D01*
X374520833Y-102384523D01*
X345949404Y-105137380D02*
X345377976Y-105137380D01*
X345663690Y-105137380D02*
X345663690Y-104137380D01*
X345568452Y-104280238D01*
X345473214Y-104375476D01*
X345377976Y-104423095D01*
X346377976Y-105042142D02*
X346425595Y-105089761D01*
X346377976Y-105137380D01*
X346330357Y-105089761D01*
X346377976Y-105042142D01*
X346377976Y-105137380D01*
X347949404Y-104613571D02*
X347616071Y-104613571D01*
X347616071Y-105137380D02*
X347616071Y-104137380D01*
X348092261Y-104137380D01*
X348425595Y-104851666D02*
X348901785Y-104851666D01*
X348330357Y-105137380D02*
X348663690Y-104137380D01*
X348997023Y-105137380D01*
X349663690Y-104613571D02*
X349806547Y-104661190D01*
X349854166Y-104708809D01*
X349901785Y-104804047D01*
X349901785Y-104946904D01*
X349854166Y-105042142D01*
X349806547Y-105089761D01*
X349711309Y-105137380D01*
X349330357Y-105137380D01*
X349330357Y-104137380D01*
X349663690Y-104137380D01*
X349758928Y-104185000D01*
X349806547Y-104232619D01*
X349854166Y-104327857D01*
X349854166Y-104423095D01*
X349806547Y-104518333D01*
X349758928Y-104565952D01*
X349663690Y-104613571D01*
X349330357Y-104613571D01*
X350901785Y-105137380D02*
X350568452Y-104661190D01*
X350330357Y-105137380D02*
X350330357Y-104137380D01*
X350711309Y-104137380D01*
X350806547Y-104185000D01*
X350854166Y-104232619D01*
X350901785Y-104327857D01*
X350901785Y-104470714D01*
X350854166Y-104565952D01*
X350806547Y-104613571D01*
X350711309Y-104661190D01*
X350330357Y-104661190D01*
X351330357Y-105137380D02*
X351330357Y-104137380D01*
X352377976Y-105042142D02*
X352330357Y-105089761D01*
X352187500Y-105137380D01*
X352092261Y-105137380D01*
X351949404Y-105089761D01*
X351854166Y-104994523D01*
X351806547Y-104899285D01*
X351758928Y-104708809D01*
X351758928Y-104565952D01*
X351806547Y-104375476D01*
X351854166Y-104280238D01*
X351949404Y-104185000D01*
X352092261Y-104137380D01*
X352187500Y-104137380D01*
X352330357Y-104185000D01*
X352377976Y-104232619D01*
X352758928Y-104851666D02*
X353235119Y-104851666D01*
X352663690Y-105137380D02*
X352997023Y-104137380D01*
X353330357Y-105137380D01*
X353520833Y-104137380D02*
X354092261Y-104137380D01*
X353806547Y-105137380D02*
X353806547Y-104137380D01*
X354425595Y-104613571D02*
X354758928Y-104613571D01*
X354901785Y-105137380D02*
X354425595Y-105137380D01*
X354425595Y-104137380D01*
X354901785Y-104137380D01*
X356092261Y-105137380D02*
X356092261Y-104137380D01*
X356473214Y-104137380D01*
X356568452Y-104185000D01*
X356616071Y-104232619D01*
X356663690Y-104327857D01*
X356663690Y-104470714D01*
X356616071Y-104565952D01*
X356568452Y-104613571D01*
X356473214Y-104661190D01*
X356092261Y-104661190D01*
X357092261Y-104613571D02*
X357425595Y-104613571D01*
X357568452Y-105137380D02*
X357092261Y-105137380D01*
X357092261Y-104137380D01*
X357568452Y-104137380D01*
X358568452Y-105137380D02*
X358235119Y-104661190D01*
X357997023Y-105137380D02*
X357997023Y-104137380D01*
X358377976Y-104137380D01*
X358473214Y-104185000D01*
X358520833Y-104232619D01*
X358568452Y-104327857D01*
X358568452Y-104470714D01*
X358520833Y-104565952D01*
X358473214Y-104613571D01*
X358377976Y-104661190D01*
X357997023Y-104661190D01*
X359758928Y-105137380D02*
X359758928Y-104137380D01*
X360235119Y-105137380D02*
X360235119Y-104137380D01*
X360616071Y-104137380D01*
X360711309Y-104185000D01*
X360758928Y-104232619D01*
X360806547Y-104327857D01*
X360806547Y-104470714D01*
X360758928Y-104565952D01*
X360711309Y-104613571D01*
X360616071Y-104661190D01*
X360235119Y-104661190D01*
X361806547Y-105042142D02*
X361758928Y-105089761D01*
X361616071Y-105137380D01*
X361520833Y-105137380D01*
X361377976Y-105089761D01*
X361282738Y-104994523D01*
X361235119Y-104899285D01*
X361187500Y-104708809D01*
X361187500Y-104565952D01*
X361235119Y-104375476D01*
X361282738Y-104280238D01*
X361377976Y-104185000D01*
X361520833Y-104137380D01*
X361616071Y-104137380D01*
X361758928Y-104185000D01*
X361806547Y-104232619D01*
X362235119Y-104756428D02*
X362997023Y-104756428D01*
X363425595Y-104851666D02*
X363901785Y-104851666D01*
X363330357Y-105137380D02*
X363663690Y-104137380D01*
X363997023Y-105137380D01*
X364330357Y-104756428D02*
X365092261Y-104756428D01*
X365997023Y-104137380D02*
X365806547Y-104137380D01*
X365711309Y-104185000D01*
X365663690Y-104232619D01*
X365568452Y-104375476D01*
X365520833Y-104565952D01*
X365520833Y-104946904D01*
X365568452Y-105042142D01*
X365616071Y-105089761D01*
X365711309Y-105137380D01*
X365901785Y-105137380D01*
X365997023Y-105089761D01*
X366044642Y-105042142D01*
X366092261Y-104946904D01*
X366092261Y-104708809D01*
X366044642Y-104613571D01*
X365997023Y-104565952D01*
X365901785Y-104518333D01*
X365711309Y-104518333D01*
X365616071Y-104565952D01*
X365568452Y-104613571D01*
X365520833Y-104708809D01*
X366711309Y-104137380D02*
X366806547Y-104137380D01*
X366901785Y-104185000D01*
X366949404Y-104232619D01*
X366997023Y-104327857D01*
X367044642Y-104518333D01*
X367044642Y-104756428D01*
X366997023Y-104946904D01*
X366949404Y-105042142D01*
X366901785Y-105089761D01*
X366806547Y-105137380D01*
X366711309Y-105137380D01*
X366616071Y-105089761D01*
X366568452Y-105042142D01*
X366520833Y-104946904D01*
X366473214Y-104756428D01*
X366473214Y-104518333D01*
X366520833Y-104327857D01*
X366568452Y-104232619D01*
X366616071Y-104185000D01*
X366711309Y-104137380D01*
X367663690Y-104137380D02*
X367758928Y-104137380D01*
X367854166Y-104185000D01*
X367901785Y-104232619D01*
X367949404Y-104327857D01*
X367997023Y-104518333D01*
X367997023Y-104756428D01*
X367949404Y-104946904D01*
X367901785Y-105042142D01*
X367854166Y-105089761D01*
X367758928Y-105137380D01*
X367663690Y-105137380D01*
X367568452Y-105089761D01*
X367520833Y-105042142D01*
X367473214Y-104946904D01*
X367425595Y-104756428D01*
X367425595Y-104518333D01*
X367473214Y-104327857D01*
X367520833Y-104232619D01*
X367568452Y-104185000D01*
X367663690Y-104137380D01*
X368901785Y-105137380D02*
X368425595Y-105137380D01*
X368425595Y-104137380D01*
X369282738Y-105089761D02*
X369282738Y-105137380D01*
X369235119Y-105232619D01*
X369187500Y-105280238D01*
X371044642Y-105042142D02*
X370997023Y-105089761D01*
X370854166Y-105137380D01*
X370758928Y-105137380D01*
X370616071Y-105089761D01*
X370520833Y-104994523D01*
X370473214Y-104899285D01*
X370425595Y-104708809D01*
X370425595Y-104565952D01*
X370473214Y-104375476D01*
X370520833Y-104280238D01*
X370616071Y-104185000D01*
X370758928Y-104137380D01*
X370854166Y-104137380D01*
X370997023Y-104185000D01*
X371044642Y-104232619D01*
X371949404Y-105137380D02*
X371473214Y-105137380D01*
X371473214Y-104137380D01*
X372235119Y-104851666D02*
X372711309Y-104851666D01*
X372139880Y-105137380D02*
X372473214Y-104137380D01*
X372806547Y-105137380D01*
X373092261Y-105089761D02*
X373235119Y-105137380D01*
X373473214Y-105137380D01*
X373568452Y-105089761D01*
X373616071Y-105042142D01*
X373663690Y-104946904D01*
X373663690Y-104851666D01*
X373616071Y-104756428D01*
X373568452Y-104708809D01*
X373473214Y-104661190D01*
X373282738Y-104613571D01*
X373187500Y-104565952D01*
X373139880Y-104518333D01*
X373092261Y-104423095D01*
X373092261Y-104327857D01*
X373139880Y-104232619D01*
X373187500Y-104185000D01*
X373282738Y-104137380D01*
X373520833Y-104137380D01*
X373663690Y-104185000D01*
X374044642Y-105089761D02*
X374187500Y-105137380D01*
X374425595Y-105137380D01*
X374520833Y-105089761D01*
X374568452Y-105042142D01*
X374616071Y-104946904D01*
X374616071Y-104851666D01*
X374568452Y-104756428D01*
X374520833Y-104708809D01*
X374425595Y-104661190D01*
X374235119Y-104613571D01*
X374139880Y-104565952D01*
X374092261Y-104518333D01*
X374044642Y-104423095D01*
X374044642Y-104327857D01*
X374092261Y-104232619D01*
X374139880Y-104185000D01*
X374235119Y-104137380D01*
X374473214Y-104137380D01*
X374616071Y-104185000D01*
X375758928Y-104232619D02*
X375806547Y-104185000D01*
X375901785Y-104137380D01*
X376139880Y-104137380D01*
X376235119Y-104185000D01*
X376282738Y-104232619D01*
X376330357Y-104327857D01*
X376330357Y-104423095D01*
X376282738Y-104565952D01*
X375711309Y-105137380D01*
X376330357Y-105137380D01*
X376758928Y-105042142D02*
X376806547Y-105089761D01*
X376758928Y-105137380D01*
X376711309Y-105089761D01*
X376758928Y-105042142D01*
X376758928Y-105137380D01*
X345377976Y-105842619D02*
X345425595Y-105795000D01*
X345520833Y-105747380D01*
X345758928Y-105747380D01*
X345854166Y-105795000D01*
X345901785Y-105842619D01*
X345949404Y-105937857D01*
X345949404Y-106033095D01*
X345901785Y-106175952D01*
X345330357Y-106747380D01*
X345949404Y-106747380D01*
X346377976Y-106652142D02*
X346425595Y-106699761D01*
X346377976Y-106747380D01*
X346330357Y-106699761D01*
X346377976Y-106652142D01*
X346377976Y-106747380D01*
X347616071Y-106747380D02*
X347616071Y-105747380D01*
X347949404Y-106461666D01*
X348282738Y-105747380D01*
X348282738Y-106747380D01*
X348711309Y-106461666D02*
X349187500Y-106461666D01*
X348616071Y-106747380D02*
X348949404Y-105747380D01*
X349282738Y-106747380D01*
X349473214Y-105747380D02*
X350044642Y-105747380D01*
X349758928Y-106747380D02*
X349758928Y-105747380D01*
X350377976Y-106223571D02*
X350711309Y-106223571D01*
X350854166Y-106747380D02*
X350377976Y-106747380D01*
X350377976Y-105747380D01*
X350854166Y-105747380D01*
X351854166Y-106747380D02*
X351520833Y-106271190D01*
X351282738Y-106747380D02*
X351282738Y-105747380D01*
X351663690Y-105747380D01*
X351758928Y-105795000D01*
X351806547Y-105842619D01*
X351854166Y-105937857D01*
X351854166Y-106080714D01*
X351806547Y-106175952D01*
X351758928Y-106223571D01*
X351663690Y-106271190D01*
X351282738Y-106271190D01*
X352282738Y-106747380D02*
X352282738Y-105747380D01*
X352711309Y-106461666D02*
X353187500Y-106461666D01*
X352616071Y-106747380D02*
X352949404Y-105747380D01*
X353282738Y-106747380D01*
X354092261Y-106747380D02*
X353616071Y-106747380D01*
X353616071Y-105747380D01*
X354425595Y-106652142D02*
X354473214Y-106699761D01*
X354425595Y-106747380D01*
X354377976Y-106699761D01*
X354425595Y-106652142D01*
X354425595Y-106747380D01*
X354425595Y-106128333D02*
X354473214Y-106175952D01*
X354425595Y-106223571D01*
X354377976Y-106175952D01*
X354425595Y-106128333D01*
X354425595Y-106223571D01*
X348997023Y-108357380D02*
X348425595Y-108357380D01*
X348711309Y-108357380D02*
X348711309Y-107357380D01*
X348616071Y-107500238D01*
X348520833Y-107595476D01*
X348425595Y-107643095D01*
X350377976Y-107357380D02*
X350568452Y-107357380D01*
X350663690Y-107405000D01*
X350758928Y-107500238D01*
X350806547Y-107690714D01*
X350806547Y-108024047D01*
X350758928Y-108214523D01*
X350663690Y-108309761D01*
X350568452Y-108357380D01*
X350377976Y-108357380D01*
X350282738Y-108309761D01*
X350187500Y-108214523D01*
X350139880Y-108024047D01*
X350139880Y-107690714D01*
X350187500Y-107500238D01*
X350282738Y-107405000D01*
X350377976Y-107357380D01*
X351139880Y-107357380D02*
X351806547Y-107357380D01*
X351139880Y-108357380D01*
X351806547Y-108357380D01*
X352187500Y-108262142D02*
X352235119Y-108309761D01*
X352187500Y-108357380D01*
X352139880Y-108309761D01*
X352187500Y-108262142D01*
X352187500Y-108357380D01*
X353997023Y-108262142D02*
X353949404Y-108309761D01*
X353806547Y-108357380D01*
X353711309Y-108357380D01*
X353568452Y-108309761D01*
X353473214Y-108214523D01*
X353425595Y-108119285D01*
X353377976Y-107928809D01*
X353377976Y-107785952D01*
X353425595Y-107595476D01*
X353473214Y-107500238D01*
X353568452Y-107405000D01*
X353711309Y-107357380D01*
X353806547Y-107357380D01*
X353949404Y-107405000D01*
X353997023Y-107452619D01*
X354425595Y-107357380D02*
X354425595Y-108166904D01*
X354473214Y-108262142D01*
X354520833Y-108309761D01*
X354616071Y-108357380D01*
X354806547Y-108357380D01*
X354901785Y-108309761D01*
X354949404Y-108262142D01*
X354997023Y-108166904D01*
X354997023Y-107357380D01*
X356235119Y-107833571D02*
X356568452Y-107833571D01*
X356711309Y-108357380D02*
X356235119Y-108357380D01*
X356235119Y-107357380D01*
X356711309Y-107357380D01*
X357044642Y-107357380D02*
X357711309Y-108357380D01*
X357711309Y-107357380D02*
X357044642Y-108357380D01*
X357949404Y-107357380D02*
X358520833Y-107357380D01*
X358235119Y-108357380D02*
X358235119Y-107357380D01*
X358854166Y-107833571D02*
X359187500Y-107833571D01*
X359330357Y-108357380D02*
X358854166Y-108357380D01*
X358854166Y-107357380D01*
X359330357Y-107357380D01*
X360330357Y-108357380D02*
X359997023Y-107881190D01*
X359758928Y-108357380D02*
X359758928Y-107357380D01*
X360139880Y-107357380D01*
X360235119Y-107405000D01*
X360282738Y-107452619D01*
X360330357Y-107547857D01*
X360330357Y-107690714D01*
X360282738Y-107785952D01*
X360235119Y-107833571D01*
X360139880Y-107881190D01*
X359758928Y-107881190D01*
X360758928Y-108357380D02*
X360758928Y-107357380D01*
X361330357Y-108357380D01*
X361330357Y-107357380D01*
X361758928Y-108071666D02*
X362235119Y-108071666D01*
X361663690Y-108357380D02*
X361997023Y-107357380D01*
X362330357Y-108357380D01*
X363139880Y-108357380D02*
X362663690Y-108357380D01*
X362663690Y-107357380D01*
X348806547Y-109443571D02*
X348949404Y-109491190D01*
X348997023Y-109538809D01*
X349044642Y-109634047D01*
X349044642Y-109776904D01*
X348997023Y-109872142D01*
X348949404Y-109919761D01*
X348854166Y-109967380D01*
X348473214Y-109967380D01*
X348473214Y-108967380D01*
X348806547Y-108967380D01*
X348901785Y-109015000D01*
X348949404Y-109062619D01*
X348997023Y-109157857D01*
X348997023Y-109253095D01*
X348949404Y-109348333D01*
X348901785Y-109395952D01*
X348806547Y-109443571D01*
X348473214Y-109443571D01*
X349425595Y-109681666D02*
X349901785Y-109681666D01*
X349330357Y-109967380D02*
X349663690Y-108967380D01*
X349997023Y-109967380D01*
X350282738Y-109919761D02*
X350425595Y-109967380D01*
X350663690Y-109967380D01*
X350758928Y-109919761D01*
X350806547Y-109872142D01*
X350854166Y-109776904D01*
X350854166Y-109681666D01*
X350806547Y-109586428D01*
X350758928Y-109538809D01*
X350663690Y-109491190D01*
X350473214Y-109443571D01*
X350377976Y-109395952D01*
X350330357Y-109348333D01*
X350282738Y-109253095D01*
X350282738Y-109157857D01*
X350330357Y-109062619D01*
X350377976Y-109015000D01*
X350473214Y-108967380D01*
X350711309Y-108967380D01*
X350854166Y-109015000D01*
X351282738Y-109443571D02*
X351616071Y-109443571D01*
X351758928Y-109967380D02*
X351282738Y-109967380D01*
X351282738Y-108967380D01*
X351758928Y-108967380D01*
X353425595Y-109967380D02*
X352949404Y-109967380D01*
X352949404Y-108967380D01*
X353711309Y-109681666D02*
X354187500Y-109681666D01*
X353616071Y-109967380D02*
X353949404Y-108967380D01*
X354282738Y-109967380D01*
X354616071Y-109967380D02*
X354616071Y-108967380D01*
X354949404Y-109681666D01*
X355282738Y-108967380D01*
X355282738Y-109967380D01*
X355758928Y-109967380D02*
X355758928Y-108967380D01*
X356235119Y-109967380D02*
X356235119Y-108967380D01*
X356806547Y-109967380D01*
X356806547Y-108967380D01*
X357235119Y-109681666D02*
X357711309Y-109681666D01*
X357139880Y-109967380D02*
X357473214Y-108967380D01*
X357806547Y-109967380D01*
X357997023Y-108967380D02*
X358568452Y-108967380D01*
X358282738Y-109967380D02*
X358282738Y-108967380D01*
X358901785Y-109443571D02*
X359235119Y-109443571D01*
X359377976Y-109967380D02*
X358901785Y-109967380D01*
X358901785Y-108967380D01*
X359377976Y-108967380D01*
X360901785Y-109443571D02*
X360568452Y-109443571D01*
X360568452Y-109967380D02*
X360568452Y-108967380D01*
X361044642Y-108967380D01*
X361997023Y-109967380D02*
X361663690Y-109491190D01*
X361425595Y-109967380D02*
X361425595Y-108967380D01*
X361806547Y-108967380D01*
X361901785Y-109015000D01*
X361949404Y-109062619D01*
X361997023Y-109157857D01*
X361997023Y-109300714D01*
X361949404Y-109395952D01*
X361901785Y-109443571D01*
X361806547Y-109491190D01*
X361425595Y-109491190D01*
X362854166Y-109300714D02*
X362854166Y-109967380D01*
X362616071Y-108919761D02*
X362377976Y-109634047D01*
X362997023Y-109634047D01*
X345330357Y-110577380D02*
X345949404Y-110577380D01*
X345616071Y-110958333D01*
X345758928Y-110958333D01*
X345854166Y-111005952D01*
X345901785Y-111053571D01*
X345949404Y-111148809D01*
X345949404Y-111386904D01*
X345901785Y-111482142D01*
X345854166Y-111529761D01*
X345758928Y-111577380D01*
X345473214Y-111577380D01*
X345377976Y-111529761D01*
X345330357Y-111482142D01*
X346377976Y-111482142D02*
X346425595Y-111529761D01*
X346377976Y-111577380D01*
X346330357Y-111529761D01*
X346377976Y-111482142D01*
X346377976Y-111577380D01*
X347473214Y-110577380D02*
X348044642Y-110577380D01*
X347758928Y-111577380D02*
X347758928Y-110577380D01*
X348568452Y-110577380D02*
X348758928Y-110577380D01*
X348854166Y-110625000D01*
X348949404Y-110720238D01*
X348997023Y-110910714D01*
X348997023Y-111244047D01*
X348949404Y-111434523D01*
X348854166Y-111529761D01*
X348758928Y-111577380D01*
X348568452Y-111577380D01*
X348473214Y-111529761D01*
X348377976Y-111434523D01*
X348330357Y-111244047D01*
X348330357Y-110910714D01*
X348377976Y-110720238D01*
X348473214Y-110625000D01*
X348568452Y-110577380D01*
X349282738Y-110577380D02*
X349854166Y-110577380D01*
X349568452Y-111577380D02*
X349568452Y-110577380D01*
X350139880Y-111291666D02*
X350616071Y-111291666D01*
X350044642Y-111577380D02*
X350377976Y-110577380D01*
X350711309Y-111577380D01*
X351520833Y-111577380D02*
X351044642Y-111577380D01*
X351044642Y-110577380D01*
X352473214Y-110577380D02*
X353044642Y-110577380D01*
X352758928Y-111577380D02*
X352758928Y-110577380D01*
X353377976Y-111577380D02*
X353377976Y-110577380D01*
X353377976Y-111053571D02*
X353949404Y-111053571D01*
X353949404Y-111577380D02*
X353949404Y-110577380D01*
X354425595Y-111577380D02*
X354425595Y-110577380D01*
X355473214Y-111482142D02*
X355425595Y-111529761D01*
X355282738Y-111577380D01*
X355187500Y-111577380D01*
X355044642Y-111529761D01*
X354949404Y-111434523D01*
X354901785Y-111339285D01*
X354854166Y-111148809D01*
X354854166Y-111005952D01*
X354901785Y-110815476D01*
X354949404Y-110720238D01*
X355044642Y-110625000D01*
X355187500Y-110577380D01*
X355282738Y-110577380D01*
X355425595Y-110625000D01*
X355473214Y-110672619D01*
X355901785Y-111577380D02*
X355901785Y-110577380D01*
X356473214Y-111577380D02*
X356044642Y-111005952D01*
X356473214Y-110577380D02*
X355901785Y-111148809D01*
X356901785Y-111577380D02*
X356901785Y-110577380D01*
X357473214Y-111577380D01*
X357473214Y-110577380D01*
X357949404Y-111053571D02*
X358282738Y-111053571D01*
X358425595Y-111577380D02*
X357949404Y-111577380D01*
X357949404Y-110577380D01*
X358425595Y-110577380D01*
X358806547Y-111529761D02*
X358949404Y-111577380D01*
X359187500Y-111577380D01*
X359282738Y-111529761D01*
X359330357Y-111482142D01*
X359377976Y-111386904D01*
X359377976Y-111291666D01*
X359330357Y-111196428D01*
X359282738Y-111148809D01*
X359187500Y-111101190D01*
X358997023Y-111053571D01*
X358901785Y-111005952D01*
X358854166Y-110958333D01*
X358806547Y-110863095D01*
X358806547Y-110767857D01*
X358854166Y-110672619D01*
X358901785Y-110625000D01*
X358997023Y-110577380D01*
X359235119Y-110577380D01*
X359377976Y-110625000D01*
X359758928Y-111529761D02*
X359901785Y-111577380D01*
X360139880Y-111577380D01*
X360235119Y-111529761D01*
X360282738Y-111482142D01*
X360330357Y-111386904D01*
X360330357Y-111291666D01*
X360282738Y-111196428D01*
X360235119Y-111148809D01*
X360139880Y-111101190D01*
X359949404Y-111053571D01*
X359854166Y-111005952D01*
X359806547Y-110958333D01*
X359758928Y-110863095D01*
X359758928Y-110767857D01*
X359806547Y-110672619D01*
X359854166Y-110625000D01*
X359949404Y-110577380D01*
X360187500Y-110577380D01*
X360330357Y-110625000D01*
X361711309Y-110577380D02*
X361901785Y-110577380D01*
X361997023Y-110625000D01*
X362092261Y-110720238D01*
X362139880Y-110910714D01*
X362139880Y-111244047D01*
X362092261Y-111434523D01*
X361997023Y-111529761D01*
X361901785Y-111577380D01*
X361711309Y-111577380D01*
X361616071Y-111529761D01*
X361520833Y-111434523D01*
X361473214Y-111244047D01*
X361473214Y-110910714D01*
X361520833Y-110720238D01*
X361616071Y-110625000D01*
X361711309Y-110577380D01*
X362901785Y-111053571D02*
X362568452Y-111053571D01*
X362568452Y-111577380D02*
X362568452Y-110577380D01*
X363044642Y-110577380D01*
X364187500Y-111577380D02*
X364187500Y-110577380D01*
X364568452Y-110577380D01*
X364663690Y-110625000D01*
X364711309Y-110672619D01*
X364758928Y-110767857D01*
X364758928Y-110910714D01*
X364711309Y-111005952D01*
X364663690Y-111053571D01*
X364568452Y-111101190D01*
X364187500Y-111101190D01*
X365758928Y-111482142D02*
X365711309Y-111529761D01*
X365568452Y-111577380D01*
X365473214Y-111577380D01*
X365330357Y-111529761D01*
X365235119Y-111434523D01*
X365187500Y-111339285D01*
X365139880Y-111148809D01*
X365139880Y-111005952D01*
X365187500Y-110815476D01*
X365235119Y-110720238D01*
X365330357Y-110625000D01*
X365473214Y-110577380D01*
X365568452Y-110577380D01*
X365711309Y-110625000D01*
X365758928Y-110672619D01*
X366520833Y-111053571D02*
X366663690Y-111101190D01*
X366711309Y-111148809D01*
X366758928Y-111244047D01*
X366758928Y-111386904D01*
X366711309Y-111482142D01*
X366663690Y-111529761D01*
X366568452Y-111577380D01*
X366187500Y-111577380D01*
X366187500Y-110577380D01*
X366520833Y-110577380D01*
X366616071Y-110625000D01*
X366663690Y-110672619D01*
X366711309Y-110767857D01*
X366711309Y-110863095D01*
X366663690Y-110958333D01*
X366616071Y-111005952D01*
X366520833Y-111053571D01*
X366187500Y-111053571D01*
X367901785Y-111291666D02*
X368377976Y-111291666D01*
X367806547Y-111577380D02*
X368139880Y-110577380D01*
X368473214Y-111577380D01*
X369139880Y-111053571D02*
X368806547Y-111053571D01*
X368806547Y-111577380D02*
X368806547Y-110577380D01*
X369282738Y-110577380D01*
X369520833Y-110577380D02*
X370092261Y-110577380D01*
X369806547Y-111577380D02*
X369806547Y-110577380D01*
X370425595Y-111053571D02*
X370758928Y-111053571D01*
X370901785Y-111577380D02*
X370425595Y-111577380D01*
X370425595Y-110577380D01*
X370901785Y-110577380D01*
X371901785Y-111577380D02*
X371568452Y-111101190D01*
X371330357Y-111577380D02*
X371330357Y-110577380D01*
X371711309Y-110577380D01*
X371806547Y-110625000D01*
X371854166Y-110672619D01*
X371901785Y-110767857D01*
X371901785Y-110910714D01*
X371854166Y-111005952D01*
X371806547Y-111053571D01*
X371711309Y-111101190D01*
X371330357Y-111101190D01*
X373092261Y-111577380D02*
X373092261Y-110577380D01*
X373473214Y-110577380D01*
X373568452Y-110625000D01*
X373616071Y-110672619D01*
X373663690Y-110767857D01*
X373663690Y-110910714D01*
X373616071Y-111005952D01*
X373568452Y-111053571D01*
X373473214Y-111101190D01*
X373092261Y-111101190D01*
X374568452Y-111577380D02*
X374092261Y-111577380D01*
X374092261Y-110577380D01*
X374854166Y-111291666D02*
X375330357Y-111291666D01*
X374758928Y-111577380D02*
X375092261Y-110577380D01*
X375425595Y-111577380D01*
X375616071Y-110577380D02*
X376187500Y-110577380D01*
X375901785Y-111577380D02*
X375901785Y-110577380D01*
X376520833Y-111577380D02*
X376520833Y-110577380D01*
X376997023Y-111577380D02*
X376997023Y-110577380D01*
X377568452Y-111577380D01*
X377568452Y-110577380D01*
X378568452Y-110625000D02*
X378473214Y-110577380D01*
X378330357Y-110577380D01*
X378187500Y-110625000D01*
X378092261Y-110720238D01*
X378044642Y-110815476D01*
X377997023Y-111005952D01*
X377997023Y-111148809D01*
X378044642Y-111339285D01*
X378092261Y-111434523D01*
X378187500Y-111529761D01*
X378330357Y-111577380D01*
X378425595Y-111577380D01*
X378568452Y-111529761D01*
X378616071Y-111482142D01*
X378616071Y-111148809D01*
X378425595Y-111148809D01*
X345377976Y-113139761D02*
X345520833Y-113187380D01*
X345758928Y-113187380D01*
X345854166Y-113139761D01*
X345901785Y-113092142D01*
X345949404Y-112996904D01*
X345949404Y-112901666D01*
X345901785Y-112806428D01*
X345854166Y-112758809D01*
X345758928Y-112711190D01*
X345568452Y-112663571D01*
X345473214Y-112615952D01*
X345425595Y-112568333D01*
X345377976Y-112473095D01*
X345377976Y-112377857D01*
X345425595Y-112282619D01*
X345473214Y-112235000D01*
X345568452Y-112187380D01*
X345806547Y-112187380D01*
X345949404Y-112235000D01*
X346377976Y-113187380D02*
X346377976Y-112187380D01*
X346377976Y-112663571D02*
X346949404Y-112663571D01*
X346949404Y-113187380D02*
X346949404Y-112187380D01*
X347377976Y-112901666D02*
X347854166Y-112901666D01*
X347282738Y-113187380D02*
X347616071Y-112187380D01*
X347949404Y-113187380D01*
X348758928Y-113187380D02*
X348282738Y-113187380D01*
X348282738Y-112187380D01*
X349568452Y-113187380D02*
X349092261Y-113187380D01*
X349092261Y-112187380D01*
X350997023Y-112663571D02*
X351139880Y-112711190D01*
X351187500Y-112758809D01*
X351235119Y-112854047D01*
X351235119Y-112996904D01*
X351187500Y-113092142D01*
X351139880Y-113139761D01*
X351044642Y-113187380D01*
X350663690Y-113187380D01*
X350663690Y-112187380D01*
X350997023Y-112187380D01*
X351092261Y-112235000D01*
X351139880Y-112282619D01*
X351187500Y-112377857D01*
X351187500Y-112473095D01*
X351139880Y-112568333D01*
X351092261Y-112615952D01*
X350997023Y-112663571D01*
X350663690Y-112663571D01*
X351663690Y-112663571D02*
X351997023Y-112663571D01*
X352139880Y-113187380D02*
X351663690Y-113187380D01*
X351663690Y-112187380D01*
X352139880Y-112187380D01*
X353854166Y-113187380D02*
X353282738Y-113187380D01*
X353568452Y-113187380D02*
X353568452Y-112187380D01*
X353473214Y-112330238D01*
X353377976Y-112425476D01*
X353282738Y-112473095D01*
X354282738Y-113092142D02*
X354330357Y-113139761D01*
X354282738Y-113187380D01*
X354235119Y-113139761D01*
X354282738Y-113092142D01*
X354282738Y-113187380D01*
X355187500Y-112187380D02*
X354997023Y-112187380D01*
X354901785Y-112235000D01*
X354854166Y-112282619D01*
X354758928Y-112425476D01*
X354711309Y-112615952D01*
X354711309Y-112996904D01*
X354758928Y-113092142D01*
X354806547Y-113139761D01*
X354901785Y-113187380D01*
X355092261Y-113187380D01*
X355187500Y-113139761D01*
X355235119Y-113092142D01*
X355282738Y-112996904D01*
X355282738Y-112758809D01*
X355235119Y-112663571D01*
X355187500Y-112615952D01*
X355092261Y-112568333D01*
X354901785Y-112568333D01*
X354806547Y-112615952D01*
X354758928Y-112663571D01*
X354711309Y-112758809D01*
X356473214Y-112806428D02*
X357235119Y-112806428D01*
X356854166Y-113187380D02*
X356854166Y-112425476D01*
X358425595Y-112139761D02*
X357568452Y-113425476D01*
X358758928Y-112806428D02*
X359520833Y-112806428D01*
X360949404Y-112187380D02*
X361044642Y-112187380D01*
X361139880Y-112235000D01*
X361187500Y-112282619D01*
X361235119Y-112377857D01*
X361282738Y-112568333D01*
X361282738Y-112806428D01*
X361235119Y-112996904D01*
X361187500Y-113092142D01*
X361139880Y-113139761D01*
X361044642Y-113187380D01*
X360949404Y-113187380D01*
X360854166Y-113139761D01*
X360806547Y-113092142D01*
X360758928Y-112996904D01*
X360711309Y-112806428D01*
X360711309Y-112568333D01*
X360758928Y-112377857D01*
X360806547Y-112282619D01*
X360854166Y-112235000D01*
X360949404Y-112187380D01*
X361711309Y-113092142D02*
X361758928Y-113139761D01*
X361711309Y-113187380D01*
X361663690Y-113139761D01*
X361711309Y-113092142D01*
X361711309Y-113187380D01*
X362711309Y-113187380D02*
X362139880Y-113187380D01*
X362425595Y-113187380D02*
X362425595Y-112187380D01*
X362330357Y-112330238D01*
X362235119Y-112425476D01*
X362139880Y-112473095D01*
X363616071Y-112187380D02*
X363139880Y-112187380D01*
X363092261Y-112663571D01*
X363139880Y-112615952D01*
X363235119Y-112568333D01*
X363473214Y-112568333D01*
X363568452Y-112615952D01*
X363616071Y-112663571D01*
X363663690Y-112758809D01*
X363663690Y-112996904D01*
X363616071Y-113092142D01*
X363568452Y-113139761D01*
X363473214Y-113187380D01*
X363235119Y-113187380D01*
X363139880Y-113139761D01*
X363092261Y-113092142D01*
X345854166Y-114130714D02*
X345854166Y-114797380D01*
X345616071Y-113749761D02*
X345377976Y-114464047D01*
X345997023Y-114464047D01*
X347092261Y-114749761D02*
X347235119Y-114797380D01*
X347473214Y-114797380D01*
X347568452Y-114749761D01*
X347616071Y-114702142D01*
X347663690Y-114606904D01*
X347663690Y-114511666D01*
X347616071Y-114416428D01*
X347568452Y-114368809D01*
X347473214Y-114321190D01*
X347282738Y-114273571D01*
X347187500Y-114225952D01*
X347139880Y-114178333D01*
X347092261Y-114083095D01*
X347092261Y-113987857D01*
X347139880Y-113892619D01*
X347187500Y-113845000D01*
X347282738Y-113797380D01*
X347520833Y-113797380D01*
X347663690Y-113845000D01*
X348282738Y-113797380D02*
X348473214Y-113797380D01*
X348568452Y-113845000D01*
X348663690Y-113940238D01*
X348711309Y-114130714D01*
X348711309Y-114464047D01*
X348663690Y-114654523D01*
X348568452Y-114749761D01*
X348473214Y-114797380D01*
X348282738Y-114797380D01*
X348187500Y-114749761D01*
X348092261Y-114654523D01*
X348044642Y-114464047D01*
X348044642Y-114130714D01*
X348092261Y-113940238D01*
X348187500Y-113845000D01*
X348282738Y-113797380D01*
X349616071Y-114797380D02*
X349139880Y-114797380D01*
X349139880Y-113797380D01*
X349949404Y-114797380D02*
X349949404Y-113797380D01*
X350187500Y-113797380D01*
X350330357Y-113845000D01*
X350425595Y-113940238D01*
X350473214Y-114035476D01*
X350520833Y-114225952D01*
X350520833Y-114368809D01*
X350473214Y-114559285D01*
X350425595Y-114654523D01*
X350330357Y-114749761D01*
X350187500Y-114797380D01*
X349949404Y-114797380D01*
X350949404Y-114273571D02*
X351282738Y-114273571D01*
X351425595Y-114797380D02*
X350949404Y-114797380D01*
X350949404Y-113797380D01*
X351425595Y-113797380D01*
X352425595Y-114797380D02*
X352092261Y-114321190D01*
X351854166Y-114797380D02*
X351854166Y-113797380D01*
X352235119Y-113797380D01*
X352330357Y-113845000D01*
X352377976Y-113892619D01*
X352425595Y-113987857D01*
X352425595Y-114130714D01*
X352377976Y-114225952D01*
X352330357Y-114273571D01*
X352235119Y-114321190D01*
X351854166Y-114321190D01*
X352854166Y-114797380D02*
X352854166Y-113797380D01*
X353187500Y-114511666D01*
X353520833Y-113797380D01*
X353520833Y-114797380D01*
X353949404Y-114511666D02*
X354425595Y-114511666D01*
X353854166Y-114797380D02*
X354187500Y-113797380D01*
X354520833Y-114797380D01*
X354806547Y-114749761D02*
X354949404Y-114797380D01*
X355187500Y-114797380D01*
X355282738Y-114749761D01*
X355330357Y-114702142D01*
X355377976Y-114606904D01*
X355377976Y-114511666D01*
X355330357Y-114416428D01*
X355282738Y-114368809D01*
X355187500Y-114321190D01*
X354997023Y-114273571D01*
X354901785Y-114225952D01*
X354854166Y-114178333D01*
X354806547Y-114083095D01*
X354806547Y-113987857D01*
X354854166Y-113892619D01*
X354901785Y-113845000D01*
X354997023Y-113797380D01*
X355235119Y-113797380D01*
X355377976Y-113845000D01*
X355806547Y-114797380D02*
X355806547Y-113797380D01*
X356377976Y-114797380D02*
X355949404Y-114225952D01*
X356377976Y-113797380D02*
X355806547Y-114368809D01*
X357901785Y-114273571D02*
X358044642Y-114321190D01*
X358092261Y-114368809D01*
X358139880Y-114464047D01*
X358139880Y-114606904D01*
X358092261Y-114702142D01*
X358044642Y-114749761D01*
X357949404Y-114797380D01*
X357568452Y-114797380D01*
X357568452Y-113797380D01*
X357901785Y-113797380D01*
X357997023Y-113845000D01*
X358044642Y-113892619D01*
X358092261Y-113987857D01*
X358092261Y-114083095D01*
X358044642Y-114178333D01*
X357997023Y-114225952D01*
X357901785Y-114273571D01*
X357568452Y-114273571D01*
X358758928Y-113797380D02*
X358949404Y-113797380D01*
X359044642Y-113845000D01*
X359139880Y-113940238D01*
X359187500Y-114130714D01*
X359187500Y-114464047D01*
X359139880Y-114654523D01*
X359044642Y-114749761D01*
X358949404Y-114797380D01*
X358758928Y-114797380D01*
X358663690Y-114749761D01*
X358568452Y-114654523D01*
X358520833Y-114464047D01*
X358520833Y-114130714D01*
X358568452Y-113940238D01*
X358663690Y-113845000D01*
X358758928Y-113797380D01*
X359473214Y-113797380D02*
X360044642Y-113797380D01*
X359758928Y-114797380D02*
X359758928Y-113797380D01*
X360377976Y-114797380D02*
X360377976Y-113797380D01*
X360377976Y-114273571D02*
X360949404Y-114273571D01*
X360949404Y-114797380D02*
X360949404Y-113797380D01*
X362139880Y-114749761D02*
X362282738Y-114797380D01*
X362520833Y-114797380D01*
X362616071Y-114749761D01*
X362663690Y-114702142D01*
X362711309Y-114606904D01*
X362711309Y-114511666D01*
X362663690Y-114416428D01*
X362616071Y-114368809D01*
X362520833Y-114321190D01*
X362330357Y-114273571D01*
X362235119Y-114225952D01*
X362187500Y-114178333D01*
X362139880Y-114083095D01*
X362139880Y-113987857D01*
X362187500Y-113892619D01*
X362235119Y-113845000D01*
X362330357Y-113797380D01*
X362568452Y-113797380D01*
X362711309Y-113845000D01*
X363139880Y-114797380D02*
X363139880Y-113797380D01*
X363616071Y-114797380D02*
X363616071Y-113797380D01*
X363854166Y-113797380D01*
X363997023Y-113845000D01*
X364092261Y-113940238D01*
X364139880Y-114035476D01*
X364187500Y-114225952D01*
X364187500Y-114368809D01*
X364139880Y-114559285D01*
X364092261Y-114654523D01*
X363997023Y-114749761D01*
X363854166Y-114797380D01*
X363616071Y-114797380D01*
X364616071Y-114273571D02*
X364949404Y-114273571D01*
X365092261Y-114797380D02*
X364616071Y-114797380D01*
X364616071Y-113797380D01*
X365092261Y-113797380D01*
X365473214Y-114749761D02*
X365616071Y-114797380D01*
X365854166Y-114797380D01*
X365949404Y-114749761D01*
X365997023Y-114702142D01*
X366044642Y-114606904D01*
X366044642Y-114511666D01*
X365997023Y-114416428D01*
X365949404Y-114368809D01*
X365854166Y-114321190D01*
X365663690Y-114273571D01*
X365568452Y-114225952D01*
X365520833Y-114178333D01*
X365473214Y-114083095D01*
X365473214Y-113987857D01*
X365520833Y-113892619D01*
X365568452Y-113845000D01*
X365663690Y-113797380D01*
X365901785Y-113797380D01*
X366044642Y-113845000D01*
X367235119Y-113797380D02*
X367235119Y-114606904D01*
X367282738Y-114702142D01*
X367330357Y-114749761D01*
X367425595Y-114797380D01*
X367616071Y-114797380D01*
X367711309Y-114749761D01*
X367758928Y-114702142D01*
X367806547Y-114606904D01*
X367806547Y-113797380D01*
X368235119Y-114749761D02*
X368377976Y-114797380D01*
X368616071Y-114797380D01*
X368711309Y-114749761D01*
X368758928Y-114702142D01*
X368806547Y-114606904D01*
X368806547Y-114511666D01*
X368758928Y-114416428D01*
X368711309Y-114368809D01*
X368616071Y-114321190D01*
X368425595Y-114273571D01*
X368330357Y-114225952D01*
X368282738Y-114178333D01*
X368235119Y-114083095D01*
X368235119Y-113987857D01*
X368282738Y-113892619D01*
X368330357Y-113845000D01*
X368425595Y-113797380D01*
X368663690Y-113797380D01*
X368806547Y-113845000D01*
X369235119Y-114797380D02*
X369235119Y-113797380D01*
X369711309Y-114797380D02*
X369711309Y-113797380D01*
X370282738Y-114797380D01*
X370282738Y-113797380D01*
X371282738Y-113845000D02*
X371187500Y-113797380D01*
X371044642Y-113797380D01*
X370901785Y-113845000D01*
X370806547Y-113940238D01*
X370758928Y-114035476D01*
X370711309Y-114225952D01*
X370711309Y-114368809D01*
X370758928Y-114559285D01*
X370806547Y-114654523D01*
X370901785Y-114749761D01*
X371044642Y-114797380D01*
X371139880Y-114797380D01*
X371282738Y-114749761D01*
X371330357Y-114702142D01*
X371330357Y-114368809D01*
X371139880Y-114368809D01*
X372520833Y-114797380D02*
X372520833Y-113797380D01*
X372901785Y-113797380D01*
X372997023Y-113845000D01*
X373044642Y-113892619D01*
X373092261Y-113987857D01*
X373092261Y-114130714D01*
X373044642Y-114225952D01*
X372997023Y-114273571D01*
X372901785Y-114321190D01*
X372520833Y-114321190D01*
X373520833Y-114797380D02*
X373520833Y-113797380D01*
X373520833Y-114273571D02*
X374092261Y-114273571D01*
X374092261Y-114797380D02*
X374092261Y-113797380D01*
X374758928Y-113797380D02*
X374949404Y-113797380D01*
X375044642Y-113845000D01*
X375139880Y-113940238D01*
X375187500Y-114130714D01*
X375187500Y-114464047D01*
X375139880Y-114654523D01*
X375044642Y-114749761D01*
X374949404Y-114797380D01*
X374758928Y-114797380D01*
X374663690Y-114749761D01*
X374568452Y-114654523D01*
X374520833Y-114464047D01*
X374520833Y-114130714D01*
X374568452Y-113940238D01*
X374663690Y-113845000D01*
X374758928Y-113797380D01*
X375473214Y-113797380D02*
X376044642Y-113797380D01*
X375758928Y-114797380D02*
X375758928Y-113797380D01*
X376568452Y-113797380D02*
X376758928Y-113797380D01*
X376854166Y-113845000D01*
X376949404Y-113940238D01*
X376997023Y-114130714D01*
X376997023Y-114464047D01*
X376949404Y-114654523D01*
X376854166Y-114749761D01*
X376758928Y-114797380D01*
X376568452Y-114797380D01*
X376473214Y-114749761D01*
X376377976Y-114654523D01*
X376330357Y-114464047D01*
X376330357Y-114130714D01*
X376377976Y-113940238D01*
X376473214Y-113845000D01*
X376568452Y-113797380D01*
X378187500Y-114797380D02*
X378187500Y-113797380D01*
X378663690Y-114797380D02*
X378663690Y-113797380D01*
X378997023Y-114511666D01*
X379330357Y-113797380D01*
X379330357Y-114797380D01*
X379758928Y-114511666D02*
X380235119Y-114511666D01*
X379663690Y-114797380D02*
X379997023Y-113797380D01*
X380330357Y-114797380D01*
X381187500Y-113845000D02*
X381092261Y-113797380D01*
X380949404Y-113797380D01*
X380806547Y-113845000D01*
X380711309Y-113940238D01*
X380663690Y-114035476D01*
X380616071Y-114225952D01*
X380616071Y-114368809D01*
X380663690Y-114559285D01*
X380711309Y-114654523D01*
X380806547Y-114749761D01*
X380949404Y-114797380D01*
X381044642Y-114797380D01*
X381187500Y-114749761D01*
X381235119Y-114702142D01*
X381235119Y-114368809D01*
X381044642Y-114368809D01*
X381663690Y-114273571D02*
X381997023Y-114273571D01*
X382139880Y-114797380D02*
X381663690Y-114797380D01*
X381663690Y-113797380D01*
X382139880Y-113797380D01*
X382520833Y-114511666D02*
X382997023Y-114511666D01*
X382425595Y-114797380D02*
X382758928Y-113797380D01*
X383092261Y-114797380D01*
X383758928Y-114273571D02*
X383901785Y-114321190D01*
X383949404Y-114368809D01*
X383997023Y-114464047D01*
X383997023Y-114606904D01*
X383949404Y-114702142D01*
X383901785Y-114749761D01*
X383806547Y-114797380D01*
X383425595Y-114797380D01*
X383425595Y-113797380D01*
X383758928Y-113797380D01*
X383854166Y-113845000D01*
X383901785Y-113892619D01*
X383949404Y-113987857D01*
X383949404Y-114083095D01*
X383901785Y-114178333D01*
X383854166Y-114225952D01*
X383758928Y-114273571D01*
X383425595Y-114273571D01*
X384901785Y-114797380D02*
X384425595Y-114797380D01*
X384425595Y-113797380D01*
X385235119Y-114273571D02*
X385568452Y-114273571D01*
X385711309Y-114797380D02*
X385235119Y-114797380D01*
X385235119Y-113797380D01*
X385711309Y-113797380D01*
X347711309Y-116407380D02*
X347711309Y-115407380D01*
X348092261Y-115407380D01*
X348187500Y-115455000D01*
X348235119Y-115502619D01*
X348282738Y-115597857D01*
X348282738Y-115740714D01*
X348235119Y-115835952D01*
X348187500Y-115883571D01*
X348092261Y-115931190D01*
X347711309Y-115931190D01*
X349282738Y-116407380D02*
X348949404Y-115931190D01*
X348711309Y-116407380D02*
X348711309Y-115407380D01*
X349092261Y-115407380D01*
X349187500Y-115455000D01*
X349235119Y-115502619D01*
X349282738Y-115597857D01*
X349282738Y-115740714D01*
X349235119Y-115835952D01*
X349187500Y-115883571D01*
X349092261Y-115931190D01*
X348711309Y-115931190D01*
X349901785Y-115407380D02*
X350092261Y-115407380D01*
X350187500Y-115455000D01*
X350282738Y-115550238D01*
X350330357Y-115740714D01*
X350330357Y-116074047D01*
X350282738Y-116264523D01*
X350187500Y-116359761D01*
X350092261Y-116407380D01*
X349901785Y-116407380D01*
X349806547Y-116359761D01*
X349711309Y-116264523D01*
X349663690Y-116074047D01*
X349663690Y-115740714D01*
X349711309Y-115550238D01*
X349806547Y-115455000D01*
X349901785Y-115407380D01*
X351330357Y-116312142D02*
X351282738Y-116359761D01*
X351139880Y-116407380D01*
X351044642Y-116407380D01*
X350901785Y-116359761D01*
X350806547Y-116264523D01*
X350758928Y-116169285D01*
X350711309Y-115978809D01*
X350711309Y-115835952D01*
X350758928Y-115645476D01*
X350806547Y-115550238D01*
X350901785Y-115455000D01*
X351044642Y-115407380D01*
X351139880Y-115407380D01*
X351282738Y-115455000D01*
X351330357Y-115502619D01*
X351758928Y-115883571D02*
X352092261Y-115883571D01*
X352235119Y-116407380D02*
X351758928Y-116407380D01*
X351758928Y-115407380D01*
X352235119Y-115407380D01*
X352616071Y-116359761D02*
X352758928Y-116407380D01*
X352997023Y-116407380D01*
X353092261Y-116359761D01*
X353139880Y-116312142D01*
X353187500Y-116216904D01*
X353187500Y-116121666D01*
X353139880Y-116026428D01*
X353092261Y-115978809D01*
X352997023Y-115931190D01*
X352806547Y-115883571D01*
X352711309Y-115835952D01*
X352663690Y-115788333D01*
X352616071Y-115693095D01*
X352616071Y-115597857D01*
X352663690Y-115502619D01*
X352711309Y-115455000D01*
X352806547Y-115407380D01*
X353044642Y-115407380D01*
X353187500Y-115455000D01*
X353568452Y-116359761D02*
X353711309Y-116407380D01*
X353949404Y-116407380D01*
X354044642Y-116359761D01*
X354092261Y-116312142D01*
X354139880Y-116216904D01*
X354139880Y-116121666D01*
X354092261Y-116026428D01*
X354044642Y-115978809D01*
X353949404Y-115931190D01*
X353758928Y-115883571D01*
X353663690Y-115835952D01*
X353616071Y-115788333D01*
X353568452Y-115693095D01*
X353568452Y-115597857D01*
X353616071Y-115502619D01*
X353663690Y-115455000D01*
X353758928Y-115407380D01*
X353997023Y-115407380D01*
X354139880Y-115455000D01*
X354568452Y-116312142D02*
X354616071Y-116359761D01*
X354568452Y-116407380D01*
X354520833Y-116359761D01*
X354568452Y-116312142D01*
X354568452Y-116407380D01*
X355758928Y-116359761D02*
X355901785Y-116407380D01*
X356139880Y-116407380D01*
X356235119Y-116359761D01*
X356282738Y-116312142D01*
X356330357Y-116216904D01*
X356330357Y-116121666D01*
X356282738Y-116026428D01*
X356235119Y-115978809D01*
X356139880Y-115931190D01*
X355949404Y-115883571D01*
X355854166Y-115835952D01*
X355806547Y-115788333D01*
X355758928Y-115693095D01*
X355758928Y-115597857D01*
X355806547Y-115502619D01*
X355854166Y-115455000D01*
X355949404Y-115407380D01*
X356187500Y-115407380D01*
X356330357Y-115455000D01*
X356949404Y-115407380D02*
X357139880Y-115407380D01*
X357235119Y-115455000D01*
X357330357Y-115550238D01*
X357377976Y-115740714D01*
X357377976Y-116074047D01*
X357330357Y-116264523D01*
X357235119Y-116359761D01*
X357139880Y-116407380D01*
X356949404Y-116407380D01*
X356854166Y-116359761D01*
X356758928Y-116264523D01*
X356711309Y-116074047D01*
X356711309Y-115740714D01*
X356758928Y-115550238D01*
X356854166Y-115455000D01*
X356949404Y-115407380D01*
X358282738Y-116407380D02*
X357806547Y-116407380D01*
X357806547Y-115407380D01*
X358616071Y-116407380D02*
X358616071Y-115407380D01*
X358854166Y-115407380D01*
X358997023Y-115455000D01*
X359092261Y-115550238D01*
X359139880Y-115645476D01*
X359187500Y-115835952D01*
X359187500Y-115978809D01*
X359139880Y-116169285D01*
X359092261Y-116264523D01*
X358997023Y-116359761D01*
X358854166Y-116407380D01*
X358616071Y-116407380D01*
X359616071Y-115883571D02*
X359949404Y-115883571D01*
X360092261Y-116407380D02*
X359616071Y-116407380D01*
X359616071Y-115407380D01*
X360092261Y-115407380D01*
X361092261Y-116407380D02*
X360758928Y-115931190D01*
X360520833Y-116407380D02*
X360520833Y-115407380D01*
X360901785Y-115407380D01*
X360997023Y-115455000D01*
X361044642Y-115502619D01*
X361092261Y-115597857D01*
X361092261Y-115740714D01*
X361044642Y-115835952D01*
X360997023Y-115883571D01*
X360901785Y-115931190D01*
X360520833Y-115931190D01*
X362282738Y-116407380D02*
X362282738Y-115407380D01*
X362616071Y-116121666D01*
X362949404Y-115407380D01*
X362949404Y-116407380D01*
X363377976Y-116121666D02*
X363854166Y-116121666D01*
X363282738Y-116407380D02*
X363616071Y-115407380D01*
X363949404Y-116407380D01*
X364235119Y-116359761D02*
X364377976Y-116407380D01*
X364616071Y-116407380D01*
X364711309Y-116359761D01*
X364758928Y-116312142D01*
X364806547Y-116216904D01*
X364806547Y-116121666D01*
X364758928Y-116026428D01*
X364711309Y-115978809D01*
X364616071Y-115931190D01*
X364425595Y-115883571D01*
X364330357Y-115835952D01*
X364282738Y-115788333D01*
X364235119Y-115693095D01*
X364235119Y-115597857D01*
X364282738Y-115502619D01*
X364330357Y-115455000D01*
X364425595Y-115407380D01*
X364663690Y-115407380D01*
X364806547Y-115455000D01*
X365235119Y-116407380D02*
X365235119Y-115407380D01*
X365806547Y-116407380D02*
X365377976Y-115835952D01*
X365806547Y-115407380D02*
X365235119Y-115978809D01*
X367187500Y-115407380D02*
X367377976Y-115407380D01*
X367473214Y-115455000D01*
X367568452Y-115550238D01*
X367616071Y-115740714D01*
X367616071Y-116074047D01*
X367568452Y-116264523D01*
X367473214Y-116359761D01*
X367377976Y-116407380D01*
X367187500Y-116407380D01*
X367092261Y-116359761D01*
X366997023Y-116264523D01*
X366949404Y-116074047D01*
X366949404Y-115740714D01*
X366997023Y-115550238D01*
X367092261Y-115455000D01*
X367187500Y-115407380D01*
X367901785Y-115407380D02*
X368235119Y-116407380D01*
X368568452Y-115407380D01*
X368901785Y-115883571D02*
X369235119Y-115883571D01*
X369377976Y-116407380D02*
X368901785Y-116407380D01*
X368901785Y-115407380D01*
X369377976Y-115407380D01*
X370377976Y-116407380D02*
X370044642Y-115931190D01*
X369806547Y-116407380D02*
X369806547Y-115407380D01*
X370187500Y-115407380D01*
X370282738Y-115455000D01*
X370330357Y-115502619D01*
X370377976Y-115597857D01*
X370377976Y-115740714D01*
X370330357Y-115835952D01*
X370282738Y-115883571D01*
X370187500Y-115931190D01*
X369806547Y-115931190D01*
X371901785Y-115883571D02*
X372044642Y-115931190D01*
X372092261Y-115978809D01*
X372139880Y-116074047D01*
X372139880Y-116216904D01*
X372092261Y-116312142D01*
X372044642Y-116359761D01*
X371949404Y-116407380D01*
X371568452Y-116407380D01*
X371568452Y-115407380D01*
X371901785Y-115407380D01*
X371997023Y-115455000D01*
X372044642Y-115502619D01*
X372092261Y-115597857D01*
X372092261Y-115693095D01*
X372044642Y-115788333D01*
X371997023Y-115835952D01*
X371901785Y-115883571D01*
X371568452Y-115883571D01*
X372520833Y-116121666D02*
X372997023Y-116121666D01*
X372425595Y-116407380D02*
X372758928Y-115407380D01*
X373092261Y-116407380D01*
X373997023Y-116407380D02*
X373663690Y-115931190D01*
X373425595Y-116407380D02*
X373425595Y-115407380D01*
X373806547Y-115407380D01*
X373901785Y-115455000D01*
X373949404Y-115502619D01*
X373997023Y-115597857D01*
X373997023Y-115740714D01*
X373949404Y-115835952D01*
X373901785Y-115883571D01*
X373806547Y-115931190D01*
X373425595Y-115931190D01*
X374425595Y-115883571D02*
X374758928Y-115883571D01*
X374901785Y-116407380D02*
X374425595Y-116407380D01*
X374425595Y-115407380D01*
X374901785Y-115407380D01*
X376663690Y-116312142D02*
X376616071Y-116359761D01*
X376473214Y-116407380D01*
X376377976Y-116407380D01*
X376235119Y-116359761D01*
X376139880Y-116264523D01*
X376092261Y-116169285D01*
X376044642Y-115978809D01*
X376044642Y-115835952D01*
X376092261Y-115645476D01*
X376139880Y-115550238D01*
X376235119Y-115455000D01*
X376377976Y-115407380D01*
X376473214Y-115407380D01*
X376616071Y-115455000D01*
X376663690Y-115502619D01*
X377282738Y-115407380D02*
X377473214Y-115407380D01*
X377568452Y-115455000D01*
X377663690Y-115550238D01*
X377711309Y-115740714D01*
X377711309Y-116074047D01*
X377663690Y-116264523D01*
X377568452Y-116359761D01*
X377473214Y-116407380D01*
X377282738Y-116407380D01*
X377187500Y-116359761D01*
X377092261Y-116264523D01*
X377044642Y-116074047D01*
X377044642Y-115740714D01*
X377092261Y-115550238D01*
X377187500Y-115455000D01*
X377282738Y-115407380D01*
X378139880Y-116407380D02*
X378139880Y-115407380D01*
X378520833Y-115407380D01*
X378616071Y-115455000D01*
X378663690Y-115502619D01*
X378711309Y-115597857D01*
X378711309Y-115740714D01*
X378663690Y-115835952D01*
X378616071Y-115883571D01*
X378520833Y-115931190D01*
X378139880Y-115931190D01*
X379139880Y-116407380D02*
X379139880Y-115407380D01*
X379520833Y-115407380D01*
X379616071Y-115455000D01*
X379663690Y-115502619D01*
X379711309Y-115597857D01*
X379711309Y-115740714D01*
X379663690Y-115835952D01*
X379616071Y-115883571D01*
X379520833Y-115931190D01*
X379139880Y-115931190D01*
X380139880Y-115883571D02*
X380473214Y-115883571D01*
X380616071Y-116407380D02*
X380139880Y-116407380D01*
X380139880Y-115407380D01*
X380616071Y-115407380D01*
X381616071Y-116407380D02*
X381282738Y-115931190D01*
X381044642Y-116407380D02*
X381044642Y-115407380D01*
X381425595Y-115407380D01*
X381520833Y-115455000D01*
X381568452Y-115502619D01*
X381616071Y-115597857D01*
X381616071Y-115740714D01*
X381568452Y-115835952D01*
X381520833Y-115883571D01*
X381425595Y-115931190D01*
X381044642Y-115931190D01*
X382044642Y-116312142D02*
X382092261Y-116359761D01*
X382044642Y-116407380D01*
X381997023Y-116359761D01*
X382044642Y-116312142D01*
X382044642Y-116407380D01*
X383235119Y-116359761D02*
X383377976Y-116407380D01*
X383616071Y-116407380D01*
X383711309Y-116359761D01*
X383758928Y-116312142D01*
X383806547Y-116216904D01*
X383806547Y-116121666D01*
X383758928Y-116026428D01*
X383711309Y-115978809D01*
X383616071Y-115931190D01*
X383425595Y-115883571D01*
X383330357Y-115835952D01*
X383282738Y-115788333D01*
X383235119Y-115693095D01*
X383235119Y-115597857D01*
X383282738Y-115502619D01*
X383330357Y-115455000D01*
X383425595Y-115407380D01*
X383663690Y-115407380D01*
X383806547Y-115455000D01*
X384425595Y-115407380D02*
X384616071Y-115407380D01*
X384711309Y-115455000D01*
X384806547Y-115550238D01*
X384854166Y-115740714D01*
X384854166Y-116074047D01*
X384806547Y-116264523D01*
X384711309Y-116359761D01*
X384616071Y-116407380D01*
X384425595Y-116407380D01*
X384330357Y-116359761D01*
X384235119Y-116264523D01*
X384187500Y-116074047D01*
X384187500Y-115740714D01*
X384235119Y-115550238D01*
X384330357Y-115455000D01*
X384425595Y-115407380D01*
X385758928Y-116407380D02*
X385282738Y-116407380D01*
X385282738Y-115407380D01*
X386092261Y-116407380D02*
X386092261Y-115407380D01*
X386330357Y-115407380D01*
X386473214Y-115455000D01*
X386568452Y-115550238D01*
X386616071Y-115645476D01*
X386663690Y-115835952D01*
X386663690Y-115978809D01*
X386616071Y-116169285D01*
X386568452Y-116264523D01*
X386473214Y-116359761D01*
X386330357Y-116407380D01*
X386092261Y-116407380D01*
X387092261Y-115883571D02*
X387425595Y-115883571D01*
X387568452Y-116407380D02*
X387092261Y-116407380D01*
X387092261Y-115407380D01*
X387568452Y-115407380D01*
X388568452Y-116407380D02*
X388235119Y-115931190D01*
X387997023Y-116407380D02*
X387997023Y-115407380D01*
X388377976Y-115407380D01*
X388473214Y-115455000D01*
X388520833Y-115502619D01*
X388568452Y-115597857D01*
X388568452Y-115740714D01*
X388520833Y-115835952D01*
X388473214Y-115883571D01*
X388377976Y-115931190D01*
X387997023Y-115931190D01*
X347711309Y-118017380D02*
X347711309Y-117017380D01*
X348044642Y-117731666D01*
X348377976Y-117017380D01*
X348377976Y-118017380D01*
X348806547Y-117731666D02*
X349282738Y-117731666D01*
X348711309Y-118017380D02*
X349044642Y-117017380D01*
X349377976Y-118017380D01*
X349663690Y-117969761D02*
X349806547Y-118017380D01*
X350044642Y-118017380D01*
X350139880Y-117969761D01*
X350187500Y-117922142D01*
X350235119Y-117826904D01*
X350235119Y-117731666D01*
X350187500Y-117636428D01*
X350139880Y-117588809D01*
X350044642Y-117541190D01*
X349854166Y-117493571D01*
X349758928Y-117445952D01*
X349711309Y-117398333D01*
X349663690Y-117303095D01*
X349663690Y-117207857D01*
X349711309Y-117112619D01*
X349758928Y-117065000D01*
X349854166Y-117017380D01*
X350092261Y-117017380D01*
X350235119Y-117065000D01*
X350663690Y-118017380D02*
X350663690Y-117017380D01*
X351235119Y-118017380D02*
X350806547Y-117445952D01*
X351235119Y-117017380D02*
X350663690Y-117588809D01*
X352377976Y-117969761D02*
X352520833Y-118017380D01*
X352758928Y-118017380D01*
X352854166Y-117969761D01*
X352901785Y-117922142D01*
X352949404Y-117826904D01*
X352949404Y-117731666D01*
X352901785Y-117636428D01*
X352854166Y-117588809D01*
X352758928Y-117541190D01*
X352568452Y-117493571D01*
X352473214Y-117445952D01*
X352425595Y-117398333D01*
X352377976Y-117303095D01*
X352377976Y-117207857D01*
X352425595Y-117112619D01*
X352473214Y-117065000D01*
X352568452Y-117017380D01*
X352806547Y-117017380D01*
X352949404Y-117065000D01*
X353377976Y-118017380D02*
X353377976Y-117017380D01*
X353377976Y-117493571D02*
X353949404Y-117493571D01*
X353949404Y-118017380D02*
X353949404Y-117017380D01*
X354377976Y-117731666D02*
X354854166Y-117731666D01*
X354282738Y-118017380D02*
X354616071Y-117017380D01*
X354949404Y-118017380D01*
X355758928Y-118017380D02*
X355282738Y-118017380D01*
X355282738Y-117017380D01*
X356568452Y-118017380D02*
X356092261Y-118017380D01*
X356092261Y-117017380D01*
X357997023Y-117493571D02*
X358139880Y-117541190D01*
X358187500Y-117588809D01*
X358235119Y-117684047D01*
X358235119Y-117826904D01*
X358187500Y-117922142D01*
X358139880Y-117969761D01*
X358044642Y-118017380D01*
X357663690Y-118017380D01*
X357663690Y-117017380D01*
X357997023Y-117017380D01*
X358092261Y-117065000D01*
X358139880Y-117112619D01*
X358187500Y-117207857D01*
X358187500Y-117303095D01*
X358139880Y-117398333D01*
X358092261Y-117445952D01*
X357997023Y-117493571D01*
X357663690Y-117493571D01*
X358663690Y-117493571D02*
X358997023Y-117493571D01*
X359139880Y-118017380D02*
X358663690Y-118017380D01*
X358663690Y-117017380D01*
X359139880Y-117017380D01*
X360663690Y-117493571D02*
X360806547Y-117541190D01*
X360854166Y-117588809D01*
X360901785Y-117684047D01*
X360901785Y-117826904D01*
X360854166Y-117922142D01*
X360806547Y-117969761D01*
X360711309Y-118017380D01*
X360330357Y-118017380D01*
X360330357Y-117017380D01*
X360663690Y-117017380D01*
X360758928Y-117065000D01*
X360806547Y-117112619D01*
X360854166Y-117207857D01*
X360854166Y-117303095D01*
X360806547Y-117398333D01*
X360758928Y-117445952D01*
X360663690Y-117493571D01*
X360330357Y-117493571D01*
X361330357Y-117493571D02*
X361663690Y-117493571D01*
X361806547Y-118017380D02*
X361330357Y-118017380D01*
X361330357Y-117017380D01*
X361806547Y-117017380D01*
X362092261Y-117017380D02*
X362663690Y-117017380D01*
X362377976Y-118017380D02*
X362377976Y-117017380D01*
X362901785Y-117017380D02*
X363139880Y-118017380D01*
X363330357Y-117303095D01*
X363520833Y-118017380D01*
X363758928Y-117017380D01*
X364139880Y-117493571D02*
X364473214Y-117493571D01*
X364616071Y-118017380D02*
X364139880Y-118017380D01*
X364139880Y-117017380D01*
X364616071Y-117017380D01*
X365044642Y-117493571D02*
X365377976Y-117493571D01*
X365520833Y-118017380D02*
X365044642Y-118017380D01*
X365044642Y-117017380D01*
X365520833Y-117017380D01*
X365949404Y-118017380D02*
X365949404Y-117017380D01*
X366520833Y-118017380D01*
X366520833Y-117017380D01*
X368092261Y-117493571D02*
X367758928Y-117493571D01*
X367758928Y-118017380D02*
X367758928Y-117017380D01*
X368235119Y-117017380D01*
X368616071Y-118017380D02*
X368616071Y-117017380D01*
X369092261Y-118017380D02*
X369092261Y-117017380D01*
X369663690Y-118017380D01*
X369663690Y-117017380D01*
X370139880Y-117493571D02*
X370473214Y-117493571D01*
X370616071Y-118017380D02*
X370139880Y-118017380D01*
X370139880Y-117017380D01*
X370616071Y-117017380D01*
X371806547Y-118017380D02*
X371806547Y-117017380D01*
X372187500Y-117017380D01*
X372282738Y-117065000D01*
X372330357Y-117112619D01*
X372377976Y-117207857D01*
X372377976Y-117350714D01*
X372330357Y-117445952D01*
X372282738Y-117493571D01*
X372187500Y-117541190D01*
X371806547Y-117541190D01*
X372806547Y-118017380D02*
X372806547Y-117017380D01*
X373139880Y-117017380D02*
X373711309Y-117017380D01*
X373425595Y-118017380D02*
X373425595Y-117017380D01*
X374616071Y-117922142D02*
X374568452Y-117969761D01*
X374425595Y-118017380D01*
X374330357Y-118017380D01*
X374187500Y-117969761D01*
X374092261Y-117874523D01*
X374044642Y-117779285D01*
X373997023Y-117588809D01*
X373997023Y-117445952D01*
X374044642Y-117255476D01*
X374092261Y-117160238D01*
X374187500Y-117065000D01*
X374330357Y-117017380D01*
X374425595Y-117017380D01*
X374568452Y-117065000D01*
X374616071Y-117112619D01*
X375044642Y-118017380D02*
X375044642Y-117017380D01*
X375044642Y-117493571D02*
X375616071Y-117493571D01*
X375616071Y-118017380D02*
X375616071Y-117017380D01*
X376854166Y-118017380D02*
X376854166Y-117017380D01*
X377235119Y-117017380D01*
X377330357Y-117065000D01*
X377377976Y-117112619D01*
X377425595Y-117207857D01*
X377425595Y-117350714D01*
X377377976Y-117445952D01*
X377330357Y-117493571D01*
X377235119Y-117541190D01*
X376854166Y-117541190D01*
X377806547Y-117731666D02*
X378282738Y-117731666D01*
X377711309Y-118017380D02*
X378044642Y-117017380D01*
X378377976Y-118017380D01*
X378711309Y-118017380D02*
X378711309Y-117017380D01*
X378949404Y-117017380D01*
X379092261Y-117065000D01*
X379187500Y-117160238D01*
X379235119Y-117255476D01*
X379282738Y-117445952D01*
X379282738Y-117588809D01*
X379235119Y-117779285D01*
X379187500Y-117874523D01*
X379092261Y-117969761D01*
X378949404Y-118017380D01*
X378711309Y-118017380D01*
X379663690Y-117969761D02*
X379806547Y-118017380D01*
X380044642Y-118017380D01*
X380139880Y-117969761D01*
X380187500Y-117922142D01*
X380235119Y-117826904D01*
X380235119Y-117731666D01*
X380187500Y-117636428D01*
X380139880Y-117588809D01*
X380044642Y-117541190D01*
X379854166Y-117493571D01*
X379758928Y-117445952D01*
X379711309Y-117398333D01*
X379663690Y-117303095D01*
X379663690Y-117207857D01*
X379711309Y-117112619D01*
X379758928Y-117065000D01*
X379854166Y-117017380D01*
X380092261Y-117017380D01*
X380235119Y-117065000D01*
X380663690Y-117922142D02*
X380711309Y-117969761D01*
X380663690Y-118017380D01*
X380616071Y-117969761D01*
X380663690Y-117922142D01*
X380663690Y-118017380D01*
X382473214Y-117922142D02*
X382425595Y-117969761D01*
X382282738Y-118017380D01*
X382187500Y-118017380D01*
X382044642Y-117969761D01*
X381949404Y-117874523D01*
X381901785Y-117779285D01*
X381854166Y-117588809D01*
X381854166Y-117445952D01*
X381901785Y-117255476D01*
X381949404Y-117160238D01*
X382044642Y-117065000D01*
X382187500Y-117017380D01*
X382282738Y-117017380D01*
X382425595Y-117065000D01*
X382473214Y-117112619D01*
X383092261Y-117017380D02*
X383282738Y-117017380D01*
X383377976Y-117065000D01*
X383473214Y-117160238D01*
X383520833Y-117350714D01*
X383520833Y-117684047D01*
X383473214Y-117874523D01*
X383377976Y-117969761D01*
X383282738Y-118017380D01*
X383092261Y-118017380D01*
X382997023Y-117969761D01*
X382901785Y-117874523D01*
X382854166Y-117684047D01*
X382854166Y-117350714D01*
X382901785Y-117160238D01*
X382997023Y-117065000D01*
X383092261Y-117017380D01*
X384425595Y-118017380D02*
X383949404Y-118017380D01*
X383949404Y-117017380D01*
X384949404Y-117017380D02*
X385139880Y-117017380D01*
X385235119Y-117065000D01*
X385330357Y-117160238D01*
X385377976Y-117350714D01*
X385377976Y-117684047D01*
X385330357Y-117874523D01*
X385235119Y-117969761D01*
X385139880Y-118017380D01*
X384949404Y-118017380D01*
X384854166Y-117969761D01*
X384758928Y-117874523D01*
X384711309Y-117684047D01*
X384711309Y-117350714D01*
X384758928Y-117160238D01*
X384854166Y-117065000D01*
X384949404Y-117017380D01*
X386377976Y-118017380D02*
X386044642Y-117541190D01*
X385806547Y-118017380D02*
X385806547Y-117017380D01*
X386187500Y-117017380D01*
X386282738Y-117065000D01*
X386330357Y-117112619D01*
X386377976Y-117207857D01*
X386377976Y-117350714D01*
X386330357Y-117445952D01*
X386282738Y-117493571D01*
X386187500Y-117541190D01*
X385806547Y-117541190D01*
X347616071Y-118627380D02*
X347854166Y-119627380D01*
X348044642Y-118913095D01*
X348235119Y-119627380D01*
X348473214Y-118627380D01*
X348854166Y-119627380D02*
X348854166Y-118627380D01*
X348854166Y-119103571D02*
X349425595Y-119103571D01*
X349425595Y-119627380D02*
X349425595Y-118627380D01*
X349901785Y-119627380D02*
X349901785Y-118627380D01*
X350235119Y-118627380D02*
X350806547Y-118627380D01*
X350520833Y-119627380D02*
X350520833Y-118627380D01*
X351139880Y-119103571D02*
X351473214Y-119103571D01*
X351616071Y-119627380D02*
X351139880Y-119627380D01*
X351139880Y-118627380D01*
X351616071Y-118627380D01*
X345901785Y-120237380D02*
X345425595Y-120237380D01*
X345377976Y-120713571D01*
X345425595Y-120665952D01*
X345520833Y-120618333D01*
X345758928Y-120618333D01*
X345854166Y-120665952D01*
X345901785Y-120713571D01*
X345949404Y-120808809D01*
X345949404Y-121046904D01*
X345901785Y-121142142D01*
X345854166Y-121189761D01*
X345758928Y-121237380D01*
X345520833Y-121237380D01*
X345425595Y-121189761D01*
X345377976Y-121142142D01*
X346377976Y-121142142D02*
X346425595Y-121189761D01*
X346377976Y-121237380D01*
X346330357Y-121189761D01*
X346377976Y-121142142D01*
X346377976Y-121237380D01*
X347568452Y-121189761D02*
X347711309Y-121237380D01*
X347949404Y-121237380D01*
X348044642Y-121189761D01*
X348092261Y-121142142D01*
X348139880Y-121046904D01*
X348139880Y-120951666D01*
X348092261Y-120856428D01*
X348044642Y-120808809D01*
X347949404Y-120761190D01*
X347758928Y-120713571D01*
X347663690Y-120665952D01*
X347616071Y-120618333D01*
X347568452Y-120523095D01*
X347568452Y-120427857D01*
X347616071Y-120332619D01*
X347663690Y-120285000D01*
X347758928Y-120237380D01*
X347997023Y-120237380D01*
X348139880Y-120285000D01*
X348568452Y-121237380D02*
X348568452Y-120237380D01*
X349520833Y-121237380D02*
X349044642Y-121237380D01*
X349044642Y-120237380D01*
X349854166Y-121237380D02*
X349854166Y-120237380D01*
X350425595Y-121237380D02*
X349997023Y-120665952D01*
X350425595Y-120237380D02*
X349854166Y-120808809D01*
X350806547Y-121189761D02*
X350949404Y-121237380D01*
X351187500Y-121237380D01*
X351282738Y-121189761D01*
X351330357Y-121142142D01*
X351377976Y-121046904D01*
X351377976Y-120951666D01*
X351330357Y-120856428D01*
X351282738Y-120808809D01*
X351187500Y-120761190D01*
X350997023Y-120713571D01*
X350901785Y-120665952D01*
X350854166Y-120618333D01*
X350806547Y-120523095D01*
X350806547Y-120427857D01*
X350854166Y-120332619D01*
X350901785Y-120285000D01*
X350997023Y-120237380D01*
X351235119Y-120237380D01*
X351377976Y-120285000D01*
X352377976Y-121142142D02*
X352330357Y-121189761D01*
X352187500Y-121237380D01*
X352092261Y-121237380D01*
X351949404Y-121189761D01*
X351854166Y-121094523D01*
X351806547Y-120999285D01*
X351758928Y-120808809D01*
X351758928Y-120665952D01*
X351806547Y-120475476D01*
X351854166Y-120380238D01*
X351949404Y-120285000D01*
X352092261Y-120237380D01*
X352187500Y-120237380D01*
X352330357Y-120285000D01*
X352377976Y-120332619D01*
X353377976Y-121237380D02*
X353044642Y-120761190D01*
X352806547Y-121237380D02*
X352806547Y-120237380D01*
X353187500Y-120237380D01*
X353282738Y-120285000D01*
X353330357Y-120332619D01*
X353377976Y-120427857D01*
X353377976Y-120570714D01*
X353330357Y-120665952D01*
X353282738Y-120713571D01*
X353187500Y-120761190D01*
X352806547Y-120761190D01*
X353806547Y-120713571D02*
X354139880Y-120713571D01*
X354282738Y-121237380D02*
X353806547Y-121237380D01*
X353806547Y-120237380D01*
X354282738Y-120237380D01*
X354711309Y-120713571D02*
X355044642Y-120713571D01*
X355187500Y-121237380D02*
X354711309Y-121237380D01*
X354711309Y-120237380D01*
X355187500Y-120237380D01*
X355616071Y-121237380D02*
X355616071Y-120237380D01*
X356187500Y-121237380D01*
X356187500Y-120237380D01*
X357758928Y-120713571D02*
X357901785Y-120761190D01*
X357949404Y-120808809D01*
X357997023Y-120904047D01*
X357997023Y-121046904D01*
X357949404Y-121142142D01*
X357901785Y-121189761D01*
X357806547Y-121237380D01*
X357425595Y-121237380D01*
X357425595Y-120237380D01*
X357758928Y-120237380D01*
X357854166Y-120285000D01*
X357901785Y-120332619D01*
X357949404Y-120427857D01*
X357949404Y-120523095D01*
X357901785Y-120618333D01*
X357854166Y-120665952D01*
X357758928Y-120713571D01*
X357425595Y-120713571D01*
X358616071Y-120237380D02*
X358806547Y-120237380D01*
X358901785Y-120285000D01*
X358997023Y-120380238D01*
X359044642Y-120570714D01*
X359044642Y-120904047D01*
X358997023Y-121094523D01*
X358901785Y-121189761D01*
X358806547Y-121237380D01*
X358616071Y-121237380D01*
X358520833Y-121189761D01*
X358425595Y-121094523D01*
X358377976Y-120904047D01*
X358377976Y-120570714D01*
X358425595Y-120380238D01*
X358520833Y-120285000D01*
X358616071Y-120237380D01*
X359330357Y-120237380D02*
X359901785Y-120237380D01*
X359616071Y-121237380D02*
X359616071Y-120237380D01*
X360235119Y-121237380D02*
X360235119Y-120237380D01*
X360235119Y-120713571D02*
X360806547Y-120713571D01*
X360806547Y-121237380D02*
X360806547Y-120237380D01*
X361997023Y-121189761D02*
X362139880Y-121237380D01*
X362377976Y-121237380D01*
X362473214Y-121189761D01*
X362520833Y-121142142D01*
X362568452Y-121046904D01*
X362568452Y-120951666D01*
X362520833Y-120856428D01*
X362473214Y-120808809D01*
X362377976Y-120761190D01*
X362187500Y-120713571D01*
X362092261Y-120665952D01*
X362044642Y-120618333D01*
X361997023Y-120523095D01*
X361997023Y-120427857D01*
X362044642Y-120332619D01*
X362092261Y-120285000D01*
X362187500Y-120237380D01*
X362425595Y-120237380D01*
X362568452Y-120285000D01*
X362997023Y-121237380D02*
X362997023Y-120237380D01*
X363473214Y-121237380D02*
X363473214Y-120237380D01*
X363711309Y-120237380D01*
X363854166Y-120285000D01*
X363949404Y-120380238D01*
X363997023Y-120475476D01*
X364044642Y-120665952D01*
X364044642Y-120808809D01*
X363997023Y-120999285D01*
X363949404Y-121094523D01*
X363854166Y-121189761D01*
X363711309Y-121237380D01*
X363473214Y-121237380D01*
X364473214Y-120713571D02*
X364806547Y-120713571D01*
X364949404Y-121237380D02*
X364473214Y-121237380D01*
X364473214Y-120237380D01*
X364949404Y-120237380D01*
X365330357Y-121189761D02*
X365473214Y-121237380D01*
X365711309Y-121237380D01*
X365806547Y-121189761D01*
X365854166Y-121142142D01*
X365901785Y-121046904D01*
X365901785Y-120951666D01*
X365854166Y-120856428D01*
X365806547Y-120808809D01*
X365711309Y-120761190D01*
X365520833Y-120713571D01*
X365425595Y-120665952D01*
X365377976Y-120618333D01*
X365330357Y-120523095D01*
X365330357Y-120427857D01*
X365377976Y-120332619D01*
X365425595Y-120285000D01*
X365520833Y-120237380D01*
X365758928Y-120237380D01*
X365901785Y-120285000D01*
X367282738Y-120237380D02*
X367473214Y-120237380D01*
X367568452Y-120285000D01*
X367663690Y-120380238D01*
X367711309Y-120570714D01*
X367711309Y-120904047D01*
X367663690Y-121094523D01*
X367568452Y-121189761D01*
X367473214Y-121237380D01*
X367282738Y-121237380D01*
X367187500Y-121189761D01*
X367092261Y-121094523D01*
X367044642Y-120904047D01*
X367044642Y-120570714D01*
X367092261Y-120380238D01*
X367187500Y-120285000D01*
X367282738Y-120237380D01*
X368473214Y-120713571D02*
X368139880Y-120713571D01*
X368139880Y-121237380D02*
X368139880Y-120237380D01*
X368616071Y-120237380D01*
X369758928Y-121237380D02*
X369758928Y-120237380D01*
X370139880Y-120237380D01*
X370235119Y-120285000D01*
X370282738Y-120332619D01*
X370330357Y-120427857D01*
X370330357Y-120570714D01*
X370282738Y-120665952D01*
X370235119Y-120713571D01*
X370139880Y-120761190D01*
X369758928Y-120761190D01*
X371330357Y-121142142D02*
X371282738Y-121189761D01*
X371139880Y-121237380D01*
X371044642Y-121237380D01*
X370901785Y-121189761D01*
X370806547Y-121094523D01*
X370758928Y-120999285D01*
X370711309Y-120808809D01*
X370711309Y-120665952D01*
X370758928Y-120475476D01*
X370806547Y-120380238D01*
X370901785Y-120285000D01*
X371044642Y-120237380D01*
X371139880Y-120237380D01*
X371282738Y-120285000D01*
X371330357Y-120332619D01*
X372092261Y-120713571D02*
X372235119Y-120761190D01*
X372282738Y-120808809D01*
X372330357Y-120904047D01*
X372330357Y-121046904D01*
X372282738Y-121142142D01*
X372235119Y-121189761D01*
X372139880Y-121237380D01*
X371758928Y-121237380D01*
X371758928Y-120237380D01*
X372092261Y-120237380D01*
X372187500Y-120285000D01*
X372235119Y-120332619D01*
X372282738Y-120427857D01*
X372282738Y-120523095D01*
X372235119Y-120618333D01*
X372187500Y-120665952D01*
X372092261Y-120713571D01*
X371758928Y-120713571D01*
X373520833Y-120237380D02*
X373520833Y-121046904D01*
X373568452Y-121142142D01*
X373616071Y-121189761D01*
X373711309Y-121237380D01*
X373901785Y-121237380D01*
X373997023Y-121189761D01*
X374044642Y-121142142D01*
X374092261Y-121046904D01*
X374092261Y-120237380D01*
X374520833Y-121189761D02*
X374663690Y-121237380D01*
X374901785Y-121237380D01*
X374997023Y-121189761D01*
X375044642Y-121142142D01*
X375092261Y-121046904D01*
X375092261Y-120951666D01*
X375044642Y-120856428D01*
X374997023Y-120808809D01*
X374901785Y-120761190D01*
X374711309Y-120713571D01*
X374616071Y-120665952D01*
X374568452Y-120618333D01*
X374520833Y-120523095D01*
X374520833Y-120427857D01*
X374568452Y-120332619D01*
X374616071Y-120285000D01*
X374711309Y-120237380D01*
X374949404Y-120237380D01*
X375092261Y-120285000D01*
X375520833Y-121237380D02*
X375520833Y-120237380D01*
X375997023Y-121237380D02*
X375997023Y-120237380D01*
X376568452Y-121237380D01*
X376568452Y-120237380D01*
X377568452Y-120285000D02*
X377473214Y-120237380D01*
X377330357Y-120237380D01*
X377187500Y-120285000D01*
X377092261Y-120380238D01*
X377044642Y-120475476D01*
X376997023Y-120665952D01*
X376997023Y-120808809D01*
X377044642Y-120999285D01*
X377092261Y-121094523D01*
X377187500Y-121189761D01*
X377330357Y-121237380D01*
X377425595Y-121237380D01*
X377568452Y-121189761D01*
X377616071Y-121142142D01*
X377616071Y-120808809D01*
X377425595Y-120808809D01*
X347711309Y-122847380D02*
X347711309Y-121847380D01*
X348282738Y-122847380D01*
X348282738Y-121847380D01*
X348949404Y-121847380D02*
X349139880Y-121847380D01*
X349235119Y-121895000D01*
X349330357Y-121990238D01*
X349377976Y-122180714D01*
X349377976Y-122514047D01*
X349330357Y-122704523D01*
X349235119Y-122799761D01*
X349139880Y-122847380D01*
X348949404Y-122847380D01*
X348854166Y-122799761D01*
X348758928Y-122704523D01*
X348711309Y-122514047D01*
X348711309Y-122180714D01*
X348758928Y-121990238D01*
X348854166Y-121895000D01*
X348949404Y-121847380D01*
X349806547Y-122847380D02*
X349806547Y-121847380D01*
X350377976Y-122847380D01*
X350377976Y-121847380D01*
X350854166Y-122466428D02*
X351616071Y-122466428D01*
X352663690Y-122752142D02*
X352616071Y-122799761D01*
X352473214Y-122847380D01*
X352377976Y-122847380D01*
X352235119Y-122799761D01*
X352139880Y-122704523D01*
X352092261Y-122609285D01*
X352044642Y-122418809D01*
X352044642Y-122275952D01*
X352092261Y-122085476D01*
X352139880Y-121990238D01*
X352235119Y-121895000D01*
X352377976Y-121847380D01*
X352473214Y-121847380D01*
X352616071Y-121895000D01*
X352663690Y-121942619D01*
X353282738Y-121847380D02*
X353473214Y-121847380D01*
X353568452Y-121895000D01*
X353663690Y-121990238D01*
X353711309Y-122180714D01*
X353711309Y-122514047D01*
X353663690Y-122704523D01*
X353568452Y-122799761D01*
X353473214Y-122847380D01*
X353282738Y-122847380D01*
X353187500Y-122799761D01*
X353092261Y-122704523D01*
X353044642Y-122514047D01*
X353044642Y-122180714D01*
X353092261Y-121990238D01*
X353187500Y-121895000D01*
X353282738Y-121847380D01*
X354139880Y-122847380D02*
X354139880Y-121847380D01*
X354711309Y-122847380D01*
X354711309Y-121847380D01*
X355187500Y-122847380D02*
X355187500Y-121847380D01*
X355425595Y-121847380D01*
X355568452Y-121895000D01*
X355663690Y-121990238D01*
X355711309Y-122085476D01*
X355758928Y-122275952D01*
X355758928Y-122418809D01*
X355711309Y-122609285D01*
X355663690Y-122704523D01*
X355568452Y-122799761D01*
X355425595Y-122847380D01*
X355187500Y-122847380D01*
X356187500Y-121847380D02*
X356187500Y-122656904D01*
X356235119Y-122752142D01*
X356282738Y-122799761D01*
X356377976Y-122847380D01*
X356568452Y-122847380D01*
X356663690Y-122799761D01*
X356711309Y-122752142D01*
X356758928Y-122656904D01*
X356758928Y-121847380D01*
X357806547Y-122752142D02*
X357758928Y-122799761D01*
X357616071Y-122847380D01*
X357520833Y-122847380D01*
X357377976Y-122799761D01*
X357282738Y-122704523D01*
X357235119Y-122609285D01*
X357187500Y-122418809D01*
X357187500Y-122275952D01*
X357235119Y-122085476D01*
X357282738Y-121990238D01*
X357377976Y-121895000D01*
X357520833Y-121847380D01*
X357616071Y-121847380D01*
X357758928Y-121895000D01*
X357806547Y-121942619D01*
X358092261Y-121847380D02*
X358663690Y-121847380D01*
X358377976Y-122847380D02*
X358377976Y-121847380D01*
X358997023Y-122847380D02*
X358997023Y-121847380D01*
X359330357Y-121847380D02*
X359663690Y-122847380D01*
X359997023Y-121847380D01*
X360330357Y-122323571D02*
X360663690Y-122323571D01*
X360806547Y-122847380D02*
X360330357Y-122847380D01*
X360330357Y-121847380D01*
X360806547Y-121847380D01*
X361997023Y-122323571D02*
X362330357Y-122323571D01*
X362473214Y-122847380D02*
X361997023Y-122847380D01*
X361997023Y-121847380D01*
X362473214Y-121847380D01*
X362901785Y-122847380D02*
X362901785Y-121847380D01*
X363282738Y-121847380D01*
X363377976Y-121895000D01*
X363425595Y-121942619D01*
X363473214Y-122037857D01*
X363473214Y-122180714D01*
X363425595Y-122275952D01*
X363377976Y-122323571D01*
X363282738Y-122371190D01*
X362901785Y-122371190D01*
X364092261Y-121847380D02*
X364282738Y-121847380D01*
X364377976Y-121895000D01*
X364473214Y-121990238D01*
X364520833Y-122180714D01*
X364520833Y-122514047D01*
X364473214Y-122704523D01*
X364377976Y-122799761D01*
X364282738Y-122847380D01*
X364092261Y-122847380D01*
X363997023Y-122799761D01*
X363901785Y-122704523D01*
X363854166Y-122514047D01*
X363854166Y-122180714D01*
X363901785Y-121990238D01*
X363997023Y-121895000D01*
X364092261Y-121847380D01*
X364854166Y-121847380D02*
X365520833Y-122847380D01*
X365520833Y-121847380D02*
X364854166Y-122847380D01*
X366092261Y-122371190D02*
X366092261Y-122847380D01*
X365758928Y-121847380D02*
X366092261Y-122371190D01*
X366425595Y-121847380D01*
X367520833Y-122847380D02*
X367520833Y-121847380D01*
X367997023Y-122847380D02*
X367997023Y-121847380D01*
X368568452Y-122847380D01*
X368568452Y-121847380D01*
X369044642Y-122847380D02*
X369044642Y-121847380D01*
X369616071Y-122847380D02*
X369187500Y-122275952D01*
X369616071Y-121847380D02*
X369044642Y-122418809D01*
X370092261Y-122799761D02*
X370092261Y-122847380D01*
X370044642Y-122942619D01*
X369997023Y-122990238D01*
X371854166Y-122752142D02*
X371806547Y-122799761D01*
X371663690Y-122847380D01*
X371568452Y-122847380D01*
X371425595Y-122799761D01*
X371330357Y-122704523D01*
X371282738Y-122609285D01*
X371235119Y-122418809D01*
X371235119Y-122275952D01*
X371282738Y-122085476D01*
X371330357Y-121990238D01*
X371425595Y-121895000D01*
X371568452Y-121847380D01*
X371663690Y-121847380D01*
X371806547Y-121895000D01*
X371854166Y-121942619D01*
X372473214Y-121847380D02*
X372663690Y-121847380D01*
X372758928Y-121895000D01*
X372854166Y-121990238D01*
X372901785Y-122180714D01*
X372901785Y-122514047D01*
X372854166Y-122704523D01*
X372758928Y-122799761D01*
X372663690Y-122847380D01*
X372473214Y-122847380D01*
X372377976Y-122799761D01*
X372282738Y-122704523D01*
X372235119Y-122514047D01*
X372235119Y-122180714D01*
X372282738Y-121990238D01*
X372377976Y-121895000D01*
X372473214Y-121847380D01*
X373806547Y-122847380D02*
X373330357Y-122847380D01*
X373330357Y-121847380D01*
X374330357Y-121847380D02*
X374520833Y-121847380D01*
X374616071Y-121895000D01*
X374711309Y-121990238D01*
X374758928Y-122180714D01*
X374758928Y-122514047D01*
X374711309Y-122704523D01*
X374616071Y-122799761D01*
X374520833Y-122847380D01*
X374330357Y-122847380D01*
X374235119Y-122799761D01*
X374139880Y-122704523D01*
X374092261Y-122514047D01*
X374092261Y-122180714D01*
X374139880Y-121990238D01*
X374235119Y-121895000D01*
X374330357Y-121847380D01*
X375758928Y-122847380D02*
X375425595Y-122371190D01*
X375187500Y-122847380D02*
X375187500Y-121847380D01*
X375568452Y-121847380D01*
X375663690Y-121895000D01*
X375711309Y-121942619D01*
X375758928Y-122037857D01*
X375758928Y-122180714D01*
X375711309Y-122275952D01*
X375663690Y-122323571D01*
X375568452Y-122371190D01*
X375187500Y-122371190D01*
X348044642Y-123933571D02*
X348187500Y-123981190D01*
X348235119Y-124028809D01*
X348282738Y-124124047D01*
X348282738Y-124266904D01*
X348235119Y-124362142D01*
X348187500Y-124409761D01*
X348092261Y-124457380D01*
X347711309Y-124457380D01*
X347711309Y-123457380D01*
X348044642Y-123457380D01*
X348139880Y-123505000D01*
X348187500Y-123552619D01*
X348235119Y-123647857D01*
X348235119Y-123743095D01*
X348187500Y-123838333D01*
X348139880Y-123885952D01*
X348044642Y-123933571D01*
X347711309Y-123933571D01*
X349187500Y-124457380D02*
X348711309Y-124457380D01*
X348711309Y-123457380D01*
X349473214Y-124171666D02*
X349949404Y-124171666D01*
X349377976Y-124457380D02*
X349711309Y-123457380D01*
X350044642Y-124457380D01*
X350949404Y-124362142D02*
X350901785Y-124409761D01*
X350758928Y-124457380D01*
X350663690Y-124457380D01*
X350520833Y-124409761D01*
X350425595Y-124314523D01*
X350377976Y-124219285D01*
X350330357Y-124028809D01*
X350330357Y-123885952D01*
X350377976Y-123695476D01*
X350425595Y-123600238D01*
X350520833Y-123505000D01*
X350663690Y-123457380D01*
X350758928Y-123457380D01*
X350901785Y-123505000D01*
X350949404Y-123552619D01*
X351377976Y-124457380D02*
X351377976Y-123457380D01*
X351949404Y-124457380D02*
X351520833Y-123885952D01*
X351949404Y-123457380D02*
X351377976Y-124028809D01*
X352377976Y-124362142D02*
X352425595Y-124409761D01*
X352377976Y-124457380D01*
X352330357Y-124409761D01*
X352377976Y-124362142D01*
X352377976Y-124457380D01*
X353616071Y-124457380D02*
X353616071Y-123457380D01*
X354187500Y-124457380D01*
X354187500Y-123457380D01*
X354854166Y-123457380D02*
X355044642Y-123457380D01*
X355139880Y-123505000D01*
X355235119Y-123600238D01*
X355282738Y-123790714D01*
X355282738Y-124124047D01*
X355235119Y-124314523D01*
X355139880Y-124409761D01*
X355044642Y-124457380D01*
X354854166Y-124457380D01*
X354758928Y-124409761D01*
X354663690Y-124314523D01*
X354616071Y-124124047D01*
X354616071Y-123790714D01*
X354663690Y-123600238D01*
X354758928Y-123505000D01*
X354854166Y-123457380D01*
X356473214Y-124457380D02*
X356473214Y-123457380D01*
X356949404Y-124457380D02*
X356949404Y-123457380D01*
X357520833Y-124457380D01*
X357520833Y-123457380D01*
X357997023Y-124457380D02*
X357997023Y-123457380D01*
X358568452Y-124457380D02*
X358139880Y-123885952D01*
X358568452Y-123457380D02*
X357997023Y-124028809D01*
X359711309Y-124409761D02*
X359854166Y-124457380D01*
X360092261Y-124457380D01*
X360187500Y-124409761D01*
X360235119Y-124362142D01*
X360282738Y-124266904D01*
X360282738Y-124171666D01*
X360235119Y-124076428D01*
X360187500Y-124028809D01*
X360092261Y-123981190D01*
X359901785Y-123933571D01*
X359806547Y-123885952D01*
X359758928Y-123838333D01*
X359711309Y-123743095D01*
X359711309Y-123647857D01*
X359758928Y-123552619D01*
X359806547Y-123505000D01*
X359901785Y-123457380D01*
X360139880Y-123457380D01*
X360282738Y-123505000D01*
X360711309Y-124457380D02*
X360711309Y-123457380D01*
X360711309Y-123933571D02*
X361282738Y-123933571D01*
X361282738Y-124457380D02*
X361282738Y-123457380D01*
X361711309Y-124171666D02*
X362187500Y-124171666D01*
X361616071Y-124457380D02*
X361949404Y-123457380D01*
X362282738Y-124457380D01*
X363092261Y-124457380D02*
X362616071Y-124457380D01*
X362616071Y-123457380D01*
X363901785Y-124457380D02*
X363425595Y-124457380D01*
X363425595Y-123457380D01*
X365330357Y-123933571D02*
X365473214Y-123981190D01*
X365520833Y-124028809D01*
X365568452Y-124124047D01*
X365568452Y-124266904D01*
X365520833Y-124362142D01*
X365473214Y-124409761D01*
X365377976Y-124457380D01*
X364997023Y-124457380D01*
X364997023Y-123457380D01*
X365330357Y-123457380D01*
X365425595Y-123505000D01*
X365473214Y-123552619D01*
X365520833Y-123647857D01*
X365520833Y-123743095D01*
X365473214Y-123838333D01*
X365425595Y-123885952D01*
X365330357Y-123933571D01*
X364997023Y-123933571D01*
X365997023Y-123933571D02*
X366330357Y-123933571D01*
X366473214Y-124457380D02*
X365997023Y-124457380D01*
X365997023Y-123457380D01*
X366473214Y-123457380D01*
X367854166Y-123457380D02*
X368044642Y-123457380D01*
X368139880Y-123505000D01*
X368235119Y-123600238D01*
X368282738Y-123790714D01*
X368282738Y-124124047D01*
X368235119Y-124314523D01*
X368139880Y-124409761D01*
X368044642Y-124457380D01*
X367854166Y-124457380D01*
X367758928Y-124409761D01*
X367663690Y-124314523D01*
X367616071Y-124124047D01*
X367616071Y-123790714D01*
X367663690Y-123600238D01*
X367758928Y-123505000D01*
X367854166Y-123457380D01*
X368711309Y-124457380D02*
X368711309Y-123457380D01*
X369282738Y-124457380D01*
X369282738Y-123457380D01*
X370520833Y-123933571D02*
X370854166Y-123933571D01*
X370997023Y-124457380D02*
X370520833Y-124457380D01*
X370520833Y-123457380D01*
X370997023Y-123457380D01*
X371330357Y-123457380D02*
X371997023Y-124457380D01*
X371997023Y-123457380D02*
X371330357Y-124457380D01*
X372377976Y-124457380D02*
X372377976Y-123457380D01*
X372758928Y-123457380D01*
X372854166Y-123505000D01*
X372901785Y-123552619D01*
X372949404Y-123647857D01*
X372949404Y-123790714D01*
X372901785Y-123885952D01*
X372854166Y-123933571D01*
X372758928Y-123981190D01*
X372377976Y-123981190D01*
X373568452Y-123457380D02*
X373758928Y-123457380D01*
X373854166Y-123505000D01*
X373949404Y-123600238D01*
X373997023Y-123790714D01*
X373997023Y-124124047D01*
X373949404Y-124314523D01*
X373854166Y-124409761D01*
X373758928Y-124457380D01*
X373568452Y-124457380D01*
X373473214Y-124409761D01*
X373377976Y-124314523D01*
X373330357Y-124124047D01*
X373330357Y-123790714D01*
X373377976Y-123600238D01*
X373473214Y-123505000D01*
X373568452Y-123457380D01*
X374377976Y-124409761D02*
X374520833Y-124457380D01*
X374758928Y-124457380D01*
X374854166Y-124409761D01*
X374901785Y-124362142D01*
X374949404Y-124266904D01*
X374949404Y-124171666D01*
X374901785Y-124076428D01*
X374854166Y-124028809D01*
X374758928Y-123981190D01*
X374568452Y-123933571D01*
X374473214Y-123885952D01*
X374425595Y-123838333D01*
X374377976Y-123743095D01*
X374377976Y-123647857D01*
X374425595Y-123552619D01*
X374473214Y-123505000D01*
X374568452Y-123457380D01*
X374806547Y-123457380D01*
X374949404Y-123505000D01*
X375377976Y-123933571D02*
X375711309Y-123933571D01*
X375854166Y-124457380D02*
X375377976Y-124457380D01*
X375377976Y-123457380D01*
X375854166Y-123457380D01*
X376282738Y-124457380D02*
X376282738Y-123457380D01*
X376520833Y-123457380D01*
X376663690Y-123505000D01*
X376758928Y-123600238D01*
X376806547Y-123695476D01*
X376854166Y-123885952D01*
X376854166Y-124028809D01*
X376806547Y-124219285D01*
X376758928Y-124314523D01*
X376663690Y-124409761D01*
X376520833Y-124457380D01*
X376282738Y-124457380D01*
X378044642Y-124457380D02*
X378044642Y-123457380D01*
X378425595Y-123457380D01*
X378520833Y-123505000D01*
X378568452Y-123552619D01*
X378616071Y-123647857D01*
X378616071Y-123790714D01*
X378568452Y-123885952D01*
X378520833Y-123933571D01*
X378425595Y-123981190D01*
X378044642Y-123981190D01*
X378997023Y-124171666D02*
X379473214Y-124171666D01*
X378901785Y-124457380D02*
X379235119Y-123457380D01*
X379568452Y-124457380D01*
X379901785Y-124457380D02*
X379901785Y-123457380D01*
X380139880Y-123457380D01*
X380282738Y-123505000D01*
X380377976Y-123600238D01*
X380425595Y-123695476D01*
X380473214Y-123885952D01*
X380473214Y-124028809D01*
X380425595Y-124219285D01*
X380377976Y-124314523D01*
X380282738Y-124409761D01*
X380139880Y-124457380D01*
X379901785Y-124457380D01*
X380854166Y-124409761D02*
X380997023Y-124457380D01*
X381235119Y-124457380D01*
X381330357Y-124409761D01*
X381377976Y-124362142D01*
X381425595Y-124266904D01*
X381425595Y-124171666D01*
X381377976Y-124076428D01*
X381330357Y-124028809D01*
X381235119Y-123981190D01*
X381044642Y-123933571D01*
X380949404Y-123885952D01*
X380901785Y-123838333D01*
X380854166Y-123743095D01*
X380854166Y-123647857D01*
X380901785Y-123552619D01*
X380949404Y-123505000D01*
X381044642Y-123457380D01*
X381282738Y-123457380D01*
X381425595Y-123505000D01*
X381854166Y-124362142D02*
X381901785Y-124409761D01*
X381854166Y-124457380D01*
X381806547Y-124409761D01*
X381854166Y-124362142D01*
X381854166Y-124457380D01*
X345854166Y-125067380D02*
X345663690Y-125067380D01*
X345568452Y-125115000D01*
X345520833Y-125162619D01*
X345425595Y-125305476D01*
X345377976Y-125495952D01*
X345377976Y-125876904D01*
X345425595Y-125972142D01*
X345473214Y-126019761D01*
X345568452Y-126067380D01*
X345758928Y-126067380D01*
X345854166Y-126019761D01*
X345901785Y-125972142D01*
X345949404Y-125876904D01*
X345949404Y-125638809D01*
X345901785Y-125543571D01*
X345854166Y-125495952D01*
X345758928Y-125448333D01*
X345568452Y-125448333D01*
X345473214Y-125495952D01*
X345425595Y-125543571D01*
X345377976Y-125638809D01*
X346377976Y-125972142D02*
X346425595Y-126019761D01*
X346377976Y-126067380D01*
X346330357Y-126019761D01*
X346377976Y-125972142D01*
X346377976Y-126067380D01*
X348139880Y-125115000D02*
X348044642Y-125067380D01*
X347901785Y-125067380D01*
X347758928Y-125115000D01*
X347663690Y-125210238D01*
X347616071Y-125305476D01*
X347568452Y-125495952D01*
X347568452Y-125638809D01*
X347616071Y-125829285D01*
X347663690Y-125924523D01*
X347758928Y-126019761D01*
X347901785Y-126067380D01*
X347997023Y-126067380D01*
X348139880Y-126019761D01*
X348187500Y-125972142D01*
X348187500Y-125638809D01*
X347997023Y-125638809D01*
X348616071Y-125543571D02*
X348949404Y-125543571D01*
X349092261Y-126067380D02*
X348616071Y-126067380D01*
X348616071Y-125067380D01*
X349092261Y-125067380D01*
X350092261Y-126067380D02*
X349758928Y-125591190D01*
X349520833Y-126067380D02*
X349520833Y-125067380D01*
X349901785Y-125067380D01*
X349997023Y-125115000D01*
X350044642Y-125162619D01*
X350092261Y-125257857D01*
X350092261Y-125400714D01*
X350044642Y-125495952D01*
X349997023Y-125543571D01*
X349901785Y-125591190D01*
X349520833Y-125591190D01*
X350854166Y-125543571D02*
X350997023Y-125591190D01*
X351044642Y-125638809D01*
X351092261Y-125734047D01*
X351092261Y-125876904D01*
X351044642Y-125972142D01*
X350997023Y-126019761D01*
X350901785Y-126067380D01*
X350520833Y-126067380D01*
X350520833Y-125067380D01*
X350854166Y-125067380D01*
X350949404Y-125115000D01*
X350997023Y-125162619D01*
X351044642Y-125257857D01*
X351044642Y-125353095D01*
X350997023Y-125448333D01*
X350949404Y-125495952D01*
X350854166Y-125543571D01*
X350520833Y-125543571D01*
X351520833Y-125543571D02*
X351854166Y-125543571D01*
X351997023Y-126067380D02*
X351520833Y-126067380D01*
X351520833Y-125067380D01*
X351997023Y-125067380D01*
X352997023Y-126067380D02*
X352663690Y-125591190D01*
X352425595Y-126067380D02*
X352425595Y-125067380D01*
X352806547Y-125067380D01*
X352901785Y-125115000D01*
X352949404Y-125162619D01*
X352997023Y-125257857D01*
X352997023Y-125400714D01*
X352949404Y-125495952D01*
X352901785Y-125543571D01*
X352806547Y-125591190D01*
X352425595Y-125591190D01*
X354139880Y-125781666D02*
X354616071Y-125781666D01*
X354044642Y-126067380D02*
X354377976Y-125067380D01*
X354711309Y-126067380D01*
X355616071Y-126067380D02*
X355282738Y-125591190D01*
X355044642Y-126067380D02*
X355044642Y-125067380D01*
X355425595Y-125067380D01*
X355520833Y-125115000D01*
X355568452Y-125162619D01*
X355616071Y-125257857D01*
X355616071Y-125400714D01*
X355568452Y-125495952D01*
X355520833Y-125543571D01*
X355425595Y-125591190D01*
X355044642Y-125591190D01*
X355901785Y-125067380D02*
X356473214Y-125067380D01*
X356187500Y-126067380D02*
X356187500Y-125067380D01*
X356711309Y-125067380D02*
X356949404Y-126067380D01*
X357139880Y-125353095D01*
X357330357Y-126067380D01*
X357568452Y-125067380D01*
X358139880Y-125067380D02*
X358330357Y-125067380D01*
X358425595Y-125115000D01*
X358520833Y-125210238D01*
X358568452Y-125400714D01*
X358568452Y-125734047D01*
X358520833Y-125924523D01*
X358425595Y-126019761D01*
X358330357Y-126067380D01*
X358139880Y-126067380D01*
X358044642Y-126019761D01*
X357949404Y-125924523D01*
X357901785Y-125734047D01*
X357901785Y-125400714D01*
X357949404Y-125210238D01*
X358044642Y-125115000D01*
X358139880Y-125067380D01*
X359568452Y-126067380D02*
X359235119Y-125591190D01*
X358997023Y-126067380D02*
X358997023Y-125067380D01*
X359377976Y-125067380D01*
X359473214Y-125115000D01*
X359520833Y-125162619D01*
X359568452Y-125257857D01*
X359568452Y-125400714D01*
X359520833Y-125495952D01*
X359473214Y-125543571D01*
X359377976Y-125591190D01*
X358997023Y-125591190D01*
X359997023Y-126067380D02*
X359997023Y-125067380D01*
X360568452Y-126067380D02*
X360139880Y-125495952D01*
X360568452Y-125067380D02*
X359997023Y-125638809D01*
X361758928Y-126067380D02*
X361758928Y-125067380D01*
X362139880Y-125067380D01*
X362235119Y-125115000D01*
X362282738Y-125162619D01*
X362330357Y-125257857D01*
X362330357Y-125400714D01*
X362282738Y-125495952D01*
X362235119Y-125543571D01*
X362139880Y-125591190D01*
X361758928Y-125591190D01*
X363330357Y-126067380D02*
X362997023Y-125591190D01*
X362758928Y-126067380D02*
X362758928Y-125067380D01*
X363139880Y-125067380D01*
X363235119Y-125115000D01*
X363282738Y-125162619D01*
X363330357Y-125257857D01*
X363330357Y-125400714D01*
X363282738Y-125495952D01*
X363235119Y-125543571D01*
X363139880Y-125591190D01*
X362758928Y-125591190D01*
X363949404Y-125067380D02*
X364139880Y-125067380D01*
X364235119Y-125115000D01*
X364330357Y-125210238D01*
X364377976Y-125400714D01*
X364377976Y-125734047D01*
X364330357Y-125924523D01*
X364235119Y-126019761D01*
X364139880Y-126067380D01*
X363949404Y-126067380D01*
X363854166Y-126019761D01*
X363758928Y-125924523D01*
X363711309Y-125734047D01*
X363711309Y-125400714D01*
X363758928Y-125210238D01*
X363854166Y-125115000D01*
X363949404Y-125067380D01*
X364663690Y-125067380D02*
X364997023Y-126067380D01*
X365330357Y-125067380D01*
X365663690Y-126067380D02*
X365663690Y-125067380D01*
X366139880Y-126067380D02*
X366139880Y-125067380D01*
X366377976Y-125067380D01*
X366520833Y-125115000D01*
X366616071Y-125210238D01*
X366663690Y-125305476D01*
X366711309Y-125495952D01*
X366711309Y-125638809D01*
X366663690Y-125829285D01*
X366616071Y-125924523D01*
X366520833Y-126019761D01*
X366377976Y-126067380D01*
X366139880Y-126067380D01*
X367139880Y-125543571D02*
X367473214Y-125543571D01*
X367616071Y-126067380D02*
X367139880Y-126067380D01*
X367139880Y-125067380D01*
X367616071Y-125067380D01*
X368044642Y-126067380D02*
X368044642Y-125067380D01*
X368282738Y-125067380D01*
X368425595Y-125115000D01*
X368520833Y-125210238D01*
X368568452Y-125305476D01*
X368616071Y-125495952D01*
X368616071Y-125638809D01*
X368568452Y-125829285D01*
X368520833Y-125924523D01*
X368425595Y-126019761D01*
X368282738Y-126067380D01*
X368044642Y-126067380D01*
X369044642Y-125972142D02*
X369092261Y-126019761D01*
X369044642Y-126067380D01*
X368997023Y-126019761D01*
X369044642Y-125972142D01*
X369044642Y-126067380D01*
X370282738Y-126067380D02*
X370282738Y-125067380D01*
X370854166Y-126067380D01*
X370854166Y-125067380D01*
X371520833Y-125067380D02*
X371711309Y-125067380D01*
X371806547Y-125115000D01*
X371901785Y-125210238D01*
X371949404Y-125400714D01*
X371949404Y-125734047D01*
X371901785Y-125924523D01*
X371806547Y-126019761D01*
X371711309Y-126067380D01*
X371520833Y-126067380D01*
X371425595Y-126019761D01*
X371330357Y-125924523D01*
X371282738Y-125734047D01*
X371282738Y-125400714D01*
X371330357Y-125210238D01*
X371425595Y-125115000D01*
X371520833Y-125067380D01*
X373092261Y-125781666D02*
X373568452Y-125781666D01*
X372997023Y-126067380D02*
X373330357Y-125067380D01*
X373663690Y-126067380D01*
X374473214Y-126067380D02*
X373997023Y-126067380D01*
X373997023Y-125067380D01*
X374663690Y-125067380D02*
X375235119Y-125067380D01*
X374949404Y-126067380D02*
X374949404Y-125067380D01*
X375568452Y-125543571D02*
X375901785Y-125543571D01*
X376044642Y-126067380D02*
X375568452Y-126067380D01*
X375568452Y-125067380D01*
X376044642Y-125067380D01*
X377044642Y-126067380D02*
X376711309Y-125591190D01*
X376473214Y-126067380D02*
X376473214Y-125067380D01*
X376854166Y-125067380D01*
X376949404Y-125115000D01*
X376997023Y-125162619D01*
X377044642Y-125257857D01*
X377044642Y-125400714D01*
X376997023Y-125495952D01*
X376949404Y-125543571D01*
X376854166Y-125591190D01*
X376473214Y-125591190D01*
X377425595Y-125781666D02*
X377901785Y-125781666D01*
X377330357Y-126067380D02*
X377663690Y-125067380D01*
X377997023Y-126067380D01*
X378187500Y-125067380D02*
X378758928Y-125067380D01*
X378473214Y-126067380D02*
X378473214Y-125067380D01*
X379092261Y-126067380D02*
X379092261Y-125067380D01*
X379758928Y-125067380D02*
X379949404Y-125067380D01*
X380044642Y-125115000D01*
X380139880Y-125210238D01*
X380187500Y-125400714D01*
X380187500Y-125734047D01*
X380139880Y-125924523D01*
X380044642Y-126019761D01*
X379949404Y-126067380D01*
X379758928Y-126067380D01*
X379663690Y-126019761D01*
X379568452Y-125924523D01*
X379520833Y-125734047D01*
X379520833Y-125400714D01*
X379568452Y-125210238D01*
X379663690Y-125115000D01*
X379758928Y-125067380D01*
X380616071Y-126067380D02*
X380616071Y-125067380D01*
X381187500Y-126067380D01*
X381187500Y-125067380D01*
X381616071Y-126019761D02*
X381758928Y-126067380D01*
X381997023Y-126067380D01*
X382092261Y-126019761D01*
X382139880Y-125972142D01*
X382187500Y-125876904D01*
X382187500Y-125781666D01*
X382139880Y-125686428D01*
X382092261Y-125638809D01*
X381997023Y-125591190D01*
X381806547Y-125543571D01*
X381711309Y-125495952D01*
X381663690Y-125448333D01*
X381616071Y-125353095D01*
X381616071Y-125257857D01*
X381663690Y-125162619D01*
X381711309Y-125115000D01*
X381806547Y-125067380D01*
X382044642Y-125067380D01*
X382187500Y-125115000D01*
X347568452Y-126677380D02*
X348139880Y-126677380D01*
X347854166Y-127677380D02*
X347854166Y-126677380D01*
X348663690Y-126677380D02*
X348854166Y-126677380D01*
X348949404Y-126725000D01*
X349044642Y-126820238D01*
X349092261Y-127010714D01*
X349092261Y-127344047D01*
X349044642Y-127534523D01*
X348949404Y-127629761D01*
X348854166Y-127677380D01*
X348663690Y-127677380D01*
X348568452Y-127629761D01*
X348473214Y-127534523D01*
X348425595Y-127344047D01*
X348425595Y-127010714D01*
X348473214Y-126820238D01*
X348568452Y-126725000D01*
X348663690Y-126677380D01*
X350806547Y-126725000D02*
X350711309Y-126677380D01*
X350568452Y-126677380D01*
X350425595Y-126725000D01*
X350330357Y-126820238D01*
X350282738Y-126915476D01*
X350235119Y-127105952D01*
X350235119Y-127248809D01*
X350282738Y-127439285D01*
X350330357Y-127534523D01*
X350425595Y-127629761D01*
X350568452Y-127677380D01*
X350663690Y-127677380D01*
X350806547Y-127629761D01*
X350854166Y-127582142D01*
X350854166Y-127248809D01*
X350663690Y-127248809D01*
X351282738Y-127153571D02*
X351616071Y-127153571D01*
X351758928Y-127677380D02*
X351282738Y-127677380D01*
X351282738Y-126677380D01*
X351758928Y-126677380D01*
X352758928Y-127677380D02*
X352425595Y-127201190D01*
X352187500Y-127677380D02*
X352187500Y-126677380D01*
X352568452Y-126677380D01*
X352663690Y-126725000D01*
X352711309Y-126772619D01*
X352758928Y-126867857D01*
X352758928Y-127010714D01*
X352711309Y-127105952D01*
X352663690Y-127153571D01*
X352568452Y-127201190D01*
X352187500Y-127201190D01*
X353520833Y-127153571D02*
X353663690Y-127201190D01*
X353711309Y-127248809D01*
X353758928Y-127344047D01*
X353758928Y-127486904D01*
X353711309Y-127582142D01*
X353663690Y-127629761D01*
X353568452Y-127677380D01*
X353187500Y-127677380D01*
X353187500Y-126677380D01*
X353520833Y-126677380D01*
X353616071Y-126725000D01*
X353663690Y-126772619D01*
X353711309Y-126867857D01*
X353711309Y-126963095D01*
X353663690Y-127058333D01*
X353616071Y-127105952D01*
X353520833Y-127153571D01*
X353187500Y-127153571D01*
X354187500Y-127153571D02*
X354520833Y-127153571D01*
X354663690Y-127677380D02*
X354187500Y-127677380D01*
X354187500Y-126677380D01*
X354663690Y-126677380D01*
X355663690Y-127677380D02*
X355330357Y-127201190D01*
X355092261Y-127677380D02*
X355092261Y-126677380D01*
X355473214Y-126677380D01*
X355568452Y-126725000D01*
X355616071Y-126772619D01*
X355663690Y-126867857D01*
X355663690Y-127010714D01*
X355616071Y-127105952D01*
X355568452Y-127153571D01*
X355473214Y-127201190D01*
X355092261Y-127201190D01*
X357187500Y-127153571D02*
X356854166Y-127153571D01*
X356854166Y-127677380D02*
X356854166Y-126677380D01*
X357330357Y-126677380D01*
X357711309Y-127677380D02*
X357711309Y-126677380D01*
X358663690Y-127677380D02*
X358187500Y-127677380D01*
X358187500Y-126677380D01*
X358997023Y-127153571D02*
X359330357Y-127153571D01*
X359473214Y-127677380D02*
X358997023Y-127677380D01*
X358997023Y-126677380D01*
X359473214Y-126677380D01*
X359854166Y-127629761D02*
X359997023Y-127677380D01*
X360235119Y-127677380D01*
X360330357Y-127629761D01*
X360377976Y-127582142D01*
X360425595Y-127486904D01*
X360425595Y-127391666D01*
X360377976Y-127296428D01*
X360330357Y-127248809D01*
X360235119Y-127201190D01*
X360044642Y-127153571D01*
X359949404Y-127105952D01*
X359901785Y-127058333D01*
X359854166Y-126963095D01*
X359854166Y-126867857D01*
X359901785Y-126772619D01*
X359949404Y-126725000D01*
X360044642Y-126677380D01*
X360282738Y-126677380D01*
X360425595Y-126725000D01*
X361520833Y-126677380D02*
X361758928Y-127677380D01*
X361949404Y-126963095D01*
X362139880Y-127677380D01*
X362377976Y-126677380D01*
X362758928Y-127677380D02*
X362758928Y-126677380D01*
X363092261Y-126677380D02*
X363663690Y-126677380D01*
X363377976Y-127677380D02*
X363377976Y-126677380D01*
X363997023Y-127677380D02*
X363997023Y-126677380D01*
X363997023Y-127153571D02*
X364568452Y-127153571D01*
X364568452Y-127677380D02*
X364568452Y-126677380D01*
X365235119Y-126677380D02*
X365425595Y-126677380D01*
X365520833Y-126725000D01*
X365616071Y-126820238D01*
X365663690Y-127010714D01*
X365663690Y-127344047D01*
X365616071Y-127534523D01*
X365520833Y-127629761D01*
X365425595Y-127677380D01*
X365235119Y-127677380D01*
X365139880Y-127629761D01*
X365044642Y-127534523D01*
X364997023Y-127344047D01*
X364997023Y-127010714D01*
X365044642Y-126820238D01*
X365139880Y-126725000D01*
X365235119Y-126677380D01*
X366092261Y-126677380D02*
X366092261Y-127486904D01*
X366139880Y-127582142D01*
X366187500Y-127629761D01*
X366282738Y-127677380D01*
X366473214Y-127677380D01*
X366568452Y-127629761D01*
X366616071Y-127582142D01*
X366663690Y-127486904D01*
X366663690Y-126677380D01*
X366997023Y-126677380D02*
X367568452Y-126677380D01*
X367282738Y-127677380D02*
X367282738Y-126677380D01*
X368663690Y-127677380D02*
X368663690Y-126677380D01*
X369044642Y-126677380D01*
X369139880Y-126725000D01*
X369187500Y-126772619D01*
X369235119Y-126867857D01*
X369235119Y-127010714D01*
X369187500Y-127105952D01*
X369139880Y-127153571D01*
X369044642Y-127201190D01*
X368663690Y-127201190D01*
X370235119Y-127677380D02*
X369901785Y-127201190D01*
X369663690Y-127677380D02*
X369663690Y-126677380D01*
X370044642Y-126677380D01*
X370139880Y-126725000D01*
X370187500Y-126772619D01*
X370235119Y-126867857D01*
X370235119Y-127010714D01*
X370187500Y-127105952D01*
X370139880Y-127153571D01*
X370044642Y-127201190D01*
X369663690Y-127201190D01*
X370663690Y-127677380D02*
X370663690Y-126677380D01*
X371330357Y-126677380D02*
X371520833Y-126677380D01*
X371616071Y-126725000D01*
X371711309Y-126820238D01*
X371758928Y-127010714D01*
X371758928Y-127344047D01*
X371711309Y-127534523D01*
X371616071Y-127629761D01*
X371520833Y-127677380D01*
X371330357Y-127677380D01*
X371235119Y-127629761D01*
X371139880Y-127534523D01*
X371092261Y-127344047D01*
X371092261Y-127010714D01*
X371139880Y-126820238D01*
X371235119Y-126725000D01*
X371330357Y-126677380D01*
X372758928Y-127677380D02*
X372425595Y-127201190D01*
X372187500Y-127677380D02*
X372187500Y-126677380D01*
X372568452Y-126677380D01*
X372663690Y-126725000D01*
X372711309Y-126772619D01*
X372758928Y-126867857D01*
X372758928Y-127010714D01*
X372711309Y-127105952D01*
X372663690Y-127153571D01*
X372568452Y-127201190D01*
X372187500Y-127201190D01*
X374520833Y-127582142D02*
X374473214Y-127629761D01*
X374330357Y-127677380D01*
X374235119Y-127677380D01*
X374092261Y-127629761D01*
X373997023Y-127534523D01*
X373949404Y-127439285D01*
X373901785Y-127248809D01*
X373901785Y-127105952D01*
X373949404Y-126915476D01*
X373997023Y-126820238D01*
X374092261Y-126725000D01*
X374235119Y-126677380D01*
X374330357Y-126677380D01*
X374473214Y-126725000D01*
X374520833Y-126772619D01*
X375139880Y-126677380D02*
X375330357Y-126677380D01*
X375425595Y-126725000D01*
X375520833Y-126820238D01*
X375568452Y-127010714D01*
X375568452Y-127344047D01*
X375520833Y-127534523D01*
X375425595Y-127629761D01*
X375330357Y-127677380D01*
X375139880Y-127677380D01*
X375044642Y-127629761D01*
X374949404Y-127534523D01*
X374901785Y-127344047D01*
X374901785Y-127010714D01*
X374949404Y-126820238D01*
X375044642Y-126725000D01*
X375139880Y-126677380D01*
X375997023Y-127677380D02*
X375997023Y-126677380D01*
X376568452Y-127677380D01*
X376568452Y-126677380D01*
X376997023Y-127629761D02*
X377139880Y-127677380D01*
X377377976Y-127677380D01*
X377473214Y-127629761D01*
X377520833Y-127582142D01*
X377568452Y-127486904D01*
X377568452Y-127391666D01*
X377520833Y-127296428D01*
X377473214Y-127248809D01*
X377377976Y-127201190D01*
X377187500Y-127153571D01*
X377092261Y-127105952D01*
X377044642Y-127058333D01*
X376997023Y-126963095D01*
X376997023Y-126867857D01*
X377044642Y-126772619D01*
X377092261Y-126725000D01*
X377187500Y-126677380D01*
X377425595Y-126677380D01*
X377568452Y-126725000D01*
X377997023Y-127153571D02*
X378330357Y-127153571D01*
X378473214Y-127677380D02*
X377997023Y-127677380D01*
X377997023Y-126677380D01*
X378473214Y-126677380D01*
X378901785Y-127677380D02*
X378901785Y-126677380D01*
X379473214Y-127677380D01*
X379473214Y-126677380D01*
X379806547Y-126677380D02*
X380377976Y-126677380D01*
X380092261Y-127677380D02*
X380092261Y-126677380D01*
X380711309Y-127582142D02*
X380758928Y-127629761D01*
X380711309Y-127677380D01*
X380663690Y-127629761D01*
X380711309Y-127582142D01*
X380711309Y-127677380D01*
X345330357Y-128287380D02*
X345997023Y-128287380D01*
X345568452Y-129287380D01*
X346377976Y-129192142D02*
X346425595Y-129239761D01*
X346377976Y-129287380D01*
X346330357Y-129239761D01*
X346377976Y-129192142D01*
X346377976Y-129287380D01*
X347568452Y-129001666D02*
X348044642Y-129001666D01*
X347473214Y-129287380D02*
X347806547Y-128287380D01*
X348139880Y-129287380D01*
X348949404Y-129287380D02*
X348473214Y-129287380D01*
X348473214Y-128287380D01*
X349758928Y-129287380D02*
X349282738Y-129287380D01*
X349282738Y-128287380D01*
X350854166Y-129287380D02*
X350854166Y-128287380D01*
X351092261Y-128287380D01*
X351235119Y-128335000D01*
X351330357Y-128430238D01*
X351377976Y-128525476D01*
X351425595Y-128715952D01*
X351425595Y-128858809D01*
X351377976Y-129049285D01*
X351330357Y-129144523D01*
X351235119Y-129239761D01*
X351092261Y-129287380D01*
X350854166Y-129287380D01*
X351854166Y-129287380D02*
X351854166Y-128287380D01*
X352330357Y-129287380D02*
X352330357Y-128287380D01*
X352663690Y-129001666D01*
X352997023Y-128287380D01*
X352997023Y-129287380D01*
X353473214Y-128763571D02*
X353806547Y-128763571D01*
X353949404Y-129287380D02*
X353473214Y-129287380D01*
X353473214Y-128287380D01*
X353949404Y-128287380D01*
X354377976Y-129287380D02*
X354377976Y-128287380D01*
X354949404Y-129287380D01*
X354949404Y-128287380D01*
X355377976Y-129239761D02*
X355520833Y-129287380D01*
X355758928Y-129287380D01*
X355854166Y-129239761D01*
X355901785Y-129192142D01*
X355949404Y-129096904D01*
X355949404Y-129001666D01*
X355901785Y-128906428D01*
X355854166Y-128858809D01*
X355758928Y-128811190D01*
X355568452Y-128763571D01*
X355473214Y-128715952D01*
X355425595Y-128668333D01*
X355377976Y-128573095D01*
X355377976Y-128477857D01*
X355425595Y-128382619D01*
X355473214Y-128335000D01*
X355568452Y-128287380D01*
X355806547Y-128287380D01*
X355949404Y-128335000D01*
X356377976Y-129287380D02*
X356377976Y-128287380D01*
X357044642Y-128287380D02*
X357235119Y-128287380D01*
X357330357Y-128335000D01*
X357425595Y-128430238D01*
X357473214Y-128620714D01*
X357473214Y-128954047D01*
X357425595Y-129144523D01*
X357330357Y-129239761D01*
X357235119Y-129287380D01*
X357044642Y-129287380D01*
X356949404Y-129239761D01*
X356854166Y-129144523D01*
X356806547Y-128954047D01*
X356806547Y-128620714D01*
X356854166Y-128430238D01*
X356949404Y-128335000D01*
X357044642Y-128287380D01*
X357901785Y-129287380D02*
X357901785Y-128287380D01*
X358473214Y-129287380D01*
X358473214Y-128287380D01*
X358901785Y-129239761D02*
X359044642Y-129287380D01*
X359282738Y-129287380D01*
X359377976Y-129239761D01*
X359425595Y-129192142D01*
X359473214Y-129096904D01*
X359473214Y-129001666D01*
X359425595Y-128906428D01*
X359377976Y-128858809D01*
X359282738Y-128811190D01*
X359092261Y-128763571D01*
X358997023Y-128715952D01*
X358949404Y-128668333D01*
X358901785Y-128573095D01*
X358901785Y-128477857D01*
X358949404Y-128382619D01*
X358997023Y-128335000D01*
X359092261Y-128287380D01*
X359330357Y-128287380D01*
X359473214Y-128335000D01*
X360616071Y-129001666D02*
X361092261Y-129001666D01*
X360520833Y-129287380D02*
X360854166Y-128287380D01*
X361187500Y-129287380D01*
X362092261Y-129287380D02*
X361758928Y-128811190D01*
X361520833Y-129287380D02*
X361520833Y-128287380D01*
X361901785Y-128287380D01*
X361997023Y-128335000D01*
X362044642Y-128382619D01*
X362092261Y-128477857D01*
X362092261Y-128620714D01*
X362044642Y-128715952D01*
X361997023Y-128763571D01*
X361901785Y-128811190D01*
X361520833Y-128811190D01*
X362520833Y-128763571D02*
X362854166Y-128763571D01*
X362997023Y-129287380D02*
X362520833Y-129287380D01*
X362520833Y-128287380D01*
X362997023Y-128287380D01*
X364187500Y-129287380D02*
X364187500Y-128287380D01*
X364663690Y-129287380D02*
X364663690Y-128287380D01*
X365235119Y-129287380D01*
X365235119Y-128287380D01*
X366473214Y-129287380D02*
X366473214Y-128287380D01*
X366806547Y-129001666D01*
X367139880Y-128287380D01*
X367139880Y-129287380D01*
X367616071Y-129287380D02*
X367616071Y-128287380D01*
X368568452Y-129287380D02*
X368092261Y-129287380D01*
X368092261Y-128287380D01*
X369377976Y-129287380D02*
X368901785Y-129287380D01*
X368901785Y-128287380D01*
X369711309Y-129287380D02*
X369711309Y-128287380D01*
X370187500Y-129287380D02*
X370187500Y-128287380D01*
X370520833Y-129001666D01*
X370854166Y-128287380D01*
X370854166Y-129287380D01*
X371330357Y-128763571D02*
X371663690Y-128763571D01*
X371806547Y-129287380D02*
X371330357Y-129287380D01*
X371330357Y-128287380D01*
X371806547Y-128287380D01*
X372092261Y-128287380D02*
X372663690Y-128287380D01*
X372377976Y-129287380D02*
X372377976Y-128287380D01*
X372997023Y-128763571D02*
X373330357Y-128763571D01*
X373473214Y-129287380D02*
X372997023Y-129287380D01*
X372997023Y-128287380D01*
X373473214Y-128287380D01*
X374473214Y-129287380D02*
X374139880Y-128811190D01*
X373901785Y-129287380D02*
X373901785Y-128287380D01*
X374282738Y-128287380D01*
X374377976Y-128335000D01*
X374425595Y-128382619D01*
X374473214Y-128477857D01*
X374473214Y-128620714D01*
X374425595Y-128715952D01*
X374377976Y-128763571D01*
X374282738Y-128811190D01*
X373901785Y-128811190D01*
X374854166Y-129239761D02*
X374997023Y-129287380D01*
X375235119Y-129287380D01*
X375330357Y-129239761D01*
X375377976Y-129192142D01*
X375425595Y-129096904D01*
X375425595Y-129001666D01*
X375377976Y-128906428D01*
X375330357Y-128858809D01*
X375235119Y-128811190D01*
X375044642Y-128763571D01*
X374949404Y-128715952D01*
X374901785Y-128668333D01*
X374854166Y-128573095D01*
X374854166Y-128477857D01*
X374901785Y-128382619D01*
X374949404Y-128335000D01*
X375044642Y-128287380D01*
X375282738Y-128287380D01*
X375425595Y-128335000D01*
X375854166Y-129192142D02*
X375901785Y-129239761D01*
X375854166Y-129287380D01*
X375806547Y-129239761D01*
X375854166Y-129192142D01*
X375854166Y-129287380D01*
X376949404Y-128287380D02*
X377520833Y-128287380D01*
X377235119Y-129287380D02*
X377235119Y-128287380D01*
X378044642Y-128287380D02*
X378235119Y-128287380D01*
X378330357Y-128335000D01*
X378425595Y-128430238D01*
X378473214Y-128620714D01*
X378473214Y-128954047D01*
X378425595Y-129144523D01*
X378330357Y-129239761D01*
X378235119Y-129287380D01*
X378044642Y-129287380D01*
X377949404Y-129239761D01*
X377854166Y-129144523D01*
X377806547Y-128954047D01*
X377806547Y-128620714D01*
X377854166Y-128430238D01*
X377949404Y-128335000D01*
X378044642Y-128287380D01*
X379377976Y-129287380D02*
X378901785Y-129287380D01*
X378901785Y-128287380D01*
X379711309Y-128763571D02*
X380044642Y-128763571D01*
X380187500Y-129287380D02*
X379711309Y-129287380D01*
X379711309Y-128287380D01*
X380187500Y-128287380D01*
X381187500Y-129287380D02*
X380854166Y-128811190D01*
X380616071Y-129287380D02*
X380616071Y-128287380D01*
X380997023Y-128287380D01*
X381092261Y-128335000D01*
X381139880Y-128382619D01*
X381187500Y-128477857D01*
X381187500Y-128620714D01*
X381139880Y-128715952D01*
X381092261Y-128763571D01*
X380997023Y-128811190D01*
X380616071Y-128811190D01*
X381568452Y-129001666D02*
X382044642Y-129001666D01*
X381473214Y-129287380D02*
X381806547Y-128287380D01*
X382139880Y-129287380D01*
X382473214Y-129287380D02*
X382473214Y-128287380D01*
X383044642Y-129287380D01*
X383044642Y-128287380D01*
X384092261Y-129192142D02*
X384044642Y-129239761D01*
X383901785Y-129287380D01*
X383806547Y-129287380D01*
X383663690Y-129239761D01*
X383568452Y-129144523D01*
X383520833Y-129049285D01*
X383473214Y-128858809D01*
X383473214Y-128715952D01*
X383520833Y-128525476D01*
X383568452Y-128430238D01*
X383663690Y-128335000D01*
X383806547Y-128287380D01*
X383901785Y-128287380D01*
X384044642Y-128335000D01*
X384092261Y-128382619D01*
X384520833Y-128763571D02*
X384854166Y-128763571D01*
X384997023Y-129287380D02*
X384520833Y-129287380D01*
X384520833Y-128287380D01*
X384997023Y-128287380D01*
X385377976Y-129239761D02*
X385520833Y-129287380D01*
X385758928Y-129287380D01*
X385854166Y-129239761D01*
X385901785Y-129192142D01*
X385949404Y-129096904D01*
X385949404Y-129001666D01*
X385901785Y-128906428D01*
X385854166Y-128858809D01*
X385758928Y-128811190D01*
X385568452Y-128763571D01*
X385473214Y-128715952D01*
X385425595Y-128668333D01*
X385377976Y-128573095D01*
X385377976Y-128477857D01*
X385425595Y-128382619D01*
X385473214Y-128335000D01*
X385568452Y-128287380D01*
X385806547Y-128287380D01*
X385949404Y-128335000D01*
X347663690Y-130611666D02*
X348139880Y-130611666D01*
X347568452Y-130897380D02*
X347901785Y-129897380D01*
X348235119Y-130897380D01*
X349139880Y-130897380D02*
X348806547Y-130421190D01*
X348568452Y-130897380D02*
X348568452Y-129897380D01*
X348949404Y-129897380D01*
X349044642Y-129945000D01*
X349092261Y-129992619D01*
X349139880Y-130087857D01*
X349139880Y-130230714D01*
X349092261Y-130325952D01*
X349044642Y-130373571D01*
X348949404Y-130421190D01*
X348568452Y-130421190D01*
X349568452Y-130373571D02*
X349901785Y-130373571D01*
X350044642Y-130897380D02*
X349568452Y-130897380D01*
X349568452Y-129897380D01*
X350044642Y-129897380D01*
X351187500Y-130611666D02*
X351663690Y-130611666D01*
X351092261Y-130897380D02*
X351425595Y-129897380D01*
X351758928Y-130897380D01*
X352044642Y-130849761D02*
X352187500Y-130897380D01*
X352425595Y-130897380D01*
X352520833Y-130849761D01*
X352568452Y-130802142D01*
X352616071Y-130706904D01*
X352616071Y-130611666D01*
X352568452Y-130516428D01*
X352520833Y-130468809D01*
X352425595Y-130421190D01*
X352235119Y-130373571D01*
X352139880Y-130325952D01*
X352092261Y-130278333D01*
X352044642Y-130183095D01*
X352044642Y-130087857D01*
X352092261Y-129992619D01*
X352139880Y-129945000D01*
X352235119Y-129897380D01*
X352473214Y-129897380D01*
X352616071Y-129945000D01*
X354139880Y-130373571D02*
X353806547Y-130373571D01*
X353806547Y-130897380D02*
X353806547Y-129897380D01*
X354282738Y-129897380D01*
X354854166Y-129897380D02*
X355044642Y-129897380D01*
X355139880Y-129945000D01*
X355235119Y-130040238D01*
X355282738Y-130230714D01*
X355282738Y-130564047D01*
X355235119Y-130754523D01*
X355139880Y-130849761D01*
X355044642Y-130897380D01*
X354854166Y-130897380D01*
X354758928Y-130849761D01*
X354663690Y-130754523D01*
X354616071Y-130564047D01*
X354616071Y-130230714D01*
X354663690Y-130040238D01*
X354758928Y-129945000D01*
X354854166Y-129897380D01*
X356187500Y-130897380D02*
X355711309Y-130897380D01*
X355711309Y-129897380D01*
X356997023Y-130897380D02*
X356520833Y-130897380D01*
X356520833Y-129897380D01*
X357520833Y-129897380D02*
X357711309Y-129897380D01*
X357806547Y-129945000D01*
X357901785Y-130040238D01*
X357949404Y-130230714D01*
X357949404Y-130564047D01*
X357901785Y-130754523D01*
X357806547Y-130849761D01*
X357711309Y-130897380D01*
X357520833Y-130897380D01*
X357425595Y-130849761D01*
X357330357Y-130754523D01*
X357282738Y-130564047D01*
X357282738Y-130230714D01*
X357330357Y-130040238D01*
X357425595Y-129945000D01*
X357520833Y-129897380D01*
X358282738Y-129897380D02*
X358520833Y-130897380D01*
X358711309Y-130183095D01*
X358901785Y-130897380D01*
X359139880Y-129897380D01*
X359473214Y-130849761D02*
X359616071Y-130897380D01*
X359854166Y-130897380D01*
X359949404Y-130849761D01*
X359997023Y-130802142D01*
X360044642Y-130706904D01*
X360044642Y-130611666D01*
X359997023Y-130516428D01*
X359949404Y-130468809D01*
X359854166Y-130421190D01*
X359663690Y-130373571D01*
X359568452Y-130325952D01*
X359520833Y-130278333D01*
X359473214Y-130183095D01*
X359473214Y-130087857D01*
X359520833Y-129992619D01*
X359568452Y-129945000D01*
X359663690Y-129897380D01*
X359901785Y-129897380D01*
X360044642Y-129945000D01*
X350758928Y-132412142D02*
X350806547Y-132459761D01*
X350758928Y-132507380D01*
X350711309Y-132459761D01*
X350758928Y-132412142D01*
X350758928Y-132507380D01*
X351139880Y-131507380D02*
X351806547Y-132507380D01*
X351806547Y-131507380D02*
X351139880Y-132507380D01*
X352949404Y-132126428D02*
X353711309Y-132126428D01*
X353330357Y-132507380D02*
X353330357Y-131745476D01*
X354901785Y-131459761D02*
X354044642Y-132745476D01*
X355235119Y-132126428D02*
X355997023Y-132126428D01*
X357235119Y-132412142D02*
X357282738Y-132459761D01*
X357235119Y-132507380D01*
X357187500Y-132459761D01*
X357235119Y-132412142D01*
X357235119Y-132507380D01*
X358235119Y-132507380D02*
X357663690Y-132507380D01*
X357949404Y-132507380D02*
X357949404Y-131507380D01*
X357854166Y-131650238D01*
X357758928Y-131745476D01*
X357663690Y-131793095D01*
X358854166Y-131507380D02*
X358949404Y-131507380D01*
X359044642Y-131555000D01*
X359092261Y-131602619D01*
X359139880Y-131697857D01*
X359187500Y-131888333D01*
X359187500Y-132126428D01*
X359139880Y-132316904D01*
X359092261Y-132412142D01*
X359044642Y-132459761D01*
X358949404Y-132507380D01*
X358854166Y-132507380D01*
X358758928Y-132459761D01*
X358711309Y-132412142D01*
X358663690Y-132316904D01*
X358616071Y-132126428D01*
X358616071Y-131888333D01*
X358663690Y-131697857D01*
X358711309Y-131602619D01*
X358758928Y-131555000D01*
X358854166Y-131507380D01*
X351520833Y-134022142D02*
X351568452Y-134069761D01*
X351520833Y-134117380D01*
X351473214Y-134069761D01*
X351520833Y-134022142D01*
X351520833Y-134117380D01*
X351901785Y-133117380D02*
X352568452Y-134117380D01*
X352568452Y-133117380D02*
X351901785Y-134117380D01*
X352854166Y-133117380D02*
X353520833Y-134117380D01*
X353520833Y-133117380D02*
X352854166Y-134117380D01*
X353901785Y-134022142D02*
X353949404Y-134069761D01*
X353901785Y-134117380D01*
X353854166Y-134069761D01*
X353901785Y-134022142D01*
X353901785Y-134117380D01*
X353901785Y-133498333D02*
X353949404Y-133545952D01*
X353901785Y-133593571D01*
X353854166Y-133545952D01*
X353901785Y-133498333D01*
X353901785Y-133593571D01*
X355139880Y-133736428D02*
X355901785Y-133736428D01*
X355520833Y-134117380D02*
X355520833Y-133355476D01*
X357092261Y-133069761D02*
X356235119Y-134355476D01*
X357425595Y-133736428D02*
X358187500Y-133736428D01*
X359425595Y-134022142D02*
X359473214Y-134069761D01*
X359425595Y-134117380D01*
X359377976Y-134069761D01*
X359425595Y-134022142D01*
X359425595Y-134117380D01*
X360092261Y-133117380D02*
X360187500Y-133117380D01*
X360282738Y-133165000D01*
X360330357Y-133212619D01*
X360377976Y-133307857D01*
X360425595Y-133498333D01*
X360425595Y-133736428D01*
X360377976Y-133926904D01*
X360330357Y-134022142D01*
X360282738Y-134069761D01*
X360187500Y-134117380D01*
X360092261Y-134117380D01*
X359997023Y-134069761D01*
X359949404Y-134022142D01*
X359901785Y-133926904D01*
X359854166Y-133736428D01*
X359854166Y-133498333D01*
X359901785Y-133307857D01*
X359949404Y-133212619D01*
X359997023Y-133165000D01*
X360092261Y-133117380D01*
X361330357Y-133117380D02*
X360854166Y-133117380D01*
X360806547Y-133593571D01*
X360854166Y-133545952D01*
X360949404Y-133498333D01*
X361187500Y-133498333D01*
X361282738Y-133545952D01*
X361330357Y-133593571D01*
X361377976Y-133688809D01*
X361377976Y-133926904D01*
X361330357Y-134022142D01*
X361282738Y-134069761D01*
X361187500Y-134117380D01*
X360949404Y-134117380D01*
X360854166Y-134069761D01*
X360806547Y-134022142D01*
X345568452Y-135155952D02*
X345473214Y-135108333D01*
X345425595Y-135060714D01*
X345377976Y-134965476D01*
X345377976Y-134917857D01*
X345425595Y-134822619D01*
X345473214Y-134775000D01*
X345568452Y-134727380D01*
X345758928Y-134727380D01*
X345854166Y-134775000D01*
X345901785Y-134822619D01*
X345949404Y-134917857D01*
X345949404Y-134965476D01*
X345901785Y-135060714D01*
X345854166Y-135108333D01*
X345758928Y-135155952D01*
X345568452Y-135155952D01*
X345473214Y-135203571D01*
X345425595Y-135251190D01*
X345377976Y-135346428D01*
X345377976Y-135536904D01*
X345425595Y-135632142D01*
X345473214Y-135679761D01*
X345568452Y-135727380D01*
X345758928Y-135727380D01*
X345854166Y-135679761D01*
X345901785Y-135632142D01*
X345949404Y-135536904D01*
X345949404Y-135346428D01*
X345901785Y-135251190D01*
X345854166Y-135203571D01*
X345758928Y-135155952D01*
X346377976Y-135632142D02*
X346425595Y-135679761D01*
X346377976Y-135727380D01*
X346330357Y-135679761D01*
X346377976Y-135632142D01*
X346377976Y-135727380D01*
X347520833Y-134727380D02*
X347758928Y-135727380D01*
X347949404Y-135013095D01*
X348139880Y-135727380D01*
X348377976Y-134727380D01*
X348711309Y-135441666D02*
X349187500Y-135441666D01*
X348616071Y-135727380D02*
X348949404Y-134727380D01*
X349282738Y-135727380D01*
X350187500Y-135727380D02*
X349854166Y-135251190D01*
X349616071Y-135727380D02*
X349616071Y-134727380D01*
X349997023Y-134727380D01*
X350092261Y-134775000D01*
X350139880Y-134822619D01*
X350187500Y-134917857D01*
X350187500Y-135060714D01*
X350139880Y-135155952D01*
X350092261Y-135203571D01*
X349997023Y-135251190D01*
X349616071Y-135251190D01*
X350616071Y-135727380D02*
X350616071Y-134727380D01*
X350997023Y-134727380D01*
X351092261Y-134775000D01*
X351139880Y-134822619D01*
X351187500Y-134917857D01*
X351187500Y-135060714D01*
X351139880Y-135155952D01*
X351092261Y-135203571D01*
X350997023Y-135251190D01*
X350616071Y-135251190D01*
X352568452Y-134727380D02*
X352758928Y-134727380D01*
X352854166Y-134775000D01*
X352949404Y-134870238D01*
X352997023Y-135060714D01*
X352997023Y-135394047D01*
X352949404Y-135584523D01*
X352854166Y-135679761D01*
X352758928Y-135727380D01*
X352568452Y-135727380D01*
X352473214Y-135679761D01*
X352377976Y-135584523D01*
X352330357Y-135394047D01*
X352330357Y-135060714D01*
X352377976Y-134870238D01*
X352473214Y-134775000D01*
X352568452Y-134727380D01*
X353997023Y-135727380D02*
X353663690Y-135251190D01*
X353425595Y-135727380D02*
X353425595Y-134727380D01*
X353806547Y-134727380D01*
X353901785Y-134775000D01*
X353949404Y-134822619D01*
X353997023Y-134917857D01*
X353997023Y-135060714D01*
X353949404Y-135155952D01*
X353901785Y-135203571D01*
X353806547Y-135251190D01*
X353425595Y-135251190D01*
X355044642Y-134727380D02*
X355616071Y-134727380D01*
X355330357Y-135727380D02*
X355330357Y-134727380D01*
X355854166Y-134727380D02*
X356092261Y-135727380D01*
X356282738Y-135013095D01*
X356473214Y-135727380D01*
X356711309Y-134727380D01*
X357092261Y-135727380D02*
X357092261Y-134727380D01*
X357520833Y-135679761D02*
X357663690Y-135727380D01*
X357901785Y-135727380D01*
X357997023Y-135679761D01*
X358044642Y-135632142D01*
X358092261Y-135536904D01*
X358092261Y-135441666D01*
X358044642Y-135346428D01*
X357997023Y-135298809D01*
X357901785Y-135251190D01*
X357711309Y-135203571D01*
X357616071Y-135155952D01*
X357568452Y-135108333D01*
X357520833Y-135013095D01*
X357520833Y-134917857D01*
X357568452Y-134822619D01*
X357616071Y-134775000D01*
X357711309Y-134727380D01*
X357949404Y-134727380D01*
X358092261Y-134775000D01*
X358377976Y-134727380D02*
X358949404Y-134727380D01*
X358663690Y-135727380D02*
X358663690Y-134727380D01*
X360235119Y-134727380D02*
X360425595Y-134727380D01*
X360520833Y-134775000D01*
X360616071Y-134870238D01*
X360663690Y-135060714D01*
X360663690Y-135394047D01*
X360616071Y-135584523D01*
X360520833Y-135679761D01*
X360425595Y-135727380D01*
X360235119Y-135727380D01*
X360139880Y-135679761D01*
X360044642Y-135584523D01*
X359997023Y-135394047D01*
X359997023Y-135060714D01*
X360044642Y-134870238D01*
X360139880Y-134775000D01*
X360235119Y-134727380D01*
X361425595Y-135203571D02*
X361092261Y-135203571D01*
X361092261Y-135727380D02*
X361092261Y-134727380D01*
X361568452Y-134727380D01*
X363044642Y-135203571D02*
X363187500Y-135251190D01*
X363235119Y-135298809D01*
X363282738Y-135394047D01*
X363282738Y-135536904D01*
X363235119Y-135632142D01*
X363187500Y-135679761D01*
X363092261Y-135727380D01*
X362711309Y-135727380D01*
X362711309Y-134727380D01*
X363044642Y-134727380D01*
X363139880Y-134775000D01*
X363187500Y-134822619D01*
X363235119Y-134917857D01*
X363235119Y-135013095D01*
X363187500Y-135108333D01*
X363139880Y-135155952D01*
X363044642Y-135203571D01*
X362711309Y-135203571D01*
X363901785Y-134727380D02*
X364092261Y-134727380D01*
X364187500Y-134775000D01*
X364282738Y-134870238D01*
X364330357Y-135060714D01*
X364330357Y-135394047D01*
X364282738Y-135584523D01*
X364187500Y-135679761D01*
X364092261Y-135727380D01*
X363901785Y-135727380D01*
X363806547Y-135679761D01*
X363711309Y-135584523D01*
X363663690Y-135394047D01*
X363663690Y-135060714D01*
X363711309Y-134870238D01*
X363806547Y-134775000D01*
X363901785Y-134727380D01*
X364711309Y-135441666D02*
X365187500Y-135441666D01*
X364616071Y-135727380D02*
X364949404Y-134727380D01*
X365282738Y-135727380D01*
X366187500Y-135727380D02*
X365854166Y-135251190D01*
X365616071Y-135727380D02*
X365616071Y-134727380D01*
X365997023Y-134727380D01*
X366092261Y-134775000D01*
X366139880Y-134822619D01*
X366187500Y-134917857D01*
X366187500Y-135060714D01*
X366139880Y-135155952D01*
X366092261Y-135203571D01*
X365997023Y-135251190D01*
X365616071Y-135251190D01*
X366616071Y-135727380D02*
X366616071Y-134727380D01*
X366854166Y-134727380D01*
X366997023Y-134775000D01*
X367092261Y-134870238D01*
X367139880Y-134965476D01*
X367187500Y-135155952D01*
X367187500Y-135298809D01*
X367139880Y-135489285D01*
X367092261Y-135584523D01*
X366997023Y-135679761D01*
X366854166Y-135727380D01*
X366616071Y-135727380D01*
X368330357Y-135679761D02*
X368473214Y-135727380D01*
X368711309Y-135727380D01*
X368806547Y-135679761D01*
X368854166Y-135632142D01*
X368901785Y-135536904D01*
X368901785Y-135441666D01*
X368854166Y-135346428D01*
X368806547Y-135298809D01*
X368711309Y-135251190D01*
X368520833Y-135203571D01*
X368425595Y-135155952D01*
X368377976Y-135108333D01*
X368330357Y-135013095D01*
X368330357Y-134917857D01*
X368377976Y-134822619D01*
X368425595Y-134775000D01*
X368520833Y-134727380D01*
X368758928Y-134727380D01*
X368901785Y-134775000D01*
X369330357Y-135727380D02*
X369330357Y-134727380D01*
X369330357Y-135203571D02*
X369901785Y-135203571D01*
X369901785Y-135727380D02*
X369901785Y-134727380D01*
X370330357Y-135441666D02*
X370806547Y-135441666D01*
X370235119Y-135727380D02*
X370568452Y-134727380D01*
X370901785Y-135727380D01*
X371711309Y-135727380D02*
X371235119Y-135727380D01*
X371235119Y-134727380D01*
X372520833Y-135727380D02*
X372044642Y-135727380D01*
X372044642Y-134727380D01*
X373616071Y-135727380D02*
X373616071Y-134727380D01*
X374187500Y-135727380D01*
X374187500Y-134727380D01*
X374854166Y-134727380D02*
X375044642Y-134727380D01*
X375139880Y-134775000D01*
X375235119Y-134870238D01*
X375282738Y-135060714D01*
X375282738Y-135394047D01*
X375235119Y-135584523D01*
X375139880Y-135679761D01*
X375044642Y-135727380D01*
X374854166Y-135727380D01*
X374758928Y-135679761D01*
X374663690Y-135584523D01*
X374616071Y-135394047D01*
X374616071Y-135060714D01*
X374663690Y-134870238D01*
X374758928Y-134775000D01*
X374854166Y-134727380D01*
X375568452Y-134727380D02*
X376139880Y-134727380D01*
X375854166Y-135727380D02*
X375854166Y-134727380D01*
X348473214Y-136813571D02*
X348806547Y-136813571D01*
X348949404Y-137337380D02*
X348473214Y-137337380D01*
X348473214Y-136337380D01*
X348949404Y-136337380D01*
X349282738Y-136337380D02*
X349949404Y-137337380D01*
X349949404Y-136337380D02*
X349282738Y-137337380D01*
X350901785Y-137242142D02*
X350854166Y-137289761D01*
X350711309Y-137337380D01*
X350616071Y-137337380D01*
X350473214Y-137289761D01*
X350377976Y-137194523D01*
X350330357Y-137099285D01*
X350282738Y-136908809D01*
X350282738Y-136765952D01*
X350330357Y-136575476D01*
X350377976Y-136480238D01*
X350473214Y-136385000D01*
X350616071Y-136337380D01*
X350711309Y-136337380D01*
X350854166Y-136385000D01*
X350901785Y-136432619D01*
X351330357Y-136813571D02*
X351663690Y-136813571D01*
X351806547Y-137337380D02*
X351330357Y-137337380D01*
X351330357Y-136337380D01*
X351806547Y-136337380D01*
X352235119Y-136813571D02*
X352568452Y-136813571D01*
X352711309Y-137337380D02*
X352235119Y-137337380D01*
X352235119Y-136337380D01*
X352711309Y-136337380D01*
X353139880Y-137337380D02*
X353139880Y-136337380D01*
X353377976Y-136337380D01*
X353520833Y-136385000D01*
X353616071Y-136480238D01*
X353663690Y-136575476D01*
X353711309Y-136765952D01*
X353711309Y-136908809D01*
X353663690Y-137099285D01*
X353616071Y-137194523D01*
X353520833Y-137289761D01*
X353377976Y-137337380D01*
X353139880Y-137337380D01*
X355092261Y-136337380D02*
X355187500Y-136337380D01*
X355282738Y-136385000D01*
X355330357Y-136432619D01*
X355377976Y-136527857D01*
X355425595Y-136718333D01*
X355425595Y-136956428D01*
X355377976Y-137146904D01*
X355330357Y-137242142D01*
X355282738Y-137289761D01*
X355187500Y-137337380D01*
X355092261Y-137337380D01*
X354997023Y-137289761D01*
X354949404Y-137242142D01*
X354901785Y-137146904D01*
X354854166Y-136956428D01*
X354854166Y-136718333D01*
X354901785Y-136527857D01*
X354949404Y-136432619D01*
X354997023Y-136385000D01*
X355092261Y-136337380D01*
X355854166Y-137242142D02*
X355901785Y-137289761D01*
X355854166Y-137337380D01*
X355806547Y-137289761D01*
X355854166Y-137242142D01*
X355854166Y-137337380D01*
X356520833Y-136337380D02*
X356616071Y-136337380D01*
X356711309Y-136385000D01*
X356758928Y-136432619D01*
X356806547Y-136527857D01*
X356854166Y-136718333D01*
X356854166Y-136956428D01*
X356806547Y-137146904D01*
X356758928Y-137242142D01*
X356711309Y-137289761D01*
X356616071Y-137337380D01*
X356520833Y-137337380D01*
X356425595Y-137289761D01*
X356377976Y-137242142D01*
X356330357Y-137146904D01*
X356282738Y-136956428D01*
X356282738Y-136718333D01*
X356330357Y-136527857D01*
X356377976Y-136432619D01*
X356425595Y-136385000D01*
X356520833Y-136337380D01*
X357235119Y-136432619D02*
X357282738Y-136385000D01*
X357377976Y-136337380D01*
X357616071Y-136337380D01*
X357711309Y-136385000D01*
X357758928Y-136432619D01*
X357806547Y-136527857D01*
X357806547Y-136623095D01*
X357758928Y-136765952D01*
X357187500Y-137337380D01*
X357806547Y-137337380D01*
X358711309Y-136337380D02*
X358235119Y-136337380D01*
X358187500Y-136813571D01*
X358235119Y-136765952D01*
X358330357Y-136718333D01*
X358568452Y-136718333D01*
X358663690Y-136765952D01*
X358711309Y-136813571D01*
X358758928Y-136908809D01*
X358758928Y-137146904D01*
X358711309Y-137242142D01*
X358663690Y-137289761D01*
X358568452Y-137337380D01*
X358330357Y-137337380D01*
X358235119Y-137289761D01*
X358187500Y-137242142D01*
X359949404Y-137337380D02*
X359949404Y-136337380D01*
X360282738Y-137051666D01*
X360616071Y-136337380D01*
X360616071Y-137337380D01*
X361092261Y-137337380D02*
X361092261Y-136337380D01*
X362044642Y-137337380D02*
X361568452Y-137337380D01*
X361568452Y-136337380D01*
X362854166Y-137337380D02*
X362377976Y-137337380D01*
X362377976Y-136337380D01*
X363187500Y-137337380D02*
X363187500Y-136337380D01*
X363663690Y-137337380D02*
X363663690Y-136337380D01*
X363997023Y-137051666D01*
X364330357Y-136337380D01*
X364330357Y-137337380D01*
X364806547Y-136813571D02*
X365139880Y-136813571D01*
X365282738Y-137337380D02*
X364806547Y-137337380D01*
X364806547Y-136337380D01*
X365282738Y-136337380D01*
X365568452Y-136337380D02*
X366139880Y-136337380D01*
X365854166Y-137337380D02*
X365854166Y-136337380D01*
X366473214Y-136813571D02*
X366806547Y-136813571D01*
X366949404Y-137337380D02*
X366473214Y-137337380D01*
X366473214Y-136337380D01*
X366949404Y-136337380D01*
X367949404Y-137337380D02*
X367616071Y-136861190D01*
X367377976Y-137337380D02*
X367377976Y-136337380D01*
X367758928Y-136337380D01*
X367854166Y-136385000D01*
X367901785Y-136432619D01*
X367949404Y-136527857D01*
X367949404Y-136670714D01*
X367901785Y-136765952D01*
X367854166Y-136813571D01*
X367758928Y-136861190D01*
X367377976Y-136861190D01*
X368330357Y-137289761D02*
X368473214Y-137337380D01*
X368711309Y-137337380D01*
X368806547Y-137289761D01*
X368854166Y-137242142D01*
X368901785Y-137146904D01*
X368901785Y-137051666D01*
X368854166Y-136956428D01*
X368806547Y-136908809D01*
X368711309Y-136861190D01*
X368520833Y-136813571D01*
X368425595Y-136765952D01*
X368377976Y-136718333D01*
X368330357Y-136623095D01*
X368330357Y-136527857D01*
X368377976Y-136432619D01*
X368425595Y-136385000D01*
X368520833Y-136337380D01*
X368758928Y-136337380D01*
X368901785Y-136385000D01*
X370092261Y-137337380D02*
X370092261Y-136337380D01*
X370473214Y-136337380D01*
X370568452Y-136385000D01*
X370616071Y-136432619D01*
X370663690Y-136527857D01*
X370663690Y-136670714D01*
X370616071Y-136765952D01*
X370568452Y-136813571D01*
X370473214Y-136861190D01*
X370092261Y-136861190D01*
X371092261Y-136813571D02*
X371425595Y-136813571D01*
X371568452Y-137337380D02*
X371092261Y-137337380D01*
X371092261Y-136337380D01*
X371568452Y-136337380D01*
X372568452Y-137337380D02*
X372235119Y-136861190D01*
X371997023Y-137337380D02*
X371997023Y-136337380D01*
X372377976Y-136337380D01*
X372473214Y-136385000D01*
X372520833Y-136432619D01*
X372568452Y-136527857D01*
X372568452Y-136670714D01*
X372520833Y-136765952D01*
X372473214Y-136813571D01*
X372377976Y-136861190D01*
X371997023Y-136861190D01*
X373758928Y-137337380D02*
X373758928Y-136337380D01*
X374092261Y-137051666D01*
X374425595Y-136337380D01*
X374425595Y-137337380D01*
X374901785Y-137337380D02*
X374901785Y-136337380D01*
X375854166Y-137337380D02*
X375377976Y-137337380D01*
X375377976Y-136337380D01*
X376663690Y-137337380D02*
X376187500Y-137337380D01*
X376187500Y-136337380D01*
X376997023Y-137337380D02*
X376997023Y-136337380D01*
X377473214Y-137337380D02*
X377473214Y-136337380D01*
X377806547Y-137051666D01*
X378139880Y-136337380D01*
X378139880Y-137337380D01*
X378616071Y-136813571D02*
X378949404Y-136813571D01*
X379092261Y-137337380D02*
X378616071Y-137337380D01*
X378616071Y-136337380D01*
X379092261Y-136337380D01*
X379377976Y-136337380D02*
X379949404Y-136337380D01*
X379663690Y-137337380D02*
X379663690Y-136337380D01*
X380282738Y-136813571D02*
X380616071Y-136813571D01*
X380758928Y-137337380D02*
X380282738Y-137337380D01*
X380282738Y-136337380D01*
X380758928Y-136337380D01*
X381758928Y-137337380D02*
X381425595Y-136861190D01*
X381187500Y-137337380D02*
X381187500Y-136337380D01*
X381568452Y-136337380D01*
X381663690Y-136385000D01*
X381711309Y-136432619D01*
X381758928Y-136527857D01*
X381758928Y-136670714D01*
X381711309Y-136765952D01*
X381663690Y-136813571D01*
X381568452Y-136861190D01*
X381187500Y-136861190D01*
X345473214Y-138947380D02*
X345663690Y-138947380D01*
X345758928Y-138899761D01*
X345806547Y-138852142D01*
X345901785Y-138709285D01*
X345949404Y-138518809D01*
X345949404Y-138137857D01*
X345901785Y-138042619D01*
X345854166Y-137995000D01*
X345758928Y-137947380D01*
X345568452Y-137947380D01*
X345473214Y-137995000D01*
X345425595Y-138042619D01*
X345377976Y-138137857D01*
X345377976Y-138375952D01*
X345425595Y-138471190D01*
X345473214Y-138518809D01*
X345568452Y-138566428D01*
X345758928Y-138566428D01*
X345854166Y-138518809D01*
X345901785Y-138471190D01*
X345949404Y-138375952D01*
X346377976Y-138852142D02*
X346425595Y-138899761D01*
X346377976Y-138947380D01*
X346330357Y-138899761D01*
X346377976Y-138852142D01*
X346377976Y-138947380D01*
X348187500Y-138947380D02*
X347854166Y-138471190D01*
X347616071Y-138947380D02*
X347616071Y-137947380D01*
X347997023Y-137947380D01*
X348092261Y-137995000D01*
X348139880Y-138042619D01*
X348187500Y-138137857D01*
X348187500Y-138280714D01*
X348139880Y-138375952D01*
X348092261Y-138423571D01*
X347997023Y-138471190D01*
X347616071Y-138471190D01*
X348616071Y-138423571D02*
X348949404Y-138423571D01*
X349092261Y-138947380D02*
X348616071Y-138947380D01*
X348616071Y-137947380D01*
X349092261Y-137947380D01*
X349520833Y-138947380D02*
X349520833Y-137947380D01*
X349854166Y-138661666D01*
X350187500Y-137947380D01*
X350187500Y-138947380D01*
X350854166Y-137947380D02*
X351044642Y-137947380D01*
X351139880Y-137995000D01*
X351235119Y-138090238D01*
X351282738Y-138280714D01*
X351282738Y-138614047D01*
X351235119Y-138804523D01*
X351139880Y-138899761D01*
X351044642Y-138947380D01*
X350854166Y-138947380D01*
X350758928Y-138899761D01*
X350663690Y-138804523D01*
X350616071Y-138614047D01*
X350616071Y-138280714D01*
X350663690Y-138090238D01*
X350758928Y-137995000D01*
X350854166Y-137947380D01*
X351568452Y-137947380D02*
X351901785Y-138947380D01*
X352235119Y-137947380D01*
X352568452Y-138423571D02*
X352901785Y-138423571D01*
X353044642Y-138947380D02*
X352568452Y-138947380D01*
X352568452Y-137947380D01*
X353044642Y-137947380D01*
X354187500Y-138661666D02*
X354663690Y-138661666D01*
X354092261Y-138947380D02*
X354425595Y-137947380D01*
X354758928Y-138947380D01*
X355568452Y-138947380D02*
X355092261Y-138947380D01*
X355092261Y-137947380D01*
X356377976Y-138947380D02*
X355901785Y-138947380D01*
X355901785Y-137947380D01*
X357806547Y-138423571D02*
X357949404Y-138471190D01*
X357997023Y-138518809D01*
X358044642Y-138614047D01*
X358044642Y-138756904D01*
X357997023Y-138852142D01*
X357949404Y-138899761D01*
X357854166Y-138947380D01*
X357473214Y-138947380D01*
X357473214Y-137947380D01*
X357806547Y-137947380D01*
X357901785Y-137995000D01*
X357949404Y-138042619D01*
X357997023Y-138137857D01*
X357997023Y-138233095D01*
X357949404Y-138328333D01*
X357901785Y-138375952D01*
X357806547Y-138423571D01*
X357473214Y-138423571D01*
X358473214Y-137947380D02*
X358473214Y-138756904D01*
X358520833Y-138852142D01*
X358568452Y-138899761D01*
X358663690Y-138947380D01*
X358854166Y-138947380D01*
X358949404Y-138899761D01*
X358997023Y-138852142D01*
X359044642Y-138756904D01*
X359044642Y-137947380D01*
X360092261Y-138947380D02*
X359758928Y-138471190D01*
X359520833Y-138947380D02*
X359520833Y-137947380D01*
X359901785Y-137947380D01*
X359997023Y-137995000D01*
X360044642Y-138042619D01*
X360092261Y-138137857D01*
X360092261Y-138280714D01*
X360044642Y-138375952D01*
X359997023Y-138423571D01*
X359901785Y-138471190D01*
X359520833Y-138471190D01*
X361092261Y-138947380D02*
X360758928Y-138471190D01*
X360520833Y-138947380D02*
X360520833Y-137947380D01*
X360901785Y-137947380D01*
X360997023Y-137995000D01*
X361044642Y-138042619D01*
X361092261Y-138137857D01*
X361092261Y-138280714D01*
X361044642Y-138375952D01*
X360997023Y-138423571D01*
X360901785Y-138471190D01*
X360520833Y-138471190D01*
X361473214Y-138899761D02*
X361616071Y-138947380D01*
X361854166Y-138947380D01*
X361949404Y-138899761D01*
X361997023Y-138852142D01*
X362044642Y-138756904D01*
X362044642Y-138661666D01*
X361997023Y-138566428D01*
X361949404Y-138518809D01*
X361854166Y-138471190D01*
X361663690Y-138423571D01*
X361568452Y-138375952D01*
X361520833Y-138328333D01*
X361473214Y-138233095D01*
X361473214Y-138137857D01*
X361520833Y-138042619D01*
X361568452Y-137995000D01*
X361663690Y-137947380D01*
X361901785Y-137947380D01*
X362044642Y-137995000D01*
X363187500Y-138661666D02*
X363663690Y-138661666D01*
X363092261Y-138947380D02*
X363425595Y-137947380D01*
X363758928Y-138947380D01*
X364092261Y-138947380D02*
X364092261Y-137947380D01*
X364663690Y-138947380D01*
X364663690Y-137947380D01*
X365139880Y-138947380D02*
X365139880Y-137947380D01*
X365377976Y-137947380D01*
X365520833Y-137995000D01*
X365616071Y-138090238D01*
X365663690Y-138185476D01*
X365711309Y-138375952D01*
X365711309Y-138518809D01*
X365663690Y-138709285D01*
X365616071Y-138804523D01*
X365520833Y-138899761D01*
X365377976Y-138947380D01*
X365139880Y-138947380D01*
X367235119Y-138423571D02*
X367377976Y-138471190D01*
X367425595Y-138518809D01*
X367473214Y-138614047D01*
X367473214Y-138756904D01*
X367425595Y-138852142D01*
X367377976Y-138899761D01*
X367282738Y-138947380D01*
X366901785Y-138947380D01*
X366901785Y-137947380D01*
X367235119Y-137947380D01*
X367330357Y-137995000D01*
X367377976Y-138042619D01*
X367425595Y-138137857D01*
X367425595Y-138233095D01*
X367377976Y-138328333D01*
X367330357Y-138375952D01*
X367235119Y-138423571D01*
X366901785Y-138423571D01*
X368473214Y-138947380D02*
X368139880Y-138471190D01*
X367901785Y-138947380D02*
X367901785Y-137947380D01*
X368282738Y-137947380D01*
X368377976Y-137995000D01*
X368425595Y-138042619D01*
X368473214Y-138137857D01*
X368473214Y-138280714D01*
X368425595Y-138375952D01*
X368377976Y-138423571D01*
X368282738Y-138471190D01*
X367901785Y-138471190D01*
X368901785Y-138423571D02*
X369235119Y-138423571D01*
X369377976Y-138947380D02*
X368901785Y-138947380D01*
X368901785Y-137947380D01*
X369377976Y-137947380D01*
X369758928Y-138661666D02*
X370235119Y-138661666D01*
X369663690Y-138947380D02*
X369997023Y-137947380D01*
X370330357Y-138947380D01*
X370663690Y-138947380D02*
X370663690Y-137947380D01*
X371235119Y-138947380D02*
X370806547Y-138375952D01*
X371235119Y-137947380D02*
X370663690Y-138518809D01*
X347663690Y-140509761D02*
X347806547Y-140557380D01*
X348044642Y-140557380D01*
X348139880Y-140509761D01*
X348187500Y-140462142D01*
X348235119Y-140366904D01*
X348235119Y-140271666D01*
X348187500Y-140176428D01*
X348139880Y-140128809D01*
X348044642Y-140081190D01*
X347854166Y-140033571D01*
X347758928Y-139985952D01*
X347711309Y-139938333D01*
X347663690Y-139843095D01*
X347663690Y-139747857D01*
X347711309Y-139652619D01*
X347758928Y-139605000D01*
X347854166Y-139557380D01*
X348092261Y-139557380D01*
X348235119Y-139605000D01*
X348663690Y-140557380D02*
X348663690Y-139557380D01*
X348663690Y-140033571D02*
X349235119Y-140033571D01*
X349235119Y-140557380D02*
X349235119Y-139557380D01*
X349663690Y-140271666D02*
X350139880Y-140271666D01*
X349568452Y-140557380D02*
X349901785Y-139557380D01*
X350235119Y-140557380D01*
X351139880Y-140557380D02*
X350806547Y-140081190D01*
X350568452Y-140557380D02*
X350568452Y-139557380D01*
X350949404Y-139557380D01*
X351044642Y-139605000D01*
X351092261Y-139652619D01*
X351139880Y-139747857D01*
X351139880Y-139890714D01*
X351092261Y-139985952D01*
X351044642Y-140033571D01*
X350949404Y-140081190D01*
X350568452Y-140081190D01*
X351568452Y-140557380D02*
X351568452Y-139557380D01*
X351949404Y-139557380D01*
X352044642Y-139605000D01*
X352092261Y-139652619D01*
X352139880Y-139747857D01*
X352139880Y-139890714D01*
X352092261Y-139985952D01*
X352044642Y-140033571D01*
X351949404Y-140081190D01*
X351568452Y-140081190D01*
X353330357Y-140033571D02*
X353663690Y-140033571D01*
X353806547Y-140557380D02*
X353330357Y-140557380D01*
X353330357Y-139557380D01*
X353806547Y-139557380D01*
X354235119Y-140557380D02*
X354235119Y-139557380D01*
X354473214Y-139557380D01*
X354616071Y-139605000D01*
X354711309Y-139700238D01*
X354758928Y-139795476D01*
X354806547Y-139985952D01*
X354806547Y-140128809D01*
X354758928Y-140319285D01*
X354711309Y-140414523D01*
X354616071Y-140509761D01*
X354473214Y-140557380D01*
X354235119Y-140557380D01*
X355758928Y-139605000D02*
X355663690Y-139557380D01*
X355520833Y-139557380D01*
X355377976Y-139605000D01*
X355282738Y-139700238D01*
X355235119Y-139795476D01*
X355187500Y-139985952D01*
X355187500Y-140128809D01*
X355235119Y-140319285D01*
X355282738Y-140414523D01*
X355377976Y-140509761D01*
X355520833Y-140557380D01*
X355616071Y-140557380D01*
X355758928Y-140509761D01*
X355806547Y-140462142D01*
X355806547Y-140128809D01*
X355616071Y-140128809D01*
X356235119Y-140033571D02*
X356568452Y-140033571D01*
X356711309Y-140557380D02*
X356235119Y-140557380D01*
X356235119Y-139557380D01*
X356711309Y-139557380D01*
X357092261Y-140509761D02*
X357235119Y-140557380D01*
X357473214Y-140557380D01*
X357568452Y-140509761D01*
X357616071Y-140462142D01*
X357663690Y-140366904D01*
X357663690Y-140271666D01*
X357616071Y-140176428D01*
X357568452Y-140128809D01*
X357473214Y-140081190D01*
X357282738Y-140033571D01*
X357187500Y-139985952D01*
X357139880Y-139938333D01*
X357092261Y-139843095D01*
X357092261Y-139747857D01*
X357139880Y-139652619D01*
X357187500Y-139605000D01*
X357282738Y-139557380D01*
X357520833Y-139557380D01*
X357663690Y-139605000D01*
X359425595Y-140557380D02*
X359092261Y-140081190D01*
X358854166Y-140557380D02*
X358854166Y-139557380D01*
X359235119Y-139557380D01*
X359330357Y-139605000D01*
X359377976Y-139652619D01*
X359425595Y-139747857D01*
X359425595Y-139890714D01*
X359377976Y-139985952D01*
X359330357Y-140033571D01*
X359235119Y-140081190D01*
X358854166Y-140081190D01*
X360044642Y-139557380D02*
X360139880Y-139557380D01*
X360235119Y-139605000D01*
X360282738Y-139652619D01*
X360330357Y-139747857D01*
X360377976Y-139938333D01*
X360377976Y-140176428D01*
X360330357Y-140366904D01*
X360282738Y-140462142D01*
X360235119Y-140509761D01*
X360139880Y-140557380D01*
X360044642Y-140557380D01*
X359949404Y-140509761D01*
X359901785Y-140462142D01*
X359854166Y-140366904D01*
X359806547Y-140176428D01*
X359806547Y-139938333D01*
X359854166Y-139747857D01*
X359901785Y-139652619D01*
X359949404Y-139605000D01*
X360044642Y-139557380D01*
X360806547Y-140462142D02*
X360854166Y-140509761D01*
X360806547Y-140557380D01*
X360758928Y-140509761D01*
X360806547Y-140462142D01*
X360806547Y-140557380D01*
X361473214Y-139557380D02*
X361568452Y-139557380D01*
X361663690Y-139605000D01*
X361711309Y-139652619D01*
X361758928Y-139747857D01*
X361806547Y-139938333D01*
X361806547Y-140176428D01*
X361758928Y-140366904D01*
X361711309Y-140462142D01*
X361663690Y-140509761D01*
X361568452Y-140557380D01*
X361473214Y-140557380D01*
X361377976Y-140509761D01*
X361330357Y-140462142D01*
X361282738Y-140366904D01*
X361235119Y-140176428D01*
X361235119Y-139938333D01*
X361282738Y-139747857D01*
X361330357Y-139652619D01*
X361377976Y-139605000D01*
X361473214Y-139557380D01*
X362425595Y-139557380D02*
X362520833Y-139557380D01*
X362616071Y-139605000D01*
X362663690Y-139652619D01*
X362711309Y-139747857D01*
X362758928Y-139938333D01*
X362758928Y-140176428D01*
X362711309Y-140366904D01*
X362663690Y-140462142D01*
X362616071Y-140509761D01*
X362520833Y-140557380D01*
X362425595Y-140557380D01*
X362330357Y-140509761D01*
X362282738Y-140462142D01*
X362235119Y-140366904D01*
X362187500Y-140176428D01*
X362187500Y-139938333D01*
X362235119Y-139747857D01*
X362282738Y-139652619D01*
X362330357Y-139605000D01*
X362425595Y-139557380D01*
X363092261Y-139557380D02*
X363711309Y-139557380D01*
X363377976Y-139938333D01*
X363520833Y-139938333D01*
X363616071Y-139985952D01*
X363663690Y-140033571D01*
X363711309Y-140128809D01*
X363711309Y-140366904D01*
X363663690Y-140462142D01*
X363616071Y-140509761D01*
X363520833Y-140557380D01*
X363235119Y-140557380D01*
X363139880Y-140509761D01*
X363092261Y-140462142D01*
X364901785Y-140557380D02*
X364901785Y-139557380D01*
X365235119Y-140271666D01*
X365568452Y-139557380D01*
X365568452Y-140557380D01*
X366044642Y-140557380D02*
X366044642Y-139557380D01*
X366520833Y-140557380D02*
X366520833Y-139557380D01*
X367092261Y-140557380D01*
X367092261Y-139557380D01*
X367568452Y-140462142D02*
X367616071Y-140509761D01*
X367568452Y-140557380D01*
X367520833Y-140509761D01*
X367568452Y-140462142D01*
X367568452Y-140557380D01*
D13*
X47078695Y-146492857D02*
X47078695Y-147350000D01*
X47078695Y-146921428D02*
X45578695Y-146921428D01*
X45792981Y-147064285D01*
X45935838Y-147207142D01*
X46007266Y-147350000D01*
X45578695Y-145207142D02*
X45578695Y-145492857D01*
X45650124Y-145635714D01*
X45721552Y-145707142D01*
X45935838Y-145850000D01*
X46221552Y-145921428D01*
X46792981Y-145921428D01*
X46935838Y-145850000D01*
X47007266Y-145778571D01*
X47078695Y-145635714D01*
X47078695Y-145350000D01*
X47007266Y-145207142D01*
X46935838Y-145135714D01*
X46792981Y-145064285D01*
X46435838Y-145064285D01*
X46292981Y-145135714D01*
X46221552Y-145207142D01*
X46150124Y-145350000D01*
X46150124Y-145635714D01*
X46221552Y-145778571D01*
X46292981Y-145850000D01*
X46435838Y-145921428D01*
X45578695Y-143778571D02*
X45578695Y-144064285D01*
X45650124Y-144207142D01*
X45721552Y-144278571D01*
X45935838Y-144421428D01*
X46221552Y-144492857D01*
X46792981Y-144492857D01*
X46935838Y-144421428D01*
X47007266Y-144350000D01*
X47078695Y-144207142D01*
X47078695Y-143921428D01*
X47007266Y-143778571D01*
X46935838Y-143707142D01*
X46792981Y-143635714D01*
X46435838Y-143635714D01*
X46292981Y-143707142D01*
X46221552Y-143778571D01*
X46150124Y-143921428D01*
X46150124Y-144207142D01*
X46221552Y-144350000D01*
X46292981Y-144421428D01*
X46435838Y-144492857D01*
X46935838Y-142992857D02*
X47007266Y-142921428D01*
X47078695Y-142992857D01*
X47007266Y-143064285D01*
X46935838Y-142992857D01*
X47078695Y-142992857D01*
X47078695Y-141492857D02*
X47078695Y-142350000D01*
X47078695Y-141921428D02*
X45578695Y-141921428D01*
X45792981Y-142064285D01*
X45935838Y-142207142D01*
X46007266Y-142350000D01*
X47078695Y-139707142D02*
X46078695Y-139707142D01*
X46221552Y-139707142D02*
X46150124Y-139635714D01*
X46078695Y-139492857D01*
X46078695Y-139278571D01*
X46150124Y-139135714D01*
X46292981Y-139064285D01*
X47078695Y-139064285D01*
X46292981Y-139064285D02*
X46150124Y-138992857D01*
X46078695Y-138850000D01*
X46078695Y-138635714D01*
X46150124Y-138492857D01*
X46292981Y-138421428D01*
X47078695Y-138421428D01*
X47078695Y-137707142D02*
X46078695Y-137707142D01*
X46221552Y-137707142D02*
X46150124Y-137635714D01*
X46078695Y-137492857D01*
X46078695Y-137278571D01*
X46150124Y-137135714D01*
X46292981Y-137064285D01*
X47078695Y-137064285D01*
X46292981Y-137064285D02*
X46150124Y-136992857D01*
X46078695Y-136850000D01*
X46078695Y-136635714D01*
X46150124Y-136492857D01*
X46292981Y-136421428D01*
X47078695Y-136421428D01*
D10*
X58300000Y-224900000D02*
X47613704Y-224900000D01*
X58300000Y-58800000D02*
X47613704Y-58800000D01*
X48200124Y-224900000D02*
X48200124Y-58800000D01*
X48200124Y-224900000D02*
X48200124Y-58800000D01*
X48200124Y-224900000D02*
X48786545Y-223773496D01*
X48200124Y-224900000D02*
X47613703Y-223773496D01*
X48200124Y-58800000D02*
X47613703Y-59926504D01*
X48200124Y-58800000D02*
X48786545Y-59926504D01*
D12*
X192533333Y-226897619D02*
X192580952Y-226850000D01*
X192676190Y-226802380D01*
X192914285Y-226802380D01*
X193009523Y-226850000D01*
X193057142Y-226897619D01*
X193104761Y-226992857D01*
X193104761Y-227088095D01*
X193057142Y-227230952D01*
X192485714Y-227802380D01*
X193104761Y-227802380D01*
X193438095Y-226802380D02*
X194104761Y-226802380D01*
X193676190Y-227802380D01*
X194628571Y-227230952D02*
X194533333Y-227183333D01*
X194485714Y-227135714D01*
X194438095Y-227040476D01*
X194438095Y-226992857D01*
X194485714Y-226897619D01*
X194533333Y-226850000D01*
X194628571Y-226802380D01*
X194819047Y-226802380D01*
X194914285Y-226850000D01*
X194961904Y-226897619D01*
X195009523Y-226992857D01*
X195009523Y-227040476D01*
X194961904Y-227135714D01*
X194914285Y-227183333D01*
X194819047Y-227230952D01*
X194628571Y-227230952D01*
X194533333Y-227278571D01*
X194485714Y-227326190D01*
X194438095Y-227421428D01*
X194438095Y-227611904D01*
X194485714Y-227707142D01*
X194533333Y-227754761D01*
X194628571Y-227802380D01*
X194819047Y-227802380D01*
X194914285Y-227754761D01*
X194961904Y-227707142D01*
X195009523Y-227611904D01*
X195009523Y-227421428D01*
X194961904Y-227326190D01*
X194914285Y-227278571D01*
X194819047Y-227230952D01*
X195438095Y-227707142D02*
X195485714Y-227754761D01*
X195438095Y-227802380D01*
X195390476Y-227754761D01*
X195438095Y-227707142D01*
X195438095Y-227802380D01*
X196342857Y-226802380D02*
X196152380Y-226802380D01*
X196057142Y-226850000D01*
X196009523Y-226897619D01*
X195914285Y-227040476D01*
X195866666Y-227230952D01*
X195866666Y-227611904D01*
X195914285Y-227707142D01*
X195961904Y-227754761D01*
X196057142Y-227802380D01*
X196247619Y-227802380D01*
X196342857Y-227754761D01*
X196390476Y-227707142D01*
X196438095Y-227611904D01*
X196438095Y-227373809D01*
X196390476Y-227278571D01*
X196342857Y-227230952D01*
X196247619Y-227183333D01*
X196057142Y-227183333D01*
X195961904Y-227230952D01*
X195914285Y-227278571D01*
X195866666Y-227373809D01*
X197628571Y-227802380D02*
X197628571Y-227135714D01*
X197628571Y-227230952D02*
X197676190Y-227183333D01*
X197771428Y-227135714D01*
X197914285Y-227135714D01*
X198009523Y-227183333D01*
X198057142Y-227278571D01*
X198057142Y-227802380D01*
X198057142Y-227278571D02*
X198104761Y-227183333D01*
X198200000Y-227135714D01*
X198342857Y-227135714D01*
X198438095Y-227183333D01*
X198485714Y-227278571D01*
X198485714Y-227802380D01*
X198961904Y-227802380D02*
X198961904Y-227135714D01*
X198961904Y-227230952D02*
X199009523Y-227183333D01*
X199104761Y-227135714D01*
X199247619Y-227135714D01*
X199342857Y-227183333D01*
X199390476Y-227278571D01*
X199390476Y-227802380D01*
X199390476Y-227278571D02*
X199438095Y-227183333D01*
X199533333Y-227135714D01*
X199676190Y-227135714D01*
X199771428Y-227183333D01*
X199819047Y-227278571D01*
X199819047Y-227802380D01*
X56900000Y-222500000D02*
X56900000Y-229086420D01*
X335500000Y-222500000D02*
X335500000Y-229086420D01*
X56900000Y-228500000D02*
X335500000Y-228500000D01*
X56900000Y-228500000D02*
X335500000Y-228500000D01*
X56900000Y-228500000D02*
X58026504Y-229086421D01*
X56900000Y-228500000D02*
X58026504Y-227913579D01*
X335500000Y-228500000D02*
X334373496Y-227913579D01*
X335500000Y-228500000D02*
X334373496Y-229086421D01*
M02*
