%TF.GenerationSoftware,KiCad,Pcbnew,5.1.10-88a1d61d58~90~ubuntu20.04.1*%
%TF.CreationDate,2021-11-19T20:23:52-08:00*%
%TF.ProjectId,menorah555a,6d656e6f-7261-4683-9535-35612e6b6963,A*%
%TF.SameCoordinates,Original*%
%TF.FileFunction,Other,Fab,Bot*%
%FSLAX46Y46*%
G04 Gerber Fmt 4.6, Leading zero omitted, Abs format (unit mm)*
G04 Created by KiCad (PCBNEW 5.1.10-88a1d61d58~90~ubuntu20.04.1) date 2021-11-19 20:23:52*
%MOMM*%
%LPD*%
G01*
G04 APERTURE LIST*
%TA.AperFunction,Profile*%
%ADD10C,0.050000*%
%TD*%
%ADD11C,0.100000*%
%ADD12C,0.060000*%
%ADD13C,0.150000*%
%ADD14C,0.080000*%
G04 APERTURE END LIST*
D10*
X197600000Y-133200000D02*
X203400000Y-133200000D01*
X197600000Y-134200000D02*
X203400000Y-134200000D01*
X192700000Y-134200000D02*
X194200000Y-134200000D01*
X206800000Y-134200000D02*
X208300000Y-134200000D01*
X192700000Y-133200000D02*
X194200000Y-133200000D01*
X197600000Y-134200000D02*
G75*
G02*
X197600000Y-133200000I0J500000D01*
G01*
X203400000Y-133200000D02*
G75*
G02*
X203400000Y-134200000I0J-500000D01*
G01*
X206800000Y-134200000D02*
G75*
G02*
X206800000Y-133200000I0J500000D01*
G01*
X194200000Y-133200000D02*
G75*
G02*
X194200000Y-134200000I0J-500000D01*
G01*
X330600000Y-208000000D02*
X330600000Y-209800000D01*
X330600000Y-203250000D02*
X330600000Y-207149000D01*
X329030000Y-203249000D02*
G75*
G02*
X329030000Y-202399000I0J425000D01*
G01*
X329030000Y-203249000D02*
X330600000Y-203249000D01*
X329030000Y-202399000D02*
X330600000Y-202399000D01*
X329030000Y-207999000D02*
G75*
G02*
X329030000Y-207149000I0J425000D01*
G01*
X329030000Y-207149000D02*
X330600000Y-207149000D01*
X329030000Y-207999000D02*
X330600000Y-207999000D01*
X334473216Y-151784307D02*
X334841394Y-151986459D01*
X326209269Y-147680505D02*
X326340000Y-147740000D01*
X334473217Y-151784307D02*
G75*
G03*
X326340000Y-147740000I-100603217J-192115693D01*
G01*
X313693401Y-142252243D02*
X313977382Y-142376308D01*
X296341181Y-136225926D02*
X296540000Y-136280000D01*
X313693401Y-142252243D02*
G75*
G03*
X296540000Y-136280000I-79823401J-201647757D01*
G01*
X283817199Y-132845881D02*
X284141181Y-132935926D01*
X266392088Y-129478148D02*
X266730000Y-129520000D01*
X283817199Y-132845881D02*
G75*
G03*
X266730000Y-129520000I-49947199J-211054119D01*
G01*
X253945960Y-127939407D02*
X254312844Y-127986195D01*
X236634899Y-127029391D02*
X236940000Y-127030000D01*
X253945960Y-127939408D02*
G75*
G03*
X236940000Y-127030000I-20075960J-215960592D01*
G01*
X224310641Y-127212249D02*
X224573648Y-127204808D01*
X211100000Y-128200000D02*
X210713176Y-128247596D01*
X224310641Y-127212249D02*
G75*
G03*
X211100000Y-128200000I9559359J-216687751D01*
G01*
X210713176Y-128247596D02*
G75*
G03*
X210300000Y-128740000I86824J-492404D01*
G01*
X189818328Y-131513618D02*
X190070590Y-131457037D01*
X190070590Y-131457037D02*
G75*
G02*
X190700000Y-131940000I129410J-482963D01*
G01*
X177300000Y-134500000D02*
X176925568Y-134605519D01*
X189818328Y-131513619D02*
G75*
G03*
X177300000Y-134500000I44051672J-212386381D01*
G01*
X147100000Y-145100000D02*
X147022618Y-145136308D01*
X164658819Y-138335926D02*
X164398003Y-138414929D01*
X164398003Y-138414928D02*
G75*
G03*
X147100000Y-145100000I69471997J-205485072D01*
G01*
X117400000Y-160900000D02*
X117229320Y-161007146D01*
X134929919Y-150858048D02*
X134801847Y-150922131D01*
X134801848Y-150922131D02*
G75*
G03*
X117400000Y-160900000I99088152J-192977869D01*
G01*
X104841866Y-169519312D02*
X104929919Y-169458048D01*
X75069131Y-196113145D02*
X74841689Y-196355905D01*
X87600000Y-183700000D02*
X87294658Y-183979340D01*
X313977382Y-142376308D02*
G75*
G03*
X315400000Y-141470000I422618J906308D01*
G01*
X284141181Y-132935926D02*
G75*
G03*
X285400000Y-131970000I258819J965926D01*
G01*
X254312844Y-127986195D02*
G75*
G03*
X255400000Y-126990000I87156J996195D01*
G01*
X224573648Y-127204808D02*
G75*
G03*
X225400000Y-126220000I-173648J984808D01*
G01*
X164658819Y-138335926D02*
G75*
G03*
X165400000Y-137370000I-258819J965926D01*
G01*
X134929919Y-150858048D02*
G75*
G03*
X135400000Y-150010000I-529919J848048D01*
G01*
X326209269Y-147680505D02*
G75*
G02*
X325600000Y-146760000I390731J920505D01*
G01*
X296341181Y-136225926D02*
G75*
G02*
X295600000Y-135260000I258819J965926D01*
G01*
X266392088Y-129478148D02*
G75*
G02*
X265600000Y-128500000I207912J978148D01*
G01*
X236634899Y-127029391D02*
G75*
G02*
X235600000Y-126030000I-34899J999391D01*
G01*
X176925568Y-134605519D02*
G75*
G02*
X175600000Y-133660000I-325568J945519D01*
G01*
X147022618Y-145136308D02*
G75*
G02*
X145600000Y-144230000I-422618J906308D01*
G01*
X117229320Y-161007146D02*
G75*
G02*
X115600000Y-160230000I-629320J777146D01*
G01*
X104929919Y-169458048D02*
G75*
G03*
X105400000Y-168610000I-529919J848048D01*
G01*
X87294658Y-183979340D02*
G75*
G02*
X85600000Y-183260000I-694658J719340D01*
G01*
X75069131Y-196113145D02*
G75*
G03*
X75400000Y-195370000I-669131J743145D01*
G01*
X74841689Y-196355905D02*
G75*
G03*
X57824000Y-217136000I158968311J-147544095D01*
G01*
X210300000Y-132200000D02*
X210300000Y-128740000D01*
X190700000Y-132200000D02*
X190700000Y-131940000D01*
X210300000Y-132200000D02*
G75*
G02*
X208300000Y-134200000I-2000000J0D01*
G01*
X192700000Y-134200000D02*
G75*
G02*
X190700000Y-132200000I0J2000000D01*
G01*
X209300000Y-132200000D02*
G75*
G02*
X208300000Y-133200000I-1000000J0D01*
G01*
X192700000Y-133200000D02*
G75*
G02*
X191700000Y-132200000I0J1000000D01*
G01*
X330600000Y-209800000D02*
G75*
G03*
X331600000Y-210800000I1000000J0D01*
G01*
X332889778Y-211022354D02*
X332963500Y-211270827D01*
X332889778Y-211022354D02*
G75*
G03*
X332600000Y-210800000I-289778J-77646D01*
G01*
X331600000Y-210800000D02*
X332600000Y-210800000D01*
X332963500Y-211270827D02*
G75*
G03*
X335030000Y-217906000I96036500J26270827D01*
G01*
X334963541Y-152291394D02*
X334868155Y-152553185D01*
X330600000Y-202399000D02*
X330600000Y-200200000D01*
X334963541Y-152291394D02*
G75*
G03*
X334841394Y-151986459I-213541J91394D01*
G01*
X327511852Y-223813089D02*
X327603497Y-223876946D01*
X64764915Y-223901327D02*
X64850309Y-223837228D01*
X64764915Y-223901326D02*
G75*
G02*
X57824000Y-217136000I-2964915J3901326D01*
G01*
X327603497Y-223876946D02*
G75*
G03*
X335030000Y-217906000I2996503J3876946D01*
G01*
X334868155Y-152553185D02*
G75*
G03*
X330600000Y-200200000I94131845J-32446815D01*
G01*
X104841866Y-169519312D02*
G75*
G03*
X87600000Y-183700000I128968134J-174380688D01*
G01*
X327511852Y-223813090D02*
G75*
G03*
X64850000Y-223840000I-131311852J-186186910D01*
G01*
X285400000Y-67400000D02*
G75*
G02*
X286400000Y-66400000I1000000J0D01*
G01*
X325600000Y-78200000D02*
X325600000Y-146760000D01*
X235600000Y-59800000D02*
X235600000Y-126030000D01*
X234600000Y-58800000D02*
G75*
G02*
X235600000Y-59800000I0J-1000000D01*
G01*
X226400000Y-58800000D02*
X234600000Y-58800000D01*
X225400000Y-59800000D02*
G75*
G02*
X226400000Y-58800000I1000000J0D01*
G01*
X225400000Y-126220000D02*
X225400000Y-59800000D01*
X286400000Y-66400000D02*
X294600000Y-66400000D01*
X315400000Y-78200000D02*
G75*
G02*
X316400000Y-77200000I1000000J0D01*
G01*
X315400000Y-141470000D02*
X315400000Y-78200000D01*
X264600000Y-60800000D02*
G75*
G02*
X265600000Y-61800000I0J-1000000D01*
G01*
X316400000Y-77200000D02*
X324600000Y-77200000D01*
X265600000Y-61800000D02*
X265600000Y-128500000D01*
X295600000Y-67400000D02*
X295600000Y-135260000D01*
X324600000Y-77200000D02*
G75*
G02*
X325600000Y-78200000I0J-1000000D01*
G01*
X255400000Y-126990000D02*
X255400000Y-61800000D01*
X285400000Y-131970000D02*
X285400000Y-67400000D01*
X256400000Y-60800000D02*
X264600000Y-60800000D01*
X294600000Y-66400000D02*
G75*
G02*
X295600000Y-67400000I0J-1000000D01*
G01*
X255400000Y-61800000D02*
G75*
G02*
X256400000Y-60800000I1000000J0D01*
G01*
X165400000Y-69400000D02*
G75*
G02*
X166400000Y-68400000I1000000J0D01*
G01*
X166400000Y-68400000D02*
X174600000Y-68400000D01*
X175600000Y-69400000D02*
X175600000Y-133660000D01*
X165400000Y-137370000D02*
X165400000Y-69400000D01*
X174600000Y-68400000D02*
G75*
G02*
X175600000Y-69400000I0J-1000000D01*
G01*
X145600000Y-81000000D02*
X145600000Y-144230000D01*
X144600000Y-80000000D02*
G75*
G02*
X145600000Y-81000000I0J-1000000D01*
G01*
X136400000Y-80000000D02*
X144600000Y-80000000D01*
X135400000Y-81000000D02*
G75*
G02*
X136400000Y-80000000I1000000J0D01*
G01*
X135400000Y-150010000D02*
X135400000Y-81000000D01*
X115600000Y-98000000D02*
X115600000Y-160230000D01*
X114600000Y-97000000D02*
G75*
G02*
X115600000Y-98000000I0J-1000000D01*
G01*
X106400000Y-97000000D02*
X114600000Y-97000000D01*
X105400000Y-98000000D02*
G75*
G02*
X106400000Y-97000000I1000000J0D01*
G01*
X105400000Y-168610000D02*
X105400000Y-98000000D01*
X205600000Y-98800000D02*
X209300000Y-103000000D01*
X205600000Y-54400000D02*
X205600000Y-98800000D01*
X195400000Y-98800000D02*
X191700000Y-103000000D01*
X195400000Y-54400000D02*
X195400000Y-98800000D01*
X204600000Y-53400000D02*
G75*
G02*
X205600000Y-54400000I0J-1000000D01*
G01*
X196400000Y-53400000D02*
X204600000Y-53400000D01*
X195400000Y-54400000D02*
G75*
G02*
X196400000Y-53400000I1000000J0D01*
G01*
X209300000Y-103000000D02*
X209300000Y-132200000D01*
X206800000Y-133200000D02*
X208300000Y-133200000D01*
X191700000Y-103000000D02*
X191700000Y-132200000D01*
X84600000Y-121000000D02*
G75*
G02*
X85600000Y-122000000I0J-1000000D01*
G01*
X75400000Y-122000000D02*
G75*
G02*
X76400000Y-121000000I1000000J0D01*
G01*
X75400000Y-195370000D02*
X75400000Y-122000000D01*
X85600000Y-122000000D02*
X85600000Y-183260000D01*
X76400000Y-121000000D02*
X84600000Y-121000000D01*
D11*
%TO.C,FID4*%
X195310000Y-131010000D02*
G75*
G03*
X195310000Y-131010000I-1000000J0D01*
G01*
%TO.C,FID3*%
X201010000Y-55460000D02*
G75*
G03*
X201010000Y-55460000I-1000000J0D01*
G01*
%TO.C,R30*%
X201612500Y-122025000D02*
X203612500Y-122025000D01*
X201612500Y-120775000D02*
X201612500Y-122025000D01*
X203612500Y-120775000D02*
X201612500Y-120775000D01*
X203612500Y-122025000D02*
X203612500Y-120775000D01*
%TO.C,R31*%
X199300000Y-120775000D02*
X197300000Y-120775000D01*
X199300000Y-122025000D02*
X199300000Y-120775000D01*
X197300000Y-122025000D02*
X199300000Y-122025000D01*
X197300000Y-120775000D02*
X197300000Y-122025000D01*
%TD*%
%TO.C,FID4*%
D12*
X194738571Y-130981428D02*
X194871904Y-130981428D01*
X194871904Y-131190952D02*
X194871904Y-130790952D01*
X194681428Y-130790952D01*
X194529047Y-131190952D02*
X194529047Y-130790952D01*
X194338571Y-131190952D02*
X194338571Y-130790952D01*
X194243333Y-130790952D01*
X194186190Y-130810000D01*
X194148095Y-130848095D01*
X194129047Y-130886190D01*
X194110000Y-130962380D01*
X194110000Y-131019523D01*
X194129047Y-131095714D01*
X194148095Y-131133809D01*
X194186190Y-131171904D01*
X194243333Y-131190952D01*
X194338571Y-131190952D01*
X193767142Y-130924285D02*
X193767142Y-131190952D01*
X193862380Y-130771904D02*
X193957619Y-131057619D01*
X193710000Y-131057619D01*
%TO.C,FID3*%
X200438571Y-55431428D02*
X200571904Y-55431428D01*
X200571904Y-55640952D02*
X200571904Y-55240952D01*
X200381428Y-55240952D01*
X200229047Y-55640952D02*
X200229047Y-55240952D01*
X200038571Y-55640952D02*
X200038571Y-55240952D01*
X199943333Y-55240952D01*
X199886190Y-55260000D01*
X199848095Y-55298095D01*
X199829047Y-55336190D01*
X199810000Y-55412380D01*
X199810000Y-55469523D01*
X199829047Y-55545714D01*
X199848095Y-55583809D01*
X199886190Y-55621904D01*
X199943333Y-55640952D01*
X200038571Y-55640952D01*
X199676666Y-55240952D02*
X199429047Y-55240952D01*
X199562380Y-55393333D01*
X199505238Y-55393333D01*
X199467142Y-55412380D01*
X199448095Y-55431428D01*
X199429047Y-55469523D01*
X199429047Y-55564761D01*
X199448095Y-55602857D01*
X199467142Y-55621904D01*
X199505238Y-55640952D01*
X199619523Y-55640952D01*
X199657619Y-55621904D01*
X199676666Y-55602857D01*
%TO.C,R30*%
D13*
X203683928Y-123502380D02*
X204255357Y-123502380D01*
X203969642Y-123502380D02*
X203969642Y-122502380D01*
X204064880Y-122645238D01*
X204160119Y-122740476D01*
X204255357Y-122788095D01*
X203064880Y-122502380D02*
X202969642Y-122502380D01*
X202874404Y-122550000D01*
X202826785Y-122597619D01*
X202779166Y-122692857D01*
X202731547Y-122883333D01*
X202731547Y-123121428D01*
X202779166Y-123311904D01*
X202826785Y-123407142D01*
X202874404Y-123454761D01*
X202969642Y-123502380D01*
X203064880Y-123502380D01*
X203160119Y-123454761D01*
X203207738Y-123407142D01*
X203255357Y-123311904D01*
X203302976Y-123121428D01*
X203302976Y-122883333D01*
X203255357Y-122692857D01*
X203207738Y-122597619D01*
X203160119Y-122550000D01*
X203064880Y-122502380D01*
X202112500Y-122502380D02*
X202017261Y-122502380D01*
X201922023Y-122550000D01*
X201874404Y-122597619D01*
X201826785Y-122692857D01*
X201779166Y-122883333D01*
X201779166Y-123121428D01*
X201826785Y-123311904D01*
X201874404Y-123407142D01*
X201922023Y-123454761D01*
X202017261Y-123502380D01*
X202112500Y-123502380D01*
X202207738Y-123454761D01*
X202255357Y-123407142D01*
X202302976Y-123311904D01*
X202350595Y-123121428D01*
X202350595Y-122883333D01*
X202302976Y-122692857D01*
X202255357Y-122597619D01*
X202207738Y-122550000D01*
X202112500Y-122502380D01*
X201350595Y-123502380D02*
X201350595Y-122502380D01*
X201255357Y-123121428D02*
X200969642Y-123502380D01*
X200969642Y-122835714D02*
X201350595Y-123216666D01*
D14*
X202933928Y-121626190D02*
X203100595Y-121388095D01*
X203219642Y-121626190D02*
X203219642Y-121126190D01*
X203029166Y-121126190D01*
X202981547Y-121150000D01*
X202957738Y-121173809D01*
X202933928Y-121221428D01*
X202933928Y-121292857D01*
X202957738Y-121340476D01*
X202981547Y-121364285D01*
X203029166Y-121388095D01*
X203219642Y-121388095D01*
X202767261Y-121126190D02*
X202457738Y-121126190D01*
X202624404Y-121316666D01*
X202552976Y-121316666D01*
X202505357Y-121340476D01*
X202481547Y-121364285D01*
X202457738Y-121411904D01*
X202457738Y-121530952D01*
X202481547Y-121578571D01*
X202505357Y-121602380D01*
X202552976Y-121626190D01*
X202695833Y-121626190D01*
X202743452Y-121602380D01*
X202767261Y-121578571D01*
X202148214Y-121126190D02*
X202100595Y-121126190D01*
X202052976Y-121150000D01*
X202029166Y-121173809D01*
X202005357Y-121221428D01*
X201981547Y-121316666D01*
X201981547Y-121435714D01*
X202005357Y-121530952D01*
X202029166Y-121578571D01*
X202052976Y-121602380D01*
X202100595Y-121626190D01*
X202148214Y-121626190D01*
X202195833Y-121602380D01*
X202219642Y-121578571D01*
X202243452Y-121530952D01*
X202267261Y-121435714D01*
X202267261Y-121316666D01*
X202243452Y-121221428D01*
X202219642Y-121173809D01*
X202195833Y-121150000D01*
X202148214Y-121126190D01*
%TO.C,R31*%
D13*
X199585714Y-119202380D02*
X198966666Y-119202380D01*
X199300000Y-119583333D01*
X199157142Y-119583333D01*
X199061904Y-119630952D01*
X199014285Y-119678571D01*
X198966666Y-119773809D01*
X198966666Y-120011904D01*
X199014285Y-120107142D01*
X199061904Y-120154761D01*
X199157142Y-120202380D01*
X199442857Y-120202380D01*
X199538095Y-120154761D01*
X199585714Y-120107142D01*
X198633333Y-119202380D02*
X198014285Y-119202380D01*
X198347619Y-119583333D01*
X198204761Y-119583333D01*
X198109523Y-119630952D01*
X198061904Y-119678571D01*
X198014285Y-119773809D01*
X198014285Y-120011904D01*
X198061904Y-120107142D01*
X198109523Y-120154761D01*
X198204761Y-120202380D01*
X198490476Y-120202380D01*
X198585714Y-120154761D01*
X198633333Y-120107142D01*
X197395238Y-119202380D02*
X197300000Y-119202380D01*
X197204761Y-119250000D01*
X197157142Y-119297619D01*
X197109523Y-119392857D01*
X197061904Y-119583333D01*
X197061904Y-119821428D01*
X197109523Y-120011904D01*
X197157142Y-120107142D01*
X197204761Y-120154761D01*
X197300000Y-120202380D01*
X197395238Y-120202380D01*
X197490476Y-120154761D01*
X197538095Y-120107142D01*
X197585714Y-120011904D01*
X197633333Y-119821428D01*
X197633333Y-119583333D01*
X197585714Y-119392857D01*
X197538095Y-119297619D01*
X197490476Y-119250000D01*
X197395238Y-119202380D01*
D14*
X198721428Y-121626190D02*
X198888095Y-121388095D01*
X199007142Y-121626190D02*
X199007142Y-121126190D01*
X198816666Y-121126190D01*
X198769047Y-121150000D01*
X198745238Y-121173809D01*
X198721428Y-121221428D01*
X198721428Y-121292857D01*
X198745238Y-121340476D01*
X198769047Y-121364285D01*
X198816666Y-121388095D01*
X199007142Y-121388095D01*
X198554761Y-121126190D02*
X198245238Y-121126190D01*
X198411904Y-121316666D01*
X198340476Y-121316666D01*
X198292857Y-121340476D01*
X198269047Y-121364285D01*
X198245238Y-121411904D01*
X198245238Y-121530952D01*
X198269047Y-121578571D01*
X198292857Y-121602380D01*
X198340476Y-121626190D01*
X198483333Y-121626190D01*
X198530952Y-121602380D01*
X198554761Y-121578571D01*
X197769047Y-121626190D02*
X198054761Y-121626190D01*
X197911904Y-121626190D02*
X197911904Y-121126190D01*
X197959523Y-121197619D01*
X198007142Y-121245238D01*
X198054761Y-121269047D01*
%TD*%
M02*
