%TF.GenerationSoftware,KiCad,Pcbnew,5.1.10-88a1d61d58~90~ubuntu20.04.1*%
%TF.CreationDate,2021-11-19T20:23:52-08:00*%
%TF.ProjectId,menorah555a,6d656e6f-7261-4683-9535-35612e6b6963,A*%
%TF.SameCoordinates,Original*%
%TF.FileFunction,Soldermask,Top*%
%TF.FilePolarity,Negative*%
%FSLAX46Y46*%
G04 Gerber Fmt 4.6, Leading zero omitted, Abs format (unit mm)*
G04 Created by KiCad (PCBNEW 5.1.10-88a1d61d58~90~ubuntu20.04.1) date 2021-11-19 20:23:52*
%MOMM*%
%LPD*%
G01*
G04 APERTURE LIST*
%TA.AperFunction,Profile*%
%ADD10C,0.050000*%
%TD*%
%ADD11C,0.010000*%
%ADD12O,2.000000X2.000000*%
%ADD13R,2.000000X2.000000*%
%ADD14R,5.800000X6.400000*%
%ADD15R,1.200000X2.200000*%
%ADD16C,3.200000*%
%ADD17R,0.800000X0.900000*%
%ADD18R,1.140000X2.030000*%
%ADD19R,1.600000X1.600000*%
%ADD20C,1.600000*%
%ADD21O,4.000000X2.800000*%
%ADD22O,1.500000X2.500000*%
%ADD23R,1.500000X2.500000*%
%ADD24R,0.900000X0.800000*%
%ADD25O,3.200000X3.200000*%
%ADD26R,3.200000X3.200000*%
%ADD27R,1.350000X0.400000*%
%ADD28R,1.900000X2.900000*%
%ADD29O,1.900000X0.950000*%
%ADD30O,2.100000X1.050000*%
%ADD31C,2.000000*%
G04 APERTURE END LIST*
D10*
X197600000Y-133200000D02*
X203400000Y-133200000D01*
X197600000Y-134200000D02*
X203400000Y-134200000D01*
X192700000Y-134200000D02*
X194200000Y-134200000D01*
X206800000Y-134200000D02*
X208300000Y-134200000D01*
X192700000Y-133200000D02*
X194200000Y-133200000D01*
X197600000Y-134200000D02*
G75*
G02*
X197600000Y-133200000I0J500000D01*
G01*
X203400000Y-133200000D02*
G75*
G02*
X203400000Y-134200000I0J-500000D01*
G01*
X206800000Y-134200000D02*
G75*
G02*
X206800000Y-133200000I0J500000D01*
G01*
X194200000Y-133200000D02*
G75*
G02*
X194200000Y-134200000I0J-500000D01*
G01*
X330600000Y-208000000D02*
X330600000Y-209800000D01*
X330600000Y-203250000D02*
X330600000Y-207149000D01*
X329030000Y-203249000D02*
G75*
G02*
X329030000Y-202399000I0J425000D01*
G01*
X329030000Y-203249000D02*
X330600000Y-203249000D01*
X329030000Y-202399000D02*
X330600000Y-202399000D01*
X329030000Y-207999000D02*
G75*
G02*
X329030000Y-207149000I0J425000D01*
G01*
X329030000Y-207149000D02*
X330600000Y-207149000D01*
X329030000Y-207999000D02*
X330600000Y-207999000D01*
X334473216Y-151784307D02*
X334841394Y-151986459D01*
X326209269Y-147680505D02*
X326340000Y-147740000D01*
X334473217Y-151784307D02*
G75*
G03*
X326340000Y-147740000I-100603217J-192115693D01*
G01*
X313693401Y-142252243D02*
X313977382Y-142376308D01*
X296341181Y-136225926D02*
X296540000Y-136280000D01*
X313693401Y-142252243D02*
G75*
G03*
X296540000Y-136280000I-79823401J-201647757D01*
G01*
X283817199Y-132845881D02*
X284141181Y-132935926D01*
X266392088Y-129478148D02*
X266730000Y-129520000D01*
X283817199Y-132845881D02*
G75*
G03*
X266730000Y-129520000I-49947199J-211054119D01*
G01*
X253945960Y-127939407D02*
X254312844Y-127986195D01*
X236634899Y-127029391D02*
X236940000Y-127030000D01*
X253945960Y-127939408D02*
G75*
G03*
X236940000Y-127030000I-20075960J-215960592D01*
G01*
X224310641Y-127212249D02*
X224573648Y-127204808D01*
X211100000Y-128200000D02*
X210713176Y-128247596D01*
X224310641Y-127212249D02*
G75*
G03*
X211100000Y-128200000I9559359J-216687751D01*
G01*
X210713176Y-128247596D02*
G75*
G03*
X210300000Y-128740000I86824J-492404D01*
G01*
X189818328Y-131513618D02*
X190070590Y-131457037D01*
X190070590Y-131457037D02*
G75*
G02*
X190700000Y-131940000I129410J-482963D01*
G01*
X177300000Y-134500000D02*
X176925568Y-134605519D01*
X189818328Y-131513619D02*
G75*
G03*
X177300000Y-134500000I44051672J-212386381D01*
G01*
X147100000Y-145100000D02*
X147022618Y-145136308D01*
X164658819Y-138335926D02*
X164398003Y-138414929D01*
X164398003Y-138414928D02*
G75*
G03*
X147100000Y-145100000I69471997J-205485072D01*
G01*
X117400000Y-160900000D02*
X117229320Y-161007146D01*
X134929919Y-150858048D02*
X134801847Y-150922131D01*
X134801848Y-150922131D02*
G75*
G03*
X117400000Y-160900000I99088152J-192977869D01*
G01*
X104841866Y-169519312D02*
X104929919Y-169458048D01*
X75069131Y-196113145D02*
X74841689Y-196355905D01*
X87600000Y-183700000D02*
X87294658Y-183979340D01*
X313977382Y-142376308D02*
G75*
G03*
X315400000Y-141470000I422618J906308D01*
G01*
X284141181Y-132935926D02*
G75*
G03*
X285400000Y-131970000I258819J965926D01*
G01*
X254312844Y-127986195D02*
G75*
G03*
X255400000Y-126990000I87156J996195D01*
G01*
X224573648Y-127204808D02*
G75*
G03*
X225400000Y-126220000I-173648J984808D01*
G01*
X164658819Y-138335926D02*
G75*
G03*
X165400000Y-137370000I-258819J965926D01*
G01*
X134929919Y-150858048D02*
G75*
G03*
X135400000Y-150010000I-529919J848048D01*
G01*
X326209269Y-147680505D02*
G75*
G02*
X325600000Y-146760000I390731J920505D01*
G01*
X296341181Y-136225926D02*
G75*
G02*
X295600000Y-135260000I258819J965926D01*
G01*
X266392088Y-129478148D02*
G75*
G02*
X265600000Y-128500000I207912J978148D01*
G01*
X236634899Y-127029391D02*
G75*
G02*
X235600000Y-126030000I-34899J999391D01*
G01*
X176925568Y-134605519D02*
G75*
G02*
X175600000Y-133660000I-325568J945519D01*
G01*
X147022618Y-145136308D02*
G75*
G02*
X145600000Y-144230000I-422618J906308D01*
G01*
X117229320Y-161007146D02*
G75*
G02*
X115600000Y-160230000I-629320J777146D01*
G01*
X104929919Y-169458048D02*
G75*
G03*
X105400000Y-168610000I-529919J848048D01*
G01*
X87294658Y-183979340D02*
G75*
G02*
X85600000Y-183260000I-694658J719340D01*
G01*
X75069131Y-196113145D02*
G75*
G03*
X75400000Y-195370000I-669131J743145D01*
G01*
X74841689Y-196355905D02*
G75*
G03*
X57824000Y-217136000I158968311J-147544095D01*
G01*
X210300000Y-132200000D02*
X210300000Y-128740000D01*
X190700000Y-132200000D02*
X190700000Y-131940000D01*
X210300000Y-132200000D02*
G75*
G02*
X208300000Y-134200000I-2000000J0D01*
G01*
X192700000Y-134200000D02*
G75*
G02*
X190700000Y-132200000I0J2000000D01*
G01*
X209300000Y-132200000D02*
G75*
G02*
X208300000Y-133200000I-1000000J0D01*
G01*
X192700000Y-133200000D02*
G75*
G02*
X191700000Y-132200000I0J1000000D01*
G01*
X330600000Y-209800000D02*
G75*
G03*
X331600000Y-210800000I1000000J0D01*
G01*
X332889778Y-211022354D02*
X332963500Y-211270827D01*
X332889778Y-211022354D02*
G75*
G03*
X332600000Y-210800000I-289778J-77646D01*
G01*
X331600000Y-210800000D02*
X332600000Y-210800000D01*
X332963500Y-211270827D02*
G75*
G03*
X335030000Y-217906000I96036500J26270827D01*
G01*
X334963541Y-152291394D02*
X334868155Y-152553185D01*
X330600000Y-202399000D02*
X330600000Y-200200000D01*
X334963541Y-152291394D02*
G75*
G03*
X334841394Y-151986459I-213541J91394D01*
G01*
X327511852Y-223813089D02*
X327603497Y-223876946D01*
X64764915Y-223901327D02*
X64850309Y-223837228D01*
X64764915Y-223901326D02*
G75*
G02*
X57824000Y-217136000I-2964915J3901326D01*
G01*
X327603497Y-223876946D02*
G75*
G03*
X335030000Y-217906000I2996503J3876946D01*
G01*
X334868155Y-152553185D02*
G75*
G03*
X330600000Y-200200000I94131845J-32446815D01*
G01*
X104841866Y-169519312D02*
G75*
G03*
X87600000Y-183700000I128968134J-174380688D01*
G01*
X327511852Y-223813090D02*
G75*
G03*
X64850000Y-223840000I-131311852J-186186910D01*
G01*
X285400000Y-67400000D02*
G75*
G02*
X286400000Y-66400000I1000000J0D01*
G01*
X325600000Y-78200000D02*
X325600000Y-146760000D01*
X235600000Y-59800000D02*
X235600000Y-126030000D01*
X234600000Y-58800000D02*
G75*
G02*
X235600000Y-59800000I0J-1000000D01*
G01*
X226400000Y-58800000D02*
X234600000Y-58800000D01*
X225400000Y-59800000D02*
G75*
G02*
X226400000Y-58800000I1000000J0D01*
G01*
X225400000Y-126220000D02*
X225400000Y-59800000D01*
X286400000Y-66400000D02*
X294600000Y-66400000D01*
X315400000Y-78200000D02*
G75*
G02*
X316400000Y-77200000I1000000J0D01*
G01*
X315400000Y-141470000D02*
X315400000Y-78200000D01*
X264600000Y-60800000D02*
G75*
G02*
X265600000Y-61800000I0J-1000000D01*
G01*
X316400000Y-77200000D02*
X324600000Y-77200000D01*
X265600000Y-61800000D02*
X265600000Y-128500000D01*
X295600000Y-67400000D02*
X295600000Y-135260000D01*
X324600000Y-77200000D02*
G75*
G02*
X325600000Y-78200000I0J-1000000D01*
G01*
X255400000Y-126990000D02*
X255400000Y-61800000D01*
X285400000Y-131970000D02*
X285400000Y-67400000D01*
X256400000Y-60800000D02*
X264600000Y-60800000D01*
X294600000Y-66400000D02*
G75*
G02*
X295600000Y-67400000I0J-1000000D01*
G01*
X255400000Y-61800000D02*
G75*
G02*
X256400000Y-60800000I1000000J0D01*
G01*
X165400000Y-69400000D02*
G75*
G02*
X166400000Y-68400000I1000000J0D01*
G01*
X166400000Y-68400000D02*
X174600000Y-68400000D01*
X175600000Y-69400000D02*
X175600000Y-133660000D01*
X165400000Y-137370000D02*
X165400000Y-69400000D01*
X174600000Y-68400000D02*
G75*
G02*
X175600000Y-69400000I0J-1000000D01*
G01*
X145600000Y-81000000D02*
X145600000Y-144230000D01*
X144600000Y-80000000D02*
G75*
G02*
X145600000Y-81000000I0J-1000000D01*
G01*
X136400000Y-80000000D02*
X144600000Y-80000000D01*
X135400000Y-81000000D02*
G75*
G02*
X136400000Y-80000000I1000000J0D01*
G01*
X135400000Y-150010000D02*
X135400000Y-81000000D01*
X115600000Y-98000000D02*
X115600000Y-160230000D01*
X114600000Y-97000000D02*
G75*
G02*
X115600000Y-98000000I0J-1000000D01*
G01*
X106400000Y-97000000D02*
X114600000Y-97000000D01*
X105400000Y-98000000D02*
G75*
G02*
X106400000Y-97000000I1000000J0D01*
G01*
X105400000Y-168610000D02*
X105400000Y-98000000D01*
X205600000Y-98800000D02*
X209300000Y-103000000D01*
X205600000Y-54400000D02*
X205600000Y-98800000D01*
X195400000Y-98800000D02*
X191700000Y-103000000D01*
X195400000Y-54400000D02*
X195400000Y-98800000D01*
X204600000Y-53400000D02*
G75*
G02*
X205600000Y-54400000I0J-1000000D01*
G01*
X196400000Y-53400000D02*
X204600000Y-53400000D01*
X195400000Y-54400000D02*
G75*
G02*
X196400000Y-53400000I1000000J0D01*
G01*
X209300000Y-103000000D02*
X209300000Y-132200000D01*
X206800000Y-133200000D02*
X208300000Y-133200000D01*
X191700000Y-103000000D02*
X191700000Y-132200000D01*
X84600000Y-121000000D02*
G75*
G02*
X85600000Y-122000000I0J-1000000D01*
G01*
X75400000Y-122000000D02*
G75*
G02*
X76400000Y-121000000I1000000J0D01*
G01*
X75400000Y-195370000D02*
X75400000Y-122000000D01*
X85600000Y-122000000D02*
X85600000Y-183260000D01*
X76400000Y-121000000D02*
X84600000Y-121000000D01*
D11*
%TO.C,J1*%
G36*
X328100000Y-201994530D02*
G01*
X328100000Y-201025000D01*
X330201790Y-201025000D01*
X330201790Y-201994530D01*
X328100000Y-201994530D01*
G37*
X328100000Y-201994530D02*
X328100000Y-201025000D01*
X330201790Y-201025000D01*
X330201790Y-201994530D01*
X328100000Y-201994530D01*
G36*
X328100000Y-209375100D02*
G01*
X328100000Y-208400000D01*
X330200030Y-208400000D01*
X330200030Y-209375100D01*
X328100000Y-209375100D01*
G37*
X328100000Y-209375100D02*
X328100000Y-208400000D01*
X330200030Y-208400000D01*
X330200030Y-209375100D01*
X328100000Y-209375100D01*
%TD*%
D12*
%TO.C,C19*%
X206500000Y-121900000D03*
D13*
X194500000Y-121900000D03*
%TD*%
D14*
%TO.C,Q10*%
X311980000Y-162460000D03*
D15*
X309700000Y-156160000D03*
X314260000Y-156160000D03*
%TD*%
%TO.C,R26*%
G36*
G01*
X292669998Y-145170000D02*
X293570002Y-145170000D01*
G75*
G02*
X293820000Y-145419998I0J-249998D01*
G01*
X293820000Y-145945002D01*
G75*
G02*
X293570002Y-146195000I-249998J0D01*
G01*
X292669998Y-146195000D01*
G75*
G02*
X292420000Y-145945002I0J249998D01*
G01*
X292420000Y-145419998D01*
G75*
G02*
X292669998Y-145170000I249998J0D01*
G01*
G37*
G36*
G01*
X292669998Y-143345000D02*
X293570002Y-143345000D01*
G75*
G02*
X293820000Y-143594998I0J-249998D01*
G01*
X293820000Y-144120002D01*
G75*
G02*
X293570002Y-144370000I-249998J0D01*
G01*
X292669998Y-144370000D01*
G75*
G02*
X292420000Y-144120002I0J249998D01*
G01*
X292420000Y-143594998D01*
G75*
G02*
X292669998Y-143345000I249998J0D01*
G01*
G37*
%TD*%
D16*
%TO.C,H3*%
X330600000Y-220000000D03*
%TD*%
%TO.C,H2*%
X196200000Y-177200000D03*
%TD*%
%TO.C,H1*%
X61800000Y-220000000D03*
%TD*%
%TO.C,LED6*%
G36*
G01*
X232170000Y-60750000D02*
X232170000Y-62850000D01*
G75*
G02*
X231720000Y-63300000I-450000J0D01*
G01*
X230820000Y-63300000D01*
G75*
G02*
X230370000Y-62850000I0J450000D01*
G01*
X230370000Y-60750000D01*
G75*
G02*
X230820000Y-60300000I450000J0D01*
G01*
X231720000Y-60300000D01*
G75*
G02*
X232170000Y-60750000I0J-450000D01*
G01*
G37*
G36*
G01*
X229630000Y-60750000D02*
X229630000Y-62850000D01*
G75*
G02*
X229180000Y-63300000I-450000J0D01*
G01*
X228280000Y-63300000D01*
G75*
G02*
X227830000Y-62850000I0J450000D01*
G01*
X227830000Y-60750000D01*
G75*
G02*
X228280000Y-60300000I450000J0D01*
G01*
X229180000Y-60300000D01*
G75*
G02*
X229630000Y-60750000I0J-450000D01*
G01*
G37*
%TD*%
%TO.C,C6*%
G36*
G01*
X259650000Y-101075000D02*
X259650000Y-100125000D01*
G75*
G02*
X259900000Y-99875000I250000J0D01*
G01*
X260400000Y-99875000D01*
G75*
G02*
X260650000Y-100125000I0J-250000D01*
G01*
X260650000Y-101075000D01*
G75*
G02*
X260400000Y-101325000I-250000J0D01*
G01*
X259900000Y-101325000D01*
G75*
G02*
X259650000Y-101075000I0J250000D01*
G01*
G37*
G36*
G01*
X257750000Y-101075000D02*
X257750000Y-100125000D01*
G75*
G02*
X258000000Y-99875000I250000J0D01*
G01*
X258500000Y-99875000D01*
G75*
G02*
X258750000Y-100125000I0J-250000D01*
G01*
X258750000Y-101075000D01*
G75*
G02*
X258500000Y-101325000I-250000J0D01*
G01*
X258000000Y-101325000D01*
G75*
G02*
X257750000Y-101075000I0J250000D01*
G01*
G37*
%TD*%
%TO.C,R5*%
G36*
G01*
X228149998Y-74775000D02*
X229050002Y-74775000D01*
G75*
G02*
X229300000Y-75024998I0J-249998D01*
G01*
X229300000Y-75550002D01*
G75*
G02*
X229050002Y-75800000I-249998J0D01*
G01*
X228149998Y-75800000D01*
G75*
G02*
X227900000Y-75550002I0J249998D01*
G01*
X227900000Y-75024998D01*
G75*
G02*
X228149998Y-74775000I249998J0D01*
G01*
G37*
G36*
G01*
X228149998Y-76600000D02*
X229050002Y-76600000D01*
G75*
G02*
X229300000Y-76849998I0J-249998D01*
G01*
X229300000Y-77375002D01*
G75*
G02*
X229050002Y-77625000I-249998J0D01*
G01*
X228149998Y-77625000D01*
G75*
G02*
X227900000Y-77375002I0J249998D01*
G01*
X227900000Y-76849998D01*
G75*
G02*
X228149998Y-76600000I249998J0D01*
G01*
G37*
%TD*%
D17*
%TO.C,Q8*%
X318450000Y-100000000D03*
X320350000Y-100000000D03*
X319400000Y-98000000D03*
%TD*%
%TO.C,R8*%
G36*
G01*
X318149998Y-93175000D02*
X319050002Y-93175000D01*
G75*
G02*
X319300000Y-93424998I0J-249998D01*
G01*
X319300000Y-93950002D01*
G75*
G02*
X319050002Y-94200000I-249998J0D01*
G01*
X318149998Y-94200000D01*
G75*
G02*
X317900000Y-93950002I0J249998D01*
G01*
X317900000Y-93424998D01*
G75*
G02*
X318149998Y-93175000I249998J0D01*
G01*
G37*
G36*
G01*
X318149998Y-95000000D02*
X319050002Y-95000000D01*
G75*
G02*
X319300000Y-95249998I0J-249998D01*
G01*
X319300000Y-95775002D01*
G75*
G02*
X319050002Y-96025000I-249998J0D01*
G01*
X318149998Y-96025000D01*
G75*
G02*
X317900000Y-95775002I0J249998D01*
G01*
X317900000Y-95249998D01*
G75*
G02*
X318149998Y-95000000I249998J0D01*
G01*
G37*
%TD*%
D18*
%TO.C,SW8*%
X324100000Y-93955000D03*
X324100000Y-79095000D03*
%TD*%
%TO.C,R6*%
G36*
G01*
X258149998Y-78600000D02*
X259050002Y-78600000D01*
G75*
G02*
X259300000Y-78849998I0J-249998D01*
G01*
X259300000Y-79375002D01*
G75*
G02*
X259050002Y-79625000I-249998J0D01*
G01*
X258149998Y-79625000D01*
G75*
G02*
X257900000Y-79375002I0J249998D01*
G01*
X257900000Y-78849998D01*
G75*
G02*
X258149998Y-78600000I249998J0D01*
G01*
G37*
G36*
G01*
X258149998Y-76775000D02*
X259050002Y-76775000D01*
G75*
G02*
X259300000Y-77024998I0J-249998D01*
G01*
X259300000Y-77550002D01*
G75*
G02*
X259050002Y-77800000I-249998J0D01*
G01*
X258149998Y-77800000D01*
G75*
G02*
X257900000Y-77550002I0J249998D01*
G01*
X257900000Y-77024998D01*
G75*
G02*
X258149998Y-76775000I249998J0D01*
G01*
G37*
%TD*%
%TO.C,R15*%
G36*
G01*
X288850002Y-91600000D02*
X287949998Y-91600000D01*
G75*
G02*
X287700000Y-91350002I0J249998D01*
G01*
X287700000Y-90824998D01*
G75*
G02*
X287949998Y-90575000I249998J0D01*
G01*
X288850002Y-90575000D01*
G75*
G02*
X289100000Y-90824998I0J-249998D01*
G01*
X289100000Y-91350002D01*
G75*
G02*
X288850002Y-91600000I-249998J0D01*
G01*
G37*
G36*
G01*
X288850002Y-93425000D02*
X287949998Y-93425000D01*
G75*
G02*
X287700000Y-93175002I0J249998D01*
G01*
X287700000Y-92649998D01*
G75*
G02*
X287949998Y-92400000I249998J0D01*
G01*
X288850002Y-92400000D01*
G75*
G02*
X289100000Y-92649998I0J-249998D01*
G01*
X289100000Y-93175002D01*
G75*
G02*
X288850002Y-93425000I-249998J0D01*
G01*
G37*
%TD*%
%TO.C,LED9*%
G36*
G01*
X322170000Y-79150000D02*
X322170000Y-81250000D01*
G75*
G02*
X321720000Y-81700000I-450000J0D01*
G01*
X320820000Y-81700000D01*
G75*
G02*
X320370000Y-81250000I0J450000D01*
G01*
X320370000Y-79150000D01*
G75*
G02*
X320820000Y-78700000I450000J0D01*
G01*
X321720000Y-78700000D01*
G75*
G02*
X322170000Y-79150000I0J-450000D01*
G01*
G37*
G36*
G01*
X319630000Y-79150000D02*
X319630000Y-81250000D01*
G75*
G02*
X319180000Y-81700000I-450000J0D01*
G01*
X318280000Y-81700000D01*
G75*
G02*
X317830000Y-81250000I0J450000D01*
G01*
X317830000Y-79150000D01*
G75*
G02*
X318280000Y-78700000I450000J0D01*
G01*
X319180000Y-78700000D01*
G75*
G02*
X319630000Y-79150000I0J-450000D01*
G01*
G37*
%TD*%
%TO.C,U8*%
G36*
G01*
X321955000Y-107550000D02*
X322255000Y-107550000D01*
G75*
G02*
X322405000Y-107700000I0J-150000D01*
G01*
X322405000Y-109350000D01*
G75*
G02*
X322255000Y-109500000I-150000J0D01*
G01*
X321955000Y-109500000D01*
G75*
G02*
X321805000Y-109350000I0J150000D01*
G01*
X321805000Y-107700000D01*
G75*
G02*
X321955000Y-107550000I150000J0D01*
G01*
G37*
G36*
G01*
X320685000Y-107550000D02*
X320985000Y-107550000D01*
G75*
G02*
X321135000Y-107700000I0J-150000D01*
G01*
X321135000Y-109350000D01*
G75*
G02*
X320985000Y-109500000I-150000J0D01*
G01*
X320685000Y-109500000D01*
G75*
G02*
X320535000Y-109350000I0J150000D01*
G01*
X320535000Y-107700000D01*
G75*
G02*
X320685000Y-107550000I150000J0D01*
G01*
G37*
G36*
G01*
X319415000Y-107550000D02*
X319715000Y-107550000D01*
G75*
G02*
X319865000Y-107700000I0J-150000D01*
G01*
X319865000Y-109350000D01*
G75*
G02*
X319715000Y-109500000I-150000J0D01*
G01*
X319415000Y-109500000D01*
G75*
G02*
X319265000Y-109350000I0J150000D01*
G01*
X319265000Y-107700000D01*
G75*
G02*
X319415000Y-107550000I150000J0D01*
G01*
G37*
G36*
G01*
X318145000Y-107550000D02*
X318445000Y-107550000D01*
G75*
G02*
X318595000Y-107700000I0J-150000D01*
G01*
X318595000Y-109350000D01*
G75*
G02*
X318445000Y-109500000I-150000J0D01*
G01*
X318145000Y-109500000D01*
G75*
G02*
X317995000Y-109350000I0J150000D01*
G01*
X317995000Y-107700000D01*
G75*
G02*
X318145000Y-107550000I150000J0D01*
G01*
G37*
G36*
G01*
X318145000Y-112500000D02*
X318445000Y-112500000D01*
G75*
G02*
X318595000Y-112650000I0J-150000D01*
G01*
X318595000Y-114300000D01*
G75*
G02*
X318445000Y-114450000I-150000J0D01*
G01*
X318145000Y-114450000D01*
G75*
G02*
X317995000Y-114300000I0J150000D01*
G01*
X317995000Y-112650000D01*
G75*
G02*
X318145000Y-112500000I150000J0D01*
G01*
G37*
G36*
G01*
X319415000Y-112500000D02*
X319715000Y-112500000D01*
G75*
G02*
X319865000Y-112650000I0J-150000D01*
G01*
X319865000Y-114300000D01*
G75*
G02*
X319715000Y-114450000I-150000J0D01*
G01*
X319415000Y-114450000D01*
G75*
G02*
X319265000Y-114300000I0J150000D01*
G01*
X319265000Y-112650000D01*
G75*
G02*
X319415000Y-112500000I150000J0D01*
G01*
G37*
G36*
G01*
X320685000Y-112500000D02*
X320985000Y-112500000D01*
G75*
G02*
X321135000Y-112650000I0J-150000D01*
G01*
X321135000Y-114300000D01*
G75*
G02*
X320985000Y-114450000I-150000J0D01*
G01*
X320685000Y-114450000D01*
G75*
G02*
X320535000Y-114300000I0J150000D01*
G01*
X320535000Y-112650000D01*
G75*
G02*
X320685000Y-112500000I150000J0D01*
G01*
G37*
G36*
G01*
X321955000Y-112500000D02*
X322255000Y-112500000D01*
G75*
G02*
X322405000Y-112650000I0J-150000D01*
G01*
X322405000Y-114300000D01*
G75*
G02*
X322255000Y-114450000I-150000J0D01*
G01*
X321955000Y-114450000D01*
G75*
G02*
X321805000Y-114300000I0J150000D01*
G01*
X321805000Y-112650000D01*
G75*
G02*
X321955000Y-112500000I150000J0D01*
G01*
G37*
%TD*%
%TO.C,SW7*%
X294100000Y-68295000D03*
X294100000Y-83155000D03*
%TD*%
%TO.C,U7*%
G36*
G01*
X291955000Y-101700000D02*
X292255000Y-101700000D01*
G75*
G02*
X292405000Y-101850000I0J-150000D01*
G01*
X292405000Y-103500000D01*
G75*
G02*
X292255000Y-103650000I-150000J0D01*
G01*
X291955000Y-103650000D01*
G75*
G02*
X291805000Y-103500000I0J150000D01*
G01*
X291805000Y-101850000D01*
G75*
G02*
X291955000Y-101700000I150000J0D01*
G01*
G37*
G36*
G01*
X290685000Y-101700000D02*
X290985000Y-101700000D01*
G75*
G02*
X291135000Y-101850000I0J-150000D01*
G01*
X291135000Y-103500000D01*
G75*
G02*
X290985000Y-103650000I-150000J0D01*
G01*
X290685000Y-103650000D01*
G75*
G02*
X290535000Y-103500000I0J150000D01*
G01*
X290535000Y-101850000D01*
G75*
G02*
X290685000Y-101700000I150000J0D01*
G01*
G37*
G36*
G01*
X289415000Y-101700000D02*
X289715000Y-101700000D01*
G75*
G02*
X289865000Y-101850000I0J-150000D01*
G01*
X289865000Y-103500000D01*
G75*
G02*
X289715000Y-103650000I-150000J0D01*
G01*
X289415000Y-103650000D01*
G75*
G02*
X289265000Y-103500000I0J150000D01*
G01*
X289265000Y-101850000D01*
G75*
G02*
X289415000Y-101700000I150000J0D01*
G01*
G37*
G36*
G01*
X288145000Y-101700000D02*
X288445000Y-101700000D01*
G75*
G02*
X288595000Y-101850000I0J-150000D01*
G01*
X288595000Y-103500000D01*
G75*
G02*
X288445000Y-103650000I-150000J0D01*
G01*
X288145000Y-103650000D01*
G75*
G02*
X287995000Y-103500000I0J150000D01*
G01*
X287995000Y-101850000D01*
G75*
G02*
X288145000Y-101700000I150000J0D01*
G01*
G37*
G36*
G01*
X288145000Y-96750000D02*
X288445000Y-96750000D01*
G75*
G02*
X288595000Y-96900000I0J-150000D01*
G01*
X288595000Y-98550000D01*
G75*
G02*
X288445000Y-98700000I-150000J0D01*
G01*
X288145000Y-98700000D01*
G75*
G02*
X287995000Y-98550000I0J150000D01*
G01*
X287995000Y-96900000D01*
G75*
G02*
X288145000Y-96750000I150000J0D01*
G01*
G37*
G36*
G01*
X289415000Y-96750000D02*
X289715000Y-96750000D01*
G75*
G02*
X289865000Y-96900000I0J-150000D01*
G01*
X289865000Y-98550000D01*
G75*
G02*
X289715000Y-98700000I-150000J0D01*
G01*
X289415000Y-98700000D01*
G75*
G02*
X289265000Y-98550000I0J150000D01*
G01*
X289265000Y-96900000D01*
G75*
G02*
X289415000Y-96750000I150000J0D01*
G01*
G37*
G36*
G01*
X290685000Y-96750000D02*
X290985000Y-96750000D01*
G75*
G02*
X291135000Y-96900000I0J-150000D01*
G01*
X291135000Y-98550000D01*
G75*
G02*
X290985000Y-98700000I-150000J0D01*
G01*
X290685000Y-98700000D01*
G75*
G02*
X290535000Y-98550000I0J150000D01*
G01*
X290535000Y-96900000D01*
G75*
G02*
X290685000Y-96750000I150000J0D01*
G01*
G37*
G36*
G01*
X291955000Y-96750000D02*
X292255000Y-96750000D01*
G75*
G02*
X292405000Y-96900000I0J-150000D01*
G01*
X292405000Y-98550000D01*
G75*
G02*
X292255000Y-98700000I-150000J0D01*
G01*
X291955000Y-98700000D01*
G75*
G02*
X291805000Y-98550000I0J150000D01*
G01*
X291805000Y-96900000D01*
G75*
G02*
X291955000Y-96750000I150000J0D01*
G01*
G37*
%TD*%
%TO.C,R21*%
G36*
G01*
X229825000Y-86949998D02*
X229825000Y-87850002D01*
G75*
G02*
X229575002Y-88100000I-249998J0D01*
G01*
X229049998Y-88100000D01*
G75*
G02*
X228800000Y-87850002I0J249998D01*
G01*
X228800000Y-86949998D01*
G75*
G02*
X229049998Y-86700000I249998J0D01*
G01*
X229575002Y-86700000D01*
G75*
G02*
X229825000Y-86949998I0J-249998D01*
G01*
G37*
G36*
G01*
X228000000Y-86949998D02*
X228000000Y-87850002D01*
G75*
G02*
X227750002Y-88100000I-249998J0D01*
G01*
X227224998Y-88100000D01*
G75*
G02*
X226975000Y-87850002I0J249998D01*
G01*
X226975000Y-86949998D01*
G75*
G02*
X227224998Y-86700000I249998J0D01*
G01*
X227750002Y-86700000D01*
G75*
G02*
X228000000Y-86949998I0J-249998D01*
G01*
G37*
%TD*%
%TO.C,C5*%
G36*
G01*
X227750000Y-99075000D02*
X227750000Y-98125000D01*
G75*
G02*
X228000000Y-97875000I250000J0D01*
G01*
X228500000Y-97875000D01*
G75*
G02*
X228750000Y-98125000I0J-250000D01*
G01*
X228750000Y-99075000D01*
G75*
G02*
X228500000Y-99325000I-250000J0D01*
G01*
X228000000Y-99325000D01*
G75*
G02*
X227750000Y-99075000I0J250000D01*
G01*
G37*
G36*
G01*
X229650000Y-99075000D02*
X229650000Y-98125000D01*
G75*
G02*
X229900000Y-97875000I250000J0D01*
G01*
X230400000Y-97875000D01*
G75*
G02*
X230650000Y-98125000I0J-250000D01*
G01*
X230650000Y-99075000D01*
G75*
G02*
X230400000Y-99325000I-250000J0D01*
G01*
X229900000Y-99325000D01*
G75*
G02*
X229650000Y-99075000I0J250000D01*
G01*
G37*
%TD*%
D17*
%TO.C,Q6*%
X259400000Y-81600000D03*
X260350000Y-83600000D03*
X258450000Y-83600000D03*
%TD*%
%TO.C,C8*%
G36*
G01*
X317750000Y-117475000D02*
X317750000Y-116525000D01*
G75*
G02*
X318000000Y-116275000I250000J0D01*
G01*
X318500000Y-116275000D01*
G75*
G02*
X318750000Y-116525000I0J-250000D01*
G01*
X318750000Y-117475000D01*
G75*
G02*
X318500000Y-117725000I-250000J0D01*
G01*
X318000000Y-117725000D01*
G75*
G02*
X317750000Y-117475000I0J250000D01*
G01*
G37*
G36*
G01*
X319650000Y-117475000D02*
X319650000Y-116525000D01*
G75*
G02*
X319900000Y-116275000I250000J0D01*
G01*
X320400000Y-116275000D01*
G75*
G02*
X320650000Y-116525000I0J-250000D01*
G01*
X320650000Y-117475000D01*
G75*
G02*
X320400000Y-117725000I-250000J0D01*
G01*
X319900000Y-117725000D01*
G75*
G02*
X319650000Y-117475000I0J250000D01*
G01*
G37*
%TD*%
%TO.C,LED7*%
G36*
G01*
X259630000Y-62750000D02*
X259630000Y-64850000D01*
G75*
G02*
X259180000Y-65300000I-450000J0D01*
G01*
X258280000Y-65300000D01*
G75*
G02*
X257830000Y-64850000I0J450000D01*
G01*
X257830000Y-62750000D01*
G75*
G02*
X258280000Y-62300000I450000J0D01*
G01*
X259180000Y-62300000D01*
G75*
G02*
X259630000Y-62750000I0J-450000D01*
G01*
G37*
G36*
G01*
X262170000Y-62750000D02*
X262170000Y-64850000D01*
G75*
G02*
X261720000Y-65300000I-450000J0D01*
G01*
X260820000Y-65300000D01*
G75*
G02*
X260370000Y-64850000I0J450000D01*
G01*
X260370000Y-62750000D01*
G75*
G02*
X260820000Y-62300000I450000J0D01*
G01*
X261720000Y-62300000D01*
G75*
G02*
X262170000Y-62750000I0J-450000D01*
G01*
G37*
%TD*%
%TO.C,R14*%
G36*
G01*
X258850002Y-86000000D02*
X257949998Y-86000000D01*
G75*
G02*
X257700000Y-85750002I0J249998D01*
G01*
X257700000Y-85224998D01*
G75*
G02*
X257949998Y-84975000I249998J0D01*
G01*
X258850002Y-84975000D01*
G75*
G02*
X259100000Y-85224998I0J-249998D01*
G01*
X259100000Y-85750002D01*
G75*
G02*
X258850002Y-86000000I-249998J0D01*
G01*
G37*
G36*
G01*
X258850002Y-87825000D02*
X257949998Y-87825000D01*
G75*
G02*
X257700000Y-87575002I0J249998D01*
G01*
X257700000Y-87049998D01*
G75*
G02*
X257949998Y-86800000I249998J0D01*
G01*
X258850002Y-86800000D01*
G75*
G02*
X259100000Y-87049998I0J-249998D01*
G01*
X259100000Y-87575002D01*
G75*
G02*
X258850002Y-87825000I-249998J0D01*
G01*
G37*
%TD*%
D18*
%TO.C,SW6*%
X264100000Y-62695000D03*
X264100000Y-77555000D03*
%TD*%
%TO.C,LED8*%
G36*
G01*
X289630000Y-68350000D02*
X289630000Y-70450000D01*
G75*
G02*
X289180000Y-70900000I-450000J0D01*
G01*
X288280000Y-70900000D01*
G75*
G02*
X287830000Y-70450000I0J450000D01*
G01*
X287830000Y-68350000D01*
G75*
G02*
X288280000Y-67900000I450000J0D01*
G01*
X289180000Y-67900000D01*
G75*
G02*
X289630000Y-68350000I0J-450000D01*
G01*
G37*
G36*
G01*
X292170000Y-68350000D02*
X292170000Y-70450000D01*
G75*
G02*
X291720000Y-70900000I-450000J0D01*
G01*
X290820000Y-70900000D01*
G75*
G02*
X290370000Y-70450000I0J450000D01*
G01*
X290370000Y-68350000D01*
G75*
G02*
X290820000Y-67900000I450000J0D01*
G01*
X291720000Y-67900000D01*
G75*
G02*
X292170000Y-68350000I0J-450000D01*
G01*
G37*
%TD*%
%TO.C,U5*%
G36*
G01*
X231955000Y-89150000D02*
X232255000Y-89150000D01*
G75*
G02*
X232405000Y-89300000I0J-150000D01*
G01*
X232405000Y-90950000D01*
G75*
G02*
X232255000Y-91100000I-150000J0D01*
G01*
X231955000Y-91100000D01*
G75*
G02*
X231805000Y-90950000I0J150000D01*
G01*
X231805000Y-89300000D01*
G75*
G02*
X231955000Y-89150000I150000J0D01*
G01*
G37*
G36*
G01*
X230685000Y-89150000D02*
X230985000Y-89150000D01*
G75*
G02*
X231135000Y-89300000I0J-150000D01*
G01*
X231135000Y-90950000D01*
G75*
G02*
X230985000Y-91100000I-150000J0D01*
G01*
X230685000Y-91100000D01*
G75*
G02*
X230535000Y-90950000I0J150000D01*
G01*
X230535000Y-89300000D01*
G75*
G02*
X230685000Y-89150000I150000J0D01*
G01*
G37*
G36*
G01*
X229415000Y-89150000D02*
X229715000Y-89150000D01*
G75*
G02*
X229865000Y-89300000I0J-150000D01*
G01*
X229865000Y-90950000D01*
G75*
G02*
X229715000Y-91100000I-150000J0D01*
G01*
X229415000Y-91100000D01*
G75*
G02*
X229265000Y-90950000I0J150000D01*
G01*
X229265000Y-89300000D01*
G75*
G02*
X229415000Y-89150000I150000J0D01*
G01*
G37*
G36*
G01*
X228145000Y-89150000D02*
X228445000Y-89150000D01*
G75*
G02*
X228595000Y-89300000I0J-150000D01*
G01*
X228595000Y-90950000D01*
G75*
G02*
X228445000Y-91100000I-150000J0D01*
G01*
X228145000Y-91100000D01*
G75*
G02*
X227995000Y-90950000I0J150000D01*
G01*
X227995000Y-89300000D01*
G75*
G02*
X228145000Y-89150000I150000J0D01*
G01*
G37*
G36*
G01*
X228145000Y-94100000D02*
X228445000Y-94100000D01*
G75*
G02*
X228595000Y-94250000I0J-150000D01*
G01*
X228595000Y-95900000D01*
G75*
G02*
X228445000Y-96050000I-150000J0D01*
G01*
X228145000Y-96050000D01*
G75*
G02*
X227995000Y-95900000I0J150000D01*
G01*
X227995000Y-94250000D01*
G75*
G02*
X228145000Y-94100000I150000J0D01*
G01*
G37*
G36*
G01*
X229415000Y-94100000D02*
X229715000Y-94100000D01*
G75*
G02*
X229865000Y-94250000I0J-150000D01*
G01*
X229865000Y-95900000D01*
G75*
G02*
X229715000Y-96050000I-150000J0D01*
G01*
X229415000Y-96050000D01*
G75*
G02*
X229265000Y-95900000I0J150000D01*
G01*
X229265000Y-94250000D01*
G75*
G02*
X229415000Y-94100000I150000J0D01*
G01*
G37*
G36*
G01*
X230685000Y-94100000D02*
X230985000Y-94100000D01*
G75*
G02*
X231135000Y-94250000I0J-150000D01*
G01*
X231135000Y-95900000D01*
G75*
G02*
X230985000Y-96050000I-150000J0D01*
G01*
X230685000Y-96050000D01*
G75*
G02*
X230535000Y-95900000I0J150000D01*
G01*
X230535000Y-94250000D01*
G75*
G02*
X230685000Y-94100000I150000J0D01*
G01*
G37*
G36*
G01*
X231955000Y-94100000D02*
X232255000Y-94100000D01*
G75*
G02*
X232405000Y-94250000I0J-150000D01*
G01*
X232405000Y-95900000D01*
G75*
G02*
X232255000Y-96050000I-150000J0D01*
G01*
X231955000Y-96050000D01*
G75*
G02*
X231805000Y-95900000I0J150000D01*
G01*
X231805000Y-94250000D01*
G75*
G02*
X231955000Y-94100000I150000J0D01*
G01*
G37*
%TD*%
D17*
%TO.C,Q5*%
X228450000Y-81600000D03*
X230350000Y-81600000D03*
X229400000Y-79600000D03*
%TD*%
%TO.C,R24*%
G36*
G01*
X319825000Y-105349998D02*
X319825000Y-106250002D01*
G75*
G02*
X319575002Y-106500000I-249998J0D01*
G01*
X319049998Y-106500000D01*
G75*
G02*
X318800000Y-106250002I0J249998D01*
G01*
X318800000Y-105349998D01*
G75*
G02*
X319049998Y-105100000I249998J0D01*
G01*
X319575002Y-105100000D01*
G75*
G02*
X319825000Y-105349998I0J-249998D01*
G01*
G37*
G36*
G01*
X318000000Y-105349998D02*
X318000000Y-106250002D01*
G75*
G02*
X317750002Y-106500000I-249998J0D01*
G01*
X317224998Y-106500000D01*
G75*
G02*
X316975000Y-106250002I0J249998D01*
G01*
X316975000Y-105349998D01*
G75*
G02*
X317224998Y-105100000I249998J0D01*
G01*
X317750002Y-105100000D01*
G75*
G02*
X318000000Y-105349998I0J-249998D01*
G01*
G37*
%TD*%
%TO.C,C7*%
G36*
G01*
X289650000Y-106675000D02*
X289650000Y-105725000D01*
G75*
G02*
X289900000Y-105475000I250000J0D01*
G01*
X290400000Y-105475000D01*
G75*
G02*
X290650000Y-105725000I0J-250000D01*
G01*
X290650000Y-106675000D01*
G75*
G02*
X290400000Y-106925000I-250000J0D01*
G01*
X289900000Y-106925000D01*
G75*
G02*
X289650000Y-106675000I0J250000D01*
G01*
G37*
G36*
G01*
X287750000Y-106675000D02*
X287750000Y-105725000D01*
G75*
G02*
X288000000Y-105475000I250000J0D01*
G01*
X288500000Y-105475000D01*
G75*
G02*
X288750000Y-105725000I0J-250000D01*
G01*
X288750000Y-106675000D01*
G75*
G02*
X288500000Y-106925000I-250000J0D01*
G01*
X288000000Y-106925000D01*
G75*
G02*
X287750000Y-106675000I0J250000D01*
G01*
G37*
%TD*%
D19*
%TO.C,C13*%
X232250000Y-101600000D03*
D20*
X228750000Y-101600000D03*
%TD*%
%TO.C,U6*%
G36*
G01*
X261955000Y-96100000D02*
X262255000Y-96100000D01*
G75*
G02*
X262405000Y-96250000I0J-150000D01*
G01*
X262405000Y-97900000D01*
G75*
G02*
X262255000Y-98050000I-150000J0D01*
G01*
X261955000Y-98050000D01*
G75*
G02*
X261805000Y-97900000I0J150000D01*
G01*
X261805000Y-96250000D01*
G75*
G02*
X261955000Y-96100000I150000J0D01*
G01*
G37*
G36*
G01*
X260685000Y-96100000D02*
X260985000Y-96100000D01*
G75*
G02*
X261135000Y-96250000I0J-150000D01*
G01*
X261135000Y-97900000D01*
G75*
G02*
X260985000Y-98050000I-150000J0D01*
G01*
X260685000Y-98050000D01*
G75*
G02*
X260535000Y-97900000I0J150000D01*
G01*
X260535000Y-96250000D01*
G75*
G02*
X260685000Y-96100000I150000J0D01*
G01*
G37*
G36*
G01*
X259415000Y-96100000D02*
X259715000Y-96100000D01*
G75*
G02*
X259865000Y-96250000I0J-150000D01*
G01*
X259865000Y-97900000D01*
G75*
G02*
X259715000Y-98050000I-150000J0D01*
G01*
X259415000Y-98050000D01*
G75*
G02*
X259265000Y-97900000I0J150000D01*
G01*
X259265000Y-96250000D01*
G75*
G02*
X259415000Y-96100000I150000J0D01*
G01*
G37*
G36*
G01*
X258145000Y-96100000D02*
X258445000Y-96100000D01*
G75*
G02*
X258595000Y-96250000I0J-150000D01*
G01*
X258595000Y-97900000D01*
G75*
G02*
X258445000Y-98050000I-150000J0D01*
G01*
X258145000Y-98050000D01*
G75*
G02*
X257995000Y-97900000I0J150000D01*
G01*
X257995000Y-96250000D01*
G75*
G02*
X258145000Y-96100000I150000J0D01*
G01*
G37*
G36*
G01*
X258145000Y-91150000D02*
X258445000Y-91150000D01*
G75*
G02*
X258595000Y-91300000I0J-150000D01*
G01*
X258595000Y-92950000D01*
G75*
G02*
X258445000Y-93100000I-150000J0D01*
G01*
X258145000Y-93100000D01*
G75*
G02*
X257995000Y-92950000I0J150000D01*
G01*
X257995000Y-91300000D01*
G75*
G02*
X258145000Y-91150000I150000J0D01*
G01*
G37*
G36*
G01*
X259415000Y-91150000D02*
X259715000Y-91150000D01*
G75*
G02*
X259865000Y-91300000I0J-150000D01*
G01*
X259865000Y-92950000D01*
G75*
G02*
X259715000Y-93100000I-150000J0D01*
G01*
X259415000Y-93100000D01*
G75*
G02*
X259265000Y-92950000I0J150000D01*
G01*
X259265000Y-91300000D01*
G75*
G02*
X259415000Y-91150000I150000J0D01*
G01*
G37*
G36*
G01*
X260685000Y-91150000D02*
X260985000Y-91150000D01*
G75*
G02*
X261135000Y-91300000I0J-150000D01*
G01*
X261135000Y-92950000D01*
G75*
G02*
X260985000Y-93100000I-150000J0D01*
G01*
X260685000Y-93100000D01*
G75*
G02*
X260535000Y-92950000I0J150000D01*
G01*
X260535000Y-91300000D01*
G75*
G02*
X260685000Y-91150000I150000J0D01*
G01*
G37*
G36*
G01*
X261955000Y-91150000D02*
X262255000Y-91150000D01*
G75*
G02*
X262405000Y-91300000I0J-150000D01*
G01*
X262405000Y-92950000D01*
G75*
G02*
X262255000Y-93100000I-150000J0D01*
G01*
X261955000Y-93100000D01*
G75*
G02*
X261805000Y-92950000I0J150000D01*
G01*
X261805000Y-91300000D01*
G75*
G02*
X261955000Y-91150000I150000J0D01*
G01*
G37*
%TD*%
%TO.C,R13*%
G36*
G01*
X228850002Y-85825000D02*
X227949998Y-85825000D01*
G75*
G02*
X227700000Y-85575002I0J249998D01*
G01*
X227700000Y-85049998D01*
G75*
G02*
X227949998Y-84800000I249998J0D01*
G01*
X228850002Y-84800000D01*
G75*
G02*
X229100000Y-85049998I0J-249998D01*
G01*
X229100000Y-85575002D01*
G75*
G02*
X228850002Y-85825000I-249998J0D01*
G01*
G37*
G36*
G01*
X228850002Y-84000000D02*
X227949998Y-84000000D01*
G75*
G02*
X227700000Y-83750002I0J249998D01*
G01*
X227700000Y-83224998D01*
G75*
G02*
X227949998Y-82975000I249998J0D01*
G01*
X228850002Y-82975000D01*
G75*
G02*
X229100000Y-83224998I0J-249998D01*
G01*
X229100000Y-83750002D01*
G75*
G02*
X228850002Y-84000000I-249998J0D01*
G01*
G37*
%TD*%
D19*
%TO.C,C16*%
X322250000Y-120000000D03*
D20*
X318750000Y-120000000D03*
%TD*%
%TO.C,C14*%
X258750000Y-103600000D03*
D19*
X262250000Y-103600000D03*
%TD*%
%TO.C,R22*%
G36*
G01*
X258000000Y-88949998D02*
X258000000Y-89850002D01*
G75*
G02*
X257750002Y-90100000I-249998J0D01*
G01*
X257224998Y-90100000D01*
G75*
G02*
X256975000Y-89850002I0J249998D01*
G01*
X256975000Y-88949998D01*
G75*
G02*
X257224998Y-88700000I249998J0D01*
G01*
X257750002Y-88700000D01*
G75*
G02*
X258000000Y-88949998I0J-249998D01*
G01*
G37*
G36*
G01*
X259825000Y-88949998D02*
X259825000Y-89850002D01*
G75*
G02*
X259575002Y-90100000I-249998J0D01*
G01*
X259049998Y-90100000D01*
G75*
G02*
X258800000Y-89850002I0J249998D01*
G01*
X258800000Y-88949998D01*
G75*
G02*
X259049998Y-88700000I249998J0D01*
G01*
X259575002Y-88700000D01*
G75*
G02*
X259825000Y-88949998I0J-249998D01*
G01*
G37*
%TD*%
D20*
%TO.C,C15*%
X288750000Y-109200000D03*
D19*
X292250000Y-109200000D03*
%TD*%
%TO.C,R23*%
G36*
G01*
X288000000Y-94549998D02*
X288000000Y-95450002D01*
G75*
G02*
X287750002Y-95700000I-249998J0D01*
G01*
X287224998Y-95700000D01*
G75*
G02*
X286975000Y-95450002I0J249998D01*
G01*
X286975000Y-94549998D01*
G75*
G02*
X287224998Y-94300000I249998J0D01*
G01*
X287750002Y-94300000D01*
G75*
G02*
X288000000Y-94549998I0J-249998D01*
G01*
G37*
G36*
G01*
X289825000Y-94549998D02*
X289825000Y-95450002D01*
G75*
G02*
X289575002Y-95700000I-249998J0D01*
G01*
X289049998Y-95700000D01*
G75*
G02*
X288800000Y-95450002I0J249998D01*
G01*
X288800000Y-94549998D01*
G75*
G02*
X289049998Y-94300000I249998J0D01*
G01*
X289575002Y-94300000D01*
G75*
G02*
X289825000Y-94549998I0J-249998D01*
G01*
G37*
%TD*%
D17*
%TO.C,Q7*%
X289400000Y-87200000D03*
X290350000Y-89200000D03*
X288450000Y-89200000D03*
%TD*%
%TO.C,R16*%
G36*
G01*
X318850002Y-104225000D02*
X317949998Y-104225000D01*
G75*
G02*
X317700000Y-103975002I0J249998D01*
G01*
X317700000Y-103449998D01*
G75*
G02*
X317949998Y-103200000I249998J0D01*
G01*
X318850002Y-103200000D01*
G75*
G02*
X319100000Y-103449998I0J-249998D01*
G01*
X319100000Y-103975002D01*
G75*
G02*
X318850002Y-104225000I-249998J0D01*
G01*
G37*
G36*
G01*
X318850002Y-102400000D02*
X317949998Y-102400000D01*
G75*
G02*
X317700000Y-102150002I0J249998D01*
G01*
X317700000Y-101624998D01*
G75*
G02*
X317949998Y-101375000I249998J0D01*
G01*
X318850002Y-101375000D01*
G75*
G02*
X319100000Y-101624998I0J-249998D01*
G01*
X319100000Y-102150002D01*
G75*
G02*
X318850002Y-102400000I-249998J0D01*
G01*
G37*
%TD*%
%TO.C,R7*%
G36*
G01*
X288149998Y-84200000D02*
X289050002Y-84200000D01*
G75*
G02*
X289300000Y-84449998I0J-249998D01*
G01*
X289300000Y-84975002D01*
G75*
G02*
X289050002Y-85225000I-249998J0D01*
G01*
X288149998Y-85225000D01*
G75*
G02*
X287900000Y-84975002I0J249998D01*
G01*
X287900000Y-84449998D01*
G75*
G02*
X288149998Y-84200000I249998J0D01*
G01*
G37*
G36*
G01*
X288149998Y-82375000D02*
X289050002Y-82375000D01*
G75*
G02*
X289300000Y-82624998I0J-249998D01*
G01*
X289300000Y-83150002D01*
G75*
G02*
X289050002Y-83400000I-249998J0D01*
G01*
X288149998Y-83400000D01*
G75*
G02*
X287900000Y-83150002I0J249998D01*
G01*
X287900000Y-82624998D01*
G75*
G02*
X288149998Y-82375000I249998J0D01*
G01*
G37*
%TD*%
D18*
%TO.C,SW5*%
X234100000Y-75555000D03*
X234100000Y-60695000D03*
%TD*%
%TO.C,R12*%
G36*
G01*
X168850002Y-93600000D02*
X167949998Y-93600000D01*
G75*
G02*
X167700000Y-93350002I0J249998D01*
G01*
X167700000Y-92824998D01*
G75*
G02*
X167949998Y-92575000I249998J0D01*
G01*
X168850002Y-92575000D01*
G75*
G02*
X169100000Y-92824998I0J-249998D01*
G01*
X169100000Y-93350002D01*
G75*
G02*
X168850002Y-93600000I-249998J0D01*
G01*
G37*
G36*
G01*
X168850002Y-95425000D02*
X167949998Y-95425000D01*
G75*
G02*
X167700000Y-95175002I0J249998D01*
G01*
X167700000Y-94649998D01*
G75*
G02*
X167949998Y-94400000I249998J0D01*
G01*
X168850002Y-94400000D01*
G75*
G02*
X169100000Y-94649998I0J-249998D01*
G01*
X169100000Y-95175002D01*
G75*
G02*
X168850002Y-95425000I-249998J0D01*
G01*
G37*
%TD*%
%TO.C,SW4*%
X174100000Y-70295000D03*
X174100000Y-85155000D03*
%TD*%
%TO.C,U4*%
G36*
G01*
X171955000Y-103700000D02*
X172255000Y-103700000D01*
G75*
G02*
X172405000Y-103850000I0J-150000D01*
G01*
X172405000Y-105500000D01*
G75*
G02*
X172255000Y-105650000I-150000J0D01*
G01*
X171955000Y-105650000D01*
G75*
G02*
X171805000Y-105500000I0J150000D01*
G01*
X171805000Y-103850000D01*
G75*
G02*
X171955000Y-103700000I150000J0D01*
G01*
G37*
G36*
G01*
X170685000Y-103700000D02*
X170985000Y-103700000D01*
G75*
G02*
X171135000Y-103850000I0J-150000D01*
G01*
X171135000Y-105500000D01*
G75*
G02*
X170985000Y-105650000I-150000J0D01*
G01*
X170685000Y-105650000D01*
G75*
G02*
X170535000Y-105500000I0J150000D01*
G01*
X170535000Y-103850000D01*
G75*
G02*
X170685000Y-103700000I150000J0D01*
G01*
G37*
G36*
G01*
X169415000Y-103700000D02*
X169715000Y-103700000D01*
G75*
G02*
X169865000Y-103850000I0J-150000D01*
G01*
X169865000Y-105500000D01*
G75*
G02*
X169715000Y-105650000I-150000J0D01*
G01*
X169415000Y-105650000D01*
G75*
G02*
X169265000Y-105500000I0J150000D01*
G01*
X169265000Y-103850000D01*
G75*
G02*
X169415000Y-103700000I150000J0D01*
G01*
G37*
G36*
G01*
X168145000Y-103700000D02*
X168445000Y-103700000D01*
G75*
G02*
X168595000Y-103850000I0J-150000D01*
G01*
X168595000Y-105500000D01*
G75*
G02*
X168445000Y-105650000I-150000J0D01*
G01*
X168145000Y-105650000D01*
G75*
G02*
X167995000Y-105500000I0J150000D01*
G01*
X167995000Y-103850000D01*
G75*
G02*
X168145000Y-103700000I150000J0D01*
G01*
G37*
G36*
G01*
X168145000Y-98750000D02*
X168445000Y-98750000D01*
G75*
G02*
X168595000Y-98900000I0J-150000D01*
G01*
X168595000Y-100550000D01*
G75*
G02*
X168445000Y-100700000I-150000J0D01*
G01*
X168145000Y-100700000D01*
G75*
G02*
X167995000Y-100550000I0J150000D01*
G01*
X167995000Y-98900000D01*
G75*
G02*
X168145000Y-98750000I150000J0D01*
G01*
G37*
G36*
G01*
X169415000Y-98750000D02*
X169715000Y-98750000D01*
G75*
G02*
X169865000Y-98900000I0J-150000D01*
G01*
X169865000Y-100550000D01*
G75*
G02*
X169715000Y-100700000I-150000J0D01*
G01*
X169415000Y-100700000D01*
G75*
G02*
X169265000Y-100550000I0J150000D01*
G01*
X169265000Y-98900000D01*
G75*
G02*
X169415000Y-98750000I150000J0D01*
G01*
G37*
G36*
G01*
X170685000Y-98750000D02*
X170985000Y-98750000D01*
G75*
G02*
X171135000Y-98900000I0J-150000D01*
G01*
X171135000Y-100550000D01*
G75*
G02*
X170985000Y-100700000I-150000J0D01*
G01*
X170685000Y-100700000D01*
G75*
G02*
X170535000Y-100550000I0J150000D01*
G01*
X170535000Y-98900000D01*
G75*
G02*
X170685000Y-98750000I150000J0D01*
G01*
G37*
G36*
G01*
X171955000Y-98750000D02*
X172255000Y-98750000D01*
G75*
G02*
X172405000Y-98900000I0J-150000D01*
G01*
X172405000Y-100550000D01*
G75*
G02*
X172255000Y-100700000I-150000J0D01*
G01*
X171955000Y-100700000D01*
G75*
G02*
X171805000Y-100550000I0J150000D01*
G01*
X171805000Y-98900000D01*
G75*
G02*
X171955000Y-98750000I150000J0D01*
G01*
G37*
%TD*%
%TO.C,LED5*%
G36*
G01*
X169630000Y-70350000D02*
X169630000Y-72450000D01*
G75*
G02*
X169180000Y-72900000I-450000J0D01*
G01*
X168280000Y-72900000D01*
G75*
G02*
X167830000Y-72450000I0J450000D01*
G01*
X167830000Y-70350000D01*
G75*
G02*
X168280000Y-69900000I450000J0D01*
G01*
X169180000Y-69900000D01*
G75*
G02*
X169630000Y-70350000I0J-450000D01*
G01*
G37*
G36*
G01*
X172170000Y-70350000D02*
X172170000Y-72450000D01*
G75*
G02*
X171720000Y-72900000I-450000J0D01*
G01*
X170820000Y-72900000D01*
G75*
G02*
X170370000Y-72450000I0J450000D01*
G01*
X170370000Y-70350000D01*
G75*
G02*
X170820000Y-69900000I450000J0D01*
G01*
X171720000Y-69900000D01*
G75*
G02*
X172170000Y-70350000I0J-450000D01*
G01*
G37*
%TD*%
%TO.C,C4*%
G36*
G01*
X169650000Y-108675000D02*
X169650000Y-107725000D01*
G75*
G02*
X169900000Y-107475000I250000J0D01*
G01*
X170400000Y-107475000D01*
G75*
G02*
X170650000Y-107725000I0J-250000D01*
G01*
X170650000Y-108675000D01*
G75*
G02*
X170400000Y-108925000I-250000J0D01*
G01*
X169900000Y-108925000D01*
G75*
G02*
X169650000Y-108675000I0J250000D01*
G01*
G37*
G36*
G01*
X167750000Y-108675000D02*
X167750000Y-107725000D01*
G75*
G02*
X168000000Y-107475000I250000J0D01*
G01*
X168500000Y-107475000D01*
G75*
G02*
X168750000Y-107725000I0J-250000D01*
G01*
X168750000Y-108675000D01*
G75*
G02*
X168500000Y-108925000I-250000J0D01*
G01*
X168000000Y-108925000D01*
G75*
G02*
X167750000Y-108675000I0J250000D01*
G01*
G37*
%TD*%
D20*
%TO.C,C12*%
X168750000Y-111200000D03*
D19*
X172250000Y-111200000D03*
%TD*%
%TO.C,R20*%
G36*
G01*
X168000000Y-96549998D02*
X168000000Y-97450002D01*
G75*
G02*
X167750002Y-97700000I-249998J0D01*
G01*
X167224998Y-97700000D01*
G75*
G02*
X166975000Y-97450002I0J249998D01*
G01*
X166975000Y-96549998D01*
G75*
G02*
X167224998Y-96300000I249998J0D01*
G01*
X167750002Y-96300000D01*
G75*
G02*
X168000000Y-96549998I0J-249998D01*
G01*
G37*
G36*
G01*
X169825000Y-96549998D02*
X169825000Y-97450002D01*
G75*
G02*
X169575002Y-97700000I-249998J0D01*
G01*
X169049998Y-97700000D01*
G75*
G02*
X168800000Y-97450002I0J249998D01*
G01*
X168800000Y-96549998D01*
G75*
G02*
X169049998Y-96300000I249998J0D01*
G01*
X169575002Y-96300000D01*
G75*
G02*
X169825000Y-96549998I0J-249998D01*
G01*
G37*
%TD*%
D17*
%TO.C,Q4*%
X169400000Y-89200000D03*
X170350000Y-91200000D03*
X168450000Y-91200000D03*
%TD*%
%TO.C,R4*%
G36*
G01*
X168149998Y-86200000D02*
X169050002Y-86200000D01*
G75*
G02*
X169300000Y-86449998I0J-249998D01*
G01*
X169300000Y-86975002D01*
G75*
G02*
X169050002Y-87225000I-249998J0D01*
G01*
X168149998Y-87225000D01*
G75*
G02*
X167900000Y-86975002I0J249998D01*
G01*
X167900000Y-86449998D01*
G75*
G02*
X168149998Y-86200000I249998J0D01*
G01*
G37*
G36*
G01*
X168149998Y-84375000D02*
X169050002Y-84375000D01*
G75*
G02*
X169300000Y-84624998I0J-249998D01*
G01*
X169300000Y-85150002D01*
G75*
G02*
X169050002Y-85400000I-249998J0D01*
G01*
X168149998Y-85400000D01*
G75*
G02*
X167900000Y-85150002I0J249998D01*
G01*
X167900000Y-84624998D01*
G75*
G02*
X168149998Y-84375000I249998J0D01*
G01*
G37*
%TD*%
%TO.C,LED4*%
G36*
G01*
X142170000Y-81950000D02*
X142170000Y-84050000D01*
G75*
G02*
X141720000Y-84500000I-450000J0D01*
G01*
X140820000Y-84500000D01*
G75*
G02*
X140370000Y-84050000I0J450000D01*
G01*
X140370000Y-81950000D01*
G75*
G02*
X140820000Y-81500000I450000J0D01*
G01*
X141720000Y-81500000D01*
G75*
G02*
X142170000Y-81950000I0J-450000D01*
G01*
G37*
G36*
G01*
X139630000Y-81950000D02*
X139630000Y-84050000D01*
G75*
G02*
X139180000Y-84500000I-450000J0D01*
G01*
X138280000Y-84500000D01*
G75*
G02*
X137830000Y-84050000I0J450000D01*
G01*
X137830000Y-81950000D01*
G75*
G02*
X138280000Y-81500000I450000J0D01*
G01*
X139180000Y-81500000D01*
G75*
G02*
X139630000Y-81950000I0J-450000D01*
G01*
G37*
%TD*%
%TO.C,R3*%
G36*
G01*
X138149998Y-95975000D02*
X139050002Y-95975000D01*
G75*
G02*
X139300000Y-96224998I0J-249998D01*
G01*
X139300000Y-96750002D01*
G75*
G02*
X139050002Y-97000000I-249998J0D01*
G01*
X138149998Y-97000000D01*
G75*
G02*
X137900000Y-96750002I0J249998D01*
G01*
X137900000Y-96224998D01*
G75*
G02*
X138149998Y-95975000I249998J0D01*
G01*
G37*
G36*
G01*
X138149998Y-97800000D02*
X139050002Y-97800000D01*
G75*
G02*
X139300000Y-98049998I0J-249998D01*
G01*
X139300000Y-98575002D01*
G75*
G02*
X139050002Y-98825000I-249998J0D01*
G01*
X138149998Y-98825000D01*
G75*
G02*
X137900000Y-98575002I0J249998D01*
G01*
X137900000Y-98049998D01*
G75*
G02*
X138149998Y-97800000I249998J0D01*
G01*
G37*
%TD*%
%TO.C,R19*%
G36*
G01*
X139825000Y-108149998D02*
X139825000Y-109050002D01*
G75*
G02*
X139575002Y-109300000I-249998J0D01*
G01*
X139049998Y-109300000D01*
G75*
G02*
X138800000Y-109050002I0J249998D01*
G01*
X138800000Y-108149998D01*
G75*
G02*
X139049998Y-107900000I249998J0D01*
G01*
X139575002Y-107900000D01*
G75*
G02*
X139825000Y-108149998I0J-249998D01*
G01*
G37*
G36*
G01*
X138000000Y-108149998D02*
X138000000Y-109050002D01*
G75*
G02*
X137750002Y-109300000I-249998J0D01*
G01*
X137224998Y-109300000D01*
G75*
G02*
X136975000Y-109050002I0J249998D01*
G01*
X136975000Y-108149998D01*
G75*
G02*
X137224998Y-107900000I249998J0D01*
G01*
X137750002Y-107900000D01*
G75*
G02*
X138000000Y-108149998I0J-249998D01*
G01*
G37*
%TD*%
%TO.C,C3*%
G36*
G01*
X137750000Y-120275000D02*
X137750000Y-119325000D01*
G75*
G02*
X138000000Y-119075000I250000J0D01*
G01*
X138500000Y-119075000D01*
G75*
G02*
X138750000Y-119325000I0J-250000D01*
G01*
X138750000Y-120275000D01*
G75*
G02*
X138500000Y-120525000I-250000J0D01*
G01*
X138000000Y-120525000D01*
G75*
G02*
X137750000Y-120275000I0J250000D01*
G01*
G37*
G36*
G01*
X139650000Y-120275000D02*
X139650000Y-119325000D01*
G75*
G02*
X139900000Y-119075000I250000J0D01*
G01*
X140400000Y-119075000D01*
G75*
G02*
X140650000Y-119325000I0J-250000D01*
G01*
X140650000Y-120275000D01*
G75*
G02*
X140400000Y-120525000I-250000J0D01*
G01*
X139900000Y-120525000D01*
G75*
G02*
X139650000Y-120275000I0J250000D01*
G01*
G37*
%TD*%
%TO.C,U3*%
G36*
G01*
X141955000Y-110350000D02*
X142255000Y-110350000D01*
G75*
G02*
X142405000Y-110500000I0J-150000D01*
G01*
X142405000Y-112150000D01*
G75*
G02*
X142255000Y-112300000I-150000J0D01*
G01*
X141955000Y-112300000D01*
G75*
G02*
X141805000Y-112150000I0J150000D01*
G01*
X141805000Y-110500000D01*
G75*
G02*
X141955000Y-110350000I150000J0D01*
G01*
G37*
G36*
G01*
X140685000Y-110350000D02*
X140985000Y-110350000D01*
G75*
G02*
X141135000Y-110500000I0J-150000D01*
G01*
X141135000Y-112150000D01*
G75*
G02*
X140985000Y-112300000I-150000J0D01*
G01*
X140685000Y-112300000D01*
G75*
G02*
X140535000Y-112150000I0J150000D01*
G01*
X140535000Y-110500000D01*
G75*
G02*
X140685000Y-110350000I150000J0D01*
G01*
G37*
G36*
G01*
X139415000Y-110350000D02*
X139715000Y-110350000D01*
G75*
G02*
X139865000Y-110500000I0J-150000D01*
G01*
X139865000Y-112150000D01*
G75*
G02*
X139715000Y-112300000I-150000J0D01*
G01*
X139415000Y-112300000D01*
G75*
G02*
X139265000Y-112150000I0J150000D01*
G01*
X139265000Y-110500000D01*
G75*
G02*
X139415000Y-110350000I150000J0D01*
G01*
G37*
G36*
G01*
X138145000Y-110350000D02*
X138445000Y-110350000D01*
G75*
G02*
X138595000Y-110500000I0J-150000D01*
G01*
X138595000Y-112150000D01*
G75*
G02*
X138445000Y-112300000I-150000J0D01*
G01*
X138145000Y-112300000D01*
G75*
G02*
X137995000Y-112150000I0J150000D01*
G01*
X137995000Y-110500000D01*
G75*
G02*
X138145000Y-110350000I150000J0D01*
G01*
G37*
G36*
G01*
X138145000Y-115300000D02*
X138445000Y-115300000D01*
G75*
G02*
X138595000Y-115450000I0J-150000D01*
G01*
X138595000Y-117100000D01*
G75*
G02*
X138445000Y-117250000I-150000J0D01*
G01*
X138145000Y-117250000D01*
G75*
G02*
X137995000Y-117100000I0J150000D01*
G01*
X137995000Y-115450000D01*
G75*
G02*
X138145000Y-115300000I150000J0D01*
G01*
G37*
G36*
G01*
X139415000Y-115300000D02*
X139715000Y-115300000D01*
G75*
G02*
X139865000Y-115450000I0J-150000D01*
G01*
X139865000Y-117100000D01*
G75*
G02*
X139715000Y-117250000I-150000J0D01*
G01*
X139415000Y-117250000D01*
G75*
G02*
X139265000Y-117100000I0J150000D01*
G01*
X139265000Y-115450000D01*
G75*
G02*
X139415000Y-115300000I150000J0D01*
G01*
G37*
G36*
G01*
X140685000Y-115300000D02*
X140985000Y-115300000D01*
G75*
G02*
X141135000Y-115450000I0J-150000D01*
G01*
X141135000Y-117100000D01*
G75*
G02*
X140985000Y-117250000I-150000J0D01*
G01*
X140685000Y-117250000D01*
G75*
G02*
X140535000Y-117100000I0J150000D01*
G01*
X140535000Y-115450000D01*
G75*
G02*
X140685000Y-115300000I150000J0D01*
G01*
G37*
G36*
G01*
X141955000Y-115300000D02*
X142255000Y-115300000D01*
G75*
G02*
X142405000Y-115450000I0J-150000D01*
G01*
X142405000Y-117100000D01*
G75*
G02*
X142255000Y-117250000I-150000J0D01*
G01*
X141955000Y-117250000D01*
G75*
G02*
X141805000Y-117100000I0J150000D01*
G01*
X141805000Y-115450000D01*
G75*
G02*
X141955000Y-115300000I150000J0D01*
G01*
G37*
%TD*%
%TO.C,Q3*%
X138450000Y-102800000D03*
X140350000Y-102800000D03*
X139400000Y-100800000D03*
%TD*%
D19*
%TO.C,C11*%
X142250000Y-122800000D03*
D20*
X138750000Y-122800000D03*
%TD*%
%TO.C,R11*%
G36*
G01*
X138850002Y-107025000D02*
X137949998Y-107025000D01*
G75*
G02*
X137700000Y-106775002I0J249998D01*
G01*
X137700000Y-106249998D01*
G75*
G02*
X137949998Y-106000000I249998J0D01*
G01*
X138850002Y-106000000D01*
G75*
G02*
X139100000Y-106249998I0J-249998D01*
G01*
X139100000Y-106775002D01*
G75*
G02*
X138850002Y-107025000I-249998J0D01*
G01*
G37*
G36*
G01*
X138850002Y-105200000D02*
X137949998Y-105200000D01*
G75*
G02*
X137700000Y-104950002I0J249998D01*
G01*
X137700000Y-104424998D01*
G75*
G02*
X137949998Y-104175000I249998J0D01*
G01*
X138850002Y-104175000D01*
G75*
G02*
X139100000Y-104424998I0J-249998D01*
G01*
X139100000Y-104950002D01*
G75*
G02*
X138850002Y-105200000I-249998J0D01*
G01*
G37*
%TD*%
D18*
%TO.C,SW3*%
X144100000Y-96755000D03*
X144100000Y-81895000D03*
%TD*%
%TO.C,LED3*%
G36*
G01*
X112170000Y-98950000D02*
X112170000Y-101050000D01*
G75*
G02*
X111720000Y-101500000I-450000J0D01*
G01*
X110820000Y-101500000D01*
G75*
G02*
X110370000Y-101050000I0J450000D01*
G01*
X110370000Y-98950000D01*
G75*
G02*
X110820000Y-98500000I450000J0D01*
G01*
X111720000Y-98500000D01*
G75*
G02*
X112170000Y-98950000I0J-450000D01*
G01*
G37*
G36*
G01*
X109630000Y-98950000D02*
X109630000Y-101050000D01*
G75*
G02*
X109180000Y-101500000I-450000J0D01*
G01*
X108280000Y-101500000D01*
G75*
G02*
X107830000Y-101050000I0J450000D01*
G01*
X107830000Y-98950000D01*
G75*
G02*
X108280000Y-98500000I450000J0D01*
G01*
X109180000Y-98500000D01*
G75*
G02*
X109630000Y-98950000I0J-450000D01*
G01*
G37*
%TD*%
%TO.C,R2*%
G36*
G01*
X108149998Y-112975000D02*
X109050002Y-112975000D01*
G75*
G02*
X109300000Y-113224998I0J-249998D01*
G01*
X109300000Y-113750002D01*
G75*
G02*
X109050002Y-114000000I-249998J0D01*
G01*
X108149998Y-114000000D01*
G75*
G02*
X107900000Y-113750002I0J249998D01*
G01*
X107900000Y-113224998D01*
G75*
G02*
X108149998Y-112975000I249998J0D01*
G01*
G37*
G36*
G01*
X108149998Y-114800000D02*
X109050002Y-114800000D01*
G75*
G02*
X109300000Y-115049998I0J-249998D01*
G01*
X109300000Y-115575002D01*
G75*
G02*
X109050002Y-115825000I-249998J0D01*
G01*
X108149998Y-115825000D01*
G75*
G02*
X107900000Y-115575002I0J249998D01*
G01*
X107900000Y-115049998D01*
G75*
G02*
X108149998Y-114800000I249998J0D01*
G01*
G37*
%TD*%
%TO.C,R18*%
G36*
G01*
X109825000Y-125149998D02*
X109825000Y-126050002D01*
G75*
G02*
X109575002Y-126300000I-249998J0D01*
G01*
X109049998Y-126300000D01*
G75*
G02*
X108800000Y-126050002I0J249998D01*
G01*
X108800000Y-125149998D01*
G75*
G02*
X109049998Y-124900000I249998J0D01*
G01*
X109575002Y-124900000D01*
G75*
G02*
X109825000Y-125149998I0J-249998D01*
G01*
G37*
G36*
G01*
X108000000Y-125149998D02*
X108000000Y-126050002D01*
G75*
G02*
X107750002Y-126300000I-249998J0D01*
G01*
X107224998Y-126300000D01*
G75*
G02*
X106975000Y-126050002I0J249998D01*
G01*
X106975000Y-125149998D01*
G75*
G02*
X107224998Y-124900000I249998J0D01*
G01*
X107750002Y-124900000D01*
G75*
G02*
X108000000Y-125149998I0J-249998D01*
G01*
G37*
%TD*%
%TO.C,C2*%
G36*
G01*
X107750000Y-137275000D02*
X107750000Y-136325000D01*
G75*
G02*
X108000000Y-136075000I250000J0D01*
G01*
X108500000Y-136075000D01*
G75*
G02*
X108750000Y-136325000I0J-250000D01*
G01*
X108750000Y-137275000D01*
G75*
G02*
X108500000Y-137525000I-250000J0D01*
G01*
X108000000Y-137525000D01*
G75*
G02*
X107750000Y-137275000I0J250000D01*
G01*
G37*
G36*
G01*
X109650000Y-137275000D02*
X109650000Y-136325000D01*
G75*
G02*
X109900000Y-136075000I250000J0D01*
G01*
X110400000Y-136075000D01*
G75*
G02*
X110650000Y-136325000I0J-250000D01*
G01*
X110650000Y-137275000D01*
G75*
G02*
X110400000Y-137525000I-250000J0D01*
G01*
X109900000Y-137525000D01*
G75*
G02*
X109650000Y-137275000I0J250000D01*
G01*
G37*
%TD*%
%TO.C,U2*%
G36*
G01*
X111955000Y-127350000D02*
X112255000Y-127350000D01*
G75*
G02*
X112405000Y-127500000I0J-150000D01*
G01*
X112405000Y-129150000D01*
G75*
G02*
X112255000Y-129300000I-150000J0D01*
G01*
X111955000Y-129300000D01*
G75*
G02*
X111805000Y-129150000I0J150000D01*
G01*
X111805000Y-127500000D01*
G75*
G02*
X111955000Y-127350000I150000J0D01*
G01*
G37*
G36*
G01*
X110685000Y-127350000D02*
X110985000Y-127350000D01*
G75*
G02*
X111135000Y-127500000I0J-150000D01*
G01*
X111135000Y-129150000D01*
G75*
G02*
X110985000Y-129300000I-150000J0D01*
G01*
X110685000Y-129300000D01*
G75*
G02*
X110535000Y-129150000I0J150000D01*
G01*
X110535000Y-127500000D01*
G75*
G02*
X110685000Y-127350000I150000J0D01*
G01*
G37*
G36*
G01*
X109415000Y-127350000D02*
X109715000Y-127350000D01*
G75*
G02*
X109865000Y-127500000I0J-150000D01*
G01*
X109865000Y-129150000D01*
G75*
G02*
X109715000Y-129300000I-150000J0D01*
G01*
X109415000Y-129300000D01*
G75*
G02*
X109265000Y-129150000I0J150000D01*
G01*
X109265000Y-127500000D01*
G75*
G02*
X109415000Y-127350000I150000J0D01*
G01*
G37*
G36*
G01*
X108145000Y-127350000D02*
X108445000Y-127350000D01*
G75*
G02*
X108595000Y-127500000I0J-150000D01*
G01*
X108595000Y-129150000D01*
G75*
G02*
X108445000Y-129300000I-150000J0D01*
G01*
X108145000Y-129300000D01*
G75*
G02*
X107995000Y-129150000I0J150000D01*
G01*
X107995000Y-127500000D01*
G75*
G02*
X108145000Y-127350000I150000J0D01*
G01*
G37*
G36*
G01*
X108145000Y-132300000D02*
X108445000Y-132300000D01*
G75*
G02*
X108595000Y-132450000I0J-150000D01*
G01*
X108595000Y-134100000D01*
G75*
G02*
X108445000Y-134250000I-150000J0D01*
G01*
X108145000Y-134250000D01*
G75*
G02*
X107995000Y-134100000I0J150000D01*
G01*
X107995000Y-132450000D01*
G75*
G02*
X108145000Y-132300000I150000J0D01*
G01*
G37*
G36*
G01*
X109415000Y-132300000D02*
X109715000Y-132300000D01*
G75*
G02*
X109865000Y-132450000I0J-150000D01*
G01*
X109865000Y-134100000D01*
G75*
G02*
X109715000Y-134250000I-150000J0D01*
G01*
X109415000Y-134250000D01*
G75*
G02*
X109265000Y-134100000I0J150000D01*
G01*
X109265000Y-132450000D01*
G75*
G02*
X109415000Y-132300000I150000J0D01*
G01*
G37*
G36*
G01*
X110685000Y-132300000D02*
X110985000Y-132300000D01*
G75*
G02*
X111135000Y-132450000I0J-150000D01*
G01*
X111135000Y-134100000D01*
G75*
G02*
X110985000Y-134250000I-150000J0D01*
G01*
X110685000Y-134250000D01*
G75*
G02*
X110535000Y-134100000I0J150000D01*
G01*
X110535000Y-132450000D01*
G75*
G02*
X110685000Y-132300000I150000J0D01*
G01*
G37*
G36*
G01*
X111955000Y-132300000D02*
X112255000Y-132300000D01*
G75*
G02*
X112405000Y-132450000I0J-150000D01*
G01*
X112405000Y-134100000D01*
G75*
G02*
X112255000Y-134250000I-150000J0D01*
G01*
X111955000Y-134250000D01*
G75*
G02*
X111805000Y-134100000I0J150000D01*
G01*
X111805000Y-132450000D01*
G75*
G02*
X111955000Y-132300000I150000J0D01*
G01*
G37*
%TD*%
D17*
%TO.C,Q2*%
X108450000Y-119800000D03*
X110350000Y-119800000D03*
X109400000Y-117800000D03*
%TD*%
D19*
%TO.C,C10*%
X112250000Y-139800000D03*
D20*
X108750000Y-139800000D03*
%TD*%
%TO.C,R10*%
G36*
G01*
X108850002Y-124025000D02*
X107949998Y-124025000D01*
G75*
G02*
X107700000Y-123775002I0J249998D01*
G01*
X107700000Y-123249998D01*
G75*
G02*
X107949998Y-123000000I249998J0D01*
G01*
X108850002Y-123000000D01*
G75*
G02*
X109100000Y-123249998I0J-249998D01*
G01*
X109100000Y-123775002D01*
G75*
G02*
X108850002Y-124025000I-249998J0D01*
G01*
G37*
G36*
G01*
X108850002Y-122200000D02*
X107949998Y-122200000D01*
G75*
G02*
X107700000Y-121950002I0J249998D01*
G01*
X107700000Y-121424998D01*
G75*
G02*
X107949998Y-121175000I249998J0D01*
G01*
X108850002Y-121175000D01*
G75*
G02*
X109100000Y-121424998I0J-249998D01*
G01*
X109100000Y-121950002D01*
G75*
G02*
X108850002Y-122200000I-249998J0D01*
G01*
G37*
%TD*%
D18*
%TO.C,SW2*%
X114100000Y-113755000D03*
X114100000Y-98895000D03*
%TD*%
%TO.C,LED1*%
G36*
G01*
X202170000Y-55350000D02*
X202170000Y-57450000D01*
G75*
G02*
X201720000Y-57900000I-450000J0D01*
G01*
X200820000Y-57900000D01*
G75*
G02*
X200370000Y-57450000I0J450000D01*
G01*
X200370000Y-55350000D01*
G75*
G02*
X200820000Y-54900000I450000J0D01*
G01*
X201720000Y-54900000D01*
G75*
G02*
X202170000Y-55350000I0J-450000D01*
G01*
G37*
G36*
G01*
X199630000Y-55350000D02*
X199630000Y-57450000D01*
G75*
G02*
X199180000Y-57900000I-450000J0D01*
G01*
X198280000Y-57900000D01*
G75*
G02*
X197830000Y-57450000I0J450000D01*
G01*
X197830000Y-55350000D01*
G75*
G02*
X198280000Y-54900000I450000J0D01*
G01*
X199180000Y-54900000D01*
G75*
G02*
X199630000Y-55350000I0J-450000D01*
G01*
G37*
%TD*%
%TO.C,LED2*%
G36*
G01*
X79630000Y-122950000D02*
X79630000Y-125050000D01*
G75*
G02*
X79180000Y-125500000I-450000J0D01*
G01*
X78280000Y-125500000D01*
G75*
G02*
X77830000Y-125050000I0J450000D01*
G01*
X77830000Y-122950000D01*
G75*
G02*
X78280000Y-122500000I450000J0D01*
G01*
X79180000Y-122500000D01*
G75*
G02*
X79630000Y-122950000I0J-450000D01*
G01*
G37*
G36*
G01*
X82170000Y-122950000D02*
X82170000Y-125050000D01*
G75*
G02*
X81720000Y-125500000I-450000J0D01*
G01*
X80820000Y-125500000D01*
G75*
G02*
X80370000Y-125050000I0J450000D01*
G01*
X80370000Y-122950000D01*
G75*
G02*
X80820000Y-122500000I450000J0D01*
G01*
X81720000Y-122500000D01*
G75*
G02*
X82170000Y-122950000I0J-450000D01*
G01*
G37*
%TD*%
D20*
%TO.C,C18*%
X288720000Y-155570000D03*
D19*
X288720000Y-153570000D03*
%TD*%
D20*
%TO.C,C9*%
X78750000Y-163800000D03*
D19*
X82250000Y-163800000D03*
%TD*%
%TO.C,U9*%
G36*
G01*
X289075000Y-149070000D02*
X289375000Y-149070000D01*
G75*
G02*
X289525000Y-149220000I0J-150000D01*
G01*
X289525000Y-150870000D01*
G75*
G02*
X289375000Y-151020000I-150000J0D01*
G01*
X289075000Y-151020000D01*
G75*
G02*
X288925000Y-150870000I0J150000D01*
G01*
X288925000Y-149220000D01*
G75*
G02*
X289075000Y-149070000I150000J0D01*
G01*
G37*
G36*
G01*
X287805000Y-149070000D02*
X288105000Y-149070000D01*
G75*
G02*
X288255000Y-149220000I0J-150000D01*
G01*
X288255000Y-150870000D01*
G75*
G02*
X288105000Y-151020000I-150000J0D01*
G01*
X287805000Y-151020000D01*
G75*
G02*
X287655000Y-150870000I0J150000D01*
G01*
X287655000Y-149220000D01*
G75*
G02*
X287805000Y-149070000I150000J0D01*
G01*
G37*
G36*
G01*
X286535000Y-149070000D02*
X286835000Y-149070000D01*
G75*
G02*
X286985000Y-149220000I0J-150000D01*
G01*
X286985000Y-150870000D01*
G75*
G02*
X286835000Y-151020000I-150000J0D01*
G01*
X286535000Y-151020000D01*
G75*
G02*
X286385000Y-150870000I0J150000D01*
G01*
X286385000Y-149220000D01*
G75*
G02*
X286535000Y-149070000I150000J0D01*
G01*
G37*
G36*
G01*
X285265000Y-149070000D02*
X285565000Y-149070000D01*
G75*
G02*
X285715000Y-149220000I0J-150000D01*
G01*
X285715000Y-150870000D01*
G75*
G02*
X285565000Y-151020000I-150000J0D01*
G01*
X285265000Y-151020000D01*
G75*
G02*
X285115000Y-150870000I0J150000D01*
G01*
X285115000Y-149220000D01*
G75*
G02*
X285265000Y-149070000I150000J0D01*
G01*
G37*
G36*
G01*
X285265000Y-144120000D02*
X285565000Y-144120000D01*
G75*
G02*
X285715000Y-144270000I0J-150000D01*
G01*
X285715000Y-145920000D01*
G75*
G02*
X285565000Y-146070000I-150000J0D01*
G01*
X285265000Y-146070000D01*
G75*
G02*
X285115000Y-145920000I0J150000D01*
G01*
X285115000Y-144270000D01*
G75*
G02*
X285265000Y-144120000I150000J0D01*
G01*
G37*
G36*
G01*
X286535000Y-144120000D02*
X286835000Y-144120000D01*
G75*
G02*
X286985000Y-144270000I0J-150000D01*
G01*
X286985000Y-145920000D01*
G75*
G02*
X286835000Y-146070000I-150000J0D01*
G01*
X286535000Y-146070000D01*
G75*
G02*
X286385000Y-145920000I0J150000D01*
G01*
X286385000Y-144270000D01*
G75*
G02*
X286535000Y-144120000I150000J0D01*
G01*
G37*
G36*
G01*
X287805000Y-144120000D02*
X288105000Y-144120000D01*
G75*
G02*
X288255000Y-144270000I0J-150000D01*
G01*
X288255000Y-145920000D01*
G75*
G02*
X288105000Y-146070000I-150000J0D01*
G01*
X287805000Y-146070000D01*
G75*
G02*
X287655000Y-145920000I0J150000D01*
G01*
X287655000Y-144270000D01*
G75*
G02*
X287805000Y-144120000I150000J0D01*
G01*
G37*
G36*
G01*
X289075000Y-144120000D02*
X289375000Y-144120000D01*
G75*
G02*
X289525000Y-144270000I0J-150000D01*
G01*
X289525000Y-145920000D01*
G75*
G02*
X289375000Y-146070000I-150000J0D01*
G01*
X289075000Y-146070000D01*
G75*
G02*
X288925000Y-145920000I0J150000D01*
G01*
X288925000Y-144270000D01*
G75*
G02*
X289075000Y-144120000I150000J0D01*
G01*
G37*
%TD*%
%TO.C,U1*%
G36*
G01*
X81955000Y-156300000D02*
X82255000Y-156300000D01*
G75*
G02*
X82405000Y-156450000I0J-150000D01*
G01*
X82405000Y-158100000D01*
G75*
G02*
X82255000Y-158250000I-150000J0D01*
G01*
X81955000Y-158250000D01*
G75*
G02*
X81805000Y-158100000I0J150000D01*
G01*
X81805000Y-156450000D01*
G75*
G02*
X81955000Y-156300000I150000J0D01*
G01*
G37*
G36*
G01*
X80685000Y-156300000D02*
X80985000Y-156300000D01*
G75*
G02*
X81135000Y-156450000I0J-150000D01*
G01*
X81135000Y-158100000D01*
G75*
G02*
X80985000Y-158250000I-150000J0D01*
G01*
X80685000Y-158250000D01*
G75*
G02*
X80535000Y-158100000I0J150000D01*
G01*
X80535000Y-156450000D01*
G75*
G02*
X80685000Y-156300000I150000J0D01*
G01*
G37*
G36*
G01*
X79415000Y-156300000D02*
X79715000Y-156300000D01*
G75*
G02*
X79865000Y-156450000I0J-150000D01*
G01*
X79865000Y-158100000D01*
G75*
G02*
X79715000Y-158250000I-150000J0D01*
G01*
X79415000Y-158250000D01*
G75*
G02*
X79265000Y-158100000I0J150000D01*
G01*
X79265000Y-156450000D01*
G75*
G02*
X79415000Y-156300000I150000J0D01*
G01*
G37*
G36*
G01*
X78145000Y-156300000D02*
X78445000Y-156300000D01*
G75*
G02*
X78595000Y-156450000I0J-150000D01*
G01*
X78595000Y-158100000D01*
G75*
G02*
X78445000Y-158250000I-150000J0D01*
G01*
X78145000Y-158250000D01*
G75*
G02*
X77995000Y-158100000I0J150000D01*
G01*
X77995000Y-156450000D01*
G75*
G02*
X78145000Y-156300000I150000J0D01*
G01*
G37*
G36*
G01*
X78145000Y-151350000D02*
X78445000Y-151350000D01*
G75*
G02*
X78595000Y-151500000I0J-150000D01*
G01*
X78595000Y-153150000D01*
G75*
G02*
X78445000Y-153300000I-150000J0D01*
G01*
X78145000Y-153300000D01*
G75*
G02*
X77995000Y-153150000I0J150000D01*
G01*
X77995000Y-151500000D01*
G75*
G02*
X78145000Y-151350000I150000J0D01*
G01*
G37*
G36*
G01*
X79415000Y-151350000D02*
X79715000Y-151350000D01*
G75*
G02*
X79865000Y-151500000I0J-150000D01*
G01*
X79865000Y-153150000D01*
G75*
G02*
X79715000Y-153300000I-150000J0D01*
G01*
X79415000Y-153300000D01*
G75*
G02*
X79265000Y-153150000I0J150000D01*
G01*
X79265000Y-151500000D01*
G75*
G02*
X79415000Y-151350000I150000J0D01*
G01*
G37*
G36*
G01*
X80685000Y-151350000D02*
X80985000Y-151350000D01*
G75*
G02*
X81135000Y-151500000I0J-150000D01*
G01*
X81135000Y-153150000D01*
G75*
G02*
X80985000Y-153300000I-150000J0D01*
G01*
X80685000Y-153300000D01*
G75*
G02*
X80535000Y-153150000I0J150000D01*
G01*
X80535000Y-151500000D01*
G75*
G02*
X80685000Y-151350000I150000J0D01*
G01*
G37*
G36*
G01*
X81955000Y-151350000D02*
X82255000Y-151350000D01*
G75*
G02*
X82405000Y-151500000I0J-150000D01*
G01*
X82405000Y-153150000D01*
G75*
G02*
X82255000Y-153300000I-150000J0D01*
G01*
X81955000Y-153300000D01*
G75*
G02*
X81805000Y-153150000I0J150000D01*
G01*
X81805000Y-151500000D01*
G75*
G02*
X81955000Y-151350000I150000J0D01*
G01*
G37*
%TD*%
D18*
%TO.C,SW1*%
X84100000Y-122895000D03*
X84100000Y-137755000D03*
%TD*%
D21*
%TO.C,SW9*%
X323400000Y-168950000D03*
X323400000Y-185450000D03*
D22*
X322150000Y-181200000D03*
X322150000Y-177200000D03*
X322150000Y-173200000D03*
X324650000Y-181200000D03*
X324650000Y-177200000D03*
D23*
X324650000Y-173200000D03*
%TD*%
%TO.C,R29*%
G36*
G01*
X318430002Y-159360000D02*
X317529998Y-159360000D01*
G75*
G02*
X317280000Y-159110002I0J249998D01*
G01*
X317280000Y-158584998D01*
G75*
G02*
X317529998Y-158335000I249998J0D01*
G01*
X318430002Y-158335000D01*
G75*
G02*
X318680000Y-158584998I0J-249998D01*
G01*
X318680000Y-159110002D01*
G75*
G02*
X318430002Y-159360000I-249998J0D01*
G01*
G37*
G36*
G01*
X318430002Y-161185000D02*
X317529998Y-161185000D01*
G75*
G02*
X317280000Y-160935002I0J249998D01*
G01*
X317280000Y-160409998D01*
G75*
G02*
X317529998Y-160160000I249998J0D01*
G01*
X318430002Y-160160000D01*
G75*
G02*
X318680000Y-160409998I0J-249998D01*
G01*
X318680000Y-160935002D01*
G75*
G02*
X318430002Y-161185000I-249998J0D01*
G01*
G37*
%TD*%
%TO.C,R28*%
G36*
G01*
X308614999Y-152530000D02*
X310765001Y-152530000D01*
G75*
G02*
X311015000Y-152779999I0J-249999D01*
G01*
X311015000Y-153505001D01*
G75*
G02*
X310765001Y-153755000I-249999J0D01*
G01*
X308614999Y-153755000D01*
G75*
G02*
X308365000Y-153505001I0J249999D01*
G01*
X308365000Y-152779999D01*
G75*
G02*
X308614999Y-152530000I249999J0D01*
G01*
G37*
G36*
G01*
X308614999Y-147905000D02*
X310765001Y-147905000D01*
G75*
G02*
X311015000Y-148154999I0J-249999D01*
G01*
X311015000Y-148880001D01*
G75*
G02*
X310765001Y-149130000I-249999J0D01*
G01*
X308614999Y-149130000D01*
G75*
G02*
X308365000Y-148880001I0J249999D01*
G01*
X308365000Y-148154999D01*
G75*
G02*
X308614999Y-147905000I249999J0D01*
G01*
G37*
%TD*%
%TO.C,R25*%
G36*
G01*
X286069998Y-141170000D02*
X286970002Y-141170000D01*
G75*
G02*
X287220000Y-141419998I0J-249998D01*
G01*
X287220000Y-141945002D01*
G75*
G02*
X286970002Y-142195000I-249998J0D01*
G01*
X286069998Y-142195000D01*
G75*
G02*
X285820000Y-141945002I0J249998D01*
G01*
X285820000Y-141419998D01*
G75*
G02*
X286069998Y-141170000I249998J0D01*
G01*
G37*
G36*
G01*
X286069998Y-139345000D02*
X286970002Y-139345000D01*
G75*
G02*
X287220000Y-139594998I0J-249998D01*
G01*
X287220000Y-140120002D01*
G75*
G02*
X286970002Y-140370000I-249998J0D01*
G01*
X286069998Y-140370000D01*
G75*
G02*
X285820000Y-140120002I0J249998D01*
G01*
X285820000Y-139594998D01*
G75*
G02*
X286069998Y-139345000I249998J0D01*
G01*
G37*
%TD*%
%TO.C,R27*%
G36*
G01*
X293570002Y-148970000D02*
X292669998Y-148970000D01*
G75*
G02*
X292420000Y-148720002I0J249998D01*
G01*
X292420000Y-148194998D01*
G75*
G02*
X292669998Y-147945000I249998J0D01*
G01*
X293570002Y-147945000D01*
G75*
G02*
X293820000Y-148194998I0J-249998D01*
G01*
X293820000Y-148720002D01*
G75*
G02*
X293570002Y-148970000I-249998J0D01*
G01*
G37*
G36*
G01*
X293570002Y-150795000D02*
X292669998Y-150795000D01*
G75*
G02*
X292420000Y-150545002I0J249998D01*
G01*
X292420000Y-150019998D01*
G75*
G02*
X292669998Y-149770000I249998J0D01*
G01*
X293570002Y-149770000D01*
G75*
G02*
X293820000Y-150019998I0J-249998D01*
G01*
X293820000Y-150545002D01*
G75*
G02*
X293570002Y-150795000I-249998J0D01*
G01*
G37*
%TD*%
%TO.C,R1*%
G36*
G01*
X78149998Y-138800000D02*
X79050002Y-138800000D01*
G75*
G02*
X79300000Y-139049998I0J-249998D01*
G01*
X79300000Y-139575002D01*
G75*
G02*
X79050002Y-139825000I-249998J0D01*
G01*
X78149998Y-139825000D01*
G75*
G02*
X77900000Y-139575002I0J249998D01*
G01*
X77900000Y-139049998D01*
G75*
G02*
X78149998Y-138800000I249998J0D01*
G01*
G37*
G36*
G01*
X78149998Y-136975000D02*
X79050002Y-136975000D01*
G75*
G02*
X79300000Y-137224998I0J-249998D01*
G01*
X79300000Y-137750002D01*
G75*
G02*
X79050002Y-138000000I-249998J0D01*
G01*
X78149998Y-138000000D01*
G75*
G02*
X77900000Y-137750002I0J249998D01*
G01*
X77900000Y-137224998D01*
G75*
G02*
X78149998Y-136975000I249998J0D01*
G01*
G37*
%TD*%
%TO.C,R9*%
G36*
G01*
X78850002Y-146200000D02*
X77949998Y-146200000D01*
G75*
G02*
X77700000Y-145950002I0J249998D01*
G01*
X77700000Y-145424998D01*
G75*
G02*
X77949998Y-145175000I249998J0D01*
G01*
X78850002Y-145175000D01*
G75*
G02*
X79100000Y-145424998I0J-249998D01*
G01*
X79100000Y-145950002D01*
G75*
G02*
X78850002Y-146200000I-249998J0D01*
G01*
G37*
G36*
G01*
X78850002Y-148025000D02*
X77949998Y-148025000D01*
G75*
G02*
X77700000Y-147775002I0J249998D01*
G01*
X77700000Y-147249998D01*
G75*
G02*
X77949998Y-147000000I249998J0D01*
G01*
X78850002Y-147000000D01*
G75*
G02*
X79100000Y-147249998I0J-249998D01*
G01*
X79100000Y-147775002D01*
G75*
G02*
X78850002Y-148025000I-249998J0D01*
G01*
G37*
%TD*%
%TO.C,R17*%
G36*
G01*
X78000000Y-149149998D02*
X78000000Y-150050002D01*
G75*
G02*
X77750002Y-150300000I-249998J0D01*
G01*
X77224998Y-150300000D01*
G75*
G02*
X76975000Y-150050002I0J249998D01*
G01*
X76975000Y-149149998D01*
G75*
G02*
X77224998Y-148900000I249998J0D01*
G01*
X77750002Y-148900000D01*
G75*
G02*
X78000000Y-149149998I0J-249998D01*
G01*
G37*
G36*
G01*
X79825000Y-149149998D02*
X79825000Y-150050002D01*
G75*
G02*
X79575002Y-150300000I-249998J0D01*
G01*
X79049998Y-150300000D01*
G75*
G02*
X78800000Y-150050002I0J249998D01*
G01*
X78800000Y-149149998D01*
G75*
G02*
X79049998Y-148900000I249998J0D01*
G01*
X79575002Y-148900000D01*
G75*
G02*
X79825000Y-149149998I0J-249998D01*
G01*
G37*
%TD*%
D17*
%TO.C,Q1*%
X79400000Y-141800000D03*
X80350000Y-143800000D03*
X78450000Y-143800000D03*
%TD*%
D24*
%TO.C,Q9*%
X291920000Y-140770000D03*
X289920000Y-141720000D03*
X289920000Y-139820000D03*
%TD*%
%TO.C,J2*%
G36*
G01*
X195200000Y-145000000D02*
X196600000Y-145000000D01*
G75*
G02*
X197300000Y-145700000I0J-700000D01*
G01*
X197300000Y-149300000D01*
G75*
G02*
X196600000Y-150000000I-700000J0D01*
G01*
X195200000Y-150000000D01*
G75*
G02*
X194500000Y-149300000I0J700000D01*
G01*
X194500000Y-145700000D01*
G75*
G02*
X195200000Y-145000000I700000J0D01*
G01*
G37*
G36*
G01*
X198700000Y-143100000D02*
X202300000Y-143100000D01*
G75*
G02*
X203000000Y-143800000I0J-700000D01*
G01*
X203000000Y-145200000D01*
G75*
G02*
X202300000Y-145900000I-700000J0D01*
G01*
X198700000Y-145900000D01*
G75*
G02*
X198000000Y-145200000I0J700000D01*
G01*
X198000000Y-143800000D01*
G75*
G02*
X198700000Y-143100000I700000J0D01*
G01*
G37*
G36*
G01*
X198700000Y-149100000D02*
X202300000Y-149100000D01*
G75*
G02*
X203000000Y-149800000I0J-700000D01*
G01*
X203000000Y-151200000D01*
G75*
G02*
X202300000Y-151900000I-700000J0D01*
G01*
X198700000Y-151900000D01*
G75*
G02*
X198000000Y-151200000I0J700000D01*
G01*
X198000000Y-149800000D01*
G75*
G02*
X198700000Y-149100000I700000J0D01*
G01*
G37*
%TD*%
D25*
%TO.C,J3*%
X202500000Y-125200000D03*
D26*
X198500000Y-125200000D03*
%TD*%
D27*
%TO.C,J1*%
X326475000Y-206500000D03*
X326475000Y-205850000D03*
X326475000Y-205200000D03*
X326475000Y-204550000D03*
X326475000Y-203900000D03*
D28*
X329150000Y-205200000D03*
D29*
X329150000Y-201025000D03*
X329150000Y-209375000D03*
D30*
X326150000Y-202975000D03*
X326150000Y-207425000D03*
%TD*%
D31*
%TO.C,FID2*%
X328600000Y-154200000D03*
%TD*%
%TO.C,FID1*%
X68245000Y-213425000D03*
%TD*%
D24*
%TO.C,D3*%
X296120000Y-148457500D03*
X298120000Y-147507500D03*
X298120000Y-149407500D03*
%TD*%
%TO.C,C17*%
G36*
G01*
X284845000Y-154770000D02*
X285795000Y-154770000D01*
G75*
G02*
X286045000Y-155020000I0J-250000D01*
G01*
X286045000Y-155520000D01*
G75*
G02*
X285795000Y-155770000I-250000J0D01*
G01*
X284845000Y-155770000D01*
G75*
G02*
X284595000Y-155520000I0J250000D01*
G01*
X284595000Y-155020000D01*
G75*
G02*
X284845000Y-154770000I250000J0D01*
G01*
G37*
G36*
G01*
X284845000Y-152870000D02*
X285795000Y-152870000D01*
G75*
G02*
X286045000Y-153120000I0J-250000D01*
G01*
X286045000Y-153620000D01*
G75*
G02*
X285795000Y-153870000I-250000J0D01*
G01*
X284845000Y-153870000D01*
G75*
G02*
X284595000Y-153620000I0J250000D01*
G01*
X284595000Y-153120000D01*
G75*
G02*
X284845000Y-152870000I250000J0D01*
G01*
G37*
%TD*%
%TO.C,C1*%
G36*
G01*
X79650000Y-161275000D02*
X79650000Y-160325000D01*
G75*
G02*
X79900000Y-160075000I250000J0D01*
G01*
X80400000Y-160075000D01*
G75*
G02*
X80650000Y-160325000I0J-250000D01*
G01*
X80650000Y-161275000D01*
G75*
G02*
X80400000Y-161525000I-250000J0D01*
G01*
X79900000Y-161525000D01*
G75*
G02*
X79650000Y-161275000I0J250000D01*
G01*
G37*
G36*
G01*
X77750000Y-161275000D02*
X77750000Y-160325000D01*
G75*
G02*
X78000000Y-160075000I250000J0D01*
G01*
X78500000Y-160075000D01*
G75*
G02*
X78750000Y-160325000I0J-250000D01*
G01*
X78750000Y-161275000D01*
G75*
G02*
X78500000Y-161525000I-250000J0D01*
G01*
X78000000Y-161525000D01*
G75*
G02*
X77750000Y-161275000I0J250000D01*
G01*
G37*
%TD*%
%TO.C,D10*%
X314580000Y-150760000D03*
X316580000Y-149810000D03*
X316580000Y-151710000D03*
%TD*%
M02*
