M48
; DRILL file {KiCad 5.1.10-88a1d61d58~90~ubuntu20.04.1} date Fri Nov 19 20:23:56 2021
; FORMAT={-:-/ absolute / metric / decimal}
; #@! TF.CreationDate,2021-11-19T20:23:56-08:00
; #@! TF.GenerationSoftware,Kicad,Pcbnew,5.1.10-88a1d61d58~90~ubuntu20.04.1
; #@! TF.FileFunction,Plated,1,2,PTH
FMAT,2
METRIC
T1C0.500
T2C0.600
T3C0.650
T4C0.800
T5C1.000
T6C1.400
T7C1.800
%
G90
G05
T1
X62.5Y-215.5
X76.6Y-122.2
X76.8Y-168.0
X79.6Y-154.8
X80.1Y-135.7
X80.4Y-183.1
X81.0Y-148.0
X84.2Y-135.4
X84.4Y-168.0
X106.6Y-98.2
X106.8Y-144.0
X108.4Y-164.7
X109.6Y-130.8
X110.1Y-111.8
X110.442Y-168.442
X111.0Y-124.0
X114.0Y-163.9
X114.2Y-111.4
X114.4Y-144.0
X119.0Y-167.7
X136.6Y-81.3
X136.8Y-127.0
X138.7Y-148.4
X139.6Y-113.8
X140.0Y-151.7
X140.1Y-94.9
X141.0Y-107.0
X141.4Y-152.9
X144.2Y-94.4
X144.2Y-145.4
X144.4Y-127.0
X166.7Y-69.6
X166.8Y-115.4
X168.6Y-139.1
X169.6Y-102.2
X170.0Y-83.0
X170.3Y-144.1
X170.4Y-141.812
X171.0Y-95.4
X174.1Y-139.2
X174.2Y-82.8
X174.4Y-115.4
X196.6Y-57.8
X198.73Y-117.62
X203.53Y-117.71
X204.2Y-57.8
X205.3Y-138.5
X216.2Y-137.4
X216.9Y-133.3
X226.6Y-59.9
X226.8Y-105.8
X228.1Y-133.2
X229.6Y-92.6
X230.2Y-73.7
X230.4Y-136.0
X230.6Y-140.2
X231.0Y-85.8
X234.2Y-73.2
X234.4Y-105.8
X234.5Y-133.2
X256.7Y-62.0
X256.8Y-107.8
X258.7Y-133.1
X259.6Y-94.6
X259.7Y-140.2
X260.1Y-75.5
X260.4Y-135.9
X261.0Y-87.8
X264.2Y-75.2
X264.2Y-133.1
X264.4Y-107.8
X285.415Y-147.64
X286.6Y-67.6
X286.8Y-113.4
X288.5Y-133.2
X289.225Y-147.64
X289.6Y-100.2
X290.3Y-81.3
X290.4Y-136.0
X290.7Y-150.7
X291.0Y-93.4
X291.2Y-143.4
X291.6Y-139.2
X293.7Y-133.9
X294.2Y-80.8
X294.4Y-113.4
X295.9Y-144.4
X299.141Y-141.459
X303.7Y-147.3
X316.6Y-78.4
X316.8Y-124.2
X316.9Y-143.2
X317.8Y-146.5
X318.6Y-173.3
X319.6Y-111.0
X320.3Y-92.4
X320.4Y-147.4
X321.0Y-104.2
X323.6Y-206.5
X323.9Y-144.2
X324.2Y-91.6
X324.4Y-124.2
X331.5Y-216.0
T4
X78.75Y-163.8
X82.25Y-163.8
X108.75Y-139.8
X112.25Y-139.8
X138.75Y-122.8
X142.25Y-122.8
X168.75Y-111.2
X172.25Y-111.2
X228.75Y-101.6
X232.25Y-101.6
X258.75Y-103.6
X262.25Y-103.6
X288.72Y-153.57
X288.72Y-155.57
X288.75Y-109.2
X292.25Y-109.2
X318.75Y-120.0
X322.25Y-120.0
T5
X194.5Y-121.9
X206.5Y-121.9
T7
X198.5Y-125.2
X202.5Y-125.2
T2
G00X328.8Y-201.025
M15
G01X329.5Y-201.025
M16
G05
G00X328.8Y-209.375
M15
G01X329.5Y-209.375
M16
G05
T3
G00X326.05Y-202.975
M15
G01X326.25Y-202.975
M16
G05
G00X326.05Y-207.425
M15
G01X326.25Y-207.425
M16
G05
T4
G00X195.9Y-146.4
M15
G01X195.9Y-148.6
M16
G05
G00X201.6Y-144.5
M15
G01X199.4Y-144.5
M16
G05
G00X201.6Y-150.5
M15
G01X199.4Y-150.5
M16
G05
G00X322.15Y-172.9
M15
G01X322.15Y-173.5
M16
G05
G00X322.15Y-176.9
M15
G01X322.15Y-177.5
M16
G05
G00X322.15Y-180.9
M15
G01X322.15Y-181.5
M16
G05
G00X324.65Y-172.9
M15
G01X324.65Y-173.5
M16
G05
G00X324.65Y-176.9
M15
G01X324.65Y-177.5
M16
G05
G00X324.65Y-180.9
M15
G01X324.65Y-181.5
M16
G05
T6
G00X323.85Y-168.95
M15
G01X322.95Y-168.95
M16
G05
G00X323.85Y-185.45
M15
G01X322.95Y-185.45
M16
G05
T0
M30
